%TF.GenerationSoftware,KiCad,Pcbnew,8.0.1*%
%TF.CreationDate,2024-05-26T11:57:39+02:00*%
%TF.ProjectId,80_KiCad,38305f4b-6943-4616-942e-6b696361645f,v1.0*%
%TF.SameCoordinates,Original*%
%TF.FileFunction,Copper,L1,Top*%
%TF.FilePolarity,Positive*%
%FSLAX46Y46*%
G04 Gerber Fmt 4.6, Leading zero omitted, Abs format (unit mm)*
G04 Created by KiCad (PCBNEW 8.0.1) date 2024-05-26 11:57:39*
%MOMM*%
%LPD*%
G01*
G04 APERTURE LIST*
%TA.AperFunction,ComponentPad*%
%ADD10R,1.600000X1.600000*%
%TD*%
%TA.AperFunction,ComponentPad*%
%ADD11O,1.600000X1.600000*%
%TD*%
%TA.AperFunction,ComponentPad*%
%ADD12C,1.600000*%
%TD*%
%TA.AperFunction,ComponentPad*%
%ADD13R,1.700000X1.700000*%
%TD*%
%TA.AperFunction,ComponentPad*%
%ADD14R,1.800000X1.800000*%
%TD*%
%TA.AperFunction,ComponentPad*%
%ADD15C,1.800000*%
%TD*%
%TA.AperFunction,ComponentPad*%
%ADD16C,2.000000*%
%TD*%
%TA.AperFunction,ComponentPad*%
%ADD17O,1.700000X1.700000*%
%TD*%
%TA.AperFunction,Conductor*%
%ADD18C,0.250000*%
%TD*%
G04 APERTURE END LIST*
D10*
%TO.P,U1,1,NC*%
%TO.N,unconnected-(U1-NC-Pad1)*%
X130225000Y-63400000D03*
D11*
%TO.P,U1,2,-*%
%TO.N,Net-(U1--)*%
X130225000Y-65940000D03*
%TO.P,U1,3,+*%
%TO.N,Net-(U1-+)*%
X130225000Y-68480000D03*
%TO.P,U1,4,V-*%
%TO.N,GND*%
X130225000Y-71020000D03*
%TO.P,U1,5,NC*%
%TO.N,unconnected-(U1-NC-Pad5)*%
X137845000Y-71020000D03*
%TO.P,U1,6*%
%TO.N,Net-(A1_Out1-Pad1)*%
X137845000Y-68480000D03*
%TO.P,U1,7,V+*%
%TO.N,VCC*%
X137845000Y-65940000D03*
%TO.P,U1,8,NC*%
%TO.N,unconnected-(U1-NC-Pad8)*%
X137845000Y-63400000D03*
%TD*%
D10*
%TO.P,C2,1*%
%TO.N,Net-(U1-+)*%
X124175000Y-77725000D03*
D12*
%TO.P,C2,2*%
%TO.N,GND*%
X126175000Y-77725000D03*
%TD*%
D13*
%TO.P,VCC,1,1*%
%TO.N,VCC*%
X102825000Y-52400000D03*
%TD*%
%TO.P,GND,1,1*%
%TO.N,GND*%
X109875000Y-97125000D03*
%TD*%
D12*
%TO.P,R10,1*%
%TO.N,GND*%
X109745000Y-66325000D03*
D11*
%TO.P,R10,2*%
%TO.N,Net-(D3-K)*%
X119905000Y-66325000D03*
%TD*%
D14*
%TO.P,D2,1,K*%
%TO.N,Net-(D2-K)*%
X134975000Y-55600000D03*
D15*
%TO.P,D2,2,A*%
%TO.N,Orange*%
X137515000Y-55600000D03*
%TD*%
D12*
%TO.P,R9,1*%
%TO.N,GND*%
X109745000Y-61300000D03*
D11*
%TO.P,R9,2*%
%TO.N,Net-(D2-K)*%
X119905000Y-61300000D03*
%TD*%
D14*
%TO.P,D3,1,K*%
%TO.N,Net-(D3-K)*%
X145125000Y-55500000D03*
D15*
%TO.P,D3,2,A*%
%TO.N,Green*%
X147665000Y-55500000D03*
%TD*%
D13*
%TO.P,A_In_P,1,1*%
%TO.N,Net-(U1-+)*%
X102775000Y-89475000D03*
%TD*%
%TO.P,A1_In_N,1,1*%
%TO.N,Net-(U1--)*%
X102650000Y-66625000D03*
%TD*%
D12*
%TO.P,C5,1*%
%TO.N,Net-(U1--)*%
X131200000Y-77975000D03*
%TO.P,C5,2*%
%TO.N,Net-(A1_Out1-Pad1)*%
X136200000Y-77975000D03*
%TD*%
%TO.P,R3,1*%
%TO.N,Net-(C3-Pad1)*%
X147175000Y-72555000D03*
D11*
%TO.P,R3,2*%
%TO.N,Net-(U1--)*%
X147175000Y-62395000D03*
%TD*%
D12*
%TO.P,R1,1*%
%TO.N,VCC*%
X109795000Y-71575000D03*
D11*
%TO.P,R1,2*%
%TO.N,Net-(U1-+)*%
X119955000Y-71575000D03*
%TD*%
D10*
%TO.P,U2,1,NC*%
%TO.N,unconnected-(U2-NC-Pad1)*%
X130050000Y-84125000D03*
D11*
%TO.P,U2,2,-*%
%TO.N,Net-(U2--)*%
X130050000Y-86665000D03*
%TO.P,U2,3,+*%
%TO.N,Net-(U1-+)*%
X130050000Y-89205000D03*
%TO.P,U2,4,V-*%
%TO.N,GND*%
X130050000Y-91745000D03*
%TO.P,U2,5,NC*%
%TO.N,unconnected-(U2-NC-Pad5)*%
X137670000Y-91745000D03*
%TO.P,U2,6*%
%TO.N,Net-(A2_Out1-Pad1)*%
X137670000Y-89205000D03*
%TO.P,U2,7,V+*%
%TO.N,VCC*%
X137670000Y-86665000D03*
%TO.P,U2,8,NC*%
%TO.N,unconnected-(U2-NC-Pad8)*%
X137670000Y-84125000D03*
%TD*%
D13*
%TO.P,V_In1,1,1*%
%TO.N,Vin*%
X156700000Y-92750000D03*
%TD*%
%TO.P,GND,1,1*%
%TO.N,GND*%
X102600000Y-74900000D03*
%TD*%
%TO.P,GND2,1,1*%
%TO.N,GND*%
X164475000Y-92800000D03*
%TD*%
%TO.P,V_Out,1,1*%
%TO.N,Vout*%
X122225000Y-97325000D03*
%TD*%
D12*
%TO.P,R5,1*%
%TO.N,Net-(C4-Pad2)*%
X124675000Y-82520000D03*
D11*
%TO.P,R5,2*%
%TO.N,Net-(U2--)*%
X124675000Y-92680000D03*
%TD*%
D13*
%TO.P,A2_Out,1,1*%
%TO.N,Net-(A2_Out1-Pad1)*%
X115750000Y-97200000D03*
%TD*%
D14*
%TO.P,D1,1,K*%
%TO.N,Net-(D1-K)*%
X125500000Y-55625000D03*
D15*
%TO.P,D1,2,A*%
%TO.N,Red*%
X128040000Y-55625000D03*
%TD*%
D16*
%TO.P,SW1,1,A*%
%TO.N,Push Button*%
X162175000Y-58850000D03*
X155675000Y-58850000D03*
%TO.P,SW1,2,B*%
%TO.N,GND*%
X162175000Y-54350000D03*
X155675000Y-54350000D03*
%TD*%
D12*
%TO.P,C1,1*%
%TO.N,Net-(U1-+)*%
X120075000Y-90525000D03*
%TO.P,C1,2*%
%TO.N,GND*%
X120075000Y-85525000D03*
%TD*%
D13*
%TO.P,A1_Out,1,1*%
%TO.N,Net-(A1_Out1-Pad1)*%
X102750000Y-82475000D03*
%TD*%
D12*
%TO.P,R7,1*%
%TO.N,Net-(U2--)*%
X152030000Y-85775000D03*
D11*
%TO.P,R7,2*%
%TO.N,Net-(A2_Out1-Pad1)*%
X141870000Y-85775000D03*
%TD*%
D12*
%TO.P,R11,1*%
%TO.N,Net-(D4-K)*%
X156495000Y-80200000D03*
D11*
%TO.P,R11,2*%
%TO.N,GND*%
X166655000Y-80200000D03*
%TD*%
D12*
%TO.P,R4,1*%
%TO.N,Net-(U1--)*%
X143400000Y-62345000D03*
D11*
%TO.P,R4,2*%
%TO.N,Net-(A1_Out1-Pad1)*%
X143400000Y-72505000D03*
%TD*%
D12*
%TO.P,R6,1*%
%TO.N,Net-(A2_Out1-Pad1)*%
X141845000Y-91875000D03*
D11*
%TO.P,R6,2*%
%TO.N,Vout*%
X152005000Y-91875000D03*
%TD*%
D12*
%TO.P,R2,1*%
%TO.N,Net-(U1-+)*%
X126200000Y-70980000D03*
D11*
%TO.P,R2,2*%
%TO.N,GND*%
X126200000Y-60820000D03*
%TD*%
D13*
%TO.P,GND,1,1*%
%TO.N,GND*%
X102900000Y-59100000D03*
%TD*%
D10*
%TO.P,C3,1*%
%TO.N,Net-(C3-Pad1)*%
X151369888Y-70650000D03*
D12*
%TO.P,C3,2*%
%TO.N,Vin*%
X153869888Y-70650000D03*
%TD*%
D14*
%TO.P,D4,1,K*%
%TO.N,Net-(D4-K)*%
X160750000Y-86050000D03*
D15*
%TO.P,D4,2,A*%
%TO.N,VCC*%
X163290000Y-86050000D03*
%TD*%
D12*
%TO.P,R12,1*%
%TO.N,Push Button*%
X154545000Y-63875000D03*
D11*
%TO.P,R12,2*%
%TO.N,VCC*%
X164705000Y-63875000D03*
%TD*%
D13*
%TO.P,A2_In_N,1,1*%
%TO.N,Net-(U2--)*%
X103200000Y-97025000D03*
%TD*%
D12*
%TO.P,R8,1*%
%TO.N,Net-(D1-K)*%
X120125000Y-55725000D03*
D11*
%TO.P,R8,2*%
%TO.N,GND*%
X109965000Y-55725000D03*
%TD*%
D12*
%TO.P,C6,1*%
%TO.N,Net-(U2--)*%
X149175000Y-78400000D03*
%TO.P,C6,2*%
%TO.N,Net-(A2_Out1-Pad1)*%
X144175000Y-78400000D03*
%TD*%
D10*
%TO.P,C4,1*%
%TO.N,Net-(A1_Out1-Pad1)*%
X116069888Y-77700000D03*
D12*
%TO.P,C4,2*%
%TO.N,Net-(C4-Pad2)*%
X118569888Y-77700000D03*
%TD*%
D13*
%TO.P,J5,1,Pin_1*%
%TO.N,GND*%
X158025000Y-73875000D03*
D17*
%TO.P,J5,2,Pin_2*%
%TO.N,Vin*%
X158025000Y-71335000D03*
%TO.P,J5,3,Pin_3*%
%TO.N,VCC*%
X158025000Y-68795000D03*
%TD*%
D13*
%TO.P,J1,1,Pin_1*%
%TO.N,unconnected-(J1-Pin_1-Pad1)*%
X127940000Y-97460000D03*
D17*
%TO.P,J1,2,Pin_2*%
%TO.N,/IOREF*%
X130480000Y-97460000D03*
%TO.P,J1,3,Pin_3*%
%TO.N,/~{RESET}*%
X133020000Y-97460000D03*
%TO.P,J1,4,Pin_4*%
%TO.N,unconnected-(J1-Pin_4-Pad4)*%
X135560000Y-97460000D03*
%TO.P,J1,5,Pin_5*%
%TO.N,VCC*%
X138100000Y-97460000D03*
%TO.P,J1,6,Pin_6*%
%TO.N,GND*%
X140640000Y-97460000D03*
%TO.P,J1,7,Pin_7*%
X143180000Y-97460000D03*
%TO.P,J1,8,Pin_8*%
%TO.N,unconnected-(J1-Pin_8-Pad8)*%
X145720000Y-97460000D03*
%TD*%
D13*
%TO.P,J3,1,Pin_1*%
%TO.N,Vout*%
X150800000Y-97460000D03*
D17*
%TO.P,J3,2,Pin_2*%
%TO.N,/A1*%
X153340000Y-97460000D03*
%TO.P,J3,3,Pin_3*%
%TO.N,/A2*%
X155880000Y-97460000D03*
%TO.P,J3,4,Pin_4*%
%TO.N,/A3*%
X158420000Y-97460000D03*
%TO.P,J3,5,Pin_5*%
%TO.N,/SDA{slash}A4*%
X160960000Y-97460000D03*
%TO.P,J3,6,Pin_6*%
%TO.N,/SCL{slash}A5*%
X163500000Y-97460000D03*
%TD*%
D13*
%TO.P,J2,1,Pin_1*%
%TO.N,unconnected-(J2-Pin_1-Pad1)*%
X118796000Y-49200000D03*
D17*
%TO.P,J2,2,Pin_2*%
%TO.N,unconnected-(J2-Pin_2-Pad2)*%
X121336000Y-49200000D03*
%TO.P,J2,3,Pin_3*%
%TO.N,/AREF*%
X123876000Y-49200000D03*
%TO.P,J2,4,Pin_4*%
%TO.N,GND*%
X126416000Y-49200000D03*
%TO.P,J2,5,Pin_5*%
%TO.N,/13*%
X128956000Y-49200000D03*
%TO.P,J2,6,Pin_6*%
%TO.N,/12*%
X131496000Y-49200000D03*
%TO.P,J2,7,Pin_7*%
%TO.N,/\u002A11*%
X134036000Y-49200000D03*
%TO.P,J2,8,Pin_8*%
%TO.N,/\u002A10*%
X136576000Y-49200000D03*
%TO.P,J2,9,Pin_9*%
%TO.N,/\u002A9*%
X139116000Y-49200000D03*
%TO.P,J2,10,Pin_10*%
%TO.N,/8*%
X141656000Y-49200000D03*
%TD*%
D13*
%TO.P,J4,1,Pin_1*%
%TO.N,Push Button*%
X145720000Y-49200000D03*
D17*
%TO.P,J4,2,Pin_2*%
%TO.N,Red*%
X148260000Y-49200000D03*
%TO.P,J4,3,Pin_3*%
%TO.N,Orange*%
X150800000Y-49200000D03*
%TO.P,J4,4,Pin_4*%
%TO.N,Green*%
X153340000Y-49200000D03*
%TO.P,J4,5,Pin_5*%
%TO.N,unconnected-(J4-Pin_5-Pad5)*%
X155880000Y-49200000D03*
%TO.P,J4,6,Pin_6*%
%TO.N,/2*%
X158420000Y-49200000D03*
%TO.P,J4,7,Pin_7*%
%TO.N,/TX{slash}1*%
X160960000Y-49200000D03*
%TO.P,J4,8,Pin_8*%
%TO.N,/RX{slash}0*%
X163500000Y-49200000D03*
%TD*%
D18*
%TO.N,Vin*%
X158025000Y-71335000D02*
X154554888Y-71335000D01*
X154554888Y-71335000D02*
X153869888Y-70650000D01*
%TO.N,Net-(U1--)*%
X130225000Y-65940000D02*
X127865000Y-68300000D01*
X127865000Y-68300000D02*
X104325000Y-68300000D01*
X104325000Y-68300000D02*
X102650000Y-66625000D01*
%TO.N,Net-(U1-+)*%
X105025000Y-90525000D02*
X103975000Y-89475000D01*
X103975000Y-89475000D02*
X102775000Y-89475000D01*
%TO.N,Red*%
X128040000Y-55625000D02*
X131615000Y-52050000D01*
X131615000Y-52050000D02*
X145410000Y-52050000D01*
X145410000Y-52050000D02*
X148260000Y-49200000D01*
%TO.N,Orange*%
X137515000Y-55585000D02*
X140300000Y-52800000D01*
X137515000Y-55600000D02*
X137515000Y-55585000D01*
X140300000Y-52800000D02*
X146650000Y-52800000D01*
X150250000Y-49200000D02*
X150800000Y-49200000D01*
X146650000Y-52800000D02*
X150250000Y-49200000D01*
%TO.N,Green*%
X153340000Y-49825000D02*
X153340000Y-49200000D01*
X147665000Y-55500000D02*
X153340000Y-49825000D01*
%TO.N,Vout*%
X150800000Y-93080000D02*
X152005000Y-91875000D01*
X121900000Y-96400000D02*
X123425000Y-94875000D01*
X121900000Y-97500000D02*
X121900000Y-96400000D01*
X123425000Y-94875000D02*
X148215000Y-94875000D01*
X148215000Y-94875000D02*
X150800000Y-97460000D01*
X150800000Y-97460000D02*
X150800000Y-93080000D01*
X150800000Y-97460000D02*
X150435000Y-97460000D01*
%TO.N,Net-(U1-+)*%
X130050000Y-89205000D02*
X128500000Y-87655000D01*
X127725000Y-70980000D02*
X130225000Y-68480000D01*
X120075000Y-90525000D02*
X105025000Y-90525000D01*
X119955000Y-71575000D02*
X125605000Y-71575000D01*
X128500000Y-87655000D02*
X128500000Y-73025000D01*
X120075000Y-90525000D02*
X121625000Y-88975000D01*
X124175000Y-77725000D02*
X124175000Y-75795000D01*
X124175000Y-75795000D02*
X119955000Y-71575000D01*
X125605000Y-71575000D02*
X126200000Y-70980000D01*
X128500000Y-73025000D02*
X126455000Y-70980000D01*
X126200000Y-70980000D02*
X127725000Y-70980000D01*
X129820000Y-88975000D02*
X130050000Y-89205000D01*
X121625000Y-88975000D02*
X129820000Y-88975000D01*
X126455000Y-70980000D02*
X126200000Y-70980000D01*
%TO.N,Vin*%
X156700000Y-92750000D02*
X156700000Y-91075000D01*
X154100000Y-88475000D02*
X154100000Y-70880112D01*
X154265000Y-70650000D02*
X153869888Y-70650000D01*
X156700000Y-91075000D02*
X154100000Y-88475000D01*
X154100000Y-70880112D02*
X153869888Y-70650000D01*
%TO.N,Net-(C3-Pad1)*%
X147175000Y-72555000D02*
X149464888Y-72555000D01*
X149464888Y-72555000D02*
X151369888Y-70650000D01*
%TO.N,Net-(C4-Pad2)*%
X124675000Y-82520000D02*
X123389888Y-82520000D01*
X123389888Y-82520000D02*
X118569888Y-77700000D01*
%TO.N,Net-(U1--)*%
X141760000Y-60825000D02*
X135340000Y-60825000D01*
X143280000Y-62345000D02*
X141760000Y-60825000D01*
X147175000Y-62395000D02*
X143450000Y-62395000D01*
X133225000Y-75950000D02*
X133225000Y-68940000D01*
X133225000Y-68940000D02*
X130225000Y-65940000D01*
X143400000Y-62345000D02*
X143280000Y-62345000D01*
X131200000Y-77975000D02*
X133225000Y-75950000D01*
X135340000Y-60825000D02*
X130225000Y-65940000D01*
X143450000Y-62395000D02*
X143400000Y-62345000D01*
%TO.N,Net-(A2_Out1-Pad1)*%
X141870000Y-80705000D02*
X144175000Y-78400000D01*
X138440000Y-89205000D02*
X137670000Y-89205000D01*
X141845000Y-91875000D02*
X140340000Y-91875000D01*
X141870000Y-85775000D02*
X141870000Y-80705000D01*
X141870000Y-85775000D02*
X138440000Y-89205000D01*
X141845000Y-85800000D02*
X141870000Y-85775000D01*
X140340000Y-91875000D02*
X137670000Y-89205000D01*
%TO.N,Net-(U2--)*%
X107170000Y-92680000D02*
X103075000Y-96775000D01*
X152030000Y-81255000D02*
X149175000Y-78400000D01*
X152030000Y-85775000D02*
X152030000Y-81255000D01*
X124675000Y-92680000D02*
X107170000Y-92680000D01*
%TO.N,Net-(D1-K)*%
X125400000Y-55725000D02*
X125500000Y-55625000D01*
X125375000Y-55875000D02*
X125625000Y-55625000D01*
X120125000Y-55725000D02*
X125400000Y-55725000D01*
%TO.N,Net-(D2-K)*%
X119905000Y-61270000D02*
X119905000Y-61300000D01*
X122950000Y-58225000D02*
X132350000Y-58225000D01*
X119905000Y-61270000D02*
X122950000Y-58225000D01*
X132350000Y-58225000D02*
X134975000Y-55600000D01*
%TO.N,Net-(D4-K)*%
X160750000Y-86050000D02*
X158875000Y-86050000D01*
X156495000Y-83670000D02*
X156495000Y-80200000D01*
X158875000Y-86050000D02*
X156495000Y-83670000D01*
%TO.N,Net-(A1_Out1-Pad1)*%
X136200000Y-77975000D02*
X137930000Y-77975000D01*
X107575000Y-77650000D02*
X107325000Y-77900000D01*
X137930000Y-77975000D02*
X143400000Y-72505000D01*
X137845000Y-68770000D02*
X137845000Y-68480000D01*
X107525000Y-77700000D02*
X107325000Y-77900000D01*
X107325000Y-77900000D02*
X102750000Y-82475000D01*
X141870000Y-72505000D02*
X137845000Y-68480000D01*
X103475000Y-83200000D02*
X102750000Y-82475000D01*
X116069888Y-77700000D02*
X107525000Y-77700000D01*
X143400000Y-72505000D02*
X141870000Y-72505000D01*
%TD*%
%TA.AperFunction,Conductor*%
%TO.N,GND*%
G36*
X142714075Y-97267007D02*
G01*
X142680000Y-97394174D01*
X142680000Y-97525826D01*
X142714075Y-97652993D01*
X142746988Y-97710000D01*
X141073012Y-97710000D01*
X141105925Y-97652993D01*
X141140000Y-97525826D01*
X141140000Y-97394174D01*
X141105925Y-97267007D01*
X141073012Y-97210000D01*
X142746988Y-97210000D01*
X142714075Y-97267007D01*
G37*
%TD.AperFunction*%
%TA.AperFunction,Conductor*%
G36*
X163484404Y-46755185D02*
G01*
X163505046Y-46771819D01*
X165928181Y-49194954D01*
X165961666Y-49256277D01*
X165964500Y-49282635D01*
X165964500Y-59344982D01*
X165964500Y-59375018D01*
X165975994Y-59402767D01*
X165975995Y-59402768D01*
X168468181Y-61894954D01*
X168501666Y-61956277D01*
X168504500Y-61982635D01*
X168504500Y-96107364D01*
X168484815Y-96174403D01*
X168468181Y-96195045D01*
X165997233Y-98665994D01*
X165975995Y-98687231D01*
X165964500Y-98714982D01*
X165964500Y-99231907D01*
X165963903Y-99244062D01*
X165952505Y-99359778D01*
X165947763Y-99383618D01*
X165917832Y-99482290D01*
X165915789Y-99489024D01*
X165906486Y-99511482D01*
X165854561Y-99608627D01*
X165841056Y-99628839D01*
X165771176Y-99713988D01*
X165753988Y-99731176D01*
X165668839Y-99801056D01*
X165648627Y-99814561D01*
X165551482Y-99866486D01*
X165529028Y-99875787D01*
X165487028Y-99888528D01*
X165423618Y-99907763D01*
X165399778Y-99912505D01*
X165291162Y-99923203D01*
X165284060Y-99923903D01*
X165271907Y-99924500D01*
X100768093Y-99924500D01*
X100755939Y-99923903D01*
X100747995Y-99923120D01*
X100640221Y-99912505D01*
X100616381Y-99907763D01*
X100599445Y-99902625D01*
X100510968Y-99875786D01*
X100488517Y-99866486D01*
X100391372Y-99814561D01*
X100371160Y-99801056D01*
X100286011Y-99731176D01*
X100268823Y-99713988D01*
X100198943Y-99628839D01*
X100185438Y-99608627D01*
X100133510Y-99511476D01*
X100124215Y-99489037D01*
X100092234Y-99383612D01*
X100087494Y-99359777D01*
X100076097Y-99244061D01*
X100075500Y-99231907D01*
X100075500Y-85525002D01*
X118770034Y-85525002D01*
X118789858Y-85751599D01*
X118789860Y-85751610D01*
X118848730Y-85971317D01*
X118848735Y-85971331D01*
X118944863Y-86177478D01*
X118995974Y-86250472D01*
X119675000Y-85571446D01*
X119675000Y-85577661D01*
X119702259Y-85679394D01*
X119754920Y-85770606D01*
X119829394Y-85845080D01*
X119920606Y-85897741D01*
X120022339Y-85925000D01*
X120028553Y-85925000D01*
X119349526Y-86604025D01*
X119422513Y-86655132D01*
X119422521Y-86655136D01*
X119628668Y-86751264D01*
X119628682Y-86751269D01*
X119848389Y-86810139D01*
X119848400Y-86810141D01*
X120074998Y-86829966D01*
X120075002Y-86829966D01*
X120301599Y-86810141D01*
X120301610Y-86810139D01*
X120521317Y-86751269D01*
X120521331Y-86751264D01*
X120727478Y-86655136D01*
X120800471Y-86604024D01*
X120121447Y-85925000D01*
X120127661Y-85925000D01*
X120229394Y-85897741D01*
X120320606Y-85845080D01*
X120395080Y-85770606D01*
X120447741Y-85679394D01*
X120475000Y-85577661D01*
X120475000Y-85571447D01*
X121154024Y-86250471D01*
X121205136Y-86177478D01*
X121301264Y-85971331D01*
X121301269Y-85971317D01*
X121360139Y-85751610D01*
X121360141Y-85751599D01*
X121379966Y-85525002D01*
X121379966Y-85524997D01*
X121360141Y-85298400D01*
X121360139Y-85298389D01*
X121301269Y-85078682D01*
X121301264Y-85078668D01*
X121205136Y-84872521D01*
X121205132Y-84872513D01*
X121154025Y-84799526D01*
X120475000Y-85478551D01*
X120475000Y-85472339D01*
X120447741Y-85370606D01*
X120395080Y-85279394D01*
X120320606Y-85204920D01*
X120229394Y-85152259D01*
X120127661Y-85125000D01*
X120121448Y-85125000D01*
X120800472Y-84445974D01*
X120727478Y-84394863D01*
X120521331Y-84298735D01*
X120521317Y-84298730D01*
X120301610Y-84239860D01*
X120301599Y-84239858D01*
X120075002Y-84220034D01*
X120074998Y-84220034D01*
X119848400Y-84239858D01*
X119848389Y-84239860D01*
X119628682Y-84298730D01*
X119628673Y-84298734D01*
X119422516Y-84394866D01*
X119422512Y-84394868D01*
X119349526Y-84445973D01*
X119349526Y-84445974D01*
X120028553Y-85125000D01*
X120022339Y-85125000D01*
X119920606Y-85152259D01*
X119829394Y-85204920D01*
X119754920Y-85279394D01*
X119702259Y-85370606D01*
X119675000Y-85472339D01*
X119675000Y-85478552D01*
X118995974Y-84799526D01*
X118995973Y-84799526D01*
X118944868Y-84872512D01*
X118944866Y-84872516D01*
X118848734Y-85078673D01*
X118848730Y-85078682D01*
X118789860Y-85298389D01*
X118789858Y-85298400D01*
X118770034Y-85524997D01*
X118770034Y-85525002D01*
X100075500Y-85525002D01*
X100075500Y-83373654D01*
X101391500Y-83373654D01*
X101398011Y-83434202D01*
X101398011Y-83434204D01*
X101432324Y-83526198D01*
X101449111Y-83571204D01*
X101536739Y-83688261D01*
X101653796Y-83775889D01*
X101790799Y-83826989D01*
X101818050Y-83829918D01*
X101851345Y-83833499D01*
X101851362Y-83833500D01*
X103648638Y-83833500D01*
X103648654Y-83833499D01*
X103675692Y-83830591D01*
X103709201Y-83826989D01*
X103846204Y-83775889D01*
X103963261Y-83688261D01*
X104050889Y-83571204D01*
X104101989Y-83434201D01*
X104105591Y-83400692D01*
X104108499Y-83373654D01*
X104108500Y-83373637D01*
X104108500Y-82063766D01*
X104128185Y-81996727D01*
X104144819Y-81976085D01*
X107751085Y-78369819D01*
X107812408Y-78336334D01*
X107838766Y-78333500D01*
X114637388Y-78333500D01*
X114704427Y-78353185D01*
X114750182Y-78405989D01*
X114761388Y-78457500D01*
X114761388Y-78548654D01*
X114767899Y-78609202D01*
X114767899Y-78609204D01*
X114804077Y-78706198D01*
X114818999Y-78746204D01*
X114906627Y-78863261D01*
X115023684Y-78950889D01*
X115160687Y-79001989D01*
X115187938Y-79004918D01*
X115221233Y-79008499D01*
X115221250Y-79008500D01*
X116918526Y-79008500D01*
X116918542Y-79008499D01*
X116945580Y-79005591D01*
X116979089Y-79001989D01*
X117116092Y-78950889D01*
X117233149Y-78863261D01*
X117320777Y-78746204D01*
X117352417Y-78661376D01*
X117374188Y-78603007D01*
X117416059Y-78547073D01*
X117481524Y-78522657D01*
X117549797Y-78537509D01*
X117578050Y-78558660D01*
X117725588Y-78706198D01*
X117913139Y-78837523D01*
X118021946Y-78888260D01*
X118120638Y-78934281D01*
X118120640Y-78934281D01*
X118120645Y-78934284D01*
X118341801Y-78993543D01*
X118504720Y-79007796D01*
X118569886Y-79013498D01*
X118569888Y-79013498D01*
X118569890Y-79013498D01*
X118628901Y-79008335D01*
X118797975Y-78993543D01*
X118862545Y-78976241D01*
X118932394Y-78977904D01*
X118982319Y-79008335D01*
X122986051Y-83012068D01*
X122986055Y-83012071D01*
X123089806Y-83081396D01*
X123089812Y-83081399D01*
X123089813Y-83081400D01*
X123205103Y-83129155D01*
X123327489Y-83153499D01*
X123327493Y-83153500D01*
X123327494Y-83153500D01*
X123452281Y-83153500D01*
X123456648Y-83153500D01*
X123523687Y-83173185D01*
X123558220Y-83206373D01*
X123668802Y-83364300D01*
X123830700Y-83526198D01*
X124018251Y-83657523D01*
X124143091Y-83715736D01*
X124225750Y-83754281D01*
X124225752Y-83754281D01*
X124225757Y-83754284D01*
X124446913Y-83813543D01*
X124600602Y-83826989D01*
X124674998Y-83833498D01*
X124675000Y-83833498D01*
X124675002Y-83833498D01*
X124749398Y-83826989D01*
X124903087Y-83813543D01*
X125124243Y-83754284D01*
X125331749Y-83657523D01*
X125519300Y-83526198D01*
X125681198Y-83364300D01*
X125812523Y-83176749D01*
X125909284Y-82969243D01*
X125968543Y-82748087D01*
X125988498Y-82520000D01*
X125968543Y-82291913D01*
X125909284Y-82070757D01*
X125812523Y-81863251D01*
X125681198Y-81675700D01*
X125519300Y-81513802D01*
X125331749Y-81382477D01*
X125323853Y-81378795D01*
X125124249Y-81285718D01*
X125124238Y-81285714D01*
X124903089Y-81226457D01*
X124903081Y-81226456D01*
X124675002Y-81206502D01*
X124674998Y-81206502D01*
X124446918Y-81226456D01*
X124446910Y-81226457D01*
X124225761Y-81285714D01*
X124225750Y-81285718D01*
X124018254Y-81382475D01*
X124018252Y-81382476D01*
X124018251Y-81382477D01*
X123830700Y-81513802D01*
X123830698Y-81513803D01*
X123830695Y-81513806D01*
X123668805Y-81675696D01*
X123668799Y-81675703D01*
X123659943Y-81688350D01*
X123605363Y-81731971D01*
X123535864Y-81739159D01*
X123473511Y-81707632D01*
X123470692Y-81704900D01*
X119878223Y-78112431D01*
X119844738Y-78051108D01*
X119846128Y-77992658D01*
X119863431Y-77928087D01*
X119883386Y-77700000D01*
X119863431Y-77471913D01*
X119804172Y-77250757D01*
X119707411Y-77043251D01*
X119576086Y-76855700D01*
X119414188Y-76693802D01*
X119226637Y-76562477D01*
X119225061Y-76561742D01*
X119019137Y-76465718D01*
X119019126Y-76465714D01*
X118797977Y-76406457D01*
X118797969Y-76406456D01*
X118569890Y-76386502D01*
X118569886Y-76386502D01*
X118341806Y-76406456D01*
X118341798Y-76406457D01*
X118120649Y-76465714D01*
X118120638Y-76465718D01*
X117913142Y-76562475D01*
X117913140Y-76562476D01*
X117819363Y-76628139D01*
X117743219Y-76681457D01*
X117725587Y-76693803D01*
X117578050Y-76841340D01*
X117516727Y-76874824D01*
X117447035Y-76869840D01*
X117391102Y-76827968D01*
X117374188Y-76796993D01*
X117335699Y-76693803D01*
X117320777Y-76653796D01*
X117233149Y-76536739D01*
X117116092Y-76449111D01*
X116979091Y-76398011D01*
X116918542Y-76391500D01*
X116918526Y-76391500D01*
X115221250Y-76391500D01*
X115221233Y-76391500D01*
X115160685Y-76398011D01*
X115160683Y-76398011D01*
X115023683Y-76449111D01*
X114906627Y-76536739D01*
X114818999Y-76653795D01*
X114767899Y-76790795D01*
X114767899Y-76790797D01*
X114761388Y-76851345D01*
X114761388Y-76942500D01*
X114741703Y-77009539D01*
X114688899Y-77055294D01*
X114637388Y-77066500D01*
X107846386Y-77066500D01*
X107798934Y-77057061D01*
X107759788Y-77040846D01*
X107759776Y-77040843D01*
X107637397Y-77016500D01*
X107637393Y-77016500D01*
X107512606Y-77016500D01*
X107512601Y-77016500D01*
X107390222Y-77040843D01*
X107390214Y-77040845D01*
X107274927Y-77088598D01*
X107274918Y-77088603D01*
X107171170Y-77157926D01*
X107121169Y-77207926D01*
X107121167Y-77207928D01*
X106921167Y-77407929D01*
X103248915Y-81080181D01*
X103187592Y-81113666D01*
X103161234Y-81116500D01*
X101851345Y-81116500D01*
X101790797Y-81123011D01*
X101790795Y-81123011D01*
X101653795Y-81174111D01*
X101536739Y-81261739D01*
X101449111Y-81378795D01*
X101398011Y-81515795D01*
X101398011Y-81515797D01*
X101391500Y-81576345D01*
X101391500Y-83373654D01*
X100075500Y-83373654D01*
X100075500Y-75797844D01*
X101250000Y-75797844D01*
X101256401Y-75857372D01*
X101256403Y-75857379D01*
X101306645Y-75992086D01*
X101306649Y-75992093D01*
X101392809Y-76107187D01*
X101392812Y-76107190D01*
X101507906Y-76193350D01*
X101507913Y-76193354D01*
X101642620Y-76243596D01*
X101642627Y-76243598D01*
X101702155Y-76249999D01*
X101702172Y-76250000D01*
X102350000Y-76250000D01*
X102350000Y-75333012D01*
X102407007Y-75365925D01*
X102534174Y-75400000D01*
X102665826Y-75400000D01*
X102792993Y-75365925D01*
X102850000Y-75333012D01*
X102850000Y-76250000D01*
X103497828Y-76250000D01*
X103497844Y-76249999D01*
X103557372Y-76243598D01*
X103557379Y-76243596D01*
X103692086Y-76193354D01*
X103692093Y-76193350D01*
X103807187Y-76107190D01*
X103807190Y-76107187D01*
X103893350Y-75992093D01*
X103893354Y-75992086D01*
X103943596Y-75857379D01*
X103943598Y-75857372D01*
X103949999Y-75797844D01*
X103950000Y-75797827D01*
X103950000Y-75150000D01*
X103033012Y-75150000D01*
X103065925Y-75092993D01*
X103100000Y-74965826D01*
X103100000Y-74834174D01*
X103065925Y-74707007D01*
X103033012Y-74650000D01*
X103950000Y-74650000D01*
X103950000Y-74002172D01*
X103949999Y-74002155D01*
X103943598Y-73942627D01*
X103943596Y-73942620D01*
X103893354Y-73807913D01*
X103893350Y-73807906D01*
X103807190Y-73692812D01*
X103807187Y-73692809D01*
X103692093Y-73606649D01*
X103692086Y-73606645D01*
X103557379Y-73556403D01*
X103557372Y-73556401D01*
X103497844Y-73550000D01*
X102850000Y-73550000D01*
X102850000Y-74466988D01*
X102792993Y-74434075D01*
X102665826Y-74400000D01*
X102534174Y-74400000D01*
X102407007Y-74434075D01*
X102350000Y-74466988D01*
X102350000Y-73550000D01*
X101702155Y-73550000D01*
X101642627Y-73556401D01*
X101642620Y-73556403D01*
X101507913Y-73606645D01*
X101507906Y-73606649D01*
X101392812Y-73692809D01*
X101392809Y-73692812D01*
X101306649Y-73807906D01*
X101306645Y-73807913D01*
X101256403Y-73942620D01*
X101256401Y-73942627D01*
X101250000Y-74002155D01*
X101250000Y-74650000D01*
X102166988Y-74650000D01*
X102134075Y-74707007D01*
X102100000Y-74834174D01*
X102100000Y-74965826D01*
X102134075Y-75092993D01*
X102166988Y-75150000D01*
X101250000Y-75150000D01*
X101250000Y-75797844D01*
X100075500Y-75797844D01*
X100075500Y-71575001D01*
X108481502Y-71575001D01*
X108501456Y-71803081D01*
X108501457Y-71803089D01*
X108560714Y-72024238D01*
X108560718Y-72024249D01*
X108649332Y-72214282D01*
X108657477Y-72231749D01*
X108788802Y-72419300D01*
X108950700Y-72581198D01*
X109138251Y-72712523D01*
X109261512Y-72770000D01*
X109345750Y-72809281D01*
X109345752Y-72809281D01*
X109345757Y-72809284D01*
X109566913Y-72868543D01*
X109729832Y-72882796D01*
X109794998Y-72888498D01*
X109795000Y-72888498D01*
X109795002Y-72888498D01*
X109854013Y-72883335D01*
X110023087Y-72868543D01*
X110244243Y-72809284D01*
X110451749Y-72712523D01*
X110639300Y-72581198D01*
X110801198Y-72419300D01*
X110932523Y-72231749D01*
X111029284Y-72024243D01*
X111088543Y-71803087D01*
X111108498Y-71575000D01*
X111107130Y-71559368D01*
X111101438Y-71494300D01*
X111088543Y-71346913D01*
X111029284Y-71125757D01*
X111016767Y-71098915D01*
X110979969Y-71020000D01*
X110932523Y-70918251D01*
X110801198Y-70730700D01*
X110639300Y-70568802D01*
X110451749Y-70437477D01*
X110451745Y-70437475D01*
X110244249Y-70340718D01*
X110244238Y-70340714D01*
X110023089Y-70281457D01*
X110023081Y-70281456D01*
X109795002Y-70261502D01*
X109794998Y-70261502D01*
X109566918Y-70281456D01*
X109566910Y-70281457D01*
X109345761Y-70340714D01*
X109345750Y-70340718D01*
X109138254Y-70437475D01*
X109138252Y-70437476D01*
X109138251Y-70437477D01*
X108950700Y-70568802D01*
X108950698Y-70568803D01*
X108950695Y-70568806D01*
X108788806Y-70730695D01*
X108788803Y-70730698D01*
X108788802Y-70730700D01*
X108720456Y-70828308D01*
X108657476Y-70918252D01*
X108657475Y-70918254D01*
X108560718Y-71125750D01*
X108560714Y-71125761D01*
X108501457Y-71346910D01*
X108501456Y-71346918D01*
X108481502Y-71574998D01*
X108481502Y-71575001D01*
X100075500Y-71575001D01*
X100075500Y-67523654D01*
X101291500Y-67523654D01*
X101298011Y-67584202D01*
X101298011Y-67584204D01*
X101327650Y-67663666D01*
X101349111Y-67721204D01*
X101436739Y-67838261D01*
X101553796Y-67925889D01*
X101690799Y-67976989D01*
X101718050Y-67979918D01*
X101751345Y-67983499D01*
X101751362Y-67983500D01*
X103061233Y-67983500D01*
X103128272Y-68003185D01*
X103148914Y-68019819D01*
X103921163Y-68792069D01*
X103921166Y-68792072D01*
X104024918Y-68861396D01*
X104024925Y-68861401D01*
X104104422Y-68894329D01*
X104140215Y-68909155D01*
X104241205Y-68929243D01*
X104262601Y-68933499D01*
X104262605Y-68933500D01*
X104262606Y-68933500D01*
X127927395Y-68933500D01*
X127927396Y-68933499D01*
X128049785Y-68909155D01*
X128165075Y-68861400D01*
X128268833Y-68792071D01*
X128702300Y-68358603D01*
X128763618Y-68325121D01*
X128833310Y-68330105D01*
X128889244Y-68371976D01*
X128913661Y-68437441D01*
X128913505Y-68457091D01*
X128911502Y-68479993D01*
X128911502Y-68480001D01*
X128931456Y-68708081D01*
X128931458Y-68708092D01*
X128948758Y-68772656D01*
X128947095Y-68842506D01*
X128916664Y-68892430D01*
X127503101Y-70305994D01*
X127441778Y-70339479D01*
X127372086Y-70334495D01*
X127316153Y-70292623D01*
X127313878Y-70289483D01*
X127206198Y-70135700D01*
X127044300Y-69973802D01*
X126856749Y-69842477D01*
X126810475Y-69820899D01*
X126649249Y-69745718D01*
X126649238Y-69745714D01*
X126428089Y-69686457D01*
X126428081Y-69686456D01*
X126200002Y-69666502D01*
X126199998Y-69666502D01*
X125971918Y-69686456D01*
X125971910Y-69686457D01*
X125750761Y-69745714D01*
X125750750Y-69745718D01*
X125543254Y-69842475D01*
X125543252Y-69842476D01*
X125543251Y-69842477D01*
X125355700Y-69973802D01*
X125355698Y-69973803D01*
X125355695Y-69973806D01*
X125193806Y-70135695D01*
X125193803Y-70135698D01*
X125193802Y-70135700D01*
X125148246Y-70200761D01*
X125062476Y-70323252D01*
X125062475Y-70323254D01*
X124965718Y-70530750D01*
X124965714Y-70530761D01*
X124906457Y-70751910D01*
X124906456Y-70751917D01*
X124899773Y-70828308D01*
X124874320Y-70893377D01*
X124817729Y-70934355D01*
X124776245Y-70941500D01*
X121173352Y-70941500D01*
X121106313Y-70921815D01*
X121071779Y-70888626D01*
X120961198Y-70730700D01*
X120799300Y-70568802D01*
X120611749Y-70437477D01*
X120611745Y-70437475D01*
X120404249Y-70340718D01*
X120404238Y-70340714D01*
X120183089Y-70281457D01*
X120183081Y-70281456D01*
X119955002Y-70261502D01*
X119954998Y-70261502D01*
X119726918Y-70281456D01*
X119726910Y-70281457D01*
X119505761Y-70340714D01*
X119505750Y-70340718D01*
X119298254Y-70437475D01*
X119298252Y-70437476D01*
X119298251Y-70437477D01*
X119110700Y-70568802D01*
X119110698Y-70568803D01*
X119110695Y-70568806D01*
X118948806Y-70730695D01*
X118948803Y-70730698D01*
X118948802Y-70730700D01*
X118880456Y-70828308D01*
X118817476Y-70918252D01*
X118817475Y-70918254D01*
X118720718Y-71125750D01*
X118720714Y-71125761D01*
X118661457Y-71346910D01*
X118661456Y-71346918D01*
X118641502Y-71574998D01*
X118641502Y-71575001D01*
X118661456Y-71803081D01*
X118661457Y-71803089D01*
X118720714Y-72024238D01*
X118720718Y-72024249D01*
X118809332Y-72214282D01*
X118817477Y-72231749D01*
X118948802Y-72419300D01*
X119110700Y-72581198D01*
X119298251Y-72712523D01*
X119421512Y-72770000D01*
X119505750Y-72809281D01*
X119505752Y-72809281D01*
X119505757Y-72809284D01*
X119726913Y-72868543D01*
X119889832Y-72882796D01*
X119954998Y-72888498D01*
X119955000Y-72888498D01*
X119955002Y-72888498D01*
X120014013Y-72883335D01*
X120183087Y-72868543D01*
X120247657Y-72851241D01*
X120317506Y-72852904D01*
X120367431Y-72883335D01*
X123505181Y-76021085D01*
X123538666Y-76082408D01*
X123541500Y-76108766D01*
X123541500Y-76292500D01*
X123521815Y-76359539D01*
X123469011Y-76405294D01*
X123417500Y-76416500D01*
X123326345Y-76416500D01*
X123265797Y-76423011D01*
X123265795Y-76423011D01*
X123128795Y-76474111D01*
X123011739Y-76561739D01*
X122924111Y-76678795D01*
X122873011Y-76815795D01*
X122873011Y-76815797D01*
X122866500Y-76876345D01*
X122866500Y-78573654D01*
X122873011Y-78634202D01*
X122873011Y-78634204D01*
X122920606Y-78761808D01*
X122924111Y-78771204D01*
X123011739Y-78888261D01*
X123128796Y-78975889D01*
X123265799Y-79026989D01*
X123293050Y-79029918D01*
X123326345Y-79033499D01*
X123326362Y-79033500D01*
X125023638Y-79033500D01*
X125023654Y-79033499D01*
X125050692Y-79030591D01*
X125084201Y-79026989D01*
X125221204Y-78975889D01*
X125338261Y-78888261D01*
X125345907Y-78878046D01*
X125401840Y-78836174D01*
X125471531Y-78831188D01*
X125516302Y-78850782D01*
X125522514Y-78855132D01*
X125522516Y-78855133D01*
X125728673Y-78951265D01*
X125728682Y-78951269D01*
X125948389Y-79010139D01*
X125948400Y-79010141D01*
X126174998Y-79029966D01*
X126175002Y-79029966D01*
X126401599Y-79010141D01*
X126401610Y-79010139D01*
X126621317Y-78951269D01*
X126621331Y-78951264D01*
X126827478Y-78855136D01*
X126900471Y-78804024D01*
X126221447Y-78125000D01*
X126227661Y-78125000D01*
X126329394Y-78097741D01*
X126420606Y-78045080D01*
X126495080Y-77970606D01*
X126547741Y-77879394D01*
X126575000Y-77777661D01*
X126575000Y-77771447D01*
X127254024Y-78450471D01*
X127305136Y-78377478D01*
X127401264Y-78171331D01*
X127401269Y-78171317D01*
X127460139Y-77951610D01*
X127460141Y-77951599D01*
X127479966Y-77725002D01*
X127479966Y-77724997D01*
X127460141Y-77498400D01*
X127460139Y-77498389D01*
X127401269Y-77278682D01*
X127401264Y-77278668D01*
X127305136Y-77072521D01*
X127305132Y-77072513D01*
X127254025Y-76999526D01*
X126575000Y-77678551D01*
X126575000Y-77672339D01*
X126547741Y-77570606D01*
X126495080Y-77479394D01*
X126420606Y-77404920D01*
X126329394Y-77352259D01*
X126227661Y-77325000D01*
X126221447Y-77325000D01*
X126900472Y-76645974D01*
X126827478Y-76594863D01*
X126621331Y-76498735D01*
X126621317Y-76498730D01*
X126401610Y-76439860D01*
X126401599Y-76439858D01*
X126175002Y-76420034D01*
X126174998Y-76420034D01*
X125948400Y-76439858D01*
X125948389Y-76439860D01*
X125728682Y-76498730D01*
X125728673Y-76498734D01*
X125522518Y-76594865D01*
X125522515Y-76594867D01*
X125516291Y-76599225D01*
X125450083Y-76621547D01*
X125382317Y-76604531D01*
X125345909Y-76571955D01*
X125338263Y-76561742D01*
X125338261Y-76561739D01*
X125221204Y-76474111D01*
X125198702Y-76465718D01*
X125084203Y-76423011D01*
X125023654Y-76416500D01*
X125023638Y-76416500D01*
X124932500Y-76416500D01*
X124865461Y-76396815D01*
X124819706Y-76344011D01*
X124808500Y-76292500D01*
X124808500Y-75732605D01*
X124808499Y-75732601D01*
X124784156Y-75610222D01*
X124784155Y-75610215D01*
X124736400Y-75494925D01*
X124736399Y-75494924D01*
X124736396Y-75494918D01*
X124667072Y-75391168D01*
X124641829Y-75365925D01*
X124578833Y-75302929D01*
X121696085Y-72420181D01*
X121662600Y-72358858D01*
X121667584Y-72289166D01*
X121709456Y-72233233D01*
X121774920Y-72208816D01*
X121783766Y-72208500D01*
X125667394Y-72208500D01*
X125677321Y-72206525D01*
X125745586Y-72212632D01*
X125745660Y-72212429D01*
X125746424Y-72212707D01*
X125746913Y-72212751D01*
X125748956Y-72213628D01*
X125750752Y-72214282D01*
X125750753Y-72214282D01*
X125750757Y-72214284D01*
X125971913Y-72273543D01*
X126134832Y-72287796D01*
X126199998Y-72293498D01*
X126200000Y-72293498D01*
X126200002Y-72293498D01*
X126257021Y-72288509D01*
X126428087Y-72273543D01*
X126649243Y-72214284D01*
X126668850Y-72205140D01*
X126737927Y-72194648D01*
X126801711Y-72223167D01*
X126808937Y-72229841D01*
X127830181Y-73251085D01*
X127863666Y-73312408D01*
X127866500Y-73338766D01*
X127866500Y-87717398D01*
X127890843Y-87839777D01*
X127890845Y-87839785D01*
X127938598Y-87955072D01*
X127938603Y-87955081D01*
X128007928Y-88058832D01*
X128007931Y-88058836D01*
X128078914Y-88129819D01*
X128112399Y-88191142D01*
X128107415Y-88260834D01*
X128065543Y-88316767D01*
X128000079Y-88341184D01*
X127991233Y-88341500D01*
X121562601Y-88341500D01*
X121440222Y-88365843D01*
X121440214Y-88365845D01*
X121324927Y-88413598D01*
X121324918Y-88413603D01*
X121221167Y-88482928D01*
X121221163Y-88482931D01*
X120487430Y-89216664D01*
X120426107Y-89250149D01*
X120367656Y-89248758D01*
X120303092Y-89231458D01*
X120303088Y-89231457D01*
X120303087Y-89231457D01*
X120303086Y-89231456D01*
X120303081Y-89231456D01*
X120075002Y-89211502D01*
X120074998Y-89211502D01*
X119846918Y-89231456D01*
X119846910Y-89231457D01*
X119625761Y-89290714D01*
X119625750Y-89290718D01*
X119418254Y-89387475D01*
X119418252Y-89387476D01*
X119418251Y-89387477D01*
X119230700Y-89518802D01*
X119230698Y-89518803D01*
X119230695Y-89518806D01*
X119068806Y-89680695D01*
X119068803Y-89680698D01*
X119068802Y-89680700D01*
X118958220Y-89838625D01*
X118903646Y-89882249D01*
X118856648Y-89891500D01*
X105338766Y-89891500D01*
X105271727Y-89871815D01*
X105251085Y-89855181D01*
X104378836Y-88982931D01*
X104378832Y-88982928D01*
X104275081Y-88913603D01*
X104275071Y-88913598D01*
X104210047Y-88886664D01*
X104155644Y-88842823D01*
X104133579Y-88776528D01*
X104133500Y-88772103D01*
X104133500Y-88576362D01*
X104133499Y-88576345D01*
X104129311Y-88537398D01*
X104126989Y-88515799D01*
X104075889Y-88378796D01*
X103988261Y-88261739D01*
X103871204Y-88174111D01*
X103836680Y-88161234D01*
X103734203Y-88123011D01*
X103673654Y-88116500D01*
X103673638Y-88116500D01*
X101876362Y-88116500D01*
X101876345Y-88116500D01*
X101815797Y-88123011D01*
X101815795Y-88123011D01*
X101678795Y-88174111D01*
X101561739Y-88261739D01*
X101474111Y-88378795D01*
X101423011Y-88515795D01*
X101423011Y-88515797D01*
X101416500Y-88576345D01*
X101416500Y-90373654D01*
X101423011Y-90434202D01*
X101423011Y-90434204D01*
X101465290Y-90547554D01*
X101474111Y-90571204D01*
X101561739Y-90688261D01*
X101678796Y-90775889D01*
X101815799Y-90826989D01*
X101843050Y-90829918D01*
X101876345Y-90833499D01*
X101876362Y-90833500D01*
X103673638Y-90833500D01*
X103673654Y-90833499D01*
X103700692Y-90830591D01*
X103734201Y-90826989D01*
X103871204Y-90775889D01*
X103988261Y-90688261D01*
X104032689Y-90628911D01*
X104088622Y-90587040D01*
X104158314Y-90582056D01*
X104219637Y-90615541D01*
X104532929Y-90928833D01*
X104578334Y-90974238D01*
X104621168Y-91017072D01*
X104724918Y-91086396D01*
X104724927Y-91086401D01*
X104751043Y-91097218D01*
X104840215Y-91134155D01*
X104962601Y-91158499D01*
X104962605Y-91158500D01*
X104962606Y-91158500D01*
X118856648Y-91158500D01*
X118923687Y-91178185D01*
X118958220Y-91211373D01*
X119068802Y-91369300D01*
X119230700Y-91531198D01*
X119418251Y-91662523D01*
X119442448Y-91673806D01*
X119625750Y-91759281D01*
X119625752Y-91759281D01*
X119625757Y-91759284D01*
X119625762Y-91759285D01*
X119625764Y-91759286D01*
X119787880Y-91802725D01*
X119847541Y-91839090D01*
X119878070Y-91901937D01*
X119869775Y-91971313D01*
X119825290Y-92025190D01*
X119758738Y-92046465D01*
X119755787Y-92046500D01*
X107107602Y-92046500D01*
X106985219Y-92070843D01*
X106985214Y-92070845D01*
X106951448Y-92084829D01*
X106951449Y-92084830D01*
X106869926Y-92118598D01*
X106869922Y-92118600D01*
X106766171Y-92187924D01*
X106766163Y-92187930D01*
X103323915Y-95630181D01*
X103262592Y-95663666D01*
X103236234Y-95666500D01*
X102301345Y-95666500D01*
X102240797Y-95673011D01*
X102240795Y-95673011D01*
X102103795Y-95724111D01*
X101986739Y-95811739D01*
X101899111Y-95928795D01*
X101848011Y-96065795D01*
X101848011Y-96065797D01*
X101841500Y-96126345D01*
X101841500Y-97923654D01*
X101848011Y-97984202D01*
X101848011Y-97984204D01*
X101896214Y-98113437D01*
X101899111Y-98121204D01*
X101986739Y-98238261D01*
X102103796Y-98325889D01*
X102240799Y-98376989D01*
X102268050Y-98379918D01*
X102301345Y-98383499D01*
X102301362Y-98383500D01*
X104098638Y-98383500D01*
X104098654Y-98383499D01*
X104125692Y-98380591D01*
X104159201Y-98376989D01*
X104296204Y-98325889D01*
X104413261Y-98238261D01*
X104500889Y-98121204D01*
X104537576Y-98022844D01*
X108525000Y-98022844D01*
X108531401Y-98082372D01*
X108531403Y-98082379D01*
X108581645Y-98217086D01*
X108581649Y-98217093D01*
X108667809Y-98332187D01*
X108667812Y-98332190D01*
X108782906Y-98418350D01*
X108782913Y-98418354D01*
X108917620Y-98468596D01*
X108917627Y-98468598D01*
X108977155Y-98474999D01*
X108977172Y-98475000D01*
X109625000Y-98475000D01*
X109625000Y-97558012D01*
X109682007Y-97590925D01*
X109809174Y-97625000D01*
X109940826Y-97625000D01*
X110067993Y-97590925D01*
X110125000Y-97558012D01*
X110125000Y-98475000D01*
X110772828Y-98475000D01*
X110772844Y-98474999D01*
X110832372Y-98468598D01*
X110832379Y-98468596D01*
X110967086Y-98418354D01*
X110967093Y-98418350D01*
X111082187Y-98332190D01*
X111082190Y-98332187D01*
X111168350Y-98217093D01*
X111168354Y-98217086D01*
X111212526Y-98098654D01*
X114391500Y-98098654D01*
X114398011Y-98159202D01*
X114398011Y-98159204D01*
X114427499Y-98238261D01*
X114449111Y-98296204D01*
X114536739Y-98413261D01*
X114653796Y-98500889D01*
X114790799Y-98551989D01*
X114818050Y-98554918D01*
X114851345Y-98558499D01*
X114851362Y-98558500D01*
X116648638Y-98558500D01*
X116648654Y-98558499D01*
X116675692Y-98555591D01*
X116709201Y-98551989D01*
X116846204Y-98500889D01*
X116963261Y-98413261D01*
X117050889Y-98296204D01*
X117077949Y-98223654D01*
X120866500Y-98223654D01*
X120873011Y-98284202D01*
X120873011Y-98284204D01*
X120923048Y-98418354D01*
X120924111Y-98421204D01*
X121011739Y-98538261D01*
X121128796Y-98625889D01*
X121265799Y-98676989D01*
X121293050Y-98679918D01*
X121326345Y-98683499D01*
X121326362Y-98683500D01*
X123123638Y-98683500D01*
X123123654Y-98683499D01*
X123150692Y-98680591D01*
X123184201Y-98676989D01*
X123321204Y-98625889D01*
X123438261Y-98538261D01*
X123525889Y-98421204D01*
X123549219Y-98358654D01*
X126581500Y-98358654D01*
X126588011Y-98419202D01*
X126588011Y-98419204D01*
X126637538Y-98551988D01*
X126639111Y-98556204D01*
X126726739Y-98673261D01*
X126843796Y-98760889D01*
X126980799Y-98811989D01*
X127008050Y-98814918D01*
X127041345Y-98818499D01*
X127041362Y-98818500D01*
X128838638Y-98818500D01*
X128838654Y-98818499D01*
X128865692Y-98815591D01*
X128899201Y-98811989D01*
X129036204Y-98760889D01*
X129153261Y-98673261D01*
X129240889Y-98556204D01*
X129286138Y-98434887D01*
X129328009Y-98378956D01*
X129393474Y-98354539D01*
X129461746Y-98369391D01*
X129493545Y-98394236D01*
X129556760Y-98462906D01*
X129734424Y-98601189D01*
X129734425Y-98601189D01*
X129734427Y-98601191D01*
X129861135Y-98669761D01*
X129932426Y-98708342D01*
X130145365Y-98781444D01*
X130367431Y-98818500D01*
X130592569Y-98818500D01*
X130814635Y-98781444D01*
X131027574Y-98708342D01*
X131225576Y-98601189D01*
X131403240Y-98462906D01*
X131523574Y-98332190D01*
X131555715Y-98297276D01*
X131555715Y-98297275D01*
X131555722Y-98297268D01*
X131646193Y-98158790D01*
X131699338Y-98113437D01*
X131768569Y-98104013D01*
X131831905Y-98133515D01*
X131853804Y-98158787D01*
X131944278Y-98297268D01*
X131944283Y-98297273D01*
X131944284Y-98297276D01*
X132058370Y-98421204D01*
X132096760Y-98462906D01*
X132274424Y-98601189D01*
X132274425Y-98601189D01*
X132274427Y-98601191D01*
X132401135Y-98669761D01*
X132472426Y-98708342D01*
X132685365Y-98781444D01*
X132907431Y-98818500D01*
X133132569Y-98818500D01*
X133354635Y-98781444D01*
X133567574Y-98708342D01*
X133765576Y-98601189D01*
X133943240Y-98462906D01*
X134063574Y-98332190D01*
X134095715Y-98297276D01*
X134095715Y-98297275D01*
X134095722Y-98297268D01*
X134186193Y-98158790D01*
X134239338Y-98113437D01*
X134308569Y-98104013D01*
X134371905Y-98133515D01*
X134393804Y-98158787D01*
X134484278Y-98297268D01*
X134484283Y-98297273D01*
X134484284Y-98297276D01*
X134598370Y-98421204D01*
X134636760Y-98462906D01*
X134814424Y-98601189D01*
X134814425Y-98601189D01*
X134814427Y-98601191D01*
X134941135Y-98669761D01*
X135012426Y-98708342D01*
X135225365Y-98781444D01*
X135447431Y-98818500D01*
X135672569Y-98818500D01*
X135894635Y-98781444D01*
X136107574Y-98708342D01*
X136305576Y-98601189D01*
X136483240Y-98462906D01*
X136603574Y-98332190D01*
X136635715Y-98297276D01*
X136635715Y-98297275D01*
X136635722Y-98297268D01*
X136726193Y-98158790D01*
X136779338Y-98113437D01*
X136848569Y-98104013D01*
X136911905Y-98133515D01*
X136933804Y-98158787D01*
X137024278Y-98297268D01*
X137024283Y-98297273D01*
X137024284Y-98297276D01*
X137138370Y-98421204D01*
X137176760Y-98462906D01*
X137354424Y-98601189D01*
X137354425Y-98601189D01*
X137354427Y-98601191D01*
X137481135Y-98669761D01*
X137552426Y-98708342D01*
X137765365Y-98781444D01*
X137987431Y-98818500D01*
X138212569Y-98818500D01*
X138434635Y-98781444D01*
X138647574Y-98708342D01*
X138845576Y-98601189D01*
X139023240Y-98462906D01*
X139143574Y-98332190D01*
X139175715Y-98297276D01*
X139175715Y-98297275D01*
X139175722Y-98297268D01*
X139269749Y-98153347D01*
X139322894Y-98107994D01*
X139392125Y-98098570D01*
X139455461Y-98128072D01*
X139475130Y-98150048D01*
X139601890Y-98331078D01*
X139768917Y-98498105D01*
X139962421Y-98633600D01*
X140176507Y-98733429D01*
X140176516Y-98733433D01*
X140390000Y-98790634D01*
X140390000Y-97893012D01*
X140447007Y-97925925D01*
X140574174Y-97960000D01*
X140705826Y-97960000D01*
X140832993Y-97925925D01*
X140890000Y-97893012D01*
X140890000Y-98790633D01*
X141103483Y-98733433D01*
X141103492Y-98733429D01*
X141317578Y-98633600D01*
X141511082Y-98498105D01*
X141678105Y-98331082D01*
X141808425Y-98144968D01*
X141863002Y-98101344D01*
X141932501Y-98094151D01*
X141994855Y-98125673D01*
X142011575Y-98144968D01*
X142141894Y-98331082D01*
X142308917Y-98498105D01*
X142502421Y-98633600D01*
X142716507Y-98733429D01*
X142716516Y-98733433D01*
X142930000Y-98790634D01*
X142930000Y-97893012D01*
X142987007Y-97925925D01*
X143114174Y-97960000D01*
X143245826Y-97960000D01*
X143372993Y-97925925D01*
X143430000Y-97893012D01*
X143430000Y-98790633D01*
X143643483Y-98733433D01*
X143643492Y-98733429D01*
X143857578Y-98633600D01*
X144051082Y-98498105D01*
X144218105Y-98331082D01*
X144344868Y-98150048D01*
X144399445Y-98106423D01*
X144468944Y-98099231D01*
X144531298Y-98130753D01*
X144550251Y-98153350D01*
X144644276Y-98297265D01*
X144644284Y-98297276D01*
X144758370Y-98421204D01*
X144796760Y-98462906D01*
X144974424Y-98601189D01*
X144974425Y-98601189D01*
X144974427Y-98601191D01*
X145101135Y-98669761D01*
X145172426Y-98708342D01*
X145385365Y-98781444D01*
X145607431Y-98818500D01*
X145832569Y-98818500D01*
X146054635Y-98781444D01*
X146267574Y-98708342D01*
X146465576Y-98601189D01*
X146643240Y-98462906D01*
X146763574Y-98332190D01*
X146795715Y-98297276D01*
X146795717Y-98297273D01*
X146795722Y-98297268D01*
X146918860Y-98108791D01*
X147009296Y-97902616D01*
X147064564Y-97684368D01*
X147067164Y-97652993D01*
X147083156Y-97460005D01*
X147083156Y-97459994D01*
X147064565Y-97235640D01*
X147064563Y-97235628D01*
X147020063Y-97059901D01*
X147009296Y-97017384D01*
X146918860Y-96811209D01*
X146902706Y-96786484D01*
X146819466Y-96659075D01*
X146795722Y-96622732D01*
X146795719Y-96622729D01*
X146795715Y-96622723D01*
X146643243Y-96457097D01*
X146643238Y-96457092D01*
X146465577Y-96318812D01*
X146465572Y-96318808D01*
X146267580Y-96211661D01*
X146267577Y-96211659D01*
X146267574Y-96211658D01*
X146267571Y-96211657D01*
X146267569Y-96211656D01*
X146054637Y-96138556D01*
X145832569Y-96101500D01*
X145607431Y-96101500D01*
X145385362Y-96138556D01*
X145172430Y-96211656D01*
X145172419Y-96211661D01*
X144974427Y-96318808D01*
X144974422Y-96318812D01*
X144796761Y-96457092D01*
X144796756Y-96457097D01*
X144644284Y-96622723D01*
X144644276Y-96622734D01*
X144550251Y-96766650D01*
X144497105Y-96812007D01*
X144427873Y-96821430D01*
X144364538Y-96791928D01*
X144344868Y-96769951D01*
X144218113Y-96588926D01*
X144218108Y-96588920D01*
X144051082Y-96421894D01*
X143857578Y-96286399D01*
X143643492Y-96186570D01*
X143643486Y-96186567D01*
X143430000Y-96129364D01*
X143430000Y-97026988D01*
X143372993Y-96994075D01*
X143245826Y-96960000D01*
X143114174Y-96960000D01*
X142987007Y-96994075D01*
X142930000Y-97026988D01*
X142930000Y-96129364D01*
X142929999Y-96129364D01*
X142716513Y-96186567D01*
X142716507Y-96186570D01*
X142502422Y-96286399D01*
X142502420Y-96286400D01*
X142308926Y-96421886D01*
X142308920Y-96421891D01*
X142141891Y-96588920D01*
X142141890Y-96588922D01*
X142011575Y-96775031D01*
X141956998Y-96818655D01*
X141887499Y-96825848D01*
X141825145Y-96794326D01*
X141808425Y-96775031D01*
X141678109Y-96588922D01*
X141678108Y-96588920D01*
X141511082Y-96421894D01*
X141317578Y-96286399D01*
X141103492Y-96186570D01*
X141103486Y-96186567D01*
X140890000Y-96129364D01*
X140890000Y-97026988D01*
X140832993Y-96994075D01*
X140705826Y-96960000D01*
X140574174Y-96960000D01*
X140447007Y-96994075D01*
X140390000Y-97026988D01*
X140390000Y-96129364D01*
X140389999Y-96129364D01*
X140176513Y-96186567D01*
X140176507Y-96186570D01*
X139962422Y-96286399D01*
X139962420Y-96286400D01*
X139768926Y-96421886D01*
X139768920Y-96421891D01*
X139601891Y-96588920D01*
X139601890Y-96588922D01*
X139475131Y-96769952D01*
X139420554Y-96813577D01*
X139351055Y-96820769D01*
X139288701Y-96789247D01*
X139269752Y-96766656D01*
X139175722Y-96622732D01*
X139175715Y-96622725D01*
X139175715Y-96622723D01*
X139023243Y-96457097D01*
X139023238Y-96457092D01*
X138845577Y-96318812D01*
X138845572Y-96318808D01*
X138647580Y-96211661D01*
X138647577Y-96211659D01*
X138647574Y-96211658D01*
X138647571Y-96211657D01*
X138647569Y-96211656D01*
X138434637Y-96138556D01*
X138212569Y-96101500D01*
X137987431Y-96101500D01*
X137765362Y-96138556D01*
X137552430Y-96211656D01*
X137552419Y-96211661D01*
X137354427Y-96318808D01*
X137354422Y-96318812D01*
X137176761Y-96457092D01*
X137176756Y-96457097D01*
X137024284Y-96622723D01*
X137024276Y-96622734D01*
X136933808Y-96761206D01*
X136880662Y-96806562D01*
X136811431Y-96815986D01*
X136748095Y-96786484D01*
X136726192Y-96761206D01*
X136659466Y-96659075D01*
X136635722Y-96622732D01*
X136635719Y-96622729D01*
X136635715Y-96622723D01*
X136483243Y-96457097D01*
X136483238Y-96457092D01*
X136305577Y-96318812D01*
X136305572Y-96318808D01*
X136107580Y-96211661D01*
X136107577Y-96211659D01*
X136107574Y-96211658D01*
X136107571Y-96211657D01*
X136107569Y-96211656D01*
X135894637Y-96138556D01*
X135672569Y-96101500D01*
X135447431Y-96101500D01*
X135225362Y-96138556D01*
X135012430Y-96211656D01*
X135012419Y-96211661D01*
X134814427Y-96318808D01*
X134814422Y-96318812D01*
X134636761Y-96457092D01*
X134636756Y-96457097D01*
X134484284Y-96622723D01*
X134484276Y-96622734D01*
X134393808Y-96761206D01*
X134340662Y-96806562D01*
X134271431Y-96815986D01*
X134208095Y-96786484D01*
X134186192Y-96761206D01*
X134119466Y-96659075D01*
X134095722Y-96622732D01*
X134095719Y-96622729D01*
X134095715Y-96622723D01*
X133943243Y-96457097D01*
X133943238Y-96457092D01*
X133765577Y-96318812D01*
X133765572Y-96318808D01*
X133567580Y-96211661D01*
X133567577Y-96211659D01*
X133567574Y-96211658D01*
X133567571Y-96211657D01*
X133567569Y-96211656D01*
X133354637Y-96138556D01*
X133132569Y-96101500D01*
X132907431Y-96101500D01*
X132685362Y-96138556D01*
X132472430Y-96211656D01*
X132472419Y-96211661D01*
X132274427Y-96318808D01*
X132274422Y-96318812D01*
X132096761Y-96457092D01*
X132096756Y-96457097D01*
X131944284Y-96622723D01*
X131944276Y-96622734D01*
X131853808Y-96761206D01*
X131800662Y-96806562D01*
X131731431Y-96815986D01*
X131668095Y-96786484D01*
X131646192Y-96761206D01*
X131579466Y-96659075D01*
X131555722Y-96622732D01*
X131555719Y-96622729D01*
X131555715Y-96622723D01*
X131403243Y-96457097D01*
X131403238Y-96457092D01*
X131225577Y-96318812D01*
X131225572Y-96318808D01*
X131027580Y-96211661D01*
X131027577Y-96211659D01*
X131027574Y-96211658D01*
X131027571Y-96211657D01*
X131027569Y-96211656D01*
X130814637Y-96138556D01*
X130592569Y-96101500D01*
X130367431Y-96101500D01*
X130145362Y-96138556D01*
X129932430Y-96211656D01*
X129932419Y-96211661D01*
X129734427Y-96318808D01*
X129734422Y-96318812D01*
X129556761Y-96457092D01*
X129493548Y-96525760D01*
X129433661Y-96561750D01*
X129363823Y-96559649D01*
X129306207Y-96520124D01*
X129286138Y-96485110D01*
X129240889Y-96363796D01*
X129207214Y-96318812D01*
X129153261Y-96246739D01*
X129036204Y-96159111D01*
X129014686Y-96151085D01*
X128899203Y-96108011D01*
X128838654Y-96101500D01*
X128838638Y-96101500D01*
X127041362Y-96101500D01*
X127041345Y-96101500D01*
X126980797Y-96108011D01*
X126980795Y-96108011D01*
X126843795Y-96159111D01*
X126726739Y-96246739D01*
X126639111Y-96363795D01*
X126588011Y-96500795D01*
X126588011Y-96500797D01*
X126581500Y-96561345D01*
X126581500Y-98358654D01*
X123549219Y-98358654D01*
X123576989Y-98284201D01*
X123581928Y-98238260D01*
X123583499Y-98223654D01*
X123583500Y-98223637D01*
X123583500Y-96426362D01*
X123583499Y-96426345D01*
X123580157Y-96395270D01*
X123576989Y-96365799D01*
X123525889Y-96228796D01*
X123438261Y-96111739D01*
X123350316Y-96045904D01*
X123308446Y-95989971D01*
X123303462Y-95920279D01*
X123336947Y-95858957D01*
X123451878Y-95744027D01*
X123651086Y-95544819D01*
X123712409Y-95511334D01*
X123738767Y-95508500D01*
X147901234Y-95508500D01*
X147968273Y-95528185D01*
X147988915Y-95544819D01*
X149405181Y-96961085D01*
X149438666Y-97022408D01*
X149441500Y-97048766D01*
X149441500Y-98358654D01*
X149448011Y-98419202D01*
X149448011Y-98419204D01*
X149497538Y-98551988D01*
X149499111Y-98556204D01*
X149586739Y-98673261D01*
X149703796Y-98760889D01*
X149840799Y-98811989D01*
X149868050Y-98814918D01*
X149901345Y-98818499D01*
X149901362Y-98818500D01*
X151698638Y-98818500D01*
X151698654Y-98818499D01*
X151725692Y-98815591D01*
X151759201Y-98811989D01*
X151896204Y-98760889D01*
X152013261Y-98673261D01*
X152100889Y-98556204D01*
X152146138Y-98434887D01*
X152188009Y-98378956D01*
X152253474Y-98354539D01*
X152321746Y-98369391D01*
X152353545Y-98394236D01*
X152416760Y-98462906D01*
X152594424Y-98601189D01*
X152594425Y-98601189D01*
X152594427Y-98601191D01*
X152721135Y-98669761D01*
X152792426Y-98708342D01*
X153005365Y-98781444D01*
X153227431Y-98818500D01*
X153452569Y-98818500D01*
X153674635Y-98781444D01*
X153887574Y-98708342D01*
X154085576Y-98601189D01*
X154263240Y-98462906D01*
X154383574Y-98332190D01*
X154415715Y-98297276D01*
X154415715Y-98297275D01*
X154415722Y-98297268D01*
X154506193Y-98158790D01*
X154559338Y-98113437D01*
X154628569Y-98104013D01*
X154691905Y-98133515D01*
X154713804Y-98158787D01*
X154804278Y-98297268D01*
X154804283Y-98297273D01*
X154804284Y-98297276D01*
X154918370Y-98421204D01*
X154956760Y-98462906D01*
X155134424Y-98601189D01*
X155134425Y-98601189D01*
X155134427Y-98601191D01*
X155261135Y-98669761D01*
X155332426Y-98708342D01*
X155545365Y-98781444D01*
X155767431Y-98818500D01*
X155992569Y-98818500D01*
X156214635Y-98781444D01*
X156427574Y-98708342D01*
X156625576Y-98601189D01*
X156803240Y-98462906D01*
X156923574Y-98332190D01*
X156955715Y-98297276D01*
X156955715Y-98297275D01*
X156955722Y-98297268D01*
X157046193Y-98158790D01*
X157099338Y-98113437D01*
X157168569Y-98104013D01*
X157231905Y-98133515D01*
X157253804Y-98158787D01*
X157344278Y-98297268D01*
X157344283Y-98297273D01*
X157344284Y-98297276D01*
X157458370Y-98421204D01*
X157496760Y-98462906D01*
X157674424Y-98601189D01*
X157674425Y-98601189D01*
X157674427Y-98601191D01*
X157801135Y-98669761D01*
X157872426Y-98708342D01*
X158085365Y-98781444D01*
X158307431Y-98818500D01*
X158532569Y-98818500D01*
X158754635Y-98781444D01*
X158967574Y-98708342D01*
X159165576Y-98601189D01*
X159343240Y-98462906D01*
X159463574Y-98332190D01*
X159495715Y-98297276D01*
X159495715Y-98297275D01*
X159495722Y-98297268D01*
X159586193Y-98158790D01*
X159639338Y-98113437D01*
X159708569Y-98104013D01*
X159771905Y-98133515D01*
X159793804Y-98158787D01*
X159884278Y-98297268D01*
X159884283Y-98297273D01*
X159884284Y-98297276D01*
X159998370Y-98421204D01*
X160036760Y-98462906D01*
X160214424Y-98601189D01*
X160214425Y-98601189D01*
X160214427Y-98601191D01*
X160341135Y-98669761D01*
X160412426Y-98708342D01*
X160625365Y-98781444D01*
X160847431Y-98818500D01*
X161072569Y-98818500D01*
X161294635Y-98781444D01*
X161507574Y-98708342D01*
X161705576Y-98601189D01*
X161883240Y-98462906D01*
X162003574Y-98332190D01*
X162035715Y-98297276D01*
X162035715Y-98297275D01*
X162035722Y-98297268D01*
X162126193Y-98158790D01*
X162179338Y-98113437D01*
X162248569Y-98104013D01*
X162311905Y-98133515D01*
X162333804Y-98158787D01*
X162424278Y-98297268D01*
X162424283Y-98297273D01*
X162424284Y-98297276D01*
X162538370Y-98421204D01*
X162576760Y-98462906D01*
X162754424Y-98601189D01*
X162754425Y-98601189D01*
X162754427Y-98601191D01*
X162881135Y-98669761D01*
X162952426Y-98708342D01*
X163165365Y-98781444D01*
X163387431Y-98818500D01*
X163612569Y-98818500D01*
X163834635Y-98781444D01*
X164047574Y-98708342D01*
X164245576Y-98601189D01*
X164423240Y-98462906D01*
X164543574Y-98332190D01*
X164575715Y-98297276D01*
X164575717Y-98297273D01*
X164575722Y-98297268D01*
X164698860Y-98108791D01*
X164789296Y-97902616D01*
X164844564Y-97684368D01*
X164847164Y-97652993D01*
X164863156Y-97460005D01*
X164863156Y-97459994D01*
X164844565Y-97235640D01*
X164844563Y-97235628D01*
X164800063Y-97059901D01*
X164789296Y-97017384D01*
X164698860Y-96811209D01*
X164682706Y-96786484D01*
X164599466Y-96659075D01*
X164575722Y-96622732D01*
X164575719Y-96622729D01*
X164575715Y-96622723D01*
X164423243Y-96457097D01*
X164423238Y-96457092D01*
X164245577Y-96318812D01*
X164245572Y-96318808D01*
X164047580Y-96211661D01*
X164047577Y-96211659D01*
X164047574Y-96211658D01*
X164047571Y-96211657D01*
X164047569Y-96211656D01*
X163834637Y-96138556D01*
X163612569Y-96101500D01*
X163387431Y-96101500D01*
X163165362Y-96138556D01*
X162952430Y-96211656D01*
X162952419Y-96211661D01*
X162754427Y-96318808D01*
X162754422Y-96318812D01*
X162576761Y-96457092D01*
X162576756Y-96457097D01*
X162424284Y-96622723D01*
X162424276Y-96622734D01*
X162333808Y-96761206D01*
X162280662Y-96806562D01*
X162211431Y-96815986D01*
X162148095Y-96786484D01*
X162126192Y-96761206D01*
X162059466Y-96659075D01*
X162035722Y-96622732D01*
X162035719Y-96622729D01*
X162035715Y-96622723D01*
X161883243Y-96457097D01*
X161883238Y-96457092D01*
X161705577Y-96318812D01*
X161705572Y-96318808D01*
X161507580Y-96211661D01*
X161507577Y-96211659D01*
X161507574Y-96211658D01*
X161507571Y-96211657D01*
X161507569Y-96211656D01*
X161294637Y-96138556D01*
X161072569Y-96101500D01*
X160847431Y-96101500D01*
X160625362Y-96138556D01*
X160412430Y-96211656D01*
X160412419Y-96211661D01*
X160214427Y-96318808D01*
X160214422Y-96318812D01*
X160036761Y-96457092D01*
X160036756Y-96457097D01*
X159884284Y-96622723D01*
X159884276Y-96622734D01*
X159793808Y-96761206D01*
X159740662Y-96806562D01*
X159671431Y-96815986D01*
X159608095Y-96786484D01*
X159586192Y-96761206D01*
X159519466Y-96659075D01*
X159495722Y-96622732D01*
X159495719Y-96622729D01*
X159495715Y-96622723D01*
X159343243Y-96457097D01*
X159343238Y-96457092D01*
X159165577Y-96318812D01*
X159165572Y-96318808D01*
X158967580Y-96211661D01*
X158967577Y-96211659D01*
X158967574Y-96211658D01*
X158967571Y-96211657D01*
X158967569Y-96211656D01*
X158754637Y-96138556D01*
X158532569Y-96101500D01*
X158307431Y-96101500D01*
X158085362Y-96138556D01*
X157872430Y-96211656D01*
X157872419Y-96211661D01*
X157674427Y-96318808D01*
X157674422Y-96318812D01*
X157496761Y-96457092D01*
X157496756Y-96457097D01*
X157344284Y-96622723D01*
X157344276Y-96622734D01*
X157253808Y-96761206D01*
X157200662Y-96806562D01*
X157131431Y-96815986D01*
X157068095Y-96786484D01*
X157046192Y-96761206D01*
X156979466Y-96659075D01*
X156955722Y-96622732D01*
X156955719Y-96622729D01*
X156955715Y-96622723D01*
X156803243Y-96457097D01*
X156803238Y-96457092D01*
X156625577Y-96318812D01*
X156625572Y-96318808D01*
X156427580Y-96211661D01*
X156427577Y-96211659D01*
X156427574Y-96211658D01*
X156427571Y-96211657D01*
X156427569Y-96211656D01*
X156214637Y-96138556D01*
X155992569Y-96101500D01*
X155767431Y-96101500D01*
X155545362Y-96138556D01*
X155332430Y-96211656D01*
X155332419Y-96211661D01*
X155134427Y-96318808D01*
X155134422Y-96318812D01*
X154956761Y-96457092D01*
X154956756Y-96457097D01*
X154804284Y-96622723D01*
X154804276Y-96622734D01*
X154713808Y-96761206D01*
X154660662Y-96806562D01*
X154591431Y-96815986D01*
X154528095Y-96786484D01*
X154506192Y-96761206D01*
X154439466Y-96659075D01*
X154415722Y-96622732D01*
X154415719Y-96622729D01*
X154415715Y-96622723D01*
X154263243Y-96457097D01*
X154263238Y-96457092D01*
X154085577Y-96318812D01*
X154085572Y-96318808D01*
X153887580Y-96211661D01*
X153887577Y-96211659D01*
X153887574Y-96211658D01*
X153887571Y-96211657D01*
X153887569Y-96211656D01*
X153674637Y-96138556D01*
X153452569Y-96101500D01*
X153227431Y-96101500D01*
X153005362Y-96138556D01*
X152792430Y-96211656D01*
X152792419Y-96211661D01*
X152594427Y-96318808D01*
X152594422Y-96318812D01*
X152416761Y-96457092D01*
X152353548Y-96525760D01*
X152293661Y-96561750D01*
X152223823Y-96559649D01*
X152166207Y-96520124D01*
X152146138Y-96485110D01*
X152100889Y-96363796D01*
X152067214Y-96318812D01*
X152013261Y-96246739D01*
X151896204Y-96159111D01*
X151874686Y-96151085D01*
X151759203Y-96108011D01*
X151698654Y-96101500D01*
X151698638Y-96101500D01*
X151557500Y-96101500D01*
X151490461Y-96081815D01*
X151444706Y-96029011D01*
X151433500Y-95977500D01*
X151433500Y-93393765D01*
X151453185Y-93326726D01*
X151469815Y-93306088D01*
X151592568Y-93183334D01*
X151653891Y-93149850D01*
X151712341Y-93151240D01*
X151776913Y-93168543D01*
X151939832Y-93182796D01*
X152004998Y-93188498D01*
X152005000Y-93188498D01*
X152005002Y-93188498D01*
X152064013Y-93183335D01*
X152233087Y-93168543D01*
X152454243Y-93109284D01*
X152661749Y-93012523D01*
X152849300Y-92881198D01*
X153011198Y-92719300D01*
X153142523Y-92531749D01*
X153239284Y-92324243D01*
X153298543Y-92103087D01*
X153318498Y-91875000D01*
X153316428Y-91851345D01*
X153308374Y-91759281D01*
X153298543Y-91646913D01*
X153239284Y-91425757D01*
X153223162Y-91391184D01*
X153142524Y-91218254D01*
X153142523Y-91218252D01*
X153142523Y-91218251D01*
X153011198Y-91030700D01*
X152849300Y-90868802D01*
X152661749Y-90737477D01*
X152661745Y-90737475D01*
X152454249Y-90640718D01*
X152454238Y-90640714D01*
X152233089Y-90581457D01*
X152233081Y-90581456D01*
X152005002Y-90561502D01*
X152004998Y-90561502D01*
X151776918Y-90581456D01*
X151776910Y-90581457D01*
X151555761Y-90640714D01*
X151555750Y-90640718D01*
X151348254Y-90737475D01*
X151348252Y-90737476D01*
X151293393Y-90775889D01*
X151160700Y-90868802D01*
X151160698Y-90868803D01*
X151160695Y-90868806D01*
X150998806Y-91030695D01*
X150998803Y-91030698D01*
X150998802Y-91030700D01*
X150959800Y-91086401D01*
X150867476Y-91218252D01*
X150867475Y-91218254D01*
X150770718Y-91425750D01*
X150770714Y-91425761D01*
X150711457Y-91646910D01*
X150711456Y-91646918D01*
X150691502Y-91874998D01*
X150691502Y-91875001D01*
X150711456Y-92103081D01*
X150711458Y-92103092D01*
X150728758Y-92167656D01*
X150727095Y-92237506D01*
X150696664Y-92287430D01*
X150396167Y-92587929D01*
X150352047Y-92632049D01*
X150307927Y-92676168D01*
X150238603Y-92779918D01*
X150238598Y-92779927D01*
X150190845Y-92895214D01*
X150190843Y-92895222D01*
X150166500Y-93017601D01*
X150166500Y-95631233D01*
X150146815Y-95698272D01*
X150094011Y-95744027D01*
X150024853Y-95753971D01*
X149961297Y-95724946D01*
X149954819Y-95718914D01*
X148618836Y-94382931D01*
X148618832Y-94382928D01*
X148515081Y-94313603D01*
X148515072Y-94313598D01*
X148399785Y-94265845D01*
X148399777Y-94265843D01*
X148277398Y-94241500D01*
X148277394Y-94241500D01*
X123362606Y-94241500D01*
X123362602Y-94241500D01*
X123240219Y-94265843D01*
X123240214Y-94265845D01*
X123206448Y-94279829D01*
X123206449Y-94279830D01*
X123124926Y-94313598D01*
X123124922Y-94313600D01*
X123021171Y-94382924D01*
X123021163Y-94382930D01*
X121496167Y-95907929D01*
X121473915Y-95930181D01*
X121412592Y-95963666D01*
X121386234Y-95966500D01*
X121326345Y-95966500D01*
X121265797Y-95973011D01*
X121265795Y-95973011D01*
X121128795Y-96024111D01*
X121011739Y-96111739D01*
X120924111Y-96228795D01*
X120873011Y-96365795D01*
X120873011Y-96365797D01*
X120866500Y-96426345D01*
X120866500Y-98223654D01*
X117077949Y-98223654D01*
X117101989Y-98159201D01*
X117106909Y-98113437D01*
X117108499Y-98098654D01*
X117108500Y-98098637D01*
X117108500Y-96301362D01*
X117108499Y-96301345D01*
X117105157Y-96270270D01*
X117101989Y-96240799D01*
X117096906Y-96227172D01*
X117074694Y-96167620D01*
X117050889Y-96103796D01*
X116963261Y-95986739D01*
X116846204Y-95899111D01*
X116709203Y-95848011D01*
X116648654Y-95841500D01*
X116648638Y-95841500D01*
X114851362Y-95841500D01*
X114851345Y-95841500D01*
X114790797Y-95848011D01*
X114790795Y-95848011D01*
X114653795Y-95899111D01*
X114536739Y-95986739D01*
X114449111Y-96103795D01*
X114398011Y-96240795D01*
X114398011Y-96240797D01*
X114391500Y-96301345D01*
X114391500Y-98098654D01*
X111212526Y-98098654D01*
X111218596Y-98082379D01*
X111218598Y-98082372D01*
X111224999Y-98022844D01*
X111225000Y-98022827D01*
X111225000Y-97375000D01*
X110308012Y-97375000D01*
X110340925Y-97317993D01*
X110375000Y-97190826D01*
X110375000Y-97059174D01*
X110340925Y-96932007D01*
X110308012Y-96875000D01*
X111225000Y-96875000D01*
X111225000Y-96227172D01*
X111224999Y-96227155D01*
X111218598Y-96167627D01*
X111218596Y-96167620D01*
X111168354Y-96032913D01*
X111168350Y-96032906D01*
X111082190Y-95917812D01*
X111082187Y-95917809D01*
X110967093Y-95831649D01*
X110967086Y-95831645D01*
X110832379Y-95781403D01*
X110832372Y-95781401D01*
X110772844Y-95775000D01*
X110125000Y-95775000D01*
X110125000Y-96691988D01*
X110067993Y-96659075D01*
X109940826Y-96625000D01*
X109809174Y-96625000D01*
X109682007Y-96659075D01*
X109625000Y-96691988D01*
X109625000Y-95775000D01*
X108977155Y-95775000D01*
X108917627Y-95781401D01*
X108917620Y-95781403D01*
X108782913Y-95831645D01*
X108782906Y-95831649D01*
X108667812Y-95917809D01*
X108667809Y-95917812D01*
X108581649Y-96032906D01*
X108581645Y-96032913D01*
X108531403Y-96167620D01*
X108531401Y-96167627D01*
X108525000Y-96227155D01*
X108525000Y-96875000D01*
X109441988Y-96875000D01*
X109409075Y-96932007D01*
X109375000Y-97059174D01*
X109375000Y-97190826D01*
X109409075Y-97317993D01*
X109441988Y-97375000D01*
X108525000Y-97375000D01*
X108525000Y-98022844D01*
X104537576Y-98022844D01*
X104551989Y-97984201D01*
X104556031Y-97946606D01*
X104558499Y-97923654D01*
X104558500Y-97923637D01*
X104558500Y-96238766D01*
X104578185Y-96171727D01*
X104594819Y-96151085D01*
X107396086Y-93349819D01*
X107457409Y-93316334D01*
X107483767Y-93313500D01*
X123456648Y-93313500D01*
X123523687Y-93333185D01*
X123558220Y-93366373D01*
X123668802Y-93524300D01*
X123830700Y-93686198D01*
X124018251Y-93817523D01*
X124079758Y-93846204D01*
X124225750Y-93914281D01*
X124225752Y-93914281D01*
X124225757Y-93914284D01*
X124446913Y-93973543D01*
X124609832Y-93987796D01*
X124674998Y-93993498D01*
X124675000Y-93993498D01*
X124675002Y-93993498D01*
X124732021Y-93988509D01*
X124903087Y-93973543D01*
X125124243Y-93914284D01*
X125331749Y-93817523D01*
X125519300Y-93686198D01*
X125681198Y-93524300D01*
X125812523Y-93336749D01*
X125909284Y-93129243D01*
X125968543Y-92908087D01*
X125988498Y-92680000D01*
X125968543Y-92451913D01*
X125909284Y-92230757D01*
X125892257Y-92194243D01*
X125841238Y-92084831D01*
X125812523Y-92023251D01*
X125681198Y-91835700D01*
X125519300Y-91673802D01*
X125331749Y-91542477D01*
X125307561Y-91531198D01*
X125124249Y-91445718D01*
X125124238Y-91445714D01*
X124903089Y-91386457D01*
X124903081Y-91386456D01*
X124675002Y-91366502D01*
X124674998Y-91366502D01*
X124446918Y-91386456D01*
X124446910Y-91386457D01*
X124225761Y-91445714D01*
X124225750Y-91445718D01*
X124018254Y-91542475D01*
X124018252Y-91542476D01*
X124018251Y-91542477D01*
X123830700Y-91673802D01*
X123830698Y-91673803D01*
X123830695Y-91673806D01*
X123668806Y-91835695D01*
X123668803Y-91835698D01*
X123668802Y-91835700D01*
X123558220Y-91993625D01*
X123503646Y-92037249D01*
X123456648Y-92046500D01*
X120394213Y-92046500D01*
X120327174Y-92026815D01*
X120281419Y-91974011D01*
X120271475Y-91904853D01*
X120300500Y-91841297D01*
X120359278Y-91803523D01*
X120362120Y-91802725D01*
X120406628Y-91790799D01*
X120524243Y-91759284D01*
X120731749Y-91662523D01*
X120919300Y-91531198D01*
X121081198Y-91369300D01*
X121212523Y-91181749D01*
X121309284Y-90974243D01*
X121368543Y-90753087D01*
X121388498Y-90525000D01*
X121368543Y-90296913D01*
X121351241Y-90232341D01*
X121352904Y-90162491D01*
X121383333Y-90112569D01*
X121851085Y-89644819D01*
X121912408Y-89611334D01*
X121938766Y-89608500D01*
X128715389Y-89608500D01*
X128782428Y-89628185D01*
X128827771Y-89680096D01*
X128828053Y-89680700D01*
X128912477Y-89861749D01*
X129043802Y-90049300D01*
X129205700Y-90211198D01*
X129393251Y-90342523D01*
X129446401Y-90367307D01*
X129498840Y-90413479D01*
X129517992Y-90480673D01*
X129497776Y-90547554D01*
X129446401Y-90592071D01*
X129397517Y-90614865D01*
X129211179Y-90745342D01*
X129050342Y-90906179D01*
X128919865Y-91092517D01*
X128823734Y-91298673D01*
X128823730Y-91298682D01*
X128771127Y-91494999D01*
X128771128Y-91495000D01*
X129734314Y-91495000D01*
X129729920Y-91499394D01*
X129677259Y-91590606D01*
X129650000Y-91692339D01*
X129650000Y-91797661D01*
X129677259Y-91899394D01*
X129729920Y-91990606D01*
X129734314Y-91995000D01*
X128771128Y-91995000D01*
X128823729Y-92191312D01*
X128823734Y-92191326D01*
X128919865Y-92397482D01*
X129050342Y-92583820D01*
X129211179Y-92744657D01*
X129397517Y-92875134D01*
X129603673Y-92971265D01*
X129603682Y-92971269D01*
X129799999Y-93023872D01*
X129800000Y-93023871D01*
X129800000Y-92060686D01*
X129804394Y-92065080D01*
X129895606Y-92117741D01*
X129997339Y-92145000D01*
X130102661Y-92145000D01*
X130204394Y-92117741D01*
X130295606Y-92065080D01*
X130300000Y-92060686D01*
X130300000Y-93023872D01*
X130496317Y-92971269D01*
X130496326Y-92971265D01*
X130702482Y-92875134D01*
X130888820Y-92744657D01*
X131049657Y-92583820D01*
X131180134Y-92397482D01*
X131276265Y-92191326D01*
X131276271Y-92191312D01*
X131328872Y-91995000D01*
X130365686Y-91995000D01*
X130370080Y-91990606D01*
X130422741Y-91899394D01*
X130450000Y-91797661D01*
X130450000Y-91745001D01*
X136356502Y-91745001D01*
X136376456Y-91973081D01*
X136376457Y-91973089D01*
X136435714Y-92194238D01*
X136435718Y-92194249D01*
X136496338Y-92324249D01*
X136532477Y-92401749D01*
X136663802Y-92589300D01*
X136825700Y-92751198D01*
X137013251Y-92882523D01*
X137068061Y-92908081D01*
X137220750Y-92979281D01*
X137220752Y-92979281D01*
X137220757Y-92979284D01*
X137441913Y-93038543D01*
X137604832Y-93052796D01*
X137669998Y-93058498D01*
X137670000Y-93058498D01*
X137670002Y-93058498D01*
X137727021Y-93053509D01*
X137898087Y-93038543D01*
X138119243Y-92979284D01*
X138326749Y-92882523D01*
X138514300Y-92751198D01*
X138676198Y-92589300D01*
X138807523Y-92401749D01*
X138904284Y-92194243D01*
X138963543Y-91973087D01*
X138983498Y-91745000D01*
X138981494Y-91722095D01*
X138995260Y-91653596D01*
X139043875Y-91603413D01*
X139111904Y-91587479D01*
X139177747Y-91610854D01*
X139192703Y-91623607D01*
X139936163Y-92367068D01*
X139936167Y-92367071D01*
X140039918Y-92436396D01*
X140039924Y-92436399D01*
X140039925Y-92436400D01*
X140155215Y-92484155D01*
X140277601Y-92508499D01*
X140277605Y-92508500D01*
X140277606Y-92508500D01*
X140402394Y-92508500D01*
X140626648Y-92508500D01*
X140693687Y-92528185D01*
X140728220Y-92561373D01*
X140838802Y-92719300D01*
X141000700Y-92881198D01*
X141188251Y-93012523D01*
X141313091Y-93070736D01*
X141395750Y-93109281D01*
X141395752Y-93109281D01*
X141395757Y-93109284D01*
X141616913Y-93168543D01*
X141779832Y-93182796D01*
X141844998Y-93188498D01*
X141845000Y-93188498D01*
X141845002Y-93188498D01*
X141904013Y-93183335D01*
X142073087Y-93168543D01*
X142294243Y-93109284D01*
X142501749Y-93012523D01*
X142689300Y-92881198D01*
X142851198Y-92719300D01*
X142982523Y-92531749D01*
X143079284Y-92324243D01*
X143138543Y-92103087D01*
X143158498Y-91875000D01*
X143156428Y-91851345D01*
X143148374Y-91759281D01*
X143138543Y-91646913D01*
X143079284Y-91425757D01*
X143063162Y-91391184D01*
X142982524Y-91218254D01*
X142982523Y-91218252D01*
X142982523Y-91218251D01*
X142851198Y-91030700D01*
X142689300Y-90868802D01*
X142501749Y-90737477D01*
X142501745Y-90737475D01*
X142294249Y-90640718D01*
X142294238Y-90640714D01*
X142073089Y-90581457D01*
X142073081Y-90581456D01*
X141845002Y-90561502D01*
X141844998Y-90561502D01*
X141616918Y-90581456D01*
X141616910Y-90581457D01*
X141395761Y-90640714D01*
X141395750Y-90640718D01*
X141188254Y-90737475D01*
X141188252Y-90737476D01*
X141133393Y-90775889D01*
X141000700Y-90868802D01*
X141000698Y-90868803D01*
X141000695Y-90868806D01*
X140838806Y-91030695D01*
X140838803Y-91030698D01*
X140838802Y-91030700D01*
X140739389Y-91172674D01*
X140684813Y-91216299D01*
X140615315Y-91223491D01*
X140552960Y-91191969D01*
X140550135Y-91189231D01*
X139038585Y-89677681D01*
X139005100Y-89616358D01*
X139010084Y-89546666D01*
X139038585Y-89502319D01*
X140224137Y-88316767D01*
X141457570Y-87083333D01*
X141518891Y-87049850D01*
X141577341Y-87051240D01*
X141641913Y-87068543D01*
X141804832Y-87082796D01*
X141869998Y-87088498D01*
X141870000Y-87088498D01*
X141870002Y-87088498D01*
X141929013Y-87083335D01*
X142098087Y-87068543D01*
X142319243Y-87009284D01*
X142526749Y-86912523D01*
X142714300Y-86781198D01*
X142876198Y-86619300D01*
X143007523Y-86431749D01*
X143104284Y-86224243D01*
X143163543Y-86003087D01*
X143183498Y-85775000D01*
X143163543Y-85546913D01*
X143104284Y-85325757D01*
X143102914Y-85322820D01*
X143037210Y-85181915D01*
X143007523Y-85118251D01*
X142876198Y-84930700D01*
X142714300Y-84768802D01*
X142695603Y-84755710D01*
X142556376Y-84658221D01*
X142512751Y-84603644D01*
X142503500Y-84556647D01*
X142503500Y-81018765D01*
X142523185Y-80951726D01*
X142539814Y-80931089D01*
X143762569Y-79708333D01*
X143823890Y-79674850D01*
X143882341Y-79676241D01*
X143888548Y-79677904D01*
X143946913Y-79693543D01*
X144109832Y-79707796D01*
X144174998Y-79713498D01*
X144175000Y-79713498D01*
X144175002Y-79713498D01*
X144234013Y-79708335D01*
X144403087Y-79693543D01*
X144624243Y-79634284D01*
X144831749Y-79537523D01*
X145019300Y-79406198D01*
X145181198Y-79244300D01*
X145312523Y-79056749D01*
X145409284Y-78849243D01*
X145468543Y-78628087D01*
X145485647Y-78432583D01*
X145488498Y-78400001D01*
X145488498Y-78399998D01*
X145474587Y-78240994D01*
X145468543Y-78171913D01*
X145409284Y-77950757D01*
X145398713Y-77928088D01*
X145370736Y-77868091D01*
X145312523Y-77743251D01*
X145181198Y-77555700D01*
X145019300Y-77393802D01*
X144831749Y-77262477D01*
X144806624Y-77250761D01*
X144624249Y-77165718D01*
X144624238Y-77165714D01*
X144403089Y-77106457D01*
X144403081Y-77106456D01*
X144175002Y-77086502D01*
X144174998Y-77086502D01*
X143946918Y-77106456D01*
X143946910Y-77106457D01*
X143725761Y-77165714D01*
X143725750Y-77165718D01*
X143518254Y-77262475D01*
X143518252Y-77262476D01*
X143447856Y-77311767D01*
X143330700Y-77393802D01*
X143330698Y-77393803D01*
X143330695Y-77393806D01*
X143168806Y-77555695D01*
X143168803Y-77555698D01*
X143168802Y-77555700D01*
X143111652Y-77637319D01*
X143037476Y-77743252D01*
X143037475Y-77743254D01*
X142940718Y-77950750D01*
X142940714Y-77950761D01*
X142881457Y-78171910D01*
X142881456Y-78171918D01*
X142861502Y-78399998D01*
X142861502Y-78400001D01*
X142881456Y-78628081D01*
X142881458Y-78628092D01*
X142898758Y-78692656D01*
X142897095Y-78762506D01*
X142866664Y-78812430D01*
X141799176Y-79879920D01*
X141466167Y-80212929D01*
X141426435Y-80252661D01*
X141377927Y-80301168D01*
X141308603Y-80404918D01*
X141308598Y-80404927D01*
X141260845Y-80520214D01*
X141260843Y-80520222D01*
X141236500Y-80642601D01*
X141236500Y-84556647D01*
X141216815Y-84623686D01*
X141183624Y-84658221D01*
X141025699Y-84768802D01*
X140863806Y-84930695D01*
X140863803Y-84930698D01*
X140863802Y-84930700D01*
X140812127Y-85004500D01*
X140732476Y-85118252D01*
X140732475Y-85118254D01*
X140635718Y-85325750D01*
X140635714Y-85325761D01*
X140576457Y-85546910D01*
X140576456Y-85546918D01*
X140556502Y-85774998D01*
X140556502Y-85775001D01*
X140576456Y-86003081D01*
X140576458Y-86003091D01*
X140593758Y-86067655D01*
X140592095Y-86137504D01*
X140561664Y-86187429D01*
X138609042Y-88140051D01*
X138547719Y-88173536D01*
X138478027Y-88168552D01*
X138450240Y-88153946D01*
X138326749Y-88067477D01*
X138283655Y-88047382D01*
X138231215Y-88001210D01*
X138212063Y-87934017D01*
X138232278Y-87867136D01*
X138283655Y-87822618D01*
X138286882Y-87821112D01*
X138326749Y-87802523D01*
X138514300Y-87671198D01*
X138676198Y-87509300D01*
X138807523Y-87321749D01*
X138904284Y-87114243D01*
X138963543Y-86893087D01*
X138983498Y-86665000D01*
X138963543Y-86436913D01*
X138904284Y-86215757D01*
X138807523Y-86008251D01*
X138676198Y-85820700D01*
X138514300Y-85658802D01*
X138326749Y-85527477D01*
X138321441Y-85525002D01*
X138283655Y-85507382D01*
X138231215Y-85461210D01*
X138212063Y-85394017D01*
X138232278Y-85327136D01*
X138283655Y-85282618D01*
X138290569Y-85279394D01*
X138326749Y-85262523D01*
X138514300Y-85131198D01*
X138676198Y-84969300D01*
X138807523Y-84781749D01*
X138904284Y-84574243D01*
X138963543Y-84353087D01*
X138983498Y-84125000D01*
X138979021Y-84073833D01*
X138969944Y-83970075D01*
X138963543Y-83896913D01*
X138904284Y-83675757D01*
X138895781Y-83657523D01*
X138834544Y-83526198D01*
X138807523Y-83468251D01*
X138676198Y-83280700D01*
X138514300Y-83118802D01*
X138326749Y-82987477D01*
X138287646Y-82969243D01*
X138119249Y-82890718D01*
X138119238Y-82890714D01*
X137898089Y-82831457D01*
X137898081Y-82831456D01*
X137670002Y-82811502D01*
X137669998Y-82811502D01*
X137441918Y-82831456D01*
X137441910Y-82831457D01*
X137220761Y-82890714D01*
X137220750Y-82890718D01*
X137013254Y-82987475D01*
X137013252Y-82987476D01*
X136978127Y-83012071D01*
X136825700Y-83118802D01*
X136825698Y-83118803D01*
X136825695Y-83118806D01*
X136663806Y-83280695D01*
X136663803Y-83280698D01*
X136663802Y-83280700D01*
X136605262Y-83364304D01*
X136532476Y-83468252D01*
X136532475Y-83468254D01*
X136435718Y-83675750D01*
X136435714Y-83675761D01*
X136376457Y-83896910D01*
X136376456Y-83896918D01*
X136356502Y-84124998D01*
X136356502Y-84125001D01*
X136376456Y-84353081D01*
X136376457Y-84353089D01*
X136435714Y-84574238D01*
X136435718Y-84574249D01*
X136526440Y-84768802D01*
X136532477Y-84781749D01*
X136663802Y-84969300D01*
X136825700Y-85131198D01*
X136998918Y-85252487D01*
X137013251Y-85262523D01*
X137056345Y-85282618D01*
X137108784Y-85328791D01*
X137127936Y-85395984D01*
X137107720Y-85462865D01*
X137056345Y-85507382D01*
X137013251Y-85527476D01*
X136922398Y-85591093D01*
X136825700Y-85658802D01*
X136825698Y-85658803D01*
X136825695Y-85658806D01*
X136663806Y-85820695D01*
X136532476Y-86008252D01*
X136532475Y-86008254D01*
X136435718Y-86215750D01*
X136435714Y-86215761D01*
X136376457Y-86436910D01*
X136376456Y-86436918D01*
X136356502Y-86664998D01*
X136356502Y-86665001D01*
X136376456Y-86893081D01*
X136376457Y-86893089D01*
X136435714Y-87114238D01*
X136435718Y-87114249D01*
X136528519Y-87313261D01*
X136532477Y-87321749D01*
X136663802Y-87509300D01*
X136825700Y-87671198D01*
X137013251Y-87802523D01*
X137056345Y-87822618D01*
X137108784Y-87868791D01*
X137127936Y-87935984D01*
X137107720Y-88002865D01*
X137056345Y-88047382D01*
X137013251Y-88067476D01*
X136909605Y-88140051D01*
X136825700Y-88198802D01*
X136825698Y-88198803D01*
X136825695Y-88198806D01*
X136663806Y-88360695D01*
X136663803Y-88360698D01*
X136663802Y-88360700D01*
X136626761Y-88413600D01*
X136532476Y-88548252D01*
X136532475Y-88548254D01*
X136435718Y-88755750D01*
X136435714Y-88755761D01*
X136376457Y-88976910D01*
X136376456Y-88976918D01*
X136356502Y-89204998D01*
X136356502Y-89205001D01*
X136376456Y-89433081D01*
X136376457Y-89433089D01*
X136435714Y-89654238D01*
X136435718Y-89654249D01*
X136529414Y-89855181D01*
X136532477Y-89861749D01*
X136663802Y-90049300D01*
X136825700Y-90211198D01*
X137013251Y-90342523D01*
X137056345Y-90362618D01*
X137108784Y-90408791D01*
X137127936Y-90475984D01*
X137107720Y-90542865D01*
X137056345Y-90587382D01*
X137013251Y-90607476D01*
X136922291Y-90671168D01*
X136825700Y-90738802D01*
X136825698Y-90738803D01*
X136825695Y-90738806D01*
X136663806Y-90900695D01*
X136663803Y-90900698D01*
X136663802Y-90900700D01*
X136612302Y-90974249D01*
X136532476Y-91088252D01*
X136532475Y-91088254D01*
X136435718Y-91295750D01*
X136435714Y-91295761D01*
X136376457Y-91516910D01*
X136376456Y-91516918D01*
X136356502Y-91744998D01*
X136356502Y-91745001D01*
X130450000Y-91745001D01*
X130450000Y-91692339D01*
X130422741Y-91590606D01*
X130370080Y-91499394D01*
X130365686Y-91495000D01*
X131328872Y-91495000D01*
X131328872Y-91494999D01*
X131276269Y-91298682D01*
X131276265Y-91298673D01*
X131180134Y-91092517D01*
X131049657Y-90906179D01*
X130888820Y-90745342D01*
X130702481Y-90614865D01*
X130702479Y-90614864D01*
X130653599Y-90592071D01*
X130601159Y-90545899D01*
X130582007Y-90478706D01*
X130602223Y-90411824D01*
X130653599Y-90367307D01*
X130706749Y-90342523D01*
X130894300Y-90211198D01*
X131056198Y-90049300D01*
X131187523Y-89861749D01*
X131284284Y-89654243D01*
X131343543Y-89433087D01*
X131363498Y-89205000D01*
X131343543Y-88976913D01*
X131284284Y-88755757D01*
X131187523Y-88548251D01*
X131056198Y-88360700D01*
X130894300Y-88198802D01*
X130706749Y-88067477D01*
X130663655Y-88047382D01*
X130611215Y-88001210D01*
X130592063Y-87934017D01*
X130612278Y-87867136D01*
X130663655Y-87822618D01*
X130666882Y-87821112D01*
X130706749Y-87802523D01*
X130894300Y-87671198D01*
X131056198Y-87509300D01*
X131187523Y-87321749D01*
X131284284Y-87114243D01*
X131343543Y-86893087D01*
X131363498Y-86665000D01*
X131343543Y-86436913D01*
X131284284Y-86215757D01*
X131187523Y-86008251D01*
X131056198Y-85820700D01*
X130894300Y-85658802D01*
X130886628Y-85653430D01*
X130843006Y-85598853D01*
X130835814Y-85529355D01*
X130867338Y-85467001D01*
X130927568Y-85431588D01*
X130944489Y-85428570D01*
X130959201Y-85426989D01*
X131096204Y-85375889D01*
X131213261Y-85288261D01*
X131300889Y-85171204D01*
X131351989Y-85034201D01*
X131355591Y-85000692D01*
X131358499Y-84973654D01*
X131358500Y-84973637D01*
X131358500Y-83276362D01*
X131358499Y-83276345D01*
X131355157Y-83245270D01*
X131351989Y-83215799D01*
X131348474Y-83206376D01*
X131328752Y-83153499D01*
X131300889Y-83078796D01*
X131213261Y-82961739D01*
X131096204Y-82874111D01*
X130959203Y-82823011D01*
X130898654Y-82816500D01*
X130898638Y-82816500D01*
X129257500Y-82816500D01*
X129190461Y-82796815D01*
X129144706Y-82744011D01*
X129133500Y-82692500D01*
X129133500Y-72962605D01*
X129133499Y-72962601D01*
X129131838Y-72954249D01*
X129109155Y-72840215D01*
X129106047Y-72832712D01*
X129080071Y-72769999D01*
X129061404Y-72724931D01*
X129061402Y-72724927D01*
X129061401Y-72724925D01*
X129053114Y-72712523D01*
X128992072Y-72621166D01*
X128992069Y-72621163D01*
X128064314Y-71693409D01*
X128030829Y-71632086D01*
X128035813Y-71562395D01*
X128077685Y-71506461D01*
X128083091Y-71502634D01*
X128128833Y-71472071D01*
X128796124Y-70804778D01*
X128857441Y-70771298D01*
X128884978Y-70773267D01*
X128884978Y-70770000D01*
X129909314Y-70770000D01*
X129904920Y-70774394D01*
X129852259Y-70865606D01*
X129825000Y-70967339D01*
X129825000Y-71072661D01*
X129852259Y-71174394D01*
X129904920Y-71265606D01*
X129909314Y-71270000D01*
X128946128Y-71270000D01*
X128998730Y-71466317D01*
X128998734Y-71466326D01*
X129094865Y-71672482D01*
X129225342Y-71858820D01*
X129386179Y-72019657D01*
X129572517Y-72150134D01*
X129778673Y-72246265D01*
X129778682Y-72246269D01*
X129974999Y-72298872D01*
X129975000Y-72298871D01*
X129975000Y-71335686D01*
X129979394Y-71340080D01*
X130070606Y-71392741D01*
X130172339Y-71420000D01*
X130277661Y-71420000D01*
X130379394Y-71392741D01*
X130470606Y-71340080D01*
X130475000Y-71335686D01*
X130475000Y-72298872D01*
X130671317Y-72246269D01*
X130671326Y-72246265D01*
X130877482Y-72150134D01*
X131063820Y-72019657D01*
X131224657Y-71858820D01*
X131355134Y-71672482D01*
X131451265Y-71466326D01*
X131451269Y-71466317D01*
X131503872Y-71270000D01*
X130540686Y-71270000D01*
X130545080Y-71265606D01*
X130597741Y-71174394D01*
X130625000Y-71072661D01*
X130625000Y-70967339D01*
X130597741Y-70865606D01*
X130545080Y-70774394D01*
X130540686Y-70770000D01*
X131503872Y-70770000D01*
X131503872Y-70769999D01*
X131451269Y-70573682D01*
X131451265Y-70573673D01*
X131355134Y-70367517D01*
X131224657Y-70181179D01*
X131063820Y-70020342D01*
X130877481Y-69889865D01*
X130877479Y-69889864D01*
X130828599Y-69867071D01*
X130776159Y-69820899D01*
X130757007Y-69753706D01*
X130777223Y-69686824D01*
X130828599Y-69642307D01*
X130881749Y-69617523D01*
X131069300Y-69486198D01*
X131231198Y-69324300D01*
X131362523Y-69136749D01*
X131459284Y-68929243D01*
X131518543Y-68708087D01*
X131538498Y-68480000D01*
X131536494Y-68457095D01*
X131550260Y-68388596D01*
X131598875Y-68338413D01*
X131666904Y-68322479D01*
X131732747Y-68345854D01*
X131747703Y-68358607D01*
X132555181Y-69166085D01*
X132588666Y-69227408D01*
X132591500Y-69253766D01*
X132591500Y-75636233D01*
X132571815Y-75703272D01*
X132555181Y-75723914D01*
X131612430Y-76666664D01*
X131551107Y-76700149D01*
X131492656Y-76698758D01*
X131428092Y-76681458D01*
X131428088Y-76681457D01*
X131428087Y-76681457D01*
X131428086Y-76681456D01*
X131428081Y-76681456D01*
X131200002Y-76661502D01*
X131199998Y-76661502D01*
X130971918Y-76681456D01*
X130971910Y-76681457D01*
X130750761Y-76740714D01*
X130750750Y-76740718D01*
X130543254Y-76837475D01*
X130543252Y-76837476D01*
X130523421Y-76851362D01*
X130355700Y-76968802D01*
X130355698Y-76968803D01*
X130355695Y-76968806D01*
X130193806Y-77130695D01*
X130193803Y-77130698D01*
X130193802Y-77130700D01*
X130169282Y-77165718D01*
X130062476Y-77318252D01*
X130062475Y-77318254D01*
X129965718Y-77525750D01*
X129965714Y-77525761D01*
X129906457Y-77746910D01*
X129906456Y-77746918D01*
X129886502Y-77974998D01*
X129886502Y-77975001D01*
X129906456Y-78203081D01*
X129906457Y-78203089D01*
X129965714Y-78424238D01*
X129965718Y-78424249D01*
X130060769Y-78628087D01*
X130062477Y-78631749D01*
X130193802Y-78819300D01*
X130355700Y-78981198D01*
X130543251Y-79112523D01*
X130668091Y-79170736D01*
X130750750Y-79209281D01*
X130750752Y-79209281D01*
X130750757Y-79209284D01*
X130971913Y-79268543D01*
X131134832Y-79282796D01*
X131199998Y-79288498D01*
X131200000Y-79288498D01*
X131200002Y-79288498D01*
X131257021Y-79283509D01*
X131428087Y-79268543D01*
X131649243Y-79209284D01*
X131856749Y-79112523D01*
X132044300Y-78981198D01*
X132206198Y-78819300D01*
X132337523Y-78631749D01*
X132434284Y-78424243D01*
X132493543Y-78203087D01*
X132513498Y-77975001D01*
X134886502Y-77975001D01*
X134906456Y-78203081D01*
X134906457Y-78203089D01*
X134965714Y-78424238D01*
X134965718Y-78424249D01*
X135060769Y-78628087D01*
X135062477Y-78631749D01*
X135193802Y-78819300D01*
X135355700Y-78981198D01*
X135543251Y-79112523D01*
X135668091Y-79170736D01*
X135750750Y-79209281D01*
X135750752Y-79209281D01*
X135750757Y-79209284D01*
X135971913Y-79268543D01*
X136134832Y-79282796D01*
X136199998Y-79288498D01*
X136200000Y-79288498D01*
X136200002Y-79288498D01*
X136257021Y-79283509D01*
X136428087Y-79268543D01*
X136649243Y-79209284D01*
X136856749Y-79112523D01*
X137044300Y-78981198D01*
X137206198Y-78819300D01*
X137316779Y-78661374D01*
X137371354Y-78617751D01*
X137418352Y-78608500D01*
X137992395Y-78608500D01*
X137992396Y-78608499D01*
X138114785Y-78584155D01*
X138230075Y-78536400D01*
X138333833Y-78467071D01*
X142987569Y-73813333D01*
X143048890Y-73779850D01*
X143107341Y-73781241D01*
X143125979Y-73786234D01*
X143171913Y-73798543D01*
X143334832Y-73812796D01*
X143399998Y-73818498D01*
X143400000Y-73818498D01*
X143400002Y-73818498D01*
X143459013Y-73813335D01*
X143628087Y-73798543D01*
X143849243Y-73739284D01*
X144056749Y-73642523D01*
X144244300Y-73511198D01*
X144406198Y-73349300D01*
X144537523Y-73161749D01*
X144634284Y-72954243D01*
X144693543Y-72733087D01*
X144709124Y-72555001D01*
X145861502Y-72555001D01*
X145881456Y-72783081D01*
X145881457Y-72783089D01*
X145940714Y-73004238D01*
X145940718Y-73004249D01*
X146037475Y-73211745D01*
X146037477Y-73211749D01*
X146168802Y-73399300D01*
X146330700Y-73561198D01*
X146518251Y-73692523D01*
X146618525Y-73739281D01*
X146725750Y-73789281D01*
X146725752Y-73789281D01*
X146725757Y-73789284D01*
X146946913Y-73848543D01*
X147109832Y-73862796D01*
X147174998Y-73868498D01*
X147175000Y-73868498D01*
X147175002Y-73868498D01*
X147232021Y-73863509D01*
X147403087Y-73848543D01*
X147624243Y-73789284D01*
X147831749Y-73692523D01*
X148019300Y-73561198D01*
X148181198Y-73399300D01*
X148291779Y-73241374D01*
X148346354Y-73197751D01*
X148393352Y-73188500D01*
X149527283Y-73188500D01*
X149527284Y-73188499D01*
X149649673Y-73164155D01*
X149764963Y-73116400D01*
X149868721Y-73047071D01*
X150920973Y-71994819D01*
X150982296Y-71961334D01*
X151008654Y-71958500D01*
X152218526Y-71958500D01*
X152218542Y-71958499D01*
X152245580Y-71955591D01*
X152279089Y-71951989D01*
X152416092Y-71900889D01*
X152533149Y-71813261D01*
X152620777Y-71696204D01*
X152665984Y-71575001D01*
X152674188Y-71553007D01*
X152716059Y-71497073D01*
X152781524Y-71472657D01*
X152849797Y-71487509D01*
X152878050Y-71508660D01*
X153025588Y-71656198D01*
X153213139Y-71787523D01*
X153318538Y-71836671D01*
X153394904Y-71872281D01*
X153447344Y-71918453D01*
X153466500Y-71984663D01*
X153466500Y-85200082D01*
X153446815Y-85267121D01*
X153394011Y-85312876D01*
X153324853Y-85322820D01*
X153261297Y-85293795D01*
X153230118Y-85252487D01*
X153167523Y-85118251D01*
X153139810Y-85078673D01*
X153036198Y-84930700D01*
X152874300Y-84768802D01*
X152855603Y-84755710D01*
X152716376Y-84658221D01*
X152672751Y-84603644D01*
X152663500Y-84556647D01*
X152663500Y-81192605D01*
X152663499Y-81192601D01*
X152639157Y-81070222D01*
X152639154Y-81070213D01*
X152625168Y-81036447D01*
X152617844Y-81018765D01*
X152591401Y-80954925D01*
X152591399Y-80954923D01*
X152591399Y-80954921D01*
X152522072Y-80851167D01*
X152522069Y-80851163D01*
X150483335Y-78812431D01*
X150449850Y-78751108D01*
X150451240Y-78692658D01*
X150468543Y-78628087D01*
X150485647Y-78432583D01*
X150488498Y-78400001D01*
X150488498Y-78399998D01*
X150474587Y-78240994D01*
X150468543Y-78171913D01*
X150409284Y-77950757D01*
X150398713Y-77928088D01*
X150370736Y-77868091D01*
X150312523Y-77743251D01*
X150181198Y-77555700D01*
X150019300Y-77393802D01*
X149831749Y-77262477D01*
X149806624Y-77250761D01*
X149624249Y-77165718D01*
X149624238Y-77165714D01*
X149403089Y-77106457D01*
X149403081Y-77106456D01*
X149175002Y-77086502D01*
X149174998Y-77086502D01*
X148946918Y-77106456D01*
X148946910Y-77106457D01*
X148725761Y-77165714D01*
X148725750Y-77165718D01*
X148518254Y-77262475D01*
X148518252Y-77262476D01*
X148447856Y-77311767D01*
X148330700Y-77393802D01*
X148330698Y-77393803D01*
X148330695Y-77393806D01*
X148168806Y-77555695D01*
X148168803Y-77555698D01*
X148168802Y-77555700D01*
X148111652Y-77637319D01*
X148037476Y-77743252D01*
X148037475Y-77743254D01*
X147940718Y-77950750D01*
X147940714Y-77950761D01*
X147881457Y-78171910D01*
X147881456Y-78171918D01*
X147861502Y-78399998D01*
X147861502Y-78400001D01*
X147881456Y-78628081D01*
X147881457Y-78628089D01*
X147940714Y-78849238D01*
X147940718Y-78849249D01*
X148015743Y-79010141D01*
X148037477Y-79056749D01*
X148168802Y-79244300D01*
X148330700Y-79406198D01*
X148518251Y-79537523D01*
X148643091Y-79595736D01*
X148725750Y-79634281D01*
X148725752Y-79634281D01*
X148725757Y-79634284D01*
X148946913Y-79693543D01*
X149109832Y-79707796D01*
X149174998Y-79713498D01*
X149175000Y-79713498D01*
X149175002Y-79713498D01*
X149234013Y-79708335D01*
X149403087Y-79693543D01*
X149467657Y-79676241D01*
X149537506Y-79677904D01*
X149587431Y-79708335D01*
X151360181Y-81481085D01*
X151393666Y-81542408D01*
X151396500Y-81568766D01*
X151396500Y-84556647D01*
X151376815Y-84623686D01*
X151343624Y-84658221D01*
X151185699Y-84768802D01*
X151023806Y-84930695D01*
X151023803Y-84930698D01*
X151023802Y-84930700D01*
X150972127Y-85004500D01*
X150892476Y-85118252D01*
X150892475Y-85118254D01*
X150795718Y-85325750D01*
X150795714Y-85325761D01*
X150736457Y-85546910D01*
X150736456Y-85546918D01*
X150716502Y-85774998D01*
X150716502Y-85775001D01*
X150736456Y-86003081D01*
X150736457Y-86003089D01*
X150795714Y-86224238D01*
X150795718Y-86224249D01*
X150822938Y-86282622D01*
X150892477Y-86431749D01*
X151023802Y-86619300D01*
X151185700Y-86781198D01*
X151373251Y-86912523D01*
X151385175Y-86918083D01*
X151580750Y-87009281D01*
X151580752Y-87009281D01*
X151580757Y-87009284D01*
X151801913Y-87068543D01*
X151964832Y-87082796D01*
X152029998Y-87088498D01*
X152030000Y-87088498D01*
X152030002Y-87088498D01*
X152089013Y-87083335D01*
X152258087Y-87068543D01*
X152479243Y-87009284D01*
X152686749Y-86912523D01*
X152874300Y-86781198D01*
X153036198Y-86619300D01*
X153167523Y-86431749D01*
X153230118Y-86297513D01*
X153276290Y-86245073D01*
X153343483Y-86225921D01*
X153410365Y-86246137D01*
X153455699Y-86299302D01*
X153466500Y-86349917D01*
X153466500Y-88537398D01*
X153490843Y-88659777D01*
X153490845Y-88659785D01*
X153538598Y-88775072D01*
X153538603Y-88775081D01*
X153607928Y-88878832D01*
X153607931Y-88878836D01*
X155908915Y-91179819D01*
X155942400Y-91241142D01*
X155937416Y-91310834D01*
X155895544Y-91366767D01*
X155830080Y-91391184D01*
X155821234Y-91391500D01*
X155801345Y-91391500D01*
X155740797Y-91398011D01*
X155740795Y-91398011D01*
X155603795Y-91449111D01*
X155486739Y-91536739D01*
X155399111Y-91653795D01*
X155348011Y-91790795D01*
X155348011Y-91790797D01*
X155341500Y-91851345D01*
X155341500Y-93648654D01*
X155348011Y-93709202D01*
X155348011Y-93709204D01*
X155388413Y-93817523D01*
X155399111Y-93846204D01*
X155486739Y-93963261D01*
X155603796Y-94050889D01*
X155740799Y-94101989D01*
X155768050Y-94104918D01*
X155801345Y-94108499D01*
X155801362Y-94108500D01*
X157598638Y-94108500D01*
X157598654Y-94108499D01*
X157625692Y-94105591D01*
X157659201Y-94101989D01*
X157796204Y-94050889D01*
X157913261Y-93963261D01*
X158000889Y-93846204D01*
X158051989Y-93709201D01*
X158053210Y-93697844D01*
X163125000Y-93697844D01*
X163131401Y-93757372D01*
X163131403Y-93757379D01*
X163181645Y-93892086D01*
X163181649Y-93892093D01*
X163267809Y-94007187D01*
X163267812Y-94007190D01*
X163382906Y-94093350D01*
X163382913Y-94093354D01*
X163517620Y-94143596D01*
X163517627Y-94143598D01*
X163577155Y-94149999D01*
X163577172Y-94150000D01*
X164225000Y-94150000D01*
X164225000Y-93233012D01*
X164282007Y-93265925D01*
X164409174Y-93300000D01*
X164540826Y-93300000D01*
X164667993Y-93265925D01*
X164725000Y-93233012D01*
X164725000Y-94150000D01*
X165372828Y-94150000D01*
X165372844Y-94149999D01*
X165432372Y-94143598D01*
X165432379Y-94143596D01*
X165567086Y-94093354D01*
X165567093Y-94093350D01*
X165682187Y-94007190D01*
X165682190Y-94007187D01*
X165768350Y-93892093D01*
X165768354Y-93892086D01*
X165818596Y-93757379D01*
X165818598Y-93757372D01*
X165824999Y-93697844D01*
X165825000Y-93697827D01*
X165825000Y-93050000D01*
X164908012Y-93050000D01*
X164940925Y-92992993D01*
X164975000Y-92865826D01*
X164975000Y-92734174D01*
X164940925Y-92607007D01*
X164908012Y-92550000D01*
X165825000Y-92550000D01*
X165825000Y-91902172D01*
X165824999Y-91902155D01*
X165818598Y-91842627D01*
X165818596Y-91842620D01*
X165768354Y-91707913D01*
X165768350Y-91707906D01*
X165682190Y-91592812D01*
X165682187Y-91592809D01*
X165567093Y-91506649D01*
X165567086Y-91506645D01*
X165432379Y-91456403D01*
X165432372Y-91456401D01*
X165372844Y-91450000D01*
X164725000Y-91450000D01*
X164725000Y-92366988D01*
X164667993Y-92334075D01*
X164540826Y-92300000D01*
X164409174Y-92300000D01*
X164282007Y-92334075D01*
X164225000Y-92366988D01*
X164225000Y-91450000D01*
X163577155Y-91450000D01*
X163517627Y-91456401D01*
X163517620Y-91456403D01*
X163382913Y-91506645D01*
X163382906Y-91506649D01*
X163267812Y-91592809D01*
X163267809Y-91592812D01*
X163181649Y-91707906D01*
X163181645Y-91707913D01*
X163131403Y-91842620D01*
X163131401Y-91842627D01*
X163125000Y-91902155D01*
X163125000Y-92550000D01*
X164041988Y-92550000D01*
X164009075Y-92607007D01*
X163975000Y-92734174D01*
X163975000Y-92865826D01*
X164009075Y-92992993D01*
X164041988Y-93050000D01*
X163125000Y-93050000D01*
X163125000Y-93697844D01*
X158053210Y-93697844D01*
X158055591Y-93675692D01*
X158058499Y-93648654D01*
X158058500Y-93648637D01*
X158058500Y-91851362D01*
X158058499Y-91851345D01*
X158054972Y-91818543D01*
X158051989Y-91790799D01*
X158040234Y-91759284D01*
X158008352Y-91673806D01*
X158000889Y-91653796D01*
X157913261Y-91536739D01*
X157796204Y-91449111D01*
X157787102Y-91445716D01*
X157659203Y-91398011D01*
X157598654Y-91391500D01*
X157598638Y-91391500D01*
X157457500Y-91391500D01*
X157390461Y-91371815D01*
X157344706Y-91319011D01*
X157333500Y-91267500D01*
X157333500Y-91012605D01*
X157333499Y-91012601D01*
X157325868Y-90974238D01*
X157309155Y-90890215D01*
X157261400Y-90774925D01*
X157261399Y-90774924D01*
X157261396Y-90774918D01*
X157192072Y-90671168D01*
X157149816Y-90628912D01*
X157103833Y-90582929D01*
X154769819Y-88248915D01*
X154736334Y-88187592D01*
X154733500Y-88161234D01*
X154733500Y-80200001D01*
X155181502Y-80200001D01*
X155201456Y-80428081D01*
X155201457Y-80428089D01*
X155260714Y-80649238D01*
X155260718Y-80649249D01*
X155354872Y-80851163D01*
X155357477Y-80856749D01*
X155488802Y-81044300D01*
X155650700Y-81206198D01*
X155808625Y-81316779D01*
X155852249Y-81371354D01*
X155861500Y-81418352D01*
X155861500Y-83732398D01*
X155885843Y-83854777D01*
X155885845Y-83854785D01*
X155933598Y-83970072D01*
X155933603Y-83970081D01*
X156002928Y-84073832D01*
X156002931Y-84073836D01*
X158471163Y-86542068D01*
X158471167Y-86542071D01*
X158574918Y-86611396D01*
X158574924Y-86611399D01*
X158574925Y-86611400D01*
X158690215Y-86659155D01*
X158812601Y-86683499D01*
X158812605Y-86683500D01*
X158812606Y-86683500D01*
X158937393Y-86683500D01*
X159217500Y-86683500D01*
X159284539Y-86703185D01*
X159330294Y-86755989D01*
X159341500Y-86807500D01*
X159341500Y-86998654D01*
X159348011Y-87059202D01*
X159348011Y-87059204D01*
X159374603Y-87130497D01*
X159399111Y-87196204D01*
X159486739Y-87313261D01*
X159603796Y-87400889D01*
X159740799Y-87451989D01*
X159768050Y-87454918D01*
X159801345Y-87458499D01*
X159801362Y-87458500D01*
X161698638Y-87458500D01*
X161698654Y-87458499D01*
X161725692Y-87455591D01*
X161759201Y-87451989D01*
X161896204Y-87400889D01*
X162013261Y-87313261D01*
X162100889Y-87196204D01*
X162125397Y-87130495D01*
X162167268Y-87074563D01*
X162232733Y-87050147D01*
X162301005Y-87064999D01*
X162328724Y-87086656D01*
X162329010Y-87086347D01*
X162332774Y-87089811D01*
X162332780Y-87089818D01*
X162516983Y-87233190D01*
X162516985Y-87233191D01*
X162516988Y-87233193D01*
X162636331Y-87297777D01*
X162722273Y-87344287D01*
X162836914Y-87383643D01*
X162943045Y-87420079D01*
X162943047Y-87420079D01*
X162943049Y-87420080D01*
X163173288Y-87458500D01*
X163173289Y-87458500D01*
X163406711Y-87458500D01*
X163406712Y-87458500D01*
X163636951Y-87420080D01*
X163857727Y-87344287D01*
X164063017Y-87233190D01*
X164247220Y-87089818D01*
X164405314Y-86918083D01*
X164532984Y-86722669D01*
X164626749Y-86508907D01*
X164684051Y-86282626D01*
X164703327Y-86050000D01*
X164699439Y-86003081D01*
X164686347Y-85845080D01*
X164684051Y-85817374D01*
X164626749Y-85591093D01*
X164532984Y-85377331D01*
X164468999Y-85279394D01*
X164405313Y-85181915D01*
X164247223Y-85010185D01*
X164247222Y-85010184D01*
X164247220Y-85010182D01*
X164063017Y-84866810D01*
X164063015Y-84866809D01*
X164063014Y-84866808D01*
X164063011Y-84866806D01*
X163857733Y-84755716D01*
X163857730Y-84755715D01*
X163857727Y-84755713D01*
X163857721Y-84755711D01*
X163857719Y-84755710D01*
X163636954Y-84679920D01*
X163445730Y-84648011D01*
X163406712Y-84641500D01*
X163173288Y-84641500D01*
X163134270Y-84648011D01*
X162943045Y-84679920D01*
X162722280Y-84755710D01*
X162722266Y-84755716D01*
X162516988Y-84866806D01*
X162516985Y-84866808D01*
X162332781Y-85010181D01*
X162329010Y-85013653D01*
X162328290Y-85012871D01*
X162272899Y-85046147D01*
X162203061Y-85044034D01*
X162145452Y-85004500D01*
X162125397Y-84969503D01*
X162110922Y-84930695D01*
X162100889Y-84903796D01*
X162013261Y-84786739D01*
X161896204Y-84699111D01*
X161759203Y-84648011D01*
X161698654Y-84641500D01*
X161698638Y-84641500D01*
X159801362Y-84641500D01*
X159801345Y-84641500D01*
X159740797Y-84648011D01*
X159740795Y-84648011D01*
X159603795Y-84699111D01*
X159486739Y-84786739D01*
X159399111Y-84903795D01*
X159348011Y-85040795D01*
X159348011Y-85040797D01*
X159341500Y-85101345D01*
X159341500Y-85292500D01*
X159321815Y-85359539D01*
X159269011Y-85405294D01*
X159217500Y-85416500D01*
X159188766Y-85416500D01*
X159121727Y-85396815D01*
X159101085Y-85380181D01*
X157164819Y-83443915D01*
X157131334Y-83382592D01*
X157128500Y-83356234D01*
X157128500Y-81418352D01*
X157148185Y-81351313D01*
X157181373Y-81316779D01*
X157339300Y-81206198D01*
X157501198Y-81044300D01*
X157632523Y-80856749D01*
X157729284Y-80649243D01*
X157788543Y-80428087D01*
X157808498Y-80200000D01*
X157788543Y-79971913D01*
X157782671Y-79949999D01*
X165376127Y-79949999D01*
X165376128Y-79950000D01*
X166339314Y-79950000D01*
X166334920Y-79954394D01*
X166282259Y-80045606D01*
X166255000Y-80147339D01*
X166255000Y-80252661D01*
X166282259Y-80354394D01*
X166334920Y-80445606D01*
X166339314Y-80450000D01*
X165376128Y-80450000D01*
X165428730Y-80646317D01*
X165428734Y-80646326D01*
X165524865Y-80852482D01*
X165655342Y-81038820D01*
X165816179Y-81199657D01*
X166002517Y-81330134D01*
X166208673Y-81426265D01*
X166208682Y-81426269D01*
X166404999Y-81478872D01*
X166405000Y-81478871D01*
X166405000Y-80515686D01*
X166409394Y-80520080D01*
X166500606Y-80572741D01*
X166602339Y-80600000D01*
X166707661Y-80600000D01*
X166809394Y-80572741D01*
X166900606Y-80520080D01*
X166905000Y-80515686D01*
X166905000Y-81478872D01*
X167101317Y-81426269D01*
X167101326Y-81426265D01*
X167307482Y-81330134D01*
X167493820Y-81199657D01*
X167654657Y-81038820D01*
X167785134Y-80852482D01*
X167881265Y-80646326D01*
X167881269Y-80646317D01*
X167933872Y-80450000D01*
X166970686Y-80450000D01*
X166975080Y-80445606D01*
X167027741Y-80354394D01*
X167055000Y-80252661D01*
X167055000Y-80147339D01*
X167027741Y-80045606D01*
X166975080Y-79954394D01*
X166970686Y-79950000D01*
X167933872Y-79950000D01*
X167933872Y-79949999D01*
X167881269Y-79753682D01*
X167881265Y-79753673D01*
X167785134Y-79547517D01*
X167654657Y-79361179D01*
X167493820Y-79200342D01*
X167307482Y-79069865D01*
X167101328Y-78973734D01*
X166905000Y-78921127D01*
X166905000Y-79884314D01*
X166900606Y-79879920D01*
X166809394Y-79827259D01*
X166707661Y-79800000D01*
X166602339Y-79800000D01*
X166500606Y-79827259D01*
X166409394Y-79879920D01*
X166405000Y-79884314D01*
X166405000Y-78921127D01*
X166208671Y-78973734D01*
X166002517Y-79069865D01*
X165816179Y-79200342D01*
X165655342Y-79361179D01*
X165524865Y-79547517D01*
X165428734Y-79753673D01*
X165428730Y-79753682D01*
X165376127Y-79949999D01*
X157782671Y-79949999D01*
X157729284Y-79750757D01*
X157709502Y-79708335D01*
X157685897Y-79657712D01*
X157632523Y-79543251D01*
X157501198Y-79355700D01*
X157339300Y-79193802D01*
X157151749Y-79062477D01*
X157151745Y-79062475D01*
X156944249Y-78965718D01*
X156944238Y-78965714D01*
X156723089Y-78906457D01*
X156723081Y-78906456D01*
X156495002Y-78886502D01*
X156494998Y-78886502D01*
X156266918Y-78906456D01*
X156266910Y-78906457D01*
X156045761Y-78965714D01*
X156045750Y-78965718D01*
X155838254Y-79062475D01*
X155838252Y-79062476D01*
X155838251Y-79062477D01*
X155650700Y-79193802D01*
X155650698Y-79193803D01*
X155650695Y-79193806D01*
X155488806Y-79355695D01*
X155488803Y-79355698D01*
X155488802Y-79355700D01*
X155453443Y-79406198D01*
X155357476Y-79543252D01*
X155357475Y-79543254D01*
X155260718Y-79750750D01*
X155260714Y-79750761D01*
X155201457Y-79971910D01*
X155201456Y-79971918D01*
X155181502Y-80199998D01*
X155181502Y-80200001D01*
X154733500Y-80200001D01*
X154733500Y-72092500D01*
X154753185Y-72025461D01*
X154805989Y-71979706D01*
X154857500Y-71968500D01*
X156749044Y-71968500D01*
X156816083Y-71988185D01*
X156852852Y-72024678D01*
X156934817Y-72150134D01*
X156949278Y-72172268D01*
X157100707Y-72336762D01*
X157131629Y-72399415D01*
X157123769Y-72468841D01*
X157079622Y-72522997D01*
X157052811Y-72536926D01*
X156932912Y-72581646D01*
X156932906Y-72581649D01*
X156817812Y-72667809D01*
X156817809Y-72667812D01*
X156731649Y-72782906D01*
X156731645Y-72782913D01*
X156681403Y-72917620D01*
X156681401Y-72917627D01*
X156675000Y-72977155D01*
X156675000Y-73625000D01*
X157591988Y-73625000D01*
X157559075Y-73682007D01*
X157525000Y-73809174D01*
X157525000Y-73940826D01*
X157559075Y-74067993D01*
X157591988Y-74125000D01*
X156675000Y-74125000D01*
X156675000Y-74772844D01*
X156681401Y-74832372D01*
X156681403Y-74832379D01*
X156731645Y-74967086D01*
X156731649Y-74967093D01*
X156817809Y-75082187D01*
X156817812Y-75082190D01*
X156932906Y-75168350D01*
X156932913Y-75168354D01*
X157067620Y-75218596D01*
X157067627Y-75218598D01*
X157127155Y-75224999D01*
X157127172Y-75225000D01*
X157775000Y-75225000D01*
X157775000Y-74308012D01*
X157832007Y-74340925D01*
X157959174Y-74375000D01*
X158090826Y-74375000D01*
X158217993Y-74340925D01*
X158275000Y-74308012D01*
X158275000Y-75225000D01*
X158922828Y-75225000D01*
X158922844Y-75224999D01*
X158982372Y-75218598D01*
X158982379Y-75218596D01*
X159117086Y-75168354D01*
X159117093Y-75168350D01*
X159232187Y-75082190D01*
X159232190Y-75082187D01*
X159318350Y-74967093D01*
X159318354Y-74967086D01*
X159368596Y-74832379D01*
X159368598Y-74832372D01*
X159374999Y-74772844D01*
X159375000Y-74772827D01*
X159375000Y-74125000D01*
X158458012Y-74125000D01*
X158490925Y-74067993D01*
X158525000Y-73940826D01*
X158525000Y-73809174D01*
X158490925Y-73682007D01*
X158458012Y-73625000D01*
X159375000Y-73625000D01*
X159375000Y-72977172D01*
X159374999Y-72977155D01*
X159368598Y-72917627D01*
X159368596Y-72917620D01*
X159318354Y-72782913D01*
X159318350Y-72782906D01*
X159232190Y-72667812D01*
X159232187Y-72667809D01*
X159117093Y-72581649D01*
X159117088Y-72581646D01*
X158997188Y-72536926D01*
X158941255Y-72495054D01*
X158916838Y-72429590D01*
X158931690Y-72361317D01*
X158949286Y-72336769D01*
X159100722Y-72172268D01*
X159223860Y-71983791D01*
X159314296Y-71777616D01*
X159369564Y-71559368D01*
X159374266Y-71502625D01*
X159388156Y-71335005D01*
X159388156Y-71334994D01*
X159369565Y-71110640D01*
X159369563Y-71110628D01*
X159346613Y-71020000D01*
X159314296Y-70892384D01*
X159223860Y-70686209D01*
X159220989Y-70681815D01*
X159159898Y-70588308D01*
X159100722Y-70497732D01*
X159100719Y-70497729D01*
X159100715Y-70497723D01*
X158948243Y-70332097D01*
X158948238Y-70332092D01*
X158770577Y-70193812D01*
X158770578Y-70193812D01*
X158770576Y-70193811D01*
X158734070Y-70174055D01*
X158684479Y-70124836D01*
X158669371Y-70056619D01*
X158693541Y-69991064D01*
X158734070Y-69955945D01*
X158734084Y-69955936D01*
X158770576Y-69936189D01*
X158948240Y-69797906D01*
X159069207Y-69666502D01*
X159100715Y-69632276D01*
X159100716Y-69632274D01*
X159100722Y-69632268D01*
X159223860Y-69443791D01*
X159314296Y-69237616D01*
X159369564Y-69019368D01*
X159369565Y-69019359D01*
X159388156Y-68795005D01*
X159388156Y-68794994D01*
X159369565Y-68570640D01*
X159369563Y-68570628D01*
X159346613Y-68480000D01*
X159314296Y-68352384D01*
X159223860Y-68146209D01*
X159100722Y-67957732D01*
X159100719Y-67957729D01*
X159100715Y-67957723D01*
X158948243Y-67792097D01*
X158948238Y-67792092D01*
X158829797Y-67699905D01*
X158770576Y-67653811D01*
X158770575Y-67653810D01*
X158770572Y-67653808D01*
X158572580Y-67546661D01*
X158572577Y-67546659D01*
X158572574Y-67546658D01*
X158572571Y-67546657D01*
X158572569Y-67546656D01*
X158359637Y-67473556D01*
X158137569Y-67436500D01*
X157912431Y-67436500D01*
X157690362Y-67473556D01*
X157477430Y-67546656D01*
X157477419Y-67546661D01*
X157279427Y-67653808D01*
X157279422Y-67653812D01*
X157101761Y-67792092D01*
X157101756Y-67792097D01*
X156949284Y-67957723D01*
X156949276Y-67957734D01*
X156826140Y-68146207D01*
X156735703Y-68352385D01*
X156680436Y-68570628D01*
X156680434Y-68570640D01*
X156661844Y-68794994D01*
X156661844Y-68795005D01*
X156680434Y-69019359D01*
X156680436Y-69019371D01*
X156735703Y-69237614D01*
X156826140Y-69443792D01*
X156949276Y-69632265D01*
X156949284Y-69632276D01*
X157101756Y-69797902D01*
X157101761Y-69797907D01*
X157127403Y-69817865D01*
X157279424Y-69936189D01*
X157279429Y-69936191D01*
X157279431Y-69936193D01*
X157315930Y-69955946D01*
X157365520Y-70005165D01*
X157380628Y-70073382D01*
X157356457Y-70138937D01*
X157315930Y-70174054D01*
X157279431Y-70193806D01*
X157279422Y-70193812D01*
X157101761Y-70332092D01*
X157101756Y-70332097D01*
X156949284Y-70497723D01*
X156949276Y-70497734D01*
X156852852Y-70645322D01*
X156799706Y-70690679D01*
X156749044Y-70701500D01*
X155301517Y-70701500D01*
X155234478Y-70681815D01*
X155188723Y-70629011D01*
X155177989Y-70588308D01*
X155170064Y-70497732D01*
X155163431Y-70421913D01*
X155104172Y-70200757D01*
X155092485Y-70175695D01*
X155036960Y-70056619D01*
X155007411Y-69993251D01*
X154876086Y-69805700D01*
X154714188Y-69643802D01*
X154526637Y-69512477D01*
X154526633Y-69512475D01*
X154319137Y-69415718D01*
X154319126Y-69415714D01*
X154097977Y-69356457D01*
X154097969Y-69356456D01*
X153869890Y-69336502D01*
X153869886Y-69336502D01*
X153641806Y-69356456D01*
X153641798Y-69356457D01*
X153420649Y-69415714D01*
X153420638Y-69415718D01*
X153213142Y-69512475D01*
X153213140Y-69512476D01*
X153213139Y-69512477D01*
X153042061Y-69632268D01*
X153025587Y-69643803D01*
X152878050Y-69791340D01*
X152816727Y-69824824D01*
X152747035Y-69819840D01*
X152691102Y-69777968D01*
X152674188Y-69746993D01*
X152635699Y-69643803D01*
X152620777Y-69603796D01*
X152533149Y-69486739D01*
X152416092Y-69399111D01*
X152279091Y-69348011D01*
X152218542Y-69341500D01*
X152218526Y-69341500D01*
X150521250Y-69341500D01*
X150521233Y-69341500D01*
X150460685Y-69348011D01*
X150460683Y-69348011D01*
X150323683Y-69399111D01*
X150206627Y-69486739D01*
X150118999Y-69603795D01*
X150067899Y-69740795D01*
X150067899Y-69740797D01*
X150061388Y-69801345D01*
X150061388Y-71011234D01*
X150041703Y-71078273D01*
X150025069Y-71098915D01*
X149238803Y-71885181D01*
X149177480Y-71918666D01*
X149151122Y-71921500D01*
X148393352Y-71921500D01*
X148326313Y-71901815D01*
X148291779Y-71868626D01*
X148181198Y-71710700D01*
X148019300Y-71548802D01*
X147831749Y-71417477D01*
X147831745Y-71417475D01*
X147624249Y-71320718D01*
X147624238Y-71320714D01*
X147403089Y-71261457D01*
X147403081Y-71261456D01*
X147175002Y-71241502D01*
X147174998Y-71241502D01*
X146946918Y-71261456D01*
X146946910Y-71261457D01*
X146725761Y-71320714D01*
X146725750Y-71320718D01*
X146518254Y-71417475D01*
X146518252Y-71417476D01*
X146448500Y-71466317D01*
X146330700Y-71548802D01*
X146330698Y-71548803D01*
X146330695Y-71548806D01*
X146168806Y-71710695D01*
X146037476Y-71898252D01*
X146037475Y-71898254D01*
X145940718Y-72105750D01*
X145940714Y-72105761D01*
X145881457Y-72326910D01*
X145881456Y-72326918D01*
X145861502Y-72554998D01*
X145861502Y-72555001D01*
X144709124Y-72555001D01*
X144710705Y-72536926D01*
X144713498Y-72505001D01*
X144713498Y-72504998D01*
X144706000Y-72419300D01*
X144693543Y-72276913D01*
X144634284Y-72055757D01*
X144617450Y-72019657D01*
X144588932Y-71958499D01*
X144537523Y-71848251D01*
X144406198Y-71660700D01*
X144244300Y-71498802D01*
X144056749Y-71367477D01*
X144012660Y-71346918D01*
X143849249Y-71270718D01*
X143849238Y-71270714D01*
X143628089Y-71211457D01*
X143628081Y-71211456D01*
X143400002Y-71191502D01*
X143399998Y-71191502D01*
X143171918Y-71211456D01*
X143171910Y-71211457D01*
X142950761Y-71270714D01*
X142950750Y-71270718D01*
X142743254Y-71367475D01*
X142743252Y-71367476D01*
X142743251Y-71367477D01*
X142555700Y-71498802D01*
X142555698Y-71498803D01*
X142555695Y-71498806D01*
X142393802Y-71660699D01*
X142284094Y-71817377D01*
X142229517Y-71861002D01*
X142160019Y-71868194D01*
X142097664Y-71836671D01*
X142094839Y-71833934D01*
X139153335Y-68892431D01*
X139119850Y-68831108D01*
X139121240Y-68772658D01*
X139138543Y-68708087D01*
X139158498Y-68480000D01*
X139158497Y-68479993D01*
X139149047Y-68371976D01*
X139138543Y-68251913D01*
X139079284Y-68030757D01*
X138982523Y-67823251D01*
X138851198Y-67635700D01*
X138689300Y-67473802D01*
X138501749Y-67342477D01*
X138458655Y-67322382D01*
X138406215Y-67276210D01*
X138387063Y-67209017D01*
X138407278Y-67142136D01*
X138458655Y-67097618D01*
X138480149Y-67087595D01*
X138501749Y-67077523D01*
X138689300Y-66946198D01*
X138851198Y-66784300D01*
X138982523Y-66596749D01*
X139079284Y-66389243D01*
X139138543Y-66168087D01*
X139155747Y-65971447D01*
X139158498Y-65940001D01*
X139158498Y-65939998D01*
X139139807Y-65726362D01*
X139138543Y-65711913D01*
X139079284Y-65490757D01*
X139074594Y-65480700D01*
X138999102Y-65318806D01*
X138982523Y-65283251D01*
X138851198Y-65095700D01*
X138689300Y-64933802D01*
X138501749Y-64802477D01*
X138458655Y-64782382D01*
X138406215Y-64736210D01*
X138387063Y-64669017D01*
X138407278Y-64602136D01*
X138458655Y-64557618D01*
X138461882Y-64556112D01*
X138501749Y-64537523D01*
X138689300Y-64406198D01*
X138851198Y-64244300D01*
X138982523Y-64056749D01*
X139067273Y-63875001D01*
X153231502Y-63875001D01*
X153251456Y-64103081D01*
X153251457Y-64103089D01*
X153310714Y-64324238D01*
X153310718Y-64324249D01*
X153367587Y-64446204D01*
X153407477Y-64531749D01*
X153538802Y-64719300D01*
X153700700Y-64881198D01*
X153888251Y-65012523D01*
X153946876Y-65039860D01*
X154095750Y-65109281D01*
X154095752Y-65109281D01*
X154095757Y-65109284D01*
X154316913Y-65168543D01*
X154479832Y-65182796D01*
X154544998Y-65188498D01*
X154545000Y-65188498D01*
X154545002Y-65188498D01*
X154602021Y-65183509D01*
X154773087Y-65168543D01*
X154994243Y-65109284D01*
X155201749Y-65012523D01*
X155389300Y-64881198D01*
X155551198Y-64719300D01*
X155682523Y-64531749D01*
X155779284Y-64324243D01*
X155838543Y-64103087D01*
X155858498Y-63875001D01*
X163391502Y-63875001D01*
X163411456Y-64103081D01*
X163411457Y-64103089D01*
X163470714Y-64324238D01*
X163470718Y-64324249D01*
X163527587Y-64446204D01*
X163567477Y-64531749D01*
X163698802Y-64719300D01*
X163860700Y-64881198D01*
X164048251Y-65012523D01*
X164106876Y-65039860D01*
X164255750Y-65109281D01*
X164255752Y-65109281D01*
X164255757Y-65109284D01*
X164476913Y-65168543D01*
X164639832Y-65182796D01*
X164704998Y-65188498D01*
X164705000Y-65188498D01*
X164705002Y-65188498D01*
X164762021Y-65183509D01*
X164933087Y-65168543D01*
X165154243Y-65109284D01*
X165361749Y-65012523D01*
X165549300Y-64881198D01*
X165711198Y-64719300D01*
X165842523Y-64531749D01*
X165939284Y-64324243D01*
X165998543Y-64103087D01*
X166018498Y-63875000D01*
X165998543Y-63646913D01*
X165939284Y-63425757D01*
X165927273Y-63400000D01*
X165842524Y-63218254D01*
X165842523Y-63218252D01*
X165842523Y-63218251D01*
X165711198Y-63030700D01*
X165549300Y-62868802D01*
X165361749Y-62737477D01*
X165361745Y-62737475D01*
X165154249Y-62640718D01*
X165154238Y-62640714D01*
X164933089Y-62581457D01*
X164933081Y-62581456D01*
X164705002Y-62561502D01*
X164704998Y-62561502D01*
X164476918Y-62581456D01*
X164476910Y-62581457D01*
X164255761Y-62640714D01*
X164255750Y-62640718D01*
X164048254Y-62737475D01*
X164048252Y-62737476D01*
X163977856Y-62786767D01*
X163860700Y-62868802D01*
X163860698Y-62868803D01*
X163860695Y-62868806D01*
X163698806Y-63030695D01*
X163698803Y-63030698D01*
X163698802Y-63030700D01*
X163663318Y-63081376D01*
X163567476Y-63218252D01*
X163567475Y-63218254D01*
X163470718Y-63425750D01*
X163470714Y-63425761D01*
X163411457Y-63646910D01*
X163411456Y-63646918D01*
X163391502Y-63874998D01*
X163391502Y-63875001D01*
X155858498Y-63875001D01*
X155858498Y-63875000D01*
X155838543Y-63646913D01*
X155779284Y-63425757D01*
X155767273Y-63400000D01*
X155682524Y-63218254D01*
X155682523Y-63218252D01*
X155682523Y-63218251D01*
X155551198Y-63030700D01*
X155389300Y-62868802D01*
X155201749Y-62737477D01*
X155201745Y-62737475D01*
X154994249Y-62640718D01*
X154994238Y-62640714D01*
X154773089Y-62581457D01*
X154773081Y-62581456D01*
X154545002Y-62561502D01*
X154544998Y-62561502D01*
X154316918Y-62581456D01*
X154316910Y-62581457D01*
X154095761Y-62640714D01*
X154095750Y-62640718D01*
X153888254Y-62737475D01*
X153888252Y-62737476D01*
X153817856Y-62786767D01*
X153700700Y-62868802D01*
X153700698Y-62868803D01*
X153700695Y-62868806D01*
X153538806Y-63030695D01*
X153538803Y-63030698D01*
X153538802Y-63030700D01*
X153503318Y-63081376D01*
X153407476Y-63218252D01*
X153407475Y-63218254D01*
X153310718Y-63425750D01*
X153310714Y-63425761D01*
X153251457Y-63646910D01*
X153251456Y-63646918D01*
X153231502Y-63874998D01*
X153231502Y-63875001D01*
X139067273Y-63875001D01*
X139079284Y-63849243D01*
X139138543Y-63628087D01*
X139158498Y-63400000D01*
X139138543Y-63171913D01*
X139079284Y-62950757D01*
X138982523Y-62743251D01*
X138851198Y-62555700D01*
X138689300Y-62393802D01*
X138501749Y-62262477D01*
X138501745Y-62262475D01*
X138294249Y-62165718D01*
X138294238Y-62165714D01*
X138073089Y-62106457D01*
X138073081Y-62106456D01*
X137845002Y-62086502D01*
X137844998Y-62086502D01*
X137616918Y-62106456D01*
X137616910Y-62106457D01*
X137395761Y-62165714D01*
X137395750Y-62165718D01*
X137188254Y-62262475D01*
X137188252Y-62262476D01*
X137188251Y-62262477D01*
X137000700Y-62393802D01*
X137000698Y-62393803D01*
X137000695Y-62393806D01*
X136838806Y-62555695D01*
X136838803Y-62555698D01*
X136838802Y-62555700D01*
X136779273Y-62640716D01*
X136707476Y-62743252D01*
X136707475Y-62743254D01*
X136610718Y-62950750D01*
X136610714Y-62950761D01*
X136551457Y-63171910D01*
X136551456Y-63171918D01*
X136531502Y-63399998D01*
X136531502Y-63400001D01*
X136551456Y-63628081D01*
X136551457Y-63628089D01*
X136610714Y-63849238D01*
X136610718Y-63849249D01*
X136707475Y-64056745D01*
X136707477Y-64056749D01*
X136838802Y-64244300D01*
X137000700Y-64406198D01*
X137179999Y-64531745D01*
X137188251Y-64537523D01*
X137231345Y-64557618D01*
X137283784Y-64603791D01*
X137302936Y-64670984D01*
X137282720Y-64737865D01*
X137231345Y-64782382D01*
X137188251Y-64802476D01*
X137109640Y-64857521D01*
X137000700Y-64933802D01*
X137000698Y-64933803D01*
X137000695Y-64933806D01*
X136838806Y-65095695D01*
X136838803Y-65095698D01*
X136838802Y-65095700D01*
X136787797Y-65168543D01*
X136707476Y-65283252D01*
X136707475Y-65283254D01*
X136610718Y-65490750D01*
X136610714Y-65490761D01*
X136551457Y-65711910D01*
X136551456Y-65711918D01*
X136531502Y-65939998D01*
X136531502Y-65940001D01*
X136551456Y-66168081D01*
X136551457Y-66168089D01*
X136610714Y-66389238D01*
X136610718Y-66389249D01*
X136686423Y-66551599D01*
X136707477Y-66596749D01*
X136838802Y-66784300D01*
X137000700Y-66946198D01*
X137166926Y-67062591D01*
X137188251Y-67077523D01*
X137231345Y-67097618D01*
X137283784Y-67143791D01*
X137302936Y-67210984D01*
X137282720Y-67277865D01*
X137231345Y-67322382D01*
X137188251Y-67342476D01*
X137063126Y-67430090D01*
X137000700Y-67473802D01*
X137000698Y-67473803D01*
X137000695Y-67473806D01*
X136838806Y-67635695D01*
X136838803Y-67635698D01*
X136838802Y-67635700D01*
X136826123Y-67653808D01*
X136707476Y-67823252D01*
X136707475Y-67823254D01*
X136610718Y-68030750D01*
X136610714Y-68030761D01*
X136551457Y-68251910D01*
X136551456Y-68251918D01*
X136531502Y-68479998D01*
X136531502Y-68480001D01*
X136551456Y-68708081D01*
X136551457Y-68708089D01*
X136610714Y-68929238D01*
X136610718Y-68929249D01*
X136652743Y-69019371D01*
X136707477Y-69136749D01*
X136838802Y-69324300D01*
X137000700Y-69486198D01*
X137168647Y-69603796D01*
X137188251Y-69617523D01*
X137231345Y-69637618D01*
X137283784Y-69683791D01*
X137302936Y-69750984D01*
X137282720Y-69817865D01*
X137231345Y-69862382D01*
X137188251Y-69882476D01*
X137063126Y-69970090D01*
X137000700Y-70013802D01*
X137000698Y-70013803D01*
X137000695Y-70013806D01*
X136838806Y-70175695D01*
X136707476Y-70363252D01*
X136707475Y-70363254D01*
X136610718Y-70570750D01*
X136610714Y-70570761D01*
X136551457Y-70791910D01*
X136551456Y-70791918D01*
X136531502Y-71019998D01*
X136531502Y-71020001D01*
X136551456Y-71248081D01*
X136551457Y-71248089D01*
X136610714Y-71469238D01*
X136610718Y-71469249D01*
X136697894Y-71656198D01*
X136707477Y-71676749D01*
X136838802Y-71864300D01*
X137000700Y-72026198D01*
X137188251Y-72157523D01*
X137276352Y-72198605D01*
X137395750Y-72254281D01*
X137395752Y-72254281D01*
X137395757Y-72254284D01*
X137616913Y-72313543D01*
X137769699Y-72326910D01*
X137844998Y-72333498D01*
X137845000Y-72333498D01*
X137845002Y-72333498D01*
X137902021Y-72328509D01*
X138073087Y-72313543D01*
X138294243Y-72254284D01*
X138501749Y-72157523D01*
X138689300Y-72026198D01*
X138851198Y-71864300D01*
X138982523Y-71676749D01*
X139079284Y-71469243D01*
X139138543Y-71248087D01*
X139158498Y-71020000D01*
X139156494Y-70997095D01*
X139170260Y-70928596D01*
X139218875Y-70878413D01*
X139286904Y-70862479D01*
X139352747Y-70885854D01*
X139367703Y-70898607D01*
X141466163Y-72997069D01*
X141466167Y-72997072D01*
X141569921Y-73066399D01*
X141569923Y-73066399D01*
X141569925Y-73066401D01*
X141651447Y-73100168D01*
X141662060Y-73104564D01*
X141716464Y-73148405D01*
X141738529Y-73214699D01*
X141721250Y-73282398D01*
X141702289Y-73306806D01*
X137703915Y-77305181D01*
X137642592Y-77338666D01*
X137616234Y-77341500D01*
X137418352Y-77341500D01*
X137351313Y-77321815D01*
X137316779Y-77288626D01*
X137206198Y-77130700D01*
X137044300Y-76968802D01*
X136856749Y-76837477D01*
X136836357Y-76827968D01*
X136649249Y-76740718D01*
X136649238Y-76740714D01*
X136428089Y-76681457D01*
X136428081Y-76681456D01*
X136200002Y-76661502D01*
X136199998Y-76661502D01*
X135971918Y-76681456D01*
X135971910Y-76681457D01*
X135750761Y-76740714D01*
X135750750Y-76740718D01*
X135543254Y-76837475D01*
X135543252Y-76837476D01*
X135523421Y-76851362D01*
X135355700Y-76968802D01*
X135355698Y-76968803D01*
X135355695Y-76968806D01*
X135193806Y-77130695D01*
X135193803Y-77130698D01*
X135193802Y-77130700D01*
X135169282Y-77165718D01*
X135062476Y-77318252D01*
X135062475Y-77318254D01*
X134965718Y-77525750D01*
X134965714Y-77525761D01*
X134906457Y-77746910D01*
X134906456Y-77746918D01*
X134886502Y-77974998D01*
X134886502Y-77975001D01*
X132513498Y-77975001D01*
X132513498Y-77975000D01*
X132511376Y-77950750D01*
X132507796Y-77909832D01*
X132493543Y-77746913D01*
X132476241Y-77682341D01*
X132477904Y-77612491D01*
X132508333Y-77562569D01*
X133717071Y-76353833D01*
X133786400Y-76250075D01*
X133786431Y-76250000D01*
X133807625Y-76198834D01*
X133807625Y-76198833D01*
X133834155Y-76134785D01*
X133858500Y-76012394D01*
X133858500Y-68877606D01*
X133834155Y-68755215D01*
X133809491Y-68695671D01*
X133786401Y-68639925D01*
X133786397Y-68639919D01*
X133717072Y-68536166D01*
X133717069Y-68536163D01*
X131533335Y-66352431D01*
X131499850Y-66291108D01*
X131501240Y-66232658D01*
X131518543Y-66168087D01*
X131535747Y-65971447D01*
X131538498Y-65940001D01*
X131538498Y-65939998D01*
X131519807Y-65726362D01*
X131518543Y-65711913D01*
X131501241Y-65647341D01*
X131502904Y-65577491D01*
X131533333Y-65527569D01*
X135566085Y-61494819D01*
X135627408Y-61461334D01*
X135653766Y-61458500D01*
X141446234Y-61458500D01*
X141513273Y-61478185D01*
X141533914Y-61494818D01*
X142069558Y-62030463D01*
X142103042Y-62091784D01*
X142105404Y-62128949D01*
X142086502Y-62344998D01*
X142086502Y-62345001D01*
X142106456Y-62573081D01*
X142106457Y-62573089D01*
X142165714Y-62794238D01*
X142165718Y-62794249D01*
X142200483Y-62868802D01*
X142262477Y-63001749D01*
X142393802Y-63189300D01*
X142555700Y-63351198D01*
X142743251Y-63482523D01*
X142832015Y-63523914D01*
X142950750Y-63579281D01*
X142950752Y-63579281D01*
X142950757Y-63579284D01*
X143171913Y-63638543D01*
X143334832Y-63652796D01*
X143399998Y-63658498D01*
X143400000Y-63658498D01*
X143400002Y-63658498D01*
X143457021Y-63653509D01*
X143628087Y-63638543D01*
X143849243Y-63579284D01*
X144056749Y-63482523D01*
X144244300Y-63351198D01*
X144406198Y-63189300D01*
X144481768Y-63081374D01*
X144536344Y-63037752D01*
X144583342Y-63028500D01*
X145956648Y-63028500D01*
X146023687Y-63048185D01*
X146058220Y-63081373D01*
X146168802Y-63239300D01*
X146330700Y-63401198D01*
X146518251Y-63532523D01*
X146618525Y-63579281D01*
X146725750Y-63629281D01*
X146725752Y-63629281D01*
X146725757Y-63629284D01*
X146946913Y-63688543D01*
X147109832Y-63702796D01*
X147174998Y-63708498D01*
X147175000Y-63708498D01*
X147175002Y-63708498D01*
X147232021Y-63703509D01*
X147403087Y-63688543D01*
X147624243Y-63629284D01*
X147831749Y-63532523D01*
X148019300Y-63401198D01*
X148181198Y-63239300D01*
X148312523Y-63051749D01*
X148409284Y-62844243D01*
X148468543Y-62623087D01*
X148488498Y-62395000D01*
X148487100Y-62379025D01*
X148476904Y-62262477D01*
X148468543Y-62166913D01*
X148409284Y-61945757D01*
X148312523Y-61738251D01*
X148181198Y-61550700D01*
X148019300Y-61388802D01*
X147831749Y-61257477D01*
X147810008Y-61247339D01*
X147624249Y-61160718D01*
X147624238Y-61160714D01*
X147403089Y-61101457D01*
X147403081Y-61101456D01*
X147175002Y-61081502D01*
X147174998Y-61081502D01*
X146946918Y-61101456D01*
X146946910Y-61101457D01*
X146725761Y-61160714D01*
X146725750Y-61160718D01*
X146518254Y-61257475D01*
X146518252Y-61257476D01*
X146518251Y-61257477D01*
X146330700Y-61388802D01*
X146330698Y-61388803D01*
X146330695Y-61388806D01*
X146168806Y-61550695D01*
X146168803Y-61550698D01*
X146168802Y-61550700D01*
X146058220Y-61708625D01*
X146003646Y-61752249D01*
X145956648Y-61761500D01*
X144650676Y-61761500D01*
X144583637Y-61741815D01*
X144540702Y-61692662D01*
X144540228Y-61692937D01*
X144538835Y-61690524D01*
X144538294Y-61689905D01*
X144537523Y-61688251D01*
X144513227Y-61653553D01*
X144406198Y-61500700D01*
X144244300Y-61338802D01*
X144056749Y-61207477D01*
X144056745Y-61207475D01*
X143849249Y-61110718D01*
X143849238Y-61110714D01*
X143628089Y-61051457D01*
X143628081Y-61051456D01*
X143400002Y-61031502D01*
X143399998Y-61031502D01*
X143171918Y-61051456D01*
X143171907Y-61051458D01*
X143012702Y-61094117D01*
X142942852Y-61092454D01*
X142892928Y-61062023D01*
X142163836Y-60332931D01*
X142163832Y-60332928D01*
X142060081Y-60263603D01*
X142060072Y-60263598D01*
X141944785Y-60215845D01*
X141944777Y-60215843D01*
X141822398Y-60191500D01*
X141822394Y-60191500D01*
X135402393Y-60191500D01*
X135277606Y-60191500D01*
X135277601Y-60191500D01*
X135155222Y-60215843D01*
X135155214Y-60215845D01*
X135039927Y-60263598D01*
X135039918Y-60263603D01*
X134936167Y-60332928D01*
X134936163Y-60332931D01*
X131745181Y-63523914D01*
X131683858Y-63557399D01*
X131614166Y-63552415D01*
X131558233Y-63510543D01*
X131533816Y-63445079D01*
X131533500Y-63436233D01*
X131533500Y-62551362D01*
X131533499Y-62551345D01*
X131530157Y-62520270D01*
X131526989Y-62490799D01*
X131475889Y-62353796D01*
X131388261Y-62236739D01*
X131271204Y-62149111D01*
X131258316Y-62144304D01*
X131134203Y-62098011D01*
X131073654Y-62091500D01*
X131073638Y-62091500D01*
X129376362Y-62091500D01*
X129376345Y-62091500D01*
X129315797Y-62098011D01*
X129315795Y-62098011D01*
X129178795Y-62149111D01*
X129061739Y-62236739D01*
X128974111Y-62353795D01*
X128923011Y-62490795D01*
X128923011Y-62490797D01*
X128916500Y-62551345D01*
X128916500Y-64248654D01*
X128923011Y-64309202D01*
X128923011Y-64309204D01*
X128959189Y-64406198D01*
X128974111Y-64446204D01*
X129061739Y-64563261D01*
X129178796Y-64650889D01*
X129278110Y-64687931D01*
X129315793Y-64701987D01*
X129315799Y-64701989D01*
X129330499Y-64703569D01*
X129395048Y-64730305D01*
X129434897Y-64787696D01*
X129437393Y-64857521D01*
X129401742Y-64917611D01*
X129388377Y-64928425D01*
X129380700Y-64933802D01*
X129380696Y-64933805D01*
X129218806Y-65095695D01*
X129218803Y-65095698D01*
X129218802Y-65095700D01*
X129167797Y-65168543D01*
X129087476Y-65283252D01*
X129087475Y-65283254D01*
X128990718Y-65490750D01*
X128990714Y-65490761D01*
X128931457Y-65711910D01*
X128931456Y-65711918D01*
X128911502Y-65939998D01*
X128911502Y-65940001D01*
X128931456Y-66168081D01*
X128931458Y-66168092D01*
X128948758Y-66232656D01*
X128947095Y-66302506D01*
X128916664Y-66352430D01*
X127638915Y-67630181D01*
X127577592Y-67663666D01*
X127551234Y-67666500D01*
X120663717Y-67666500D01*
X120596678Y-67646815D01*
X120550923Y-67594011D01*
X120540979Y-67524853D01*
X120570004Y-67461297D01*
X120592589Y-67440928D01*
X120749300Y-67331198D01*
X120911198Y-67169300D01*
X121042523Y-66981749D01*
X121139284Y-66774243D01*
X121198543Y-66553087D01*
X121218498Y-66325000D01*
X121198543Y-66096913D01*
X121139284Y-65875757D01*
X121042523Y-65668251D01*
X120911198Y-65480700D01*
X120749300Y-65318802D01*
X120561749Y-65187477D01*
X120521145Y-65168543D01*
X120354249Y-65090718D01*
X120354238Y-65090714D01*
X120133089Y-65031457D01*
X120133081Y-65031456D01*
X119905002Y-65011502D01*
X119904998Y-65011502D01*
X119676918Y-65031456D01*
X119676910Y-65031457D01*
X119455761Y-65090714D01*
X119455750Y-65090718D01*
X119248254Y-65187475D01*
X119248252Y-65187476D01*
X119177856Y-65236767D01*
X119060700Y-65318802D01*
X119060698Y-65318803D01*
X119060695Y-65318806D01*
X118898806Y-65480695D01*
X118898803Y-65480698D01*
X118898802Y-65480700D01*
X118865125Y-65528796D01*
X118767476Y-65668252D01*
X118767475Y-65668254D01*
X118670718Y-65875750D01*
X118670714Y-65875761D01*
X118611457Y-66096910D01*
X118611456Y-66096918D01*
X118591502Y-66324998D01*
X118591502Y-66325001D01*
X118611456Y-66553081D01*
X118611457Y-66553089D01*
X118670714Y-66774238D01*
X118670718Y-66774249D01*
X118675407Y-66784304D01*
X118767477Y-66981749D01*
X118898802Y-67169300D01*
X119060700Y-67331198D01*
X119217408Y-67440926D01*
X119261032Y-67495502D01*
X119268224Y-67565001D01*
X119236702Y-67627355D01*
X119176472Y-67662769D01*
X119146283Y-67666500D01*
X110488898Y-67666500D01*
X110421859Y-67646815D01*
X110376104Y-67594011D01*
X110366160Y-67524853D01*
X110395185Y-67461297D01*
X110417773Y-67440926D01*
X110470471Y-67404024D01*
X109791447Y-66725000D01*
X109797661Y-66725000D01*
X109899394Y-66697741D01*
X109990606Y-66645080D01*
X110065080Y-66570606D01*
X110117741Y-66479394D01*
X110145000Y-66377661D01*
X110145000Y-66371447D01*
X110824024Y-67050471D01*
X110875136Y-66977478D01*
X110971264Y-66771331D01*
X110971269Y-66771317D01*
X111030139Y-66551610D01*
X111030141Y-66551599D01*
X111049966Y-66325002D01*
X111049966Y-66324997D01*
X111030141Y-66098400D01*
X111030139Y-66098389D01*
X110971269Y-65878682D01*
X110971264Y-65878668D01*
X110875136Y-65672521D01*
X110875132Y-65672513D01*
X110824025Y-65599526D01*
X110145000Y-66278551D01*
X110145000Y-66272339D01*
X110117741Y-66170606D01*
X110065080Y-66079394D01*
X109990606Y-66004920D01*
X109899394Y-65952259D01*
X109797661Y-65925000D01*
X109791448Y-65925000D01*
X110470472Y-65245974D01*
X110397478Y-65194863D01*
X110191331Y-65098735D01*
X110191317Y-65098730D01*
X109971610Y-65039860D01*
X109971599Y-65039858D01*
X109745002Y-65020034D01*
X109744998Y-65020034D01*
X109518400Y-65039858D01*
X109518389Y-65039860D01*
X109298682Y-65098730D01*
X109298673Y-65098734D01*
X109092516Y-65194866D01*
X109092512Y-65194868D01*
X109019526Y-65245973D01*
X109019526Y-65245974D01*
X109698553Y-65925000D01*
X109692339Y-65925000D01*
X109590606Y-65952259D01*
X109499394Y-66004920D01*
X109424920Y-66079394D01*
X109372259Y-66170606D01*
X109345000Y-66272339D01*
X109345000Y-66278552D01*
X108665974Y-65599526D01*
X108665973Y-65599526D01*
X108614868Y-65672512D01*
X108614866Y-65672516D01*
X108518734Y-65878673D01*
X108518730Y-65878682D01*
X108459860Y-66098389D01*
X108459858Y-66098400D01*
X108440034Y-66324997D01*
X108440034Y-66325002D01*
X108459858Y-66551599D01*
X108459860Y-66551610D01*
X108518730Y-66771317D01*
X108518735Y-66771331D01*
X108614863Y-66977478D01*
X108665974Y-67050472D01*
X109345000Y-66371446D01*
X109345000Y-66377661D01*
X109372259Y-66479394D01*
X109424920Y-66570606D01*
X109499394Y-66645080D01*
X109590606Y-66697741D01*
X109692339Y-66725000D01*
X109698553Y-66725000D01*
X109019526Y-67404025D01*
X109072225Y-67440926D01*
X109115850Y-67495503D01*
X109123042Y-67565001D01*
X109091519Y-67627356D01*
X109031289Y-67662769D01*
X109001101Y-67666500D01*
X104638767Y-67666500D01*
X104571728Y-67646815D01*
X104551086Y-67630181D01*
X104044819Y-67123914D01*
X104011334Y-67062591D01*
X104008500Y-67036233D01*
X104008500Y-65726362D01*
X104008499Y-65726345D01*
X104005157Y-65695270D01*
X104001989Y-65665799D01*
X103995104Y-65647341D01*
X103977270Y-65599526D01*
X103950889Y-65528796D01*
X103863261Y-65411739D01*
X103746204Y-65324111D01*
X103731970Y-65318802D01*
X103609203Y-65273011D01*
X103548654Y-65266500D01*
X103548638Y-65266500D01*
X101751362Y-65266500D01*
X101751345Y-65266500D01*
X101690797Y-65273011D01*
X101690795Y-65273011D01*
X101553795Y-65324111D01*
X101436739Y-65411739D01*
X101349111Y-65528795D01*
X101298011Y-65665795D01*
X101298011Y-65665797D01*
X101291500Y-65726345D01*
X101291500Y-67523654D01*
X100075500Y-67523654D01*
X100075500Y-61300002D01*
X108440034Y-61300002D01*
X108459858Y-61526599D01*
X108459860Y-61526610D01*
X108518730Y-61746317D01*
X108518735Y-61746331D01*
X108614863Y-61952478D01*
X108665974Y-62025472D01*
X109345000Y-61346446D01*
X109345000Y-61352661D01*
X109372259Y-61454394D01*
X109424920Y-61545606D01*
X109499394Y-61620080D01*
X109590606Y-61672741D01*
X109692339Y-61700000D01*
X109698553Y-61700000D01*
X109019526Y-62379025D01*
X109092513Y-62430132D01*
X109092521Y-62430136D01*
X109298668Y-62526264D01*
X109298682Y-62526269D01*
X109518389Y-62585139D01*
X109518400Y-62585141D01*
X109744998Y-62604966D01*
X109745002Y-62604966D01*
X109971599Y-62585141D01*
X109971610Y-62585139D01*
X110191317Y-62526269D01*
X110191331Y-62526264D01*
X110397478Y-62430136D01*
X110470471Y-62379024D01*
X109791447Y-61700000D01*
X109797661Y-61700000D01*
X109899394Y-61672741D01*
X109990606Y-61620080D01*
X110065080Y-61545606D01*
X110117741Y-61454394D01*
X110145000Y-61352661D01*
X110145000Y-61346447D01*
X110824024Y-62025471D01*
X110875136Y-61952478D01*
X110971264Y-61746331D01*
X110971269Y-61746317D01*
X111030139Y-61526610D01*
X111030141Y-61526599D01*
X111049966Y-61300002D01*
X111049966Y-61300001D01*
X118591502Y-61300001D01*
X118611456Y-61528081D01*
X118611457Y-61528089D01*
X118670714Y-61749238D01*
X118670718Y-61749249D01*
X118755597Y-61931273D01*
X118767477Y-61956749D01*
X118898802Y-62144300D01*
X119060700Y-62306198D01*
X119248251Y-62437523D01*
X119362494Y-62490795D01*
X119455750Y-62534281D01*
X119455752Y-62534281D01*
X119455757Y-62534284D01*
X119676913Y-62593543D01*
X119839832Y-62607796D01*
X119904998Y-62613498D01*
X119905000Y-62613498D01*
X119905002Y-62613498D01*
X119962021Y-62608509D01*
X120133087Y-62593543D01*
X120354243Y-62534284D01*
X120561749Y-62437523D01*
X120749300Y-62306198D01*
X120911198Y-62144300D01*
X121042523Y-61956749D01*
X121139284Y-61749243D01*
X121198543Y-61528087D01*
X121218498Y-61300000D01*
X121198543Y-61071913D01*
X121174901Y-60983681D01*
X121176564Y-60913832D01*
X121206993Y-60863909D01*
X121500903Y-60569999D01*
X124921127Y-60569999D01*
X124921128Y-60570000D01*
X125884314Y-60570000D01*
X125879920Y-60574394D01*
X125827259Y-60665606D01*
X125800000Y-60767339D01*
X125800000Y-60872661D01*
X125827259Y-60974394D01*
X125879920Y-61065606D01*
X125884314Y-61070000D01*
X124921128Y-61070000D01*
X124973730Y-61266317D01*
X124973734Y-61266326D01*
X125069865Y-61472482D01*
X125200342Y-61658820D01*
X125361179Y-61819657D01*
X125547517Y-61950134D01*
X125753673Y-62046265D01*
X125753682Y-62046269D01*
X125949999Y-62098872D01*
X125950000Y-62098871D01*
X125950000Y-61135686D01*
X125954394Y-61140080D01*
X126045606Y-61192741D01*
X126147339Y-61220000D01*
X126252661Y-61220000D01*
X126354394Y-61192741D01*
X126445606Y-61140080D01*
X126450000Y-61135686D01*
X126450000Y-62098872D01*
X126646317Y-62046269D01*
X126646326Y-62046265D01*
X126852482Y-61950134D01*
X127038820Y-61819657D01*
X127199657Y-61658820D01*
X127330134Y-61472482D01*
X127426265Y-61266326D01*
X127426269Y-61266317D01*
X127478872Y-61070000D01*
X126515686Y-61070000D01*
X126520080Y-61065606D01*
X126572741Y-60974394D01*
X126600000Y-60872661D01*
X126600000Y-60767339D01*
X126572741Y-60665606D01*
X126520080Y-60574394D01*
X126515686Y-60570000D01*
X127478872Y-60570000D01*
X127478872Y-60569999D01*
X127426269Y-60373682D01*
X127426265Y-60373673D01*
X127330134Y-60167517D01*
X127199657Y-59981179D01*
X127038820Y-59820342D01*
X126852482Y-59689865D01*
X126646328Y-59593734D01*
X126450000Y-59541127D01*
X126450000Y-60504314D01*
X126445606Y-60499920D01*
X126354394Y-60447259D01*
X126252661Y-60420000D01*
X126147339Y-60420000D01*
X126045606Y-60447259D01*
X125954394Y-60499920D01*
X125950000Y-60504314D01*
X125950000Y-59541127D01*
X125753671Y-59593734D01*
X125547517Y-59689865D01*
X125361179Y-59820342D01*
X125200342Y-59981179D01*
X125069865Y-60167517D01*
X124973734Y-60373673D01*
X124973730Y-60373682D01*
X124921127Y-60569999D01*
X121500903Y-60569999D01*
X123176085Y-58894819D01*
X123237408Y-58861334D01*
X123263766Y-58858500D01*
X132412395Y-58858500D01*
X132412396Y-58858499D01*
X132455125Y-58850000D01*
X154161835Y-58850000D01*
X154180465Y-59086714D01*
X154235895Y-59317595D01*
X154235895Y-59317597D01*
X154326757Y-59536959D01*
X154326759Y-59536962D01*
X154450820Y-59739410D01*
X154450821Y-59739413D01*
X154450824Y-59739416D01*
X154605031Y-59919969D01*
X154706298Y-60006459D01*
X154785586Y-60074178D01*
X154785589Y-60074179D01*
X154988037Y-60198240D01*
X154988040Y-60198242D01*
X155207403Y-60289104D01*
X155207404Y-60289104D01*
X155207406Y-60289105D01*
X155438289Y-60344535D01*
X155675000Y-60363165D01*
X155911711Y-60344535D01*
X156142594Y-60289105D01*
X156142596Y-60289104D01*
X156142597Y-60289104D01*
X156361959Y-60198242D01*
X156361960Y-60198241D01*
X156361963Y-60198240D01*
X156564416Y-60074176D01*
X156744969Y-59919969D01*
X156899176Y-59739416D01*
X157023240Y-59536963D01*
X157038510Y-59500099D01*
X157114104Y-59317597D01*
X157114104Y-59317596D01*
X157114105Y-59317594D01*
X157169535Y-59086711D01*
X157188165Y-58850000D01*
X160661835Y-58850000D01*
X160680465Y-59086714D01*
X160735895Y-59317595D01*
X160735895Y-59317597D01*
X160826757Y-59536959D01*
X160826759Y-59536962D01*
X160950820Y-59739410D01*
X160950821Y-59739413D01*
X160950824Y-59739416D01*
X161105031Y-59919969D01*
X161206298Y-60006459D01*
X161285586Y-60074178D01*
X161285589Y-60074179D01*
X161488037Y-60198240D01*
X161488040Y-60198242D01*
X161707403Y-60289104D01*
X161707404Y-60289104D01*
X161707406Y-60289105D01*
X161938289Y-60344535D01*
X162175000Y-60363165D01*
X162411711Y-60344535D01*
X162642594Y-60289105D01*
X162642596Y-60289104D01*
X162642597Y-60289104D01*
X162861959Y-60198242D01*
X162861960Y-60198241D01*
X162861963Y-60198240D01*
X163064416Y-60074176D01*
X163244969Y-59919969D01*
X163399176Y-59739416D01*
X163523240Y-59536963D01*
X163538510Y-59500099D01*
X163614104Y-59317597D01*
X163614104Y-59317596D01*
X163614105Y-59317594D01*
X163669535Y-59086711D01*
X163688165Y-58850000D01*
X163669535Y-58613289D01*
X163614105Y-58382406D01*
X163614104Y-58382403D01*
X163614104Y-58382402D01*
X163523242Y-58163040D01*
X163523240Y-58163037D01*
X163399179Y-57960589D01*
X163399178Y-57960586D01*
X163341293Y-57892812D01*
X163244969Y-57780031D01*
X163125596Y-57678076D01*
X163064413Y-57625821D01*
X163064410Y-57625820D01*
X162861962Y-57501759D01*
X162861959Y-57501757D01*
X162642596Y-57410895D01*
X162411714Y-57355465D01*
X162175000Y-57336835D01*
X161938285Y-57355465D01*
X161707404Y-57410895D01*
X161707402Y-57410895D01*
X161488040Y-57501757D01*
X161488037Y-57501759D01*
X161285589Y-57625820D01*
X161285586Y-57625821D01*
X161105031Y-57780031D01*
X160950821Y-57960586D01*
X160950820Y-57960589D01*
X160826759Y-58163037D01*
X160826757Y-58163040D01*
X160735895Y-58382402D01*
X160735895Y-58382404D01*
X160680465Y-58613285D01*
X160661835Y-58850000D01*
X157188165Y-58850000D01*
X157169535Y-58613289D01*
X157114105Y-58382406D01*
X157114104Y-58382403D01*
X157114104Y-58382402D01*
X157023242Y-58163040D01*
X157023240Y-58163037D01*
X156899179Y-57960589D01*
X156899178Y-57960586D01*
X156841293Y-57892812D01*
X156744969Y-57780031D01*
X156625596Y-57678076D01*
X156564413Y-57625821D01*
X156564410Y-57625820D01*
X156361962Y-57501759D01*
X156361959Y-57501757D01*
X156142596Y-57410895D01*
X155911714Y-57355465D01*
X155675000Y-57336835D01*
X155438285Y-57355465D01*
X155207404Y-57410895D01*
X155207402Y-57410895D01*
X154988040Y-57501757D01*
X154988037Y-57501759D01*
X154785589Y-57625820D01*
X154785586Y-57625821D01*
X154605031Y-57780031D01*
X154450821Y-57960586D01*
X154450820Y-57960589D01*
X154326759Y-58163037D01*
X154326757Y-58163040D01*
X154235895Y-58382402D01*
X154235895Y-58382404D01*
X154180465Y-58613285D01*
X154161835Y-58850000D01*
X132455125Y-58850000D01*
X132534785Y-58834155D01*
X132650075Y-58786400D01*
X132753833Y-58717071D01*
X134426086Y-57044819D01*
X134487409Y-57011334D01*
X134513767Y-57008500D01*
X135923638Y-57008500D01*
X135923654Y-57008499D01*
X135950692Y-57005591D01*
X135984201Y-57001989D01*
X136121204Y-56950889D01*
X136238261Y-56863261D01*
X136325889Y-56746204D01*
X136350397Y-56680495D01*
X136392268Y-56624563D01*
X136457733Y-56600147D01*
X136526005Y-56614999D01*
X136553724Y-56636656D01*
X136554010Y-56636347D01*
X136557774Y-56639811D01*
X136557780Y-56639818D01*
X136741983Y-56783190D01*
X136741985Y-56783191D01*
X136741988Y-56783193D01*
X136861331Y-56847777D01*
X136947273Y-56894287D01*
X137020095Y-56919287D01*
X137168045Y-56970079D01*
X137168047Y-56970079D01*
X137168049Y-56970080D01*
X137398288Y-57008500D01*
X137398289Y-57008500D01*
X137631711Y-57008500D01*
X137631712Y-57008500D01*
X137861951Y-56970080D01*
X138082727Y-56894287D01*
X138288017Y-56783190D01*
X138472220Y-56639818D01*
X138630314Y-56468083D01*
X138757984Y-56272669D01*
X138851749Y-56058907D01*
X138909051Y-55832626D01*
X138926255Y-55625005D01*
X138928327Y-55600005D01*
X138928327Y-55599994D01*
X138909052Y-55367382D01*
X138909050Y-55367370D01*
X138869663Y-55211835D01*
X138872288Y-55142015D01*
X138902186Y-55093716D01*
X140526086Y-53469819D01*
X140587409Y-53436334D01*
X140613767Y-53433500D01*
X146712395Y-53433500D01*
X146712396Y-53433499D01*
X146834785Y-53409155D01*
X146950075Y-53361400D01*
X147053833Y-53292071D01*
X149956790Y-50389112D01*
X150018111Y-50355629D01*
X150087802Y-50360613D01*
X150103486Y-50367740D01*
X150252426Y-50448342D01*
X150465365Y-50521444D01*
X150687431Y-50558500D01*
X150912569Y-50558500D01*
X151134635Y-50521444D01*
X151347574Y-50448342D01*
X151545576Y-50341189D01*
X151694238Y-50225478D01*
X151759229Y-50199837D01*
X151827770Y-50213403D01*
X151878095Y-50261871D01*
X151894227Y-50329852D01*
X151871045Y-50395764D01*
X151858080Y-50411014D01*
X148161394Y-54107700D01*
X148100071Y-54141185D01*
X148033450Y-54137300D01*
X148011954Y-54129920D01*
X147820730Y-54098011D01*
X147781712Y-54091500D01*
X147548288Y-54091500D01*
X147509270Y-54098011D01*
X147318045Y-54129920D01*
X147097280Y-54205710D01*
X147097266Y-54205716D01*
X146891988Y-54316806D01*
X146891985Y-54316808D01*
X146707781Y-54460181D01*
X146704010Y-54463653D01*
X146703290Y-54462871D01*
X146647899Y-54496147D01*
X146578061Y-54494034D01*
X146520452Y-54454500D01*
X146500397Y-54419503D01*
X146492371Y-54397987D01*
X146475889Y-54353796D01*
X146388261Y-54236739D01*
X146271204Y-54149111D01*
X146239538Y-54137300D01*
X146134203Y-54098011D01*
X146073654Y-54091500D01*
X146073638Y-54091500D01*
X144176362Y-54091500D01*
X144176345Y-54091500D01*
X144115797Y-54098011D01*
X144115795Y-54098011D01*
X143978795Y-54149111D01*
X143861739Y-54236739D01*
X143774111Y-54353795D01*
X143723011Y-54490795D01*
X143723011Y-54490797D01*
X143716500Y-54551345D01*
X143716500Y-56448654D01*
X143723011Y-56509202D01*
X143723011Y-56509204D01*
X143749603Y-56580497D01*
X143774111Y-56646204D01*
X143861739Y-56763261D01*
X143978796Y-56850889D01*
X144115799Y-56901989D01*
X144143050Y-56904918D01*
X144176345Y-56908499D01*
X144176362Y-56908500D01*
X146073638Y-56908500D01*
X146073654Y-56908499D01*
X146100692Y-56905591D01*
X146134201Y-56901989D01*
X146271204Y-56850889D01*
X146388261Y-56763261D01*
X146475889Y-56646204D01*
X146500397Y-56580495D01*
X146542268Y-56524563D01*
X146607733Y-56500147D01*
X146676005Y-56514999D01*
X146703724Y-56536656D01*
X146704010Y-56536347D01*
X146707774Y-56539811D01*
X146707780Y-56539818D01*
X146891983Y-56683190D01*
X146891985Y-56683191D01*
X146891988Y-56683193D01*
X146980685Y-56731193D01*
X147097273Y-56794287D01*
X147137774Y-56808191D01*
X147318045Y-56870079D01*
X147318047Y-56870079D01*
X147318049Y-56870080D01*
X147548288Y-56908500D01*
X147548289Y-56908500D01*
X147781711Y-56908500D01*
X147781712Y-56908500D01*
X148011951Y-56870080D01*
X148232727Y-56794287D01*
X148438017Y-56683190D01*
X148622220Y-56539818D01*
X148780314Y-56368083D01*
X148907984Y-56172669D01*
X149001749Y-55958907D01*
X149059051Y-55732626D01*
X149069207Y-55610057D01*
X149078327Y-55500005D01*
X149078327Y-55499994D01*
X149059052Y-55267382D01*
X149059050Y-55267370D01*
X149022694Y-55123804D01*
X149025319Y-55053984D01*
X149055217Y-55005685D01*
X149710897Y-54350005D01*
X154169859Y-54350005D01*
X154190385Y-54597729D01*
X154190387Y-54597738D01*
X154251412Y-54838717D01*
X154351266Y-55066364D01*
X154451564Y-55219882D01*
X155151212Y-54520234D01*
X155162482Y-54562292D01*
X155234890Y-54687708D01*
X155337292Y-54790110D01*
X155462708Y-54862518D01*
X155504765Y-54873787D01*
X154804942Y-55573609D01*
X154851768Y-55610055D01*
X154851770Y-55610056D01*
X155070385Y-55728364D01*
X155070396Y-55728369D01*
X155305506Y-55809083D01*
X155550707Y-55850000D01*
X155799293Y-55850000D01*
X156044493Y-55809083D01*
X156279603Y-55728369D01*
X156279614Y-55728364D01*
X156498228Y-55610057D01*
X156498231Y-55610055D01*
X156545056Y-55573609D01*
X155845234Y-54873787D01*
X155887292Y-54862518D01*
X156012708Y-54790110D01*
X156115110Y-54687708D01*
X156187518Y-54562292D01*
X156198787Y-54520235D01*
X156898434Y-55219882D01*
X156998731Y-55066369D01*
X157098587Y-54838717D01*
X157159612Y-54597738D01*
X157159614Y-54597729D01*
X157180141Y-54350005D01*
X160669859Y-54350005D01*
X160690385Y-54597729D01*
X160690387Y-54597738D01*
X160751412Y-54838717D01*
X160851266Y-55066364D01*
X160951564Y-55219882D01*
X161651212Y-54520234D01*
X161662482Y-54562292D01*
X161734890Y-54687708D01*
X161837292Y-54790110D01*
X161962708Y-54862518D01*
X162004765Y-54873787D01*
X161304942Y-55573609D01*
X161351768Y-55610055D01*
X161351770Y-55610056D01*
X161570385Y-55728364D01*
X161570396Y-55728369D01*
X161805506Y-55809083D01*
X162050707Y-55850000D01*
X162299293Y-55850000D01*
X162544493Y-55809083D01*
X162779603Y-55728369D01*
X162779614Y-55728364D01*
X162998228Y-55610057D01*
X162998231Y-55610055D01*
X163045056Y-55573609D01*
X162345234Y-54873787D01*
X162387292Y-54862518D01*
X162512708Y-54790110D01*
X162615110Y-54687708D01*
X162687518Y-54562292D01*
X162698787Y-54520234D01*
X163398434Y-55219882D01*
X163498731Y-55066369D01*
X163598587Y-54838717D01*
X163659612Y-54597738D01*
X163659614Y-54597729D01*
X163680141Y-54350005D01*
X163680141Y-54349994D01*
X163659614Y-54102270D01*
X163659612Y-54102261D01*
X163598587Y-53861282D01*
X163498731Y-53633630D01*
X163398434Y-53480116D01*
X162698787Y-54179764D01*
X162687518Y-54137708D01*
X162615110Y-54012292D01*
X162512708Y-53909890D01*
X162387292Y-53837482D01*
X162345235Y-53826212D01*
X163045057Y-53126390D01*
X163045056Y-53126389D01*
X162998229Y-53089943D01*
X162779614Y-52971635D01*
X162779603Y-52971630D01*
X162544493Y-52890916D01*
X162299293Y-52850000D01*
X162050707Y-52850000D01*
X161805506Y-52890916D01*
X161570396Y-52971630D01*
X161570390Y-52971632D01*
X161351761Y-53089949D01*
X161304942Y-53126388D01*
X161304942Y-53126390D01*
X162004765Y-53826212D01*
X161962708Y-53837482D01*
X161837292Y-53909890D01*
X161734890Y-54012292D01*
X161662482Y-54137708D01*
X161651212Y-54179764D01*
X160951564Y-53480116D01*
X160851267Y-53633632D01*
X160751412Y-53861282D01*
X160690387Y-54102261D01*
X160690385Y-54102270D01*
X160669859Y-54349994D01*
X160669859Y-54350005D01*
X157180141Y-54350005D01*
X157180141Y-54349994D01*
X157159614Y-54102270D01*
X157159612Y-54102261D01*
X157098587Y-53861282D01*
X156998731Y-53633630D01*
X156898434Y-53480116D01*
X156198787Y-54179764D01*
X156187518Y-54137708D01*
X156115110Y-54012292D01*
X156012708Y-53909890D01*
X155887292Y-53837482D01*
X155845235Y-53826212D01*
X156545057Y-53126390D01*
X156545056Y-53126389D01*
X156498229Y-53089943D01*
X156279614Y-52971635D01*
X156279603Y-52971630D01*
X156044493Y-52890916D01*
X155799293Y-52850000D01*
X155550707Y-52850000D01*
X155305506Y-52890916D01*
X155070396Y-52971630D01*
X155070390Y-52971632D01*
X154851761Y-53089949D01*
X154804942Y-53126388D01*
X154804942Y-53126390D01*
X155504765Y-53826212D01*
X155462708Y-53837482D01*
X155337292Y-53909890D01*
X155234890Y-54012292D01*
X155162482Y-54137708D01*
X155151212Y-54179764D01*
X154451564Y-53480116D01*
X154351267Y-53633632D01*
X154251412Y-53861282D01*
X154190387Y-54102261D01*
X154190385Y-54102270D01*
X154169859Y-54349994D01*
X154169859Y-54350005D01*
X149710897Y-54350005D01*
X153484297Y-50576605D01*
X153545618Y-50543122D01*
X153551540Y-50541984D01*
X153674635Y-50521444D01*
X153887574Y-50448342D01*
X154085576Y-50341189D01*
X154263240Y-50202906D01*
X154384594Y-50071082D01*
X154415715Y-50037276D01*
X154415715Y-50037275D01*
X154415722Y-50037268D01*
X154506193Y-49898790D01*
X154559338Y-49853437D01*
X154628569Y-49844013D01*
X154691905Y-49873515D01*
X154713804Y-49898787D01*
X154804278Y-50037268D01*
X154804283Y-50037273D01*
X154804284Y-50037276D01*
X154956756Y-50202902D01*
X154956760Y-50202906D01*
X155134424Y-50341189D01*
X155134425Y-50341189D01*
X155134427Y-50341191D01*
X155183486Y-50367740D01*
X155332426Y-50448342D01*
X155545365Y-50521444D01*
X155767431Y-50558500D01*
X155992569Y-50558500D01*
X156214635Y-50521444D01*
X156427574Y-50448342D01*
X156625576Y-50341189D01*
X156803240Y-50202906D01*
X156924594Y-50071082D01*
X156955715Y-50037276D01*
X156955715Y-50037275D01*
X156955722Y-50037268D01*
X157046193Y-49898790D01*
X157099338Y-49853437D01*
X157168569Y-49844013D01*
X157231905Y-49873515D01*
X157253804Y-49898787D01*
X157344278Y-50037268D01*
X157344283Y-50037273D01*
X157344284Y-50037276D01*
X157496756Y-50202902D01*
X157496760Y-50202906D01*
X157674424Y-50341189D01*
X157674425Y-50341189D01*
X157674427Y-50341191D01*
X157723486Y-50367740D01*
X157872426Y-50448342D01*
X158085365Y-50521444D01*
X158307431Y-50558500D01*
X158532569Y-50558500D01*
X158754635Y-50521444D01*
X158967574Y-50448342D01*
X159165576Y-50341189D01*
X159343240Y-50202906D01*
X159464594Y-50071082D01*
X159495715Y-50037276D01*
X159495715Y-50037275D01*
X159495722Y-50037268D01*
X159586193Y-49898790D01*
X159639338Y-49853437D01*
X159708569Y-49844013D01*
X159771905Y-49873515D01*
X159793804Y-49898787D01*
X159884278Y-50037268D01*
X159884283Y-50037273D01*
X159884284Y-50037276D01*
X160036756Y-50202902D01*
X160036760Y-50202906D01*
X160214424Y-50341189D01*
X160214425Y-50341189D01*
X160214427Y-50341191D01*
X160263486Y-50367740D01*
X160412426Y-50448342D01*
X160625365Y-50521444D01*
X160847431Y-50558500D01*
X161072569Y-50558500D01*
X161294635Y-50521444D01*
X161507574Y-50448342D01*
X161705576Y-50341189D01*
X161883240Y-50202906D01*
X162004594Y-50071082D01*
X162035715Y-50037276D01*
X162035715Y-50037275D01*
X162035722Y-50037268D01*
X162126193Y-49898790D01*
X162179338Y-49853437D01*
X162248569Y-49844013D01*
X162311905Y-49873515D01*
X162333804Y-49898787D01*
X162424278Y-50037268D01*
X162424283Y-50037273D01*
X162424284Y-50037276D01*
X162576756Y-50202902D01*
X162576760Y-50202906D01*
X162754424Y-50341189D01*
X162754425Y-50341189D01*
X162754427Y-50341191D01*
X162803486Y-50367740D01*
X162952426Y-50448342D01*
X163165365Y-50521444D01*
X163387431Y-50558500D01*
X163612569Y-50558500D01*
X163834635Y-50521444D01*
X164047574Y-50448342D01*
X164245576Y-50341189D01*
X164423240Y-50202906D01*
X164544594Y-50071082D01*
X164575715Y-50037276D01*
X164575717Y-50037273D01*
X164575722Y-50037268D01*
X164698860Y-49848791D01*
X164789296Y-49642616D01*
X164844564Y-49424368D01*
X164856309Y-49282635D01*
X164863156Y-49200005D01*
X164863156Y-49199994D01*
X164844565Y-48975640D01*
X164844563Y-48975628D01*
X164789296Y-48757385D01*
X164779071Y-48734075D01*
X164698860Y-48551209D01*
X164682706Y-48526484D01*
X164575723Y-48362734D01*
X164575715Y-48362723D01*
X164423243Y-48197097D01*
X164423238Y-48197092D01*
X164245577Y-48058812D01*
X164245572Y-48058808D01*
X164047580Y-47951661D01*
X164047577Y-47951659D01*
X164047574Y-47951658D01*
X164047571Y-47951657D01*
X164047569Y-47951656D01*
X163834637Y-47878556D01*
X163612569Y-47841500D01*
X163387431Y-47841500D01*
X163165362Y-47878556D01*
X162952430Y-47951656D01*
X162952419Y-47951661D01*
X162754427Y-48058808D01*
X162754422Y-48058812D01*
X162576761Y-48197092D01*
X162576756Y-48197097D01*
X162424284Y-48362723D01*
X162424276Y-48362734D01*
X162333808Y-48501206D01*
X162280662Y-48546562D01*
X162211431Y-48555986D01*
X162148095Y-48526484D01*
X162126192Y-48501206D01*
X162035723Y-48362734D01*
X162035715Y-48362723D01*
X161883243Y-48197097D01*
X161883238Y-48197092D01*
X161705577Y-48058812D01*
X161705572Y-48058808D01*
X161507580Y-47951661D01*
X161507577Y-47951659D01*
X161507574Y-47951658D01*
X161507571Y-47951657D01*
X161507569Y-47951656D01*
X161294637Y-47878556D01*
X161072569Y-47841500D01*
X160847431Y-47841500D01*
X160625362Y-47878556D01*
X160412430Y-47951656D01*
X160412419Y-47951661D01*
X160214427Y-48058808D01*
X160214422Y-48058812D01*
X160036761Y-48197092D01*
X160036756Y-48197097D01*
X159884284Y-48362723D01*
X159884276Y-48362734D01*
X159793808Y-48501206D01*
X159740662Y-48546562D01*
X159671431Y-48555986D01*
X159608095Y-48526484D01*
X159586192Y-48501206D01*
X159495723Y-48362734D01*
X159495715Y-48362723D01*
X159343243Y-48197097D01*
X159343238Y-48197092D01*
X159165577Y-48058812D01*
X159165572Y-48058808D01*
X158967580Y-47951661D01*
X158967577Y-47951659D01*
X158967574Y-47951658D01*
X158967571Y-47951657D01*
X158967569Y-47951656D01*
X158754637Y-47878556D01*
X158532569Y-47841500D01*
X158307431Y-47841500D01*
X158085362Y-47878556D01*
X157872430Y-47951656D01*
X157872419Y-47951661D01*
X157674427Y-48058808D01*
X157674422Y-48058812D01*
X157496761Y-48197092D01*
X157496756Y-48197097D01*
X157344284Y-48362723D01*
X157344276Y-48362734D01*
X157253808Y-48501206D01*
X157200662Y-48546562D01*
X157131431Y-48555986D01*
X157068095Y-48526484D01*
X157046192Y-48501206D01*
X156955723Y-48362734D01*
X156955715Y-48362723D01*
X156803243Y-48197097D01*
X156803238Y-48197092D01*
X156625577Y-48058812D01*
X156625572Y-48058808D01*
X156427580Y-47951661D01*
X156427577Y-47951659D01*
X156427574Y-47951658D01*
X156427571Y-47951657D01*
X156427569Y-47951656D01*
X156214637Y-47878556D01*
X155992569Y-47841500D01*
X155767431Y-47841500D01*
X155545362Y-47878556D01*
X155332430Y-47951656D01*
X155332419Y-47951661D01*
X155134427Y-48058808D01*
X155134422Y-48058812D01*
X154956761Y-48197092D01*
X154956756Y-48197097D01*
X154804284Y-48362723D01*
X154804276Y-48362734D01*
X154713808Y-48501206D01*
X154660662Y-48546562D01*
X154591431Y-48555986D01*
X154528095Y-48526484D01*
X154506192Y-48501206D01*
X154415723Y-48362734D01*
X154415715Y-48362723D01*
X154263243Y-48197097D01*
X154263238Y-48197092D01*
X154085577Y-48058812D01*
X154085572Y-48058808D01*
X153887580Y-47951661D01*
X153887577Y-47951659D01*
X153887574Y-47951658D01*
X153887571Y-47951657D01*
X153887569Y-47951656D01*
X153674637Y-47878556D01*
X153452569Y-47841500D01*
X153227431Y-47841500D01*
X153005362Y-47878556D01*
X152792430Y-47951656D01*
X152792419Y-47951661D01*
X152594427Y-48058808D01*
X152594422Y-48058812D01*
X152416761Y-48197092D01*
X152416756Y-48197097D01*
X152264284Y-48362723D01*
X152264276Y-48362734D01*
X152173808Y-48501206D01*
X152120662Y-48546562D01*
X152051431Y-48555986D01*
X151988095Y-48526484D01*
X151966192Y-48501206D01*
X151875723Y-48362734D01*
X151875715Y-48362723D01*
X151723243Y-48197097D01*
X151723238Y-48197092D01*
X151545577Y-48058812D01*
X151545572Y-48058808D01*
X151347580Y-47951661D01*
X151347577Y-47951659D01*
X151347574Y-47951658D01*
X151347571Y-47951657D01*
X151347569Y-47951656D01*
X151134637Y-47878556D01*
X150912569Y-47841500D01*
X150687431Y-47841500D01*
X150465362Y-47878556D01*
X150252430Y-47951656D01*
X150252419Y-47951661D01*
X150054427Y-48058808D01*
X150054422Y-48058812D01*
X149876761Y-48197092D01*
X149876756Y-48197097D01*
X149724284Y-48362723D01*
X149724276Y-48362734D01*
X149633808Y-48501206D01*
X149580662Y-48546562D01*
X149511431Y-48555986D01*
X149448095Y-48526484D01*
X149426192Y-48501206D01*
X149335723Y-48362734D01*
X149335715Y-48362723D01*
X149183243Y-48197097D01*
X149183238Y-48197092D01*
X149005577Y-48058812D01*
X149005572Y-48058808D01*
X148807580Y-47951661D01*
X148807577Y-47951659D01*
X148807574Y-47951658D01*
X148807571Y-47951657D01*
X148807569Y-47951656D01*
X148594637Y-47878556D01*
X148372569Y-47841500D01*
X148147431Y-47841500D01*
X147925362Y-47878556D01*
X147712430Y-47951656D01*
X147712419Y-47951661D01*
X147514427Y-48058808D01*
X147514422Y-48058812D01*
X147336761Y-48197092D01*
X147273548Y-48265760D01*
X147213661Y-48301750D01*
X147143823Y-48299649D01*
X147086207Y-48260124D01*
X147066138Y-48225110D01*
X147020889Y-48103796D01*
X146987214Y-48058812D01*
X146933261Y-47986739D01*
X146816204Y-47899111D01*
X146679203Y-47848011D01*
X146618654Y-47841500D01*
X146618638Y-47841500D01*
X144821362Y-47841500D01*
X144821345Y-47841500D01*
X144760797Y-47848011D01*
X144760795Y-47848011D01*
X144623795Y-47899111D01*
X144506739Y-47986739D01*
X144419111Y-48103795D01*
X144368011Y-48240795D01*
X144368011Y-48240797D01*
X144361500Y-48301345D01*
X144361500Y-50098654D01*
X144368011Y-50159202D01*
X144368011Y-50159204D01*
X144406305Y-50261871D01*
X144419111Y-50296204D01*
X144506739Y-50413261D01*
X144623796Y-50500889D01*
X144760799Y-50551989D01*
X144788050Y-50554918D01*
X144821345Y-50558499D01*
X144821362Y-50558500D01*
X145706234Y-50558500D01*
X145773273Y-50578185D01*
X145819028Y-50630989D01*
X145828972Y-50700147D01*
X145799947Y-50763703D01*
X145793915Y-50770181D01*
X145183915Y-51380181D01*
X145122592Y-51413666D01*
X145096234Y-51416500D01*
X131552601Y-51416500D01*
X131430222Y-51440843D01*
X131430214Y-51440845D01*
X131314927Y-51488598D01*
X131314918Y-51488603D01*
X131211167Y-51557928D01*
X131211163Y-51557931D01*
X128536394Y-54232700D01*
X128475071Y-54266185D01*
X128408450Y-54262300D01*
X128386954Y-54254920D01*
X128195730Y-54223011D01*
X128156712Y-54216500D01*
X127923288Y-54216500D01*
X127884270Y-54223011D01*
X127693045Y-54254920D01*
X127472280Y-54330710D01*
X127472266Y-54330716D01*
X127266988Y-54441806D01*
X127266985Y-54441808D01*
X127082781Y-54585181D01*
X127079010Y-54588653D01*
X127078290Y-54587871D01*
X127022899Y-54621147D01*
X126953061Y-54619034D01*
X126895452Y-54579500D01*
X126875397Y-54544503D01*
X126866072Y-54519503D01*
X126850889Y-54478796D01*
X126763261Y-54361739D01*
X126646204Y-54274111D01*
X126604618Y-54258600D01*
X126509203Y-54223011D01*
X126448654Y-54216500D01*
X126448638Y-54216500D01*
X124551362Y-54216500D01*
X124551345Y-54216500D01*
X124490797Y-54223011D01*
X124490795Y-54223011D01*
X124353795Y-54274111D01*
X124236739Y-54361739D01*
X124149111Y-54478795D01*
X124098011Y-54615795D01*
X124098011Y-54615797D01*
X124091500Y-54676345D01*
X124091500Y-54967500D01*
X124071815Y-55034539D01*
X124019011Y-55080294D01*
X123967500Y-55091500D01*
X121343352Y-55091500D01*
X121276313Y-55071815D01*
X121241779Y-55038626D01*
X121131198Y-54880700D01*
X120969300Y-54718802D01*
X120781749Y-54587477D01*
X120781745Y-54587475D01*
X120574249Y-54490718D01*
X120574238Y-54490714D01*
X120353089Y-54431457D01*
X120353081Y-54431456D01*
X120125002Y-54411502D01*
X120124998Y-54411502D01*
X119896918Y-54431456D01*
X119896910Y-54431457D01*
X119675761Y-54490714D01*
X119675750Y-54490718D01*
X119468254Y-54587475D01*
X119468252Y-54587476D01*
X119427809Y-54615795D01*
X119280700Y-54718802D01*
X119280698Y-54718803D01*
X119280695Y-54718806D01*
X119118806Y-54880695D01*
X118987476Y-55068252D01*
X118987475Y-55068254D01*
X118890718Y-55275750D01*
X118890714Y-55275761D01*
X118831457Y-55496910D01*
X118831456Y-55496918D01*
X118811502Y-55724998D01*
X118811502Y-55725001D01*
X118831456Y-55953081D01*
X118831457Y-55953089D01*
X118890714Y-56174238D01*
X118890718Y-56174249D01*
X118981104Y-56368083D01*
X118987477Y-56381749D01*
X119118802Y-56569300D01*
X119280700Y-56731198D01*
X119468251Y-56862523D01*
X119566850Y-56908500D01*
X119675750Y-56959281D01*
X119675752Y-56959281D01*
X119675757Y-56959284D01*
X119896913Y-57018543D01*
X120059832Y-57032796D01*
X120124998Y-57038498D01*
X120125000Y-57038498D01*
X120125002Y-57038498D01*
X120182139Y-57033499D01*
X120353087Y-57018543D01*
X120574243Y-56959284D01*
X120781749Y-56862523D01*
X120969300Y-56731198D01*
X121131198Y-56569300D01*
X121241779Y-56411374D01*
X121296354Y-56367751D01*
X121343352Y-56358500D01*
X123967500Y-56358500D01*
X124034539Y-56378185D01*
X124080294Y-56430989D01*
X124091500Y-56482500D01*
X124091500Y-56573654D01*
X124098011Y-56634202D01*
X124098011Y-56634204D01*
X124134189Y-56731198D01*
X124149111Y-56771204D01*
X124236739Y-56888261D01*
X124353796Y-56975889D01*
X124490799Y-57026989D01*
X124518050Y-57029918D01*
X124551345Y-57033499D01*
X124551362Y-57033500D01*
X126448638Y-57033500D01*
X126448654Y-57033499D01*
X126475692Y-57030591D01*
X126509201Y-57026989D01*
X126646204Y-56975889D01*
X126763261Y-56888261D01*
X126850889Y-56771204D01*
X126875397Y-56705495D01*
X126917268Y-56649563D01*
X126982733Y-56625147D01*
X127051005Y-56639999D01*
X127078724Y-56661656D01*
X127079010Y-56661347D01*
X127082774Y-56664811D01*
X127082780Y-56664818D01*
X127266983Y-56808190D01*
X127266985Y-56808191D01*
X127266988Y-56808193D01*
X127345882Y-56850888D01*
X127472273Y-56919287D01*
X127564323Y-56950888D01*
X127693045Y-56995079D01*
X127693047Y-56995079D01*
X127693049Y-56995080D01*
X127923288Y-57033500D01*
X127923289Y-57033500D01*
X128156711Y-57033500D01*
X128156712Y-57033500D01*
X128386951Y-56995080D01*
X128607727Y-56919287D01*
X128813017Y-56808190D01*
X128997220Y-56664818D01*
X129155314Y-56493083D01*
X129282984Y-56297669D01*
X129376749Y-56083907D01*
X129434051Y-55857626D01*
X129445041Y-55724998D01*
X129453327Y-55625005D01*
X129453327Y-55624994D01*
X129434052Y-55392382D01*
X129434050Y-55392370D01*
X129397694Y-55248804D01*
X129400319Y-55178984D01*
X129430217Y-55130685D01*
X131841085Y-52719819D01*
X131902408Y-52686334D01*
X131928766Y-52683500D01*
X139221233Y-52683500D01*
X139288272Y-52703185D01*
X139334027Y-52755989D01*
X139343971Y-52825147D01*
X139314946Y-52888703D01*
X139308914Y-52895181D01*
X138000227Y-54203866D01*
X137938904Y-54237351D01*
X137872286Y-54233467D01*
X137861954Y-54229920D01*
X137861956Y-54229920D01*
X137670085Y-54197903D01*
X137631712Y-54191500D01*
X137398288Y-54191500D01*
X137359270Y-54198011D01*
X137168045Y-54229920D01*
X136947280Y-54305710D01*
X136947266Y-54305716D01*
X136741988Y-54416806D01*
X136741985Y-54416808D01*
X136557781Y-54560181D01*
X136554010Y-54563653D01*
X136553290Y-54562871D01*
X136497899Y-54596147D01*
X136428061Y-54594034D01*
X136370452Y-54554500D01*
X136350397Y-54519503D01*
X136340897Y-54494034D01*
X136325889Y-54453796D01*
X136238261Y-54336739D01*
X136121204Y-54249111D01*
X136088034Y-54236739D01*
X135984203Y-54198011D01*
X135923654Y-54191500D01*
X135923638Y-54191500D01*
X134026362Y-54191500D01*
X134026345Y-54191500D01*
X133965797Y-54198011D01*
X133965795Y-54198011D01*
X133828795Y-54249111D01*
X133711739Y-54336739D01*
X133624111Y-54453795D01*
X133573011Y-54590795D01*
X133573011Y-54590797D01*
X133566500Y-54651345D01*
X133566500Y-56061233D01*
X133546815Y-56128272D01*
X133530181Y-56148914D01*
X132123915Y-57555181D01*
X132062592Y-57588666D01*
X132036234Y-57591500D01*
X122887601Y-57591500D01*
X122765222Y-57615843D01*
X122765214Y-57615845D01*
X122649927Y-57663598D01*
X122649918Y-57663603D01*
X122546167Y-57732928D01*
X122546163Y-57732931D01*
X120293770Y-59985324D01*
X120232447Y-60018809D01*
X120173998Y-60017418D01*
X120133097Y-60006459D01*
X120133089Y-60006457D01*
X120133087Y-60006457D01*
X120133084Y-60006456D01*
X120133080Y-60006456D01*
X119905002Y-59986502D01*
X119904998Y-59986502D01*
X119676918Y-60006456D01*
X119676910Y-60006457D01*
X119455761Y-60065714D01*
X119455750Y-60065718D01*
X119248254Y-60162475D01*
X119248252Y-60162476D01*
X119206802Y-60191500D01*
X119060700Y-60293802D01*
X119060698Y-60293803D01*
X119060695Y-60293806D01*
X118898806Y-60455695D01*
X118767476Y-60643252D01*
X118767475Y-60643254D01*
X118670718Y-60850750D01*
X118670714Y-60850761D01*
X118611457Y-61071910D01*
X118611456Y-61071918D01*
X118591502Y-61299998D01*
X118591502Y-61300001D01*
X111049966Y-61300001D01*
X111049966Y-61299997D01*
X111030141Y-61073400D01*
X111030139Y-61073389D01*
X110971269Y-60853682D01*
X110971264Y-60853668D01*
X110875136Y-60647521D01*
X110875132Y-60647513D01*
X110824025Y-60574526D01*
X110145000Y-61253551D01*
X110145000Y-61247339D01*
X110117741Y-61145606D01*
X110065080Y-61054394D01*
X109990606Y-60979920D01*
X109899394Y-60927259D01*
X109797661Y-60900000D01*
X109791448Y-60900000D01*
X110470472Y-60220974D01*
X110397478Y-60169863D01*
X110191331Y-60073735D01*
X110191317Y-60073730D01*
X109971610Y-60014860D01*
X109971599Y-60014858D01*
X109745002Y-59995034D01*
X109744998Y-59995034D01*
X109518400Y-60014858D01*
X109518389Y-60014860D01*
X109298682Y-60073730D01*
X109298673Y-60073734D01*
X109092516Y-60169866D01*
X109092512Y-60169868D01*
X109019526Y-60220973D01*
X109019526Y-60220974D01*
X109698553Y-60900000D01*
X109692339Y-60900000D01*
X109590606Y-60927259D01*
X109499394Y-60979920D01*
X109424920Y-61054394D01*
X109372259Y-61145606D01*
X109345000Y-61247339D01*
X109345000Y-61253552D01*
X108665974Y-60574526D01*
X108665973Y-60574526D01*
X108614868Y-60647512D01*
X108614866Y-60647516D01*
X108518734Y-60853673D01*
X108518730Y-60853682D01*
X108459860Y-61073389D01*
X108459858Y-61073400D01*
X108440034Y-61299997D01*
X108440034Y-61300002D01*
X100075500Y-61300002D01*
X100075500Y-59997844D01*
X101550000Y-59997844D01*
X101556401Y-60057372D01*
X101556403Y-60057379D01*
X101606645Y-60192086D01*
X101606649Y-60192093D01*
X101692809Y-60307187D01*
X101692812Y-60307190D01*
X101807906Y-60393350D01*
X101807913Y-60393354D01*
X101942620Y-60443596D01*
X101942627Y-60443598D01*
X102002155Y-60449999D01*
X102002172Y-60450000D01*
X102650000Y-60450000D01*
X102650000Y-59533012D01*
X102707007Y-59565925D01*
X102834174Y-59600000D01*
X102965826Y-59600000D01*
X103092993Y-59565925D01*
X103150000Y-59533012D01*
X103150000Y-60450000D01*
X103797828Y-60450000D01*
X103797844Y-60449999D01*
X103857372Y-60443598D01*
X103857379Y-60443596D01*
X103992086Y-60393354D01*
X103992093Y-60393350D01*
X104107187Y-60307190D01*
X104107190Y-60307187D01*
X104193350Y-60192093D01*
X104193354Y-60192086D01*
X104243596Y-60057379D01*
X104243598Y-60057372D01*
X104249999Y-59997844D01*
X104250000Y-59997827D01*
X104250000Y-59350000D01*
X103333012Y-59350000D01*
X103365925Y-59292993D01*
X103400000Y-59165826D01*
X103400000Y-59034174D01*
X103365925Y-58907007D01*
X103333012Y-58850000D01*
X104250000Y-58850000D01*
X104250000Y-58202172D01*
X104249999Y-58202155D01*
X104243598Y-58142627D01*
X104243596Y-58142620D01*
X104193354Y-58007913D01*
X104193350Y-58007906D01*
X104107190Y-57892812D01*
X104107187Y-57892809D01*
X103992093Y-57806649D01*
X103992086Y-57806645D01*
X103857379Y-57756403D01*
X103857372Y-57756401D01*
X103797844Y-57750000D01*
X103150000Y-57750000D01*
X103150000Y-58666988D01*
X103092993Y-58634075D01*
X102965826Y-58600000D01*
X102834174Y-58600000D01*
X102707007Y-58634075D01*
X102650000Y-58666988D01*
X102650000Y-57750000D01*
X102002155Y-57750000D01*
X101942627Y-57756401D01*
X101942620Y-57756403D01*
X101807913Y-57806645D01*
X101807906Y-57806649D01*
X101692812Y-57892809D01*
X101692809Y-57892812D01*
X101606649Y-58007906D01*
X101606645Y-58007913D01*
X101556403Y-58142620D01*
X101556401Y-58142627D01*
X101550000Y-58202155D01*
X101550000Y-58850000D01*
X102466988Y-58850000D01*
X102434075Y-58907007D01*
X102400000Y-59034174D01*
X102400000Y-59165826D01*
X102434075Y-59292993D01*
X102466988Y-59350000D01*
X101550000Y-59350000D01*
X101550000Y-59997844D01*
X100075500Y-59997844D01*
X100075500Y-55474999D01*
X108686127Y-55474999D01*
X108686128Y-55475000D01*
X109649314Y-55475000D01*
X109644920Y-55479394D01*
X109592259Y-55570606D01*
X109565000Y-55672339D01*
X109565000Y-55777661D01*
X109592259Y-55879394D01*
X109644920Y-55970606D01*
X109649314Y-55975000D01*
X108686128Y-55975000D01*
X108738730Y-56171317D01*
X108738734Y-56171326D01*
X108834865Y-56377482D01*
X108965342Y-56563820D01*
X109126179Y-56724657D01*
X109312517Y-56855134D01*
X109518673Y-56951265D01*
X109518682Y-56951269D01*
X109714999Y-57003872D01*
X109715000Y-57003871D01*
X109715000Y-56040686D01*
X109719394Y-56045080D01*
X109810606Y-56097741D01*
X109912339Y-56125000D01*
X110017661Y-56125000D01*
X110119394Y-56097741D01*
X110210606Y-56045080D01*
X110215000Y-56040686D01*
X110215000Y-57003872D01*
X110411317Y-56951269D01*
X110411326Y-56951265D01*
X110617482Y-56855134D01*
X110803820Y-56724657D01*
X110964657Y-56563820D01*
X111095134Y-56377482D01*
X111191265Y-56171326D01*
X111191269Y-56171317D01*
X111243872Y-55975000D01*
X110280686Y-55975000D01*
X110285080Y-55970606D01*
X110337741Y-55879394D01*
X110365000Y-55777661D01*
X110365000Y-55672339D01*
X110337741Y-55570606D01*
X110285080Y-55479394D01*
X110280686Y-55475000D01*
X111243872Y-55475000D01*
X111243872Y-55474999D01*
X111191269Y-55278682D01*
X111191265Y-55278673D01*
X111095134Y-55072517D01*
X110964657Y-54886179D01*
X110803820Y-54725342D01*
X110617482Y-54594865D01*
X110411328Y-54498734D01*
X110215000Y-54446127D01*
X110215000Y-55409314D01*
X110210606Y-55404920D01*
X110119394Y-55352259D01*
X110017661Y-55325000D01*
X109912339Y-55325000D01*
X109810606Y-55352259D01*
X109719394Y-55404920D01*
X109715000Y-55409314D01*
X109715000Y-54446127D01*
X109518671Y-54498734D01*
X109312517Y-54594865D01*
X109126179Y-54725342D01*
X108965342Y-54886179D01*
X108834865Y-55072517D01*
X108738734Y-55278673D01*
X108738730Y-55278682D01*
X108686127Y-55474999D01*
X100075500Y-55474999D01*
X100075500Y-53298654D01*
X101466500Y-53298654D01*
X101473011Y-53359202D01*
X101473011Y-53359204D01*
X101500723Y-53433500D01*
X101524111Y-53496204D01*
X101611739Y-53613261D01*
X101728796Y-53700889D01*
X101865799Y-53751989D01*
X101893050Y-53754918D01*
X101926345Y-53758499D01*
X101926362Y-53758500D01*
X103723638Y-53758500D01*
X103723654Y-53758499D01*
X103750692Y-53755591D01*
X103784201Y-53751989D01*
X103921204Y-53700889D01*
X104038261Y-53613261D01*
X104125889Y-53496204D01*
X104171555Y-53373768D01*
X104176988Y-53359204D01*
X104176988Y-53359203D01*
X104176989Y-53359201D01*
X104180591Y-53325692D01*
X104183499Y-53298654D01*
X104183500Y-53298637D01*
X104183500Y-51501362D01*
X104183499Y-51501345D01*
X104180157Y-51470270D01*
X104176989Y-51440799D01*
X104125889Y-51303796D01*
X104038261Y-51186739D01*
X103921204Y-51099111D01*
X103784203Y-51048011D01*
X103723654Y-51041500D01*
X103723638Y-51041500D01*
X101926362Y-51041500D01*
X101926345Y-51041500D01*
X101865797Y-51048011D01*
X101865795Y-51048011D01*
X101728795Y-51099111D01*
X101611739Y-51186739D01*
X101524111Y-51303795D01*
X101473011Y-51440795D01*
X101473011Y-51440797D01*
X101466500Y-51501345D01*
X101466500Y-53298654D01*
X100075500Y-53298654D01*
X100075500Y-50098654D01*
X117437500Y-50098654D01*
X117444011Y-50159202D01*
X117444011Y-50159204D01*
X117482305Y-50261871D01*
X117495111Y-50296204D01*
X117582739Y-50413261D01*
X117699796Y-50500889D01*
X117836799Y-50551989D01*
X117864050Y-50554918D01*
X117897345Y-50558499D01*
X117897362Y-50558500D01*
X119694638Y-50558500D01*
X119694654Y-50558499D01*
X119721692Y-50555591D01*
X119755201Y-50551989D01*
X119892204Y-50500889D01*
X120009261Y-50413261D01*
X120096889Y-50296204D01*
X120142138Y-50174887D01*
X120184009Y-50118956D01*
X120249474Y-50094539D01*
X120317746Y-50109391D01*
X120349545Y-50134236D01*
X120412760Y-50202906D01*
X120590424Y-50341189D01*
X120590425Y-50341189D01*
X120590427Y-50341191D01*
X120639486Y-50367740D01*
X120788426Y-50448342D01*
X121001365Y-50521444D01*
X121223431Y-50558500D01*
X121448569Y-50558500D01*
X121670635Y-50521444D01*
X121883574Y-50448342D01*
X122081576Y-50341189D01*
X122259240Y-50202906D01*
X122380594Y-50071082D01*
X122411715Y-50037276D01*
X122411715Y-50037275D01*
X122411722Y-50037268D01*
X122502193Y-49898790D01*
X122555338Y-49853437D01*
X122624569Y-49844013D01*
X122687905Y-49873515D01*
X122709804Y-49898787D01*
X122800278Y-50037268D01*
X122800283Y-50037273D01*
X122800284Y-50037276D01*
X122952756Y-50202902D01*
X122952760Y-50202906D01*
X123130424Y-50341189D01*
X123130425Y-50341189D01*
X123130427Y-50341191D01*
X123179486Y-50367740D01*
X123328426Y-50448342D01*
X123541365Y-50521444D01*
X123763431Y-50558500D01*
X123988569Y-50558500D01*
X124210635Y-50521444D01*
X124423574Y-50448342D01*
X124621576Y-50341189D01*
X124799240Y-50202906D01*
X124920594Y-50071082D01*
X124951715Y-50037276D01*
X124951715Y-50037275D01*
X124951722Y-50037268D01*
X125045749Y-49893347D01*
X125098894Y-49847994D01*
X125168125Y-49838570D01*
X125231461Y-49868072D01*
X125251130Y-49890048D01*
X125377890Y-50071078D01*
X125544917Y-50238105D01*
X125738421Y-50373600D01*
X125952507Y-50473429D01*
X125952516Y-50473433D01*
X126166000Y-50530634D01*
X126166000Y-49633012D01*
X126223007Y-49665925D01*
X126350174Y-49700000D01*
X126481826Y-49700000D01*
X126608993Y-49665925D01*
X126666000Y-49633012D01*
X126666000Y-50530633D01*
X126879483Y-50473433D01*
X126879492Y-50473429D01*
X127093578Y-50373600D01*
X127287082Y-50238105D01*
X127454105Y-50071082D01*
X127580868Y-49890048D01*
X127635445Y-49846423D01*
X127704944Y-49839231D01*
X127767298Y-49870753D01*
X127786251Y-49893350D01*
X127880276Y-50037265D01*
X127880284Y-50037276D01*
X128032756Y-50202902D01*
X128032760Y-50202906D01*
X128210424Y-50341189D01*
X128210425Y-50341189D01*
X128210427Y-50341191D01*
X128259486Y-50367740D01*
X128408426Y-50448342D01*
X128621365Y-50521444D01*
X128843431Y-50558500D01*
X129068569Y-50558500D01*
X129290635Y-50521444D01*
X129503574Y-50448342D01*
X129701576Y-50341189D01*
X129879240Y-50202906D01*
X130000594Y-50071082D01*
X130031715Y-50037276D01*
X130031715Y-50037275D01*
X130031722Y-50037268D01*
X130122193Y-49898790D01*
X130175338Y-49853437D01*
X130244569Y-49844013D01*
X130307905Y-49873515D01*
X130329804Y-49898787D01*
X130420278Y-50037268D01*
X130420283Y-50037273D01*
X130420284Y-50037276D01*
X130572756Y-50202902D01*
X130572760Y-50202906D01*
X130750424Y-50341189D01*
X130750425Y-50341189D01*
X130750427Y-50341191D01*
X130799486Y-50367740D01*
X130948426Y-50448342D01*
X131161365Y-50521444D01*
X131383431Y-50558500D01*
X131608569Y-50558500D01*
X131830635Y-50521444D01*
X132043574Y-50448342D01*
X132241576Y-50341189D01*
X132419240Y-50202906D01*
X132540594Y-50071082D01*
X132571715Y-50037276D01*
X132571715Y-50037275D01*
X132571722Y-50037268D01*
X132662193Y-49898790D01*
X132715338Y-49853437D01*
X132784569Y-49844013D01*
X132847905Y-49873515D01*
X132869804Y-49898787D01*
X132960278Y-50037268D01*
X132960283Y-50037273D01*
X132960284Y-50037276D01*
X133112756Y-50202902D01*
X133112760Y-50202906D01*
X133290424Y-50341189D01*
X133290425Y-50341189D01*
X133290427Y-50341191D01*
X133339486Y-50367740D01*
X133488426Y-50448342D01*
X133701365Y-50521444D01*
X133923431Y-50558500D01*
X134148569Y-50558500D01*
X134370635Y-50521444D01*
X134583574Y-50448342D01*
X134781576Y-50341189D01*
X134959240Y-50202906D01*
X135080594Y-50071082D01*
X135111715Y-50037276D01*
X135111715Y-50037275D01*
X135111722Y-50037268D01*
X135202193Y-49898790D01*
X135255338Y-49853437D01*
X135324569Y-49844013D01*
X135387905Y-49873515D01*
X135409804Y-49898787D01*
X135500278Y-50037268D01*
X135500283Y-50037273D01*
X135500284Y-50037276D01*
X135652756Y-50202902D01*
X135652760Y-50202906D01*
X135830424Y-50341189D01*
X135830425Y-50341189D01*
X135830427Y-50341191D01*
X135879486Y-50367740D01*
X136028426Y-50448342D01*
X136241365Y-50521444D01*
X136463431Y-50558500D01*
X136688569Y-50558500D01*
X136910635Y-50521444D01*
X137123574Y-50448342D01*
X137321576Y-50341189D01*
X137499240Y-50202906D01*
X137620594Y-50071082D01*
X137651715Y-50037276D01*
X137651715Y-50037275D01*
X137651722Y-50037268D01*
X137742193Y-49898790D01*
X137795338Y-49853437D01*
X137864569Y-49844013D01*
X137927905Y-49873515D01*
X137949804Y-49898787D01*
X138040278Y-50037268D01*
X138040283Y-50037273D01*
X138040284Y-50037276D01*
X138192756Y-50202902D01*
X138192760Y-50202906D01*
X138370424Y-50341189D01*
X138370425Y-50341189D01*
X138370427Y-50341191D01*
X138419486Y-50367740D01*
X138568426Y-50448342D01*
X138781365Y-50521444D01*
X139003431Y-50558500D01*
X139228569Y-50558500D01*
X139450635Y-50521444D01*
X139663574Y-50448342D01*
X139861576Y-50341189D01*
X140039240Y-50202906D01*
X140160594Y-50071082D01*
X140191715Y-50037276D01*
X140191715Y-50037275D01*
X140191722Y-50037268D01*
X140282193Y-49898790D01*
X140335338Y-49853437D01*
X140404569Y-49844013D01*
X140467905Y-49873515D01*
X140489804Y-49898787D01*
X140580278Y-50037268D01*
X140580283Y-50037273D01*
X140580284Y-50037276D01*
X140732756Y-50202902D01*
X140732760Y-50202906D01*
X140910424Y-50341189D01*
X140910425Y-50341189D01*
X140910427Y-50341191D01*
X140959486Y-50367740D01*
X141108426Y-50448342D01*
X141321365Y-50521444D01*
X141543431Y-50558500D01*
X141768569Y-50558500D01*
X141990635Y-50521444D01*
X142203574Y-50448342D01*
X142401576Y-50341189D01*
X142579240Y-50202906D01*
X142700594Y-50071082D01*
X142731715Y-50037276D01*
X142731717Y-50037273D01*
X142731722Y-50037268D01*
X142854860Y-49848791D01*
X142945296Y-49642616D01*
X143000564Y-49424368D01*
X143012309Y-49282635D01*
X143019156Y-49200005D01*
X143019156Y-49199994D01*
X143000565Y-48975640D01*
X143000563Y-48975628D01*
X142945296Y-48757385D01*
X142935071Y-48734075D01*
X142854860Y-48551209D01*
X142838706Y-48526484D01*
X142731723Y-48362734D01*
X142731715Y-48362723D01*
X142579243Y-48197097D01*
X142579238Y-48197092D01*
X142401577Y-48058812D01*
X142401572Y-48058808D01*
X142203580Y-47951661D01*
X142203577Y-47951659D01*
X142203574Y-47951658D01*
X142203571Y-47951657D01*
X142203569Y-47951656D01*
X141990637Y-47878556D01*
X141768569Y-47841500D01*
X141543431Y-47841500D01*
X141321362Y-47878556D01*
X141108430Y-47951656D01*
X141108419Y-47951661D01*
X140910427Y-48058808D01*
X140910422Y-48058812D01*
X140732761Y-48197092D01*
X140732756Y-48197097D01*
X140580284Y-48362723D01*
X140580276Y-48362734D01*
X140489808Y-48501206D01*
X140436662Y-48546562D01*
X140367431Y-48555986D01*
X140304095Y-48526484D01*
X140282192Y-48501206D01*
X140191723Y-48362734D01*
X140191715Y-48362723D01*
X140039243Y-48197097D01*
X140039238Y-48197092D01*
X139861577Y-48058812D01*
X139861572Y-48058808D01*
X139663580Y-47951661D01*
X139663577Y-47951659D01*
X139663574Y-47951658D01*
X139663571Y-47951657D01*
X139663569Y-47951656D01*
X139450637Y-47878556D01*
X139228569Y-47841500D01*
X139003431Y-47841500D01*
X138781362Y-47878556D01*
X138568430Y-47951656D01*
X138568419Y-47951661D01*
X138370427Y-48058808D01*
X138370422Y-48058812D01*
X138192761Y-48197092D01*
X138192756Y-48197097D01*
X138040284Y-48362723D01*
X138040276Y-48362734D01*
X137949808Y-48501206D01*
X137896662Y-48546562D01*
X137827431Y-48555986D01*
X137764095Y-48526484D01*
X137742192Y-48501206D01*
X137651723Y-48362734D01*
X137651715Y-48362723D01*
X137499243Y-48197097D01*
X137499238Y-48197092D01*
X137321577Y-48058812D01*
X137321572Y-48058808D01*
X137123580Y-47951661D01*
X137123577Y-47951659D01*
X137123574Y-47951658D01*
X137123571Y-47951657D01*
X137123569Y-47951656D01*
X136910637Y-47878556D01*
X136688569Y-47841500D01*
X136463431Y-47841500D01*
X136241362Y-47878556D01*
X136028430Y-47951656D01*
X136028419Y-47951661D01*
X135830427Y-48058808D01*
X135830422Y-48058812D01*
X135652761Y-48197092D01*
X135652756Y-48197097D01*
X135500284Y-48362723D01*
X135500276Y-48362734D01*
X135409808Y-48501206D01*
X135356662Y-48546562D01*
X135287431Y-48555986D01*
X135224095Y-48526484D01*
X135202192Y-48501206D01*
X135111723Y-48362734D01*
X135111715Y-48362723D01*
X134959243Y-48197097D01*
X134959238Y-48197092D01*
X134781577Y-48058812D01*
X134781572Y-48058808D01*
X134583580Y-47951661D01*
X134583577Y-47951659D01*
X134583574Y-47951658D01*
X134583571Y-47951657D01*
X134583569Y-47951656D01*
X134370637Y-47878556D01*
X134148569Y-47841500D01*
X133923431Y-47841500D01*
X133701362Y-47878556D01*
X133488430Y-47951656D01*
X133488419Y-47951661D01*
X133290427Y-48058808D01*
X133290422Y-48058812D01*
X133112761Y-48197092D01*
X133112756Y-48197097D01*
X132960284Y-48362723D01*
X132960276Y-48362734D01*
X132869808Y-48501206D01*
X132816662Y-48546562D01*
X132747431Y-48555986D01*
X132684095Y-48526484D01*
X132662192Y-48501206D01*
X132571723Y-48362734D01*
X132571715Y-48362723D01*
X132419243Y-48197097D01*
X132419238Y-48197092D01*
X132241577Y-48058812D01*
X132241572Y-48058808D01*
X132043580Y-47951661D01*
X132043577Y-47951659D01*
X132043574Y-47951658D01*
X132043571Y-47951657D01*
X132043569Y-47951656D01*
X131830637Y-47878556D01*
X131608569Y-47841500D01*
X131383431Y-47841500D01*
X131161362Y-47878556D01*
X130948430Y-47951656D01*
X130948419Y-47951661D01*
X130750427Y-48058808D01*
X130750422Y-48058812D01*
X130572761Y-48197092D01*
X130572756Y-48197097D01*
X130420284Y-48362723D01*
X130420276Y-48362734D01*
X130329808Y-48501206D01*
X130276662Y-48546562D01*
X130207431Y-48555986D01*
X130144095Y-48526484D01*
X130122192Y-48501206D01*
X130031723Y-48362734D01*
X130031715Y-48362723D01*
X129879243Y-48197097D01*
X129879238Y-48197092D01*
X129701577Y-48058812D01*
X129701572Y-48058808D01*
X129503580Y-47951661D01*
X129503577Y-47951659D01*
X129503574Y-47951658D01*
X129503571Y-47951657D01*
X129503569Y-47951656D01*
X129290637Y-47878556D01*
X129068569Y-47841500D01*
X128843431Y-47841500D01*
X128621362Y-47878556D01*
X128408430Y-47951656D01*
X128408419Y-47951661D01*
X128210427Y-48058808D01*
X128210422Y-48058812D01*
X128032761Y-48197092D01*
X128032756Y-48197097D01*
X127880284Y-48362723D01*
X127880276Y-48362734D01*
X127786251Y-48506650D01*
X127733105Y-48552007D01*
X127663873Y-48561430D01*
X127600538Y-48531928D01*
X127580868Y-48509951D01*
X127454113Y-48328926D01*
X127454108Y-48328920D01*
X127287082Y-48161894D01*
X127093578Y-48026399D01*
X126879492Y-47926570D01*
X126879486Y-47926567D01*
X126666000Y-47869364D01*
X126666000Y-48766988D01*
X126608993Y-48734075D01*
X126481826Y-48700000D01*
X126350174Y-48700000D01*
X126223007Y-48734075D01*
X126166000Y-48766988D01*
X126166000Y-47869364D01*
X126165999Y-47869364D01*
X125952513Y-47926567D01*
X125952507Y-47926570D01*
X125738422Y-48026399D01*
X125738420Y-48026400D01*
X125544926Y-48161886D01*
X125544920Y-48161891D01*
X125377891Y-48328920D01*
X125377890Y-48328922D01*
X125251131Y-48509952D01*
X125196554Y-48553577D01*
X125127055Y-48560769D01*
X125064701Y-48529247D01*
X125045752Y-48506656D01*
X124951722Y-48362732D01*
X124951715Y-48362725D01*
X124951715Y-48362723D01*
X124799243Y-48197097D01*
X124799238Y-48197092D01*
X124621577Y-48058812D01*
X124621572Y-48058808D01*
X124423580Y-47951661D01*
X124423577Y-47951659D01*
X124423574Y-47951658D01*
X124423571Y-47951657D01*
X124423569Y-47951656D01*
X124210637Y-47878556D01*
X123988569Y-47841500D01*
X123763431Y-47841500D01*
X123541362Y-47878556D01*
X123328430Y-47951656D01*
X123328419Y-47951661D01*
X123130427Y-48058808D01*
X123130422Y-48058812D01*
X122952761Y-48197092D01*
X122952756Y-48197097D01*
X122800284Y-48362723D01*
X122800276Y-48362734D01*
X122709808Y-48501206D01*
X122656662Y-48546562D01*
X122587431Y-48555986D01*
X122524095Y-48526484D01*
X122502192Y-48501206D01*
X122411723Y-48362734D01*
X122411715Y-48362723D01*
X122259243Y-48197097D01*
X122259238Y-48197092D01*
X122081577Y-48058812D01*
X122081572Y-48058808D01*
X121883580Y-47951661D01*
X121883577Y-47951659D01*
X121883574Y-47951658D01*
X121883571Y-47951657D01*
X121883569Y-47951656D01*
X121670637Y-47878556D01*
X121448569Y-47841500D01*
X121223431Y-47841500D01*
X121001362Y-47878556D01*
X120788430Y-47951656D01*
X120788419Y-47951661D01*
X120590427Y-48058808D01*
X120590422Y-48058812D01*
X120412761Y-48197092D01*
X120349548Y-48265760D01*
X120289661Y-48301750D01*
X120219823Y-48299649D01*
X120162207Y-48260124D01*
X120142138Y-48225110D01*
X120096889Y-48103796D01*
X120063214Y-48058812D01*
X120009261Y-47986739D01*
X119892204Y-47899111D01*
X119755203Y-47848011D01*
X119694654Y-47841500D01*
X119694638Y-47841500D01*
X117897362Y-47841500D01*
X117897345Y-47841500D01*
X117836797Y-47848011D01*
X117836795Y-47848011D01*
X117699795Y-47899111D01*
X117582739Y-47986739D01*
X117495111Y-48103795D01*
X117444011Y-48240795D01*
X117444011Y-48240797D01*
X117437500Y-48301345D01*
X117437500Y-50098654D01*
X100075500Y-50098654D01*
X100075500Y-47428092D01*
X100076097Y-47415938D01*
X100087494Y-47300222D01*
X100092234Y-47276389D01*
X100124216Y-47170959D01*
X100133508Y-47148526D01*
X100185442Y-47051365D01*
X100198938Y-47031166D01*
X100268827Y-46946006D01*
X100286006Y-46928827D01*
X100371166Y-46858938D01*
X100391365Y-46845442D01*
X100488526Y-46793508D01*
X100510959Y-46784216D01*
X100616389Y-46752234D01*
X100640220Y-46747494D01*
X100755939Y-46736097D01*
X100768093Y-46735500D01*
X100786531Y-46735500D01*
X163417365Y-46735500D01*
X163484404Y-46755185D01*
G37*
%TD.AperFunction*%
%TD*%
M02*
