%TF.GenerationSoftware,KiCad,Pcbnew,8.0.1*%
%TF.CreationDate,2024-05-23T07:44:25+02:00*%
%TF.ProjectId,80_KiCad,38305f4b-6943-4616-942e-6b696361645f,v1.1*%
%TF.SameCoordinates,Original*%
%TF.FileFunction,Copper,L2,Inr*%
%TF.FilePolarity,Positive*%
%FSLAX46Y46*%
G04 Gerber Fmt 4.6, Leading zero omitted, Abs format (unit mm)*
G04 Created by KiCad (PCBNEW 8.0.1) date 2024-05-23 07:44:25*
%MOMM*%
%LPD*%
G01*
G04 APERTURE LIST*
%TA.AperFunction,ComponentPad*%
%ADD10C,1.800000*%
%TD*%
%TA.AperFunction,ComponentPad*%
%ADD11R,1.800000X1.800000*%
%TD*%
%TA.AperFunction,ComponentPad*%
%ADD12C,2.000000*%
%TD*%
%TA.AperFunction,ComponentPad*%
%ADD13R,1.600000X1.600000*%
%TD*%
%TA.AperFunction,ComponentPad*%
%ADD14O,1.600000X1.600000*%
%TD*%
%TA.AperFunction,ComponentPad*%
%ADD15C,1.600000*%
%TD*%
%TA.AperFunction,ComponentPad*%
%ADD16R,1.700000X1.700000*%
%TD*%
%TA.AperFunction,ComponentPad*%
%ADD17O,1.700000X1.700000*%
%TD*%
G04 APERTURE END LIST*
D10*
%TO.N,Orange*%
%TO.C,D2*%
X137515000Y-55600000D03*
D11*
%TO.N,Net-(D2-K)*%
X134975000Y-55600000D03*
%TD*%
D12*
%TO.N,Push Button*%
%TO.C,SW1*%
X162175000Y-58850000D03*
X155675000Y-58850000D03*
%TO.N,GND*%
X162175000Y-54350000D03*
X155675000Y-54350000D03*
%TD*%
D13*
%TO.N,unconnected-(U1-NC-Pad1)*%
%TO.C,U1*%
X130225000Y-63400000D03*
D14*
%TO.N,Net-(U1--)*%
X130225000Y-65940000D03*
%TO.N,Net-(U1-+)*%
X130225000Y-68480000D03*
%TO.N,GND*%
X130225000Y-71020000D03*
%TO.N,unconnected-(U1-NC-Pad5)*%
X137845000Y-71020000D03*
%TO.N,Net-(A1_Out1-Pad1)*%
X137845000Y-68480000D03*
%TO.N,VCC*%
X137845000Y-65940000D03*
%TO.N,unconnected-(U1-NC-Pad8)*%
X137845000Y-63400000D03*
%TD*%
D13*
%TO.N,Net-(U1-+)*%
%TO.C,C2*%
X124175000Y-77725000D03*
D15*
%TO.N,GND*%
X126175000Y-77725000D03*
%TD*%
D16*
%TO.N,VCC*%
%TO.C,VCC*%
X102825000Y-52400000D03*
%TD*%
%TO.N,GND*%
%TO.C,GND*%
X109875000Y-97125000D03*
%TD*%
D14*
%TO.N,Net-(D3-K)*%
%TO.C,R10*%
X119905000Y-66325000D03*
D15*
%TO.N,GND*%
X109745000Y-66325000D03*
%TD*%
D14*
%TO.N,Net-(D2-K)*%
%TO.C,R9*%
X119905000Y-61300000D03*
D15*
%TO.N,GND*%
X109745000Y-61300000D03*
%TD*%
D11*
%TO.N,Net-(D3-K)*%
%TO.C,D3*%
X145125000Y-55500000D03*
D10*
%TO.N,Green*%
X147665000Y-55500000D03*
%TD*%
D16*
%TO.N,Net-(U1-+)*%
%TO.C,A_In_P*%
X102825000Y-88325000D03*
%TD*%
%TO.N,Net-(U1--)*%
%TO.C,A1_In_N*%
X102725000Y-65350000D03*
%TD*%
D15*
%TO.N,Net-(U1--)*%
%TO.C,C5*%
X131200000Y-77975000D03*
%TO.N,Net-(A1_Out1-Pad1)*%
X136200000Y-77975000D03*
%TD*%
%TO.N,Net-(C3-Pad1)*%
%TO.C,R3*%
X147175000Y-72555000D03*
D14*
%TO.N,Net-(U1--)*%
X147175000Y-62395000D03*
%TD*%
%TO.N,Net-(U1-+)*%
%TO.C,R1*%
X119955000Y-71575000D03*
D15*
%TO.N,VCC*%
X109795000Y-71575000D03*
%TD*%
D13*
%TO.N,unconnected-(U2-NC-Pad1)*%
%TO.C,U2*%
X130050000Y-84125000D03*
D14*
%TO.N,Net-(U2--)*%
X130050000Y-86665000D03*
%TO.N,Net-(U1-+)*%
X130050000Y-89205000D03*
%TO.N,GND*%
X130050000Y-91745000D03*
%TO.N,unconnected-(U2-NC-Pad5)*%
X137670000Y-91745000D03*
%TO.N,Net-(A2_Out1-Pad1)*%
X137670000Y-89205000D03*
%TO.N,VCC*%
X137670000Y-86665000D03*
%TO.N,unconnected-(U2-NC-Pad8)*%
X137670000Y-84125000D03*
%TD*%
D16*
%TO.N,Vin*%
%TO.C,V_In1*%
X156700000Y-92750000D03*
%TD*%
%TO.N,GND*%
%TO.C,GND*%
X102600000Y-74900000D03*
%TD*%
%TO.N,GND*%
%TO.C,GND2*%
X164475000Y-92800000D03*
%TD*%
%TO.N,Vout*%
%TO.C,V_Out*%
X122225000Y-97325000D03*
%TD*%
D15*
%TO.N,Net-(C4-Pad2)*%
%TO.C,R5*%
X124675000Y-82520000D03*
D14*
%TO.N,Net-(U2--)*%
X124675000Y-92680000D03*
%TD*%
D16*
%TO.N,Net-(A2_Out1-Pad1)*%
%TO.C,A2_Out*%
X115750000Y-97200000D03*
%TD*%
D10*
%TO.N,Red*%
%TO.C,D1*%
X128040000Y-55625000D03*
D11*
%TO.N,Net-(D1-K)*%
X125500000Y-55625000D03*
%TD*%
D15*
%TO.N,Net-(U1-+)*%
%TO.C,C1*%
X120075000Y-90525000D03*
%TO.N,GND*%
X120075000Y-85525000D03*
%TD*%
D16*
%TO.N,Net-(A1_Out1-Pad1)*%
%TO.C,A1_Out*%
X102750000Y-82475000D03*
%TD*%
D15*
%TO.N,Net-(U2--)*%
%TO.C,R7*%
X152030000Y-85775000D03*
D14*
%TO.N,Net-(A2_Out1-Pad1)*%
X141870000Y-85775000D03*
%TD*%
D15*
%TO.N,Net-(D4-K)*%
%TO.C,R11*%
X156495000Y-80200000D03*
D14*
%TO.N,GND*%
X166655000Y-80200000D03*
%TD*%
D15*
%TO.N,Net-(U1--)*%
%TO.C,R4*%
X143400000Y-62345000D03*
D14*
%TO.N,Net-(A1_Out1-Pad1)*%
X143400000Y-72505000D03*
%TD*%
D15*
%TO.N,Net-(A2_Out1-Pad1)*%
%TO.C,R6*%
X141845000Y-91875000D03*
D14*
%TO.N,Vout*%
X152005000Y-91875000D03*
%TD*%
D15*
%TO.N,Net-(U1-+)*%
%TO.C,R2*%
X126200000Y-70980000D03*
D14*
%TO.N,GND*%
X126200000Y-60820000D03*
%TD*%
D16*
%TO.N,GND*%
%TO.C,GND*%
X102900000Y-59100000D03*
%TD*%
D13*
%TO.N,Net-(C3-Pad1)*%
%TO.C,C3*%
X151369888Y-70650000D03*
D15*
%TO.N,Vin*%
X153869888Y-70650000D03*
%TD*%
D11*
%TO.N,Net-(D4-K)*%
%TO.C,D4*%
X160750000Y-86050000D03*
D10*
%TO.N,VCC*%
X163290000Y-86050000D03*
%TD*%
D15*
%TO.N,Push Button*%
%TO.C,R12*%
X154545000Y-63875000D03*
D14*
%TO.N,VCC*%
X164705000Y-63875000D03*
%TD*%
D16*
%TO.N,Net-(U2--)*%
%TO.C,A2_In_N*%
X103200000Y-97025000D03*
%TD*%
D14*
%TO.N,GND*%
%TO.C,R8*%
X109965000Y-55725000D03*
D15*
%TO.N,Net-(D1-K)*%
X120125000Y-55725000D03*
%TD*%
%TO.N,Net-(U2--)*%
%TO.C,C6*%
X149175000Y-78400000D03*
%TO.N,Net-(A2_Out1-Pad1)*%
X144175000Y-78400000D03*
%TD*%
%TO.N,Net-(C4-Pad2)*%
%TO.C,C4*%
X118569888Y-77700000D03*
D13*
%TO.N,Net-(A1_Out1-Pad1)*%
X116069888Y-77700000D03*
%TD*%
D17*
%TO.N,VCC*%
%TO.C,J5*%
X157625000Y-68770000D03*
%TO.N,Vin*%
X157625000Y-71310000D03*
D16*
%TO.N,GND*%
X157625000Y-73850000D03*
%TD*%
%TO.N,unconnected-(J1-Pin_1-Pad1)*%
%TO.C,J1*%
X127940000Y-97460000D03*
D17*
%TO.N,/IOREF*%
X130480000Y-97460000D03*
%TO.N,/~{RESET}*%
X133020000Y-97460000D03*
%TO.N,unconnected-(J1-Pin_4-Pad4)*%
X135560000Y-97460000D03*
%TO.N,VCC*%
X138100000Y-97460000D03*
%TO.N,GND*%
X140640000Y-97460000D03*
X143180000Y-97460000D03*
%TO.N,unconnected-(J1-Pin_8-Pad8)*%
X145720000Y-97460000D03*
%TD*%
D16*
%TO.N,Vout*%
%TO.C,J3*%
X150800000Y-97460000D03*
D17*
%TO.N,/A1*%
X153340000Y-97460000D03*
%TO.N,/A2*%
X155880000Y-97460000D03*
%TO.N,/A3*%
X158420000Y-97460000D03*
%TO.N,/SDA{slash}A4*%
X160960000Y-97460000D03*
%TO.N,/SCL{slash}A5*%
X163500000Y-97460000D03*
%TD*%
D16*
%TO.N,unconnected-(J2-Pin_1-Pad1)*%
%TO.C,J2*%
X118796000Y-49200000D03*
D17*
%TO.N,unconnected-(J2-Pin_2-Pad2)*%
X121336000Y-49200000D03*
%TO.N,/AREF*%
X123876000Y-49200000D03*
%TO.N,GND*%
X126416000Y-49200000D03*
%TO.N,/13*%
X128956000Y-49200000D03*
%TO.N,/12*%
X131496000Y-49200000D03*
%TO.N,/\u002A11*%
X134036000Y-49200000D03*
%TO.N,/\u002A10*%
X136576000Y-49200000D03*
%TO.N,/\u002A9*%
X139116000Y-49200000D03*
%TO.N,/8*%
X141656000Y-49200000D03*
%TD*%
D16*
%TO.N,Push Button*%
%TO.C,J4*%
X145720000Y-49200000D03*
D17*
%TO.N,Red*%
X148260000Y-49200000D03*
%TO.N,Orange*%
X150800000Y-49200000D03*
%TO.N,Green*%
X153340000Y-49200000D03*
%TO.N,unconnected-(J4-Pin_5-Pad5)*%
X155880000Y-49200000D03*
%TO.N,/2*%
X158420000Y-49200000D03*
%TO.N,/TX{slash}1*%
X160960000Y-49200000D03*
%TO.N,/RX{slash}0*%
X163500000Y-49200000D03*
%TD*%
%TA.AperFunction,Conductor*%
%TO.N,GND*%
G36*
X142714075Y-97267007D02*
G01*
X142680000Y-97394174D01*
X142680000Y-97525826D01*
X142714075Y-97652993D01*
X142746988Y-97710000D01*
X141073012Y-97710000D01*
X141105925Y-97652993D01*
X141140000Y-97525826D01*
X141140000Y-97394174D01*
X141105925Y-97267007D01*
X141073012Y-97210000D01*
X142746988Y-97210000D01*
X142714075Y-97267007D01*
G37*
%TD.AperFunction*%
%TA.AperFunction,Conductor*%
G36*
X163472642Y-46755207D02*
G01*
X163527013Y-46793786D01*
X164470771Y-47737544D01*
X164517890Y-47812532D01*
X164527806Y-47900539D01*
X164498555Y-47984132D01*
X164435931Y-48046756D01*
X164352338Y-48076007D01*
X164264331Y-48066091D01*
X164235344Y-48053273D01*
X164047581Y-47951660D01*
X163968807Y-47924617D01*
X163834635Y-47878556D01*
X163745808Y-47863733D01*
X163612572Y-47841500D01*
X163612569Y-47841500D01*
X163387431Y-47841500D01*
X163387427Y-47841500D01*
X163220456Y-47869363D01*
X163165365Y-47878556D01*
X163101331Y-47900539D01*
X162952421Y-47951659D01*
X162754421Y-48058812D01*
X162576762Y-48197091D01*
X162576759Y-48197094D01*
X162424281Y-48362728D01*
X162424278Y-48362732D01*
X162396596Y-48405103D01*
X162332872Y-48466607D01*
X162248774Y-48494372D01*
X162160957Y-48482899D01*
X162086815Y-48434459D01*
X162063404Y-48405103D01*
X162050487Y-48385332D01*
X162035722Y-48362732D01*
X161883240Y-48197094D01*
X161883237Y-48197091D01*
X161705578Y-48058812D01*
X161507578Y-47951659D01*
X161432591Y-47925916D01*
X161294635Y-47878556D01*
X161205808Y-47863733D01*
X161072572Y-47841500D01*
X161072569Y-47841500D01*
X160847431Y-47841500D01*
X160847427Y-47841500D01*
X160680456Y-47869363D01*
X160625365Y-47878556D01*
X160561331Y-47900539D01*
X160412421Y-47951659D01*
X160214421Y-48058812D01*
X160036762Y-48197091D01*
X160036759Y-48197094D01*
X159884281Y-48362728D01*
X159884278Y-48362732D01*
X159856596Y-48405103D01*
X159792872Y-48466607D01*
X159708774Y-48494372D01*
X159620957Y-48482899D01*
X159546815Y-48434459D01*
X159523404Y-48405103D01*
X159510487Y-48385332D01*
X159495722Y-48362732D01*
X159343240Y-48197094D01*
X159343237Y-48197091D01*
X159165578Y-48058812D01*
X158967578Y-47951659D01*
X158892591Y-47925916D01*
X158754635Y-47878556D01*
X158665808Y-47863733D01*
X158532572Y-47841500D01*
X158532569Y-47841500D01*
X158307431Y-47841500D01*
X158307427Y-47841500D01*
X158140456Y-47869363D01*
X158085365Y-47878556D01*
X158021331Y-47900539D01*
X157872421Y-47951659D01*
X157674421Y-48058812D01*
X157496762Y-48197091D01*
X157496759Y-48197094D01*
X157344281Y-48362728D01*
X157344278Y-48362732D01*
X157316596Y-48405103D01*
X157252872Y-48466607D01*
X157168774Y-48494372D01*
X157080957Y-48482899D01*
X157006815Y-48434459D01*
X156983404Y-48405103D01*
X156970487Y-48385332D01*
X156955722Y-48362732D01*
X156803240Y-48197094D01*
X156803237Y-48197091D01*
X156625578Y-48058812D01*
X156427578Y-47951659D01*
X156352591Y-47925916D01*
X156214635Y-47878556D01*
X156125808Y-47863733D01*
X155992572Y-47841500D01*
X155992569Y-47841500D01*
X155767431Y-47841500D01*
X155767427Y-47841500D01*
X155600456Y-47869363D01*
X155545365Y-47878556D01*
X155481331Y-47900539D01*
X155332421Y-47951659D01*
X155134421Y-48058812D01*
X154956762Y-48197091D01*
X154956759Y-48197094D01*
X154804281Y-48362728D01*
X154804278Y-48362732D01*
X154776596Y-48405103D01*
X154712872Y-48466607D01*
X154628774Y-48494372D01*
X154540957Y-48482899D01*
X154466815Y-48434459D01*
X154443404Y-48405103D01*
X154430487Y-48385332D01*
X154415722Y-48362732D01*
X154263240Y-48197094D01*
X154263237Y-48197091D01*
X154085578Y-48058812D01*
X153887578Y-47951659D01*
X153812591Y-47925916D01*
X153674635Y-47878556D01*
X153585808Y-47863733D01*
X153452572Y-47841500D01*
X153452569Y-47841500D01*
X153227431Y-47841500D01*
X153227427Y-47841500D01*
X153060456Y-47869363D01*
X153005365Y-47878556D01*
X152941331Y-47900539D01*
X152792421Y-47951659D01*
X152594421Y-48058812D01*
X152416762Y-48197091D01*
X152416759Y-48197094D01*
X152264281Y-48362728D01*
X152264278Y-48362732D01*
X152236596Y-48405103D01*
X152172872Y-48466607D01*
X152088774Y-48494372D01*
X152000957Y-48482899D01*
X151926815Y-48434459D01*
X151903404Y-48405103D01*
X151890487Y-48385332D01*
X151875722Y-48362732D01*
X151723240Y-48197094D01*
X151723237Y-48197091D01*
X151545578Y-48058812D01*
X151347578Y-47951659D01*
X151272591Y-47925916D01*
X151134635Y-47878556D01*
X151045808Y-47863733D01*
X150912572Y-47841500D01*
X150912569Y-47841500D01*
X150687431Y-47841500D01*
X150687427Y-47841500D01*
X150520456Y-47869363D01*
X150465365Y-47878556D01*
X150401331Y-47900539D01*
X150252421Y-47951659D01*
X150054421Y-48058812D01*
X149876762Y-48197091D01*
X149876759Y-48197094D01*
X149724281Y-48362728D01*
X149724278Y-48362732D01*
X149696596Y-48405103D01*
X149632872Y-48466607D01*
X149548774Y-48494372D01*
X149460957Y-48482899D01*
X149386815Y-48434459D01*
X149363404Y-48405103D01*
X149350487Y-48385332D01*
X149335722Y-48362732D01*
X149183240Y-48197094D01*
X149183237Y-48197091D01*
X149005578Y-48058812D01*
X148807578Y-47951659D01*
X148732591Y-47925916D01*
X148594635Y-47878556D01*
X148505808Y-47863733D01*
X148372572Y-47841500D01*
X148372569Y-47841500D01*
X148147431Y-47841500D01*
X148147427Y-47841500D01*
X147980456Y-47869363D01*
X147925365Y-47878556D01*
X147861331Y-47900539D01*
X147712421Y-47951659D01*
X147514425Y-48058810D01*
X147332865Y-48200125D01*
X147252624Y-48237606D01*
X147164067Y-48236560D01*
X147084733Y-48197195D01*
X147030336Y-48127306D01*
X147024190Y-48112648D01*
X147020889Y-48103796D01*
X146933261Y-47986739D01*
X146816204Y-47899111D01*
X146679201Y-47848011D01*
X146659013Y-47845840D01*
X146618640Y-47841500D01*
X146618638Y-47841500D01*
X144821362Y-47841500D01*
X144821360Y-47841500D01*
X144760799Y-47848011D01*
X144623796Y-47899111D01*
X144623795Y-47899111D01*
X144623794Y-47899112D01*
X144506739Y-47986739D01*
X144419114Y-48103792D01*
X144419111Y-48103796D01*
X144368011Y-48240799D01*
X144361500Y-48301362D01*
X144361500Y-50098638D01*
X144368011Y-50159201D01*
X144419111Y-50296204D01*
X144506739Y-50413261D01*
X144623796Y-50500889D01*
X144760799Y-50551989D01*
X144810642Y-50557347D01*
X144821360Y-50558500D01*
X144821362Y-50558500D01*
X146618640Y-50558500D01*
X146628485Y-50557441D01*
X146679201Y-50551989D01*
X146816204Y-50500889D01*
X146933261Y-50413261D01*
X147020889Y-50296204D01*
X147024183Y-50287372D01*
X147072816Y-50213363D01*
X147148748Y-50167781D01*
X147236938Y-50159659D01*
X147319919Y-50190605D01*
X147332865Y-50199875D01*
X147514421Y-50341187D01*
X147514424Y-50341189D01*
X147583294Y-50378459D01*
X147712421Y-50448340D01*
X147712424Y-50448341D01*
X147712426Y-50448342D01*
X147925365Y-50521444D01*
X148147431Y-50558500D01*
X148147433Y-50558500D01*
X148372567Y-50558500D01*
X148372569Y-50558500D01*
X148594635Y-50521444D01*
X148807574Y-50448342D01*
X149005576Y-50341189D01*
X149183240Y-50202906D01*
X149335722Y-50037268D01*
X149363406Y-49994893D01*
X149427126Y-49933392D01*
X149511224Y-49905627D01*
X149599041Y-49917100D01*
X149673184Y-49965539D01*
X149696589Y-49994887D01*
X149724278Y-50037268D01*
X149780774Y-50098638D01*
X149876759Y-50202905D01*
X149876762Y-50202908D01*
X150054421Y-50341187D01*
X150054424Y-50341189D01*
X150123294Y-50378459D01*
X150252421Y-50448340D01*
X150252424Y-50448341D01*
X150252426Y-50448342D01*
X150465365Y-50521444D01*
X150687431Y-50558500D01*
X150687433Y-50558500D01*
X150912567Y-50558500D01*
X150912569Y-50558500D01*
X151134635Y-50521444D01*
X151347574Y-50448342D01*
X151545576Y-50341189D01*
X151723240Y-50202906D01*
X151875722Y-50037268D01*
X151903406Y-49994893D01*
X151967126Y-49933392D01*
X152051224Y-49905627D01*
X152139041Y-49917100D01*
X152213184Y-49965539D01*
X152236589Y-49994887D01*
X152264278Y-50037268D01*
X152320774Y-50098638D01*
X152416759Y-50202905D01*
X152416762Y-50202908D01*
X152594421Y-50341187D01*
X152594424Y-50341189D01*
X152663294Y-50378459D01*
X152792421Y-50448340D01*
X152792424Y-50448341D01*
X152792426Y-50448342D01*
X153005365Y-50521444D01*
X153227431Y-50558500D01*
X153227433Y-50558500D01*
X153452567Y-50558500D01*
X153452569Y-50558500D01*
X153674635Y-50521444D01*
X153887574Y-50448342D01*
X154085576Y-50341189D01*
X154263240Y-50202906D01*
X154415722Y-50037268D01*
X154443406Y-49994893D01*
X154507126Y-49933392D01*
X154591224Y-49905627D01*
X154679041Y-49917100D01*
X154753184Y-49965539D01*
X154776589Y-49994887D01*
X154804278Y-50037268D01*
X154860774Y-50098638D01*
X154956759Y-50202905D01*
X154956762Y-50202908D01*
X155134421Y-50341187D01*
X155134424Y-50341189D01*
X155203294Y-50378459D01*
X155332421Y-50448340D01*
X155332424Y-50448341D01*
X155332426Y-50448342D01*
X155545365Y-50521444D01*
X155767431Y-50558500D01*
X155767433Y-50558500D01*
X155992567Y-50558500D01*
X155992569Y-50558500D01*
X156214635Y-50521444D01*
X156427574Y-50448342D01*
X156625576Y-50341189D01*
X156803240Y-50202906D01*
X156955722Y-50037268D01*
X156983406Y-49994893D01*
X157047126Y-49933392D01*
X157131224Y-49905627D01*
X157219041Y-49917100D01*
X157293184Y-49965539D01*
X157316589Y-49994887D01*
X157344278Y-50037268D01*
X157400774Y-50098638D01*
X157496759Y-50202905D01*
X157496762Y-50202908D01*
X157674421Y-50341187D01*
X157674424Y-50341189D01*
X157743294Y-50378459D01*
X157872421Y-50448340D01*
X157872424Y-50448341D01*
X157872426Y-50448342D01*
X158085365Y-50521444D01*
X158307431Y-50558500D01*
X158307433Y-50558500D01*
X158532567Y-50558500D01*
X158532569Y-50558500D01*
X158754635Y-50521444D01*
X158967574Y-50448342D01*
X159165576Y-50341189D01*
X159343240Y-50202906D01*
X159495722Y-50037268D01*
X159523406Y-49994893D01*
X159587126Y-49933392D01*
X159671224Y-49905627D01*
X159759041Y-49917100D01*
X159833184Y-49965539D01*
X159856589Y-49994887D01*
X159884278Y-50037268D01*
X159940774Y-50098638D01*
X160036759Y-50202905D01*
X160036762Y-50202908D01*
X160214421Y-50341187D01*
X160214424Y-50341189D01*
X160283294Y-50378459D01*
X160412421Y-50448340D01*
X160412424Y-50448341D01*
X160412426Y-50448342D01*
X160625365Y-50521444D01*
X160847431Y-50558500D01*
X160847433Y-50558500D01*
X161072567Y-50558500D01*
X161072569Y-50558500D01*
X161294635Y-50521444D01*
X161507574Y-50448342D01*
X161705576Y-50341189D01*
X161883240Y-50202906D01*
X162035722Y-50037268D01*
X162063406Y-49994893D01*
X162127126Y-49933392D01*
X162211224Y-49905627D01*
X162299041Y-49917100D01*
X162373184Y-49965539D01*
X162396589Y-49994887D01*
X162424278Y-50037268D01*
X162480774Y-50098638D01*
X162576759Y-50202905D01*
X162576762Y-50202908D01*
X162754421Y-50341187D01*
X162754424Y-50341189D01*
X162823294Y-50378459D01*
X162952421Y-50448340D01*
X162952424Y-50448341D01*
X162952426Y-50448342D01*
X163165365Y-50521444D01*
X163387431Y-50558500D01*
X163387433Y-50558500D01*
X163612567Y-50558500D01*
X163612569Y-50558500D01*
X163834635Y-50521444D01*
X164047574Y-50448342D01*
X164245576Y-50341189D01*
X164423240Y-50202906D01*
X164575722Y-50037268D01*
X164698860Y-49848791D01*
X164789296Y-49642616D01*
X164844564Y-49424368D01*
X164853735Y-49313701D01*
X164863156Y-49200004D01*
X164863156Y-49199995D01*
X164844565Y-48975639D01*
X164844564Y-48975636D01*
X164844564Y-48975632D01*
X164789296Y-48757384D01*
X164698860Y-48551209D01*
X164644753Y-48468392D01*
X164614027Y-48385332D01*
X164622382Y-48297163D01*
X164668165Y-48221352D01*
X164742307Y-48172912D01*
X164830124Y-48161439D01*
X164914223Y-48189204D01*
X164952064Y-48218837D01*
X165906214Y-49172987D01*
X165953333Y-49247975D01*
X165964500Y-49313701D01*
X165964500Y-59375020D01*
X165975992Y-59402765D01*
X168446214Y-61872987D01*
X168493333Y-61947975D01*
X168504500Y-62013701D01*
X168504500Y-96076298D01*
X168484793Y-96162641D01*
X168446214Y-96217012D01*
X165997233Y-98665994D01*
X165975993Y-98687233D01*
X165975992Y-98687234D01*
X165964500Y-98714979D01*
X165964500Y-99228221D01*
X165963542Y-99247727D01*
X165953230Y-99352425D01*
X165945619Y-99390687D01*
X165917932Y-99481956D01*
X165903004Y-99517995D01*
X165858042Y-99602114D01*
X165836369Y-99634550D01*
X165775864Y-99708277D01*
X165748277Y-99735864D01*
X165674550Y-99796369D01*
X165642114Y-99818042D01*
X165557995Y-99863004D01*
X165521956Y-99877932D01*
X165430687Y-99905619D01*
X165392425Y-99913230D01*
X165351622Y-99917248D01*
X165287725Y-99923542D01*
X165268222Y-99924500D01*
X100771778Y-99924500D01*
X100752274Y-99923542D01*
X100647573Y-99913229D01*
X100609314Y-99905619D01*
X100552972Y-99888528D01*
X100518043Y-99877932D01*
X100482004Y-99863004D01*
X100397885Y-99818042D01*
X100365449Y-99796369D01*
X100357868Y-99790148D01*
X100291716Y-99735858D01*
X100264141Y-99708283D01*
X100203629Y-99634549D01*
X100181957Y-99602114D01*
X100136995Y-99517995D01*
X100122067Y-99481956D01*
X100094378Y-99390678D01*
X100086770Y-99352430D01*
X100076458Y-99247725D01*
X100075500Y-99228221D01*
X100075500Y-97923638D01*
X101841500Y-97923638D01*
X101848011Y-97984201D01*
X101899111Y-98121204D01*
X101986739Y-98238261D01*
X102103796Y-98325889D01*
X102240799Y-98376989D01*
X102290642Y-98382347D01*
X102301360Y-98383500D01*
X102301362Y-98383500D01*
X104098640Y-98383500D01*
X104108485Y-98382441D01*
X104159201Y-98376989D01*
X104296204Y-98325889D01*
X104413261Y-98238261D01*
X104500889Y-98121204D01*
X104537584Y-98022822D01*
X108525000Y-98022822D01*
X108531401Y-98082372D01*
X108531403Y-98082381D01*
X108581646Y-98217087D01*
X108581647Y-98217090D01*
X108667810Y-98332189D01*
X108782909Y-98418352D01*
X108782912Y-98418353D01*
X108917618Y-98468596D01*
X108917627Y-98468598D01*
X108977177Y-98475000D01*
X109625000Y-98475000D01*
X109625000Y-97558012D01*
X109682007Y-97590925D01*
X109809174Y-97625000D01*
X109940826Y-97625000D01*
X110067993Y-97590925D01*
X110125000Y-97558012D01*
X110125000Y-98475000D01*
X110772823Y-98475000D01*
X110832372Y-98468598D01*
X110832381Y-98468596D01*
X110967087Y-98418353D01*
X110967090Y-98418352D01*
X111082189Y-98332189D01*
X111168352Y-98217090D01*
X111168353Y-98217087D01*
X111212532Y-98098639D01*
X114391500Y-98098639D01*
X114392592Y-98108794D01*
X114398011Y-98159201D01*
X114449111Y-98296204D01*
X114536739Y-98413261D01*
X114653796Y-98500889D01*
X114790799Y-98551989D01*
X114840642Y-98557347D01*
X114851360Y-98558500D01*
X114851362Y-98558500D01*
X116648640Y-98558500D01*
X116658485Y-98557441D01*
X116709201Y-98551989D01*
X116846204Y-98500889D01*
X116963261Y-98413261D01*
X117050889Y-98296204D01*
X117077955Y-98223639D01*
X120866500Y-98223639D01*
X120869755Y-98253919D01*
X120873011Y-98284201D01*
X120924111Y-98421204D01*
X121011739Y-98538261D01*
X121128796Y-98625889D01*
X121265799Y-98676989D01*
X121315642Y-98682347D01*
X121326360Y-98683500D01*
X121326362Y-98683500D01*
X123123640Y-98683500D01*
X123133485Y-98682441D01*
X123184201Y-98676989D01*
X123321204Y-98625889D01*
X123438261Y-98538261D01*
X123525889Y-98421204D01*
X123549225Y-98358638D01*
X126581500Y-98358638D01*
X126588011Y-98419201D01*
X126639111Y-98556204D01*
X126726739Y-98673261D01*
X126843796Y-98760889D01*
X126980799Y-98811989D01*
X127030642Y-98817347D01*
X127041360Y-98818500D01*
X127041362Y-98818500D01*
X128838640Y-98818500D01*
X128848485Y-98817441D01*
X128899201Y-98811989D01*
X129036204Y-98760889D01*
X129153261Y-98673261D01*
X129240889Y-98556204D01*
X129244183Y-98547372D01*
X129292816Y-98473363D01*
X129368748Y-98427781D01*
X129456938Y-98419659D01*
X129539919Y-98450605D01*
X129552865Y-98459875D01*
X129734421Y-98601187D01*
X129734424Y-98601189D01*
X129803294Y-98638459D01*
X129932421Y-98708340D01*
X129932424Y-98708341D01*
X129932426Y-98708342D01*
X130145365Y-98781444D01*
X130367431Y-98818500D01*
X130367433Y-98818500D01*
X130592567Y-98818500D01*
X130592569Y-98818500D01*
X130814635Y-98781444D01*
X131027574Y-98708342D01*
X131225576Y-98601189D01*
X131403240Y-98462906D01*
X131555722Y-98297268D01*
X131583406Y-98254893D01*
X131647126Y-98193392D01*
X131731224Y-98165627D01*
X131819041Y-98177100D01*
X131893184Y-98225539D01*
X131916589Y-98254887D01*
X131944278Y-98297268D01*
X132000774Y-98358638D01*
X132096759Y-98462905D01*
X132096762Y-98462908D01*
X132274421Y-98601187D01*
X132274424Y-98601189D01*
X132343294Y-98638459D01*
X132472421Y-98708340D01*
X132472424Y-98708341D01*
X132472426Y-98708342D01*
X132685365Y-98781444D01*
X132907431Y-98818500D01*
X132907433Y-98818500D01*
X133132567Y-98818500D01*
X133132569Y-98818500D01*
X133354635Y-98781444D01*
X133567574Y-98708342D01*
X133765576Y-98601189D01*
X133943240Y-98462906D01*
X134095722Y-98297268D01*
X134123406Y-98254893D01*
X134187126Y-98193392D01*
X134271224Y-98165627D01*
X134359041Y-98177100D01*
X134433184Y-98225539D01*
X134456589Y-98254887D01*
X134484278Y-98297268D01*
X134540774Y-98358638D01*
X134636759Y-98462905D01*
X134636762Y-98462908D01*
X134814421Y-98601187D01*
X134814424Y-98601189D01*
X134883294Y-98638459D01*
X135012421Y-98708340D01*
X135012424Y-98708341D01*
X135012426Y-98708342D01*
X135225365Y-98781444D01*
X135447431Y-98818500D01*
X135447433Y-98818500D01*
X135672567Y-98818500D01*
X135672569Y-98818500D01*
X135894635Y-98781444D01*
X136107574Y-98708342D01*
X136305576Y-98601189D01*
X136483240Y-98462906D01*
X136635722Y-98297268D01*
X136663406Y-98254893D01*
X136727126Y-98193392D01*
X136811224Y-98165627D01*
X136899041Y-98177100D01*
X136973184Y-98225539D01*
X136996589Y-98254887D01*
X137024278Y-98297268D01*
X137080774Y-98358638D01*
X137176759Y-98462905D01*
X137176762Y-98462908D01*
X137354421Y-98601187D01*
X137354424Y-98601189D01*
X137423294Y-98638459D01*
X137552421Y-98708340D01*
X137552424Y-98708341D01*
X137552426Y-98708342D01*
X137765365Y-98781444D01*
X137987431Y-98818500D01*
X137987433Y-98818500D01*
X138212567Y-98818500D01*
X138212569Y-98818500D01*
X138434635Y-98781444D01*
X138647574Y-98708342D01*
X138845576Y-98601189D01*
X139023240Y-98462906D01*
X139175722Y-98297268D01*
X139209113Y-98246158D01*
X139272832Y-98184657D01*
X139356930Y-98156891D01*
X139444747Y-98168363D01*
X139518890Y-98216802D01*
X139538717Y-98240860D01*
X139601889Y-98331078D01*
X139768920Y-98498109D01*
X139962417Y-98633598D01*
X139962420Y-98633600D01*
X140176509Y-98733430D01*
X140390000Y-98790634D01*
X140390000Y-97893012D01*
X140447007Y-97925925D01*
X140574174Y-97960000D01*
X140705826Y-97960000D01*
X140832993Y-97925925D01*
X140890000Y-97893012D01*
X140890000Y-98790634D01*
X141103490Y-98733430D01*
X141317579Y-98633600D01*
X141317582Y-98633598D01*
X141511079Y-98498109D01*
X141678108Y-98331080D01*
X141746989Y-98232709D01*
X141812656Y-98173285D01*
X141897604Y-98148237D01*
X141985006Y-98162528D01*
X142057553Y-98213326D01*
X142073011Y-98232709D01*
X142141891Y-98331080D01*
X142308920Y-98498109D01*
X142502417Y-98633598D01*
X142502420Y-98633600D01*
X142716509Y-98733430D01*
X142930000Y-98790634D01*
X142930000Y-97893012D01*
X142987007Y-97925925D01*
X143114174Y-97960000D01*
X143245826Y-97960000D01*
X143372993Y-97925925D01*
X143430000Y-97893012D01*
X143430000Y-98790634D01*
X143643490Y-98733430D01*
X143857579Y-98633600D01*
X143857582Y-98633598D01*
X144051079Y-98498109D01*
X144218108Y-98331080D01*
X144281281Y-98240861D01*
X144346948Y-98181437D01*
X144431896Y-98156389D01*
X144519299Y-98170680D01*
X144591845Y-98221478D01*
X144610884Y-98246155D01*
X144644278Y-98297268D01*
X144700774Y-98358638D01*
X144796759Y-98462905D01*
X144796762Y-98462908D01*
X144974421Y-98601187D01*
X144974424Y-98601189D01*
X145043294Y-98638459D01*
X145172421Y-98708340D01*
X145172424Y-98708341D01*
X145172426Y-98708342D01*
X145385365Y-98781444D01*
X145607431Y-98818500D01*
X145607433Y-98818500D01*
X145832567Y-98818500D01*
X145832569Y-98818500D01*
X146054635Y-98781444D01*
X146267574Y-98708342D01*
X146465576Y-98601189D01*
X146643240Y-98462906D01*
X146739226Y-98358638D01*
X149441500Y-98358638D01*
X149448011Y-98419201D01*
X149499111Y-98556204D01*
X149586739Y-98673261D01*
X149703796Y-98760889D01*
X149840799Y-98811989D01*
X149890642Y-98817347D01*
X149901360Y-98818500D01*
X149901362Y-98818500D01*
X151698640Y-98818500D01*
X151708485Y-98817441D01*
X151759201Y-98811989D01*
X151896204Y-98760889D01*
X152013261Y-98673261D01*
X152100889Y-98556204D01*
X152104183Y-98547372D01*
X152152816Y-98473363D01*
X152228748Y-98427781D01*
X152316938Y-98419659D01*
X152399919Y-98450605D01*
X152412865Y-98459875D01*
X152594421Y-98601187D01*
X152594424Y-98601189D01*
X152663294Y-98638459D01*
X152792421Y-98708340D01*
X152792424Y-98708341D01*
X152792426Y-98708342D01*
X153005365Y-98781444D01*
X153227431Y-98818500D01*
X153227433Y-98818500D01*
X153452567Y-98818500D01*
X153452569Y-98818500D01*
X153674635Y-98781444D01*
X153887574Y-98708342D01*
X154085576Y-98601189D01*
X154263240Y-98462906D01*
X154415722Y-98297268D01*
X154443406Y-98254893D01*
X154507126Y-98193392D01*
X154591224Y-98165627D01*
X154679041Y-98177100D01*
X154753184Y-98225539D01*
X154776589Y-98254887D01*
X154804278Y-98297268D01*
X154860774Y-98358638D01*
X154956759Y-98462905D01*
X154956762Y-98462908D01*
X155134421Y-98601187D01*
X155134424Y-98601189D01*
X155203294Y-98638459D01*
X155332421Y-98708340D01*
X155332424Y-98708341D01*
X155332426Y-98708342D01*
X155545365Y-98781444D01*
X155767431Y-98818500D01*
X155767433Y-98818500D01*
X155992567Y-98818500D01*
X155992569Y-98818500D01*
X156214635Y-98781444D01*
X156427574Y-98708342D01*
X156625576Y-98601189D01*
X156803240Y-98462906D01*
X156955722Y-98297268D01*
X156983406Y-98254893D01*
X157047126Y-98193392D01*
X157131224Y-98165627D01*
X157219041Y-98177100D01*
X157293184Y-98225539D01*
X157316589Y-98254887D01*
X157344278Y-98297268D01*
X157400774Y-98358638D01*
X157496759Y-98462905D01*
X157496762Y-98462908D01*
X157674421Y-98601187D01*
X157674424Y-98601189D01*
X157743294Y-98638459D01*
X157872421Y-98708340D01*
X157872424Y-98708341D01*
X157872426Y-98708342D01*
X158085365Y-98781444D01*
X158307431Y-98818500D01*
X158307433Y-98818500D01*
X158532567Y-98818500D01*
X158532569Y-98818500D01*
X158754635Y-98781444D01*
X158967574Y-98708342D01*
X159165576Y-98601189D01*
X159343240Y-98462906D01*
X159495722Y-98297268D01*
X159523406Y-98254893D01*
X159587126Y-98193392D01*
X159671224Y-98165627D01*
X159759041Y-98177100D01*
X159833184Y-98225539D01*
X159856589Y-98254887D01*
X159884278Y-98297268D01*
X159940774Y-98358638D01*
X160036759Y-98462905D01*
X160036762Y-98462908D01*
X160214421Y-98601187D01*
X160214424Y-98601189D01*
X160283294Y-98638459D01*
X160412421Y-98708340D01*
X160412424Y-98708341D01*
X160412426Y-98708342D01*
X160625365Y-98781444D01*
X160847431Y-98818500D01*
X160847433Y-98818500D01*
X161072567Y-98818500D01*
X161072569Y-98818500D01*
X161294635Y-98781444D01*
X161507574Y-98708342D01*
X161705576Y-98601189D01*
X161883240Y-98462906D01*
X162035722Y-98297268D01*
X162063406Y-98254893D01*
X162127126Y-98193392D01*
X162211224Y-98165627D01*
X162299041Y-98177100D01*
X162373184Y-98225539D01*
X162396589Y-98254887D01*
X162424278Y-98297268D01*
X162480774Y-98358638D01*
X162576759Y-98462905D01*
X162576762Y-98462908D01*
X162754421Y-98601187D01*
X162754424Y-98601189D01*
X162823294Y-98638459D01*
X162952421Y-98708340D01*
X162952424Y-98708341D01*
X162952426Y-98708342D01*
X163165365Y-98781444D01*
X163387431Y-98818500D01*
X163387433Y-98818500D01*
X163612567Y-98818500D01*
X163612569Y-98818500D01*
X163834635Y-98781444D01*
X164047574Y-98708342D01*
X164245576Y-98601189D01*
X164423240Y-98462906D01*
X164575722Y-98297268D01*
X164698860Y-98108791D01*
X164789296Y-97902616D01*
X164844564Y-97684368D01*
X164849484Y-97625000D01*
X164863156Y-97460004D01*
X164863156Y-97459995D01*
X164844565Y-97235639D01*
X164844564Y-97235636D01*
X164844564Y-97235632D01*
X164789296Y-97017384D01*
X164698860Y-96811209D01*
X164575722Y-96622732D01*
X164423240Y-96457094D01*
X164423237Y-96457091D01*
X164245578Y-96318812D01*
X164047578Y-96211659D01*
X163940740Y-96174982D01*
X163834635Y-96138556D01*
X163745808Y-96123733D01*
X163612572Y-96101500D01*
X163612569Y-96101500D01*
X163387431Y-96101500D01*
X163387427Y-96101500D01*
X163238440Y-96126362D01*
X163165365Y-96138556D01*
X163096386Y-96162236D01*
X162952421Y-96211659D01*
X162754421Y-96318812D01*
X162576762Y-96457091D01*
X162576759Y-96457094D01*
X162424281Y-96622728D01*
X162424278Y-96622732D01*
X162396596Y-96665103D01*
X162332872Y-96726607D01*
X162248774Y-96754372D01*
X162160957Y-96742899D01*
X162086815Y-96694459D01*
X162063404Y-96665103D01*
X162059466Y-96659075D01*
X162035722Y-96622732D01*
X161883240Y-96457094D01*
X161883237Y-96457091D01*
X161705578Y-96318812D01*
X161507578Y-96211659D01*
X161400740Y-96174982D01*
X161294635Y-96138556D01*
X161205808Y-96123733D01*
X161072572Y-96101500D01*
X161072569Y-96101500D01*
X160847431Y-96101500D01*
X160847427Y-96101500D01*
X160698440Y-96126362D01*
X160625365Y-96138556D01*
X160556386Y-96162236D01*
X160412421Y-96211659D01*
X160214421Y-96318812D01*
X160036762Y-96457091D01*
X160036759Y-96457094D01*
X159884281Y-96622728D01*
X159884278Y-96622732D01*
X159856596Y-96665103D01*
X159792872Y-96726607D01*
X159708774Y-96754372D01*
X159620957Y-96742899D01*
X159546815Y-96694459D01*
X159523404Y-96665103D01*
X159519466Y-96659075D01*
X159495722Y-96622732D01*
X159343240Y-96457094D01*
X159343237Y-96457091D01*
X159165578Y-96318812D01*
X158967578Y-96211659D01*
X158860740Y-96174982D01*
X158754635Y-96138556D01*
X158665808Y-96123733D01*
X158532572Y-96101500D01*
X158532569Y-96101500D01*
X158307431Y-96101500D01*
X158307427Y-96101500D01*
X158158440Y-96126362D01*
X158085365Y-96138556D01*
X158016386Y-96162236D01*
X157872421Y-96211659D01*
X157674421Y-96318812D01*
X157496762Y-96457091D01*
X157496759Y-96457094D01*
X157344281Y-96622728D01*
X157344278Y-96622732D01*
X157316596Y-96665103D01*
X157252872Y-96726607D01*
X157168774Y-96754372D01*
X157080957Y-96742899D01*
X157006815Y-96694459D01*
X156983404Y-96665103D01*
X156979466Y-96659075D01*
X156955722Y-96622732D01*
X156803240Y-96457094D01*
X156803237Y-96457091D01*
X156625578Y-96318812D01*
X156427578Y-96211659D01*
X156320740Y-96174982D01*
X156214635Y-96138556D01*
X156125808Y-96123733D01*
X155992572Y-96101500D01*
X155992569Y-96101500D01*
X155767431Y-96101500D01*
X155767427Y-96101500D01*
X155618440Y-96126362D01*
X155545365Y-96138556D01*
X155476386Y-96162236D01*
X155332421Y-96211659D01*
X155134421Y-96318812D01*
X154956762Y-96457091D01*
X154956759Y-96457094D01*
X154804281Y-96622728D01*
X154804278Y-96622732D01*
X154776596Y-96665103D01*
X154712872Y-96726607D01*
X154628774Y-96754372D01*
X154540957Y-96742899D01*
X154466815Y-96694459D01*
X154443404Y-96665103D01*
X154439466Y-96659075D01*
X154415722Y-96622732D01*
X154263240Y-96457094D01*
X154263237Y-96457091D01*
X154085578Y-96318812D01*
X153887578Y-96211659D01*
X153780740Y-96174982D01*
X153674635Y-96138556D01*
X153585808Y-96123733D01*
X153452572Y-96101500D01*
X153452569Y-96101500D01*
X153227431Y-96101500D01*
X153227427Y-96101500D01*
X153078440Y-96126362D01*
X153005365Y-96138556D01*
X152936386Y-96162236D01*
X152792421Y-96211659D01*
X152594425Y-96318810D01*
X152412865Y-96460125D01*
X152332624Y-96497606D01*
X152244067Y-96496560D01*
X152164733Y-96457195D01*
X152110336Y-96387306D01*
X152104190Y-96372648D01*
X152100889Y-96363796D01*
X152013261Y-96246739D01*
X151896204Y-96159111D01*
X151759201Y-96108011D01*
X151739013Y-96105840D01*
X151698640Y-96101500D01*
X151698638Y-96101500D01*
X149901362Y-96101500D01*
X149901360Y-96101500D01*
X149840799Y-96108011D01*
X149703796Y-96159111D01*
X149703795Y-96159111D01*
X149703794Y-96159112D01*
X149586739Y-96246739D01*
X149499114Y-96363792D01*
X149499111Y-96363796D01*
X149448011Y-96500799D01*
X149441500Y-96561362D01*
X149441500Y-98358638D01*
X146739226Y-98358638D01*
X146795722Y-98297268D01*
X146918860Y-98108791D01*
X147009296Y-97902616D01*
X147064564Y-97684368D01*
X147069484Y-97625000D01*
X147083156Y-97460004D01*
X147083156Y-97459995D01*
X147064565Y-97235639D01*
X147064564Y-97235636D01*
X147064564Y-97235632D01*
X147009296Y-97017384D01*
X146918860Y-96811209D01*
X146795722Y-96622732D01*
X146643240Y-96457094D01*
X146643237Y-96457091D01*
X146465578Y-96318812D01*
X146267578Y-96211659D01*
X146160740Y-96174982D01*
X146054635Y-96138556D01*
X145965808Y-96123733D01*
X145832572Y-96101500D01*
X145832569Y-96101500D01*
X145607431Y-96101500D01*
X145607427Y-96101500D01*
X145458440Y-96126362D01*
X145385365Y-96138556D01*
X145316386Y-96162236D01*
X145172421Y-96211659D01*
X144974421Y-96318812D01*
X144796762Y-96457091D01*
X144796759Y-96457094D01*
X144644281Y-96622728D01*
X144644279Y-96622730D01*
X144610886Y-96673842D01*
X144547162Y-96735345D01*
X144463063Y-96763110D01*
X144375246Y-96751635D01*
X144301104Y-96703195D01*
X144281279Y-96679138D01*
X144218107Y-96588918D01*
X144051079Y-96421890D01*
X143857582Y-96286401D01*
X143857578Y-96286399D01*
X143643495Y-96186571D01*
X143643492Y-96186569D01*
X143430000Y-96129363D01*
X143430000Y-97026988D01*
X143372993Y-96994075D01*
X143245826Y-96960000D01*
X143114174Y-96960000D01*
X142987007Y-96994075D01*
X142930000Y-97026988D01*
X142930000Y-96129363D01*
X142716507Y-96186569D01*
X142716504Y-96186570D01*
X142502422Y-96286399D01*
X142502418Y-96286401D01*
X142308919Y-96421891D01*
X142141890Y-96588920D01*
X142073011Y-96687290D01*
X142007343Y-96746714D01*
X141922396Y-96771762D01*
X141834993Y-96757471D01*
X141762446Y-96706673D01*
X141746989Y-96687290D01*
X141678109Y-96588920D01*
X141511079Y-96421890D01*
X141317582Y-96286401D01*
X141317578Y-96286399D01*
X141103495Y-96186571D01*
X141103492Y-96186569D01*
X140890000Y-96129363D01*
X140890000Y-97026988D01*
X140832993Y-96994075D01*
X140705826Y-96960000D01*
X140574174Y-96960000D01*
X140447007Y-96994075D01*
X140390000Y-97026988D01*
X140390000Y-96129363D01*
X140176507Y-96186569D01*
X140176504Y-96186570D01*
X139962422Y-96286399D01*
X139962418Y-96286401D01*
X139768919Y-96421891D01*
X139601890Y-96588920D01*
X139538719Y-96679138D01*
X139473051Y-96738563D01*
X139388103Y-96763610D01*
X139300701Y-96749319D01*
X139228154Y-96698521D01*
X139209113Y-96673840D01*
X139175724Y-96622735D01*
X139175723Y-96622734D01*
X139175722Y-96622732D01*
X139023240Y-96457094D01*
X139023237Y-96457091D01*
X138845578Y-96318812D01*
X138647578Y-96211659D01*
X138540740Y-96174982D01*
X138434635Y-96138556D01*
X138345808Y-96123733D01*
X138212572Y-96101500D01*
X138212569Y-96101500D01*
X137987431Y-96101500D01*
X137987427Y-96101500D01*
X137838440Y-96126362D01*
X137765365Y-96138556D01*
X137696386Y-96162236D01*
X137552421Y-96211659D01*
X137354421Y-96318812D01*
X137176762Y-96457091D01*
X137176759Y-96457094D01*
X137024281Y-96622728D01*
X137024278Y-96622732D01*
X136996596Y-96665103D01*
X136932872Y-96726607D01*
X136848774Y-96754372D01*
X136760957Y-96742899D01*
X136686815Y-96694459D01*
X136663404Y-96665103D01*
X136659466Y-96659075D01*
X136635722Y-96622732D01*
X136483240Y-96457094D01*
X136483237Y-96457091D01*
X136305578Y-96318812D01*
X136107578Y-96211659D01*
X136000740Y-96174982D01*
X135894635Y-96138556D01*
X135805808Y-96123733D01*
X135672572Y-96101500D01*
X135672569Y-96101500D01*
X135447431Y-96101500D01*
X135447427Y-96101500D01*
X135298440Y-96126362D01*
X135225365Y-96138556D01*
X135156386Y-96162236D01*
X135012421Y-96211659D01*
X134814421Y-96318812D01*
X134636762Y-96457091D01*
X134636759Y-96457094D01*
X134484281Y-96622728D01*
X134484278Y-96622732D01*
X134456596Y-96665103D01*
X134392872Y-96726607D01*
X134308774Y-96754372D01*
X134220957Y-96742899D01*
X134146815Y-96694459D01*
X134123404Y-96665103D01*
X134119466Y-96659075D01*
X134095722Y-96622732D01*
X133943240Y-96457094D01*
X133943237Y-96457091D01*
X133765578Y-96318812D01*
X133567578Y-96211659D01*
X133460740Y-96174982D01*
X133354635Y-96138556D01*
X133265808Y-96123733D01*
X133132572Y-96101500D01*
X133132569Y-96101500D01*
X132907431Y-96101500D01*
X132907427Y-96101500D01*
X132758440Y-96126362D01*
X132685365Y-96138556D01*
X132616386Y-96162236D01*
X132472421Y-96211659D01*
X132274421Y-96318812D01*
X132096762Y-96457091D01*
X132096759Y-96457094D01*
X131944281Y-96622728D01*
X131944278Y-96622732D01*
X131916596Y-96665103D01*
X131852872Y-96726607D01*
X131768774Y-96754372D01*
X131680957Y-96742899D01*
X131606815Y-96694459D01*
X131583404Y-96665103D01*
X131579466Y-96659075D01*
X131555722Y-96622732D01*
X131403240Y-96457094D01*
X131403237Y-96457091D01*
X131225578Y-96318812D01*
X131027578Y-96211659D01*
X130920740Y-96174982D01*
X130814635Y-96138556D01*
X130725808Y-96123733D01*
X130592572Y-96101500D01*
X130592569Y-96101500D01*
X130367431Y-96101500D01*
X130367427Y-96101500D01*
X130218440Y-96126362D01*
X130145365Y-96138556D01*
X130076386Y-96162236D01*
X129932421Y-96211659D01*
X129734425Y-96318810D01*
X129552865Y-96460125D01*
X129472624Y-96497606D01*
X129384067Y-96496560D01*
X129304733Y-96457195D01*
X129250336Y-96387306D01*
X129244190Y-96372648D01*
X129240889Y-96363796D01*
X129153261Y-96246739D01*
X129036204Y-96159111D01*
X128899201Y-96108011D01*
X128879013Y-96105840D01*
X128838640Y-96101500D01*
X128838638Y-96101500D01*
X127041362Y-96101500D01*
X127041360Y-96101500D01*
X126980799Y-96108011D01*
X126843796Y-96159111D01*
X126843795Y-96159111D01*
X126843794Y-96159112D01*
X126726739Y-96246739D01*
X126639114Y-96363792D01*
X126639111Y-96363796D01*
X126588011Y-96500799D01*
X126581500Y-96561362D01*
X126581500Y-98358638D01*
X123549225Y-98358638D01*
X123576989Y-98284201D01*
X123583500Y-98223638D01*
X123583500Y-96426362D01*
X123576989Y-96365799D01*
X123525889Y-96228796D01*
X123438261Y-96111739D01*
X123321204Y-96024111D01*
X123184201Y-95973011D01*
X123164013Y-95970840D01*
X123123640Y-95966500D01*
X123123638Y-95966500D01*
X121326362Y-95966500D01*
X121326360Y-95966500D01*
X121265799Y-95973011D01*
X121128796Y-96024111D01*
X121128795Y-96024111D01*
X121128794Y-96024112D01*
X121011739Y-96111739D01*
X120925323Y-96227177D01*
X120924111Y-96228796D01*
X120873760Y-96363792D01*
X120873011Y-96365799D01*
X120866500Y-96426360D01*
X120866500Y-98223639D01*
X117077955Y-98223639D01*
X117101989Y-98159201D01*
X117108500Y-98098638D01*
X117108500Y-96301362D01*
X117101989Y-96240799D01*
X117050889Y-96103796D01*
X116963261Y-95986739D01*
X116846204Y-95899111D01*
X116709201Y-95848011D01*
X116689013Y-95845840D01*
X116648640Y-95841500D01*
X116648638Y-95841500D01*
X114851362Y-95841500D01*
X114851360Y-95841500D01*
X114790799Y-95848011D01*
X114653796Y-95899111D01*
X114653795Y-95899111D01*
X114653794Y-95899112D01*
X114536739Y-95986739D01*
X114450830Y-96101500D01*
X114449111Y-96103796D01*
X114425303Y-96167627D01*
X114398011Y-96240799D01*
X114391500Y-96301360D01*
X114391500Y-98098639D01*
X111212532Y-98098639D01*
X111218596Y-98082381D01*
X111218598Y-98082372D01*
X111225000Y-98022822D01*
X111225000Y-97375000D01*
X110308012Y-97375000D01*
X110340925Y-97317993D01*
X110375000Y-97190826D01*
X110375000Y-97059174D01*
X110340925Y-96932007D01*
X110308012Y-96875000D01*
X111225000Y-96875000D01*
X111225000Y-96227177D01*
X111218598Y-96167627D01*
X111218596Y-96167618D01*
X111168353Y-96032912D01*
X111168352Y-96032909D01*
X111082189Y-95917810D01*
X110967090Y-95831647D01*
X110967087Y-95831646D01*
X110832381Y-95781403D01*
X110832372Y-95781401D01*
X110772823Y-95775000D01*
X110125000Y-95775000D01*
X110125000Y-96691988D01*
X110067993Y-96659075D01*
X109940826Y-96625000D01*
X109809174Y-96625000D01*
X109682007Y-96659075D01*
X109625000Y-96691988D01*
X109625000Y-95775000D01*
X108977177Y-95775000D01*
X108917627Y-95781401D01*
X108917618Y-95781403D01*
X108782912Y-95831646D01*
X108782909Y-95831647D01*
X108667810Y-95917810D01*
X108581647Y-96032909D01*
X108581646Y-96032912D01*
X108531403Y-96167618D01*
X108531401Y-96167627D01*
X108525000Y-96227177D01*
X108525000Y-96875000D01*
X109441988Y-96875000D01*
X109409075Y-96932007D01*
X109375000Y-97059174D01*
X109375000Y-97190826D01*
X109409075Y-97317993D01*
X109441988Y-97375000D01*
X108525000Y-97375000D01*
X108525000Y-98022822D01*
X104537584Y-98022822D01*
X104551989Y-97984201D01*
X104558500Y-97923638D01*
X104558500Y-96126362D01*
X104551989Y-96065799D01*
X104500889Y-95928796D01*
X104413261Y-95811739D01*
X104296204Y-95724111D01*
X104159201Y-95673011D01*
X104139013Y-95670840D01*
X104098640Y-95666500D01*
X104098638Y-95666500D01*
X102301362Y-95666500D01*
X102301360Y-95666500D01*
X102240799Y-95673011D01*
X102103796Y-95724111D01*
X102103795Y-95724111D01*
X102103794Y-95724112D01*
X102027263Y-95781403D01*
X101986739Y-95811739D01*
X101899111Y-95928796D01*
X101848011Y-96065799D01*
X101841500Y-96126362D01*
X101841500Y-97923638D01*
X100075500Y-97923638D01*
X100075500Y-92680000D01*
X123361502Y-92680000D01*
X123381457Y-92908088D01*
X123381458Y-92908093D01*
X123440716Y-93129243D01*
X123537477Y-93336749D01*
X123537481Y-93336755D01*
X123668803Y-93524302D01*
X123830697Y-93686196D01*
X123830700Y-93686198D01*
X124018251Y-93817523D01*
X124225757Y-93914284D01*
X124446913Y-93973543D01*
X124675000Y-93993498D01*
X124903087Y-93973543D01*
X125124243Y-93914284D01*
X125331749Y-93817523D01*
X125519300Y-93686198D01*
X125556860Y-93648638D01*
X155341500Y-93648638D01*
X155348011Y-93709201D01*
X155399111Y-93846204D01*
X155486739Y-93963261D01*
X155603796Y-94050889D01*
X155740799Y-94101989D01*
X155790642Y-94107347D01*
X155801360Y-94108500D01*
X155801362Y-94108500D01*
X157598640Y-94108500D01*
X157608485Y-94107441D01*
X157659201Y-94101989D01*
X157796204Y-94050889D01*
X157913261Y-93963261D01*
X158000889Y-93846204D01*
X158051989Y-93709201D01*
X158053212Y-93697822D01*
X163125000Y-93697822D01*
X163131401Y-93757372D01*
X163131403Y-93757381D01*
X163181646Y-93892087D01*
X163181647Y-93892090D01*
X163267810Y-94007189D01*
X163382909Y-94093352D01*
X163382912Y-94093353D01*
X163517618Y-94143596D01*
X163517627Y-94143598D01*
X163577177Y-94150000D01*
X164225000Y-94150000D01*
X164225000Y-93233012D01*
X164282007Y-93265925D01*
X164409174Y-93300000D01*
X164540826Y-93300000D01*
X164667993Y-93265925D01*
X164725000Y-93233012D01*
X164725000Y-94150000D01*
X165372823Y-94150000D01*
X165432372Y-94143598D01*
X165432381Y-94143596D01*
X165567087Y-94093353D01*
X165567090Y-94093352D01*
X165682189Y-94007189D01*
X165768352Y-93892090D01*
X165768353Y-93892087D01*
X165818596Y-93757381D01*
X165818598Y-93757372D01*
X165825000Y-93697822D01*
X165825000Y-93050000D01*
X164908012Y-93050000D01*
X164940925Y-92992993D01*
X164975000Y-92865826D01*
X164975000Y-92734174D01*
X164940925Y-92607007D01*
X164908012Y-92550000D01*
X165825000Y-92550000D01*
X165825000Y-91902177D01*
X165818598Y-91842627D01*
X165818596Y-91842618D01*
X165768353Y-91707912D01*
X165768352Y-91707909D01*
X165682189Y-91592810D01*
X165567090Y-91506647D01*
X165567087Y-91506646D01*
X165432381Y-91456403D01*
X165432372Y-91456401D01*
X165372823Y-91450000D01*
X164725000Y-91450000D01*
X164725000Y-92366988D01*
X164667993Y-92334075D01*
X164540826Y-92300000D01*
X164409174Y-92300000D01*
X164282007Y-92334075D01*
X164225000Y-92366988D01*
X164225000Y-91450000D01*
X163577177Y-91450000D01*
X163517627Y-91456401D01*
X163517618Y-91456403D01*
X163382912Y-91506646D01*
X163382909Y-91506647D01*
X163267810Y-91592810D01*
X163181647Y-91707909D01*
X163181646Y-91707912D01*
X163131403Y-91842618D01*
X163131401Y-91842627D01*
X163125000Y-91902177D01*
X163125000Y-92550000D01*
X164041988Y-92550000D01*
X164009075Y-92607007D01*
X163975000Y-92734174D01*
X163975000Y-92865826D01*
X164009075Y-92992993D01*
X164041988Y-93050000D01*
X163125000Y-93050000D01*
X163125000Y-93697822D01*
X158053212Y-93697822D01*
X158058500Y-93648638D01*
X158058500Y-91851362D01*
X158051989Y-91790799D01*
X158000889Y-91653796D01*
X157913261Y-91536739D01*
X157796204Y-91449111D01*
X157659201Y-91398011D01*
X157639013Y-91395840D01*
X157598640Y-91391500D01*
X157598638Y-91391500D01*
X155801362Y-91391500D01*
X155801360Y-91391500D01*
X155740799Y-91398011D01*
X155603796Y-91449111D01*
X155603795Y-91449111D01*
X155603794Y-91449112D01*
X155486739Y-91536739D01*
X155404264Y-91646913D01*
X155399111Y-91653796D01*
X155395856Y-91662523D01*
X155348011Y-91790799D01*
X155345029Y-91818541D01*
X155341500Y-91851362D01*
X155341500Y-93648638D01*
X125556860Y-93648638D01*
X125681198Y-93524300D01*
X125812523Y-93336749D01*
X125909284Y-93129243D01*
X125968543Y-92908087D01*
X125988498Y-92680000D01*
X125968543Y-92451913D01*
X125909284Y-92230757D01*
X125812523Y-92023251D01*
X125683157Y-91838498D01*
X125681196Y-91835697D01*
X125519302Y-91673803D01*
X125331755Y-91542481D01*
X125331749Y-91542477D01*
X125124243Y-91445716D01*
X124903093Y-91386458D01*
X124903088Y-91386457D01*
X124675000Y-91366502D01*
X124446911Y-91386457D01*
X124446906Y-91386458D01*
X124225756Y-91445716D01*
X124018250Y-91542477D01*
X124018244Y-91542481D01*
X123830697Y-91673803D01*
X123668803Y-91835697D01*
X123537481Y-92023244D01*
X123537477Y-92023250D01*
X123440716Y-92230756D01*
X123381458Y-92451906D01*
X123381457Y-92451911D01*
X123361502Y-92680000D01*
X100075500Y-92680000D01*
X100075500Y-90525000D01*
X118761502Y-90525000D01*
X118781457Y-90753088D01*
X118781458Y-90753093D01*
X118840716Y-90974243D01*
X118937477Y-91181749D01*
X118937481Y-91181755D01*
X119068803Y-91369302D01*
X119230697Y-91531196D01*
X119230700Y-91531198D01*
X119418251Y-91662523D01*
X119625757Y-91759284D01*
X119846913Y-91818543D01*
X120075000Y-91838498D01*
X120303087Y-91818543D01*
X120524243Y-91759284D01*
X120731749Y-91662523D01*
X120919300Y-91531198D01*
X121081198Y-91369300D01*
X121212523Y-91181749D01*
X121309284Y-90974243D01*
X121368543Y-90753087D01*
X121388498Y-90525000D01*
X121368543Y-90296913D01*
X121309284Y-90075757D01*
X121212523Y-89868251D01*
X121081198Y-89680700D01*
X121081196Y-89680697D01*
X120919302Y-89518803D01*
X120731755Y-89387481D01*
X120731749Y-89387477D01*
X120524243Y-89290716D01*
X120303093Y-89231458D01*
X120303088Y-89231457D01*
X120075000Y-89211502D01*
X119846911Y-89231457D01*
X119846906Y-89231458D01*
X119625756Y-89290716D01*
X119418250Y-89387477D01*
X119418244Y-89387481D01*
X119230697Y-89518803D01*
X119068803Y-89680697D01*
X118937481Y-89868244D01*
X118937477Y-89868250D01*
X118840716Y-90075756D01*
X118781458Y-90296906D01*
X118781457Y-90296911D01*
X118761502Y-90525000D01*
X100075500Y-90525000D01*
X100075500Y-89223638D01*
X101466500Y-89223638D01*
X101473011Y-89284201D01*
X101524111Y-89421204D01*
X101611739Y-89538261D01*
X101728796Y-89625889D01*
X101865799Y-89676989D01*
X101915642Y-89682347D01*
X101926360Y-89683500D01*
X101926362Y-89683500D01*
X103723640Y-89683500D01*
X103733485Y-89682441D01*
X103784201Y-89676989D01*
X103921204Y-89625889D01*
X104038261Y-89538261D01*
X104125889Y-89421204D01*
X104176989Y-89284201D01*
X104183500Y-89223638D01*
X104183500Y-89205000D01*
X128736502Y-89205000D01*
X128756457Y-89433088D01*
X128756458Y-89433093D01*
X128815716Y-89654243D01*
X128912477Y-89861749D01*
X128912481Y-89861755D01*
X129043803Y-90049302D01*
X129205698Y-90211197D01*
X129357052Y-90317177D01*
X129416476Y-90382845D01*
X129441524Y-90467792D01*
X129427233Y-90555195D01*
X129376435Y-90627742D01*
X129357052Y-90643199D01*
X129211182Y-90745338D01*
X129050339Y-90906181D01*
X128919867Y-91092513D01*
X128919865Y-91092516D01*
X128823731Y-91298678D01*
X128771127Y-91494999D01*
X128771128Y-91495000D01*
X129734314Y-91495000D01*
X129729920Y-91499394D01*
X129677259Y-91590606D01*
X129650000Y-91692339D01*
X129650000Y-91797661D01*
X129677259Y-91899394D01*
X129729920Y-91990606D01*
X129734314Y-91995000D01*
X128771127Y-91995000D01*
X128823731Y-92191321D01*
X128919865Y-92397483D01*
X128919867Y-92397486D01*
X129050339Y-92583818D01*
X129211181Y-92744660D01*
X129397513Y-92875132D01*
X129397516Y-92875134D01*
X129603679Y-92971268D01*
X129603678Y-92971268D01*
X129799999Y-93023872D01*
X129800000Y-93023872D01*
X129800000Y-92060686D01*
X129804394Y-92065080D01*
X129895606Y-92117741D01*
X129997339Y-92145000D01*
X130102661Y-92145000D01*
X130204394Y-92117741D01*
X130295606Y-92065080D01*
X130300000Y-92060686D01*
X130300000Y-93023872D01*
X130496321Y-92971268D01*
X130702483Y-92875134D01*
X130702486Y-92875132D01*
X130888818Y-92744660D01*
X131049660Y-92583818D01*
X131180132Y-92397486D01*
X131180134Y-92397483D01*
X131276268Y-92191321D01*
X131328872Y-91995000D01*
X130365686Y-91995000D01*
X130370080Y-91990606D01*
X130422741Y-91899394D01*
X130450000Y-91797661D01*
X130450000Y-91745000D01*
X136356502Y-91745000D01*
X136376457Y-91973088D01*
X136376458Y-91973093D01*
X136435716Y-92194243D01*
X136532477Y-92401749D01*
X136532481Y-92401755D01*
X136663803Y-92589302D01*
X136825697Y-92751196D01*
X136825700Y-92751198D01*
X137013251Y-92882523D01*
X137220757Y-92979284D01*
X137441913Y-93038543D01*
X137670000Y-93058498D01*
X137898087Y-93038543D01*
X138119243Y-92979284D01*
X138326749Y-92882523D01*
X138514300Y-92751198D01*
X138676198Y-92589300D01*
X138807523Y-92401749D01*
X138904284Y-92194243D01*
X138963543Y-91973087D01*
X138972124Y-91875000D01*
X140531502Y-91875000D01*
X140551457Y-92103088D01*
X140551458Y-92103093D01*
X140610716Y-92324243D01*
X140707477Y-92531749D01*
X140707481Y-92531755D01*
X140838803Y-92719302D01*
X141000697Y-92881196D01*
X141000700Y-92881198D01*
X141188251Y-93012523D01*
X141395757Y-93109284D01*
X141616913Y-93168543D01*
X141845000Y-93188498D01*
X142073087Y-93168543D01*
X142294243Y-93109284D01*
X142501749Y-93012523D01*
X142689300Y-92881198D01*
X142851198Y-92719300D01*
X142982523Y-92531749D01*
X143079284Y-92324243D01*
X143138543Y-92103087D01*
X143158498Y-91875000D01*
X150691502Y-91875000D01*
X150711457Y-92103088D01*
X150711458Y-92103093D01*
X150770716Y-92324243D01*
X150867477Y-92531749D01*
X150867481Y-92531755D01*
X150998803Y-92719302D01*
X151160697Y-92881196D01*
X151160700Y-92881198D01*
X151348251Y-93012523D01*
X151555757Y-93109284D01*
X151776913Y-93168543D01*
X152005000Y-93188498D01*
X152233087Y-93168543D01*
X152454243Y-93109284D01*
X152661749Y-93012523D01*
X152849300Y-92881198D01*
X153011198Y-92719300D01*
X153142523Y-92531749D01*
X153239284Y-92324243D01*
X153298543Y-92103087D01*
X153318498Y-91875000D01*
X153298543Y-91646913D01*
X153239284Y-91425757D01*
X153142523Y-91218251D01*
X153011198Y-91030700D01*
X153011196Y-91030697D01*
X152849302Y-90868803D01*
X152661755Y-90737481D01*
X152661749Y-90737477D01*
X152454243Y-90640716D01*
X152233093Y-90581458D01*
X152233088Y-90581457D01*
X152005000Y-90561502D01*
X151776911Y-90581457D01*
X151776906Y-90581458D01*
X151555756Y-90640716D01*
X151348250Y-90737477D01*
X151348244Y-90737481D01*
X151160697Y-90868803D01*
X150998803Y-91030697D01*
X150867481Y-91218244D01*
X150867477Y-91218250D01*
X150770716Y-91425756D01*
X150711458Y-91646906D01*
X150711457Y-91646911D01*
X150691502Y-91875000D01*
X143158498Y-91875000D01*
X143138543Y-91646913D01*
X143079284Y-91425757D01*
X142982523Y-91218251D01*
X142851198Y-91030700D01*
X142851196Y-91030697D01*
X142689302Y-90868803D01*
X142501755Y-90737481D01*
X142501749Y-90737477D01*
X142294243Y-90640716D01*
X142073093Y-90581458D01*
X142073088Y-90581457D01*
X141845000Y-90561502D01*
X141616911Y-90581457D01*
X141616906Y-90581458D01*
X141395756Y-90640716D01*
X141188250Y-90737477D01*
X141188244Y-90737481D01*
X141000697Y-90868803D01*
X140838803Y-91030697D01*
X140707481Y-91218244D01*
X140707477Y-91218250D01*
X140610716Y-91425756D01*
X140551458Y-91646906D01*
X140551457Y-91646911D01*
X140531502Y-91875000D01*
X138972124Y-91875000D01*
X138983498Y-91745000D01*
X138963543Y-91516913D01*
X138904284Y-91295757D01*
X138807523Y-91088251D01*
X138676198Y-90900700D01*
X138676196Y-90900697D01*
X138514302Y-90738803D01*
X138370356Y-90638011D01*
X138310932Y-90572344D01*
X138285884Y-90487396D01*
X138300175Y-90399994D01*
X138350973Y-90327447D01*
X138370356Y-90311989D01*
X138391887Y-90296913D01*
X138514300Y-90211198D01*
X138676198Y-90049300D01*
X138807523Y-89861749D01*
X138904284Y-89654243D01*
X138963543Y-89433087D01*
X138983498Y-89205000D01*
X138963543Y-88976913D01*
X138904284Y-88755757D01*
X138807523Y-88548251D01*
X138676198Y-88360700D01*
X138676196Y-88360697D01*
X138514302Y-88198803D01*
X138370356Y-88098011D01*
X138310932Y-88032344D01*
X138285884Y-87947396D01*
X138300175Y-87859994D01*
X138350973Y-87787447D01*
X138370356Y-87771989D01*
X138378837Y-87766049D01*
X138514300Y-87671198D01*
X138676198Y-87509300D01*
X138807523Y-87321749D01*
X138904284Y-87114243D01*
X138963543Y-86893087D01*
X138983498Y-86665000D01*
X138963543Y-86436913D01*
X138904284Y-86215757D01*
X138807523Y-86008251D01*
X138676198Y-85820700D01*
X138676196Y-85820697D01*
X138630499Y-85775000D01*
X140556502Y-85775000D01*
X140576457Y-86003088D01*
X140576458Y-86003093D01*
X140635716Y-86224243D01*
X140732477Y-86431749D01*
X140732481Y-86431755D01*
X140863803Y-86619302D01*
X141025697Y-86781196D01*
X141025700Y-86781198D01*
X141213251Y-86912523D01*
X141420757Y-87009284D01*
X141641913Y-87068543D01*
X141870000Y-87088498D01*
X142098087Y-87068543D01*
X142319243Y-87009284D01*
X142526749Y-86912523D01*
X142714300Y-86781198D01*
X142876198Y-86619300D01*
X143007523Y-86431749D01*
X143104284Y-86224243D01*
X143163543Y-86003087D01*
X143183498Y-85775000D01*
X150716502Y-85775000D01*
X150736457Y-86003088D01*
X150736458Y-86003093D01*
X150795716Y-86224243D01*
X150892477Y-86431749D01*
X150892481Y-86431755D01*
X151023803Y-86619302D01*
X151185697Y-86781196D01*
X151185700Y-86781198D01*
X151373251Y-86912523D01*
X151580757Y-87009284D01*
X151801913Y-87068543D01*
X152030000Y-87088498D01*
X152258087Y-87068543D01*
X152479243Y-87009284D01*
X152502071Y-86998639D01*
X159341500Y-86998639D01*
X159344239Y-87024111D01*
X159348011Y-87059201D01*
X159399111Y-87196204D01*
X159486739Y-87313261D01*
X159603796Y-87400889D01*
X159740799Y-87451989D01*
X159790642Y-87457347D01*
X159801360Y-87458500D01*
X159801362Y-87458500D01*
X161698640Y-87458500D01*
X161708485Y-87457441D01*
X161759201Y-87451989D01*
X161896204Y-87400889D01*
X162013261Y-87313261D01*
X162086848Y-87214959D01*
X162109419Y-87184810D01*
X162111190Y-87186136D01*
X162157300Y-87133998D01*
X162238945Y-87099681D01*
X162327394Y-87104188D01*
X162395526Y-87138656D01*
X162516980Y-87233188D01*
X162516983Y-87233190D01*
X162722273Y-87344287D01*
X162943044Y-87420078D01*
X162943045Y-87420079D01*
X162943047Y-87420079D01*
X162943049Y-87420080D01*
X163173288Y-87458500D01*
X163173290Y-87458500D01*
X163406710Y-87458500D01*
X163406712Y-87458500D01*
X163636951Y-87420080D01*
X163857727Y-87344287D01*
X164063017Y-87233190D01*
X164068663Y-87228796D01*
X164219056Y-87111739D01*
X164247220Y-87089818D01*
X164405314Y-86918083D01*
X164532984Y-86722669D01*
X164626749Y-86508907D01*
X164684051Y-86282626D01*
X164686716Y-86250472D01*
X164703327Y-86050004D01*
X164703327Y-86049995D01*
X164684052Y-85817381D01*
X164684051Y-85817378D01*
X164684051Y-85817374D01*
X164626749Y-85591093D01*
X164583434Y-85492344D01*
X164532986Y-85377334D01*
X164532984Y-85377332D01*
X164532984Y-85377331D01*
X164405314Y-85181917D01*
X164247220Y-85010182D01*
X164247219Y-85010181D01*
X164247217Y-85010179D01*
X164063019Y-84866811D01*
X163857727Y-84755713D01*
X163636955Y-84679921D01*
X163636954Y-84679920D01*
X163406715Y-84641500D01*
X163406712Y-84641500D01*
X163173288Y-84641500D01*
X163173284Y-84641500D01*
X162943045Y-84679920D01*
X162943044Y-84679921D01*
X162722272Y-84755713D01*
X162516980Y-84866811D01*
X162395525Y-84961344D01*
X162315284Y-84998825D01*
X162226727Y-84997779D01*
X162147394Y-84958413D01*
X162110713Y-84914220D01*
X162109419Y-84915190D01*
X162073202Y-84866810D01*
X162013261Y-84786739D01*
X161896204Y-84699111D01*
X161759201Y-84648011D01*
X161739013Y-84645840D01*
X161698640Y-84641500D01*
X161698638Y-84641500D01*
X159801362Y-84641500D01*
X159801360Y-84641500D01*
X159740799Y-84648011D01*
X159603796Y-84699111D01*
X159603795Y-84699111D01*
X159603794Y-84699112D01*
X159486739Y-84786739D01*
X159422522Y-84872523D01*
X159399111Y-84903796D01*
X159374679Y-84969300D01*
X159348011Y-85040799D01*
X159341500Y-85101360D01*
X159341500Y-86998639D01*
X152502071Y-86998639D01*
X152686749Y-86912523D01*
X152874300Y-86781198D01*
X153036198Y-86619300D01*
X153167523Y-86431749D01*
X153264284Y-86224243D01*
X153323543Y-86003087D01*
X153343498Y-85775000D01*
X153323543Y-85546913D01*
X153264284Y-85325757D01*
X153167523Y-85118251D01*
X153066264Y-84973638D01*
X153036196Y-84930697D01*
X152874302Y-84768803D01*
X152686755Y-84637481D01*
X152686749Y-84637477D01*
X152479243Y-84540716D01*
X152258093Y-84481458D01*
X152258088Y-84481457D01*
X152030000Y-84461502D01*
X151801911Y-84481457D01*
X151801906Y-84481458D01*
X151580756Y-84540716D01*
X151373250Y-84637477D01*
X151373244Y-84637481D01*
X151185697Y-84768803D01*
X151023803Y-84930697D01*
X150892481Y-85118244D01*
X150892477Y-85118250D01*
X150795716Y-85325756D01*
X150736458Y-85546906D01*
X150736457Y-85546911D01*
X150716502Y-85775000D01*
X143183498Y-85775000D01*
X143163543Y-85546913D01*
X143104284Y-85325757D01*
X143007523Y-85118251D01*
X142906264Y-84973638D01*
X142876196Y-84930697D01*
X142714302Y-84768803D01*
X142526755Y-84637481D01*
X142526749Y-84637477D01*
X142319243Y-84540716D01*
X142098093Y-84481458D01*
X142098088Y-84481457D01*
X141870000Y-84461502D01*
X141641911Y-84481457D01*
X141641906Y-84481458D01*
X141420756Y-84540716D01*
X141213250Y-84637477D01*
X141213244Y-84637481D01*
X141025697Y-84768803D01*
X140863803Y-84930697D01*
X140732481Y-85118244D01*
X140732477Y-85118250D01*
X140635716Y-85325756D01*
X140576458Y-85546906D01*
X140576457Y-85546911D01*
X140556502Y-85775000D01*
X138630499Y-85775000D01*
X138514302Y-85658803D01*
X138370356Y-85558011D01*
X138310932Y-85492344D01*
X138285884Y-85407396D01*
X138300175Y-85319994D01*
X138350973Y-85247447D01*
X138370356Y-85231989D01*
X138441866Y-85181917D01*
X138514300Y-85131198D01*
X138676198Y-84969300D01*
X138807523Y-84781749D01*
X138904284Y-84574243D01*
X138963543Y-84353087D01*
X138983498Y-84125000D01*
X138963543Y-83896913D01*
X138904284Y-83675757D01*
X138807523Y-83468251D01*
X138676198Y-83280700D01*
X138676196Y-83280697D01*
X138514302Y-83118803D01*
X138326755Y-82987481D01*
X138326749Y-82987477D01*
X138119243Y-82890716D01*
X137898093Y-82831458D01*
X137898088Y-82831457D01*
X137670000Y-82811502D01*
X137441911Y-82831457D01*
X137441906Y-82831458D01*
X137220756Y-82890716D01*
X137013250Y-82987477D01*
X137013244Y-82987481D01*
X136825697Y-83118803D01*
X136663803Y-83280697D01*
X136532481Y-83468244D01*
X136532477Y-83468250D01*
X136435716Y-83675756D01*
X136376458Y-83896906D01*
X136376457Y-83896911D01*
X136356502Y-84125000D01*
X136376457Y-84353088D01*
X136376458Y-84353093D01*
X136435716Y-84574243D01*
X136532477Y-84781749D01*
X136532481Y-84781755D01*
X136663803Y-84969302D01*
X136825698Y-85131197D01*
X136969643Y-85231989D01*
X137029067Y-85297657D01*
X137054115Y-85382604D01*
X137039824Y-85470007D01*
X136989026Y-85542554D01*
X136969643Y-85558011D01*
X136825698Y-85658802D01*
X136663803Y-85820697D01*
X136532481Y-86008244D01*
X136532477Y-86008250D01*
X136435716Y-86215756D01*
X136376458Y-86436906D01*
X136376457Y-86436911D01*
X136356502Y-86665000D01*
X136376457Y-86893088D01*
X136376458Y-86893093D01*
X136435716Y-87114243D01*
X136532477Y-87321749D01*
X136532481Y-87321755D01*
X136663803Y-87509302D01*
X136825698Y-87671197D01*
X136969643Y-87771989D01*
X137029067Y-87837657D01*
X137054115Y-87922604D01*
X137039824Y-88010007D01*
X136989026Y-88082554D01*
X136969643Y-88098011D01*
X136825698Y-88198802D01*
X136663803Y-88360697D01*
X136532481Y-88548244D01*
X136532477Y-88548250D01*
X136435716Y-88755756D01*
X136376458Y-88976906D01*
X136376457Y-88976911D01*
X136356502Y-89205000D01*
X136376457Y-89433088D01*
X136376458Y-89433093D01*
X136435716Y-89654243D01*
X136532477Y-89861749D01*
X136532481Y-89861755D01*
X136663803Y-90049302D01*
X136825698Y-90211197D01*
X136969643Y-90311989D01*
X137029067Y-90377657D01*
X137054115Y-90462604D01*
X137039824Y-90550007D01*
X136989026Y-90622554D01*
X136969643Y-90638011D01*
X136825698Y-90738802D01*
X136663803Y-90900697D01*
X136532481Y-91088244D01*
X136532477Y-91088250D01*
X136435716Y-91295756D01*
X136376458Y-91516906D01*
X136376457Y-91516911D01*
X136356502Y-91745000D01*
X130450000Y-91745000D01*
X130450000Y-91692339D01*
X130422741Y-91590606D01*
X130370080Y-91499394D01*
X130365686Y-91495000D01*
X131328872Y-91495000D01*
X131328872Y-91494999D01*
X131276268Y-91298678D01*
X131180134Y-91092516D01*
X131180132Y-91092513D01*
X131049660Y-90906181D01*
X130888818Y-90745339D01*
X130742947Y-90643199D01*
X130683523Y-90577532D01*
X130658475Y-90492584D01*
X130672766Y-90405181D01*
X130723564Y-90332635D01*
X130742947Y-90317177D01*
X130778641Y-90292183D01*
X130894300Y-90211198D01*
X131056198Y-90049300D01*
X131187523Y-89861749D01*
X131284284Y-89654243D01*
X131343543Y-89433087D01*
X131363498Y-89205000D01*
X131343543Y-88976913D01*
X131284284Y-88755757D01*
X131187523Y-88548251D01*
X131056198Y-88360700D01*
X131056196Y-88360697D01*
X130894302Y-88198803D01*
X130750356Y-88098011D01*
X130690932Y-88032344D01*
X130665884Y-87947396D01*
X130680175Y-87859994D01*
X130730973Y-87787447D01*
X130750356Y-87771989D01*
X130758837Y-87766049D01*
X130894300Y-87671198D01*
X131056198Y-87509300D01*
X131187523Y-87321749D01*
X131284284Y-87114243D01*
X131343543Y-86893087D01*
X131363498Y-86665000D01*
X131343543Y-86436913D01*
X131284284Y-86215757D01*
X131187523Y-86008251D01*
X131056198Y-85820700D01*
X131056196Y-85820697D01*
X130962047Y-85726548D01*
X130914928Y-85651560D01*
X130905012Y-85563553D01*
X130934263Y-85479960D01*
X130996887Y-85417336D01*
X131033207Y-85399385D01*
X131096204Y-85375889D01*
X131213261Y-85288261D01*
X131300889Y-85171204D01*
X131351989Y-85034201D01*
X131358500Y-84973638D01*
X131358500Y-83276362D01*
X131351989Y-83215799D01*
X131300889Y-83078796D01*
X131213261Y-82961739D01*
X131096204Y-82874111D01*
X130959201Y-82823011D01*
X130939013Y-82820840D01*
X130898640Y-82816500D01*
X130898638Y-82816500D01*
X129201362Y-82816500D01*
X129201360Y-82816500D01*
X129140799Y-82823011D01*
X129003796Y-82874111D01*
X129003795Y-82874111D01*
X129003794Y-82874112D01*
X128981614Y-82890716D01*
X128886739Y-82961739D01*
X128799111Y-83078796D01*
X128748011Y-83215799D01*
X128741500Y-83276362D01*
X128741500Y-84973638D01*
X128748011Y-85034201D01*
X128799111Y-85171204D01*
X128886739Y-85288261D01*
X128936828Y-85325757D01*
X129003794Y-85375888D01*
X129003795Y-85375888D01*
X129003796Y-85375889D01*
X129066782Y-85399381D01*
X129140793Y-85448019D01*
X129186372Y-85523953D01*
X129194491Y-85612143D01*
X129163542Y-85695123D01*
X129137953Y-85726548D01*
X129043800Y-85820701D01*
X128912481Y-86008244D01*
X128912477Y-86008250D01*
X128815716Y-86215756D01*
X128756458Y-86436906D01*
X128756457Y-86436911D01*
X128736502Y-86665000D01*
X128756457Y-86893088D01*
X128756458Y-86893093D01*
X128815716Y-87114243D01*
X128912477Y-87321749D01*
X128912481Y-87321755D01*
X129043803Y-87509302D01*
X129205698Y-87671197D01*
X129349643Y-87771989D01*
X129409067Y-87837657D01*
X129434115Y-87922604D01*
X129419824Y-88010007D01*
X129369026Y-88082554D01*
X129349643Y-88098011D01*
X129205698Y-88198802D01*
X129043803Y-88360697D01*
X128912481Y-88548244D01*
X128912477Y-88548250D01*
X128815716Y-88755756D01*
X128756458Y-88976906D01*
X128756457Y-88976911D01*
X128736502Y-89205000D01*
X104183500Y-89205000D01*
X104183500Y-87426362D01*
X104182824Y-87420078D01*
X104180761Y-87400887D01*
X104176989Y-87365799D01*
X104125889Y-87228796D01*
X104038261Y-87111739D01*
X103921204Y-87024111D01*
X103784201Y-86973011D01*
X103764013Y-86970840D01*
X103723640Y-86966500D01*
X103723638Y-86966500D01*
X101926362Y-86966500D01*
X101926360Y-86966500D01*
X101865799Y-86973011D01*
X101728796Y-87024111D01*
X101728795Y-87024111D01*
X101728794Y-87024112D01*
X101611739Y-87111739D01*
X101524112Y-87228794D01*
X101473011Y-87365799D01*
X101467176Y-87420078D01*
X101466500Y-87426362D01*
X101466500Y-89223638D01*
X100075500Y-89223638D01*
X100075500Y-85525000D01*
X118770034Y-85525000D01*
X118789858Y-85751603D01*
X118848733Y-85971326D01*
X118848735Y-85971330D01*
X118944862Y-86177476D01*
X118944863Y-86177477D01*
X118995974Y-86250471D01*
X119675000Y-85571446D01*
X119675000Y-85577661D01*
X119702259Y-85679394D01*
X119754920Y-85770606D01*
X119829394Y-85845080D01*
X119920606Y-85897741D01*
X120022339Y-85925000D01*
X120028553Y-85925000D01*
X119349526Y-86604024D01*
X119349527Y-86604025D01*
X119422516Y-86655132D01*
X119422523Y-86655137D01*
X119628669Y-86751264D01*
X119628673Y-86751266D01*
X119848397Y-86810141D01*
X119848394Y-86810141D01*
X120075000Y-86829965D01*
X120301603Y-86810141D01*
X120521326Y-86751266D01*
X120521330Y-86751264D01*
X120727478Y-86655136D01*
X120727483Y-86655133D01*
X120800471Y-86604024D01*
X120800472Y-86604024D01*
X120121448Y-85925000D01*
X120127661Y-85925000D01*
X120229394Y-85897741D01*
X120320606Y-85845080D01*
X120395080Y-85770606D01*
X120447741Y-85679394D01*
X120475000Y-85577661D01*
X120475000Y-85571448D01*
X121154024Y-86250472D01*
X121154024Y-86250471D01*
X121205133Y-86177483D01*
X121205136Y-86177478D01*
X121301264Y-85971330D01*
X121301266Y-85971326D01*
X121360141Y-85751603D01*
X121379965Y-85525000D01*
X121360141Y-85298396D01*
X121301266Y-85078673D01*
X121301264Y-85078669D01*
X121205137Y-84872523D01*
X121205132Y-84872516D01*
X121154025Y-84799527D01*
X121154024Y-84799526D01*
X120475000Y-85478551D01*
X120475000Y-85472339D01*
X120447741Y-85370606D01*
X120395080Y-85279394D01*
X120320606Y-85204920D01*
X120229394Y-85152259D01*
X120127661Y-85125000D01*
X120121448Y-85125000D01*
X120800471Y-84445974D01*
X120727477Y-84394863D01*
X120727476Y-84394862D01*
X120521330Y-84298735D01*
X120521326Y-84298733D01*
X120301602Y-84239858D01*
X120301605Y-84239858D01*
X120075000Y-84220034D01*
X119848396Y-84239858D01*
X119628673Y-84298733D01*
X119628670Y-84298735D01*
X119422518Y-84394865D01*
X119422514Y-84394867D01*
X119349527Y-84445973D01*
X119349527Y-84445974D01*
X120028553Y-85125000D01*
X120022339Y-85125000D01*
X119920606Y-85152259D01*
X119829394Y-85204920D01*
X119754920Y-85279394D01*
X119702259Y-85370606D01*
X119675000Y-85472339D01*
X119675000Y-85478553D01*
X118995974Y-84799527D01*
X118995973Y-84799527D01*
X118944867Y-84872514D01*
X118944865Y-84872518D01*
X118848735Y-85078670D01*
X118848733Y-85078673D01*
X118789858Y-85298396D01*
X118770034Y-85525000D01*
X100075500Y-85525000D01*
X100075500Y-83373638D01*
X101391500Y-83373638D01*
X101398011Y-83434201D01*
X101449111Y-83571204D01*
X101536739Y-83688261D01*
X101653796Y-83775889D01*
X101790799Y-83826989D01*
X101840642Y-83832347D01*
X101851360Y-83833500D01*
X101851362Y-83833500D01*
X103648640Y-83833500D01*
X103658485Y-83832441D01*
X103709201Y-83826989D01*
X103846204Y-83775889D01*
X103963261Y-83688261D01*
X104050889Y-83571204D01*
X104101989Y-83434201D01*
X104108500Y-83373638D01*
X104108500Y-82520000D01*
X123361502Y-82520000D01*
X123381457Y-82748088D01*
X123381458Y-82748093D01*
X123440716Y-82969243D01*
X123537477Y-83176749D01*
X123537481Y-83176755D01*
X123668803Y-83364302D01*
X123830697Y-83526196D01*
X123830700Y-83526198D01*
X124018251Y-83657523D01*
X124225757Y-83754284D01*
X124446913Y-83813543D01*
X124675000Y-83833498D01*
X124903087Y-83813543D01*
X125124243Y-83754284D01*
X125331749Y-83657523D01*
X125519300Y-83526198D01*
X125681198Y-83364300D01*
X125812523Y-83176749D01*
X125909284Y-82969243D01*
X125968543Y-82748087D01*
X125988498Y-82520000D01*
X125968543Y-82291913D01*
X125909284Y-82070757D01*
X125812523Y-81863251D01*
X125681198Y-81675700D01*
X125681196Y-81675697D01*
X125519302Y-81513803D01*
X125331755Y-81382481D01*
X125331749Y-81382477D01*
X125124243Y-81285716D01*
X124903093Y-81226458D01*
X124903088Y-81226457D01*
X124675000Y-81206502D01*
X124446911Y-81226457D01*
X124446906Y-81226458D01*
X124225756Y-81285716D01*
X124018250Y-81382477D01*
X124018244Y-81382481D01*
X123830697Y-81513803D01*
X123668803Y-81675697D01*
X123537481Y-81863244D01*
X123537477Y-81863250D01*
X123440716Y-82070756D01*
X123381458Y-82291906D01*
X123381457Y-82291911D01*
X123361502Y-82520000D01*
X104108500Y-82520000D01*
X104108500Y-81576362D01*
X104101989Y-81515799D01*
X104050889Y-81378796D01*
X103963261Y-81261739D01*
X103846204Y-81174111D01*
X103709201Y-81123011D01*
X103689013Y-81120840D01*
X103648640Y-81116500D01*
X103648638Y-81116500D01*
X101851362Y-81116500D01*
X101851360Y-81116500D01*
X101790799Y-81123011D01*
X101653796Y-81174111D01*
X101653795Y-81174111D01*
X101653794Y-81174112D01*
X101536739Y-81261739D01*
X101480008Y-81337523D01*
X101449111Y-81378796D01*
X101398011Y-81515799D01*
X101391500Y-81576362D01*
X101391500Y-83373638D01*
X100075500Y-83373638D01*
X100075500Y-80200000D01*
X155181502Y-80200000D01*
X155201457Y-80428088D01*
X155201458Y-80428093D01*
X155260716Y-80649243D01*
X155357477Y-80856749D01*
X155357481Y-80856755D01*
X155488803Y-81044302D01*
X155650697Y-81206196D01*
X155650700Y-81206198D01*
X155838251Y-81337523D01*
X156045757Y-81434284D01*
X156266913Y-81493543D01*
X156495000Y-81513498D01*
X156723087Y-81493543D01*
X156944243Y-81434284D01*
X157151749Y-81337523D01*
X157339300Y-81206198D01*
X157501198Y-81044300D01*
X157632523Y-80856749D01*
X157729284Y-80649243D01*
X157782671Y-80450000D01*
X165376127Y-80450000D01*
X165428731Y-80646321D01*
X165524865Y-80852483D01*
X165524867Y-80852486D01*
X165655339Y-81038818D01*
X165816181Y-81199660D01*
X166002513Y-81330132D01*
X166002516Y-81330134D01*
X166208679Y-81426268D01*
X166208678Y-81426268D01*
X166404999Y-81478872D01*
X166405000Y-81478872D01*
X166405000Y-80515686D01*
X166409394Y-80520080D01*
X166500606Y-80572741D01*
X166602339Y-80600000D01*
X166707661Y-80600000D01*
X166809394Y-80572741D01*
X166900606Y-80520080D01*
X166905000Y-80515686D01*
X166905000Y-81478872D01*
X167101321Y-81426268D01*
X167307483Y-81330134D01*
X167307486Y-81330132D01*
X167493818Y-81199660D01*
X167654660Y-81038818D01*
X167785132Y-80852486D01*
X167785134Y-80852483D01*
X167881268Y-80646321D01*
X167933872Y-80450000D01*
X166970686Y-80450000D01*
X166975080Y-80445606D01*
X167027741Y-80354394D01*
X167055000Y-80252661D01*
X167055000Y-80147339D01*
X167027741Y-80045606D01*
X166975080Y-79954394D01*
X166970686Y-79950000D01*
X167933872Y-79950000D01*
X167933872Y-79949999D01*
X167881268Y-79753678D01*
X167785134Y-79547516D01*
X167785132Y-79547513D01*
X167654660Y-79361181D01*
X167493818Y-79200339D01*
X167307486Y-79069867D01*
X167307483Y-79069865D01*
X167101330Y-78973735D01*
X167101325Y-78973733D01*
X166905000Y-78921127D01*
X166905000Y-79884314D01*
X166900606Y-79879920D01*
X166809394Y-79827259D01*
X166707661Y-79800000D01*
X166602339Y-79800000D01*
X166500606Y-79827259D01*
X166409394Y-79879920D01*
X166405000Y-79884314D01*
X166405000Y-78921127D01*
X166404999Y-78921127D01*
X166208674Y-78973733D01*
X166208669Y-78973735D01*
X166002516Y-79069865D01*
X166002513Y-79069867D01*
X165816181Y-79200339D01*
X165655339Y-79361181D01*
X165524867Y-79547513D01*
X165524865Y-79547516D01*
X165428731Y-79753678D01*
X165376127Y-79949999D01*
X165376128Y-79950000D01*
X166339314Y-79950000D01*
X166334920Y-79954394D01*
X166282259Y-80045606D01*
X166255000Y-80147339D01*
X166255000Y-80252661D01*
X166282259Y-80354394D01*
X166334920Y-80445606D01*
X166339314Y-80450000D01*
X165376127Y-80450000D01*
X157782671Y-80450000D01*
X157788543Y-80428087D01*
X157808498Y-80200000D01*
X157788543Y-79971913D01*
X157729284Y-79750757D01*
X157632523Y-79543251D01*
X157501198Y-79355700D01*
X157501196Y-79355697D01*
X157339302Y-79193803D01*
X157151755Y-79062481D01*
X157151749Y-79062477D01*
X156944243Y-78965716D01*
X156723093Y-78906458D01*
X156723088Y-78906457D01*
X156495000Y-78886502D01*
X156266911Y-78906457D01*
X156266906Y-78906458D01*
X156045756Y-78965716D01*
X155838250Y-79062477D01*
X155838244Y-79062481D01*
X155650697Y-79193803D01*
X155488803Y-79355697D01*
X155357481Y-79543244D01*
X155357477Y-79543250D01*
X155260716Y-79750756D01*
X155201458Y-79971906D01*
X155201457Y-79971911D01*
X155181502Y-80200000D01*
X100075500Y-80200000D01*
X100075500Y-78548638D01*
X114761388Y-78548638D01*
X114767899Y-78609201D01*
X114818999Y-78746204D01*
X114906627Y-78863261D01*
X115023684Y-78950889D01*
X115160687Y-79001989D01*
X115210530Y-79007347D01*
X115221248Y-79008500D01*
X115221250Y-79008500D01*
X116918528Y-79008500D01*
X116928373Y-79007441D01*
X116979089Y-79001989D01*
X117116092Y-78950889D01*
X117233149Y-78863261D01*
X117320777Y-78746204D01*
X117333403Y-78712351D01*
X117382041Y-78638340D01*
X117457975Y-78592761D01*
X117546165Y-78584642D01*
X117629145Y-78615591D01*
X117660570Y-78641181D01*
X117725585Y-78706196D01*
X117725588Y-78706198D01*
X117913139Y-78837523D01*
X118120645Y-78934284D01*
X118341801Y-78993543D01*
X118569888Y-79013498D01*
X118797975Y-78993543D01*
X119019131Y-78934284D01*
X119226637Y-78837523D01*
X119414188Y-78706198D01*
X119546748Y-78573638D01*
X122866500Y-78573638D01*
X122873011Y-78634201D01*
X122924111Y-78771204D01*
X123011739Y-78888261D01*
X123128796Y-78975889D01*
X123265799Y-79026989D01*
X123315642Y-79032347D01*
X123326360Y-79033500D01*
X123326362Y-79033500D01*
X125023640Y-79033500D01*
X125033485Y-79032441D01*
X125084201Y-79026989D01*
X125221204Y-78975889D01*
X125338261Y-78888261D01*
X125338261Y-78888260D01*
X125340871Y-78886307D01*
X125421802Y-78850340D01*
X125510324Y-78853049D01*
X125544229Y-78865259D01*
X125728669Y-78951264D01*
X125728673Y-78951266D01*
X125948397Y-79010141D01*
X125948394Y-79010141D01*
X126175000Y-79029965D01*
X126401603Y-79010141D01*
X126621326Y-78951266D01*
X126621330Y-78951264D01*
X126827478Y-78855136D01*
X126827483Y-78855133D01*
X126900471Y-78804024D01*
X126900472Y-78804024D01*
X126221448Y-78125000D01*
X126227661Y-78125000D01*
X126329394Y-78097741D01*
X126420606Y-78045080D01*
X126495080Y-77970606D01*
X126547741Y-77879394D01*
X126575000Y-77777661D01*
X126575000Y-77771448D01*
X127254024Y-78450472D01*
X127254024Y-78450471D01*
X127305133Y-78377483D01*
X127305136Y-78377478D01*
X127401264Y-78171330D01*
X127401266Y-78171326D01*
X127453872Y-77975000D01*
X129886502Y-77975000D01*
X129906457Y-78203088D01*
X129906458Y-78203093D01*
X129965716Y-78424243D01*
X130062477Y-78631749D01*
X130062481Y-78631755D01*
X130193803Y-78819302D01*
X130355697Y-78981196D01*
X130394691Y-79008500D01*
X130543251Y-79112523D01*
X130750757Y-79209284D01*
X130971913Y-79268543D01*
X131200000Y-79288498D01*
X131428087Y-79268543D01*
X131649243Y-79209284D01*
X131856749Y-79112523D01*
X132044300Y-78981198D01*
X132206198Y-78819300D01*
X132337523Y-78631749D01*
X132434284Y-78424243D01*
X132493543Y-78203087D01*
X132513498Y-77975000D01*
X134886502Y-77975000D01*
X134906457Y-78203088D01*
X134906458Y-78203093D01*
X134965716Y-78424243D01*
X135062477Y-78631749D01*
X135062481Y-78631755D01*
X135193803Y-78819302D01*
X135355697Y-78981196D01*
X135394691Y-79008500D01*
X135543251Y-79112523D01*
X135750757Y-79209284D01*
X135971913Y-79268543D01*
X136200000Y-79288498D01*
X136428087Y-79268543D01*
X136649243Y-79209284D01*
X136856749Y-79112523D01*
X137044300Y-78981198D01*
X137206198Y-78819300D01*
X137337523Y-78631749D01*
X137434284Y-78424243D01*
X137440780Y-78400000D01*
X142861502Y-78400000D01*
X142881457Y-78628088D01*
X142881458Y-78628093D01*
X142940716Y-78849243D01*
X143037477Y-79056749D01*
X143037481Y-79056755D01*
X143168803Y-79244302D01*
X143330697Y-79406196D01*
X143330700Y-79406198D01*
X143518251Y-79537523D01*
X143725757Y-79634284D01*
X143946913Y-79693543D01*
X144175000Y-79713498D01*
X144403087Y-79693543D01*
X144624243Y-79634284D01*
X144831749Y-79537523D01*
X145019300Y-79406198D01*
X145181198Y-79244300D01*
X145312523Y-79056749D01*
X145409284Y-78849243D01*
X145468543Y-78628087D01*
X145488498Y-78400000D01*
X147861502Y-78400000D01*
X147881457Y-78628088D01*
X147881458Y-78628093D01*
X147940716Y-78849243D01*
X148037477Y-79056749D01*
X148037481Y-79056755D01*
X148168803Y-79244302D01*
X148330697Y-79406196D01*
X148330700Y-79406198D01*
X148518251Y-79537523D01*
X148725757Y-79634284D01*
X148946913Y-79693543D01*
X149175000Y-79713498D01*
X149403087Y-79693543D01*
X149624243Y-79634284D01*
X149831749Y-79537523D01*
X150019300Y-79406198D01*
X150181198Y-79244300D01*
X150312523Y-79056749D01*
X150409284Y-78849243D01*
X150468543Y-78628087D01*
X150488498Y-78400000D01*
X150468543Y-78171913D01*
X150409284Y-77950757D01*
X150312523Y-77743251D01*
X150181198Y-77555700D01*
X150181196Y-77555697D01*
X150019302Y-77393803D01*
X149831755Y-77262481D01*
X149831749Y-77262477D01*
X149624243Y-77165716D01*
X149403093Y-77106458D01*
X149403088Y-77106457D01*
X149175000Y-77086502D01*
X148946911Y-77106457D01*
X148946906Y-77106458D01*
X148725756Y-77165716D01*
X148518250Y-77262477D01*
X148518244Y-77262481D01*
X148330697Y-77393803D01*
X148168803Y-77555697D01*
X148037481Y-77743244D01*
X148037477Y-77743250D01*
X147940716Y-77950756D01*
X147881458Y-78171906D01*
X147881457Y-78171911D01*
X147861502Y-78400000D01*
X145488498Y-78400000D01*
X145468543Y-78171913D01*
X145409284Y-77950757D01*
X145312523Y-77743251D01*
X145181198Y-77555700D01*
X145181196Y-77555697D01*
X145019302Y-77393803D01*
X144831755Y-77262481D01*
X144831749Y-77262477D01*
X144624243Y-77165716D01*
X144403093Y-77106458D01*
X144403088Y-77106457D01*
X144175000Y-77086502D01*
X143946911Y-77106457D01*
X143946906Y-77106458D01*
X143725756Y-77165716D01*
X143518250Y-77262477D01*
X143518244Y-77262481D01*
X143330697Y-77393803D01*
X143168803Y-77555697D01*
X143037481Y-77743244D01*
X143037477Y-77743250D01*
X142940716Y-77950756D01*
X142881458Y-78171906D01*
X142881457Y-78171911D01*
X142861502Y-78400000D01*
X137440780Y-78400000D01*
X137493543Y-78203087D01*
X137513498Y-77975000D01*
X137493543Y-77746913D01*
X137434284Y-77525757D01*
X137337523Y-77318251D01*
X137230717Y-77165716D01*
X137206196Y-77130697D01*
X137044302Y-76968803D01*
X136856755Y-76837481D01*
X136856749Y-76837477D01*
X136649243Y-76740716D01*
X136428093Y-76681458D01*
X136428088Y-76681457D01*
X136200000Y-76661502D01*
X135971911Y-76681457D01*
X135971906Y-76681458D01*
X135750756Y-76740716D01*
X135543250Y-76837477D01*
X135543244Y-76837481D01*
X135355697Y-76968803D01*
X135193803Y-77130697D01*
X135062481Y-77318244D01*
X135062477Y-77318250D01*
X134965716Y-77525756D01*
X134906458Y-77746906D01*
X134906457Y-77746911D01*
X134886502Y-77975000D01*
X132513498Y-77975000D01*
X132493543Y-77746913D01*
X132434284Y-77525757D01*
X132337523Y-77318251D01*
X132230717Y-77165716D01*
X132206196Y-77130697D01*
X132044302Y-76968803D01*
X131856755Y-76837481D01*
X131856749Y-76837477D01*
X131649243Y-76740716D01*
X131428093Y-76681458D01*
X131428088Y-76681457D01*
X131200000Y-76661502D01*
X130971911Y-76681457D01*
X130971906Y-76681458D01*
X130750756Y-76740716D01*
X130543250Y-76837477D01*
X130543244Y-76837481D01*
X130355697Y-76968803D01*
X130193803Y-77130697D01*
X130062481Y-77318244D01*
X130062477Y-77318250D01*
X129965716Y-77525756D01*
X129906458Y-77746906D01*
X129906457Y-77746911D01*
X129886502Y-77975000D01*
X127453872Y-77975000D01*
X127460141Y-77951603D01*
X127479965Y-77725000D01*
X127460141Y-77498396D01*
X127401266Y-77278673D01*
X127401264Y-77278669D01*
X127305137Y-77072523D01*
X127305132Y-77072516D01*
X127254025Y-76999527D01*
X127254024Y-76999526D01*
X126575000Y-77678551D01*
X126575000Y-77672339D01*
X126547741Y-77570606D01*
X126495080Y-77479394D01*
X126420606Y-77404920D01*
X126329394Y-77352259D01*
X126227661Y-77325000D01*
X126221446Y-77325000D01*
X126900471Y-76645974D01*
X126827477Y-76594863D01*
X126827476Y-76594862D01*
X126621330Y-76498735D01*
X126621326Y-76498733D01*
X126401602Y-76439858D01*
X126401605Y-76439858D01*
X126175000Y-76420034D01*
X125948396Y-76439858D01*
X125728673Y-76498733D01*
X125728669Y-76498735D01*
X125544229Y-76584741D01*
X125457647Y-76603371D01*
X125371557Y-76582588D01*
X125340871Y-76563693D01*
X125304865Y-76536739D01*
X125221204Y-76474111D01*
X125084201Y-76423011D01*
X125056510Y-76420034D01*
X125023640Y-76416500D01*
X125023638Y-76416500D01*
X123326362Y-76416500D01*
X123326360Y-76416500D01*
X123265799Y-76423011D01*
X123128796Y-76474111D01*
X123128795Y-76474111D01*
X123128794Y-76474112D01*
X123011739Y-76561739D01*
X122942826Y-76653796D01*
X122924111Y-76678796D01*
X122873011Y-76815799D01*
X122866500Y-76876362D01*
X122866500Y-78573638D01*
X119546748Y-78573638D01*
X119576086Y-78544300D01*
X119707411Y-78356749D01*
X119804172Y-78149243D01*
X119863431Y-77928087D01*
X119883386Y-77700000D01*
X119863431Y-77471913D01*
X119804172Y-77250757D01*
X119707411Y-77043251D01*
X119576086Y-76855700D01*
X119576084Y-76855697D01*
X119414190Y-76693803D01*
X119226643Y-76562481D01*
X119226637Y-76562477D01*
X119019131Y-76465716D01*
X118797981Y-76406458D01*
X118797976Y-76406457D01*
X118569888Y-76386502D01*
X118341799Y-76406457D01*
X118341794Y-76406458D01*
X118120644Y-76465716D01*
X117913138Y-76562477D01*
X117913132Y-76562481D01*
X117725585Y-76693803D01*
X117660569Y-76758819D01*
X117585580Y-76805937D01*
X117497574Y-76815853D01*
X117413980Y-76786601D01*
X117351357Y-76723977D01*
X117333403Y-76687648D01*
X117330101Y-76678796D01*
X117320777Y-76653796D01*
X117233149Y-76536739D01*
X117116092Y-76449111D01*
X116979089Y-76398011D01*
X116958901Y-76395840D01*
X116918528Y-76391500D01*
X116918526Y-76391500D01*
X115221250Y-76391500D01*
X115221248Y-76391500D01*
X115160687Y-76398011D01*
X115023684Y-76449111D01*
X115023683Y-76449111D01*
X115023682Y-76449112D01*
X114906627Y-76536739D01*
X114856747Y-76603371D01*
X114818999Y-76653796D01*
X114804077Y-76693803D01*
X114767899Y-76790799D01*
X114766272Y-76805937D01*
X114761388Y-76851362D01*
X114761388Y-78548638D01*
X100075500Y-78548638D01*
X100075500Y-75797822D01*
X101250000Y-75797822D01*
X101256401Y-75857372D01*
X101256403Y-75857381D01*
X101306646Y-75992087D01*
X101306647Y-75992090D01*
X101392810Y-76107189D01*
X101507909Y-76193352D01*
X101507912Y-76193353D01*
X101642618Y-76243596D01*
X101642627Y-76243598D01*
X101702177Y-76250000D01*
X102350000Y-76250000D01*
X102350000Y-75333012D01*
X102407007Y-75365925D01*
X102534174Y-75400000D01*
X102665826Y-75400000D01*
X102792993Y-75365925D01*
X102850000Y-75333012D01*
X102850000Y-76250000D01*
X103497823Y-76250000D01*
X103557372Y-76243598D01*
X103557381Y-76243596D01*
X103692087Y-76193353D01*
X103692090Y-76193352D01*
X103807189Y-76107189D01*
X103893352Y-75992090D01*
X103893353Y-75992087D01*
X103943596Y-75857381D01*
X103943598Y-75857372D01*
X103950000Y-75797822D01*
X103950000Y-75150000D01*
X103033012Y-75150000D01*
X103065925Y-75092993D01*
X103100000Y-74965826D01*
X103100000Y-74834174D01*
X103065925Y-74707007D01*
X103033012Y-74650000D01*
X103950000Y-74650000D01*
X103950000Y-74002177D01*
X103943598Y-73942627D01*
X103943596Y-73942618D01*
X103893353Y-73807912D01*
X103893352Y-73807909D01*
X103807189Y-73692810D01*
X103692090Y-73606647D01*
X103692087Y-73606646D01*
X103557381Y-73556403D01*
X103557372Y-73556401D01*
X103497823Y-73550000D01*
X102850000Y-73550000D01*
X102850000Y-74466988D01*
X102792993Y-74434075D01*
X102665826Y-74400000D01*
X102534174Y-74400000D01*
X102407007Y-74434075D01*
X102350000Y-74466988D01*
X102350000Y-73550000D01*
X101702177Y-73550000D01*
X101642627Y-73556401D01*
X101642618Y-73556403D01*
X101507912Y-73606646D01*
X101507909Y-73606647D01*
X101392810Y-73692810D01*
X101306647Y-73807909D01*
X101306646Y-73807912D01*
X101256403Y-73942618D01*
X101256401Y-73942627D01*
X101250000Y-74002177D01*
X101250000Y-74650000D01*
X102166988Y-74650000D01*
X102134075Y-74707007D01*
X102100000Y-74834174D01*
X102100000Y-74965826D01*
X102134075Y-75092993D01*
X102166988Y-75150000D01*
X101250000Y-75150000D01*
X101250000Y-75797822D01*
X100075500Y-75797822D01*
X100075500Y-71575000D01*
X108481502Y-71575000D01*
X108501457Y-71803088D01*
X108501458Y-71803093D01*
X108560716Y-72024243D01*
X108657477Y-72231749D01*
X108657481Y-72231755D01*
X108788803Y-72419302D01*
X108950697Y-72581196D01*
X109038691Y-72642810D01*
X109138251Y-72712523D01*
X109345757Y-72809284D01*
X109566913Y-72868543D01*
X109795000Y-72888498D01*
X110023087Y-72868543D01*
X110244243Y-72809284D01*
X110451749Y-72712523D01*
X110639300Y-72581198D01*
X110801198Y-72419300D01*
X110932523Y-72231749D01*
X111029284Y-72024243D01*
X111088543Y-71803087D01*
X111108498Y-71575000D01*
X118641502Y-71575000D01*
X118661457Y-71803088D01*
X118661458Y-71803093D01*
X118720716Y-72024243D01*
X118817477Y-72231749D01*
X118817481Y-72231755D01*
X118948803Y-72419302D01*
X119110697Y-72581196D01*
X119198691Y-72642810D01*
X119298251Y-72712523D01*
X119505757Y-72809284D01*
X119726913Y-72868543D01*
X119955000Y-72888498D01*
X120183087Y-72868543D01*
X120404243Y-72809284D01*
X120611749Y-72712523D01*
X120799300Y-72581198D01*
X120875498Y-72505000D01*
X142086502Y-72505000D01*
X142106457Y-72733088D01*
X142106458Y-72733093D01*
X142165716Y-72954243D01*
X142262477Y-73161749D01*
X142262481Y-73161755D01*
X142393803Y-73349302D01*
X142555697Y-73511196D01*
X142555700Y-73511198D01*
X142743251Y-73642523D01*
X142950757Y-73739284D01*
X143171913Y-73798543D01*
X143400000Y-73818498D01*
X143628087Y-73798543D01*
X143849243Y-73739284D01*
X144056749Y-73642523D01*
X144244300Y-73511198D01*
X144406198Y-73349300D01*
X144537523Y-73161749D01*
X144634284Y-72954243D01*
X144693543Y-72733087D01*
X144709124Y-72555000D01*
X145861502Y-72555000D01*
X145881457Y-72783088D01*
X145881458Y-72783093D01*
X145940716Y-73004243D01*
X146037477Y-73211749D01*
X146037481Y-73211755D01*
X146168803Y-73399302D01*
X146330697Y-73561196D01*
X146330700Y-73561198D01*
X146518251Y-73692523D01*
X146725757Y-73789284D01*
X146946913Y-73848543D01*
X147175000Y-73868498D01*
X147403087Y-73848543D01*
X147624243Y-73789284D01*
X147831749Y-73692523D01*
X148019300Y-73561198D01*
X148181198Y-73399300D01*
X148312523Y-73211749D01*
X148409284Y-73004243D01*
X148468543Y-72783087D01*
X148488498Y-72555000D01*
X148468543Y-72326913D01*
X148409284Y-72105757D01*
X148312523Y-71898251D01*
X148234990Y-71787523D01*
X148181196Y-71710697D01*
X148019302Y-71548803D01*
X147947659Y-71498638D01*
X150061388Y-71498638D01*
X150067899Y-71559201D01*
X150118999Y-71696204D01*
X150206627Y-71813261D01*
X150323684Y-71900889D01*
X150460687Y-71951989D01*
X150510530Y-71957347D01*
X150521248Y-71958500D01*
X150521250Y-71958500D01*
X152218528Y-71958500D01*
X152228373Y-71957441D01*
X152279089Y-71951989D01*
X152416092Y-71900889D01*
X152533149Y-71813261D01*
X152620777Y-71696204D01*
X152633403Y-71662351D01*
X152682041Y-71588340D01*
X152757975Y-71542761D01*
X152846165Y-71534642D01*
X152929145Y-71565591D01*
X152960570Y-71591181D01*
X153025585Y-71656196D01*
X153054938Y-71676749D01*
X153213139Y-71787523D01*
X153420645Y-71884284D01*
X153641801Y-71943543D01*
X153869888Y-71963498D01*
X154097975Y-71943543D01*
X154319131Y-71884284D01*
X154526637Y-71787523D01*
X154714188Y-71656198D01*
X154876086Y-71494300D01*
X155005132Y-71310004D01*
X156261844Y-71310004D01*
X156280434Y-71534360D01*
X156280435Y-71534367D01*
X156280436Y-71534368D01*
X156325089Y-71710700D01*
X156335705Y-71752619D01*
X156419451Y-71943543D01*
X156426140Y-71958791D01*
X156549278Y-72147268D01*
X156625147Y-72229683D01*
X156669125Y-72306553D01*
X156675396Y-72394894D01*
X156642716Y-72477208D01*
X156577558Y-72537190D01*
X156548284Y-72550913D01*
X156532909Y-72556647D01*
X156417810Y-72642810D01*
X156331647Y-72757909D01*
X156331646Y-72757912D01*
X156281403Y-72892618D01*
X156281401Y-72892627D01*
X156275000Y-72952177D01*
X156275000Y-73600000D01*
X157191988Y-73600000D01*
X157159075Y-73657007D01*
X157125000Y-73784174D01*
X157125000Y-73915826D01*
X157159075Y-74042993D01*
X157191988Y-74100000D01*
X156275000Y-74100000D01*
X156275000Y-74747822D01*
X156281401Y-74807372D01*
X156281403Y-74807381D01*
X156331646Y-74942087D01*
X156331647Y-74942090D01*
X156417810Y-75057189D01*
X156532909Y-75143352D01*
X156532912Y-75143353D01*
X156667618Y-75193596D01*
X156667627Y-75193598D01*
X156727177Y-75200000D01*
X157375000Y-75200000D01*
X157375000Y-74283012D01*
X157432007Y-74315925D01*
X157559174Y-74350000D01*
X157690826Y-74350000D01*
X157817993Y-74315925D01*
X157875000Y-74283012D01*
X157875000Y-75200000D01*
X158522823Y-75200000D01*
X158582372Y-75193598D01*
X158582381Y-75193596D01*
X158717087Y-75143353D01*
X158717090Y-75143352D01*
X158832189Y-75057189D01*
X158918352Y-74942090D01*
X158918353Y-74942087D01*
X158968596Y-74807381D01*
X158968598Y-74807372D01*
X158975000Y-74747822D01*
X158975000Y-74100000D01*
X158058012Y-74100000D01*
X158090925Y-74042993D01*
X158125000Y-73915826D01*
X158125000Y-73784174D01*
X158090925Y-73657007D01*
X158058012Y-73600000D01*
X158975000Y-73600000D01*
X158975000Y-72952177D01*
X158968598Y-72892627D01*
X158968596Y-72892618D01*
X158918353Y-72757912D01*
X158918352Y-72757909D01*
X158832189Y-72642810D01*
X158717091Y-72556648D01*
X158701717Y-72550914D01*
X158627706Y-72502275D01*
X158582127Y-72426340D01*
X158574009Y-72338150D01*
X158604959Y-72255170D01*
X158624849Y-72229686D01*
X158700722Y-72147268D01*
X158823860Y-71958791D01*
X158830549Y-71943543D01*
X158882852Y-71824302D01*
X158914296Y-71752616D01*
X158969564Y-71534368D01*
X158972885Y-71494300D01*
X158988156Y-71310004D01*
X158988156Y-71309995D01*
X158969565Y-71085639D01*
X158969564Y-71085636D01*
X158969564Y-71085632D01*
X158914296Y-70867384D01*
X158823860Y-70661209D01*
X158700722Y-70472732D01*
X158548240Y-70307094D01*
X158548237Y-70307091D01*
X158406842Y-70197038D01*
X158350810Y-70128453D01*
X158330085Y-70042349D01*
X158348771Y-69955780D01*
X158403169Y-69885891D01*
X158406842Y-69882962D01*
X158506107Y-69805700D01*
X158548240Y-69772906D01*
X158700722Y-69607268D01*
X158823860Y-69418791D01*
X158914296Y-69212616D01*
X158969564Y-68994368D01*
X158988156Y-68770000D01*
X158988156Y-68769995D01*
X158969565Y-68545639D01*
X158969564Y-68545636D01*
X158969564Y-68545632D01*
X158914296Y-68327384D01*
X158823860Y-68121209D01*
X158700722Y-67932732D01*
X158548240Y-67767094D01*
X158548237Y-67767091D01*
X158370578Y-67628812D01*
X158172578Y-67521659D01*
X158097591Y-67495916D01*
X157959635Y-67448556D01*
X157870808Y-67433733D01*
X157737572Y-67411500D01*
X157737569Y-67411500D01*
X157512431Y-67411500D01*
X157512427Y-67411500D01*
X157334778Y-67441144D01*
X157290365Y-67448556D01*
X157221386Y-67472236D01*
X157077421Y-67521659D01*
X156879421Y-67628812D01*
X156701762Y-67767091D01*
X156701759Y-67767094D01*
X156549281Y-67932728D01*
X156549278Y-67932732D01*
X156426142Y-68121205D01*
X156426137Y-68121213D01*
X156335705Y-68327380D01*
X156280434Y-68545639D01*
X156261844Y-68769995D01*
X156261844Y-68770004D01*
X156280434Y-68994360D01*
X156280435Y-68994367D01*
X156280436Y-68994368D01*
X156316493Y-69136755D01*
X156335705Y-69212619D01*
X156426137Y-69418786D01*
X156426139Y-69418790D01*
X156426140Y-69418791D01*
X156549278Y-69607268D01*
X156577245Y-69637648D01*
X156668338Y-69736601D01*
X156701760Y-69772906D01*
X156768699Y-69825007D01*
X156843158Y-69882962D01*
X156899189Y-69951547D01*
X156919914Y-70037651D01*
X156901227Y-70124221D01*
X156846830Y-70194109D01*
X156843158Y-70197038D01*
X156701758Y-70307095D01*
X156549281Y-70472728D01*
X156549278Y-70472732D01*
X156426142Y-70661205D01*
X156426137Y-70661213D01*
X156335705Y-70867380D01*
X156280434Y-71085639D01*
X156261844Y-71309995D01*
X156261844Y-71310004D01*
X155005132Y-71310004D01*
X155007411Y-71306749D01*
X155104172Y-71099243D01*
X155163431Y-70878087D01*
X155183386Y-70650000D01*
X155163431Y-70421913D01*
X155104172Y-70200757D01*
X155007411Y-69993251D01*
X154876086Y-69805700D01*
X154876084Y-69805697D01*
X154714190Y-69643803D01*
X154526643Y-69512481D01*
X154526637Y-69512477D01*
X154319131Y-69415716D01*
X154097981Y-69356458D01*
X154097976Y-69356457D01*
X153869888Y-69336502D01*
X153641799Y-69356457D01*
X153641794Y-69356458D01*
X153420644Y-69415716D01*
X153213138Y-69512477D01*
X153213132Y-69512481D01*
X153025585Y-69643803D01*
X152960569Y-69708819D01*
X152885580Y-69755937D01*
X152797574Y-69765853D01*
X152713980Y-69736601D01*
X152651357Y-69673977D01*
X152633403Y-69637648D01*
X152622071Y-69607267D01*
X152620777Y-69603796D01*
X152619767Y-69602447D01*
X152552416Y-69512477D01*
X152533149Y-69486739D01*
X152416092Y-69399111D01*
X152279089Y-69348011D01*
X152258901Y-69345840D01*
X152218528Y-69341500D01*
X152218526Y-69341500D01*
X150521250Y-69341500D01*
X150521248Y-69341500D01*
X150460687Y-69348011D01*
X150323684Y-69399111D01*
X150323683Y-69399111D01*
X150323682Y-69399112D01*
X150206627Y-69486739D01*
X150120009Y-69602447D01*
X150118999Y-69603796D01*
X150104077Y-69643803D01*
X150067899Y-69740799D01*
X150066272Y-69755937D01*
X150061388Y-69801362D01*
X150061388Y-71498638D01*
X147947659Y-71498638D01*
X147831755Y-71417481D01*
X147831749Y-71417477D01*
X147624243Y-71320716D01*
X147403093Y-71261458D01*
X147403088Y-71261457D01*
X147175000Y-71241502D01*
X146946911Y-71261457D01*
X146946906Y-71261458D01*
X146725756Y-71320716D01*
X146518250Y-71417477D01*
X146518244Y-71417481D01*
X146330697Y-71548803D01*
X146168803Y-71710697D01*
X146037481Y-71898244D01*
X146037477Y-71898250D01*
X145940716Y-72105756D01*
X145881458Y-72326906D01*
X145881457Y-72326911D01*
X145861502Y-72555000D01*
X144709124Y-72555000D01*
X144713498Y-72505000D01*
X144693543Y-72276913D01*
X144634284Y-72055757D01*
X144537523Y-71848251D01*
X144470558Y-71752616D01*
X144406196Y-71660697D01*
X144244302Y-71498803D01*
X144056755Y-71367481D01*
X144056749Y-71367477D01*
X143849243Y-71270716D01*
X143628093Y-71211458D01*
X143628088Y-71211457D01*
X143400000Y-71191502D01*
X143171911Y-71211457D01*
X143171906Y-71211458D01*
X142950756Y-71270716D01*
X142743250Y-71367477D01*
X142743244Y-71367481D01*
X142555697Y-71498803D01*
X142393803Y-71660697D01*
X142262481Y-71848244D01*
X142262477Y-71848250D01*
X142165716Y-72055756D01*
X142106458Y-72276906D01*
X142106457Y-72276911D01*
X142086502Y-72505000D01*
X120875498Y-72505000D01*
X120961198Y-72419300D01*
X121092523Y-72231749D01*
X121189284Y-72024243D01*
X121248543Y-71803087D01*
X121268498Y-71575000D01*
X121248543Y-71346913D01*
X121189284Y-71125757D01*
X121121317Y-70980000D01*
X124886502Y-70980000D01*
X124906457Y-71208088D01*
X124906458Y-71208093D01*
X124965716Y-71429243D01*
X125062477Y-71636749D01*
X125062481Y-71636755D01*
X125193803Y-71824302D01*
X125355697Y-71986196D01*
X125410034Y-72024243D01*
X125543251Y-72117523D01*
X125750757Y-72214284D01*
X125971913Y-72273543D01*
X126200000Y-72293498D01*
X126428087Y-72273543D01*
X126649243Y-72214284D01*
X126856749Y-72117523D01*
X127044300Y-71986198D01*
X127206198Y-71824300D01*
X127337523Y-71636749D01*
X127434284Y-71429243D01*
X127493543Y-71208087D01*
X127513498Y-70980000D01*
X127493543Y-70751913D01*
X127434284Y-70530757D01*
X127337523Y-70323251D01*
X127206198Y-70135700D01*
X127206196Y-70135697D01*
X127044302Y-69973803D01*
X126856755Y-69842481D01*
X126856749Y-69842477D01*
X126649243Y-69745716D01*
X126428093Y-69686458D01*
X126428088Y-69686457D01*
X126200000Y-69666502D01*
X125971911Y-69686457D01*
X125971906Y-69686458D01*
X125750756Y-69745716D01*
X125543250Y-69842477D01*
X125543244Y-69842481D01*
X125355697Y-69973803D01*
X125193803Y-70135697D01*
X125062481Y-70323244D01*
X125062477Y-70323250D01*
X124965716Y-70530756D01*
X124906458Y-70751906D01*
X124906457Y-70751911D01*
X124886502Y-70980000D01*
X121121317Y-70980000D01*
X121092523Y-70918251D01*
X120961198Y-70730700D01*
X120961196Y-70730697D01*
X120799302Y-70568803D01*
X120611755Y-70437481D01*
X120611749Y-70437477D01*
X120404243Y-70340716D01*
X120183093Y-70281458D01*
X120183088Y-70281457D01*
X119955000Y-70261502D01*
X119726911Y-70281457D01*
X119726906Y-70281458D01*
X119505756Y-70340716D01*
X119298250Y-70437477D01*
X119298244Y-70437481D01*
X119110697Y-70568803D01*
X118948803Y-70730697D01*
X118817481Y-70918244D01*
X118817477Y-70918250D01*
X118720716Y-71125756D01*
X118661458Y-71346906D01*
X118661457Y-71346911D01*
X118641502Y-71575000D01*
X111108498Y-71575000D01*
X111088543Y-71346913D01*
X111029284Y-71125757D01*
X110932523Y-70918251D01*
X110801198Y-70730700D01*
X110801196Y-70730697D01*
X110639302Y-70568803D01*
X110451755Y-70437481D01*
X110451749Y-70437477D01*
X110244243Y-70340716D01*
X110023093Y-70281458D01*
X110023088Y-70281457D01*
X109795000Y-70261502D01*
X109566911Y-70281457D01*
X109566906Y-70281458D01*
X109345756Y-70340716D01*
X109138250Y-70437477D01*
X109138244Y-70437481D01*
X108950697Y-70568803D01*
X108788803Y-70730697D01*
X108657481Y-70918244D01*
X108657477Y-70918250D01*
X108560716Y-71125756D01*
X108501458Y-71346906D01*
X108501457Y-71346911D01*
X108481502Y-71575000D01*
X100075500Y-71575000D01*
X100075500Y-68480000D01*
X128911502Y-68480000D01*
X128931457Y-68708088D01*
X128931458Y-68708093D01*
X128990716Y-68929243D01*
X129087477Y-69136749D01*
X129087481Y-69136755D01*
X129218803Y-69324302D01*
X129380698Y-69486197D01*
X129532052Y-69592177D01*
X129591476Y-69657845D01*
X129616524Y-69742792D01*
X129602233Y-69830195D01*
X129551435Y-69902742D01*
X129532052Y-69918199D01*
X129386182Y-70020338D01*
X129225339Y-70181181D01*
X129094867Y-70367513D01*
X129094865Y-70367516D01*
X128998731Y-70573678D01*
X128946127Y-70769999D01*
X128946128Y-70770000D01*
X129909314Y-70770000D01*
X129904920Y-70774394D01*
X129852259Y-70865606D01*
X129825000Y-70967339D01*
X129825000Y-71072661D01*
X129852259Y-71174394D01*
X129904920Y-71265606D01*
X129909314Y-71270000D01*
X128946127Y-71270000D01*
X128998731Y-71466321D01*
X129094865Y-71672483D01*
X129094867Y-71672486D01*
X129225339Y-71858818D01*
X129386181Y-72019660D01*
X129572513Y-72150132D01*
X129572516Y-72150134D01*
X129778679Y-72246268D01*
X129778678Y-72246268D01*
X129974999Y-72298872D01*
X129975000Y-72298872D01*
X129975000Y-71335686D01*
X129979394Y-71340080D01*
X130070606Y-71392741D01*
X130172339Y-71420000D01*
X130277661Y-71420000D01*
X130379394Y-71392741D01*
X130470606Y-71340080D01*
X130475000Y-71335686D01*
X130475000Y-72298872D01*
X130671321Y-72246268D01*
X130877483Y-72150134D01*
X130877486Y-72150132D01*
X131063818Y-72019660D01*
X131224660Y-71858818D01*
X131355132Y-71672486D01*
X131355134Y-71672483D01*
X131451268Y-71466321D01*
X131503872Y-71270000D01*
X130540686Y-71270000D01*
X130545080Y-71265606D01*
X130597741Y-71174394D01*
X130625000Y-71072661D01*
X130625000Y-71020000D01*
X136531502Y-71020000D01*
X136551457Y-71248088D01*
X136551458Y-71248093D01*
X136610716Y-71469243D01*
X136707477Y-71676749D01*
X136707481Y-71676755D01*
X136838803Y-71864302D01*
X137000697Y-72026196D01*
X137095457Y-72092547D01*
X137188251Y-72157523D01*
X137395757Y-72254284D01*
X137616913Y-72313543D01*
X137845000Y-72333498D01*
X138073087Y-72313543D01*
X138294243Y-72254284D01*
X138501749Y-72157523D01*
X138689300Y-72026198D01*
X138851198Y-71864300D01*
X138982523Y-71676749D01*
X139079284Y-71469243D01*
X139138543Y-71248087D01*
X139158498Y-71020000D01*
X139138543Y-70791913D01*
X139079284Y-70570757D01*
X138982523Y-70363251D01*
X138868743Y-70200757D01*
X138851196Y-70175697D01*
X138689302Y-70013803D01*
X138545356Y-69913011D01*
X138485932Y-69847344D01*
X138460884Y-69762396D01*
X138475175Y-69674994D01*
X138525973Y-69602447D01*
X138545356Y-69586989D01*
X138553837Y-69581049D01*
X138689300Y-69486198D01*
X138851198Y-69324300D01*
X138982523Y-69136749D01*
X139079284Y-68929243D01*
X139138543Y-68708087D01*
X139158498Y-68480000D01*
X139138543Y-68251913D01*
X139079284Y-68030757D01*
X138982523Y-67823251D01*
X138853157Y-67638498D01*
X138851196Y-67635697D01*
X138689302Y-67473803D01*
X138545356Y-67373011D01*
X138485932Y-67307344D01*
X138460884Y-67222396D01*
X138475175Y-67134994D01*
X138525973Y-67062447D01*
X138545356Y-67046989D01*
X138638528Y-66981749D01*
X138689300Y-66946198D01*
X138851198Y-66784300D01*
X138982523Y-66596749D01*
X139079284Y-66389243D01*
X139138543Y-66168087D01*
X139158498Y-65940000D01*
X139138543Y-65711913D01*
X139079284Y-65490757D01*
X138982523Y-65283251D01*
X138851198Y-65095700D01*
X138851196Y-65095697D01*
X138689302Y-64933803D01*
X138545356Y-64833011D01*
X138485932Y-64767344D01*
X138460884Y-64682396D01*
X138475175Y-64594994D01*
X138525973Y-64522447D01*
X138545356Y-64506989D01*
X138632164Y-64446205D01*
X138689300Y-64406198D01*
X138851198Y-64244300D01*
X138982523Y-64056749D01*
X139067273Y-63875000D01*
X153231502Y-63875000D01*
X153251457Y-64103088D01*
X153251458Y-64103093D01*
X153310716Y-64324243D01*
X153407477Y-64531749D01*
X153407481Y-64531755D01*
X153538803Y-64719302D01*
X153700697Y-64881196D01*
X153795457Y-64947547D01*
X153888251Y-65012523D01*
X154095757Y-65109284D01*
X154316913Y-65168543D01*
X154545000Y-65188498D01*
X154773087Y-65168543D01*
X154994243Y-65109284D01*
X155201749Y-65012523D01*
X155389300Y-64881198D01*
X155551198Y-64719300D01*
X155682523Y-64531749D01*
X155779284Y-64324243D01*
X155838543Y-64103087D01*
X155858498Y-63875000D01*
X163391502Y-63875000D01*
X163411457Y-64103088D01*
X163411458Y-64103093D01*
X163470716Y-64324243D01*
X163567477Y-64531749D01*
X163567481Y-64531755D01*
X163698803Y-64719302D01*
X163860697Y-64881196D01*
X163955457Y-64947547D01*
X164048251Y-65012523D01*
X164255757Y-65109284D01*
X164476913Y-65168543D01*
X164705000Y-65188498D01*
X164933087Y-65168543D01*
X165154243Y-65109284D01*
X165361749Y-65012523D01*
X165549300Y-64881198D01*
X165711198Y-64719300D01*
X165842523Y-64531749D01*
X165939284Y-64324243D01*
X165998543Y-64103087D01*
X166018498Y-63875000D01*
X165998543Y-63646913D01*
X165939284Y-63425757D01*
X165842523Y-63218251D01*
X165711198Y-63030700D01*
X165711196Y-63030697D01*
X165549302Y-62868803D01*
X165361755Y-62737481D01*
X165361749Y-62737477D01*
X165154243Y-62640716D01*
X164933093Y-62581458D01*
X164933088Y-62581457D01*
X164705000Y-62561502D01*
X164476911Y-62581457D01*
X164476906Y-62581458D01*
X164255756Y-62640716D01*
X164048250Y-62737477D01*
X164048244Y-62737481D01*
X163860697Y-62868803D01*
X163698803Y-63030697D01*
X163567481Y-63218244D01*
X163567477Y-63218250D01*
X163470716Y-63425756D01*
X163411458Y-63646906D01*
X163411457Y-63646911D01*
X163391502Y-63875000D01*
X155858498Y-63875000D01*
X155838543Y-63646913D01*
X155779284Y-63425757D01*
X155682523Y-63218251D01*
X155551198Y-63030700D01*
X155551196Y-63030697D01*
X155389302Y-62868803D01*
X155201755Y-62737481D01*
X155201749Y-62737477D01*
X154994243Y-62640716D01*
X154773093Y-62581458D01*
X154773088Y-62581457D01*
X154545000Y-62561502D01*
X154316911Y-62581457D01*
X154316906Y-62581458D01*
X154095756Y-62640716D01*
X153888250Y-62737477D01*
X153888244Y-62737481D01*
X153700697Y-62868803D01*
X153538803Y-63030697D01*
X153407481Y-63218244D01*
X153407477Y-63218250D01*
X153310716Y-63425756D01*
X153251458Y-63646906D01*
X153251457Y-63646911D01*
X153231502Y-63875000D01*
X139067273Y-63875000D01*
X139079284Y-63849243D01*
X139138543Y-63628087D01*
X139158498Y-63400000D01*
X139138543Y-63171913D01*
X139079284Y-62950757D01*
X138982523Y-62743251D01*
X138851198Y-62555700D01*
X138851196Y-62555697D01*
X138689302Y-62393803D01*
X138619604Y-62345000D01*
X142086502Y-62345000D01*
X142106457Y-62573088D01*
X142106458Y-62573093D01*
X142165716Y-62794243D01*
X142262477Y-63001749D01*
X142262481Y-63001755D01*
X142393803Y-63189302D01*
X142555697Y-63351196D01*
X142555700Y-63351198D01*
X142743251Y-63482523D01*
X142950757Y-63579284D01*
X143171913Y-63638543D01*
X143400000Y-63658498D01*
X143628087Y-63638543D01*
X143849243Y-63579284D01*
X144056749Y-63482523D01*
X144244300Y-63351198D01*
X144406198Y-63189300D01*
X144537523Y-63001749D01*
X144634284Y-62794243D01*
X144693543Y-62573087D01*
X144709124Y-62395000D01*
X145861502Y-62395000D01*
X145881457Y-62623088D01*
X145881458Y-62623093D01*
X145940716Y-62844243D01*
X146037477Y-63051749D01*
X146037481Y-63051755D01*
X146168803Y-63239302D01*
X146330697Y-63401196D01*
X146330700Y-63401198D01*
X146518251Y-63532523D01*
X146725757Y-63629284D01*
X146946913Y-63688543D01*
X147175000Y-63708498D01*
X147403087Y-63688543D01*
X147624243Y-63629284D01*
X147831749Y-63532523D01*
X148019300Y-63401198D01*
X148181198Y-63239300D01*
X148312523Y-63051749D01*
X148409284Y-62844243D01*
X148468543Y-62623087D01*
X148488498Y-62395000D01*
X148468543Y-62166913D01*
X148409284Y-61945757D01*
X148312523Y-61738251D01*
X148181198Y-61550700D01*
X148181196Y-61550697D01*
X148019302Y-61388803D01*
X147831755Y-61257481D01*
X147831749Y-61257477D01*
X147624243Y-61160716D01*
X147403093Y-61101458D01*
X147403088Y-61101457D01*
X147175000Y-61081502D01*
X146946911Y-61101457D01*
X146946906Y-61101458D01*
X146725756Y-61160716D01*
X146518250Y-61257477D01*
X146518244Y-61257481D01*
X146330697Y-61388803D01*
X146168803Y-61550697D01*
X146037481Y-61738244D01*
X146037477Y-61738250D01*
X145940716Y-61945756D01*
X145881458Y-62166906D01*
X145881457Y-62166911D01*
X145861502Y-62395000D01*
X144709124Y-62395000D01*
X144713498Y-62345000D01*
X144693543Y-62116913D01*
X144634284Y-61895757D01*
X144537523Y-61688251D01*
X144472547Y-61595457D01*
X144406196Y-61500697D01*
X144244302Y-61338803D01*
X144056755Y-61207481D01*
X144056749Y-61207477D01*
X143849243Y-61110716D01*
X143628093Y-61051458D01*
X143628088Y-61051457D01*
X143400000Y-61031502D01*
X143171911Y-61051457D01*
X143171906Y-61051458D01*
X142950756Y-61110716D01*
X142743250Y-61207477D01*
X142743244Y-61207481D01*
X142555697Y-61338803D01*
X142393803Y-61500697D01*
X142262481Y-61688244D01*
X142262477Y-61688250D01*
X142165716Y-61895756D01*
X142106458Y-62116906D01*
X142106457Y-62116911D01*
X142086502Y-62345000D01*
X138619604Y-62345000D01*
X138501755Y-62262481D01*
X138501749Y-62262477D01*
X138294243Y-62165716D01*
X138073093Y-62106458D01*
X138073088Y-62106457D01*
X137845000Y-62086502D01*
X137616911Y-62106457D01*
X137616906Y-62106458D01*
X137395756Y-62165716D01*
X137188250Y-62262477D01*
X137188244Y-62262481D01*
X137000697Y-62393803D01*
X136838803Y-62555697D01*
X136707481Y-62743244D01*
X136707477Y-62743250D01*
X136610716Y-62950756D01*
X136551458Y-63171906D01*
X136551457Y-63171911D01*
X136531502Y-63400000D01*
X136551457Y-63628088D01*
X136551458Y-63628093D01*
X136610716Y-63849243D01*
X136707477Y-64056749D01*
X136707481Y-64056755D01*
X136838803Y-64244302D01*
X137000698Y-64406197D01*
X137144643Y-64506989D01*
X137204067Y-64572657D01*
X137229115Y-64657604D01*
X137214824Y-64745007D01*
X137164026Y-64817554D01*
X137144643Y-64833011D01*
X137000698Y-64933802D01*
X136838803Y-65095697D01*
X136707481Y-65283244D01*
X136707477Y-65283250D01*
X136610716Y-65490756D01*
X136551458Y-65711906D01*
X136551457Y-65711911D01*
X136531502Y-65940000D01*
X136551457Y-66168088D01*
X136551458Y-66168093D01*
X136610716Y-66389243D01*
X136707477Y-66596749D01*
X136707481Y-66596755D01*
X136838803Y-66784302D01*
X137000698Y-66946197D01*
X137144643Y-67046989D01*
X137204067Y-67112657D01*
X137229115Y-67197604D01*
X137214824Y-67285007D01*
X137164026Y-67357554D01*
X137144643Y-67373011D01*
X137000698Y-67473802D01*
X136838803Y-67635697D01*
X136707481Y-67823244D01*
X136707477Y-67823250D01*
X136610716Y-68030756D01*
X136551458Y-68251906D01*
X136551457Y-68251911D01*
X136531502Y-68480000D01*
X136551457Y-68708088D01*
X136551458Y-68708093D01*
X136610716Y-68929243D01*
X136707477Y-69136749D01*
X136707481Y-69136755D01*
X136838803Y-69324302D01*
X137000698Y-69486197D01*
X137144643Y-69586989D01*
X137204067Y-69652657D01*
X137229115Y-69737604D01*
X137214824Y-69825007D01*
X137164026Y-69897554D01*
X137144643Y-69913011D01*
X137000698Y-70013802D01*
X136838803Y-70175697D01*
X136707481Y-70363244D01*
X136707477Y-70363250D01*
X136610716Y-70570756D01*
X136551458Y-70791906D01*
X136551457Y-70791911D01*
X136531502Y-71020000D01*
X130625000Y-71020000D01*
X130625000Y-70967339D01*
X130597741Y-70865606D01*
X130545080Y-70774394D01*
X130540686Y-70770000D01*
X131503872Y-70770000D01*
X131503872Y-70769999D01*
X131451268Y-70573678D01*
X131355134Y-70367516D01*
X131355132Y-70367513D01*
X131224660Y-70181181D01*
X131063818Y-70020339D01*
X130917947Y-69918199D01*
X130858523Y-69852532D01*
X130833475Y-69767584D01*
X130847766Y-69680181D01*
X130898564Y-69607635D01*
X130917947Y-69592177D01*
X131031764Y-69512481D01*
X131069300Y-69486198D01*
X131231198Y-69324300D01*
X131362523Y-69136749D01*
X131459284Y-68929243D01*
X131518543Y-68708087D01*
X131538498Y-68480000D01*
X131518543Y-68251913D01*
X131459284Y-68030757D01*
X131362523Y-67823251D01*
X131233157Y-67638498D01*
X131231196Y-67635697D01*
X131069302Y-67473803D01*
X130925356Y-67373011D01*
X130865932Y-67307344D01*
X130840884Y-67222396D01*
X130855175Y-67134994D01*
X130905973Y-67062447D01*
X130925356Y-67046989D01*
X131018528Y-66981749D01*
X131069300Y-66946198D01*
X131231198Y-66784300D01*
X131362523Y-66596749D01*
X131459284Y-66389243D01*
X131518543Y-66168087D01*
X131538498Y-65940000D01*
X131518543Y-65711913D01*
X131459284Y-65490757D01*
X131362523Y-65283251D01*
X131231198Y-65095700D01*
X131231196Y-65095697D01*
X131137047Y-65001548D01*
X131089928Y-64926560D01*
X131080012Y-64838553D01*
X131109263Y-64754960D01*
X131171887Y-64692336D01*
X131208207Y-64674385D01*
X131271204Y-64650889D01*
X131388261Y-64563261D01*
X131475889Y-64446204D01*
X131526989Y-64309201D01*
X131533500Y-64248638D01*
X131533500Y-62551362D01*
X131526989Y-62490799D01*
X131475889Y-62353796D01*
X131388261Y-62236739D01*
X131271204Y-62149111D01*
X131134201Y-62098011D01*
X131114013Y-62095840D01*
X131073640Y-62091500D01*
X131073638Y-62091500D01*
X129376362Y-62091500D01*
X129376360Y-62091500D01*
X129315799Y-62098011D01*
X129178796Y-62149111D01*
X129178795Y-62149111D01*
X129178794Y-62149112D01*
X129061739Y-62236739D01*
X128980696Y-62345000D01*
X128974111Y-62353796D01*
X128942882Y-62437523D01*
X128923011Y-62490799D01*
X128916500Y-62551360D01*
X128916500Y-64248639D01*
X128919755Y-64278919D01*
X128923011Y-64309201D01*
X128974111Y-64446204D01*
X129061739Y-64563261D01*
X129139922Y-64621788D01*
X129178794Y-64650888D01*
X129178795Y-64650888D01*
X129178796Y-64650889D01*
X129241782Y-64674381D01*
X129315793Y-64723019D01*
X129361372Y-64798953D01*
X129369491Y-64887143D01*
X129338542Y-64970123D01*
X129312953Y-65001548D01*
X129218800Y-65095701D01*
X129087481Y-65283244D01*
X129087477Y-65283250D01*
X128990716Y-65490756D01*
X128931458Y-65711906D01*
X128931457Y-65711911D01*
X128911502Y-65940000D01*
X128931457Y-66168088D01*
X128931458Y-66168093D01*
X128990716Y-66389243D01*
X129087477Y-66596749D01*
X129087481Y-66596755D01*
X129218803Y-66784302D01*
X129380698Y-66946197D01*
X129524643Y-67046989D01*
X129584067Y-67112657D01*
X129609115Y-67197604D01*
X129594824Y-67285007D01*
X129544026Y-67357554D01*
X129524643Y-67373011D01*
X129380698Y-67473802D01*
X129218803Y-67635697D01*
X129087481Y-67823244D01*
X129087477Y-67823250D01*
X128990716Y-68030756D01*
X128931458Y-68251906D01*
X128931457Y-68251911D01*
X128911502Y-68480000D01*
X100075500Y-68480000D01*
X100075500Y-66248638D01*
X101366500Y-66248638D01*
X101373011Y-66309201D01*
X101424111Y-66446204D01*
X101511739Y-66563261D01*
X101628796Y-66650889D01*
X101765799Y-66701989D01*
X101815642Y-66707347D01*
X101826360Y-66708500D01*
X101826362Y-66708500D01*
X103623640Y-66708500D01*
X103633485Y-66707441D01*
X103684201Y-66701989D01*
X103821204Y-66650889D01*
X103938261Y-66563261D01*
X104025889Y-66446204D01*
X104071096Y-66325000D01*
X108440034Y-66325000D01*
X108459858Y-66551603D01*
X108518733Y-66771326D01*
X108518735Y-66771330D01*
X108614862Y-66977476D01*
X108614863Y-66977477D01*
X108665974Y-67050471D01*
X109345000Y-66371446D01*
X109345000Y-66377661D01*
X109372259Y-66479394D01*
X109424920Y-66570606D01*
X109499394Y-66645080D01*
X109590606Y-66697741D01*
X109692339Y-66725000D01*
X109698553Y-66725000D01*
X109019526Y-67404024D01*
X109019527Y-67404025D01*
X109092516Y-67455132D01*
X109092523Y-67455137D01*
X109298669Y-67551264D01*
X109298673Y-67551266D01*
X109518397Y-67610141D01*
X109518394Y-67610141D01*
X109745000Y-67629965D01*
X109971603Y-67610141D01*
X110191326Y-67551266D01*
X110191330Y-67551264D01*
X110397478Y-67455136D01*
X110397483Y-67455133D01*
X110470471Y-67404024D01*
X110470472Y-67404024D01*
X109791448Y-66725000D01*
X109797661Y-66725000D01*
X109899394Y-66697741D01*
X109990606Y-66645080D01*
X110065080Y-66570606D01*
X110117741Y-66479394D01*
X110145000Y-66377661D01*
X110145000Y-66371448D01*
X110824024Y-67050472D01*
X110824024Y-67050471D01*
X110875133Y-66977483D01*
X110875136Y-66977478D01*
X110971264Y-66771330D01*
X110971266Y-66771326D01*
X111030141Y-66551603D01*
X111049965Y-66325000D01*
X118591502Y-66325000D01*
X118611457Y-66553088D01*
X118611458Y-66553093D01*
X118670716Y-66774243D01*
X118767477Y-66981749D01*
X118767481Y-66981755D01*
X118898803Y-67169302D01*
X119060697Y-67331196D01*
X119060700Y-67331198D01*
X119248251Y-67462523D01*
X119455757Y-67559284D01*
X119676913Y-67618543D01*
X119905000Y-67638498D01*
X120133087Y-67618543D01*
X120354243Y-67559284D01*
X120561749Y-67462523D01*
X120749300Y-67331198D01*
X120911198Y-67169300D01*
X121042523Y-66981749D01*
X121139284Y-66774243D01*
X121198543Y-66553087D01*
X121218498Y-66325000D01*
X121198543Y-66096913D01*
X121139284Y-65875757D01*
X121042523Y-65668251D01*
X120911198Y-65480700D01*
X120911196Y-65480697D01*
X120749302Y-65318803D01*
X120561755Y-65187481D01*
X120561749Y-65187477D01*
X120354243Y-65090716D01*
X120133093Y-65031458D01*
X120133088Y-65031457D01*
X119905000Y-65011502D01*
X119676911Y-65031457D01*
X119676906Y-65031458D01*
X119455756Y-65090716D01*
X119248250Y-65187477D01*
X119248244Y-65187481D01*
X119060697Y-65318803D01*
X118898803Y-65480697D01*
X118767481Y-65668244D01*
X118767477Y-65668250D01*
X118670716Y-65875756D01*
X118611458Y-66096906D01*
X118611457Y-66096911D01*
X118591502Y-66325000D01*
X111049965Y-66325000D01*
X111030141Y-66098396D01*
X110971266Y-65878673D01*
X110971264Y-65878669D01*
X110875137Y-65672523D01*
X110875132Y-65672516D01*
X110824025Y-65599527D01*
X110824024Y-65599526D01*
X110145000Y-66278551D01*
X110145000Y-66272339D01*
X110117741Y-66170606D01*
X110065080Y-66079394D01*
X109990606Y-66004920D01*
X109899394Y-65952259D01*
X109797661Y-65925000D01*
X109791448Y-65925000D01*
X110470471Y-65245974D01*
X110397477Y-65194863D01*
X110397476Y-65194862D01*
X110191330Y-65098735D01*
X110191326Y-65098733D01*
X109971602Y-65039858D01*
X109971605Y-65039858D01*
X109745000Y-65020034D01*
X109518396Y-65039858D01*
X109298673Y-65098733D01*
X109298670Y-65098735D01*
X109092518Y-65194865D01*
X109092514Y-65194867D01*
X109019527Y-65245973D01*
X109019527Y-65245974D01*
X109698553Y-65925000D01*
X109692339Y-65925000D01*
X109590606Y-65952259D01*
X109499394Y-66004920D01*
X109424920Y-66079394D01*
X109372259Y-66170606D01*
X109345000Y-66272339D01*
X109345000Y-66278553D01*
X108665974Y-65599527D01*
X108665973Y-65599527D01*
X108614867Y-65672514D01*
X108614865Y-65672518D01*
X108518735Y-65878670D01*
X108518733Y-65878673D01*
X108459858Y-66098396D01*
X108440034Y-66325000D01*
X104071096Y-66325000D01*
X104076989Y-66309201D01*
X104083500Y-66248638D01*
X104083500Y-64451362D01*
X104082945Y-64446204D01*
X104082347Y-64440642D01*
X104076989Y-64390799D01*
X104025889Y-64253796D01*
X103938261Y-64136739D01*
X103821204Y-64049111D01*
X103684201Y-63998011D01*
X103664013Y-63995840D01*
X103623640Y-63991500D01*
X103623638Y-63991500D01*
X101826362Y-63991500D01*
X101826360Y-63991500D01*
X101765799Y-63998011D01*
X101628796Y-64049111D01*
X101628795Y-64049111D01*
X101628794Y-64049112D01*
X101511739Y-64136739D01*
X101424112Y-64253794D01*
X101373011Y-64390799D01*
X101367055Y-64446204D01*
X101366500Y-64451362D01*
X101366500Y-66248638D01*
X100075500Y-66248638D01*
X100075500Y-61300000D01*
X108440034Y-61300000D01*
X108459858Y-61526603D01*
X108518733Y-61746326D01*
X108518735Y-61746330D01*
X108614862Y-61952476D01*
X108614863Y-61952477D01*
X108665974Y-62025471D01*
X109345000Y-61346446D01*
X109345000Y-61352661D01*
X109372259Y-61454394D01*
X109424920Y-61545606D01*
X109499394Y-61620080D01*
X109590606Y-61672741D01*
X109692339Y-61700000D01*
X109698553Y-61700000D01*
X109019526Y-62379024D01*
X109019527Y-62379025D01*
X109092516Y-62430132D01*
X109092523Y-62430137D01*
X109298669Y-62526264D01*
X109298673Y-62526266D01*
X109518397Y-62585141D01*
X109518394Y-62585141D01*
X109745000Y-62604965D01*
X109971603Y-62585141D01*
X110191326Y-62526266D01*
X110191330Y-62526264D01*
X110397478Y-62430136D01*
X110397483Y-62430133D01*
X110470471Y-62379024D01*
X110470472Y-62379024D01*
X109791448Y-61700000D01*
X109797661Y-61700000D01*
X109899394Y-61672741D01*
X109990606Y-61620080D01*
X110065080Y-61545606D01*
X110117741Y-61454394D01*
X110145000Y-61352661D01*
X110145000Y-61346448D01*
X110824024Y-62025472D01*
X110824024Y-62025471D01*
X110875133Y-61952483D01*
X110875136Y-61952478D01*
X110971264Y-61746330D01*
X110971266Y-61746326D01*
X111030141Y-61526603D01*
X111049965Y-61300000D01*
X118591502Y-61300000D01*
X118611457Y-61528088D01*
X118611458Y-61528093D01*
X118670716Y-61749243D01*
X118767477Y-61956749D01*
X118767481Y-61956755D01*
X118898803Y-62144302D01*
X119060697Y-62306196D01*
X119060700Y-62306198D01*
X119248251Y-62437523D01*
X119455757Y-62534284D01*
X119676913Y-62593543D01*
X119905000Y-62613498D01*
X120133087Y-62593543D01*
X120354243Y-62534284D01*
X120561749Y-62437523D01*
X120749300Y-62306198D01*
X120911198Y-62144300D01*
X121042523Y-61956749D01*
X121139284Y-61749243D01*
X121198543Y-61528087D01*
X121218498Y-61300000D01*
X121198543Y-61071913D01*
X121198030Y-61070000D01*
X124921127Y-61070000D01*
X124973731Y-61266321D01*
X125069865Y-61472483D01*
X125069867Y-61472486D01*
X125200339Y-61658818D01*
X125361181Y-61819660D01*
X125547513Y-61950132D01*
X125547516Y-61950134D01*
X125753679Y-62046268D01*
X125753678Y-62046268D01*
X125949999Y-62098872D01*
X125950000Y-62098872D01*
X125950000Y-61135686D01*
X125954394Y-61140080D01*
X126045606Y-61192741D01*
X126147339Y-61220000D01*
X126252661Y-61220000D01*
X126354394Y-61192741D01*
X126445606Y-61140080D01*
X126450000Y-61135686D01*
X126450000Y-62098872D01*
X126646321Y-62046268D01*
X126852483Y-61950134D01*
X126852486Y-61950132D01*
X127038818Y-61819660D01*
X127199660Y-61658818D01*
X127330132Y-61472486D01*
X127330134Y-61472483D01*
X127426268Y-61266321D01*
X127478872Y-61070000D01*
X126515686Y-61070000D01*
X126520080Y-61065606D01*
X126572741Y-60974394D01*
X126600000Y-60872661D01*
X126600000Y-60767339D01*
X126572741Y-60665606D01*
X126520080Y-60574394D01*
X126515686Y-60570000D01*
X127478872Y-60570000D01*
X127478872Y-60569999D01*
X127426268Y-60373678D01*
X127330134Y-60167516D01*
X127330132Y-60167513D01*
X127199660Y-59981181D01*
X127038818Y-59820339D01*
X126852486Y-59689867D01*
X126852483Y-59689865D01*
X126646330Y-59593735D01*
X126646325Y-59593733D01*
X126450000Y-59541127D01*
X126450000Y-60504314D01*
X126445606Y-60499920D01*
X126354394Y-60447259D01*
X126252661Y-60420000D01*
X126147339Y-60420000D01*
X126045606Y-60447259D01*
X125954394Y-60499920D01*
X125950000Y-60504314D01*
X125950000Y-59541127D01*
X125949999Y-59541127D01*
X125753674Y-59593733D01*
X125753669Y-59593735D01*
X125547516Y-59689865D01*
X125547513Y-59689867D01*
X125361181Y-59820339D01*
X125200339Y-59981181D01*
X125069867Y-60167513D01*
X125069865Y-60167516D01*
X124973731Y-60373678D01*
X124921127Y-60569999D01*
X124921128Y-60570000D01*
X125884314Y-60570000D01*
X125879920Y-60574394D01*
X125827259Y-60665606D01*
X125800000Y-60767339D01*
X125800000Y-60872661D01*
X125827259Y-60974394D01*
X125879920Y-61065606D01*
X125884314Y-61070000D01*
X124921127Y-61070000D01*
X121198030Y-61070000D01*
X121139284Y-60850757D01*
X121042523Y-60643251D01*
X120911198Y-60455700D01*
X120911196Y-60455697D01*
X120749302Y-60293803D01*
X120561755Y-60162481D01*
X120561749Y-60162477D01*
X120354243Y-60065716D01*
X120133093Y-60006458D01*
X120133088Y-60006457D01*
X119905000Y-59986502D01*
X119676911Y-60006457D01*
X119676906Y-60006458D01*
X119455756Y-60065716D01*
X119248250Y-60162477D01*
X119248244Y-60162481D01*
X119060697Y-60293803D01*
X118898803Y-60455697D01*
X118767481Y-60643244D01*
X118767477Y-60643250D01*
X118670716Y-60850756D01*
X118611458Y-61071906D01*
X118611457Y-61071911D01*
X118591502Y-61300000D01*
X111049965Y-61300000D01*
X111030141Y-61073396D01*
X110971266Y-60853673D01*
X110971264Y-60853669D01*
X110875137Y-60647523D01*
X110875132Y-60647516D01*
X110824025Y-60574527D01*
X110824024Y-60574526D01*
X110145000Y-61253551D01*
X110145000Y-61247339D01*
X110117741Y-61145606D01*
X110065080Y-61054394D01*
X109990606Y-60979920D01*
X109899394Y-60927259D01*
X109797661Y-60900000D01*
X109791448Y-60900000D01*
X110470471Y-60220974D01*
X110397477Y-60169863D01*
X110397476Y-60169862D01*
X110191330Y-60073735D01*
X110191326Y-60073733D01*
X109971602Y-60014858D01*
X109971605Y-60014858D01*
X109745000Y-59995034D01*
X109518396Y-60014858D01*
X109298673Y-60073733D01*
X109298670Y-60073735D01*
X109092518Y-60169865D01*
X109092514Y-60169867D01*
X109019527Y-60220973D01*
X109019527Y-60220974D01*
X109698553Y-60900000D01*
X109692339Y-60900000D01*
X109590606Y-60927259D01*
X109499394Y-60979920D01*
X109424920Y-61054394D01*
X109372259Y-61145606D01*
X109345000Y-61247339D01*
X109345000Y-61253553D01*
X108665974Y-60574527D01*
X108665973Y-60574527D01*
X108614867Y-60647514D01*
X108614865Y-60647518D01*
X108518735Y-60853670D01*
X108518733Y-60853673D01*
X108459858Y-61073396D01*
X108440034Y-61300000D01*
X100075500Y-61300000D01*
X100075500Y-59997822D01*
X101550000Y-59997822D01*
X101556401Y-60057372D01*
X101556403Y-60057381D01*
X101606646Y-60192087D01*
X101606647Y-60192090D01*
X101692810Y-60307189D01*
X101807909Y-60393352D01*
X101807912Y-60393353D01*
X101942618Y-60443596D01*
X101942627Y-60443598D01*
X102002177Y-60450000D01*
X102650000Y-60450000D01*
X102650000Y-59533012D01*
X102707007Y-59565925D01*
X102834174Y-59600000D01*
X102965826Y-59600000D01*
X103092993Y-59565925D01*
X103150000Y-59533012D01*
X103150000Y-60450000D01*
X103797823Y-60450000D01*
X103857372Y-60443598D01*
X103857381Y-60443596D01*
X103992087Y-60393353D01*
X103992090Y-60393352D01*
X104107189Y-60307189D01*
X104193352Y-60192090D01*
X104193353Y-60192087D01*
X104243596Y-60057381D01*
X104243598Y-60057372D01*
X104250000Y-59997822D01*
X104250000Y-59350000D01*
X103333012Y-59350000D01*
X103365925Y-59292993D01*
X103400000Y-59165826D01*
X103400000Y-59034174D01*
X103365925Y-58907007D01*
X103333012Y-58850000D01*
X104250000Y-58850000D01*
X154161835Y-58850000D01*
X154180465Y-59086711D01*
X154235895Y-59317594D01*
X154235896Y-59317597D01*
X154235897Y-59317600D01*
X154326758Y-59536961D01*
X154326761Y-59536966D01*
X154450825Y-59739418D01*
X154605030Y-59919969D01*
X154785581Y-60074174D01*
X154988033Y-60198238D01*
X154988038Y-60198241D01*
X155104800Y-60246604D01*
X155207406Y-60289105D01*
X155438289Y-60344535D01*
X155675000Y-60363165D01*
X155911711Y-60344535D01*
X156142594Y-60289105D01*
X156361963Y-60198240D01*
X156564416Y-60074176D01*
X156744969Y-59919969D01*
X156899176Y-59739416D01*
X157023240Y-59536963D01*
X157038510Y-59500099D01*
X157078826Y-59402765D01*
X157114105Y-59317594D01*
X157169535Y-59086711D01*
X157188165Y-58850000D01*
X160661835Y-58850000D01*
X160680465Y-59086711D01*
X160735895Y-59317594D01*
X160735896Y-59317597D01*
X160735897Y-59317600D01*
X160826758Y-59536961D01*
X160826761Y-59536966D01*
X160950825Y-59739418D01*
X161105030Y-59919969D01*
X161285581Y-60074174D01*
X161488033Y-60198238D01*
X161488038Y-60198241D01*
X161604800Y-60246604D01*
X161707406Y-60289105D01*
X161938289Y-60344535D01*
X162175000Y-60363165D01*
X162411711Y-60344535D01*
X162642594Y-60289105D01*
X162861963Y-60198240D01*
X163064416Y-60074176D01*
X163244969Y-59919969D01*
X163399176Y-59739416D01*
X163523240Y-59536963D01*
X163538510Y-59500099D01*
X163578826Y-59402765D01*
X163614105Y-59317594D01*
X163669535Y-59086711D01*
X163688165Y-58850000D01*
X163669535Y-58613289D01*
X163614105Y-58382406D01*
X163600793Y-58350269D01*
X163523241Y-58163038D01*
X163523238Y-58163033D01*
X163399174Y-57960581D01*
X163244969Y-57780030D01*
X163064418Y-57625825D01*
X162861966Y-57501761D01*
X162861961Y-57501758D01*
X162642599Y-57410897D01*
X162642600Y-57410897D01*
X162642597Y-57410896D01*
X162642594Y-57410895D01*
X162481034Y-57372108D01*
X162411712Y-57355465D01*
X162175000Y-57336835D01*
X161938287Y-57355465D01*
X161799641Y-57388751D01*
X161707406Y-57410895D01*
X161707404Y-57410895D01*
X161707399Y-57410897D01*
X161488038Y-57501758D01*
X161488033Y-57501761D01*
X161285581Y-57625825D01*
X161105030Y-57780030D01*
X160950825Y-57960581D01*
X160826761Y-58163033D01*
X160826758Y-58163038D01*
X160735897Y-58382399D01*
X160735895Y-58382404D01*
X160735895Y-58382406D01*
X160680465Y-58613289D01*
X160661835Y-58850000D01*
X157188165Y-58850000D01*
X157169535Y-58613289D01*
X157114105Y-58382406D01*
X157100793Y-58350269D01*
X157023241Y-58163038D01*
X157023238Y-58163033D01*
X156899174Y-57960581D01*
X156744969Y-57780030D01*
X156564418Y-57625825D01*
X156361966Y-57501761D01*
X156361961Y-57501758D01*
X156142599Y-57410897D01*
X156142600Y-57410897D01*
X156142597Y-57410896D01*
X156142594Y-57410895D01*
X155981034Y-57372108D01*
X155911712Y-57355465D01*
X155675000Y-57336835D01*
X155438287Y-57355465D01*
X155299641Y-57388751D01*
X155207406Y-57410895D01*
X155207404Y-57410895D01*
X155207399Y-57410897D01*
X154988038Y-57501758D01*
X154988033Y-57501761D01*
X154785581Y-57625825D01*
X154605030Y-57780030D01*
X154450825Y-57960581D01*
X154326761Y-58163033D01*
X154326758Y-58163038D01*
X154235897Y-58382399D01*
X154235895Y-58382404D01*
X154235895Y-58382406D01*
X154180465Y-58613289D01*
X154161835Y-58850000D01*
X104250000Y-58850000D01*
X104250000Y-58202177D01*
X104243598Y-58142627D01*
X104243596Y-58142618D01*
X104193353Y-58007912D01*
X104193352Y-58007909D01*
X104107189Y-57892810D01*
X103992090Y-57806647D01*
X103992087Y-57806646D01*
X103857381Y-57756403D01*
X103857372Y-57756401D01*
X103797823Y-57750000D01*
X103150000Y-57750000D01*
X103150000Y-58666988D01*
X103092993Y-58634075D01*
X102965826Y-58600000D01*
X102834174Y-58600000D01*
X102707007Y-58634075D01*
X102650000Y-58666988D01*
X102650000Y-57750000D01*
X102002177Y-57750000D01*
X101942627Y-57756401D01*
X101942618Y-57756403D01*
X101807912Y-57806646D01*
X101807909Y-57806647D01*
X101692810Y-57892810D01*
X101606647Y-58007909D01*
X101606646Y-58007912D01*
X101556403Y-58142618D01*
X101556401Y-58142627D01*
X101550000Y-58202177D01*
X101550000Y-58850000D01*
X102466988Y-58850000D01*
X102434075Y-58907007D01*
X102400000Y-59034174D01*
X102400000Y-59165826D01*
X102434075Y-59292993D01*
X102466988Y-59350000D01*
X101550000Y-59350000D01*
X101550000Y-59997822D01*
X100075500Y-59997822D01*
X100075500Y-55975000D01*
X108686127Y-55975000D01*
X108738731Y-56171321D01*
X108834865Y-56377483D01*
X108834867Y-56377486D01*
X108965339Y-56563818D01*
X109126181Y-56724660D01*
X109312513Y-56855132D01*
X109312516Y-56855134D01*
X109518679Y-56951268D01*
X109518678Y-56951268D01*
X109714999Y-57003872D01*
X109715000Y-57003872D01*
X109715000Y-56040686D01*
X109719394Y-56045080D01*
X109810606Y-56097741D01*
X109912339Y-56125000D01*
X110017661Y-56125000D01*
X110119394Y-56097741D01*
X110210606Y-56045080D01*
X110215000Y-56040686D01*
X110215000Y-57003872D01*
X110411321Y-56951268D01*
X110617483Y-56855134D01*
X110617486Y-56855132D01*
X110803818Y-56724660D01*
X110964660Y-56563818D01*
X111095132Y-56377486D01*
X111095134Y-56377483D01*
X111191268Y-56171321D01*
X111243872Y-55975000D01*
X110280686Y-55975000D01*
X110285080Y-55970606D01*
X110337741Y-55879394D01*
X110365000Y-55777661D01*
X110365000Y-55725000D01*
X118811502Y-55725000D01*
X118831457Y-55953088D01*
X118831458Y-55953093D01*
X118890716Y-56174243D01*
X118987477Y-56381749D01*
X118987481Y-56381755D01*
X119118803Y-56569302D01*
X119280697Y-56731196D01*
X119280700Y-56731198D01*
X119468251Y-56862523D01*
X119675757Y-56959284D01*
X119896913Y-57018543D01*
X120125000Y-57038498D01*
X120353087Y-57018543D01*
X120574243Y-56959284D01*
X120781749Y-56862523D01*
X120969300Y-56731198D01*
X121126859Y-56573639D01*
X124091500Y-56573639D01*
X124094755Y-56603919D01*
X124098011Y-56634201D01*
X124149111Y-56771204D01*
X124236739Y-56888261D01*
X124353796Y-56975889D01*
X124490799Y-57026989D01*
X124540642Y-57032347D01*
X124551360Y-57033500D01*
X124551362Y-57033500D01*
X126448640Y-57033500D01*
X126458485Y-57032441D01*
X126509201Y-57026989D01*
X126646204Y-56975889D01*
X126763261Y-56888261D01*
X126841918Y-56783188D01*
X126859419Y-56759810D01*
X126861190Y-56761136D01*
X126907300Y-56708998D01*
X126988945Y-56674681D01*
X127077394Y-56679188D01*
X127145526Y-56713656D01*
X127266980Y-56808188D01*
X127266983Y-56808190D01*
X127472273Y-56919287D01*
X127693044Y-56995078D01*
X127693045Y-56995079D01*
X127693047Y-56995079D01*
X127693049Y-56995080D01*
X127923288Y-57033500D01*
X127923290Y-57033500D01*
X128156710Y-57033500D01*
X128156712Y-57033500D01*
X128386951Y-56995080D01*
X128607727Y-56919287D01*
X128813017Y-56808190D01*
X128830880Y-56794287D01*
X128911938Y-56731196D01*
X128997220Y-56664818D01*
X129104172Y-56548638D01*
X133566500Y-56548638D01*
X133573011Y-56609201D01*
X133624111Y-56746204D01*
X133711739Y-56863261D01*
X133828796Y-56950889D01*
X133965799Y-57001989D01*
X134015642Y-57007347D01*
X134026360Y-57008500D01*
X134026362Y-57008500D01*
X135923640Y-57008500D01*
X135933485Y-57007441D01*
X135984201Y-57001989D01*
X136121204Y-56950889D01*
X136238261Y-56863261D01*
X136315704Y-56759810D01*
X136334419Y-56734810D01*
X136336190Y-56736136D01*
X136382300Y-56683998D01*
X136463945Y-56649681D01*
X136552394Y-56654188D01*
X136620526Y-56688656D01*
X136741980Y-56783188D01*
X136741983Y-56783190D01*
X136947273Y-56894287D01*
X137168044Y-56970078D01*
X137168045Y-56970079D01*
X137168047Y-56970079D01*
X137168049Y-56970080D01*
X137398288Y-57008500D01*
X137398290Y-57008500D01*
X137631710Y-57008500D01*
X137631712Y-57008500D01*
X137861951Y-56970080D01*
X138082727Y-56894287D01*
X138288017Y-56783190D01*
X138303416Y-56771205D01*
X138416496Y-56683190D01*
X138472220Y-56639818D01*
X138630314Y-56468083D01*
X138643018Y-56448638D01*
X143716500Y-56448638D01*
X143723011Y-56509201D01*
X143774111Y-56646204D01*
X143861739Y-56763261D01*
X143978796Y-56850889D01*
X144115799Y-56901989D01*
X144165642Y-56907347D01*
X144176360Y-56908500D01*
X144176362Y-56908500D01*
X146073640Y-56908500D01*
X146083485Y-56907441D01*
X146134201Y-56901989D01*
X146271204Y-56850889D01*
X146388261Y-56763261D01*
X146473286Y-56649681D01*
X146484419Y-56634810D01*
X146486190Y-56636136D01*
X146532300Y-56583998D01*
X146613945Y-56549681D01*
X146702394Y-56554188D01*
X146770526Y-56588656D01*
X146886841Y-56679188D01*
X146891983Y-56683190D01*
X147097273Y-56794287D01*
X147318044Y-56870078D01*
X147318045Y-56870079D01*
X147318047Y-56870079D01*
X147318049Y-56870080D01*
X147548288Y-56908500D01*
X147548290Y-56908500D01*
X147781710Y-56908500D01*
X147781712Y-56908500D01*
X148011951Y-56870080D01*
X148232727Y-56794287D01*
X148438017Y-56683190D01*
X148448950Y-56674681D01*
X148591385Y-56563818D01*
X148622220Y-56539818D01*
X148780314Y-56368083D01*
X148907984Y-56172669D01*
X148908576Y-56171321D01*
X148932743Y-56116223D01*
X149001749Y-55958907D01*
X149059051Y-55732626D01*
X149067970Y-55625000D01*
X149078327Y-55500004D01*
X149078327Y-55499995D01*
X149059052Y-55267381D01*
X149059051Y-55267378D01*
X149059051Y-55267374D01*
X149001749Y-55041093D01*
X148939860Y-54900000D01*
X148907986Y-54827334D01*
X148907984Y-54827332D01*
X148907984Y-54827331D01*
X148780314Y-54631917D01*
X148622220Y-54460182D01*
X148622219Y-54460181D01*
X148622217Y-54460179D01*
X148480665Y-54350004D01*
X154169859Y-54350004D01*
X154190385Y-54597730D01*
X154251413Y-54838720D01*
X154351265Y-55066364D01*
X154351267Y-55066366D01*
X154451564Y-55219882D01*
X155151212Y-54520234D01*
X155162482Y-54562292D01*
X155234890Y-54687708D01*
X155337292Y-54790110D01*
X155462708Y-54862518D01*
X155504765Y-54873787D01*
X154804942Y-55573609D01*
X154804942Y-55573610D01*
X154851765Y-55610053D01*
X154851767Y-55610054D01*
X155070387Y-55728366D01*
X155305511Y-55809083D01*
X155550702Y-55849999D01*
X155550708Y-55850000D01*
X155799292Y-55850000D01*
X155799297Y-55849999D01*
X156044488Y-55809083D01*
X156279612Y-55728366D01*
X156498229Y-55610056D01*
X156545056Y-55573609D01*
X155845235Y-54873787D01*
X155887292Y-54862518D01*
X156012708Y-54790110D01*
X156115110Y-54687708D01*
X156187518Y-54562292D01*
X156198787Y-54520234D01*
X156898434Y-55219882D01*
X156898435Y-55219881D01*
X156998728Y-55066374D01*
X156998734Y-55066364D01*
X157098586Y-54838720D01*
X157159614Y-54597730D01*
X157180141Y-54350004D01*
X160669859Y-54350004D01*
X160690385Y-54597730D01*
X160751413Y-54838720D01*
X160851265Y-55066364D01*
X160851267Y-55066366D01*
X160951564Y-55219882D01*
X161651212Y-54520234D01*
X161662482Y-54562292D01*
X161734890Y-54687708D01*
X161837292Y-54790110D01*
X161962708Y-54862518D01*
X162004765Y-54873787D01*
X161304942Y-55573609D01*
X161304942Y-55573610D01*
X161351765Y-55610053D01*
X161351767Y-55610054D01*
X161570387Y-55728366D01*
X161805511Y-55809083D01*
X162050702Y-55849999D01*
X162050708Y-55850000D01*
X162299292Y-55850000D01*
X162299297Y-55849999D01*
X162544488Y-55809083D01*
X162779612Y-55728366D01*
X162998229Y-55610056D01*
X163045056Y-55573609D01*
X162345235Y-54873787D01*
X162387292Y-54862518D01*
X162512708Y-54790110D01*
X162615110Y-54687708D01*
X162687518Y-54562292D01*
X162698787Y-54520234D01*
X163398434Y-55219882D01*
X163398435Y-55219881D01*
X163498728Y-55066374D01*
X163498734Y-55066364D01*
X163598586Y-54838720D01*
X163659614Y-54597730D01*
X163680141Y-54350004D01*
X163680141Y-54349995D01*
X163659614Y-54102269D01*
X163598586Y-53861279D01*
X163498734Y-53633635D01*
X163498728Y-53633625D01*
X163398435Y-53480117D01*
X162698787Y-54179764D01*
X162687518Y-54137708D01*
X162615110Y-54012292D01*
X162512708Y-53909890D01*
X162387292Y-53837482D01*
X162345234Y-53826212D01*
X163045057Y-53126389D01*
X162998233Y-53089946D01*
X162998232Y-53089945D01*
X162779612Y-52971633D01*
X162544488Y-52890916D01*
X162299297Y-52850000D01*
X162050702Y-52850000D01*
X161805511Y-52890916D01*
X161570384Y-52971634D01*
X161351773Y-53089941D01*
X161351769Y-53089943D01*
X161304942Y-53126389D01*
X162004765Y-53826212D01*
X161962708Y-53837482D01*
X161837292Y-53909890D01*
X161734890Y-54012292D01*
X161662482Y-54137708D01*
X161651212Y-54179764D01*
X160951564Y-53480116D01*
X160951563Y-53480116D01*
X160851270Y-53633627D01*
X160851265Y-53633635D01*
X160751413Y-53861279D01*
X160690385Y-54102269D01*
X160669859Y-54349995D01*
X160669859Y-54350004D01*
X157180141Y-54350004D01*
X157180141Y-54349995D01*
X157159614Y-54102269D01*
X157098586Y-53861279D01*
X156998734Y-53633635D01*
X156998728Y-53633625D01*
X156898435Y-53480117D01*
X156198787Y-54179764D01*
X156187518Y-54137708D01*
X156115110Y-54012292D01*
X156012708Y-53909890D01*
X155887292Y-53837482D01*
X155845234Y-53826212D01*
X156545057Y-53126389D01*
X156498233Y-53089946D01*
X156498232Y-53089945D01*
X156279612Y-52971633D01*
X156044488Y-52890916D01*
X155799297Y-52850000D01*
X155550702Y-52850000D01*
X155305511Y-52890916D01*
X155070384Y-52971634D01*
X154851773Y-53089941D01*
X154851769Y-53089943D01*
X154804942Y-53126389D01*
X155504765Y-53826212D01*
X155462708Y-53837482D01*
X155337292Y-53909890D01*
X155234890Y-54012292D01*
X155162482Y-54137708D01*
X155151212Y-54179764D01*
X154451564Y-53480116D01*
X154451563Y-53480116D01*
X154351270Y-53633627D01*
X154351265Y-53633635D01*
X154251413Y-53861279D01*
X154190385Y-54102269D01*
X154169859Y-54349995D01*
X154169859Y-54350004D01*
X148480665Y-54350004D01*
X148438019Y-54316811D01*
X148232727Y-54205713D01*
X148011955Y-54129921D01*
X148011954Y-54129920D01*
X147781715Y-54091500D01*
X147781712Y-54091500D01*
X147548288Y-54091500D01*
X147548284Y-54091500D01*
X147318045Y-54129920D01*
X147318044Y-54129921D01*
X147097272Y-54205713D01*
X146891980Y-54316811D01*
X146770525Y-54411344D01*
X146690284Y-54448825D01*
X146601727Y-54447779D01*
X146522394Y-54408413D01*
X146485713Y-54364220D01*
X146484419Y-54365190D01*
X146439894Y-54305713D01*
X146388261Y-54236739D01*
X146271204Y-54149111D01*
X146134201Y-54098011D01*
X146114013Y-54095840D01*
X146073640Y-54091500D01*
X146073638Y-54091500D01*
X144176362Y-54091500D01*
X144176360Y-54091500D01*
X144115799Y-54098011D01*
X143978796Y-54149111D01*
X143978795Y-54149111D01*
X143978794Y-54149112D01*
X143861739Y-54236739D01*
X143776950Y-54350004D01*
X143774111Y-54353796D01*
X143745145Y-54431457D01*
X143723011Y-54490799D01*
X143718115Y-54536344D01*
X143716500Y-54551362D01*
X143716500Y-56448638D01*
X138643018Y-56448638D01*
X138757984Y-56272669D01*
X138851749Y-56058907D01*
X138909051Y-55832626D01*
X138917338Y-55732626D01*
X138928327Y-55600004D01*
X138928327Y-55599995D01*
X138909052Y-55367381D01*
X138909051Y-55367378D01*
X138909051Y-55367374D01*
X138851749Y-55141093D01*
X138821667Y-55072513D01*
X138757986Y-54927334D01*
X138757984Y-54927332D01*
X138757984Y-54927331D01*
X138630314Y-54731917D01*
X138472220Y-54560182D01*
X138472219Y-54560181D01*
X138472217Y-54560179D01*
X138288019Y-54416811D01*
X138082727Y-54305713D01*
X137861955Y-54229921D01*
X137861954Y-54229920D01*
X137631715Y-54191500D01*
X137631712Y-54191500D01*
X137398288Y-54191500D01*
X137398284Y-54191500D01*
X137168045Y-54229920D01*
X137168044Y-54229921D01*
X136947272Y-54305713D01*
X136741980Y-54416811D01*
X136620525Y-54511344D01*
X136540284Y-54548825D01*
X136451727Y-54547779D01*
X136372394Y-54508413D01*
X136335713Y-54464220D01*
X136334419Y-54465190D01*
X136294110Y-54411344D01*
X136238261Y-54336739D01*
X136121204Y-54249111D01*
X135984201Y-54198011D01*
X135964013Y-54195840D01*
X135923640Y-54191500D01*
X135923638Y-54191500D01*
X134026362Y-54191500D01*
X134026360Y-54191500D01*
X133965799Y-54198011D01*
X133828796Y-54249111D01*
X133828795Y-54249111D01*
X133828794Y-54249112D01*
X133711739Y-54336739D01*
X133629852Y-54446127D01*
X133624111Y-54453796D01*
X133573011Y-54590799D01*
X133566500Y-54651362D01*
X133566500Y-56548638D01*
X129104172Y-56548638D01*
X129155314Y-56493083D01*
X129282984Y-56297669D01*
X129376749Y-56083907D01*
X129434051Y-55857626D01*
X129436124Y-55832618D01*
X129453327Y-55625004D01*
X129453327Y-55624995D01*
X129434052Y-55392381D01*
X129434051Y-55392378D01*
X129434051Y-55392374D01*
X129376749Y-55166093D01*
X129335701Y-55072513D01*
X129282986Y-54952334D01*
X129282984Y-54952332D01*
X129282984Y-54952331D01*
X129155314Y-54756917D01*
X128997220Y-54585182D01*
X128997219Y-54585181D01*
X128997217Y-54585179D01*
X128813019Y-54441811D01*
X128607727Y-54330713D01*
X128386955Y-54254921D01*
X128386954Y-54254920D01*
X128156715Y-54216500D01*
X128156712Y-54216500D01*
X127923288Y-54216500D01*
X127923284Y-54216500D01*
X127693045Y-54254920D01*
X127693044Y-54254921D01*
X127472272Y-54330713D01*
X127266980Y-54441811D01*
X127145525Y-54536344D01*
X127065284Y-54573825D01*
X126976727Y-54572779D01*
X126897394Y-54533413D01*
X126860713Y-54489220D01*
X126859419Y-54490190D01*
X126804487Y-54416811D01*
X126763261Y-54361739D01*
X126646204Y-54274111D01*
X126509201Y-54223011D01*
X126489013Y-54220840D01*
X126448640Y-54216500D01*
X126448638Y-54216500D01*
X124551362Y-54216500D01*
X124551360Y-54216500D01*
X124490799Y-54223011D01*
X124353796Y-54274111D01*
X124353795Y-54274111D01*
X124353794Y-54274112D01*
X124236739Y-54361739D01*
X124163048Y-54460179D01*
X124149111Y-54478796D01*
X124118756Y-54560181D01*
X124098011Y-54615799D01*
X124091500Y-54676360D01*
X124091500Y-56573639D01*
X121126859Y-56573639D01*
X121131198Y-56569300D01*
X121262523Y-56381749D01*
X121359284Y-56174243D01*
X121418543Y-55953087D01*
X121438498Y-55725000D01*
X121418543Y-55496913D01*
X121359284Y-55275757D01*
X121262523Y-55068251D01*
X121163850Y-54927332D01*
X121131196Y-54880697D01*
X120969302Y-54718803D01*
X120781755Y-54587481D01*
X120781749Y-54587477D01*
X120574243Y-54490716D01*
X120353093Y-54431458D01*
X120353088Y-54431457D01*
X120125000Y-54411502D01*
X119896911Y-54431457D01*
X119896906Y-54431458D01*
X119675756Y-54490716D01*
X119468250Y-54587477D01*
X119468244Y-54587481D01*
X119280697Y-54718803D01*
X119118803Y-54880697D01*
X118987481Y-55068244D01*
X118987477Y-55068250D01*
X118890716Y-55275756D01*
X118831458Y-55496906D01*
X118831457Y-55496911D01*
X118811502Y-55725000D01*
X110365000Y-55725000D01*
X110365000Y-55672339D01*
X110337741Y-55570606D01*
X110285080Y-55479394D01*
X110280686Y-55475000D01*
X111243872Y-55475000D01*
X111243872Y-55474999D01*
X111191268Y-55278678D01*
X111095134Y-55072516D01*
X111095132Y-55072513D01*
X110964660Y-54886181D01*
X110803818Y-54725339D01*
X110617486Y-54594867D01*
X110617483Y-54594865D01*
X110411330Y-54498735D01*
X110411325Y-54498733D01*
X110215000Y-54446127D01*
X110215000Y-55409314D01*
X110210606Y-55404920D01*
X110119394Y-55352259D01*
X110017661Y-55325000D01*
X109912339Y-55325000D01*
X109810606Y-55352259D01*
X109719394Y-55404920D01*
X109715000Y-55409314D01*
X109715000Y-54446127D01*
X109714999Y-54446127D01*
X109518674Y-54498733D01*
X109518669Y-54498735D01*
X109312516Y-54594865D01*
X109312513Y-54594867D01*
X109126181Y-54725339D01*
X108965339Y-54886181D01*
X108834867Y-55072513D01*
X108834865Y-55072516D01*
X108738731Y-55278678D01*
X108686127Y-55474999D01*
X108686128Y-55475000D01*
X109649314Y-55475000D01*
X109644920Y-55479394D01*
X109592259Y-55570606D01*
X109565000Y-55672339D01*
X109565000Y-55777661D01*
X109592259Y-55879394D01*
X109644920Y-55970606D01*
X109649314Y-55975000D01*
X108686127Y-55975000D01*
X100075500Y-55975000D01*
X100075500Y-53298638D01*
X101466500Y-53298638D01*
X101473011Y-53359201D01*
X101524111Y-53496204D01*
X101611739Y-53613261D01*
X101728796Y-53700889D01*
X101865799Y-53751989D01*
X101915642Y-53757347D01*
X101926360Y-53758500D01*
X101926362Y-53758500D01*
X103723640Y-53758500D01*
X103733485Y-53757441D01*
X103784201Y-53751989D01*
X103921204Y-53700889D01*
X104038261Y-53613261D01*
X104125889Y-53496204D01*
X104176989Y-53359201D01*
X104183500Y-53298638D01*
X104183500Y-51501362D01*
X104176989Y-51440799D01*
X104125889Y-51303796D01*
X104038261Y-51186739D01*
X103921204Y-51099111D01*
X103784201Y-51048011D01*
X103764013Y-51045840D01*
X103723640Y-51041500D01*
X103723638Y-51041500D01*
X101926362Y-51041500D01*
X101926360Y-51041500D01*
X101865799Y-51048011D01*
X101728796Y-51099111D01*
X101728795Y-51099111D01*
X101728794Y-51099112D01*
X101611739Y-51186739D01*
X101524111Y-51303796D01*
X101473011Y-51440799D01*
X101466500Y-51501362D01*
X101466500Y-53298638D01*
X100075500Y-53298638D01*
X100075500Y-50098638D01*
X117437500Y-50098638D01*
X117444011Y-50159201D01*
X117495111Y-50296204D01*
X117582739Y-50413261D01*
X117699796Y-50500889D01*
X117836799Y-50551989D01*
X117886642Y-50557347D01*
X117897360Y-50558500D01*
X117897362Y-50558500D01*
X119694640Y-50558500D01*
X119704485Y-50557441D01*
X119755201Y-50551989D01*
X119892204Y-50500889D01*
X120009261Y-50413261D01*
X120096889Y-50296204D01*
X120100183Y-50287372D01*
X120148816Y-50213363D01*
X120224748Y-50167781D01*
X120312938Y-50159659D01*
X120395919Y-50190605D01*
X120408865Y-50199875D01*
X120590421Y-50341187D01*
X120590424Y-50341189D01*
X120659294Y-50378459D01*
X120788421Y-50448340D01*
X120788424Y-50448341D01*
X120788426Y-50448342D01*
X121001365Y-50521444D01*
X121223431Y-50558500D01*
X121223433Y-50558500D01*
X121448567Y-50558500D01*
X121448569Y-50558500D01*
X121670635Y-50521444D01*
X121883574Y-50448342D01*
X122081576Y-50341189D01*
X122259240Y-50202906D01*
X122411722Y-50037268D01*
X122439406Y-49994893D01*
X122503126Y-49933392D01*
X122587224Y-49905627D01*
X122675041Y-49917100D01*
X122749184Y-49965539D01*
X122772589Y-49994887D01*
X122800278Y-50037268D01*
X122856774Y-50098638D01*
X122952759Y-50202905D01*
X122952762Y-50202908D01*
X123130421Y-50341187D01*
X123130424Y-50341189D01*
X123199294Y-50378459D01*
X123328421Y-50448340D01*
X123328424Y-50448341D01*
X123328426Y-50448342D01*
X123541365Y-50521444D01*
X123763431Y-50558500D01*
X123763433Y-50558500D01*
X123988567Y-50558500D01*
X123988569Y-50558500D01*
X124210635Y-50521444D01*
X124423574Y-50448342D01*
X124621576Y-50341189D01*
X124799240Y-50202906D01*
X124951722Y-50037268D01*
X124985113Y-49986158D01*
X125048832Y-49924657D01*
X125132930Y-49896891D01*
X125220747Y-49908363D01*
X125294890Y-49956802D01*
X125314717Y-49980860D01*
X125377889Y-50071078D01*
X125544920Y-50238109D01*
X125738417Y-50373598D01*
X125738420Y-50373600D01*
X125952509Y-50473430D01*
X126166000Y-50530634D01*
X126166000Y-49633012D01*
X126223007Y-49665925D01*
X126350174Y-49700000D01*
X126481826Y-49700000D01*
X126608993Y-49665925D01*
X126666000Y-49633012D01*
X126666000Y-50530634D01*
X126879490Y-50473430D01*
X127093579Y-50373600D01*
X127093582Y-50373598D01*
X127287079Y-50238109D01*
X127454108Y-50071080D01*
X127517281Y-49980861D01*
X127582948Y-49921437D01*
X127667896Y-49896389D01*
X127755299Y-49910680D01*
X127827845Y-49961478D01*
X127846884Y-49986155D01*
X127880278Y-50037268D01*
X127936774Y-50098638D01*
X128032759Y-50202905D01*
X128032762Y-50202908D01*
X128210421Y-50341187D01*
X128210424Y-50341189D01*
X128279294Y-50378459D01*
X128408421Y-50448340D01*
X128408424Y-50448341D01*
X128408426Y-50448342D01*
X128621365Y-50521444D01*
X128843431Y-50558500D01*
X128843433Y-50558500D01*
X129068567Y-50558500D01*
X129068569Y-50558500D01*
X129290635Y-50521444D01*
X129503574Y-50448342D01*
X129701576Y-50341189D01*
X129879240Y-50202906D01*
X130031722Y-50037268D01*
X130059406Y-49994893D01*
X130123126Y-49933392D01*
X130207224Y-49905627D01*
X130295041Y-49917100D01*
X130369184Y-49965539D01*
X130392589Y-49994887D01*
X130420278Y-50037268D01*
X130476774Y-50098638D01*
X130572759Y-50202905D01*
X130572762Y-50202908D01*
X130750421Y-50341187D01*
X130750424Y-50341189D01*
X130819294Y-50378459D01*
X130948421Y-50448340D01*
X130948424Y-50448341D01*
X130948426Y-50448342D01*
X131161365Y-50521444D01*
X131383431Y-50558500D01*
X131383433Y-50558500D01*
X131608567Y-50558500D01*
X131608569Y-50558500D01*
X131830635Y-50521444D01*
X132043574Y-50448342D01*
X132241576Y-50341189D01*
X132419240Y-50202906D01*
X132571722Y-50037268D01*
X132599406Y-49994893D01*
X132663126Y-49933392D01*
X132747224Y-49905627D01*
X132835041Y-49917100D01*
X132909184Y-49965539D01*
X132932589Y-49994887D01*
X132960278Y-50037268D01*
X133016774Y-50098638D01*
X133112759Y-50202905D01*
X133112762Y-50202908D01*
X133290421Y-50341187D01*
X133290424Y-50341189D01*
X133359294Y-50378459D01*
X133488421Y-50448340D01*
X133488424Y-50448341D01*
X133488426Y-50448342D01*
X133701365Y-50521444D01*
X133923431Y-50558500D01*
X133923433Y-50558500D01*
X134148567Y-50558500D01*
X134148569Y-50558500D01*
X134370635Y-50521444D01*
X134583574Y-50448342D01*
X134781576Y-50341189D01*
X134959240Y-50202906D01*
X135111722Y-50037268D01*
X135139406Y-49994893D01*
X135203126Y-49933392D01*
X135287224Y-49905627D01*
X135375041Y-49917100D01*
X135449184Y-49965539D01*
X135472589Y-49994887D01*
X135500278Y-50037268D01*
X135556774Y-50098638D01*
X135652759Y-50202905D01*
X135652762Y-50202908D01*
X135830421Y-50341187D01*
X135830424Y-50341189D01*
X135899294Y-50378459D01*
X136028421Y-50448340D01*
X136028424Y-50448341D01*
X136028426Y-50448342D01*
X136241365Y-50521444D01*
X136463431Y-50558500D01*
X136463433Y-50558500D01*
X136688567Y-50558500D01*
X136688569Y-50558500D01*
X136910635Y-50521444D01*
X137123574Y-50448342D01*
X137321576Y-50341189D01*
X137499240Y-50202906D01*
X137651722Y-50037268D01*
X137679406Y-49994893D01*
X137743126Y-49933392D01*
X137827224Y-49905627D01*
X137915041Y-49917100D01*
X137989184Y-49965539D01*
X138012589Y-49994887D01*
X138040278Y-50037268D01*
X138096774Y-50098638D01*
X138192759Y-50202905D01*
X138192762Y-50202908D01*
X138370421Y-50341187D01*
X138370424Y-50341189D01*
X138439294Y-50378459D01*
X138568421Y-50448340D01*
X138568424Y-50448341D01*
X138568426Y-50448342D01*
X138781365Y-50521444D01*
X139003431Y-50558500D01*
X139003433Y-50558500D01*
X139228567Y-50558500D01*
X139228569Y-50558500D01*
X139450635Y-50521444D01*
X139663574Y-50448342D01*
X139861576Y-50341189D01*
X140039240Y-50202906D01*
X140191722Y-50037268D01*
X140219406Y-49994893D01*
X140283126Y-49933392D01*
X140367224Y-49905627D01*
X140455041Y-49917100D01*
X140529184Y-49965539D01*
X140552589Y-49994887D01*
X140580278Y-50037268D01*
X140636774Y-50098638D01*
X140732759Y-50202905D01*
X140732762Y-50202908D01*
X140910421Y-50341187D01*
X140910424Y-50341189D01*
X140979294Y-50378459D01*
X141108421Y-50448340D01*
X141108424Y-50448341D01*
X141108426Y-50448342D01*
X141321365Y-50521444D01*
X141543431Y-50558500D01*
X141543433Y-50558500D01*
X141768567Y-50558500D01*
X141768569Y-50558500D01*
X141990635Y-50521444D01*
X142203574Y-50448342D01*
X142401576Y-50341189D01*
X142579240Y-50202906D01*
X142731722Y-50037268D01*
X142854860Y-49848791D01*
X142945296Y-49642616D01*
X143000564Y-49424368D01*
X143009735Y-49313701D01*
X143019156Y-49200004D01*
X143019156Y-49199995D01*
X143000565Y-48975639D01*
X143000564Y-48975636D01*
X143000564Y-48975632D01*
X142945296Y-48757384D01*
X142854860Y-48551209D01*
X142731722Y-48362732D01*
X142579240Y-48197094D01*
X142579237Y-48197091D01*
X142401578Y-48058812D01*
X142203578Y-47951659D01*
X142128591Y-47925916D01*
X141990635Y-47878556D01*
X141901808Y-47863733D01*
X141768572Y-47841500D01*
X141768569Y-47841500D01*
X141543431Y-47841500D01*
X141543427Y-47841500D01*
X141376456Y-47869363D01*
X141321365Y-47878556D01*
X141257331Y-47900539D01*
X141108421Y-47951659D01*
X140910421Y-48058812D01*
X140732762Y-48197091D01*
X140732759Y-48197094D01*
X140580281Y-48362728D01*
X140580278Y-48362732D01*
X140552596Y-48405103D01*
X140488872Y-48466607D01*
X140404774Y-48494372D01*
X140316957Y-48482899D01*
X140242815Y-48434459D01*
X140219404Y-48405103D01*
X140206487Y-48385332D01*
X140191722Y-48362732D01*
X140039240Y-48197094D01*
X140039237Y-48197091D01*
X139861578Y-48058812D01*
X139663578Y-47951659D01*
X139588591Y-47925916D01*
X139450635Y-47878556D01*
X139361808Y-47863733D01*
X139228572Y-47841500D01*
X139228569Y-47841500D01*
X139003431Y-47841500D01*
X139003427Y-47841500D01*
X138836456Y-47869363D01*
X138781365Y-47878556D01*
X138717331Y-47900539D01*
X138568421Y-47951659D01*
X138370421Y-48058812D01*
X138192762Y-48197091D01*
X138192759Y-48197094D01*
X138040281Y-48362728D01*
X138040278Y-48362732D01*
X138012596Y-48405103D01*
X137948872Y-48466607D01*
X137864774Y-48494372D01*
X137776957Y-48482899D01*
X137702815Y-48434459D01*
X137679404Y-48405103D01*
X137666487Y-48385332D01*
X137651722Y-48362732D01*
X137499240Y-48197094D01*
X137499237Y-48197091D01*
X137321578Y-48058812D01*
X137123578Y-47951659D01*
X137048591Y-47925916D01*
X136910635Y-47878556D01*
X136821808Y-47863733D01*
X136688572Y-47841500D01*
X136688569Y-47841500D01*
X136463431Y-47841500D01*
X136463427Y-47841500D01*
X136296456Y-47869363D01*
X136241365Y-47878556D01*
X136177331Y-47900539D01*
X136028421Y-47951659D01*
X135830421Y-48058812D01*
X135652762Y-48197091D01*
X135652759Y-48197094D01*
X135500281Y-48362728D01*
X135500278Y-48362732D01*
X135472596Y-48405103D01*
X135408872Y-48466607D01*
X135324774Y-48494372D01*
X135236957Y-48482899D01*
X135162815Y-48434459D01*
X135139404Y-48405103D01*
X135126487Y-48385332D01*
X135111722Y-48362732D01*
X134959240Y-48197094D01*
X134959237Y-48197091D01*
X134781578Y-48058812D01*
X134583578Y-47951659D01*
X134508591Y-47925916D01*
X134370635Y-47878556D01*
X134281808Y-47863733D01*
X134148572Y-47841500D01*
X134148569Y-47841500D01*
X133923431Y-47841500D01*
X133923427Y-47841500D01*
X133756456Y-47869363D01*
X133701365Y-47878556D01*
X133637331Y-47900539D01*
X133488421Y-47951659D01*
X133290421Y-48058812D01*
X133112762Y-48197091D01*
X133112759Y-48197094D01*
X132960281Y-48362728D01*
X132960278Y-48362732D01*
X132932596Y-48405103D01*
X132868872Y-48466607D01*
X132784774Y-48494372D01*
X132696957Y-48482899D01*
X132622815Y-48434459D01*
X132599404Y-48405103D01*
X132586487Y-48385332D01*
X132571722Y-48362732D01*
X132419240Y-48197094D01*
X132419237Y-48197091D01*
X132241578Y-48058812D01*
X132043578Y-47951659D01*
X131968591Y-47925916D01*
X131830635Y-47878556D01*
X131741808Y-47863733D01*
X131608572Y-47841500D01*
X131608569Y-47841500D01*
X131383431Y-47841500D01*
X131383427Y-47841500D01*
X131216456Y-47869363D01*
X131161365Y-47878556D01*
X131097331Y-47900539D01*
X130948421Y-47951659D01*
X130750421Y-48058812D01*
X130572762Y-48197091D01*
X130572759Y-48197094D01*
X130420281Y-48362728D01*
X130420278Y-48362732D01*
X130392596Y-48405103D01*
X130328872Y-48466607D01*
X130244774Y-48494372D01*
X130156957Y-48482899D01*
X130082815Y-48434459D01*
X130059404Y-48405103D01*
X130046487Y-48385332D01*
X130031722Y-48362732D01*
X129879240Y-48197094D01*
X129879237Y-48197091D01*
X129701578Y-48058812D01*
X129503578Y-47951659D01*
X129428591Y-47925916D01*
X129290635Y-47878556D01*
X129201808Y-47863733D01*
X129068572Y-47841500D01*
X129068569Y-47841500D01*
X128843431Y-47841500D01*
X128843427Y-47841500D01*
X128676456Y-47869363D01*
X128621365Y-47878556D01*
X128557331Y-47900539D01*
X128408421Y-47951659D01*
X128210421Y-48058812D01*
X128032762Y-48197091D01*
X128032759Y-48197094D01*
X127880281Y-48362728D01*
X127880279Y-48362730D01*
X127846886Y-48413842D01*
X127783162Y-48475345D01*
X127699063Y-48503110D01*
X127611246Y-48491635D01*
X127537104Y-48443195D01*
X127517279Y-48419138D01*
X127454107Y-48328918D01*
X127287079Y-48161890D01*
X127093582Y-48026401D01*
X127093578Y-48026399D01*
X126879495Y-47926571D01*
X126879492Y-47926569D01*
X126666000Y-47869363D01*
X126666000Y-48766988D01*
X126608993Y-48734075D01*
X126481826Y-48700000D01*
X126350174Y-48700000D01*
X126223007Y-48734075D01*
X126166000Y-48766988D01*
X126166000Y-47869363D01*
X125952507Y-47926569D01*
X125952504Y-47926570D01*
X125738422Y-48026399D01*
X125738418Y-48026401D01*
X125544919Y-48161891D01*
X125377890Y-48328920D01*
X125314719Y-48419138D01*
X125249051Y-48478563D01*
X125164103Y-48503610D01*
X125076701Y-48489319D01*
X125004154Y-48438521D01*
X124985113Y-48413840D01*
X124951724Y-48362735D01*
X124951723Y-48362734D01*
X124951722Y-48362732D01*
X124799240Y-48197094D01*
X124799237Y-48197091D01*
X124621578Y-48058812D01*
X124423578Y-47951659D01*
X124348591Y-47925916D01*
X124210635Y-47878556D01*
X124121808Y-47863733D01*
X123988572Y-47841500D01*
X123988569Y-47841500D01*
X123763431Y-47841500D01*
X123763427Y-47841500D01*
X123596456Y-47869363D01*
X123541365Y-47878556D01*
X123477331Y-47900539D01*
X123328421Y-47951659D01*
X123130421Y-48058812D01*
X122952762Y-48197091D01*
X122952759Y-48197094D01*
X122800281Y-48362728D01*
X122800278Y-48362732D01*
X122772596Y-48405103D01*
X122708872Y-48466607D01*
X122624774Y-48494372D01*
X122536957Y-48482899D01*
X122462815Y-48434459D01*
X122439404Y-48405103D01*
X122426487Y-48385332D01*
X122411722Y-48362732D01*
X122259240Y-48197094D01*
X122259237Y-48197091D01*
X122081578Y-48058812D01*
X121883578Y-47951659D01*
X121808591Y-47925916D01*
X121670635Y-47878556D01*
X121581808Y-47863733D01*
X121448572Y-47841500D01*
X121448569Y-47841500D01*
X121223431Y-47841500D01*
X121223427Y-47841500D01*
X121056456Y-47869363D01*
X121001365Y-47878556D01*
X120937331Y-47900539D01*
X120788421Y-47951659D01*
X120590425Y-48058810D01*
X120408865Y-48200125D01*
X120328624Y-48237606D01*
X120240067Y-48236560D01*
X120160733Y-48197195D01*
X120106336Y-48127306D01*
X120100190Y-48112648D01*
X120096889Y-48103796D01*
X120009261Y-47986739D01*
X119892204Y-47899111D01*
X119755201Y-47848011D01*
X119735013Y-47845840D01*
X119694640Y-47841500D01*
X119694638Y-47841500D01*
X117897362Y-47841500D01*
X117897360Y-47841500D01*
X117836799Y-47848011D01*
X117699796Y-47899111D01*
X117699795Y-47899111D01*
X117699794Y-47899112D01*
X117582739Y-47986739D01*
X117495114Y-48103792D01*
X117495111Y-48103796D01*
X117444011Y-48240799D01*
X117437500Y-48301362D01*
X117437500Y-50098638D01*
X100075500Y-50098638D01*
X100075500Y-47431778D01*
X100076458Y-47412274D01*
X100083624Y-47339513D01*
X100086770Y-47307567D01*
X100094377Y-47269323D01*
X100122069Y-47178036D01*
X100136995Y-47142004D01*
X100181959Y-47057880D01*
X100203626Y-47025454D01*
X100264145Y-46951711D01*
X100291711Y-46924145D01*
X100365454Y-46863626D01*
X100397880Y-46841959D01*
X100482007Y-46796993D01*
X100518036Y-46782069D01*
X100609323Y-46754377D01*
X100647567Y-46746770D01*
X100744120Y-46737260D01*
X100752274Y-46736458D01*
X100771778Y-46735500D01*
X100786531Y-46735500D01*
X163386299Y-46735500D01*
X163472642Y-46755207D01*
G37*
%TD.AperFunction*%
%TD*%
M02*
