M48
; DRILL file {KiCad 8.0.1} date 2024-05-14T18:45:42+0200
; FORMAT={-:-/ absolute / inch / decimal}
; #@! TF.CreationDate,2024-05-14T18:45:42+02:00
; #@! TF.GenerationSoftware,Kicad,Pcbnew,8.0.1
; #@! TF.FileFunction,MixedPlating,1,4
FMAT,2
INCH
; #@! TA.AperFunction,Plated,PTH,ViaDrill
T1C0.0157
; #@! TA.AperFunction,Plated,PTH,ComponentDrill
T2C0.0315
; #@! TA.AperFunction,Plated,PTH,ComponentDrill
T3C0.0354
; #@! TA.AperFunction,Plated,PTH,ComponentDrill
T4C0.0394
; #@! TA.AperFunction,Plated,PTH,ComponentDrill
T5C0.0433
%
G90
G05
T1
X5.1053Y-3.6201
T2
X4.5866Y-2.1457
X4.5866Y-2.4457
X4.5866Y-2.6256
X4.5866Y-2.9256
X4.7122Y-2.9134
X4.7181Y-3.5974
X4.7835Y-2.7362
X4.815Y-3.2756
X4.8622Y-2.3031
X4.9134Y-3.2756
X4.9606Y-2.3031
X4.9803Y-2.7362
X5.0122Y-2.9134
X5.0181Y-3.5974
X5.1921Y-3.3024
X5.1921Y-3.4024
X5.1921Y-3.5024
X5.1921Y-3.6024
X5.2362Y-2.1728
X5.2362Y-2.4728
X5.2433Y-2.6646
X5.2433Y-2.9646
X5.2451Y-3.1319
X5.4331Y-2.1728
X5.4331Y-2.4728
X5.4402Y-2.672
X5.4402Y-2.972
X5.4419Y-3.1319
X5.4921Y-3.3024
X5.4921Y-3.4024
X5.4921Y-3.5024
X5.4921Y-3.6024
X5.6132Y-2.6703
X5.6132Y-2.7703
X5.6132Y-2.8703
X5.6132Y-2.9703
X5.6226Y-3.3809
X5.6246Y-3.5817
X5.6644Y-3.1339
X5.7677Y-2.2835
X5.8612Y-3.1339
X5.8661Y-2.2835
X5.9132Y-2.6703
X5.9132Y-2.7703
X5.9132Y-2.8703
X5.9132Y-2.9703
X5.9226Y-3.3809
X5.9246Y-3.5817
X6.1167Y-3.2618
X6.1207Y-2.6545
X6.4167Y-3.2618
X6.4207Y-2.6545
T3
X4.2504Y-2.4803
X4.2608Y-2.815
X4.2953Y-2.0978
X4.2953Y-2.1978
X4.3504Y-2.4803
X4.3608Y-2.815
X6.2096Y-2.4213
X6.3096Y-2.4213
T4
X4.0354Y-2.3031
X4.0354Y-2.6378
X4.0354Y-2.9921
X4.0354Y-3.3268
X4.0551Y-3.6811
X4.677Y-1.937
X4.777Y-1.937
X4.877Y-1.937
X4.977Y-1.937
X5.037Y-3.837
X5.077Y-1.937
X5.137Y-3.837
X5.177Y-1.937
X5.237Y-3.837
X5.277Y-1.937
X5.337Y-3.837
X5.377Y-1.937
X5.437Y-3.837
X5.477Y-1.937
X5.537Y-3.837
X5.577Y-1.937
X5.637Y-3.837
X5.737Y-1.937
X5.737Y-3.837
X5.837Y-1.937
X5.937Y-1.937
X5.937Y-3.837
X6.037Y-1.937
X6.037Y-3.837
X6.137Y-1.937
X6.137Y-3.837
X6.1417Y-2.1457
X6.2047Y-2.8128
X6.2047Y-2.9128
X6.2047Y-3.0128
X6.237Y-1.937
X6.237Y-3.837
X6.337Y-1.937
X6.337Y-3.837
X6.3976Y-2.1457
X6.437Y-1.937
X6.437Y-3.837
T5
X6.1329Y-3.4518
X6.1329Y-3.6289
X6.3888Y-3.4518
X6.3888Y-3.6289
M30
