%TF.GenerationSoftware,KiCad,Pcbnew,8.0.1*%
%TF.CreationDate,2024-05-19T12:30:55+02:00*%
%TF.ProjectId,80_KiCad,38305f4b-6943-4616-942e-6b696361645f,v1.1*%
%TF.SameCoordinates,Original*%
%TF.FileFunction,Soldermask,Top*%
%TF.FilePolarity,Negative*%
%FSLAX46Y46*%
G04 Gerber Fmt 4.6, Leading zero omitted, Abs format (unit mm)*
G04 Created by KiCad (PCBNEW 8.0.1) date 2024-05-19 12:30:55*
%MOMM*%
%LPD*%
G01*
G04 APERTURE LIST*
%ADD10R,1.700000X1.700000*%
%ADD11R,1.600000X1.600000*%
%ADD12O,1.600000X1.600000*%
%ADD13C,1.600000*%
%ADD14R,1.800000X1.800000*%
%ADD15C,1.800000*%
%ADD16C,2.000000*%
%ADD17O,1.700000X1.700000*%
G04 APERTURE END LIST*
D10*
%TO.C,A2_In_N*%
X103075000Y-96775000D03*
%TD*%
%TO.C,A1_In_N*%
X102800000Y-65625000D03*
%TD*%
%TO.C,A_In_P*%
X102825000Y-88325000D03*
%TD*%
%TO.C,A2_Out*%
X112625000Y-97075000D03*
%TD*%
D11*
%TO.C,U1*%
X142575000Y-67825000D03*
D12*
X142575000Y-70365000D03*
X142575000Y-72905000D03*
X142575000Y-75445000D03*
X150195000Y-75445000D03*
X150195000Y-72905000D03*
X150195000Y-70365000D03*
X150195000Y-67825000D03*
%TD*%
D11*
%TO.C,C2*%
X123500000Y-58500000D03*
D13*
X126000000Y-58500000D03*
%TD*%
D10*
%TO.C,VCC1*%
X102825000Y-52400000D03*
%TD*%
D13*
%TO.C,R10*%
X116500000Y-66690000D03*
D12*
X116500000Y-74310000D03*
%TD*%
D14*
%TO.C,D2*%
X107960000Y-63000000D03*
D15*
X110500000Y-63000000D03*
%TD*%
D13*
%TO.C,R9*%
X127310000Y-74000000D03*
D12*
X119690000Y-74000000D03*
%TD*%
D14*
%TO.C,D3*%
X108225000Y-71500000D03*
D15*
X110765000Y-71500000D03*
%TD*%
D13*
%TO.C,C5*%
X133225000Y-79550000D03*
X138225000Y-79550000D03*
%TD*%
%TO.C,R3*%
X133180000Y-67680000D03*
D12*
X133180000Y-75300000D03*
%TD*%
D13*
%TO.C,R1*%
X133000000Y-62810000D03*
D12*
X133000000Y-55190000D03*
%TD*%
D11*
%TO.C,U2*%
X131880000Y-83880000D03*
D12*
X131880000Y-86420000D03*
X131880000Y-88960000D03*
X131880000Y-91500000D03*
X139500000Y-91500000D03*
X139500000Y-88960000D03*
X139500000Y-86420000D03*
X139500000Y-83880000D03*
%TD*%
D10*
%TO.C,V_In1*%
X156000000Y-54500000D03*
%TD*%
%TO.C,GND*%
X102600000Y-74900000D03*
%TD*%
%TO.C,GND*%
X162500000Y-54500000D03*
%TD*%
%TO.C,V_Out*%
X121900000Y-97500000D03*
%TD*%
D13*
%TO.C,R5*%
X119840000Y-91375000D03*
D12*
X127460000Y-91375000D03*
%TD*%
D14*
%TO.C,D1*%
X108025000Y-54425000D03*
D15*
X110565000Y-54425000D03*
%TD*%
D16*
%TO.C,SW1*%
X155775000Y-87675000D03*
X162275000Y-87675000D03*
X155775000Y-92175000D03*
X162275000Y-92175000D03*
%TD*%
D13*
%TO.C,C1*%
X121500000Y-69500000D03*
X126500000Y-69500000D03*
%TD*%
D10*
%TO.C,A1_Out*%
X102750000Y-82475000D03*
%TD*%
D13*
%TO.C,R7*%
X150435000Y-85875000D03*
D12*
X142815000Y-85875000D03*
%TD*%
D13*
%TO.C,R11*%
X163085000Y-67425000D03*
D12*
X155465000Y-67425000D03*
%TD*%
D13*
%TO.C,R4*%
X138180000Y-67870000D03*
D12*
X138180000Y-75490000D03*
%TD*%
D13*
%TO.C,R6*%
X150485000Y-90975000D03*
D12*
X142865000Y-90975000D03*
%TD*%
D13*
%TO.C,R2*%
X138000000Y-62810000D03*
D12*
X138000000Y-55190000D03*
%TD*%
D10*
%TO.C,GND*%
X102900000Y-59100000D03*
%TD*%
D11*
%TO.C,C3*%
X146500000Y-58000000D03*
D13*
X149000000Y-58000000D03*
%TD*%
D14*
%TO.C,D4*%
X157725000Y-61500000D03*
D15*
X160265000Y-61500000D03*
%TD*%
D13*
%TO.C,R12*%
X155365000Y-82850000D03*
D12*
X162985000Y-82850000D03*
%TD*%
D13*
%TO.C,R8*%
X116500000Y-54500000D03*
D12*
X116500000Y-62120000D03*
%TD*%
D13*
%TO.C,C6*%
X148875000Y-79600000D03*
X143875000Y-79600000D03*
%TD*%
D11*
%TO.C,C4*%
X122300000Y-83200000D03*
D13*
X124800000Y-83200000D03*
%TD*%
D10*
%TO.C,J5*%
X157600000Y-76525000D03*
D17*
X157600000Y-73985000D03*
X157600000Y-71445000D03*
%TD*%
D10*
%TO.C,J1*%
X127940000Y-97460000D03*
D17*
X130480000Y-97460000D03*
X133020000Y-97460000D03*
X135560000Y-97460000D03*
X138100000Y-97460000D03*
X140640000Y-97460000D03*
X143180000Y-97460000D03*
X145720000Y-97460000D03*
%TD*%
D10*
%TO.C,J3*%
X150800000Y-97460000D03*
D17*
X153340000Y-97460000D03*
X155880000Y-97460000D03*
X158420000Y-97460000D03*
X160960000Y-97460000D03*
X163500000Y-97460000D03*
%TD*%
D10*
%TO.C,J2*%
X118796000Y-49200000D03*
D17*
X121336000Y-49200000D03*
X123876000Y-49200000D03*
X126416000Y-49200000D03*
X128956000Y-49200000D03*
X131496000Y-49200000D03*
X134036000Y-49200000D03*
X136576000Y-49200000D03*
X139116000Y-49200000D03*
X141656000Y-49200000D03*
%TD*%
D10*
%TO.C,J4*%
X145720000Y-49200000D03*
D17*
X148260000Y-49200000D03*
X150800000Y-49200000D03*
X153340000Y-49200000D03*
X155880000Y-49200000D03*
X158420000Y-49200000D03*
X160960000Y-49200000D03*
X163500000Y-49200000D03*
%TD*%
M02*
