%TF.GenerationSoftware,KiCad,Pcbnew,8.0.1*%
%TF.CreationDate,2024-05-23T07:44:25+02:00*%
%TF.ProjectId,80_KiCad,38305f4b-6943-4616-942e-6b696361645f,v1.1*%
%TF.SameCoordinates,Original*%
%TF.FileFunction,Soldermask,Top*%
%TF.FilePolarity,Negative*%
%FSLAX46Y46*%
G04 Gerber Fmt 4.6, Leading zero omitted, Abs format (unit mm)*
G04 Created by KiCad (PCBNEW 8.0.1) date 2024-05-23 07:44:25*
%MOMM*%
%LPD*%
G01*
G04 APERTURE LIST*
%ADD10C,1.800000*%
%ADD11R,1.800000X1.800000*%
%ADD12C,2.000000*%
%ADD13R,1.600000X1.600000*%
%ADD14O,1.600000X1.600000*%
%ADD15C,1.600000*%
%ADD16R,1.700000X1.700000*%
%ADD17O,1.700000X1.700000*%
G04 APERTURE END LIST*
D10*
%TO.C,D2*%
X137515000Y-55600000D03*
D11*
X134975000Y-55600000D03*
%TD*%
D12*
%TO.C,SW1*%
X162175000Y-58850000D03*
X155675000Y-58850000D03*
X162175000Y-54350000D03*
X155675000Y-54350000D03*
%TD*%
D13*
%TO.C,U1*%
X130225000Y-63400000D03*
D14*
X130225000Y-65940000D03*
X130225000Y-68480000D03*
X130225000Y-71020000D03*
X137845000Y-71020000D03*
X137845000Y-68480000D03*
X137845000Y-65940000D03*
X137845000Y-63400000D03*
%TD*%
D13*
%TO.C,C2*%
X124175000Y-77725000D03*
D15*
X126175000Y-77725000D03*
%TD*%
D16*
%TO.C,VCC*%
X102825000Y-52400000D03*
%TD*%
%TO.C,GND*%
X109875000Y-97125000D03*
%TD*%
D14*
%TO.C,R10*%
X119905000Y-66325000D03*
D15*
X109745000Y-66325000D03*
%TD*%
D14*
%TO.C,R9*%
X119905000Y-61300000D03*
D15*
X109745000Y-61300000D03*
%TD*%
D11*
%TO.C,D3*%
X145125000Y-55500000D03*
D10*
X147665000Y-55500000D03*
%TD*%
D16*
%TO.C,A_In_P*%
X102825000Y-88325000D03*
%TD*%
%TO.C,A1_In_N*%
X102725000Y-65350000D03*
%TD*%
D15*
%TO.C,C5*%
X131200000Y-77975000D03*
X136200000Y-77975000D03*
%TD*%
%TO.C,R3*%
X147175000Y-72555000D03*
D14*
X147175000Y-62395000D03*
%TD*%
%TO.C,R1*%
X119955000Y-71575000D03*
D15*
X109795000Y-71575000D03*
%TD*%
D13*
%TO.C,U2*%
X130050000Y-84125000D03*
D14*
X130050000Y-86665000D03*
X130050000Y-89205000D03*
X130050000Y-91745000D03*
X137670000Y-91745000D03*
X137670000Y-89205000D03*
X137670000Y-86665000D03*
X137670000Y-84125000D03*
%TD*%
D16*
%TO.C,V_In1*%
X156700000Y-92750000D03*
%TD*%
%TO.C,GND*%
X102600000Y-74900000D03*
%TD*%
%TO.C,GND2*%
X164475000Y-92800000D03*
%TD*%
%TO.C,V_Out*%
X122225000Y-97325000D03*
%TD*%
D15*
%TO.C,R5*%
X124675000Y-82520000D03*
D14*
X124675000Y-92680000D03*
%TD*%
D16*
%TO.C,A2_Out*%
X115750000Y-97200000D03*
%TD*%
D10*
%TO.C,D1*%
X128040000Y-55625000D03*
D11*
X125500000Y-55625000D03*
%TD*%
D15*
%TO.C,C1*%
X120075000Y-90525000D03*
X120075000Y-85525000D03*
%TD*%
D16*
%TO.C,A1_Out*%
X102750000Y-82475000D03*
%TD*%
D15*
%TO.C,R7*%
X152030000Y-85775000D03*
D14*
X141870000Y-85775000D03*
%TD*%
D15*
%TO.C,R11*%
X156495000Y-80200000D03*
D14*
X166655000Y-80200000D03*
%TD*%
D15*
%TO.C,R4*%
X143400000Y-62345000D03*
D14*
X143400000Y-72505000D03*
%TD*%
D15*
%TO.C,R6*%
X141845000Y-91875000D03*
D14*
X152005000Y-91875000D03*
%TD*%
D15*
%TO.C,R2*%
X126200000Y-70980000D03*
D14*
X126200000Y-60820000D03*
%TD*%
D16*
%TO.C,GND*%
X102900000Y-59100000D03*
%TD*%
D13*
%TO.C,C3*%
X151369888Y-70650000D03*
D15*
X153869888Y-70650000D03*
%TD*%
D11*
%TO.C,D4*%
X160750000Y-86050000D03*
D10*
X163290000Y-86050000D03*
%TD*%
D15*
%TO.C,R12*%
X154545000Y-63875000D03*
D14*
X164705000Y-63875000D03*
%TD*%
D16*
%TO.C,A2_In_N*%
X103200000Y-97025000D03*
%TD*%
D14*
%TO.C,R8*%
X109965000Y-55725000D03*
D15*
X120125000Y-55725000D03*
%TD*%
%TO.C,C6*%
X149175000Y-78400000D03*
X144175000Y-78400000D03*
%TD*%
%TO.C,C4*%
X118569888Y-77700000D03*
D13*
X116069888Y-77700000D03*
%TD*%
D17*
%TO.C,J5*%
X157625000Y-68770000D03*
X157625000Y-71310000D03*
D16*
X157625000Y-73850000D03*
%TD*%
%TO.C,J1*%
X127940000Y-97460000D03*
D17*
X130480000Y-97460000D03*
X133020000Y-97460000D03*
X135560000Y-97460000D03*
X138100000Y-97460000D03*
X140640000Y-97460000D03*
X143180000Y-97460000D03*
X145720000Y-97460000D03*
%TD*%
D16*
%TO.C,J3*%
X150800000Y-97460000D03*
D17*
X153340000Y-97460000D03*
X155880000Y-97460000D03*
X158420000Y-97460000D03*
X160960000Y-97460000D03*
X163500000Y-97460000D03*
%TD*%
D16*
%TO.C,J2*%
X118796000Y-49200000D03*
D17*
X121336000Y-49200000D03*
X123876000Y-49200000D03*
X126416000Y-49200000D03*
X128956000Y-49200000D03*
X131496000Y-49200000D03*
X134036000Y-49200000D03*
X136576000Y-49200000D03*
X139116000Y-49200000D03*
X141656000Y-49200000D03*
%TD*%
D16*
%TO.C,J4*%
X145720000Y-49200000D03*
D17*
X148260000Y-49200000D03*
X150800000Y-49200000D03*
X153340000Y-49200000D03*
X155880000Y-49200000D03*
X158420000Y-49200000D03*
X160960000Y-49200000D03*
X163500000Y-49200000D03*
%TD*%
M02*
