%TF.GenerationSoftware,KiCad,Pcbnew,8.0.1*%
%TF.CreationDate,2024-05-26T11:57:39+02:00*%
%TF.ProjectId,80_KiCad,38305f4b-6943-4616-942e-6b696361645f,v1.0*%
%TF.SameCoordinates,Original*%
%TF.FileFunction,Legend,Top*%
%TF.FilePolarity,Positive*%
%FSLAX46Y46*%
G04 Gerber Fmt 4.6, Leading zero omitted, Abs format (unit mm)*
G04 Created by KiCad (PCBNEW 8.0.1) date 2024-05-26 11:57:39*
%MOMM*%
%LPD*%
G01*
G04 APERTURE LIST*
%ADD10C,0.150000*%
%ADD11C,0.120000*%
G04 APERTURE END LIST*
D10*
X105939160Y-81680430D02*
X105939160Y-80880430D01*
X105939160Y-80880430D02*
X106205826Y-81451858D01*
X106205826Y-81451858D02*
X106472493Y-80880430D01*
X106472493Y-80880430D02*
X106472493Y-81680430D01*
X106967731Y-81680430D02*
X106891541Y-81642335D01*
X106891541Y-81642335D02*
X106853446Y-81604239D01*
X106853446Y-81604239D02*
X106815350Y-81528049D01*
X106815350Y-81528049D02*
X106815350Y-81299477D01*
X106815350Y-81299477D02*
X106853446Y-81223287D01*
X106853446Y-81223287D02*
X106891541Y-81185192D01*
X106891541Y-81185192D02*
X106967731Y-81147096D01*
X106967731Y-81147096D02*
X107082017Y-81147096D01*
X107082017Y-81147096D02*
X107158208Y-81185192D01*
X107158208Y-81185192D02*
X107196303Y-81223287D01*
X107196303Y-81223287D02*
X107234398Y-81299477D01*
X107234398Y-81299477D02*
X107234398Y-81528049D01*
X107234398Y-81528049D02*
X107196303Y-81604239D01*
X107196303Y-81604239D02*
X107158208Y-81642335D01*
X107158208Y-81642335D02*
X107082017Y-81680430D01*
X107082017Y-81680430D02*
X106967731Y-81680430D01*
X107501065Y-81147096D02*
X107691541Y-81680430D01*
X107691541Y-81680430D02*
X107882018Y-81147096D01*
X108491542Y-81642335D02*
X108415351Y-81680430D01*
X108415351Y-81680430D02*
X108262970Y-81680430D01*
X108262970Y-81680430D02*
X108186780Y-81642335D01*
X108186780Y-81642335D02*
X108148684Y-81566144D01*
X108148684Y-81566144D02*
X108148684Y-81261382D01*
X108148684Y-81261382D02*
X108186780Y-81185192D01*
X108186780Y-81185192D02*
X108262970Y-81147096D01*
X108262970Y-81147096D02*
X108415351Y-81147096D01*
X108415351Y-81147096D02*
X108491542Y-81185192D01*
X108491542Y-81185192D02*
X108529637Y-81261382D01*
X108529637Y-81261382D02*
X108529637Y-81337573D01*
X108529637Y-81337573D02*
X108148684Y-81413763D01*
X108872494Y-81680430D02*
X108872494Y-81147096D01*
X108872494Y-81223287D02*
X108910589Y-81185192D01*
X108910589Y-81185192D02*
X108986779Y-81147096D01*
X108986779Y-81147096D02*
X109101065Y-81147096D01*
X109101065Y-81147096D02*
X109177256Y-81185192D01*
X109177256Y-81185192D02*
X109215351Y-81261382D01*
X109215351Y-81261382D02*
X109215351Y-81680430D01*
X109215351Y-81261382D02*
X109253446Y-81185192D01*
X109253446Y-81185192D02*
X109329637Y-81147096D01*
X109329637Y-81147096D02*
X109443922Y-81147096D01*
X109443922Y-81147096D02*
X109520113Y-81185192D01*
X109520113Y-81185192D02*
X109558208Y-81261382D01*
X109558208Y-81261382D02*
X109558208Y-81680430D01*
X110243923Y-81642335D02*
X110167732Y-81680430D01*
X110167732Y-81680430D02*
X110015351Y-81680430D01*
X110015351Y-81680430D02*
X109939161Y-81642335D01*
X109939161Y-81642335D02*
X109901065Y-81566144D01*
X109901065Y-81566144D02*
X109901065Y-81261382D01*
X109901065Y-81261382D02*
X109939161Y-81185192D01*
X109939161Y-81185192D02*
X110015351Y-81147096D01*
X110015351Y-81147096D02*
X110167732Y-81147096D01*
X110167732Y-81147096D02*
X110243923Y-81185192D01*
X110243923Y-81185192D02*
X110282018Y-81261382D01*
X110282018Y-81261382D02*
X110282018Y-81337573D01*
X110282018Y-81337573D02*
X109901065Y-81413763D01*
X110624875Y-81147096D02*
X110624875Y-81680430D01*
X110624875Y-81223287D02*
X110662970Y-81185192D01*
X110662970Y-81185192D02*
X110739160Y-81147096D01*
X110739160Y-81147096D02*
X110853446Y-81147096D01*
X110853446Y-81147096D02*
X110929637Y-81185192D01*
X110929637Y-81185192D02*
X110967732Y-81261382D01*
X110967732Y-81261382D02*
X110967732Y-81680430D01*
X111234399Y-81147096D02*
X111539161Y-81147096D01*
X111348685Y-80880430D02*
X111348685Y-81566144D01*
X111348685Y-81566144D02*
X111386780Y-81642335D01*
X111386780Y-81642335D02*
X111462970Y-81680430D01*
X111462970Y-81680430D02*
X111539161Y-81680430D01*
X112415352Y-81680430D02*
X112415352Y-80880430D01*
X112415352Y-80880430D02*
X112605828Y-80880430D01*
X112605828Y-80880430D02*
X112720114Y-80918525D01*
X112720114Y-80918525D02*
X112796304Y-80994715D01*
X112796304Y-80994715D02*
X112834399Y-81070906D01*
X112834399Y-81070906D02*
X112872495Y-81223287D01*
X112872495Y-81223287D02*
X112872495Y-81337573D01*
X112872495Y-81337573D02*
X112834399Y-81489954D01*
X112834399Y-81489954D02*
X112796304Y-81566144D01*
X112796304Y-81566144D02*
X112720114Y-81642335D01*
X112720114Y-81642335D02*
X112605828Y-81680430D01*
X112605828Y-81680430D02*
X112415352Y-81680430D01*
X113520114Y-81642335D02*
X113443923Y-81680430D01*
X113443923Y-81680430D02*
X113291542Y-81680430D01*
X113291542Y-81680430D02*
X113215352Y-81642335D01*
X113215352Y-81642335D02*
X113177256Y-81566144D01*
X113177256Y-81566144D02*
X113177256Y-81261382D01*
X113177256Y-81261382D02*
X113215352Y-81185192D01*
X113215352Y-81185192D02*
X113291542Y-81147096D01*
X113291542Y-81147096D02*
X113443923Y-81147096D01*
X113443923Y-81147096D02*
X113520114Y-81185192D01*
X113520114Y-81185192D02*
X113558209Y-81261382D01*
X113558209Y-81261382D02*
X113558209Y-81337573D01*
X113558209Y-81337573D02*
X113177256Y-81413763D01*
X113786780Y-81147096D02*
X114091542Y-81147096D01*
X113901066Y-80880430D02*
X113901066Y-81566144D01*
X113901066Y-81566144D02*
X113939161Y-81642335D01*
X113939161Y-81642335D02*
X114015351Y-81680430D01*
X114015351Y-81680430D02*
X114091542Y-81680430D01*
X114662971Y-81642335D02*
X114586780Y-81680430D01*
X114586780Y-81680430D02*
X114434399Y-81680430D01*
X114434399Y-81680430D02*
X114358209Y-81642335D01*
X114358209Y-81642335D02*
X114320113Y-81566144D01*
X114320113Y-81566144D02*
X114320113Y-81261382D01*
X114320113Y-81261382D02*
X114358209Y-81185192D01*
X114358209Y-81185192D02*
X114434399Y-81147096D01*
X114434399Y-81147096D02*
X114586780Y-81147096D01*
X114586780Y-81147096D02*
X114662971Y-81185192D01*
X114662971Y-81185192D02*
X114701066Y-81261382D01*
X114701066Y-81261382D02*
X114701066Y-81337573D01*
X114701066Y-81337573D02*
X114320113Y-81413763D01*
X115386780Y-81642335D02*
X115310589Y-81680430D01*
X115310589Y-81680430D02*
X115158208Y-81680430D01*
X115158208Y-81680430D02*
X115082018Y-81642335D01*
X115082018Y-81642335D02*
X115043923Y-81604239D01*
X115043923Y-81604239D02*
X115005827Y-81528049D01*
X115005827Y-81528049D02*
X115005827Y-81299477D01*
X115005827Y-81299477D02*
X115043923Y-81223287D01*
X115043923Y-81223287D02*
X115082018Y-81185192D01*
X115082018Y-81185192D02*
X115158208Y-81147096D01*
X115158208Y-81147096D02*
X115310589Y-81147096D01*
X115310589Y-81147096D02*
X115386780Y-81185192D01*
X115615351Y-81147096D02*
X115920113Y-81147096D01*
X115729637Y-80880430D02*
X115729637Y-81566144D01*
X115729637Y-81566144D02*
X115767732Y-81642335D01*
X115767732Y-81642335D02*
X115843922Y-81680430D01*
X115843922Y-81680430D02*
X115920113Y-81680430D01*
X116301065Y-81680430D02*
X116224875Y-81642335D01*
X116224875Y-81642335D02*
X116186780Y-81604239D01*
X116186780Y-81604239D02*
X116148684Y-81528049D01*
X116148684Y-81528049D02*
X116148684Y-81299477D01*
X116148684Y-81299477D02*
X116186780Y-81223287D01*
X116186780Y-81223287D02*
X116224875Y-81185192D01*
X116224875Y-81185192D02*
X116301065Y-81147096D01*
X116301065Y-81147096D02*
X116415351Y-81147096D01*
X116415351Y-81147096D02*
X116491542Y-81185192D01*
X116491542Y-81185192D02*
X116529637Y-81223287D01*
X116529637Y-81223287D02*
X116567732Y-81299477D01*
X116567732Y-81299477D02*
X116567732Y-81528049D01*
X116567732Y-81528049D02*
X116529637Y-81604239D01*
X116529637Y-81604239D02*
X116491542Y-81642335D01*
X116491542Y-81642335D02*
X116415351Y-81680430D01*
X116415351Y-81680430D02*
X116301065Y-81680430D01*
X116910590Y-81680430D02*
X116910590Y-81147096D01*
X116910590Y-81299477D02*
X116948685Y-81223287D01*
X116948685Y-81223287D02*
X116986780Y-81185192D01*
X116986780Y-81185192D02*
X117062971Y-81147096D01*
X117062971Y-81147096D02*
X117139161Y-81147096D01*
X106358207Y-82206480D02*
X106282017Y-82168385D01*
X106282017Y-82168385D02*
X106167731Y-82168385D01*
X106167731Y-82168385D02*
X106053445Y-82206480D01*
X106053445Y-82206480D02*
X105977255Y-82282670D01*
X105977255Y-82282670D02*
X105939160Y-82358861D01*
X105939160Y-82358861D02*
X105901064Y-82511242D01*
X105901064Y-82511242D02*
X105901064Y-82625528D01*
X105901064Y-82625528D02*
X105939160Y-82777909D01*
X105939160Y-82777909D02*
X105977255Y-82854099D01*
X105977255Y-82854099D02*
X106053445Y-82930290D01*
X106053445Y-82930290D02*
X106167731Y-82968385D01*
X106167731Y-82968385D02*
X106243922Y-82968385D01*
X106243922Y-82968385D02*
X106358207Y-82930290D01*
X106358207Y-82930290D02*
X106396303Y-82892194D01*
X106396303Y-82892194D02*
X106396303Y-82625528D01*
X106396303Y-82625528D02*
X106243922Y-82625528D01*
X106739160Y-82968385D02*
X106739160Y-82435051D01*
X106739160Y-82587432D02*
X106777255Y-82511242D01*
X106777255Y-82511242D02*
X106815350Y-82473147D01*
X106815350Y-82473147D02*
X106891541Y-82435051D01*
X106891541Y-82435051D02*
X106967731Y-82435051D01*
X107348683Y-82968385D02*
X107272493Y-82930290D01*
X107272493Y-82930290D02*
X107234398Y-82892194D01*
X107234398Y-82892194D02*
X107196302Y-82816004D01*
X107196302Y-82816004D02*
X107196302Y-82587432D01*
X107196302Y-82587432D02*
X107234398Y-82511242D01*
X107234398Y-82511242D02*
X107272493Y-82473147D01*
X107272493Y-82473147D02*
X107348683Y-82435051D01*
X107348683Y-82435051D02*
X107462969Y-82435051D01*
X107462969Y-82435051D02*
X107539160Y-82473147D01*
X107539160Y-82473147D02*
X107577255Y-82511242D01*
X107577255Y-82511242D02*
X107615350Y-82587432D01*
X107615350Y-82587432D02*
X107615350Y-82816004D01*
X107615350Y-82816004D02*
X107577255Y-82892194D01*
X107577255Y-82892194D02*
X107539160Y-82930290D01*
X107539160Y-82930290D02*
X107462969Y-82968385D01*
X107462969Y-82968385D02*
X107348683Y-82968385D01*
X108301065Y-82435051D02*
X108301065Y-82968385D01*
X107958208Y-82435051D02*
X107958208Y-82854099D01*
X107958208Y-82854099D02*
X107996303Y-82930290D01*
X107996303Y-82930290D02*
X108072493Y-82968385D01*
X108072493Y-82968385D02*
X108186779Y-82968385D01*
X108186779Y-82968385D02*
X108262970Y-82930290D01*
X108262970Y-82930290D02*
X108301065Y-82892194D01*
X108682018Y-82435051D02*
X108682018Y-83235051D01*
X108682018Y-82473147D02*
X108758208Y-82435051D01*
X108758208Y-82435051D02*
X108910589Y-82435051D01*
X108910589Y-82435051D02*
X108986780Y-82473147D01*
X108986780Y-82473147D02*
X109024875Y-82511242D01*
X109024875Y-82511242D02*
X109062970Y-82587432D01*
X109062970Y-82587432D02*
X109062970Y-82816004D01*
X109062970Y-82816004D02*
X109024875Y-82892194D01*
X109024875Y-82892194D02*
X108986780Y-82930290D01*
X108986780Y-82930290D02*
X108910589Y-82968385D01*
X108910589Y-82968385D02*
X108758208Y-82968385D01*
X108758208Y-82968385D02*
X108682018Y-82930290D01*
X110015352Y-82968385D02*
X110015352Y-82168385D01*
X110015352Y-82168385D02*
X110205828Y-82168385D01*
X110205828Y-82168385D02*
X110320114Y-82206480D01*
X110320114Y-82206480D02*
X110396304Y-82282670D01*
X110396304Y-82282670D02*
X110434399Y-82358861D01*
X110434399Y-82358861D02*
X110472495Y-82511242D01*
X110472495Y-82511242D02*
X110472495Y-82625528D01*
X110472495Y-82625528D02*
X110434399Y-82777909D01*
X110434399Y-82777909D02*
X110396304Y-82854099D01*
X110396304Y-82854099D02*
X110320114Y-82930290D01*
X110320114Y-82930290D02*
X110205828Y-82968385D01*
X110205828Y-82968385D02*
X110015352Y-82968385D01*
X110739161Y-82168385D02*
X111234399Y-82168385D01*
X111234399Y-82168385D02*
X110967733Y-82473147D01*
X110967733Y-82473147D02*
X111082018Y-82473147D01*
X111082018Y-82473147D02*
X111158209Y-82511242D01*
X111158209Y-82511242D02*
X111196304Y-82549337D01*
X111196304Y-82549337D02*
X111234399Y-82625528D01*
X111234399Y-82625528D02*
X111234399Y-82816004D01*
X111234399Y-82816004D02*
X111196304Y-82892194D01*
X111196304Y-82892194D02*
X111158209Y-82930290D01*
X111158209Y-82930290D02*
X111082018Y-82968385D01*
X111082018Y-82968385D02*
X110853447Y-82968385D01*
X110853447Y-82968385D02*
X110777256Y-82930290D01*
X110777256Y-82930290D02*
X110739161Y-82892194D01*
X106396303Y-84256340D02*
X106129636Y-83875387D01*
X105939160Y-84256340D02*
X105939160Y-83456340D01*
X105939160Y-83456340D02*
X106243922Y-83456340D01*
X106243922Y-83456340D02*
X106320112Y-83494435D01*
X106320112Y-83494435D02*
X106358207Y-83532530D01*
X106358207Y-83532530D02*
X106396303Y-83608721D01*
X106396303Y-83608721D02*
X106396303Y-83723006D01*
X106396303Y-83723006D02*
X106358207Y-83799197D01*
X106358207Y-83799197D02*
X106320112Y-83837292D01*
X106320112Y-83837292D02*
X106243922Y-83875387D01*
X106243922Y-83875387D02*
X105939160Y-83875387D01*
X107082017Y-84256340D02*
X107082017Y-83837292D01*
X107082017Y-83837292D02*
X107043922Y-83761102D01*
X107043922Y-83761102D02*
X106967731Y-83723006D01*
X106967731Y-83723006D02*
X106815350Y-83723006D01*
X106815350Y-83723006D02*
X106739160Y-83761102D01*
X107082017Y-84218245D02*
X107005826Y-84256340D01*
X107005826Y-84256340D02*
X106815350Y-84256340D01*
X106815350Y-84256340D02*
X106739160Y-84218245D01*
X106739160Y-84218245D02*
X106701064Y-84142054D01*
X106701064Y-84142054D02*
X106701064Y-84065864D01*
X106701064Y-84065864D02*
X106739160Y-83989673D01*
X106739160Y-83989673D02*
X106815350Y-83951578D01*
X106815350Y-83951578D02*
X107005826Y-83951578D01*
X107005826Y-83951578D02*
X107082017Y-83913483D01*
X107462970Y-84256340D02*
X107462970Y-83456340D01*
X107539160Y-83951578D02*
X107767732Y-84256340D01*
X107767732Y-83723006D02*
X107462970Y-84027768D01*
X108072493Y-84218245D02*
X108148684Y-84256340D01*
X108148684Y-84256340D02*
X108301065Y-84256340D01*
X108301065Y-84256340D02*
X108377255Y-84218245D01*
X108377255Y-84218245D02*
X108415351Y-84142054D01*
X108415351Y-84142054D02*
X108415351Y-84103959D01*
X108415351Y-84103959D02*
X108377255Y-84027768D01*
X108377255Y-84027768D02*
X108301065Y-83989673D01*
X108301065Y-83989673D02*
X108186779Y-83989673D01*
X108186779Y-83989673D02*
X108110589Y-83951578D01*
X108110589Y-83951578D02*
X108072493Y-83875387D01*
X108072493Y-83875387D02*
X108072493Y-83837292D01*
X108072493Y-83837292D02*
X108110589Y-83761102D01*
X108110589Y-83761102D02*
X108186779Y-83723006D01*
X108186779Y-83723006D02*
X108301065Y-83723006D01*
X108301065Y-83723006D02*
X108377255Y-83761102D01*
X108758208Y-84256340D02*
X108758208Y-83456340D01*
X109101065Y-84256340D02*
X109101065Y-83837292D01*
X109101065Y-83837292D02*
X109062970Y-83761102D01*
X109062970Y-83761102D02*
X108986779Y-83723006D01*
X108986779Y-83723006D02*
X108872493Y-83723006D01*
X108872493Y-83723006D02*
X108796303Y-83761102D01*
X108796303Y-83761102D02*
X108758208Y-83799197D01*
X109482018Y-84256340D02*
X109482018Y-83723006D01*
X109482018Y-83456340D02*
X109443922Y-83494435D01*
X109443922Y-83494435D02*
X109482018Y-83532530D01*
X109482018Y-83532530D02*
X109520113Y-83494435D01*
X109520113Y-83494435D02*
X109482018Y-83456340D01*
X109482018Y-83456340D02*
X109482018Y-83532530D01*
X109748684Y-83723006D02*
X110053446Y-83723006D01*
X109862970Y-83456340D02*
X109862970Y-84142054D01*
X109862970Y-84142054D02*
X109901065Y-84218245D01*
X109901065Y-84218245D02*
X109977255Y-84256340D01*
X109977255Y-84256340D02*
X110053446Y-84256340D01*
X110662970Y-84256340D02*
X110662970Y-83837292D01*
X110662970Y-83837292D02*
X110624875Y-83761102D01*
X110624875Y-83761102D02*
X110548684Y-83723006D01*
X110548684Y-83723006D02*
X110396303Y-83723006D01*
X110396303Y-83723006D02*
X110320113Y-83761102D01*
X110662970Y-84218245D02*
X110586779Y-84256340D01*
X110586779Y-84256340D02*
X110396303Y-84256340D01*
X110396303Y-84256340D02*
X110320113Y-84218245D01*
X110320113Y-84218245D02*
X110282017Y-84142054D01*
X110282017Y-84142054D02*
X110282017Y-84065864D01*
X110282017Y-84065864D02*
X110320113Y-83989673D01*
X110320113Y-83989673D02*
X110396303Y-83951578D01*
X110396303Y-83951578D02*
X110586779Y-83951578D01*
X110586779Y-83951578D02*
X110662970Y-83913483D01*
X111882018Y-84561102D02*
X111843923Y-84523006D01*
X111843923Y-84523006D02*
X111767732Y-84408721D01*
X111767732Y-84408721D02*
X111729637Y-84332530D01*
X111729637Y-84332530D02*
X111691542Y-84218245D01*
X111691542Y-84218245D02*
X111653447Y-84027768D01*
X111653447Y-84027768D02*
X111653447Y-83875387D01*
X111653447Y-83875387D02*
X111691542Y-83684911D01*
X111691542Y-83684911D02*
X111729637Y-83570625D01*
X111729637Y-83570625D02*
X111767732Y-83494435D01*
X111767732Y-83494435D02*
X111843923Y-83380149D01*
X111843923Y-83380149D02*
X111882018Y-83342054D01*
X112605827Y-84256340D02*
X112148684Y-84256340D01*
X112377256Y-84256340D02*
X112377256Y-83456340D01*
X112377256Y-83456340D02*
X112301065Y-83570625D01*
X112301065Y-83570625D02*
X112224875Y-83646816D01*
X112224875Y-83646816D02*
X112148684Y-83684911D01*
X113367732Y-84256340D02*
X112910589Y-84256340D01*
X113139161Y-84256340D02*
X113139161Y-83456340D01*
X113139161Y-83456340D02*
X113062970Y-83570625D01*
X113062970Y-83570625D02*
X112986780Y-83646816D01*
X112986780Y-83646816D02*
X112910589Y-83684911D01*
X113672494Y-83532530D02*
X113710590Y-83494435D01*
X113710590Y-83494435D02*
X113786780Y-83456340D01*
X113786780Y-83456340D02*
X113977256Y-83456340D01*
X113977256Y-83456340D02*
X114053447Y-83494435D01*
X114053447Y-83494435D02*
X114091542Y-83532530D01*
X114091542Y-83532530D02*
X114129637Y-83608721D01*
X114129637Y-83608721D02*
X114129637Y-83684911D01*
X114129637Y-83684911D02*
X114091542Y-83799197D01*
X114091542Y-83799197D02*
X113634399Y-84256340D01*
X113634399Y-84256340D02*
X114129637Y-84256340D01*
X114396304Y-83456340D02*
X114929638Y-83456340D01*
X114929638Y-83456340D02*
X114586780Y-84256340D01*
X115272495Y-84256340D02*
X115424876Y-84256340D01*
X115424876Y-84256340D02*
X115501066Y-84218245D01*
X115501066Y-84218245D02*
X115539162Y-84180149D01*
X115539162Y-84180149D02*
X115615352Y-84065864D01*
X115615352Y-84065864D02*
X115653447Y-83913483D01*
X115653447Y-83913483D02*
X115653447Y-83608721D01*
X115653447Y-83608721D02*
X115615352Y-83532530D01*
X115615352Y-83532530D02*
X115577257Y-83494435D01*
X115577257Y-83494435D02*
X115501066Y-83456340D01*
X115501066Y-83456340D02*
X115348685Y-83456340D01*
X115348685Y-83456340D02*
X115272495Y-83494435D01*
X115272495Y-83494435D02*
X115234400Y-83532530D01*
X115234400Y-83532530D02*
X115196304Y-83608721D01*
X115196304Y-83608721D02*
X115196304Y-83799197D01*
X115196304Y-83799197D02*
X115234400Y-83875387D01*
X115234400Y-83875387D02*
X115272495Y-83913483D01*
X115272495Y-83913483D02*
X115348685Y-83951578D01*
X115348685Y-83951578D02*
X115501066Y-83951578D01*
X115501066Y-83951578D02*
X115577257Y-83913483D01*
X115577257Y-83913483D02*
X115615352Y-83875387D01*
X115615352Y-83875387D02*
X115653447Y-83799197D01*
X116034400Y-84256340D02*
X116186781Y-84256340D01*
X116186781Y-84256340D02*
X116262971Y-84218245D01*
X116262971Y-84218245D02*
X116301067Y-84180149D01*
X116301067Y-84180149D02*
X116377257Y-84065864D01*
X116377257Y-84065864D02*
X116415352Y-83913483D01*
X116415352Y-83913483D02*
X116415352Y-83608721D01*
X116415352Y-83608721D02*
X116377257Y-83532530D01*
X116377257Y-83532530D02*
X116339162Y-83494435D01*
X116339162Y-83494435D02*
X116262971Y-83456340D01*
X116262971Y-83456340D02*
X116110590Y-83456340D01*
X116110590Y-83456340D02*
X116034400Y-83494435D01*
X116034400Y-83494435D02*
X115996305Y-83532530D01*
X115996305Y-83532530D02*
X115958209Y-83608721D01*
X115958209Y-83608721D02*
X115958209Y-83799197D01*
X115958209Y-83799197D02*
X115996305Y-83875387D01*
X115996305Y-83875387D02*
X116034400Y-83913483D01*
X116034400Y-83913483D02*
X116110590Y-83951578D01*
X116110590Y-83951578D02*
X116262971Y-83951578D01*
X116262971Y-83951578D02*
X116339162Y-83913483D01*
X116339162Y-83913483D02*
X116377257Y-83875387D01*
X116377257Y-83875387D02*
X116415352Y-83799197D01*
X116910591Y-83456340D02*
X116986781Y-83456340D01*
X116986781Y-83456340D02*
X117062972Y-83494435D01*
X117062972Y-83494435D02*
X117101067Y-83532530D01*
X117101067Y-83532530D02*
X117139162Y-83608721D01*
X117139162Y-83608721D02*
X117177257Y-83761102D01*
X117177257Y-83761102D02*
X117177257Y-83951578D01*
X117177257Y-83951578D02*
X117139162Y-84103959D01*
X117139162Y-84103959D02*
X117101067Y-84180149D01*
X117101067Y-84180149D02*
X117062972Y-84218245D01*
X117062972Y-84218245D02*
X116986781Y-84256340D01*
X116986781Y-84256340D02*
X116910591Y-84256340D01*
X116910591Y-84256340D02*
X116834400Y-84218245D01*
X116834400Y-84218245D02*
X116796305Y-84180149D01*
X116796305Y-84180149D02*
X116758210Y-84103959D01*
X116758210Y-84103959D02*
X116720114Y-83951578D01*
X116720114Y-83951578D02*
X116720114Y-83761102D01*
X116720114Y-83761102D02*
X116758210Y-83608721D01*
X116758210Y-83608721D02*
X116796305Y-83532530D01*
X116796305Y-83532530D02*
X116834400Y-83494435D01*
X116834400Y-83494435D02*
X116910591Y-83456340D01*
X117443924Y-84561102D02*
X117482019Y-84523006D01*
X117482019Y-84523006D02*
X117558210Y-84408721D01*
X117558210Y-84408721D02*
X117596305Y-84332530D01*
X117596305Y-84332530D02*
X117634400Y-84218245D01*
X117634400Y-84218245D02*
X117672496Y-84027768D01*
X117672496Y-84027768D02*
X117672496Y-83875387D01*
X117672496Y-83875387D02*
X117634400Y-83684911D01*
X117634400Y-83684911D02*
X117596305Y-83570625D01*
X117596305Y-83570625D02*
X117558210Y-83494435D01*
X117558210Y-83494435D02*
X117482019Y-83380149D01*
X117482019Y-83380149D02*
X117443924Y-83342054D01*
X105862969Y-84744295D02*
X106396303Y-84744295D01*
X106396303Y-84744295D02*
X105862969Y-85544295D01*
X105862969Y-85544295D02*
X106396303Y-85544295D01*
X107043922Y-85544295D02*
X107043922Y-85125247D01*
X107043922Y-85125247D02*
X107005827Y-85049057D01*
X107005827Y-85049057D02*
X106929636Y-85010961D01*
X106929636Y-85010961D02*
X106777255Y-85010961D01*
X106777255Y-85010961D02*
X106701065Y-85049057D01*
X107043922Y-85506200D02*
X106967731Y-85544295D01*
X106967731Y-85544295D02*
X106777255Y-85544295D01*
X106777255Y-85544295D02*
X106701065Y-85506200D01*
X106701065Y-85506200D02*
X106662969Y-85430009D01*
X106662969Y-85430009D02*
X106662969Y-85353819D01*
X106662969Y-85353819D02*
X106701065Y-85277628D01*
X106701065Y-85277628D02*
X106777255Y-85239533D01*
X106777255Y-85239533D02*
X106967731Y-85239533D01*
X106967731Y-85239533D02*
X107043922Y-85201438D01*
X107424875Y-85544295D02*
X107424875Y-84744295D01*
X107501065Y-85239533D02*
X107729637Y-85544295D01*
X107729637Y-85010961D02*
X107424875Y-85315723D01*
X108072494Y-85544295D02*
X108072494Y-85010961D01*
X108072494Y-84744295D02*
X108034398Y-84782390D01*
X108034398Y-84782390D02*
X108072494Y-84820485D01*
X108072494Y-84820485D02*
X108110589Y-84782390D01*
X108110589Y-84782390D02*
X108072494Y-84744295D01*
X108072494Y-84744295D02*
X108072494Y-84820485D01*
X109291541Y-85849057D02*
X109253446Y-85810961D01*
X109253446Y-85810961D02*
X109177255Y-85696676D01*
X109177255Y-85696676D02*
X109139160Y-85620485D01*
X109139160Y-85620485D02*
X109101065Y-85506200D01*
X109101065Y-85506200D02*
X109062970Y-85315723D01*
X109062970Y-85315723D02*
X109062970Y-85163342D01*
X109062970Y-85163342D02*
X109101065Y-84972866D01*
X109101065Y-84972866D02*
X109139160Y-84858580D01*
X109139160Y-84858580D02*
X109177255Y-84782390D01*
X109177255Y-84782390D02*
X109253446Y-84668104D01*
X109253446Y-84668104D02*
X109291541Y-84630009D01*
X110015350Y-85544295D02*
X109558207Y-85544295D01*
X109786779Y-85544295D02*
X109786779Y-84744295D01*
X109786779Y-84744295D02*
X109710588Y-84858580D01*
X109710588Y-84858580D02*
X109634398Y-84934771D01*
X109634398Y-84934771D02*
X109558207Y-84972866D01*
X110777255Y-85544295D02*
X110320112Y-85544295D01*
X110548684Y-85544295D02*
X110548684Y-84744295D01*
X110548684Y-84744295D02*
X110472493Y-84858580D01*
X110472493Y-84858580D02*
X110396303Y-84934771D01*
X110396303Y-84934771D02*
X110320112Y-84972866D01*
X111082017Y-84820485D02*
X111120113Y-84782390D01*
X111120113Y-84782390D02*
X111196303Y-84744295D01*
X111196303Y-84744295D02*
X111386779Y-84744295D01*
X111386779Y-84744295D02*
X111462970Y-84782390D01*
X111462970Y-84782390D02*
X111501065Y-84820485D01*
X111501065Y-84820485D02*
X111539160Y-84896676D01*
X111539160Y-84896676D02*
X111539160Y-84972866D01*
X111539160Y-84972866D02*
X111501065Y-85087152D01*
X111501065Y-85087152D02*
X111043922Y-85544295D01*
X111043922Y-85544295D02*
X111539160Y-85544295D01*
X111805827Y-84744295D02*
X112339161Y-84744295D01*
X112339161Y-84744295D02*
X111996303Y-85544295D01*
X112682018Y-85544295D02*
X112834399Y-85544295D01*
X112834399Y-85544295D02*
X112910589Y-85506200D01*
X112910589Y-85506200D02*
X112948685Y-85468104D01*
X112948685Y-85468104D02*
X113024875Y-85353819D01*
X113024875Y-85353819D02*
X113062970Y-85201438D01*
X113062970Y-85201438D02*
X113062970Y-84896676D01*
X113062970Y-84896676D02*
X113024875Y-84820485D01*
X113024875Y-84820485D02*
X112986780Y-84782390D01*
X112986780Y-84782390D02*
X112910589Y-84744295D01*
X112910589Y-84744295D02*
X112758208Y-84744295D01*
X112758208Y-84744295D02*
X112682018Y-84782390D01*
X112682018Y-84782390D02*
X112643923Y-84820485D01*
X112643923Y-84820485D02*
X112605827Y-84896676D01*
X112605827Y-84896676D02*
X112605827Y-85087152D01*
X112605827Y-85087152D02*
X112643923Y-85163342D01*
X112643923Y-85163342D02*
X112682018Y-85201438D01*
X112682018Y-85201438D02*
X112758208Y-85239533D01*
X112758208Y-85239533D02*
X112910589Y-85239533D01*
X112910589Y-85239533D02*
X112986780Y-85201438D01*
X112986780Y-85201438D02*
X113024875Y-85163342D01*
X113024875Y-85163342D02*
X113062970Y-85087152D01*
X113443923Y-85544295D02*
X113596304Y-85544295D01*
X113596304Y-85544295D02*
X113672494Y-85506200D01*
X113672494Y-85506200D02*
X113710590Y-85468104D01*
X113710590Y-85468104D02*
X113786780Y-85353819D01*
X113786780Y-85353819D02*
X113824875Y-85201438D01*
X113824875Y-85201438D02*
X113824875Y-84896676D01*
X113824875Y-84896676D02*
X113786780Y-84820485D01*
X113786780Y-84820485D02*
X113748685Y-84782390D01*
X113748685Y-84782390D02*
X113672494Y-84744295D01*
X113672494Y-84744295D02*
X113520113Y-84744295D01*
X113520113Y-84744295D02*
X113443923Y-84782390D01*
X113443923Y-84782390D02*
X113405828Y-84820485D01*
X113405828Y-84820485D02*
X113367732Y-84896676D01*
X113367732Y-84896676D02*
X113367732Y-85087152D01*
X113367732Y-85087152D02*
X113405828Y-85163342D01*
X113405828Y-85163342D02*
X113443923Y-85201438D01*
X113443923Y-85201438D02*
X113520113Y-85239533D01*
X113520113Y-85239533D02*
X113672494Y-85239533D01*
X113672494Y-85239533D02*
X113748685Y-85201438D01*
X113748685Y-85201438D02*
X113786780Y-85163342D01*
X113786780Y-85163342D02*
X113824875Y-85087152D01*
X114548685Y-84744295D02*
X114167733Y-84744295D01*
X114167733Y-84744295D02*
X114129637Y-85125247D01*
X114129637Y-85125247D02*
X114167733Y-85087152D01*
X114167733Y-85087152D02*
X114243923Y-85049057D01*
X114243923Y-85049057D02*
X114434399Y-85049057D01*
X114434399Y-85049057D02*
X114510590Y-85087152D01*
X114510590Y-85087152D02*
X114548685Y-85125247D01*
X114548685Y-85125247D02*
X114586780Y-85201438D01*
X114586780Y-85201438D02*
X114586780Y-85391914D01*
X114586780Y-85391914D02*
X114548685Y-85468104D01*
X114548685Y-85468104D02*
X114510590Y-85506200D01*
X114510590Y-85506200D02*
X114434399Y-85544295D01*
X114434399Y-85544295D02*
X114243923Y-85544295D01*
X114243923Y-85544295D02*
X114167733Y-85506200D01*
X114167733Y-85506200D02*
X114129637Y-85468104D01*
X114853447Y-85849057D02*
X114891542Y-85810961D01*
X114891542Y-85810961D02*
X114967733Y-85696676D01*
X114967733Y-85696676D02*
X115005828Y-85620485D01*
X115005828Y-85620485D02*
X115043923Y-85506200D01*
X115043923Y-85506200D02*
X115082019Y-85315723D01*
X115082019Y-85315723D02*
X115082019Y-85163342D01*
X115082019Y-85163342D02*
X115043923Y-84972866D01*
X115043923Y-84972866D02*
X115005828Y-84858580D01*
X115005828Y-84858580D02*
X114967733Y-84782390D01*
X114967733Y-84782390D02*
X114891542Y-84668104D01*
X114891542Y-84668104D02*
X114853447Y-84630009D01*
X133313095Y-60404819D02*
X133313095Y-61214342D01*
X133313095Y-61214342D02*
X133360714Y-61309580D01*
X133360714Y-61309580D02*
X133408333Y-61357200D01*
X133408333Y-61357200D02*
X133503571Y-61404819D01*
X133503571Y-61404819D02*
X133694047Y-61404819D01*
X133694047Y-61404819D02*
X133789285Y-61357200D01*
X133789285Y-61357200D02*
X133836904Y-61309580D01*
X133836904Y-61309580D02*
X133884523Y-61214342D01*
X133884523Y-61214342D02*
X133884523Y-60404819D01*
X134884523Y-61404819D02*
X134313095Y-61404819D01*
X134598809Y-61404819D02*
X134598809Y-60404819D01*
X134598809Y-60404819D02*
X134503571Y-60547676D01*
X134503571Y-60547676D02*
X134408333Y-60642914D01*
X134408333Y-60642914D02*
X134313095Y-60690533D01*
X125008333Y-74334580D02*
X124960714Y-74382200D01*
X124960714Y-74382200D02*
X124817857Y-74429819D01*
X124817857Y-74429819D02*
X124722619Y-74429819D01*
X124722619Y-74429819D02*
X124579762Y-74382200D01*
X124579762Y-74382200D02*
X124484524Y-74286961D01*
X124484524Y-74286961D02*
X124436905Y-74191723D01*
X124436905Y-74191723D02*
X124389286Y-74001247D01*
X124389286Y-74001247D02*
X124389286Y-73858390D01*
X124389286Y-73858390D02*
X124436905Y-73667914D01*
X124436905Y-73667914D02*
X124484524Y-73572676D01*
X124484524Y-73572676D02*
X124579762Y-73477438D01*
X124579762Y-73477438D02*
X124722619Y-73429819D01*
X124722619Y-73429819D02*
X124817857Y-73429819D01*
X124817857Y-73429819D02*
X124960714Y-73477438D01*
X124960714Y-73477438D02*
X125008333Y-73525057D01*
X125389286Y-73525057D02*
X125436905Y-73477438D01*
X125436905Y-73477438D02*
X125532143Y-73429819D01*
X125532143Y-73429819D02*
X125770238Y-73429819D01*
X125770238Y-73429819D02*
X125865476Y-73477438D01*
X125865476Y-73477438D02*
X125913095Y-73525057D01*
X125913095Y-73525057D02*
X125960714Y-73620295D01*
X125960714Y-73620295D02*
X125960714Y-73715533D01*
X125960714Y-73715533D02*
X125913095Y-73858390D01*
X125913095Y-73858390D02*
X125341667Y-74429819D01*
X125341667Y-74429819D02*
X125960714Y-74429819D01*
X101491667Y-48854819D02*
X101825000Y-49854819D01*
X101825000Y-49854819D02*
X102158333Y-48854819D01*
X103063095Y-49759580D02*
X103015476Y-49807200D01*
X103015476Y-49807200D02*
X102872619Y-49854819D01*
X102872619Y-49854819D02*
X102777381Y-49854819D01*
X102777381Y-49854819D02*
X102634524Y-49807200D01*
X102634524Y-49807200D02*
X102539286Y-49711961D01*
X102539286Y-49711961D02*
X102491667Y-49616723D01*
X102491667Y-49616723D02*
X102444048Y-49426247D01*
X102444048Y-49426247D02*
X102444048Y-49283390D01*
X102444048Y-49283390D02*
X102491667Y-49092914D01*
X102491667Y-49092914D02*
X102539286Y-48997676D01*
X102539286Y-48997676D02*
X102634524Y-48902438D01*
X102634524Y-48902438D02*
X102777381Y-48854819D01*
X102777381Y-48854819D02*
X102872619Y-48854819D01*
X102872619Y-48854819D02*
X103015476Y-48902438D01*
X103015476Y-48902438D02*
X103063095Y-48950057D01*
X104063095Y-49759580D02*
X104015476Y-49807200D01*
X104015476Y-49807200D02*
X103872619Y-49854819D01*
X103872619Y-49854819D02*
X103777381Y-49854819D01*
X103777381Y-49854819D02*
X103634524Y-49807200D01*
X103634524Y-49807200D02*
X103539286Y-49711961D01*
X103539286Y-49711961D02*
X103491667Y-49616723D01*
X103491667Y-49616723D02*
X103444048Y-49426247D01*
X103444048Y-49426247D02*
X103444048Y-49283390D01*
X103444048Y-49283390D02*
X103491667Y-49092914D01*
X103491667Y-49092914D02*
X103539286Y-48997676D01*
X103539286Y-48997676D02*
X103634524Y-48902438D01*
X103634524Y-48902438D02*
X103777381Y-48854819D01*
X103777381Y-48854819D02*
X103872619Y-48854819D01*
X103872619Y-48854819D02*
X104015476Y-48902438D01*
X104015476Y-48902438D02*
X104063095Y-48950057D01*
X109113095Y-93352438D02*
X109017857Y-93304819D01*
X109017857Y-93304819D02*
X108875000Y-93304819D01*
X108875000Y-93304819D02*
X108732143Y-93352438D01*
X108732143Y-93352438D02*
X108636905Y-93447676D01*
X108636905Y-93447676D02*
X108589286Y-93542914D01*
X108589286Y-93542914D02*
X108541667Y-93733390D01*
X108541667Y-93733390D02*
X108541667Y-93876247D01*
X108541667Y-93876247D02*
X108589286Y-94066723D01*
X108589286Y-94066723D02*
X108636905Y-94161961D01*
X108636905Y-94161961D02*
X108732143Y-94257200D01*
X108732143Y-94257200D02*
X108875000Y-94304819D01*
X108875000Y-94304819D02*
X108970238Y-94304819D01*
X108970238Y-94304819D02*
X109113095Y-94257200D01*
X109113095Y-94257200D02*
X109160714Y-94209580D01*
X109160714Y-94209580D02*
X109160714Y-93876247D01*
X109160714Y-93876247D02*
X108970238Y-93876247D01*
X109589286Y-94304819D02*
X109589286Y-93304819D01*
X109589286Y-93304819D02*
X110160714Y-94304819D01*
X110160714Y-94304819D02*
X110160714Y-93304819D01*
X110636905Y-94304819D02*
X110636905Y-93304819D01*
X110636905Y-93304819D02*
X110875000Y-93304819D01*
X110875000Y-93304819D02*
X111017857Y-93352438D01*
X111017857Y-93352438D02*
X111113095Y-93447676D01*
X111113095Y-93447676D02*
X111160714Y-93542914D01*
X111160714Y-93542914D02*
X111208333Y-93733390D01*
X111208333Y-93733390D02*
X111208333Y-93876247D01*
X111208333Y-93876247D02*
X111160714Y-94066723D01*
X111160714Y-94066723D02*
X111113095Y-94161961D01*
X111113095Y-94161961D02*
X111017857Y-94257200D01*
X111017857Y-94257200D02*
X110875000Y-94304819D01*
X110875000Y-94304819D02*
X110636905Y-94304819D01*
X114332142Y-64629819D02*
X113998809Y-64153628D01*
X113760714Y-64629819D02*
X113760714Y-63629819D01*
X113760714Y-63629819D02*
X114141666Y-63629819D01*
X114141666Y-63629819D02*
X114236904Y-63677438D01*
X114236904Y-63677438D02*
X114284523Y-63725057D01*
X114284523Y-63725057D02*
X114332142Y-63820295D01*
X114332142Y-63820295D02*
X114332142Y-63963152D01*
X114332142Y-63963152D02*
X114284523Y-64058390D01*
X114284523Y-64058390D02*
X114236904Y-64106009D01*
X114236904Y-64106009D02*
X114141666Y-64153628D01*
X114141666Y-64153628D02*
X113760714Y-64153628D01*
X115284523Y-64629819D02*
X114713095Y-64629819D01*
X114998809Y-64629819D02*
X114998809Y-63629819D01*
X114998809Y-63629819D02*
X114903571Y-63772676D01*
X114903571Y-63772676D02*
X114808333Y-63867914D01*
X114808333Y-63867914D02*
X114713095Y-63915533D01*
X115903571Y-63629819D02*
X115998809Y-63629819D01*
X115998809Y-63629819D02*
X116094047Y-63677438D01*
X116094047Y-63677438D02*
X116141666Y-63725057D01*
X116141666Y-63725057D02*
X116189285Y-63820295D01*
X116189285Y-63820295D02*
X116236904Y-64010771D01*
X116236904Y-64010771D02*
X116236904Y-64248866D01*
X116236904Y-64248866D02*
X116189285Y-64439342D01*
X116189285Y-64439342D02*
X116141666Y-64534580D01*
X116141666Y-64534580D02*
X116094047Y-64582200D01*
X116094047Y-64582200D02*
X115998809Y-64629819D01*
X115998809Y-64629819D02*
X115903571Y-64629819D01*
X115903571Y-64629819D02*
X115808333Y-64582200D01*
X115808333Y-64582200D02*
X115760714Y-64534580D01*
X115760714Y-64534580D02*
X115713095Y-64439342D01*
X115713095Y-64439342D02*
X115665476Y-64248866D01*
X115665476Y-64248866D02*
X115665476Y-64010771D01*
X115665476Y-64010771D02*
X115713095Y-63820295D01*
X115713095Y-63820295D02*
X115760714Y-63725057D01*
X115760714Y-63725057D02*
X115808333Y-63677438D01*
X115808333Y-63677438D02*
X115903571Y-63629819D01*
X132011905Y-53054819D02*
X132011905Y-52054819D01*
X132011905Y-52054819D02*
X132250000Y-52054819D01*
X132250000Y-52054819D02*
X132392857Y-52102438D01*
X132392857Y-52102438D02*
X132488095Y-52197676D01*
X132488095Y-52197676D02*
X132535714Y-52292914D01*
X132535714Y-52292914D02*
X132583333Y-52483390D01*
X132583333Y-52483390D02*
X132583333Y-52626247D01*
X132583333Y-52626247D02*
X132535714Y-52816723D01*
X132535714Y-52816723D02*
X132488095Y-52911961D01*
X132488095Y-52911961D02*
X132392857Y-53007200D01*
X132392857Y-53007200D02*
X132250000Y-53054819D01*
X132250000Y-53054819D02*
X132011905Y-53054819D01*
X132964286Y-52150057D02*
X133011905Y-52102438D01*
X133011905Y-52102438D02*
X133107143Y-52054819D01*
X133107143Y-52054819D02*
X133345238Y-52054819D01*
X133345238Y-52054819D02*
X133440476Y-52102438D01*
X133440476Y-52102438D02*
X133488095Y-52150057D01*
X133488095Y-52150057D02*
X133535714Y-52245295D01*
X133535714Y-52245295D02*
X133535714Y-52340533D01*
X133535714Y-52340533D02*
X133488095Y-52483390D01*
X133488095Y-52483390D02*
X132916667Y-53054819D01*
X132916667Y-53054819D02*
X133535714Y-53054819D01*
X114583333Y-59204819D02*
X114250000Y-58728628D01*
X114011905Y-59204819D02*
X114011905Y-58204819D01*
X114011905Y-58204819D02*
X114392857Y-58204819D01*
X114392857Y-58204819D02*
X114488095Y-58252438D01*
X114488095Y-58252438D02*
X114535714Y-58300057D01*
X114535714Y-58300057D02*
X114583333Y-58395295D01*
X114583333Y-58395295D02*
X114583333Y-58538152D01*
X114583333Y-58538152D02*
X114535714Y-58633390D01*
X114535714Y-58633390D02*
X114488095Y-58681009D01*
X114488095Y-58681009D02*
X114392857Y-58728628D01*
X114392857Y-58728628D02*
X114011905Y-58728628D01*
X115059524Y-59204819D02*
X115250000Y-59204819D01*
X115250000Y-59204819D02*
X115345238Y-59157200D01*
X115345238Y-59157200D02*
X115392857Y-59109580D01*
X115392857Y-59109580D02*
X115488095Y-58966723D01*
X115488095Y-58966723D02*
X115535714Y-58776247D01*
X115535714Y-58776247D02*
X115535714Y-58395295D01*
X115535714Y-58395295D02*
X115488095Y-58300057D01*
X115488095Y-58300057D02*
X115440476Y-58252438D01*
X115440476Y-58252438D02*
X115345238Y-58204819D01*
X115345238Y-58204819D02*
X115154762Y-58204819D01*
X115154762Y-58204819D02*
X115059524Y-58252438D01*
X115059524Y-58252438D02*
X115011905Y-58300057D01*
X115011905Y-58300057D02*
X114964286Y-58395295D01*
X114964286Y-58395295D02*
X114964286Y-58633390D01*
X114964286Y-58633390D02*
X115011905Y-58728628D01*
X115011905Y-58728628D02*
X115059524Y-58776247D01*
X115059524Y-58776247D02*
X115154762Y-58823866D01*
X115154762Y-58823866D02*
X115345238Y-58823866D01*
X115345238Y-58823866D02*
X115440476Y-58776247D01*
X115440476Y-58776247D02*
X115488095Y-58728628D01*
X115488095Y-58728628D02*
X115535714Y-58633390D01*
X141986905Y-52779819D02*
X141986905Y-51779819D01*
X141986905Y-51779819D02*
X142225000Y-51779819D01*
X142225000Y-51779819D02*
X142367857Y-51827438D01*
X142367857Y-51827438D02*
X142463095Y-51922676D01*
X142463095Y-51922676D02*
X142510714Y-52017914D01*
X142510714Y-52017914D02*
X142558333Y-52208390D01*
X142558333Y-52208390D02*
X142558333Y-52351247D01*
X142558333Y-52351247D02*
X142510714Y-52541723D01*
X142510714Y-52541723D02*
X142463095Y-52636961D01*
X142463095Y-52636961D02*
X142367857Y-52732200D01*
X142367857Y-52732200D02*
X142225000Y-52779819D01*
X142225000Y-52779819D02*
X141986905Y-52779819D01*
X142891667Y-51779819D02*
X143510714Y-51779819D01*
X143510714Y-51779819D02*
X143177381Y-52160771D01*
X143177381Y-52160771D02*
X143320238Y-52160771D01*
X143320238Y-52160771D02*
X143415476Y-52208390D01*
X143415476Y-52208390D02*
X143463095Y-52256009D01*
X143463095Y-52256009D02*
X143510714Y-52351247D01*
X143510714Y-52351247D02*
X143510714Y-52589342D01*
X143510714Y-52589342D02*
X143463095Y-52684580D01*
X143463095Y-52684580D02*
X143415476Y-52732200D01*
X143415476Y-52732200D02*
X143320238Y-52779819D01*
X143320238Y-52779819D02*
X143034524Y-52779819D01*
X143034524Y-52779819D02*
X142939286Y-52732200D01*
X142939286Y-52732200D02*
X142891667Y-52684580D01*
X100859524Y-87119104D02*
X101335714Y-87119104D01*
X100764286Y-87404819D02*
X101097619Y-86404819D01*
X101097619Y-86404819D02*
X101430952Y-87404819D01*
X101526191Y-87500057D02*
X102288095Y-87500057D01*
X102526191Y-87404819D02*
X102526191Y-86404819D01*
X103002381Y-86738152D02*
X103002381Y-87404819D01*
X103002381Y-86833390D02*
X103050000Y-86785771D01*
X103050000Y-86785771D02*
X103145238Y-86738152D01*
X103145238Y-86738152D02*
X103288095Y-86738152D01*
X103288095Y-86738152D02*
X103383333Y-86785771D01*
X103383333Y-86785771D02*
X103430952Y-86881009D01*
X103430952Y-86881009D02*
X103430952Y-87404819D01*
X103669048Y-87500057D02*
X104430952Y-87500057D01*
X104669048Y-87404819D02*
X104669048Y-86404819D01*
X104669048Y-86404819D02*
X105050000Y-86404819D01*
X105050000Y-86404819D02*
X105145238Y-86452438D01*
X105145238Y-86452438D02*
X105192857Y-86500057D01*
X105192857Y-86500057D02*
X105240476Y-86595295D01*
X105240476Y-86595295D02*
X105240476Y-86738152D01*
X105240476Y-86738152D02*
X105192857Y-86833390D01*
X105192857Y-86833390D02*
X105145238Y-86881009D01*
X105145238Y-86881009D02*
X105050000Y-86928628D01*
X105050000Y-86928628D02*
X104669048Y-86928628D01*
X100509524Y-64219104D02*
X100985714Y-64219104D01*
X100414286Y-64504819D02*
X100747619Y-63504819D01*
X100747619Y-63504819D02*
X101080952Y-64504819D01*
X101938095Y-64504819D02*
X101366667Y-64504819D01*
X101652381Y-64504819D02*
X101652381Y-63504819D01*
X101652381Y-63504819D02*
X101557143Y-63647676D01*
X101557143Y-63647676D02*
X101461905Y-63742914D01*
X101461905Y-63742914D02*
X101366667Y-63790533D01*
X102128572Y-64600057D02*
X102890476Y-64600057D01*
X103128572Y-64504819D02*
X103128572Y-63504819D01*
X103604762Y-63838152D02*
X103604762Y-64504819D01*
X103604762Y-63933390D02*
X103652381Y-63885771D01*
X103652381Y-63885771D02*
X103747619Y-63838152D01*
X103747619Y-63838152D02*
X103890476Y-63838152D01*
X103890476Y-63838152D02*
X103985714Y-63885771D01*
X103985714Y-63885771D02*
X104033333Y-63981009D01*
X104033333Y-63981009D02*
X104033333Y-64504819D01*
X104271429Y-64600057D02*
X105033333Y-64600057D01*
X105271429Y-64504819D02*
X105271429Y-63504819D01*
X105271429Y-63504819D02*
X105842857Y-64504819D01*
X105842857Y-64504819D02*
X105842857Y-63504819D01*
X139058333Y-78109580D02*
X139010714Y-78157200D01*
X139010714Y-78157200D02*
X138867857Y-78204819D01*
X138867857Y-78204819D02*
X138772619Y-78204819D01*
X138772619Y-78204819D02*
X138629762Y-78157200D01*
X138629762Y-78157200D02*
X138534524Y-78061961D01*
X138534524Y-78061961D02*
X138486905Y-77966723D01*
X138486905Y-77966723D02*
X138439286Y-77776247D01*
X138439286Y-77776247D02*
X138439286Y-77633390D01*
X138439286Y-77633390D02*
X138486905Y-77442914D01*
X138486905Y-77442914D02*
X138534524Y-77347676D01*
X138534524Y-77347676D02*
X138629762Y-77252438D01*
X138629762Y-77252438D02*
X138772619Y-77204819D01*
X138772619Y-77204819D02*
X138867857Y-77204819D01*
X138867857Y-77204819D02*
X139010714Y-77252438D01*
X139010714Y-77252438D02*
X139058333Y-77300057D01*
X139963095Y-77204819D02*
X139486905Y-77204819D01*
X139486905Y-77204819D02*
X139439286Y-77681009D01*
X139439286Y-77681009D02*
X139486905Y-77633390D01*
X139486905Y-77633390D02*
X139582143Y-77585771D01*
X139582143Y-77585771D02*
X139820238Y-77585771D01*
X139820238Y-77585771D02*
X139915476Y-77633390D01*
X139915476Y-77633390D02*
X139963095Y-77681009D01*
X139963095Y-77681009D02*
X140010714Y-77776247D01*
X140010714Y-77776247D02*
X140010714Y-78014342D01*
X140010714Y-78014342D02*
X139963095Y-78109580D01*
X139963095Y-78109580D02*
X139915476Y-78157200D01*
X139915476Y-78157200D02*
X139820238Y-78204819D01*
X139820238Y-78204819D02*
X139582143Y-78204819D01*
X139582143Y-78204819D02*
X139486905Y-78157200D01*
X139486905Y-78157200D02*
X139439286Y-78109580D01*
X147058333Y-60504819D02*
X146725000Y-60028628D01*
X146486905Y-60504819D02*
X146486905Y-59504819D01*
X146486905Y-59504819D02*
X146867857Y-59504819D01*
X146867857Y-59504819D02*
X146963095Y-59552438D01*
X146963095Y-59552438D02*
X147010714Y-59600057D01*
X147010714Y-59600057D02*
X147058333Y-59695295D01*
X147058333Y-59695295D02*
X147058333Y-59838152D01*
X147058333Y-59838152D02*
X147010714Y-59933390D01*
X147010714Y-59933390D02*
X146963095Y-59981009D01*
X146963095Y-59981009D02*
X146867857Y-60028628D01*
X146867857Y-60028628D02*
X146486905Y-60028628D01*
X147391667Y-59504819D02*
X148010714Y-59504819D01*
X148010714Y-59504819D02*
X147677381Y-59885771D01*
X147677381Y-59885771D02*
X147820238Y-59885771D01*
X147820238Y-59885771D02*
X147915476Y-59933390D01*
X147915476Y-59933390D02*
X147963095Y-59981009D01*
X147963095Y-59981009D02*
X148010714Y-60076247D01*
X148010714Y-60076247D02*
X148010714Y-60314342D01*
X148010714Y-60314342D02*
X147963095Y-60409580D01*
X147963095Y-60409580D02*
X147915476Y-60457200D01*
X147915476Y-60457200D02*
X147820238Y-60504819D01*
X147820238Y-60504819D02*
X147534524Y-60504819D01*
X147534524Y-60504819D02*
X147439286Y-60457200D01*
X147439286Y-60457200D02*
X147391667Y-60409580D01*
X114808333Y-69529819D02*
X114475000Y-69053628D01*
X114236905Y-69529819D02*
X114236905Y-68529819D01*
X114236905Y-68529819D02*
X114617857Y-68529819D01*
X114617857Y-68529819D02*
X114713095Y-68577438D01*
X114713095Y-68577438D02*
X114760714Y-68625057D01*
X114760714Y-68625057D02*
X114808333Y-68720295D01*
X114808333Y-68720295D02*
X114808333Y-68863152D01*
X114808333Y-68863152D02*
X114760714Y-68958390D01*
X114760714Y-68958390D02*
X114713095Y-69006009D01*
X114713095Y-69006009D02*
X114617857Y-69053628D01*
X114617857Y-69053628D02*
X114236905Y-69053628D01*
X115760714Y-69529819D02*
X115189286Y-69529819D01*
X115475000Y-69529819D02*
X115475000Y-68529819D01*
X115475000Y-68529819D02*
X115379762Y-68672676D01*
X115379762Y-68672676D02*
X115284524Y-68767914D01*
X115284524Y-68767914D02*
X115189286Y-68815533D01*
X132983095Y-93749819D02*
X132983095Y-94559342D01*
X132983095Y-94559342D02*
X133030714Y-94654580D01*
X133030714Y-94654580D02*
X133078333Y-94702200D01*
X133078333Y-94702200D02*
X133173571Y-94749819D01*
X133173571Y-94749819D02*
X133364047Y-94749819D01*
X133364047Y-94749819D02*
X133459285Y-94702200D01*
X133459285Y-94702200D02*
X133506904Y-94654580D01*
X133506904Y-94654580D02*
X133554523Y-94559342D01*
X133554523Y-94559342D02*
X133554523Y-93749819D01*
X133983095Y-93845057D02*
X134030714Y-93797438D01*
X134030714Y-93797438D02*
X134125952Y-93749819D01*
X134125952Y-93749819D02*
X134364047Y-93749819D01*
X134364047Y-93749819D02*
X134459285Y-93797438D01*
X134459285Y-93797438D02*
X134506904Y-93845057D01*
X134506904Y-93845057D02*
X134554523Y-93940295D01*
X134554523Y-93940295D02*
X134554523Y-94035533D01*
X134554523Y-94035533D02*
X134506904Y-94178390D01*
X134506904Y-94178390D02*
X133935476Y-94749819D01*
X133935476Y-94749819D02*
X134554523Y-94749819D01*
X154819048Y-89874819D02*
X155152381Y-90874819D01*
X155152381Y-90874819D02*
X155485714Y-89874819D01*
X155580953Y-90970057D02*
X156342857Y-90970057D01*
X156580953Y-90874819D02*
X156580953Y-89874819D01*
X157057143Y-90208152D02*
X157057143Y-90874819D01*
X157057143Y-90303390D02*
X157104762Y-90255771D01*
X157104762Y-90255771D02*
X157200000Y-90208152D01*
X157200000Y-90208152D02*
X157342857Y-90208152D01*
X157342857Y-90208152D02*
X157438095Y-90255771D01*
X157438095Y-90255771D02*
X157485714Y-90351009D01*
X157485714Y-90351009D02*
X157485714Y-90874819D01*
X158485714Y-90874819D02*
X157914286Y-90874819D01*
X158200000Y-90874819D02*
X158200000Y-89874819D01*
X158200000Y-89874819D02*
X158104762Y-90017676D01*
X158104762Y-90017676D02*
X158009524Y-90112914D01*
X158009524Y-90112914D02*
X157914286Y-90160533D01*
X101838095Y-71402438D02*
X101742857Y-71354819D01*
X101742857Y-71354819D02*
X101600000Y-71354819D01*
X101600000Y-71354819D02*
X101457143Y-71402438D01*
X101457143Y-71402438D02*
X101361905Y-71497676D01*
X101361905Y-71497676D02*
X101314286Y-71592914D01*
X101314286Y-71592914D02*
X101266667Y-71783390D01*
X101266667Y-71783390D02*
X101266667Y-71926247D01*
X101266667Y-71926247D02*
X101314286Y-72116723D01*
X101314286Y-72116723D02*
X101361905Y-72211961D01*
X101361905Y-72211961D02*
X101457143Y-72307200D01*
X101457143Y-72307200D02*
X101600000Y-72354819D01*
X101600000Y-72354819D02*
X101695238Y-72354819D01*
X101695238Y-72354819D02*
X101838095Y-72307200D01*
X101838095Y-72307200D02*
X101885714Y-72259580D01*
X101885714Y-72259580D02*
X101885714Y-71926247D01*
X101885714Y-71926247D02*
X101695238Y-71926247D01*
X102314286Y-72354819D02*
X102314286Y-71354819D01*
X102314286Y-71354819D02*
X102885714Y-72354819D01*
X102885714Y-72354819D02*
X102885714Y-71354819D01*
X103361905Y-72354819D02*
X103361905Y-71354819D01*
X103361905Y-71354819D02*
X103600000Y-71354819D01*
X103600000Y-71354819D02*
X103742857Y-71402438D01*
X103742857Y-71402438D02*
X103838095Y-71497676D01*
X103838095Y-71497676D02*
X103885714Y-71592914D01*
X103885714Y-71592914D02*
X103933333Y-71783390D01*
X103933333Y-71783390D02*
X103933333Y-71926247D01*
X103933333Y-71926247D02*
X103885714Y-72116723D01*
X103885714Y-72116723D02*
X103838095Y-72211961D01*
X103838095Y-72211961D02*
X103742857Y-72307200D01*
X103742857Y-72307200D02*
X103600000Y-72354819D01*
X103600000Y-72354819D02*
X103361905Y-72354819D01*
X162486904Y-90027438D02*
X162391666Y-89979819D01*
X162391666Y-89979819D02*
X162248809Y-89979819D01*
X162248809Y-89979819D02*
X162105952Y-90027438D01*
X162105952Y-90027438D02*
X162010714Y-90122676D01*
X162010714Y-90122676D02*
X161963095Y-90217914D01*
X161963095Y-90217914D02*
X161915476Y-90408390D01*
X161915476Y-90408390D02*
X161915476Y-90551247D01*
X161915476Y-90551247D02*
X161963095Y-90741723D01*
X161963095Y-90741723D02*
X162010714Y-90836961D01*
X162010714Y-90836961D02*
X162105952Y-90932200D01*
X162105952Y-90932200D02*
X162248809Y-90979819D01*
X162248809Y-90979819D02*
X162344047Y-90979819D01*
X162344047Y-90979819D02*
X162486904Y-90932200D01*
X162486904Y-90932200D02*
X162534523Y-90884580D01*
X162534523Y-90884580D02*
X162534523Y-90551247D01*
X162534523Y-90551247D02*
X162344047Y-90551247D01*
X162963095Y-90979819D02*
X162963095Y-89979819D01*
X162963095Y-89979819D02*
X163534523Y-90979819D01*
X163534523Y-90979819D02*
X163534523Y-89979819D01*
X164010714Y-90979819D02*
X164010714Y-89979819D01*
X164010714Y-89979819D02*
X164248809Y-89979819D01*
X164248809Y-89979819D02*
X164391666Y-90027438D01*
X164391666Y-90027438D02*
X164486904Y-90122676D01*
X164486904Y-90122676D02*
X164534523Y-90217914D01*
X164534523Y-90217914D02*
X164582142Y-90408390D01*
X164582142Y-90408390D02*
X164582142Y-90551247D01*
X164582142Y-90551247D02*
X164534523Y-90741723D01*
X164534523Y-90741723D02*
X164486904Y-90836961D01*
X164486904Y-90836961D02*
X164391666Y-90932200D01*
X164391666Y-90932200D02*
X164248809Y-90979819D01*
X164248809Y-90979819D02*
X164010714Y-90979819D01*
X164963095Y-90075057D02*
X165010714Y-90027438D01*
X165010714Y-90027438D02*
X165105952Y-89979819D01*
X165105952Y-89979819D02*
X165344047Y-89979819D01*
X165344047Y-89979819D02*
X165439285Y-90027438D01*
X165439285Y-90027438D02*
X165486904Y-90075057D01*
X165486904Y-90075057D02*
X165534523Y-90170295D01*
X165534523Y-90170295D02*
X165534523Y-90265533D01*
X165534523Y-90265533D02*
X165486904Y-90408390D01*
X165486904Y-90408390D02*
X164915476Y-90979819D01*
X164915476Y-90979819D02*
X165534523Y-90979819D01*
X119698809Y-93554819D02*
X120032142Y-94554819D01*
X120032142Y-94554819D02*
X120365475Y-93554819D01*
X120460714Y-94650057D02*
X121222618Y-94650057D01*
X121651190Y-93554819D02*
X121841666Y-93554819D01*
X121841666Y-93554819D02*
X121936904Y-93602438D01*
X121936904Y-93602438D02*
X122032142Y-93697676D01*
X122032142Y-93697676D02*
X122079761Y-93888152D01*
X122079761Y-93888152D02*
X122079761Y-94221485D01*
X122079761Y-94221485D02*
X122032142Y-94411961D01*
X122032142Y-94411961D02*
X121936904Y-94507200D01*
X121936904Y-94507200D02*
X121841666Y-94554819D01*
X121841666Y-94554819D02*
X121651190Y-94554819D01*
X121651190Y-94554819D02*
X121555952Y-94507200D01*
X121555952Y-94507200D02*
X121460714Y-94411961D01*
X121460714Y-94411961D02*
X121413095Y-94221485D01*
X121413095Y-94221485D02*
X121413095Y-93888152D01*
X121413095Y-93888152D02*
X121460714Y-93697676D01*
X121460714Y-93697676D02*
X121555952Y-93602438D01*
X121555952Y-93602438D02*
X121651190Y-93554819D01*
X122936904Y-93888152D02*
X122936904Y-94554819D01*
X122508333Y-93888152D02*
X122508333Y-94411961D01*
X122508333Y-94411961D02*
X122555952Y-94507200D01*
X122555952Y-94507200D02*
X122651190Y-94554819D01*
X122651190Y-94554819D02*
X122794047Y-94554819D01*
X122794047Y-94554819D02*
X122889285Y-94507200D01*
X122889285Y-94507200D02*
X122936904Y-94459580D01*
X123270238Y-93888152D02*
X123651190Y-93888152D01*
X123413095Y-93554819D02*
X123413095Y-94411961D01*
X123413095Y-94411961D02*
X123460714Y-94507200D01*
X123460714Y-94507200D02*
X123555952Y-94554819D01*
X123555952Y-94554819D02*
X123651190Y-94554819D01*
X127033333Y-87804819D02*
X126700000Y-87328628D01*
X126461905Y-87804819D02*
X126461905Y-86804819D01*
X126461905Y-86804819D02*
X126842857Y-86804819D01*
X126842857Y-86804819D02*
X126938095Y-86852438D01*
X126938095Y-86852438D02*
X126985714Y-86900057D01*
X126985714Y-86900057D02*
X127033333Y-86995295D01*
X127033333Y-86995295D02*
X127033333Y-87138152D01*
X127033333Y-87138152D02*
X126985714Y-87233390D01*
X126985714Y-87233390D02*
X126938095Y-87281009D01*
X126938095Y-87281009D02*
X126842857Y-87328628D01*
X126842857Y-87328628D02*
X126461905Y-87328628D01*
X127938095Y-86804819D02*
X127461905Y-86804819D01*
X127461905Y-86804819D02*
X127414286Y-87281009D01*
X127414286Y-87281009D02*
X127461905Y-87233390D01*
X127461905Y-87233390D02*
X127557143Y-87185771D01*
X127557143Y-87185771D02*
X127795238Y-87185771D01*
X127795238Y-87185771D02*
X127890476Y-87233390D01*
X127890476Y-87233390D02*
X127938095Y-87281009D01*
X127938095Y-87281009D02*
X127985714Y-87376247D01*
X127985714Y-87376247D02*
X127985714Y-87614342D01*
X127985714Y-87614342D02*
X127938095Y-87709580D01*
X127938095Y-87709580D02*
X127890476Y-87757200D01*
X127890476Y-87757200D02*
X127795238Y-87804819D01*
X127795238Y-87804819D02*
X127557143Y-87804819D01*
X127557143Y-87804819D02*
X127461905Y-87757200D01*
X127461905Y-87757200D02*
X127414286Y-87709580D01*
X113317857Y-94094104D02*
X113794047Y-94094104D01*
X113222619Y-94379819D02*
X113555952Y-93379819D01*
X113555952Y-93379819D02*
X113889285Y-94379819D01*
X114175000Y-93475057D02*
X114222619Y-93427438D01*
X114222619Y-93427438D02*
X114317857Y-93379819D01*
X114317857Y-93379819D02*
X114555952Y-93379819D01*
X114555952Y-93379819D02*
X114651190Y-93427438D01*
X114651190Y-93427438D02*
X114698809Y-93475057D01*
X114698809Y-93475057D02*
X114746428Y-93570295D01*
X114746428Y-93570295D02*
X114746428Y-93665533D01*
X114746428Y-93665533D02*
X114698809Y-93808390D01*
X114698809Y-93808390D02*
X114127381Y-94379819D01*
X114127381Y-94379819D02*
X114746428Y-94379819D01*
X114936905Y-94475057D02*
X115698809Y-94475057D01*
X116127381Y-93379819D02*
X116317857Y-93379819D01*
X116317857Y-93379819D02*
X116413095Y-93427438D01*
X116413095Y-93427438D02*
X116508333Y-93522676D01*
X116508333Y-93522676D02*
X116555952Y-93713152D01*
X116555952Y-93713152D02*
X116555952Y-94046485D01*
X116555952Y-94046485D02*
X116508333Y-94236961D01*
X116508333Y-94236961D02*
X116413095Y-94332200D01*
X116413095Y-94332200D02*
X116317857Y-94379819D01*
X116317857Y-94379819D02*
X116127381Y-94379819D01*
X116127381Y-94379819D02*
X116032143Y-94332200D01*
X116032143Y-94332200D02*
X115936905Y-94236961D01*
X115936905Y-94236961D02*
X115889286Y-94046485D01*
X115889286Y-94046485D02*
X115889286Y-93713152D01*
X115889286Y-93713152D02*
X115936905Y-93522676D01*
X115936905Y-93522676D02*
X116032143Y-93427438D01*
X116032143Y-93427438D02*
X116127381Y-93379819D01*
X117413095Y-93713152D02*
X117413095Y-94379819D01*
X116984524Y-93713152D02*
X116984524Y-94236961D01*
X116984524Y-94236961D02*
X117032143Y-94332200D01*
X117032143Y-94332200D02*
X117127381Y-94379819D01*
X117127381Y-94379819D02*
X117270238Y-94379819D01*
X117270238Y-94379819D02*
X117365476Y-94332200D01*
X117365476Y-94332200D02*
X117413095Y-94284580D01*
X117746429Y-93713152D02*
X118127381Y-93713152D01*
X117889286Y-93379819D02*
X117889286Y-94236961D01*
X117889286Y-94236961D02*
X117936905Y-94332200D01*
X117936905Y-94332200D02*
X118032143Y-94379819D01*
X118032143Y-94379819D02*
X118127381Y-94379819D01*
X121911905Y-53054819D02*
X121911905Y-52054819D01*
X121911905Y-52054819D02*
X122150000Y-52054819D01*
X122150000Y-52054819D02*
X122292857Y-52102438D01*
X122292857Y-52102438D02*
X122388095Y-52197676D01*
X122388095Y-52197676D02*
X122435714Y-52292914D01*
X122435714Y-52292914D02*
X122483333Y-52483390D01*
X122483333Y-52483390D02*
X122483333Y-52626247D01*
X122483333Y-52626247D02*
X122435714Y-52816723D01*
X122435714Y-52816723D02*
X122388095Y-52911961D01*
X122388095Y-52911961D02*
X122292857Y-53007200D01*
X122292857Y-53007200D02*
X122150000Y-53054819D01*
X122150000Y-53054819D02*
X121911905Y-53054819D01*
X123435714Y-53054819D02*
X122864286Y-53054819D01*
X123150000Y-53054819D02*
X123150000Y-52054819D01*
X123150000Y-52054819D02*
X123054762Y-52197676D01*
X123054762Y-52197676D02*
X122959524Y-52292914D01*
X122959524Y-52292914D02*
X122864286Y-52340533D01*
X157616667Y-52707200D02*
X157759524Y-52754819D01*
X157759524Y-52754819D02*
X157997619Y-52754819D01*
X157997619Y-52754819D02*
X158092857Y-52707200D01*
X158092857Y-52707200D02*
X158140476Y-52659580D01*
X158140476Y-52659580D02*
X158188095Y-52564342D01*
X158188095Y-52564342D02*
X158188095Y-52469104D01*
X158188095Y-52469104D02*
X158140476Y-52373866D01*
X158140476Y-52373866D02*
X158092857Y-52326247D01*
X158092857Y-52326247D02*
X157997619Y-52278628D01*
X157997619Y-52278628D02*
X157807143Y-52231009D01*
X157807143Y-52231009D02*
X157711905Y-52183390D01*
X157711905Y-52183390D02*
X157664286Y-52135771D01*
X157664286Y-52135771D02*
X157616667Y-52040533D01*
X157616667Y-52040533D02*
X157616667Y-51945295D01*
X157616667Y-51945295D02*
X157664286Y-51850057D01*
X157664286Y-51850057D02*
X157711905Y-51802438D01*
X157711905Y-51802438D02*
X157807143Y-51754819D01*
X157807143Y-51754819D02*
X158045238Y-51754819D01*
X158045238Y-51754819D02*
X158188095Y-51802438D01*
X158521429Y-51754819D02*
X158759524Y-52754819D01*
X158759524Y-52754819D02*
X158950000Y-52040533D01*
X158950000Y-52040533D02*
X159140476Y-52754819D01*
X159140476Y-52754819D02*
X159378572Y-51754819D01*
X160283333Y-52754819D02*
X159711905Y-52754819D01*
X159997619Y-52754819D02*
X159997619Y-51754819D01*
X159997619Y-51754819D02*
X159902381Y-51897676D01*
X159902381Y-51897676D02*
X159807143Y-51992914D01*
X159807143Y-51992914D02*
X159711905Y-52040533D01*
X117133333Y-87709580D02*
X117085714Y-87757200D01*
X117085714Y-87757200D02*
X116942857Y-87804819D01*
X116942857Y-87804819D02*
X116847619Y-87804819D01*
X116847619Y-87804819D02*
X116704762Y-87757200D01*
X116704762Y-87757200D02*
X116609524Y-87661961D01*
X116609524Y-87661961D02*
X116561905Y-87566723D01*
X116561905Y-87566723D02*
X116514286Y-87376247D01*
X116514286Y-87376247D02*
X116514286Y-87233390D01*
X116514286Y-87233390D02*
X116561905Y-87042914D01*
X116561905Y-87042914D02*
X116609524Y-86947676D01*
X116609524Y-86947676D02*
X116704762Y-86852438D01*
X116704762Y-86852438D02*
X116847619Y-86804819D01*
X116847619Y-86804819D02*
X116942857Y-86804819D01*
X116942857Y-86804819D02*
X117085714Y-86852438D01*
X117085714Y-86852438D02*
X117133333Y-86900057D01*
X118085714Y-87804819D02*
X117514286Y-87804819D01*
X117800000Y-87804819D02*
X117800000Y-86804819D01*
X117800000Y-86804819D02*
X117704762Y-86947676D01*
X117704762Y-86947676D02*
X117609524Y-87042914D01*
X117609524Y-87042914D02*
X117514286Y-87090533D01*
X101017857Y-79619104D02*
X101494047Y-79619104D01*
X100922619Y-79904819D02*
X101255952Y-78904819D01*
X101255952Y-78904819D02*
X101589285Y-79904819D01*
X102446428Y-79904819D02*
X101875000Y-79904819D01*
X102160714Y-79904819D02*
X102160714Y-78904819D01*
X102160714Y-78904819D02*
X102065476Y-79047676D01*
X102065476Y-79047676D02*
X101970238Y-79142914D01*
X101970238Y-79142914D02*
X101875000Y-79190533D01*
X102636905Y-80000057D02*
X103398809Y-80000057D01*
X103827381Y-78904819D02*
X104017857Y-78904819D01*
X104017857Y-78904819D02*
X104113095Y-78952438D01*
X104113095Y-78952438D02*
X104208333Y-79047676D01*
X104208333Y-79047676D02*
X104255952Y-79238152D01*
X104255952Y-79238152D02*
X104255952Y-79571485D01*
X104255952Y-79571485D02*
X104208333Y-79761961D01*
X104208333Y-79761961D02*
X104113095Y-79857200D01*
X104113095Y-79857200D02*
X104017857Y-79904819D01*
X104017857Y-79904819D02*
X103827381Y-79904819D01*
X103827381Y-79904819D02*
X103732143Y-79857200D01*
X103732143Y-79857200D02*
X103636905Y-79761961D01*
X103636905Y-79761961D02*
X103589286Y-79571485D01*
X103589286Y-79571485D02*
X103589286Y-79238152D01*
X103589286Y-79238152D02*
X103636905Y-79047676D01*
X103636905Y-79047676D02*
X103732143Y-78952438D01*
X103732143Y-78952438D02*
X103827381Y-78904819D01*
X105113095Y-79238152D02*
X105113095Y-79904819D01*
X104684524Y-79238152D02*
X104684524Y-79761961D01*
X104684524Y-79761961D02*
X104732143Y-79857200D01*
X104732143Y-79857200D02*
X104827381Y-79904819D01*
X104827381Y-79904819D02*
X104970238Y-79904819D01*
X104970238Y-79904819D02*
X105065476Y-79857200D01*
X105065476Y-79857200D02*
X105113095Y-79809580D01*
X105446429Y-79238152D02*
X105827381Y-79238152D01*
X105589286Y-78904819D02*
X105589286Y-79761961D01*
X105589286Y-79761961D02*
X105636905Y-79857200D01*
X105636905Y-79857200D02*
X105732143Y-79904819D01*
X105732143Y-79904819D02*
X105827381Y-79904819D01*
X146433333Y-88729819D02*
X146100000Y-88253628D01*
X145861905Y-88729819D02*
X145861905Y-87729819D01*
X145861905Y-87729819D02*
X146242857Y-87729819D01*
X146242857Y-87729819D02*
X146338095Y-87777438D01*
X146338095Y-87777438D02*
X146385714Y-87825057D01*
X146385714Y-87825057D02*
X146433333Y-87920295D01*
X146433333Y-87920295D02*
X146433333Y-88063152D01*
X146433333Y-88063152D02*
X146385714Y-88158390D01*
X146385714Y-88158390D02*
X146338095Y-88206009D01*
X146338095Y-88206009D02*
X146242857Y-88253628D01*
X146242857Y-88253628D02*
X145861905Y-88253628D01*
X146766667Y-87729819D02*
X147433333Y-87729819D01*
X147433333Y-87729819D02*
X147004762Y-88729819D01*
X159132142Y-78179819D02*
X158798809Y-77703628D01*
X158560714Y-78179819D02*
X158560714Y-77179819D01*
X158560714Y-77179819D02*
X158941666Y-77179819D01*
X158941666Y-77179819D02*
X159036904Y-77227438D01*
X159036904Y-77227438D02*
X159084523Y-77275057D01*
X159084523Y-77275057D02*
X159132142Y-77370295D01*
X159132142Y-77370295D02*
X159132142Y-77513152D01*
X159132142Y-77513152D02*
X159084523Y-77608390D01*
X159084523Y-77608390D02*
X159036904Y-77656009D01*
X159036904Y-77656009D02*
X158941666Y-77703628D01*
X158941666Y-77703628D02*
X158560714Y-77703628D01*
X160084523Y-78179819D02*
X159513095Y-78179819D01*
X159798809Y-78179819D02*
X159798809Y-77179819D01*
X159798809Y-77179819D02*
X159703571Y-77322676D01*
X159703571Y-77322676D02*
X159608333Y-77417914D01*
X159608333Y-77417914D02*
X159513095Y-77465533D01*
X161036904Y-78179819D02*
X160465476Y-78179819D01*
X160751190Y-78179819D02*
X160751190Y-77179819D01*
X160751190Y-77179819D02*
X160655952Y-77322676D01*
X160655952Y-77322676D02*
X160560714Y-77417914D01*
X160560714Y-77417914D02*
X160465476Y-77465533D01*
X143283333Y-60604819D02*
X142950000Y-60128628D01*
X142711905Y-60604819D02*
X142711905Y-59604819D01*
X142711905Y-59604819D02*
X143092857Y-59604819D01*
X143092857Y-59604819D02*
X143188095Y-59652438D01*
X143188095Y-59652438D02*
X143235714Y-59700057D01*
X143235714Y-59700057D02*
X143283333Y-59795295D01*
X143283333Y-59795295D02*
X143283333Y-59938152D01*
X143283333Y-59938152D02*
X143235714Y-60033390D01*
X143235714Y-60033390D02*
X143188095Y-60081009D01*
X143188095Y-60081009D02*
X143092857Y-60128628D01*
X143092857Y-60128628D02*
X142711905Y-60128628D01*
X144140476Y-59938152D02*
X144140476Y-60604819D01*
X143902381Y-59557200D02*
X143664286Y-60271485D01*
X143664286Y-60271485D02*
X144283333Y-60271485D01*
X146858333Y-94729819D02*
X146525000Y-94253628D01*
X146286905Y-94729819D02*
X146286905Y-93729819D01*
X146286905Y-93729819D02*
X146667857Y-93729819D01*
X146667857Y-93729819D02*
X146763095Y-93777438D01*
X146763095Y-93777438D02*
X146810714Y-93825057D01*
X146810714Y-93825057D02*
X146858333Y-93920295D01*
X146858333Y-93920295D02*
X146858333Y-94063152D01*
X146858333Y-94063152D02*
X146810714Y-94158390D01*
X146810714Y-94158390D02*
X146763095Y-94206009D01*
X146763095Y-94206009D02*
X146667857Y-94253628D01*
X146667857Y-94253628D02*
X146286905Y-94253628D01*
X147715476Y-93729819D02*
X147525000Y-93729819D01*
X147525000Y-93729819D02*
X147429762Y-93777438D01*
X147429762Y-93777438D02*
X147382143Y-93825057D01*
X147382143Y-93825057D02*
X147286905Y-93967914D01*
X147286905Y-93967914D02*
X147239286Y-94158390D01*
X147239286Y-94158390D02*
X147239286Y-94539342D01*
X147239286Y-94539342D02*
X147286905Y-94634580D01*
X147286905Y-94634580D02*
X147334524Y-94682200D01*
X147334524Y-94682200D02*
X147429762Y-94729819D01*
X147429762Y-94729819D02*
X147620238Y-94729819D01*
X147620238Y-94729819D02*
X147715476Y-94682200D01*
X147715476Y-94682200D02*
X147763095Y-94634580D01*
X147763095Y-94634580D02*
X147810714Y-94539342D01*
X147810714Y-94539342D02*
X147810714Y-94301247D01*
X147810714Y-94301247D02*
X147763095Y-94206009D01*
X147763095Y-94206009D02*
X147715476Y-94158390D01*
X147715476Y-94158390D02*
X147620238Y-94110771D01*
X147620238Y-94110771D02*
X147429762Y-94110771D01*
X147429762Y-94110771D02*
X147334524Y-94158390D01*
X147334524Y-94158390D02*
X147286905Y-94206009D01*
X147286905Y-94206009D02*
X147239286Y-94301247D01*
X124284819Y-66066666D02*
X123808628Y-66399999D01*
X124284819Y-66638094D02*
X123284819Y-66638094D01*
X123284819Y-66638094D02*
X123284819Y-66257142D01*
X123284819Y-66257142D02*
X123332438Y-66161904D01*
X123332438Y-66161904D02*
X123380057Y-66114285D01*
X123380057Y-66114285D02*
X123475295Y-66066666D01*
X123475295Y-66066666D02*
X123618152Y-66066666D01*
X123618152Y-66066666D02*
X123713390Y-66114285D01*
X123713390Y-66114285D02*
X123761009Y-66161904D01*
X123761009Y-66161904D02*
X123808628Y-66257142D01*
X123808628Y-66257142D02*
X123808628Y-66638094D01*
X123380057Y-65685713D02*
X123332438Y-65638094D01*
X123332438Y-65638094D02*
X123284819Y-65542856D01*
X123284819Y-65542856D02*
X123284819Y-65304761D01*
X123284819Y-65304761D02*
X123332438Y-65209523D01*
X123332438Y-65209523D02*
X123380057Y-65161904D01*
X123380057Y-65161904D02*
X123475295Y-65114285D01*
X123475295Y-65114285D02*
X123570533Y-65114285D01*
X123570533Y-65114285D02*
X123713390Y-65161904D01*
X123713390Y-65161904D02*
X124284819Y-65733332D01*
X124284819Y-65733332D02*
X124284819Y-65114285D01*
X102138095Y-55602438D02*
X102042857Y-55554819D01*
X102042857Y-55554819D02*
X101900000Y-55554819D01*
X101900000Y-55554819D02*
X101757143Y-55602438D01*
X101757143Y-55602438D02*
X101661905Y-55697676D01*
X101661905Y-55697676D02*
X101614286Y-55792914D01*
X101614286Y-55792914D02*
X101566667Y-55983390D01*
X101566667Y-55983390D02*
X101566667Y-56126247D01*
X101566667Y-56126247D02*
X101614286Y-56316723D01*
X101614286Y-56316723D02*
X101661905Y-56411961D01*
X101661905Y-56411961D02*
X101757143Y-56507200D01*
X101757143Y-56507200D02*
X101900000Y-56554819D01*
X101900000Y-56554819D02*
X101995238Y-56554819D01*
X101995238Y-56554819D02*
X102138095Y-56507200D01*
X102138095Y-56507200D02*
X102185714Y-56459580D01*
X102185714Y-56459580D02*
X102185714Y-56126247D01*
X102185714Y-56126247D02*
X101995238Y-56126247D01*
X102614286Y-56554819D02*
X102614286Y-55554819D01*
X102614286Y-55554819D02*
X103185714Y-56554819D01*
X103185714Y-56554819D02*
X103185714Y-55554819D01*
X103661905Y-56554819D02*
X103661905Y-55554819D01*
X103661905Y-55554819D02*
X103900000Y-55554819D01*
X103900000Y-55554819D02*
X104042857Y-55602438D01*
X104042857Y-55602438D02*
X104138095Y-55697676D01*
X104138095Y-55697676D02*
X104185714Y-55792914D01*
X104185714Y-55792914D02*
X104233333Y-55983390D01*
X104233333Y-55983390D02*
X104233333Y-56126247D01*
X104233333Y-56126247D02*
X104185714Y-56316723D01*
X104185714Y-56316723D02*
X104138095Y-56411961D01*
X104138095Y-56411961D02*
X104042857Y-56507200D01*
X104042857Y-56507200D02*
X103900000Y-56554819D01*
X103900000Y-56554819D02*
X103661905Y-56554819D01*
X152458333Y-67384580D02*
X152410714Y-67432200D01*
X152410714Y-67432200D02*
X152267857Y-67479819D01*
X152267857Y-67479819D02*
X152172619Y-67479819D01*
X152172619Y-67479819D02*
X152029762Y-67432200D01*
X152029762Y-67432200D02*
X151934524Y-67336961D01*
X151934524Y-67336961D02*
X151886905Y-67241723D01*
X151886905Y-67241723D02*
X151839286Y-67051247D01*
X151839286Y-67051247D02*
X151839286Y-66908390D01*
X151839286Y-66908390D02*
X151886905Y-66717914D01*
X151886905Y-66717914D02*
X151934524Y-66622676D01*
X151934524Y-66622676D02*
X152029762Y-66527438D01*
X152029762Y-66527438D02*
X152172619Y-66479819D01*
X152172619Y-66479819D02*
X152267857Y-66479819D01*
X152267857Y-66479819D02*
X152410714Y-66527438D01*
X152410714Y-66527438D02*
X152458333Y-66575057D01*
X152791667Y-66479819D02*
X153410714Y-66479819D01*
X153410714Y-66479819D02*
X153077381Y-66860771D01*
X153077381Y-66860771D02*
X153220238Y-66860771D01*
X153220238Y-66860771D02*
X153315476Y-66908390D01*
X153315476Y-66908390D02*
X153363095Y-66956009D01*
X153363095Y-66956009D02*
X153410714Y-67051247D01*
X153410714Y-67051247D02*
X153410714Y-67289342D01*
X153410714Y-67289342D02*
X153363095Y-67384580D01*
X153363095Y-67384580D02*
X153315476Y-67432200D01*
X153315476Y-67432200D02*
X153220238Y-67479819D01*
X153220238Y-67479819D02*
X152934524Y-67479819D01*
X152934524Y-67479819D02*
X152839286Y-67432200D01*
X152839286Y-67432200D02*
X152791667Y-67384580D01*
X157411905Y-86379819D02*
X157411905Y-85379819D01*
X157411905Y-85379819D02*
X157650000Y-85379819D01*
X157650000Y-85379819D02*
X157792857Y-85427438D01*
X157792857Y-85427438D02*
X157888095Y-85522676D01*
X157888095Y-85522676D02*
X157935714Y-85617914D01*
X157935714Y-85617914D02*
X157983333Y-85808390D01*
X157983333Y-85808390D02*
X157983333Y-85951247D01*
X157983333Y-85951247D02*
X157935714Y-86141723D01*
X157935714Y-86141723D02*
X157888095Y-86236961D01*
X157888095Y-86236961D02*
X157792857Y-86332200D01*
X157792857Y-86332200D02*
X157650000Y-86379819D01*
X157650000Y-86379819D02*
X157411905Y-86379819D01*
X158840476Y-85713152D02*
X158840476Y-86379819D01*
X158602381Y-85332200D02*
X158364286Y-86046485D01*
X158364286Y-86046485D02*
X158983333Y-86046485D01*
X158357142Y-61904819D02*
X158023809Y-61428628D01*
X157785714Y-61904819D02*
X157785714Y-60904819D01*
X157785714Y-60904819D02*
X158166666Y-60904819D01*
X158166666Y-60904819D02*
X158261904Y-60952438D01*
X158261904Y-60952438D02*
X158309523Y-61000057D01*
X158309523Y-61000057D02*
X158357142Y-61095295D01*
X158357142Y-61095295D02*
X158357142Y-61238152D01*
X158357142Y-61238152D02*
X158309523Y-61333390D01*
X158309523Y-61333390D02*
X158261904Y-61381009D01*
X158261904Y-61381009D02*
X158166666Y-61428628D01*
X158166666Y-61428628D02*
X157785714Y-61428628D01*
X159309523Y-61904819D02*
X158738095Y-61904819D01*
X159023809Y-61904819D02*
X159023809Y-60904819D01*
X159023809Y-60904819D02*
X158928571Y-61047676D01*
X158928571Y-61047676D02*
X158833333Y-61142914D01*
X158833333Y-61142914D02*
X158738095Y-61190533D01*
X159690476Y-61000057D02*
X159738095Y-60952438D01*
X159738095Y-60952438D02*
X159833333Y-60904819D01*
X159833333Y-60904819D02*
X160071428Y-60904819D01*
X160071428Y-60904819D02*
X160166666Y-60952438D01*
X160166666Y-60952438D02*
X160214285Y-61000057D01*
X160214285Y-61000057D02*
X160261904Y-61095295D01*
X160261904Y-61095295D02*
X160261904Y-61190533D01*
X160261904Y-61190533D02*
X160214285Y-61333390D01*
X160214285Y-61333390D02*
X159642857Y-61904819D01*
X159642857Y-61904819D02*
X160261904Y-61904819D01*
X101234524Y-93894104D02*
X101710714Y-93894104D01*
X101139286Y-94179819D02*
X101472619Y-93179819D01*
X101472619Y-93179819D02*
X101805952Y-94179819D01*
X102091667Y-93275057D02*
X102139286Y-93227438D01*
X102139286Y-93227438D02*
X102234524Y-93179819D01*
X102234524Y-93179819D02*
X102472619Y-93179819D01*
X102472619Y-93179819D02*
X102567857Y-93227438D01*
X102567857Y-93227438D02*
X102615476Y-93275057D01*
X102615476Y-93275057D02*
X102663095Y-93370295D01*
X102663095Y-93370295D02*
X102663095Y-93465533D01*
X102663095Y-93465533D02*
X102615476Y-93608390D01*
X102615476Y-93608390D02*
X102044048Y-94179819D01*
X102044048Y-94179819D02*
X102663095Y-94179819D01*
X102853572Y-94275057D02*
X103615476Y-94275057D01*
X103853572Y-94179819D02*
X103853572Y-93179819D01*
X104329762Y-93513152D02*
X104329762Y-94179819D01*
X104329762Y-93608390D02*
X104377381Y-93560771D01*
X104377381Y-93560771D02*
X104472619Y-93513152D01*
X104472619Y-93513152D02*
X104615476Y-93513152D01*
X104615476Y-93513152D02*
X104710714Y-93560771D01*
X104710714Y-93560771D02*
X104758333Y-93656009D01*
X104758333Y-93656009D02*
X104758333Y-94179819D01*
X104996429Y-94275057D02*
X105758333Y-94275057D01*
X105996429Y-94179819D02*
X105996429Y-93179819D01*
X105996429Y-93179819D02*
X106567857Y-94179819D01*
X106567857Y-94179819D02*
X106567857Y-93179819D01*
X114533333Y-53704819D02*
X114200000Y-53228628D01*
X113961905Y-53704819D02*
X113961905Y-52704819D01*
X113961905Y-52704819D02*
X114342857Y-52704819D01*
X114342857Y-52704819D02*
X114438095Y-52752438D01*
X114438095Y-52752438D02*
X114485714Y-52800057D01*
X114485714Y-52800057D02*
X114533333Y-52895295D01*
X114533333Y-52895295D02*
X114533333Y-53038152D01*
X114533333Y-53038152D02*
X114485714Y-53133390D01*
X114485714Y-53133390D02*
X114438095Y-53181009D01*
X114438095Y-53181009D02*
X114342857Y-53228628D01*
X114342857Y-53228628D02*
X113961905Y-53228628D01*
X115104762Y-53133390D02*
X115009524Y-53085771D01*
X115009524Y-53085771D02*
X114961905Y-53038152D01*
X114961905Y-53038152D02*
X114914286Y-52942914D01*
X114914286Y-52942914D02*
X114914286Y-52895295D01*
X114914286Y-52895295D02*
X114961905Y-52800057D01*
X114961905Y-52800057D02*
X115009524Y-52752438D01*
X115009524Y-52752438D02*
X115104762Y-52704819D01*
X115104762Y-52704819D02*
X115295238Y-52704819D01*
X115295238Y-52704819D02*
X115390476Y-52752438D01*
X115390476Y-52752438D02*
X115438095Y-52800057D01*
X115438095Y-52800057D02*
X115485714Y-52895295D01*
X115485714Y-52895295D02*
X115485714Y-52942914D01*
X115485714Y-52942914D02*
X115438095Y-53038152D01*
X115438095Y-53038152D02*
X115390476Y-53085771D01*
X115390476Y-53085771D02*
X115295238Y-53133390D01*
X115295238Y-53133390D02*
X115104762Y-53133390D01*
X115104762Y-53133390D02*
X115009524Y-53181009D01*
X115009524Y-53181009D02*
X114961905Y-53228628D01*
X114961905Y-53228628D02*
X114914286Y-53323866D01*
X114914286Y-53323866D02*
X114914286Y-53514342D01*
X114914286Y-53514342D02*
X114961905Y-53609580D01*
X114961905Y-53609580D02*
X115009524Y-53657200D01*
X115009524Y-53657200D02*
X115104762Y-53704819D01*
X115104762Y-53704819D02*
X115295238Y-53704819D01*
X115295238Y-53704819D02*
X115390476Y-53657200D01*
X115390476Y-53657200D02*
X115438095Y-53609580D01*
X115438095Y-53609580D02*
X115485714Y-53514342D01*
X115485714Y-53514342D02*
X115485714Y-53323866D01*
X115485714Y-53323866D02*
X115438095Y-53228628D01*
X115438095Y-53228628D02*
X115390476Y-53181009D01*
X115390476Y-53181009D02*
X115295238Y-53133390D01*
X151733333Y-78459580D02*
X151685714Y-78507200D01*
X151685714Y-78507200D02*
X151542857Y-78554819D01*
X151542857Y-78554819D02*
X151447619Y-78554819D01*
X151447619Y-78554819D02*
X151304762Y-78507200D01*
X151304762Y-78507200D02*
X151209524Y-78411961D01*
X151209524Y-78411961D02*
X151161905Y-78316723D01*
X151161905Y-78316723D02*
X151114286Y-78126247D01*
X151114286Y-78126247D02*
X151114286Y-77983390D01*
X151114286Y-77983390D02*
X151161905Y-77792914D01*
X151161905Y-77792914D02*
X151209524Y-77697676D01*
X151209524Y-77697676D02*
X151304762Y-77602438D01*
X151304762Y-77602438D02*
X151447619Y-77554819D01*
X151447619Y-77554819D02*
X151542857Y-77554819D01*
X151542857Y-77554819D02*
X151685714Y-77602438D01*
X151685714Y-77602438D02*
X151733333Y-77650057D01*
X152590476Y-77554819D02*
X152400000Y-77554819D01*
X152400000Y-77554819D02*
X152304762Y-77602438D01*
X152304762Y-77602438D02*
X152257143Y-77650057D01*
X152257143Y-77650057D02*
X152161905Y-77792914D01*
X152161905Y-77792914D02*
X152114286Y-77983390D01*
X152114286Y-77983390D02*
X152114286Y-78364342D01*
X152114286Y-78364342D02*
X152161905Y-78459580D01*
X152161905Y-78459580D02*
X152209524Y-78507200D01*
X152209524Y-78507200D02*
X152304762Y-78554819D01*
X152304762Y-78554819D02*
X152495238Y-78554819D01*
X152495238Y-78554819D02*
X152590476Y-78507200D01*
X152590476Y-78507200D02*
X152638095Y-78459580D01*
X152638095Y-78459580D02*
X152685714Y-78364342D01*
X152685714Y-78364342D02*
X152685714Y-78126247D01*
X152685714Y-78126247D02*
X152638095Y-78031009D01*
X152638095Y-78031009D02*
X152590476Y-77983390D01*
X152590476Y-77983390D02*
X152495238Y-77935771D01*
X152495238Y-77935771D02*
X152304762Y-77935771D01*
X152304762Y-77935771D02*
X152209524Y-77983390D01*
X152209524Y-77983390D02*
X152161905Y-78031009D01*
X152161905Y-78031009D02*
X152114286Y-78126247D01*
X117133333Y-74459580D02*
X117085714Y-74507200D01*
X117085714Y-74507200D02*
X116942857Y-74554819D01*
X116942857Y-74554819D02*
X116847619Y-74554819D01*
X116847619Y-74554819D02*
X116704762Y-74507200D01*
X116704762Y-74507200D02*
X116609524Y-74411961D01*
X116609524Y-74411961D02*
X116561905Y-74316723D01*
X116561905Y-74316723D02*
X116514286Y-74126247D01*
X116514286Y-74126247D02*
X116514286Y-73983390D01*
X116514286Y-73983390D02*
X116561905Y-73792914D01*
X116561905Y-73792914D02*
X116609524Y-73697676D01*
X116609524Y-73697676D02*
X116704762Y-73602438D01*
X116704762Y-73602438D02*
X116847619Y-73554819D01*
X116847619Y-73554819D02*
X116942857Y-73554819D01*
X116942857Y-73554819D02*
X117085714Y-73602438D01*
X117085714Y-73602438D02*
X117133333Y-73650057D01*
X117990476Y-73888152D02*
X117990476Y-74554819D01*
X117752381Y-73507200D02*
X117514286Y-74221485D01*
X117514286Y-74221485D02*
X118133333Y-74221485D01*
X163366666Y-75779819D02*
X163366666Y-76494104D01*
X163366666Y-76494104D02*
X163319047Y-76636961D01*
X163319047Y-76636961D02*
X163223809Y-76732200D01*
X163223809Y-76732200D02*
X163080952Y-76779819D01*
X163080952Y-76779819D02*
X162985714Y-76779819D01*
X164319047Y-75779819D02*
X163842857Y-75779819D01*
X163842857Y-75779819D02*
X163795238Y-76256009D01*
X163795238Y-76256009D02*
X163842857Y-76208390D01*
X163842857Y-76208390D02*
X163938095Y-76160771D01*
X163938095Y-76160771D02*
X164176190Y-76160771D01*
X164176190Y-76160771D02*
X164271428Y-76208390D01*
X164271428Y-76208390D02*
X164319047Y-76256009D01*
X164319047Y-76256009D02*
X164366666Y-76351247D01*
X164366666Y-76351247D02*
X164366666Y-76589342D01*
X164366666Y-76589342D02*
X164319047Y-76684580D01*
X164319047Y-76684580D02*
X164271428Y-76732200D01*
X164271428Y-76732200D02*
X164176190Y-76779819D01*
X164176190Y-76779819D02*
X163938095Y-76779819D01*
X163938095Y-76779819D02*
X163842857Y-76732200D01*
X163842857Y-76732200D02*
X163795238Y-76684580D01*
D11*
%TO.C,U1*%
X131385000Y-62070000D02*
X131385000Y-72350000D01*
X131385000Y-72350000D02*
X136685000Y-72350000D01*
X133035000Y-62070000D02*
X131385000Y-62070000D01*
X136685000Y-62070000D02*
X135035000Y-62070000D01*
X136685000Y-72350000D02*
X136685000Y-62070000D01*
X135035000Y-62070000D02*
G75*
G02*
X133035000Y-62070000I-1000000J0D01*
G01*
%TO.C,C2*%
X122370225Y-76250000D02*
X122870225Y-76250000D01*
X122620225Y-76000000D02*
X122620225Y-76500000D01*
X125175000Y-75145000D02*
X125175000Y-76685000D01*
X125175000Y-78765000D02*
X125175000Y-80305000D01*
X125215000Y-75145000D02*
X125215000Y-76685000D01*
X125215000Y-78765000D02*
X125215000Y-80305000D01*
X125255000Y-75146000D02*
X125255000Y-76685000D01*
X125255000Y-78765000D02*
X125255000Y-80304000D01*
X125295000Y-75147000D02*
X125295000Y-76685000D01*
X125295000Y-78765000D02*
X125295000Y-80303000D01*
X125335000Y-75149000D02*
X125335000Y-76685000D01*
X125335000Y-78765000D02*
X125335000Y-80301000D01*
X125375000Y-75152000D02*
X125375000Y-76685000D01*
X125375000Y-78765000D02*
X125375000Y-80298000D01*
X125415000Y-75156000D02*
X125415000Y-76685000D01*
X125415000Y-78765000D02*
X125415000Y-80294000D01*
X125455000Y-75160000D02*
X125455000Y-76685000D01*
X125455000Y-78765000D02*
X125455000Y-80290000D01*
X125495000Y-75164000D02*
X125495000Y-76685000D01*
X125495000Y-78765000D02*
X125495000Y-80286000D01*
X125535000Y-75169000D02*
X125535000Y-76685000D01*
X125535000Y-78765000D02*
X125535000Y-80281000D01*
X125575000Y-75175000D02*
X125575000Y-76685000D01*
X125575000Y-78765000D02*
X125575000Y-80275000D01*
X125615000Y-75182000D02*
X125615000Y-76685000D01*
X125615000Y-78765000D02*
X125615000Y-80268000D01*
X125655000Y-75189000D02*
X125655000Y-76685000D01*
X125655000Y-78765000D02*
X125655000Y-80261000D01*
X125695000Y-75197000D02*
X125695000Y-76685000D01*
X125695000Y-78765000D02*
X125695000Y-80253000D01*
X125735000Y-75205000D02*
X125735000Y-76685000D01*
X125735000Y-78765000D02*
X125735000Y-80245000D01*
X125775000Y-75214000D02*
X125775000Y-76685000D01*
X125775000Y-78765000D02*
X125775000Y-80236000D01*
X125815000Y-75224000D02*
X125815000Y-76685000D01*
X125815000Y-78765000D02*
X125815000Y-80226000D01*
X125855000Y-75234000D02*
X125855000Y-76685000D01*
X125855000Y-78765000D02*
X125855000Y-80216000D01*
X125896000Y-75245000D02*
X125896000Y-76685000D01*
X125896000Y-78765000D02*
X125896000Y-80205000D01*
X125936000Y-75257000D02*
X125936000Y-76685000D01*
X125936000Y-78765000D02*
X125936000Y-80193000D01*
X125976000Y-75270000D02*
X125976000Y-76685000D01*
X125976000Y-78765000D02*
X125976000Y-80180000D01*
X126016000Y-75283000D02*
X126016000Y-76685000D01*
X126016000Y-78765000D02*
X126016000Y-80167000D01*
X126056000Y-75297000D02*
X126056000Y-76685000D01*
X126056000Y-78765000D02*
X126056000Y-80153000D01*
X126096000Y-75311000D02*
X126096000Y-76685000D01*
X126096000Y-78765000D02*
X126096000Y-80139000D01*
X126136000Y-75327000D02*
X126136000Y-76685000D01*
X126136000Y-78765000D02*
X126136000Y-80123000D01*
X126176000Y-75343000D02*
X126176000Y-76685000D01*
X126176000Y-78765000D02*
X126176000Y-80107000D01*
X126216000Y-75360000D02*
X126216000Y-76685000D01*
X126216000Y-78765000D02*
X126216000Y-80090000D01*
X126256000Y-75377000D02*
X126256000Y-76685000D01*
X126256000Y-78765000D02*
X126256000Y-80073000D01*
X126296000Y-75396000D02*
X126296000Y-76685000D01*
X126296000Y-78765000D02*
X126296000Y-80054000D01*
X126336000Y-75415000D02*
X126336000Y-76685000D01*
X126336000Y-78765000D02*
X126336000Y-80035000D01*
X126376000Y-75435000D02*
X126376000Y-76685000D01*
X126376000Y-78765000D02*
X126376000Y-80015000D01*
X126416000Y-75457000D02*
X126416000Y-76685000D01*
X126416000Y-78765000D02*
X126416000Y-79993000D01*
X126456000Y-75478000D02*
X126456000Y-76685000D01*
X126456000Y-78765000D02*
X126456000Y-79972000D01*
X126496000Y-75501000D02*
X126496000Y-76685000D01*
X126496000Y-78765000D02*
X126496000Y-79949000D01*
X126536000Y-75525000D02*
X126536000Y-76685000D01*
X126536000Y-78765000D02*
X126536000Y-79925000D01*
X126576000Y-75550000D02*
X126576000Y-76685000D01*
X126576000Y-78765000D02*
X126576000Y-79900000D01*
X126616000Y-75576000D02*
X126616000Y-76685000D01*
X126616000Y-78765000D02*
X126616000Y-79874000D01*
X126656000Y-75603000D02*
X126656000Y-76685000D01*
X126656000Y-78765000D02*
X126656000Y-79847000D01*
X126696000Y-75630000D02*
X126696000Y-76685000D01*
X126696000Y-78765000D02*
X126696000Y-79820000D01*
X126736000Y-75660000D02*
X126736000Y-76685000D01*
X126736000Y-78765000D02*
X126736000Y-79790000D01*
X126776000Y-75690000D02*
X126776000Y-76685000D01*
X126776000Y-78765000D02*
X126776000Y-79760000D01*
X126816000Y-75721000D02*
X126816000Y-76685000D01*
X126816000Y-78765000D02*
X126816000Y-79729000D01*
X126856000Y-75754000D02*
X126856000Y-76685000D01*
X126856000Y-78765000D02*
X126856000Y-79696000D01*
X126896000Y-75788000D02*
X126896000Y-76685000D01*
X126896000Y-78765000D02*
X126896000Y-79662000D01*
X126936000Y-75824000D02*
X126936000Y-76685000D01*
X126936000Y-78765000D02*
X126936000Y-79626000D01*
X126976000Y-75861000D02*
X126976000Y-76685000D01*
X126976000Y-78765000D02*
X126976000Y-79589000D01*
X127016000Y-75899000D02*
X127016000Y-76685000D01*
X127016000Y-78765000D02*
X127016000Y-79551000D01*
X127056000Y-75940000D02*
X127056000Y-76685000D01*
X127056000Y-78765000D02*
X127056000Y-79510000D01*
X127096000Y-75982000D02*
X127096000Y-76685000D01*
X127096000Y-78765000D02*
X127096000Y-79468000D01*
X127136000Y-76026000D02*
X127136000Y-76685000D01*
X127136000Y-78765000D02*
X127136000Y-79424000D01*
X127176000Y-76072000D02*
X127176000Y-76685000D01*
X127176000Y-78765000D02*
X127176000Y-79378000D01*
X127216000Y-76120000D02*
X127216000Y-79330000D01*
X127256000Y-76171000D02*
X127256000Y-79279000D01*
X127296000Y-76225000D02*
X127296000Y-79225000D01*
X127336000Y-76282000D02*
X127336000Y-79168000D01*
X127376000Y-76342000D02*
X127376000Y-79108000D01*
X127416000Y-76406000D02*
X127416000Y-79044000D01*
X127456000Y-76474000D02*
X127456000Y-78976000D01*
X127496000Y-76547000D02*
X127496000Y-78903000D01*
X127536000Y-76627000D02*
X127536000Y-78823000D01*
X127576000Y-76714000D02*
X127576000Y-78736000D01*
X127616000Y-76810000D02*
X127616000Y-78640000D01*
X127656000Y-76920000D02*
X127656000Y-78530000D01*
X127696000Y-77048000D02*
X127696000Y-78402000D01*
X127736000Y-77207000D02*
X127736000Y-78243000D01*
X127776000Y-77441000D02*
X127776000Y-78009000D01*
X127795000Y-77725000D02*
G75*
G02*
X122555000Y-77725000I-2620000J0D01*
G01*
X122555000Y-77725000D02*
G75*
G02*
X127795000Y-77725000I2620000J0D01*
G01*
%TO.C,VCC*%
X101495000Y-51070000D02*
X102825000Y-51070000D01*
X101495000Y-52400000D02*
X101495000Y-51070000D01*
X101495000Y-53670000D02*
X101495000Y-53730000D01*
X101495000Y-53670000D02*
X104155000Y-53670000D01*
X101495000Y-53730000D02*
X104155000Y-53730000D01*
X104155000Y-53670000D02*
X104155000Y-53730000D01*
%TO.C,GND*%
X108545000Y-95795000D02*
X109875000Y-95795000D01*
X108545000Y-97125000D02*
X108545000Y-95795000D01*
X108545000Y-98395000D02*
X108545000Y-98455000D01*
X108545000Y-98395000D02*
X111205000Y-98395000D01*
X108545000Y-98455000D02*
X111205000Y-98455000D01*
X111205000Y-98395000D02*
X111205000Y-98455000D01*
%TO.C,R10*%
X110785000Y-66325000D02*
X111555000Y-66325000D01*
X111555000Y-64955000D02*
X111555000Y-67695000D01*
X111555000Y-67695000D02*
X118095000Y-67695000D01*
X118095000Y-64955000D02*
X111555000Y-64955000D01*
X118095000Y-67695000D02*
X118095000Y-64955000D01*
X118865000Y-66325000D02*
X118095000Y-66325000D01*
%TO.C,D2*%
X133685000Y-54055000D02*
X133685000Y-57145000D01*
X133685001Y-54055170D02*
G75*
G02*
X139234999Y-55600462I2559999J-1544830D01*
G01*
X139235000Y-55599538D02*
G75*
G02*
X133685000Y-57144830I-2990000J-462D01*
G01*
X138745000Y-55600000D02*
G75*
G02*
X133745000Y-55600000I-2500000J0D01*
G01*
X133745000Y-55600000D02*
G75*
G02*
X138745000Y-55600000I2500000J0D01*
G01*
%TO.C,R9*%
X110785000Y-61300000D02*
X111555000Y-61300000D01*
X111555000Y-59930000D02*
X111555000Y-62670000D01*
X111555000Y-62670000D02*
X118095000Y-62670000D01*
X118095000Y-59930000D02*
X111555000Y-59930000D01*
X118095000Y-62670000D02*
X118095000Y-59930000D01*
X118865000Y-61300000D02*
X118095000Y-61300000D01*
%TO.C,D3*%
X143835000Y-53955000D02*
X143835000Y-57045000D01*
X143835001Y-53955170D02*
G75*
G02*
X149384999Y-55500462I2559999J-1544830D01*
G01*
X149385000Y-55499538D02*
G75*
G02*
X143835000Y-57044830I-2990000J-462D01*
G01*
X148895000Y-55500000D02*
G75*
G02*
X143895000Y-55500000I-2500000J0D01*
G01*
X143895000Y-55500000D02*
G75*
G02*
X148895000Y-55500000I2500000J0D01*
G01*
%TO.C,A_In_P*%
X101445000Y-88145000D02*
X102775000Y-88145000D01*
X101445000Y-89475000D02*
X101445000Y-88145000D01*
X101445000Y-90745000D02*
X101445000Y-90805000D01*
X101445000Y-90745000D02*
X104105000Y-90745000D01*
X101445000Y-90805000D02*
X104105000Y-90805000D01*
X104105000Y-90745000D02*
X104105000Y-90805000D01*
%TO.C,A1_In_N*%
X101320000Y-65295000D02*
X102650000Y-65295000D01*
X101320000Y-66625000D02*
X101320000Y-65295000D01*
X101320000Y-67895000D02*
X101320000Y-67955000D01*
X101320000Y-67895000D02*
X103980000Y-67895000D01*
X101320000Y-67955000D02*
X103980000Y-67955000D01*
X103980000Y-67895000D02*
X103980000Y-67955000D01*
%TO.C,C5*%
X129980000Y-74255000D02*
X129980000Y-81695000D01*
X129980000Y-74255000D02*
X137420000Y-74255000D01*
X129980000Y-81695000D02*
X137420000Y-81695000D01*
X137420000Y-74255000D02*
X137420000Y-81695000D01*
%TO.C,R3*%
X145805000Y-64205000D02*
X145805000Y-70745000D01*
X145805000Y-70745000D02*
X148545000Y-70745000D01*
X147175000Y-63435000D02*
X147175000Y-64205000D01*
X147175000Y-71515000D02*
X147175000Y-70745000D01*
X148545000Y-64205000D02*
X145805000Y-64205000D01*
X148545000Y-70745000D02*
X148545000Y-64205000D01*
%TO.C,R1*%
X110835000Y-71575000D02*
X111605000Y-71575000D01*
X111605000Y-70205000D02*
X111605000Y-72945000D01*
X111605000Y-72945000D02*
X118145000Y-72945000D01*
X118145000Y-70205000D02*
X111605000Y-70205000D01*
X118145000Y-72945000D02*
X118145000Y-70205000D01*
X118915000Y-71575000D02*
X118145000Y-71575000D01*
%TO.C,U2*%
X131210000Y-82795000D02*
X131210000Y-93075000D01*
X131210000Y-93075000D02*
X136510000Y-93075000D01*
X132860000Y-82795000D02*
X131210000Y-82795000D01*
X136510000Y-82795000D02*
X134860000Y-82795000D01*
X136510000Y-93075000D02*
X136510000Y-82795000D01*
X134860000Y-82795000D02*
G75*
G02*
X132860000Y-82795000I-1000000J0D01*
G01*
%TO.C,V_In1*%
X155370000Y-91420000D02*
X156700000Y-91420000D01*
X155370000Y-92750000D02*
X155370000Y-91420000D01*
X155370000Y-94020000D02*
X155370000Y-94080000D01*
X155370000Y-94020000D02*
X158030000Y-94020000D01*
X155370000Y-94080000D02*
X158030000Y-94080000D01*
X158030000Y-94020000D02*
X158030000Y-94080000D01*
%TO.C,GND*%
X101270000Y-73570000D02*
X102600000Y-73570000D01*
X101270000Y-74900000D02*
X101270000Y-73570000D01*
X101270000Y-76170000D02*
X101270000Y-76230000D01*
X101270000Y-76170000D02*
X103930000Y-76170000D01*
X101270000Y-76230000D02*
X103930000Y-76230000D01*
X103930000Y-76170000D02*
X103930000Y-76230000D01*
%TO.C,GND2*%
X163145000Y-91470000D02*
X164475000Y-91470000D01*
X163145000Y-92800000D02*
X163145000Y-91470000D01*
X163145000Y-94070000D02*
X163145000Y-94130000D01*
X163145000Y-94070000D02*
X165805000Y-94070000D01*
X163145000Y-94130000D02*
X165805000Y-94130000D01*
X165805000Y-94070000D02*
X165805000Y-94130000D01*
%TO.C,V_Out*%
X120895000Y-95995000D02*
X122225000Y-95995000D01*
X120895000Y-97325000D02*
X120895000Y-95995000D01*
X120895000Y-98595000D02*
X120895000Y-98655000D01*
X120895000Y-98595000D02*
X123555000Y-98595000D01*
X120895000Y-98655000D02*
X123555000Y-98655000D01*
X123555000Y-98595000D02*
X123555000Y-98655000D01*
%TO.C,R5*%
X123305000Y-84330000D02*
X123305000Y-90870000D01*
X123305000Y-90870000D02*
X126045000Y-90870000D01*
X124675000Y-83560000D02*
X124675000Y-84330000D01*
X124675000Y-91640000D02*
X124675000Y-90870000D01*
X126045000Y-84330000D02*
X123305000Y-84330000D01*
X126045000Y-90870000D02*
X126045000Y-84330000D01*
%TO.C,A2_Out*%
X114420000Y-95870000D02*
X115750000Y-95870000D01*
X114420000Y-97200000D02*
X114420000Y-95870000D01*
X114420000Y-98470000D02*
X114420000Y-98530000D01*
X114420000Y-98470000D02*
X117080000Y-98470000D01*
X114420000Y-98530000D02*
X117080000Y-98530000D01*
X117080000Y-98470000D02*
X117080000Y-98530000D01*
%TO.C,D1*%
X124210000Y-54080000D02*
X124210000Y-57170000D01*
X124210001Y-54080170D02*
G75*
G02*
X129759999Y-55625462I2559999J-1544830D01*
G01*
X129760000Y-55624538D02*
G75*
G02*
X124210000Y-57169830I-2990000J-462D01*
G01*
X129270000Y-55625000D02*
G75*
G02*
X124270000Y-55625000I-2500000J0D01*
G01*
X124270000Y-55625000D02*
G75*
G02*
X129270000Y-55625000I2500000J0D01*
G01*
%TO.C,SW1*%
X155425000Y-55850000D02*
X155425000Y-57350000D01*
X156675000Y-59850000D02*
X161175000Y-59850000D01*
X161175000Y-53350000D02*
X156675000Y-53350000D01*
X162425000Y-57350000D02*
X162425000Y-55850000D01*
%TO.C,C1*%
X118705000Y-84305000D02*
X121445000Y-84305000D01*
X118705000Y-91745000D02*
X118705000Y-84305000D01*
X118705000Y-91745000D02*
X121445000Y-91745000D01*
X121445000Y-91745000D02*
X121445000Y-84305000D01*
%TO.C,A1_Out*%
X101420000Y-81145000D02*
X102750000Y-81145000D01*
X101420000Y-82475000D02*
X101420000Y-81145000D01*
X101420000Y-83745000D02*
X101420000Y-83805000D01*
X101420000Y-83745000D02*
X104080000Y-83745000D01*
X101420000Y-83805000D02*
X104080000Y-83805000D01*
X104080000Y-83745000D02*
X104080000Y-83805000D01*
%TO.C,R7*%
X142910000Y-85775000D02*
X143680000Y-85775000D01*
X143680000Y-84405000D02*
X143680000Y-87145000D01*
X143680000Y-87145000D02*
X150220000Y-87145000D01*
X150220000Y-84405000D02*
X143680000Y-84405000D01*
X150220000Y-87145000D02*
X150220000Y-84405000D01*
X150990000Y-85775000D02*
X150220000Y-85775000D01*
%TO.C,R11*%
X157535000Y-80200000D02*
X158305000Y-80200000D01*
X158305000Y-78830000D02*
X158305000Y-81570000D01*
X158305000Y-81570000D02*
X164845000Y-81570000D01*
X164845000Y-78830000D02*
X158305000Y-78830000D01*
X164845000Y-81570000D02*
X164845000Y-78830000D01*
X165615000Y-80200000D02*
X164845000Y-80200000D01*
%TO.C,R4*%
X142030000Y-64155000D02*
X142030000Y-70695000D01*
X142030000Y-70695000D02*
X144770000Y-70695000D01*
X143400000Y-63385000D02*
X143400000Y-64155000D01*
X143400000Y-71465000D02*
X143400000Y-70695000D01*
X144770000Y-64155000D02*
X142030000Y-64155000D01*
X144770000Y-70695000D02*
X144770000Y-64155000D01*
%TO.C,R6*%
X142885000Y-91875000D02*
X143655000Y-91875000D01*
X143655000Y-90505000D02*
X143655000Y-93245000D01*
X143655000Y-93245000D02*
X150195000Y-93245000D01*
X150195000Y-90505000D02*
X143655000Y-90505000D01*
X150195000Y-93245000D02*
X150195000Y-90505000D01*
X150965000Y-91875000D02*
X150195000Y-91875000D01*
%TO.C,R2*%
X124830000Y-62630000D02*
X124830000Y-69170000D01*
X124830000Y-69170000D02*
X127570000Y-69170000D01*
X126200000Y-61860000D02*
X126200000Y-62630000D01*
X126200000Y-69940000D02*
X126200000Y-69170000D01*
X127570000Y-62630000D02*
X124830000Y-62630000D01*
X127570000Y-69170000D02*
X127570000Y-62630000D01*
%TO.C,GND*%
X101570000Y-57770000D02*
X102900000Y-57770000D01*
X101570000Y-59100000D02*
X101570000Y-57770000D01*
X101570000Y-60370000D02*
X101570000Y-60430000D01*
X101570000Y-60370000D02*
X104230000Y-60370000D01*
X101570000Y-60430000D02*
X104230000Y-60430000D01*
X104230000Y-60370000D02*
X104230000Y-60430000D01*
%TO.C,C3*%
X149815113Y-69175000D02*
X150315113Y-69175000D01*
X150065113Y-68925000D02*
X150065113Y-69425000D01*
X152619888Y-68070000D02*
X152619888Y-73230000D01*
X152659888Y-68070000D02*
X152659888Y-73230000D01*
X152699888Y-68071000D02*
X152699888Y-73229000D01*
X152739888Y-68072000D02*
X152739888Y-73228000D01*
X152779888Y-68074000D02*
X152779888Y-73226000D01*
X152819888Y-68077000D02*
X152819888Y-73223000D01*
X152859888Y-68081000D02*
X152859888Y-69610000D01*
X152859888Y-71690000D02*
X152859888Y-73219000D01*
X152899888Y-68085000D02*
X152899888Y-69610000D01*
X152899888Y-71690000D02*
X152899888Y-73215000D01*
X152939888Y-68089000D02*
X152939888Y-69610000D01*
X152939888Y-71690000D02*
X152939888Y-73211000D01*
X152979888Y-68094000D02*
X152979888Y-69610000D01*
X152979888Y-71690000D02*
X152979888Y-73206000D01*
X153019888Y-68100000D02*
X153019888Y-69610000D01*
X153019888Y-71690000D02*
X153019888Y-73200000D01*
X153059888Y-68107000D02*
X153059888Y-69610000D01*
X153059888Y-71690000D02*
X153059888Y-73193000D01*
X153099888Y-68114000D02*
X153099888Y-69610000D01*
X153099888Y-71690000D02*
X153099888Y-73186000D01*
X153139888Y-68122000D02*
X153139888Y-69610000D01*
X153139888Y-71690000D02*
X153139888Y-73178000D01*
X153179888Y-68130000D02*
X153179888Y-69610000D01*
X153179888Y-71690000D02*
X153179888Y-73170000D01*
X153219888Y-68139000D02*
X153219888Y-69610000D01*
X153219888Y-71690000D02*
X153219888Y-73161000D01*
X153259888Y-68149000D02*
X153259888Y-69610000D01*
X153259888Y-71690000D02*
X153259888Y-73151000D01*
X153299888Y-68159000D02*
X153299888Y-69610000D01*
X153299888Y-71690000D02*
X153299888Y-73141000D01*
X153340888Y-68170000D02*
X153340888Y-69610000D01*
X153340888Y-71690000D02*
X153340888Y-73130000D01*
X153380888Y-68182000D02*
X153380888Y-69610000D01*
X153380888Y-71690000D02*
X153380888Y-73118000D01*
X153420888Y-68195000D02*
X153420888Y-69610000D01*
X153420888Y-71690000D02*
X153420888Y-73105000D01*
X153460888Y-68208000D02*
X153460888Y-69610000D01*
X153460888Y-71690000D02*
X153460888Y-73092000D01*
X153500888Y-68222000D02*
X153500888Y-69610000D01*
X153500888Y-71690000D02*
X153500888Y-73078000D01*
X153540888Y-68236000D02*
X153540888Y-69610000D01*
X153540888Y-71690000D02*
X153540888Y-73064000D01*
X153580888Y-68252000D02*
X153580888Y-69610000D01*
X153580888Y-71690000D02*
X153580888Y-73048000D01*
X153620888Y-68268000D02*
X153620888Y-69610000D01*
X153620888Y-71690000D02*
X153620888Y-73032000D01*
X153660888Y-68285000D02*
X153660888Y-69610000D01*
X153660888Y-71690000D02*
X153660888Y-73015000D01*
X153700888Y-68302000D02*
X153700888Y-69610000D01*
X153700888Y-71690000D02*
X153700888Y-72998000D01*
X153740888Y-68321000D02*
X153740888Y-69610000D01*
X153740888Y-71690000D02*
X153740888Y-72979000D01*
X153780888Y-68340000D02*
X153780888Y-69610000D01*
X153780888Y-71690000D02*
X153780888Y-72960000D01*
X153820888Y-68360000D02*
X153820888Y-69610000D01*
X153820888Y-71690000D02*
X153820888Y-72940000D01*
X153860888Y-68382000D02*
X153860888Y-69610000D01*
X153860888Y-71690000D02*
X153860888Y-72918000D01*
X153900888Y-68403000D02*
X153900888Y-69610000D01*
X153900888Y-71690000D02*
X153900888Y-72897000D01*
X153940888Y-68426000D02*
X153940888Y-69610000D01*
X153940888Y-71690000D02*
X153940888Y-72874000D01*
X153980888Y-68450000D02*
X153980888Y-69610000D01*
X153980888Y-71690000D02*
X153980888Y-72850000D01*
X154020888Y-68475000D02*
X154020888Y-69610000D01*
X154020888Y-71690000D02*
X154020888Y-72825000D01*
X154060888Y-68501000D02*
X154060888Y-69610000D01*
X154060888Y-71690000D02*
X154060888Y-72799000D01*
X154100888Y-68528000D02*
X154100888Y-69610000D01*
X154100888Y-71690000D02*
X154100888Y-72772000D01*
X154140888Y-68555000D02*
X154140888Y-69610000D01*
X154140888Y-71690000D02*
X154140888Y-72745000D01*
X154180888Y-68585000D02*
X154180888Y-69610000D01*
X154180888Y-71690000D02*
X154180888Y-72715000D01*
X154220888Y-68615000D02*
X154220888Y-69610000D01*
X154220888Y-71690000D02*
X154220888Y-72685000D01*
X154260888Y-68646000D02*
X154260888Y-69610000D01*
X154260888Y-71690000D02*
X154260888Y-72654000D01*
X154300888Y-68679000D02*
X154300888Y-69610000D01*
X154300888Y-71690000D02*
X154300888Y-72621000D01*
X154340888Y-68713000D02*
X154340888Y-69610000D01*
X154340888Y-71690000D02*
X154340888Y-72587000D01*
X154380888Y-68749000D02*
X154380888Y-69610000D01*
X154380888Y-71690000D02*
X154380888Y-72551000D01*
X154420888Y-68786000D02*
X154420888Y-69610000D01*
X154420888Y-71690000D02*
X154420888Y-72514000D01*
X154460888Y-68824000D02*
X154460888Y-69610000D01*
X154460888Y-71690000D02*
X154460888Y-72476000D01*
X154500888Y-68865000D02*
X154500888Y-69610000D01*
X154500888Y-71690000D02*
X154500888Y-72435000D01*
X154540888Y-68907000D02*
X154540888Y-69610000D01*
X154540888Y-71690000D02*
X154540888Y-72393000D01*
X154580888Y-68951000D02*
X154580888Y-69610000D01*
X154580888Y-71690000D02*
X154580888Y-72349000D01*
X154620888Y-68997000D02*
X154620888Y-69610000D01*
X154620888Y-71690000D02*
X154620888Y-72303000D01*
X154660888Y-69045000D02*
X154660888Y-69610000D01*
X154660888Y-71690000D02*
X154660888Y-72255000D01*
X154700888Y-69096000D02*
X154700888Y-69610000D01*
X154700888Y-71690000D02*
X154700888Y-72204000D01*
X154740888Y-69150000D02*
X154740888Y-69610000D01*
X154740888Y-71690000D02*
X154740888Y-72150000D01*
X154780888Y-69207000D02*
X154780888Y-69610000D01*
X154780888Y-71690000D02*
X154780888Y-72093000D01*
X154820888Y-69267000D02*
X154820888Y-69610000D01*
X154820888Y-71690000D02*
X154820888Y-72033000D01*
X154860888Y-69331000D02*
X154860888Y-69610000D01*
X154860888Y-71690000D02*
X154860888Y-71969000D01*
X154900888Y-69399000D02*
X154900888Y-69610000D01*
X154900888Y-71690000D02*
X154900888Y-71901000D01*
X154940888Y-69472000D02*
X154940888Y-71828000D01*
X154980888Y-69552000D02*
X154980888Y-71748000D01*
X155020888Y-69639000D02*
X155020888Y-71661000D01*
X155060888Y-69735000D02*
X155060888Y-71565000D01*
X155100888Y-69845000D02*
X155100888Y-71455000D01*
X155140888Y-69973000D02*
X155140888Y-71327000D01*
X155180888Y-70132000D02*
X155180888Y-71168000D01*
X155220888Y-70366000D02*
X155220888Y-70934000D01*
X155239888Y-70650000D02*
G75*
G02*
X149999888Y-70650000I-2620000J0D01*
G01*
X149999888Y-70650000D02*
G75*
G02*
X155239888Y-70650000I2620000J0D01*
G01*
%TO.C,D4*%
X159460000Y-84505000D02*
X159460000Y-87595000D01*
X159460001Y-84505170D02*
G75*
G02*
X165009999Y-86050462I2559999J-1544830D01*
G01*
X165010000Y-86049538D02*
G75*
G02*
X159460000Y-87594830I-2990000J-462D01*
G01*
X164520000Y-86050000D02*
G75*
G02*
X159520000Y-86050000I-2500000J0D01*
G01*
X159520000Y-86050000D02*
G75*
G02*
X164520000Y-86050000I2500000J0D01*
G01*
%TO.C,R12*%
X155585000Y-63875000D02*
X156355000Y-63875000D01*
X156355000Y-62505000D02*
X156355000Y-65245000D01*
X156355000Y-65245000D02*
X162895000Y-65245000D01*
X162895000Y-62505000D02*
X156355000Y-62505000D01*
X162895000Y-65245000D02*
X162895000Y-62505000D01*
X163665000Y-63875000D02*
X162895000Y-63875000D01*
%TO.C,A2_In_N*%
X101870000Y-95695000D02*
X103200000Y-95695000D01*
X101870000Y-97025000D02*
X101870000Y-95695000D01*
X101870000Y-98295000D02*
X101870000Y-98355000D01*
X101870000Y-98295000D02*
X104530000Y-98295000D01*
X101870000Y-98355000D02*
X104530000Y-98355000D01*
X104530000Y-98295000D02*
X104530000Y-98355000D01*
%TO.C,R8*%
X111005000Y-55725000D02*
X111775000Y-55725000D01*
X111775000Y-54355000D02*
X111775000Y-57095000D01*
X111775000Y-57095000D02*
X118315000Y-57095000D01*
X118315000Y-54355000D02*
X111775000Y-54355000D01*
X118315000Y-57095000D02*
X118315000Y-54355000D01*
X119085000Y-55725000D02*
X118315000Y-55725000D01*
%TO.C,C6*%
X142955000Y-82120000D02*
X142955000Y-74680000D01*
X150395000Y-74680000D02*
X142955000Y-74680000D01*
X150395000Y-82120000D02*
X142955000Y-82120000D01*
X150395000Y-82120000D02*
X150395000Y-74680000D01*
%TO.C,C4*%
X114515113Y-76225000D02*
X115015113Y-76225000D01*
X114765113Y-75975000D02*
X114765113Y-76475000D01*
X117319888Y-75120000D02*
X117319888Y-80280000D01*
X117359888Y-75120000D02*
X117359888Y-80280000D01*
X117399888Y-75121000D02*
X117399888Y-80279000D01*
X117439888Y-75122000D02*
X117439888Y-80278000D01*
X117479888Y-75124000D02*
X117479888Y-80276000D01*
X117519888Y-75127000D02*
X117519888Y-80273000D01*
X117559888Y-75131000D02*
X117559888Y-76660000D01*
X117559888Y-78740000D02*
X117559888Y-80269000D01*
X117599888Y-75135000D02*
X117599888Y-76660000D01*
X117599888Y-78740000D02*
X117599888Y-80265000D01*
X117639888Y-75139000D02*
X117639888Y-76660000D01*
X117639888Y-78740000D02*
X117639888Y-80261000D01*
X117679888Y-75144000D02*
X117679888Y-76660000D01*
X117679888Y-78740000D02*
X117679888Y-80256000D01*
X117719888Y-75150000D02*
X117719888Y-76660000D01*
X117719888Y-78740000D02*
X117719888Y-80250000D01*
X117759888Y-75157000D02*
X117759888Y-76660000D01*
X117759888Y-78740000D02*
X117759888Y-80243000D01*
X117799888Y-75164000D02*
X117799888Y-76660000D01*
X117799888Y-78740000D02*
X117799888Y-80236000D01*
X117839888Y-75172000D02*
X117839888Y-76660000D01*
X117839888Y-78740000D02*
X117839888Y-80228000D01*
X117879888Y-75180000D02*
X117879888Y-76660000D01*
X117879888Y-78740000D02*
X117879888Y-80220000D01*
X117919888Y-75189000D02*
X117919888Y-76660000D01*
X117919888Y-78740000D02*
X117919888Y-80211000D01*
X117959888Y-75199000D02*
X117959888Y-76660000D01*
X117959888Y-78740000D02*
X117959888Y-80201000D01*
X117999888Y-75209000D02*
X117999888Y-76660000D01*
X117999888Y-78740000D02*
X117999888Y-80191000D01*
X118040888Y-75220000D02*
X118040888Y-76660000D01*
X118040888Y-78740000D02*
X118040888Y-80180000D01*
X118080888Y-75232000D02*
X118080888Y-76660000D01*
X118080888Y-78740000D02*
X118080888Y-80168000D01*
X118120888Y-75245000D02*
X118120888Y-76660000D01*
X118120888Y-78740000D02*
X118120888Y-80155000D01*
X118160888Y-75258000D02*
X118160888Y-76660000D01*
X118160888Y-78740000D02*
X118160888Y-80142000D01*
X118200888Y-75272000D02*
X118200888Y-76660000D01*
X118200888Y-78740000D02*
X118200888Y-80128000D01*
X118240888Y-75286000D02*
X118240888Y-76660000D01*
X118240888Y-78740000D02*
X118240888Y-80114000D01*
X118280888Y-75302000D02*
X118280888Y-76660000D01*
X118280888Y-78740000D02*
X118280888Y-80098000D01*
X118320888Y-75318000D02*
X118320888Y-76660000D01*
X118320888Y-78740000D02*
X118320888Y-80082000D01*
X118360888Y-75335000D02*
X118360888Y-76660000D01*
X118360888Y-78740000D02*
X118360888Y-80065000D01*
X118400888Y-75352000D02*
X118400888Y-76660000D01*
X118400888Y-78740000D02*
X118400888Y-80048000D01*
X118440888Y-75371000D02*
X118440888Y-76660000D01*
X118440888Y-78740000D02*
X118440888Y-80029000D01*
X118480888Y-75390000D02*
X118480888Y-76660000D01*
X118480888Y-78740000D02*
X118480888Y-80010000D01*
X118520888Y-75410000D02*
X118520888Y-76660000D01*
X118520888Y-78740000D02*
X118520888Y-79990000D01*
X118560888Y-75432000D02*
X118560888Y-76660000D01*
X118560888Y-78740000D02*
X118560888Y-79968000D01*
X118600888Y-75453000D02*
X118600888Y-76660000D01*
X118600888Y-78740000D02*
X118600888Y-79947000D01*
X118640888Y-75476000D02*
X118640888Y-76660000D01*
X118640888Y-78740000D02*
X118640888Y-79924000D01*
X118680888Y-75500000D02*
X118680888Y-76660000D01*
X118680888Y-78740000D02*
X118680888Y-79900000D01*
X118720888Y-75525000D02*
X118720888Y-76660000D01*
X118720888Y-78740000D02*
X118720888Y-79875000D01*
X118760888Y-75551000D02*
X118760888Y-76660000D01*
X118760888Y-78740000D02*
X118760888Y-79849000D01*
X118800888Y-75578000D02*
X118800888Y-76660000D01*
X118800888Y-78740000D02*
X118800888Y-79822000D01*
X118840888Y-75605000D02*
X118840888Y-76660000D01*
X118840888Y-78740000D02*
X118840888Y-79795000D01*
X118880888Y-75635000D02*
X118880888Y-76660000D01*
X118880888Y-78740000D02*
X118880888Y-79765000D01*
X118920888Y-75665000D02*
X118920888Y-76660000D01*
X118920888Y-78740000D02*
X118920888Y-79735000D01*
X118960888Y-75696000D02*
X118960888Y-76660000D01*
X118960888Y-78740000D02*
X118960888Y-79704000D01*
X119000888Y-75729000D02*
X119000888Y-76660000D01*
X119000888Y-78740000D02*
X119000888Y-79671000D01*
X119040888Y-75763000D02*
X119040888Y-76660000D01*
X119040888Y-78740000D02*
X119040888Y-79637000D01*
X119080888Y-75799000D02*
X119080888Y-76660000D01*
X119080888Y-78740000D02*
X119080888Y-79601000D01*
X119120888Y-75836000D02*
X119120888Y-76660000D01*
X119120888Y-78740000D02*
X119120888Y-79564000D01*
X119160888Y-75874000D02*
X119160888Y-76660000D01*
X119160888Y-78740000D02*
X119160888Y-79526000D01*
X119200888Y-75915000D02*
X119200888Y-76660000D01*
X119200888Y-78740000D02*
X119200888Y-79485000D01*
X119240888Y-75957000D02*
X119240888Y-76660000D01*
X119240888Y-78740000D02*
X119240888Y-79443000D01*
X119280888Y-76001000D02*
X119280888Y-76660000D01*
X119280888Y-78740000D02*
X119280888Y-79399000D01*
X119320888Y-76047000D02*
X119320888Y-76660000D01*
X119320888Y-78740000D02*
X119320888Y-79353000D01*
X119360888Y-76095000D02*
X119360888Y-76660000D01*
X119360888Y-78740000D02*
X119360888Y-79305000D01*
X119400888Y-76146000D02*
X119400888Y-76660000D01*
X119400888Y-78740000D02*
X119400888Y-79254000D01*
X119440888Y-76200000D02*
X119440888Y-76660000D01*
X119440888Y-78740000D02*
X119440888Y-79200000D01*
X119480888Y-76257000D02*
X119480888Y-76660000D01*
X119480888Y-78740000D02*
X119480888Y-79143000D01*
X119520888Y-76317000D02*
X119520888Y-76660000D01*
X119520888Y-78740000D02*
X119520888Y-79083000D01*
X119560888Y-76381000D02*
X119560888Y-76660000D01*
X119560888Y-78740000D02*
X119560888Y-79019000D01*
X119600888Y-76449000D02*
X119600888Y-76660000D01*
X119600888Y-78740000D02*
X119600888Y-78951000D01*
X119640888Y-76522000D02*
X119640888Y-78878000D01*
X119680888Y-76602000D02*
X119680888Y-78798000D01*
X119720888Y-76689000D02*
X119720888Y-78711000D01*
X119760888Y-76785000D02*
X119760888Y-78615000D01*
X119800888Y-76895000D02*
X119800888Y-78505000D01*
X119840888Y-77023000D02*
X119840888Y-78377000D01*
X119880888Y-77182000D02*
X119880888Y-78218000D01*
X119920888Y-77416000D02*
X119920888Y-77984000D01*
X119939888Y-77700000D02*
G75*
G02*
X114699888Y-77700000I-2620000J0D01*
G01*
X114699888Y-77700000D02*
G75*
G02*
X119939888Y-77700000I2620000J0D01*
G01*
%TO.C,J5*%
X156915000Y-75205000D02*
X156915000Y-73875000D01*
X158025000Y-75205000D02*
X156915000Y-75205000D01*
X159485000Y-68435000D02*
X159075000Y-68435000D01*
X159485000Y-69155000D02*
X159075000Y-69155000D01*
X159485000Y-70975000D02*
X159075000Y-70975000D01*
X159485000Y-71695000D02*
X159075000Y-71695000D01*
X159485000Y-73515000D02*
X159135000Y-73515000D01*
X159485000Y-74235000D02*
X159135000Y-74235000D01*
X159485000Y-75205000D02*
X159485000Y-67465000D01*
X168115000Y-67465000D02*
X159485000Y-67465000D01*
X168115000Y-70065000D02*
X159485000Y-70065000D01*
X168115000Y-72605000D02*
X159485000Y-72605000D01*
X168115000Y-72723100D02*
X159485000Y-72723100D01*
X168115000Y-72841195D02*
X159485000Y-72841195D01*
X168115000Y-72959290D02*
X159485000Y-72959290D01*
X168115000Y-73077385D02*
X159485000Y-73077385D01*
X168115000Y-73195480D02*
X159485000Y-73195480D01*
X168115000Y-73313575D02*
X159485000Y-73313575D01*
X168115000Y-73431670D02*
X159485000Y-73431670D01*
X168115000Y-73549765D02*
X159485000Y-73549765D01*
X168115000Y-73667860D02*
X159485000Y-73667860D01*
X168115000Y-73785955D02*
X159485000Y-73785955D01*
X168115000Y-73904050D02*
X159485000Y-73904050D01*
X168115000Y-74022145D02*
X159485000Y-74022145D01*
X168115000Y-74140240D02*
X159485000Y-74140240D01*
X168115000Y-74258335D02*
X159485000Y-74258335D01*
X168115000Y-74376430D02*
X159485000Y-74376430D01*
X168115000Y-74494525D02*
X159485000Y-74494525D01*
X168115000Y-74612620D02*
X159485000Y-74612620D01*
X168115000Y-74730715D02*
X159485000Y-74730715D01*
X168115000Y-74848810D02*
X159485000Y-74848810D01*
X168115000Y-74966905D02*
X159485000Y-74966905D01*
X168115000Y-75085000D02*
X159485000Y-75085000D01*
X168115000Y-75205000D02*
X159485000Y-75205000D01*
X168115000Y-75205000D02*
X168115000Y-67465000D01*
%TD*%
M02*
