%TF.GenerationSoftware,KiCad,Pcbnew,8.0.1*%
%TF.CreationDate,2024-05-19T12:18:13+02:00*%
%TF.ProjectId,80_KiCad,38305f4b-6943-4616-942e-6b696361645f,v1.1*%
%TF.SameCoordinates,Original*%
%TF.FileFunction,Legend,Top*%
%TF.FilePolarity,Positive*%
%FSLAX46Y46*%
G04 Gerber Fmt 4.6, Leading zero omitted, Abs format (unit mm)*
G04 Created by KiCad (PCBNEW 8.0.1) date 2024-05-19 12:18:13*
%MOMM*%
%LPD*%
G01*
G04 APERTURE LIST*
%ADD10C,0.150000*%
%ADD11C,0.120000*%
G04 APERTURE END LIST*
D10*
X110889987Y-91638220D02*
X109889987Y-91638220D01*
X109889987Y-91638220D02*
X110604272Y-91304887D01*
X110604272Y-91304887D02*
X109889987Y-90971554D01*
X109889987Y-90971554D02*
X110889987Y-90971554D01*
X110889987Y-90352506D02*
X110842368Y-90447744D01*
X110842368Y-90447744D02*
X110794748Y-90495363D01*
X110794748Y-90495363D02*
X110699510Y-90542982D01*
X110699510Y-90542982D02*
X110413796Y-90542982D01*
X110413796Y-90542982D02*
X110318558Y-90495363D01*
X110318558Y-90495363D02*
X110270939Y-90447744D01*
X110270939Y-90447744D02*
X110223320Y-90352506D01*
X110223320Y-90352506D02*
X110223320Y-90209649D01*
X110223320Y-90209649D02*
X110270939Y-90114411D01*
X110270939Y-90114411D02*
X110318558Y-90066792D01*
X110318558Y-90066792D02*
X110413796Y-90019173D01*
X110413796Y-90019173D02*
X110699510Y-90019173D01*
X110699510Y-90019173D02*
X110794748Y-90066792D01*
X110794748Y-90066792D02*
X110842368Y-90114411D01*
X110842368Y-90114411D02*
X110889987Y-90209649D01*
X110889987Y-90209649D02*
X110889987Y-90352506D01*
X110223320Y-89685839D02*
X110889987Y-89447744D01*
X110889987Y-89447744D02*
X110223320Y-89209649D01*
X110842368Y-88447744D02*
X110889987Y-88542982D01*
X110889987Y-88542982D02*
X110889987Y-88733458D01*
X110889987Y-88733458D02*
X110842368Y-88828696D01*
X110842368Y-88828696D02*
X110747129Y-88876315D01*
X110747129Y-88876315D02*
X110366177Y-88876315D01*
X110366177Y-88876315D02*
X110270939Y-88828696D01*
X110270939Y-88828696D02*
X110223320Y-88733458D01*
X110223320Y-88733458D02*
X110223320Y-88542982D01*
X110223320Y-88542982D02*
X110270939Y-88447744D01*
X110270939Y-88447744D02*
X110366177Y-88400125D01*
X110366177Y-88400125D02*
X110461415Y-88400125D01*
X110461415Y-88400125D02*
X110556653Y-88876315D01*
X110889987Y-87971553D02*
X110223320Y-87971553D01*
X110318558Y-87971553D02*
X110270939Y-87923934D01*
X110270939Y-87923934D02*
X110223320Y-87828696D01*
X110223320Y-87828696D02*
X110223320Y-87685839D01*
X110223320Y-87685839D02*
X110270939Y-87590601D01*
X110270939Y-87590601D02*
X110366177Y-87542982D01*
X110366177Y-87542982D02*
X110889987Y-87542982D01*
X110366177Y-87542982D02*
X110270939Y-87495363D01*
X110270939Y-87495363D02*
X110223320Y-87400125D01*
X110223320Y-87400125D02*
X110223320Y-87257268D01*
X110223320Y-87257268D02*
X110270939Y-87162029D01*
X110270939Y-87162029D02*
X110366177Y-87114410D01*
X110366177Y-87114410D02*
X110889987Y-87114410D01*
X110842368Y-86257268D02*
X110889987Y-86352506D01*
X110889987Y-86352506D02*
X110889987Y-86542982D01*
X110889987Y-86542982D02*
X110842368Y-86638220D01*
X110842368Y-86638220D02*
X110747129Y-86685839D01*
X110747129Y-86685839D02*
X110366177Y-86685839D01*
X110366177Y-86685839D02*
X110270939Y-86638220D01*
X110270939Y-86638220D02*
X110223320Y-86542982D01*
X110223320Y-86542982D02*
X110223320Y-86352506D01*
X110223320Y-86352506D02*
X110270939Y-86257268D01*
X110270939Y-86257268D02*
X110366177Y-86209649D01*
X110366177Y-86209649D02*
X110461415Y-86209649D01*
X110461415Y-86209649D02*
X110556653Y-86685839D01*
X110223320Y-85781077D02*
X110889987Y-85781077D01*
X110318558Y-85781077D02*
X110270939Y-85733458D01*
X110270939Y-85733458D02*
X110223320Y-85638220D01*
X110223320Y-85638220D02*
X110223320Y-85495363D01*
X110223320Y-85495363D02*
X110270939Y-85400125D01*
X110270939Y-85400125D02*
X110366177Y-85352506D01*
X110366177Y-85352506D02*
X110889987Y-85352506D01*
X110223320Y-85019172D02*
X110223320Y-84638220D01*
X109889987Y-84876315D02*
X110747129Y-84876315D01*
X110747129Y-84876315D02*
X110842368Y-84828696D01*
X110842368Y-84828696D02*
X110889987Y-84733458D01*
X110889987Y-84733458D02*
X110889987Y-84638220D01*
X110889987Y-83542981D02*
X109889987Y-83542981D01*
X109889987Y-83542981D02*
X109889987Y-83304886D01*
X109889987Y-83304886D02*
X109937606Y-83162029D01*
X109937606Y-83162029D02*
X110032844Y-83066791D01*
X110032844Y-83066791D02*
X110128082Y-83019172D01*
X110128082Y-83019172D02*
X110318558Y-82971553D01*
X110318558Y-82971553D02*
X110461415Y-82971553D01*
X110461415Y-82971553D02*
X110651891Y-83019172D01*
X110651891Y-83019172D02*
X110747129Y-83066791D01*
X110747129Y-83066791D02*
X110842368Y-83162029D01*
X110842368Y-83162029D02*
X110889987Y-83304886D01*
X110889987Y-83304886D02*
X110889987Y-83542981D01*
X110842368Y-82162029D02*
X110889987Y-82257267D01*
X110889987Y-82257267D02*
X110889987Y-82447743D01*
X110889987Y-82447743D02*
X110842368Y-82542981D01*
X110842368Y-82542981D02*
X110747129Y-82590600D01*
X110747129Y-82590600D02*
X110366177Y-82590600D01*
X110366177Y-82590600D02*
X110270939Y-82542981D01*
X110270939Y-82542981D02*
X110223320Y-82447743D01*
X110223320Y-82447743D02*
X110223320Y-82257267D01*
X110223320Y-82257267D02*
X110270939Y-82162029D01*
X110270939Y-82162029D02*
X110366177Y-82114410D01*
X110366177Y-82114410D02*
X110461415Y-82114410D01*
X110461415Y-82114410D02*
X110556653Y-82590600D01*
X110223320Y-81828695D02*
X110223320Y-81447743D01*
X109889987Y-81685838D02*
X110747129Y-81685838D01*
X110747129Y-81685838D02*
X110842368Y-81638219D01*
X110842368Y-81638219D02*
X110889987Y-81542981D01*
X110889987Y-81542981D02*
X110889987Y-81447743D01*
X110842368Y-80733457D02*
X110889987Y-80828695D01*
X110889987Y-80828695D02*
X110889987Y-81019171D01*
X110889987Y-81019171D02*
X110842368Y-81114409D01*
X110842368Y-81114409D02*
X110747129Y-81162028D01*
X110747129Y-81162028D02*
X110366177Y-81162028D01*
X110366177Y-81162028D02*
X110270939Y-81114409D01*
X110270939Y-81114409D02*
X110223320Y-81019171D01*
X110223320Y-81019171D02*
X110223320Y-80828695D01*
X110223320Y-80828695D02*
X110270939Y-80733457D01*
X110270939Y-80733457D02*
X110366177Y-80685838D01*
X110366177Y-80685838D02*
X110461415Y-80685838D01*
X110461415Y-80685838D02*
X110556653Y-81162028D01*
X110842368Y-79828695D02*
X110889987Y-79923933D01*
X110889987Y-79923933D02*
X110889987Y-80114409D01*
X110889987Y-80114409D02*
X110842368Y-80209647D01*
X110842368Y-80209647D02*
X110794748Y-80257266D01*
X110794748Y-80257266D02*
X110699510Y-80304885D01*
X110699510Y-80304885D02*
X110413796Y-80304885D01*
X110413796Y-80304885D02*
X110318558Y-80257266D01*
X110318558Y-80257266D02*
X110270939Y-80209647D01*
X110270939Y-80209647D02*
X110223320Y-80114409D01*
X110223320Y-80114409D02*
X110223320Y-79923933D01*
X110223320Y-79923933D02*
X110270939Y-79828695D01*
X110223320Y-79542980D02*
X110223320Y-79162028D01*
X109889987Y-79400123D02*
X110747129Y-79400123D01*
X110747129Y-79400123D02*
X110842368Y-79352504D01*
X110842368Y-79352504D02*
X110889987Y-79257266D01*
X110889987Y-79257266D02*
X110889987Y-79162028D01*
X110889987Y-78685837D02*
X110842368Y-78781075D01*
X110842368Y-78781075D02*
X110794748Y-78828694D01*
X110794748Y-78828694D02*
X110699510Y-78876313D01*
X110699510Y-78876313D02*
X110413796Y-78876313D01*
X110413796Y-78876313D02*
X110318558Y-78828694D01*
X110318558Y-78828694D02*
X110270939Y-78781075D01*
X110270939Y-78781075D02*
X110223320Y-78685837D01*
X110223320Y-78685837D02*
X110223320Y-78542980D01*
X110223320Y-78542980D02*
X110270939Y-78447742D01*
X110270939Y-78447742D02*
X110318558Y-78400123D01*
X110318558Y-78400123D02*
X110413796Y-78352504D01*
X110413796Y-78352504D02*
X110699510Y-78352504D01*
X110699510Y-78352504D02*
X110794748Y-78400123D01*
X110794748Y-78400123D02*
X110842368Y-78447742D01*
X110842368Y-78447742D02*
X110889987Y-78542980D01*
X110889987Y-78542980D02*
X110889987Y-78685837D01*
X110889987Y-77923932D02*
X110223320Y-77923932D01*
X110413796Y-77923932D02*
X110318558Y-77876313D01*
X110318558Y-77876313D02*
X110270939Y-77828694D01*
X110270939Y-77828694D02*
X110223320Y-77733456D01*
X110223320Y-77733456D02*
X110223320Y-77638218D01*
X112499931Y-91066792D02*
X112023740Y-91400125D01*
X112499931Y-91638220D02*
X111499931Y-91638220D01*
X111499931Y-91638220D02*
X111499931Y-91257268D01*
X111499931Y-91257268D02*
X111547550Y-91162030D01*
X111547550Y-91162030D02*
X111595169Y-91114411D01*
X111595169Y-91114411D02*
X111690407Y-91066792D01*
X111690407Y-91066792D02*
X111833264Y-91066792D01*
X111833264Y-91066792D02*
X111928502Y-91114411D01*
X111928502Y-91114411D02*
X111976121Y-91162030D01*
X111976121Y-91162030D02*
X112023740Y-91257268D01*
X112023740Y-91257268D02*
X112023740Y-91638220D01*
X112499931Y-90209649D02*
X111976121Y-90209649D01*
X111976121Y-90209649D02*
X111880883Y-90257268D01*
X111880883Y-90257268D02*
X111833264Y-90352506D01*
X111833264Y-90352506D02*
X111833264Y-90542982D01*
X111833264Y-90542982D02*
X111880883Y-90638220D01*
X112452312Y-90209649D02*
X112499931Y-90304887D01*
X112499931Y-90304887D02*
X112499931Y-90542982D01*
X112499931Y-90542982D02*
X112452312Y-90638220D01*
X112452312Y-90638220D02*
X112357073Y-90685839D01*
X112357073Y-90685839D02*
X112261835Y-90685839D01*
X112261835Y-90685839D02*
X112166597Y-90638220D01*
X112166597Y-90638220D02*
X112118978Y-90542982D01*
X112118978Y-90542982D02*
X112118978Y-90304887D01*
X112118978Y-90304887D02*
X112071359Y-90209649D01*
X112499931Y-89733458D02*
X111499931Y-89733458D01*
X112118978Y-89638220D02*
X112499931Y-89352506D01*
X111833264Y-89352506D02*
X112214216Y-89733458D01*
X112452312Y-88971553D02*
X112499931Y-88876315D01*
X112499931Y-88876315D02*
X112499931Y-88685839D01*
X112499931Y-88685839D02*
X112452312Y-88590601D01*
X112452312Y-88590601D02*
X112357073Y-88542982D01*
X112357073Y-88542982D02*
X112309454Y-88542982D01*
X112309454Y-88542982D02*
X112214216Y-88590601D01*
X112214216Y-88590601D02*
X112166597Y-88685839D01*
X112166597Y-88685839D02*
X112166597Y-88828696D01*
X112166597Y-88828696D02*
X112118978Y-88923934D01*
X112118978Y-88923934D02*
X112023740Y-88971553D01*
X112023740Y-88971553D02*
X111976121Y-88971553D01*
X111976121Y-88971553D02*
X111880883Y-88923934D01*
X111880883Y-88923934D02*
X111833264Y-88828696D01*
X111833264Y-88828696D02*
X111833264Y-88685839D01*
X111833264Y-88685839D02*
X111880883Y-88590601D01*
X112499931Y-88114410D02*
X111499931Y-88114410D01*
X112499931Y-87685839D02*
X111976121Y-87685839D01*
X111976121Y-87685839D02*
X111880883Y-87733458D01*
X111880883Y-87733458D02*
X111833264Y-87828696D01*
X111833264Y-87828696D02*
X111833264Y-87971553D01*
X111833264Y-87971553D02*
X111880883Y-88066791D01*
X111880883Y-88066791D02*
X111928502Y-88114410D01*
X112499931Y-87209648D02*
X111833264Y-87209648D01*
X111499931Y-87209648D02*
X111547550Y-87257267D01*
X111547550Y-87257267D02*
X111595169Y-87209648D01*
X111595169Y-87209648D02*
X111547550Y-87162029D01*
X111547550Y-87162029D02*
X111499931Y-87209648D01*
X111499931Y-87209648D02*
X111595169Y-87209648D01*
X111833264Y-86876315D02*
X111833264Y-86495363D01*
X111499931Y-86733458D02*
X112357073Y-86733458D01*
X112357073Y-86733458D02*
X112452312Y-86685839D01*
X112452312Y-86685839D02*
X112499931Y-86590601D01*
X112499931Y-86590601D02*
X112499931Y-86495363D01*
X112499931Y-85733458D02*
X111976121Y-85733458D01*
X111976121Y-85733458D02*
X111880883Y-85781077D01*
X111880883Y-85781077D02*
X111833264Y-85876315D01*
X111833264Y-85876315D02*
X111833264Y-86066791D01*
X111833264Y-86066791D02*
X111880883Y-86162029D01*
X112452312Y-85733458D02*
X112499931Y-85828696D01*
X112499931Y-85828696D02*
X112499931Y-86066791D01*
X112499931Y-86066791D02*
X112452312Y-86162029D01*
X112452312Y-86162029D02*
X112357073Y-86209648D01*
X112357073Y-86209648D02*
X112261835Y-86209648D01*
X112261835Y-86209648D02*
X112166597Y-86162029D01*
X112166597Y-86162029D02*
X112118978Y-86066791D01*
X112118978Y-86066791D02*
X112118978Y-85828696D01*
X112118978Y-85828696D02*
X112071359Y-85733458D01*
X112880883Y-84209648D02*
X112833264Y-84257267D01*
X112833264Y-84257267D02*
X112690407Y-84352505D01*
X112690407Y-84352505D02*
X112595169Y-84400124D01*
X112595169Y-84400124D02*
X112452312Y-84447743D01*
X112452312Y-84447743D02*
X112214216Y-84495362D01*
X112214216Y-84495362D02*
X112023740Y-84495362D01*
X112023740Y-84495362D02*
X111785645Y-84447743D01*
X111785645Y-84447743D02*
X111642788Y-84400124D01*
X111642788Y-84400124D02*
X111547550Y-84352505D01*
X111547550Y-84352505D02*
X111404692Y-84257267D01*
X111404692Y-84257267D02*
X111357073Y-84209648D01*
X112499931Y-83304886D02*
X112499931Y-83876314D01*
X112499931Y-83590600D02*
X111499931Y-83590600D01*
X111499931Y-83590600D02*
X111642788Y-83685838D01*
X111642788Y-83685838D02*
X111738026Y-83781076D01*
X111738026Y-83781076D02*
X111785645Y-83876314D01*
X112499931Y-82352505D02*
X112499931Y-82923933D01*
X112499931Y-82638219D02*
X111499931Y-82638219D01*
X111499931Y-82638219D02*
X111642788Y-82733457D01*
X111642788Y-82733457D02*
X111738026Y-82828695D01*
X111738026Y-82828695D02*
X111785645Y-82923933D01*
X111595169Y-81971552D02*
X111547550Y-81923933D01*
X111547550Y-81923933D02*
X111499931Y-81828695D01*
X111499931Y-81828695D02*
X111499931Y-81590600D01*
X111499931Y-81590600D02*
X111547550Y-81495362D01*
X111547550Y-81495362D02*
X111595169Y-81447743D01*
X111595169Y-81447743D02*
X111690407Y-81400124D01*
X111690407Y-81400124D02*
X111785645Y-81400124D01*
X111785645Y-81400124D02*
X111928502Y-81447743D01*
X111928502Y-81447743D02*
X112499931Y-82019171D01*
X112499931Y-82019171D02*
X112499931Y-81400124D01*
X111499931Y-81066790D02*
X111499931Y-80400124D01*
X111499931Y-80400124D02*
X112499931Y-80828695D01*
X112499931Y-79971552D02*
X112499931Y-79781076D01*
X112499931Y-79781076D02*
X112452312Y-79685838D01*
X112452312Y-79685838D02*
X112404692Y-79638219D01*
X112404692Y-79638219D02*
X112261835Y-79542981D01*
X112261835Y-79542981D02*
X112071359Y-79495362D01*
X112071359Y-79495362D02*
X111690407Y-79495362D01*
X111690407Y-79495362D02*
X111595169Y-79542981D01*
X111595169Y-79542981D02*
X111547550Y-79590600D01*
X111547550Y-79590600D02*
X111499931Y-79685838D01*
X111499931Y-79685838D02*
X111499931Y-79876314D01*
X111499931Y-79876314D02*
X111547550Y-79971552D01*
X111547550Y-79971552D02*
X111595169Y-80019171D01*
X111595169Y-80019171D02*
X111690407Y-80066790D01*
X111690407Y-80066790D02*
X111928502Y-80066790D01*
X111928502Y-80066790D02*
X112023740Y-80019171D01*
X112023740Y-80019171D02*
X112071359Y-79971552D01*
X112071359Y-79971552D02*
X112118978Y-79876314D01*
X112118978Y-79876314D02*
X112118978Y-79685838D01*
X112118978Y-79685838D02*
X112071359Y-79590600D01*
X112071359Y-79590600D02*
X112023740Y-79542981D01*
X112023740Y-79542981D02*
X111928502Y-79495362D01*
X112499931Y-79019171D02*
X112499931Y-78828695D01*
X112499931Y-78828695D02*
X112452312Y-78733457D01*
X112452312Y-78733457D02*
X112404692Y-78685838D01*
X112404692Y-78685838D02*
X112261835Y-78590600D01*
X112261835Y-78590600D02*
X112071359Y-78542981D01*
X112071359Y-78542981D02*
X111690407Y-78542981D01*
X111690407Y-78542981D02*
X111595169Y-78590600D01*
X111595169Y-78590600D02*
X111547550Y-78638219D01*
X111547550Y-78638219D02*
X111499931Y-78733457D01*
X111499931Y-78733457D02*
X111499931Y-78923933D01*
X111499931Y-78923933D02*
X111547550Y-79019171D01*
X111547550Y-79019171D02*
X111595169Y-79066790D01*
X111595169Y-79066790D02*
X111690407Y-79114409D01*
X111690407Y-79114409D02*
X111928502Y-79114409D01*
X111928502Y-79114409D02*
X112023740Y-79066790D01*
X112023740Y-79066790D02*
X112071359Y-79019171D01*
X112071359Y-79019171D02*
X112118978Y-78923933D01*
X112118978Y-78923933D02*
X112118978Y-78733457D01*
X112118978Y-78733457D02*
X112071359Y-78638219D01*
X112071359Y-78638219D02*
X112023740Y-78590600D01*
X112023740Y-78590600D02*
X111928502Y-78542981D01*
X111499931Y-77923933D02*
X111499931Y-77828695D01*
X111499931Y-77828695D02*
X111547550Y-77733457D01*
X111547550Y-77733457D02*
X111595169Y-77685838D01*
X111595169Y-77685838D02*
X111690407Y-77638219D01*
X111690407Y-77638219D02*
X111880883Y-77590600D01*
X111880883Y-77590600D02*
X112118978Y-77590600D01*
X112118978Y-77590600D02*
X112309454Y-77638219D01*
X112309454Y-77638219D02*
X112404692Y-77685838D01*
X112404692Y-77685838D02*
X112452312Y-77733457D01*
X112452312Y-77733457D02*
X112499931Y-77828695D01*
X112499931Y-77828695D02*
X112499931Y-77923933D01*
X112499931Y-77923933D02*
X112452312Y-78019171D01*
X112452312Y-78019171D02*
X112404692Y-78066790D01*
X112404692Y-78066790D02*
X112309454Y-78114409D01*
X112309454Y-78114409D02*
X112118978Y-78162028D01*
X112118978Y-78162028D02*
X111880883Y-78162028D01*
X111880883Y-78162028D02*
X111690407Y-78114409D01*
X111690407Y-78114409D02*
X111595169Y-78066790D01*
X111595169Y-78066790D02*
X111547550Y-78019171D01*
X111547550Y-78019171D02*
X111499931Y-77923933D01*
X112880883Y-77257266D02*
X112833264Y-77209647D01*
X112833264Y-77209647D02*
X112690407Y-77114409D01*
X112690407Y-77114409D02*
X112595169Y-77066790D01*
X112595169Y-77066790D02*
X112452312Y-77019171D01*
X112452312Y-77019171D02*
X112214216Y-76971552D01*
X112214216Y-76971552D02*
X112023740Y-76971552D01*
X112023740Y-76971552D02*
X111785645Y-77019171D01*
X111785645Y-77019171D02*
X111642788Y-77066790D01*
X111642788Y-77066790D02*
X111547550Y-77114409D01*
X111547550Y-77114409D02*
X111404692Y-77209647D01*
X111404692Y-77209647D02*
X111357073Y-77257266D01*
X113109875Y-91733458D02*
X113109875Y-91066792D01*
X113109875Y-91066792D02*
X114109875Y-91733458D01*
X114109875Y-91733458D02*
X114109875Y-91066792D01*
X114109875Y-90257268D02*
X113586065Y-90257268D01*
X113586065Y-90257268D02*
X113490827Y-90304887D01*
X113490827Y-90304887D02*
X113443208Y-90400125D01*
X113443208Y-90400125D02*
X113443208Y-90590601D01*
X113443208Y-90590601D02*
X113490827Y-90685839D01*
X114062256Y-90257268D02*
X114109875Y-90352506D01*
X114109875Y-90352506D02*
X114109875Y-90590601D01*
X114109875Y-90590601D02*
X114062256Y-90685839D01*
X114062256Y-90685839D02*
X113967017Y-90733458D01*
X113967017Y-90733458D02*
X113871779Y-90733458D01*
X113871779Y-90733458D02*
X113776541Y-90685839D01*
X113776541Y-90685839D02*
X113728922Y-90590601D01*
X113728922Y-90590601D02*
X113728922Y-90352506D01*
X113728922Y-90352506D02*
X113681303Y-90257268D01*
X114109875Y-89781077D02*
X113109875Y-89781077D01*
X113728922Y-89685839D02*
X114109875Y-89400125D01*
X113443208Y-89400125D02*
X113824160Y-89781077D01*
X114109875Y-88971553D02*
X113443208Y-88971553D01*
X113109875Y-88971553D02*
X113157494Y-89019172D01*
X113157494Y-89019172D02*
X113205113Y-88971553D01*
X113205113Y-88971553D02*
X113157494Y-88923934D01*
X113157494Y-88923934D02*
X113109875Y-88971553D01*
X113109875Y-88971553D02*
X113205113Y-88971553D01*
X114490827Y-87447744D02*
X114443208Y-87495363D01*
X114443208Y-87495363D02*
X114300351Y-87590601D01*
X114300351Y-87590601D02*
X114205113Y-87638220D01*
X114205113Y-87638220D02*
X114062256Y-87685839D01*
X114062256Y-87685839D02*
X113824160Y-87733458D01*
X113824160Y-87733458D02*
X113633684Y-87733458D01*
X113633684Y-87733458D02*
X113395589Y-87685839D01*
X113395589Y-87685839D02*
X113252732Y-87638220D01*
X113252732Y-87638220D02*
X113157494Y-87590601D01*
X113157494Y-87590601D02*
X113014636Y-87495363D01*
X113014636Y-87495363D02*
X112967017Y-87447744D01*
X114109875Y-86542982D02*
X114109875Y-87114410D01*
X114109875Y-86828696D02*
X113109875Y-86828696D01*
X113109875Y-86828696D02*
X113252732Y-86923934D01*
X113252732Y-86923934D02*
X113347970Y-87019172D01*
X113347970Y-87019172D02*
X113395589Y-87114410D01*
X114109875Y-85590601D02*
X114109875Y-86162029D01*
X114109875Y-85876315D02*
X113109875Y-85876315D01*
X113109875Y-85876315D02*
X113252732Y-85971553D01*
X113252732Y-85971553D02*
X113347970Y-86066791D01*
X113347970Y-86066791D02*
X113395589Y-86162029D01*
X113205113Y-85209648D02*
X113157494Y-85162029D01*
X113157494Y-85162029D02*
X113109875Y-85066791D01*
X113109875Y-85066791D02*
X113109875Y-84828696D01*
X113109875Y-84828696D02*
X113157494Y-84733458D01*
X113157494Y-84733458D02*
X113205113Y-84685839D01*
X113205113Y-84685839D02*
X113300351Y-84638220D01*
X113300351Y-84638220D02*
X113395589Y-84638220D01*
X113395589Y-84638220D02*
X113538446Y-84685839D01*
X113538446Y-84685839D02*
X114109875Y-85257267D01*
X114109875Y-85257267D02*
X114109875Y-84638220D01*
X113109875Y-84304886D02*
X113109875Y-83638220D01*
X113109875Y-83638220D02*
X114109875Y-84066791D01*
X114109875Y-83209648D02*
X114109875Y-83019172D01*
X114109875Y-83019172D02*
X114062256Y-82923934D01*
X114062256Y-82923934D02*
X114014636Y-82876315D01*
X114014636Y-82876315D02*
X113871779Y-82781077D01*
X113871779Y-82781077D02*
X113681303Y-82733458D01*
X113681303Y-82733458D02*
X113300351Y-82733458D01*
X113300351Y-82733458D02*
X113205113Y-82781077D01*
X113205113Y-82781077D02*
X113157494Y-82828696D01*
X113157494Y-82828696D02*
X113109875Y-82923934D01*
X113109875Y-82923934D02*
X113109875Y-83114410D01*
X113109875Y-83114410D02*
X113157494Y-83209648D01*
X113157494Y-83209648D02*
X113205113Y-83257267D01*
X113205113Y-83257267D02*
X113300351Y-83304886D01*
X113300351Y-83304886D02*
X113538446Y-83304886D01*
X113538446Y-83304886D02*
X113633684Y-83257267D01*
X113633684Y-83257267D02*
X113681303Y-83209648D01*
X113681303Y-83209648D02*
X113728922Y-83114410D01*
X113728922Y-83114410D02*
X113728922Y-82923934D01*
X113728922Y-82923934D02*
X113681303Y-82828696D01*
X113681303Y-82828696D02*
X113633684Y-82781077D01*
X113633684Y-82781077D02*
X113538446Y-82733458D01*
X114109875Y-82257267D02*
X114109875Y-82066791D01*
X114109875Y-82066791D02*
X114062256Y-81971553D01*
X114062256Y-81971553D02*
X114014636Y-81923934D01*
X114014636Y-81923934D02*
X113871779Y-81828696D01*
X113871779Y-81828696D02*
X113681303Y-81781077D01*
X113681303Y-81781077D02*
X113300351Y-81781077D01*
X113300351Y-81781077D02*
X113205113Y-81828696D01*
X113205113Y-81828696D02*
X113157494Y-81876315D01*
X113157494Y-81876315D02*
X113109875Y-81971553D01*
X113109875Y-81971553D02*
X113109875Y-82162029D01*
X113109875Y-82162029D02*
X113157494Y-82257267D01*
X113157494Y-82257267D02*
X113205113Y-82304886D01*
X113205113Y-82304886D02*
X113300351Y-82352505D01*
X113300351Y-82352505D02*
X113538446Y-82352505D01*
X113538446Y-82352505D02*
X113633684Y-82304886D01*
X113633684Y-82304886D02*
X113681303Y-82257267D01*
X113681303Y-82257267D02*
X113728922Y-82162029D01*
X113728922Y-82162029D02*
X113728922Y-81971553D01*
X113728922Y-81971553D02*
X113681303Y-81876315D01*
X113681303Y-81876315D02*
X113633684Y-81828696D01*
X113633684Y-81828696D02*
X113538446Y-81781077D01*
X113109875Y-80876315D02*
X113109875Y-81352505D01*
X113109875Y-81352505D02*
X113586065Y-81400124D01*
X113586065Y-81400124D02*
X113538446Y-81352505D01*
X113538446Y-81352505D02*
X113490827Y-81257267D01*
X113490827Y-81257267D02*
X113490827Y-81019172D01*
X113490827Y-81019172D02*
X113538446Y-80923934D01*
X113538446Y-80923934D02*
X113586065Y-80876315D01*
X113586065Y-80876315D02*
X113681303Y-80828696D01*
X113681303Y-80828696D02*
X113919398Y-80828696D01*
X113919398Y-80828696D02*
X114014636Y-80876315D01*
X114014636Y-80876315D02*
X114062256Y-80923934D01*
X114062256Y-80923934D02*
X114109875Y-81019172D01*
X114109875Y-81019172D02*
X114109875Y-81257267D01*
X114109875Y-81257267D02*
X114062256Y-81352505D01*
X114062256Y-81352505D02*
X114014636Y-81400124D01*
X114490827Y-80495362D02*
X114443208Y-80447743D01*
X114443208Y-80447743D02*
X114300351Y-80352505D01*
X114300351Y-80352505D02*
X114205113Y-80304886D01*
X114205113Y-80304886D02*
X114062256Y-80257267D01*
X114062256Y-80257267D02*
X113824160Y-80209648D01*
X113824160Y-80209648D02*
X113633684Y-80209648D01*
X113633684Y-80209648D02*
X113395589Y-80257267D01*
X113395589Y-80257267D02*
X113252732Y-80304886D01*
X113252732Y-80304886D02*
X113157494Y-80352505D01*
X113157494Y-80352505D02*
X113014636Y-80447743D01*
X113014636Y-80447743D02*
X112967017Y-80495362D01*
X115053152Y-91733458D02*
X115719819Y-91495363D01*
X115719819Y-91495363D02*
X115053152Y-91257268D01*
X115719819Y-90352506D02*
X115719819Y-90923934D01*
X115719819Y-90638220D02*
X114719819Y-90638220D01*
X114719819Y-90638220D02*
X114862676Y-90733458D01*
X114862676Y-90733458D02*
X114957914Y-90828696D01*
X114957914Y-90828696D02*
X115005533Y-90923934D01*
X115624580Y-89923934D02*
X115672200Y-89876315D01*
X115672200Y-89876315D02*
X115719819Y-89923934D01*
X115719819Y-89923934D02*
X115672200Y-89971553D01*
X115672200Y-89971553D02*
X115624580Y-89923934D01*
X115624580Y-89923934D02*
X115719819Y-89923934D01*
X115719819Y-88923935D02*
X115719819Y-89495363D01*
X115719819Y-89209649D02*
X114719819Y-89209649D01*
X114719819Y-89209649D02*
X114862676Y-89304887D01*
X114862676Y-89304887D02*
X114957914Y-89400125D01*
X114957914Y-89400125D02*
X115005533Y-89495363D01*
X100858333Y-94319104D02*
X101334523Y-94319104D01*
X100763095Y-94604819D02*
X101096428Y-93604819D01*
X101096428Y-93604819D02*
X101429761Y-94604819D01*
X101525000Y-94700057D02*
X102286904Y-94700057D01*
X102525000Y-94604819D02*
X102525000Y-93604819D01*
X103001190Y-93938152D02*
X103001190Y-94604819D01*
X103001190Y-94033390D02*
X103048809Y-93985771D01*
X103048809Y-93985771D02*
X103144047Y-93938152D01*
X103144047Y-93938152D02*
X103286904Y-93938152D01*
X103286904Y-93938152D02*
X103382142Y-93985771D01*
X103382142Y-93985771D02*
X103429761Y-94081009D01*
X103429761Y-94081009D02*
X103429761Y-94604819D01*
X103858333Y-93700057D02*
X103905952Y-93652438D01*
X103905952Y-93652438D02*
X104001190Y-93604819D01*
X104001190Y-93604819D02*
X104239285Y-93604819D01*
X104239285Y-93604819D02*
X104334523Y-93652438D01*
X104334523Y-93652438D02*
X104382142Y-93700057D01*
X104382142Y-93700057D02*
X104429761Y-93795295D01*
X104429761Y-93795295D02*
X104429761Y-93890533D01*
X104429761Y-93890533D02*
X104382142Y-94033390D01*
X104382142Y-94033390D02*
X103810714Y-94604819D01*
X103810714Y-94604819D02*
X104429761Y-94604819D01*
X104620238Y-94700057D02*
X105382142Y-94700057D01*
X105620238Y-94604819D02*
X105620238Y-93604819D01*
X105620238Y-93604819D02*
X106191666Y-94604819D01*
X106191666Y-94604819D02*
X106191666Y-93604819D01*
X107191666Y-94604819D02*
X106620238Y-94604819D01*
X106905952Y-94604819D02*
X106905952Y-93604819D01*
X106905952Y-93604819D02*
X106810714Y-93747676D01*
X106810714Y-93747676D02*
X106715476Y-93842914D01*
X106715476Y-93842914D02*
X106620238Y-93890533D01*
X105144104Y-68491666D02*
X105144104Y-68015476D01*
X105429819Y-68586904D02*
X104429819Y-68253571D01*
X104429819Y-68253571D02*
X105429819Y-67920238D01*
X105525057Y-67825000D02*
X105525057Y-67063095D01*
X105429819Y-66824999D02*
X104429819Y-66824999D01*
X104763152Y-66348809D02*
X105429819Y-66348809D01*
X104858390Y-66348809D02*
X104810771Y-66301190D01*
X104810771Y-66301190D02*
X104763152Y-66205952D01*
X104763152Y-66205952D02*
X104763152Y-66063095D01*
X104763152Y-66063095D02*
X104810771Y-65967857D01*
X104810771Y-65967857D02*
X104906009Y-65920238D01*
X104906009Y-65920238D02*
X105429819Y-65920238D01*
X105429819Y-64920238D02*
X105429819Y-65491666D01*
X105429819Y-65205952D02*
X104429819Y-65205952D01*
X104429819Y-65205952D02*
X104572676Y-65301190D01*
X104572676Y-65301190D02*
X104667914Y-65396428D01*
X104667914Y-65396428D02*
X104715533Y-65491666D01*
X105525057Y-64729762D02*
X105525057Y-63967857D01*
X105429819Y-63729761D02*
X104429819Y-63729761D01*
X104429819Y-63729761D02*
X105429819Y-63158333D01*
X105429819Y-63158333D02*
X104429819Y-63158333D01*
X105429819Y-62158333D02*
X105429819Y-62729761D01*
X105429819Y-62444047D02*
X104429819Y-62444047D01*
X104429819Y-62444047D02*
X104572676Y-62539285D01*
X104572676Y-62539285D02*
X104667914Y-62634523D01*
X104667914Y-62634523D02*
X104715533Y-62729761D01*
X105744104Y-90266666D02*
X105744104Y-89790476D01*
X106029819Y-90361904D02*
X105029819Y-90028571D01*
X105029819Y-90028571D02*
X106029819Y-89695238D01*
X106125057Y-89600000D02*
X106125057Y-88838095D01*
X106029819Y-88599999D02*
X105029819Y-88599999D01*
X105363152Y-88123809D02*
X106029819Y-88123809D01*
X105458390Y-88123809D02*
X105410771Y-88076190D01*
X105410771Y-88076190D02*
X105363152Y-87980952D01*
X105363152Y-87980952D02*
X105363152Y-87838095D01*
X105363152Y-87838095D02*
X105410771Y-87742857D01*
X105410771Y-87742857D02*
X105506009Y-87695238D01*
X105506009Y-87695238D02*
X106029819Y-87695238D01*
X106125057Y-87457143D02*
X106125057Y-86695238D01*
X106029819Y-86457142D02*
X105029819Y-86457142D01*
X105029819Y-86457142D02*
X105029819Y-86076190D01*
X105029819Y-86076190D02*
X105077438Y-85980952D01*
X105077438Y-85980952D02*
X105125057Y-85933333D01*
X105125057Y-85933333D02*
X105220295Y-85885714D01*
X105220295Y-85885714D02*
X105363152Y-85885714D01*
X105363152Y-85885714D02*
X105458390Y-85933333D01*
X105458390Y-85933333D02*
X105506009Y-85980952D01*
X105506009Y-85980952D02*
X105553628Y-86076190D01*
X105553628Y-86076190D02*
X105553628Y-86457142D01*
X106029819Y-84933333D02*
X106029819Y-85504761D01*
X106029819Y-85219047D02*
X105029819Y-85219047D01*
X105029819Y-85219047D02*
X105172676Y-85314285D01*
X105172676Y-85314285D02*
X105267914Y-85409523D01*
X105267914Y-85409523D02*
X105315533Y-85504761D01*
X109841666Y-94319104D02*
X110317856Y-94319104D01*
X109746428Y-94604819D02*
X110079761Y-93604819D01*
X110079761Y-93604819D02*
X110413094Y-94604819D01*
X110698809Y-93700057D02*
X110746428Y-93652438D01*
X110746428Y-93652438D02*
X110841666Y-93604819D01*
X110841666Y-93604819D02*
X111079761Y-93604819D01*
X111079761Y-93604819D02*
X111174999Y-93652438D01*
X111174999Y-93652438D02*
X111222618Y-93700057D01*
X111222618Y-93700057D02*
X111270237Y-93795295D01*
X111270237Y-93795295D02*
X111270237Y-93890533D01*
X111270237Y-93890533D02*
X111222618Y-94033390D01*
X111222618Y-94033390D02*
X110651190Y-94604819D01*
X110651190Y-94604819D02*
X111270237Y-94604819D01*
X111460714Y-94700057D02*
X112222618Y-94700057D01*
X112651190Y-93604819D02*
X112841666Y-93604819D01*
X112841666Y-93604819D02*
X112936904Y-93652438D01*
X112936904Y-93652438D02*
X113032142Y-93747676D01*
X113032142Y-93747676D02*
X113079761Y-93938152D01*
X113079761Y-93938152D02*
X113079761Y-94271485D01*
X113079761Y-94271485D02*
X113032142Y-94461961D01*
X113032142Y-94461961D02*
X112936904Y-94557200D01*
X112936904Y-94557200D02*
X112841666Y-94604819D01*
X112841666Y-94604819D02*
X112651190Y-94604819D01*
X112651190Y-94604819D02*
X112555952Y-94557200D01*
X112555952Y-94557200D02*
X112460714Y-94461961D01*
X112460714Y-94461961D02*
X112413095Y-94271485D01*
X112413095Y-94271485D02*
X112413095Y-93938152D01*
X112413095Y-93938152D02*
X112460714Y-93747676D01*
X112460714Y-93747676D02*
X112555952Y-93652438D01*
X112555952Y-93652438D02*
X112651190Y-93604819D01*
X113936904Y-93938152D02*
X113936904Y-94604819D01*
X113508333Y-93938152D02*
X113508333Y-94461961D01*
X113508333Y-94461961D02*
X113555952Y-94557200D01*
X113555952Y-94557200D02*
X113651190Y-94604819D01*
X113651190Y-94604819D02*
X113794047Y-94604819D01*
X113794047Y-94604819D02*
X113889285Y-94557200D01*
X113889285Y-94557200D02*
X113936904Y-94509580D01*
X114270238Y-93938152D02*
X114651190Y-93938152D01*
X114413095Y-93604819D02*
X114413095Y-94461961D01*
X114413095Y-94461961D02*
X114460714Y-94557200D01*
X114460714Y-94557200D02*
X114555952Y-94604819D01*
X114555952Y-94604819D02*
X114651190Y-94604819D01*
X115508333Y-94604819D02*
X114936905Y-94604819D01*
X115222619Y-94604819D02*
X115222619Y-93604819D01*
X115222619Y-93604819D02*
X115127381Y-93747676D01*
X115127381Y-93747676D02*
X115032143Y-93842914D01*
X115032143Y-93842914D02*
X114936905Y-93890533D01*
X145623095Y-64949819D02*
X145623095Y-65759342D01*
X145623095Y-65759342D02*
X145670714Y-65854580D01*
X145670714Y-65854580D02*
X145718333Y-65902200D01*
X145718333Y-65902200D02*
X145813571Y-65949819D01*
X145813571Y-65949819D02*
X146004047Y-65949819D01*
X146004047Y-65949819D02*
X146099285Y-65902200D01*
X146099285Y-65902200D02*
X146146904Y-65854580D01*
X146146904Y-65854580D02*
X146194523Y-65759342D01*
X146194523Y-65759342D02*
X146194523Y-64949819D01*
X147194523Y-65949819D02*
X146623095Y-65949819D01*
X146908809Y-65949819D02*
X146908809Y-64949819D01*
X146908809Y-64949819D02*
X146813571Y-65092676D01*
X146813571Y-65092676D02*
X146718333Y-65187914D01*
X146718333Y-65187914D02*
X146623095Y-65235533D01*
X124458333Y-64934580D02*
X124410714Y-64982200D01*
X124410714Y-64982200D02*
X124267857Y-65029819D01*
X124267857Y-65029819D02*
X124172619Y-65029819D01*
X124172619Y-65029819D02*
X124029762Y-64982200D01*
X124029762Y-64982200D02*
X123934524Y-64886961D01*
X123934524Y-64886961D02*
X123886905Y-64791723D01*
X123886905Y-64791723D02*
X123839286Y-64601247D01*
X123839286Y-64601247D02*
X123839286Y-64458390D01*
X123839286Y-64458390D02*
X123886905Y-64267914D01*
X123886905Y-64267914D02*
X123934524Y-64172676D01*
X123934524Y-64172676D02*
X124029762Y-64077438D01*
X124029762Y-64077438D02*
X124172619Y-64029819D01*
X124172619Y-64029819D02*
X124267857Y-64029819D01*
X124267857Y-64029819D02*
X124410714Y-64077438D01*
X124410714Y-64077438D02*
X124458333Y-64125057D01*
X124839286Y-64125057D02*
X124886905Y-64077438D01*
X124886905Y-64077438D02*
X124982143Y-64029819D01*
X124982143Y-64029819D02*
X125220238Y-64029819D01*
X125220238Y-64029819D02*
X125315476Y-64077438D01*
X125315476Y-64077438D02*
X125363095Y-64125057D01*
X125363095Y-64125057D02*
X125410714Y-64220295D01*
X125410714Y-64220295D02*
X125410714Y-64315533D01*
X125410714Y-64315533D02*
X125363095Y-64458390D01*
X125363095Y-64458390D02*
X124791667Y-65029819D01*
X124791667Y-65029819D02*
X125410714Y-65029819D01*
X101015476Y-48854819D02*
X101348809Y-49854819D01*
X101348809Y-49854819D02*
X101682142Y-48854819D01*
X102586904Y-49759580D02*
X102539285Y-49807200D01*
X102539285Y-49807200D02*
X102396428Y-49854819D01*
X102396428Y-49854819D02*
X102301190Y-49854819D01*
X102301190Y-49854819D02*
X102158333Y-49807200D01*
X102158333Y-49807200D02*
X102063095Y-49711961D01*
X102063095Y-49711961D02*
X102015476Y-49616723D01*
X102015476Y-49616723D02*
X101967857Y-49426247D01*
X101967857Y-49426247D02*
X101967857Y-49283390D01*
X101967857Y-49283390D02*
X102015476Y-49092914D01*
X102015476Y-49092914D02*
X102063095Y-48997676D01*
X102063095Y-48997676D02*
X102158333Y-48902438D01*
X102158333Y-48902438D02*
X102301190Y-48854819D01*
X102301190Y-48854819D02*
X102396428Y-48854819D01*
X102396428Y-48854819D02*
X102539285Y-48902438D01*
X102539285Y-48902438D02*
X102586904Y-48950057D01*
X103586904Y-49759580D02*
X103539285Y-49807200D01*
X103539285Y-49807200D02*
X103396428Y-49854819D01*
X103396428Y-49854819D02*
X103301190Y-49854819D01*
X103301190Y-49854819D02*
X103158333Y-49807200D01*
X103158333Y-49807200D02*
X103063095Y-49711961D01*
X103063095Y-49711961D02*
X103015476Y-49616723D01*
X103015476Y-49616723D02*
X102967857Y-49426247D01*
X102967857Y-49426247D02*
X102967857Y-49283390D01*
X102967857Y-49283390D02*
X103015476Y-49092914D01*
X103015476Y-49092914D02*
X103063095Y-48997676D01*
X103063095Y-48997676D02*
X103158333Y-48902438D01*
X103158333Y-48902438D02*
X103301190Y-48854819D01*
X103301190Y-48854819D02*
X103396428Y-48854819D01*
X103396428Y-48854819D02*
X103539285Y-48902438D01*
X103539285Y-48902438D02*
X103586904Y-48950057D01*
X104539285Y-49854819D02*
X103967857Y-49854819D01*
X104253571Y-49854819D02*
X104253571Y-48854819D01*
X104253571Y-48854819D02*
X104158333Y-48997676D01*
X104158333Y-48997676D02*
X104063095Y-49092914D01*
X104063095Y-49092914D02*
X103967857Y-49140533D01*
X115857142Y-76954819D02*
X115523809Y-76478628D01*
X115285714Y-76954819D02*
X115285714Y-75954819D01*
X115285714Y-75954819D02*
X115666666Y-75954819D01*
X115666666Y-75954819D02*
X115761904Y-76002438D01*
X115761904Y-76002438D02*
X115809523Y-76050057D01*
X115809523Y-76050057D02*
X115857142Y-76145295D01*
X115857142Y-76145295D02*
X115857142Y-76288152D01*
X115857142Y-76288152D02*
X115809523Y-76383390D01*
X115809523Y-76383390D02*
X115761904Y-76431009D01*
X115761904Y-76431009D02*
X115666666Y-76478628D01*
X115666666Y-76478628D02*
X115285714Y-76478628D01*
X116809523Y-76954819D02*
X116238095Y-76954819D01*
X116523809Y-76954819D02*
X116523809Y-75954819D01*
X116523809Y-75954819D02*
X116428571Y-76097676D01*
X116428571Y-76097676D02*
X116333333Y-76192914D01*
X116333333Y-76192914D02*
X116238095Y-76240533D01*
X117428571Y-75954819D02*
X117523809Y-75954819D01*
X117523809Y-75954819D02*
X117619047Y-76002438D01*
X117619047Y-76002438D02*
X117666666Y-76050057D01*
X117666666Y-76050057D02*
X117714285Y-76145295D01*
X117714285Y-76145295D02*
X117761904Y-76335771D01*
X117761904Y-76335771D02*
X117761904Y-76573866D01*
X117761904Y-76573866D02*
X117714285Y-76764342D01*
X117714285Y-76764342D02*
X117666666Y-76859580D01*
X117666666Y-76859580D02*
X117619047Y-76907200D01*
X117619047Y-76907200D02*
X117523809Y-76954819D01*
X117523809Y-76954819D02*
X117428571Y-76954819D01*
X117428571Y-76954819D02*
X117333333Y-76907200D01*
X117333333Y-76907200D02*
X117285714Y-76859580D01*
X117285714Y-76859580D02*
X117238095Y-76764342D01*
X117238095Y-76764342D02*
X117190476Y-76573866D01*
X117190476Y-76573866D02*
X117190476Y-76335771D01*
X117190476Y-76335771D02*
X117238095Y-76145295D01*
X117238095Y-76145295D02*
X117285714Y-76050057D01*
X117285714Y-76050057D02*
X117333333Y-76002438D01*
X117333333Y-76002438D02*
X117428571Y-75954819D01*
X108491905Y-59494819D02*
X108491905Y-58494819D01*
X108491905Y-58494819D02*
X108730000Y-58494819D01*
X108730000Y-58494819D02*
X108872857Y-58542438D01*
X108872857Y-58542438D02*
X108968095Y-58637676D01*
X108968095Y-58637676D02*
X109015714Y-58732914D01*
X109015714Y-58732914D02*
X109063333Y-58923390D01*
X109063333Y-58923390D02*
X109063333Y-59066247D01*
X109063333Y-59066247D02*
X109015714Y-59256723D01*
X109015714Y-59256723D02*
X108968095Y-59351961D01*
X108968095Y-59351961D02*
X108872857Y-59447200D01*
X108872857Y-59447200D02*
X108730000Y-59494819D01*
X108730000Y-59494819D02*
X108491905Y-59494819D01*
X109444286Y-58590057D02*
X109491905Y-58542438D01*
X109491905Y-58542438D02*
X109587143Y-58494819D01*
X109587143Y-58494819D02*
X109825238Y-58494819D01*
X109825238Y-58494819D02*
X109920476Y-58542438D01*
X109920476Y-58542438D02*
X109968095Y-58590057D01*
X109968095Y-58590057D02*
X110015714Y-58685295D01*
X110015714Y-58685295D02*
X110015714Y-58780533D01*
X110015714Y-58780533D02*
X109968095Y-58923390D01*
X109968095Y-58923390D02*
X109396667Y-59494819D01*
X109396667Y-59494819D02*
X110015714Y-59494819D01*
X123333333Y-76824819D02*
X123000000Y-76348628D01*
X122761905Y-76824819D02*
X122761905Y-75824819D01*
X122761905Y-75824819D02*
X123142857Y-75824819D01*
X123142857Y-75824819D02*
X123238095Y-75872438D01*
X123238095Y-75872438D02*
X123285714Y-75920057D01*
X123285714Y-75920057D02*
X123333333Y-76015295D01*
X123333333Y-76015295D02*
X123333333Y-76158152D01*
X123333333Y-76158152D02*
X123285714Y-76253390D01*
X123285714Y-76253390D02*
X123238095Y-76301009D01*
X123238095Y-76301009D02*
X123142857Y-76348628D01*
X123142857Y-76348628D02*
X122761905Y-76348628D01*
X123809524Y-76824819D02*
X124000000Y-76824819D01*
X124000000Y-76824819D02*
X124095238Y-76777200D01*
X124095238Y-76777200D02*
X124142857Y-76729580D01*
X124142857Y-76729580D02*
X124238095Y-76586723D01*
X124238095Y-76586723D02*
X124285714Y-76396247D01*
X124285714Y-76396247D02*
X124285714Y-76015295D01*
X124285714Y-76015295D02*
X124238095Y-75920057D01*
X124238095Y-75920057D02*
X124190476Y-75872438D01*
X124190476Y-75872438D02*
X124095238Y-75824819D01*
X124095238Y-75824819D02*
X123904762Y-75824819D01*
X123904762Y-75824819D02*
X123809524Y-75872438D01*
X123809524Y-75872438D02*
X123761905Y-75920057D01*
X123761905Y-75920057D02*
X123714286Y-76015295D01*
X123714286Y-76015295D02*
X123714286Y-76253390D01*
X123714286Y-76253390D02*
X123761905Y-76348628D01*
X123761905Y-76348628D02*
X123809524Y-76396247D01*
X123809524Y-76396247D02*
X123904762Y-76443866D01*
X123904762Y-76443866D02*
X124095238Y-76443866D01*
X124095238Y-76443866D02*
X124190476Y-76396247D01*
X124190476Y-76396247D02*
X124238095Y-76348628D01*
X124238095Y-76348628D02*
X124285714Y-76253390D01*
X108756905Y-67994819D02*
X108756905Y-66994819D01*
X108756905Y-66994819D02*
X108995000Y-66994819D01*
X108995000Y-66994819D02*
X109137857Y-67042438D01*
X109137857Y-67042438D02*
X109233095Y-67137676D01*
X109233095Y-67137676D02*
X109280714Y-67232914D01*
X109280714Y-67232914D02*
X109328333Y-67423390D01*
X109328333Y-67423390D02*
X109328333Y-67566247D01*
X109328333Y-67566247D02*
X109280714Y-67756723D01*
X109280714Y-67756723D02*
X109233095Y-67851961D01*
X109233095Y-67851961D02*
X109137857Y-67947200D01*
X109137857Y-67947200D02*
X108995000Y-67994819D01*
X108995000Y-67994819D02*
X108756905Y-67994819D01*
X109661667Y-66994819D02*
X110280714Y-66994819D01*
X110280714Y-66994819D02*
X109947381Y-67375771D01*
X109947381Y-67375771D02*
X110090238Y-67375771D01*
X110090238Y-67375771D02*
X110185476Y-67423390D01*
X110185476Y-67423390D02*
X110233095Y-67471009D01*
X110233095Y-67471009D02*
X110280714Y-67566247D01*
X110280714Y-67566247D02*
X110280714Y-67804342D01*
X110280714Y-67804342D02*
X110233095Y-67899580D01*
X110233095Y-67899580D02*
X110185476Y-67947200D01*
X110185476Y-67947200D02*
X110090238Y-67994819D01*
X110090238Y-67994819D02*
X109804524Y-67994819D01*
X109804524Y-67994819D02*
X109709286Y-67947200D01*
X109709286Y-67947200D02*
X109661667Y-67899580D01*
X130633333Y-79834580D02*
X130585714Y-79882200D01*
X130585714Y-79882200D02*
X130442857Y-79929819D01*
X130442857Y-79929819D02*
X130347619Y-79929819D01*
X130347619Y-79929819D02*
X130204762Y-79882200D01*
X130204762Y-79882200D02*
X130109524Y-79786961D01*
X130109524Y-79786961D02*
X130061905Y-79691723D01*
X130061905Y-79691723D02*
X130014286Y-79501247D01*
X130014286Y-79501247D02*
X130014286Y-79358390D01*
X130014286Y-79358390D02*
X130061905Y-79167914D01*
X130061905Y-79167914D02*
X130109524Y-79072676D01*
X130109524Y-79072676D02*
X130204762Y-78977438D01*
X130204762Y-78977438D02*
X130347619Y-78929819D01*
X130347619Y-78929819D02*
X130442857Y-78929819D01*
X130442857Y-78929819D02*
X130585714Y-78977438D01*
X130585714Y-78977438D02*
X130633333Y-79025057D01*
X131538095Y-78929819D02*
X131061905Y-78929819D01*
X131061905Y-78929819D02*
X131014286Y-79406009D01*
X131014286Y-79406009D02*
X131061905Y-79358390D01*
X131061905Y-79358390D02*
X131157143Y-79310771D01*
X131157143Y-79310771D02*
X131395238Y-79310771D01*
X131395238Y-79310771D02*
X131490476Y-79358390D01*
X131490476Y-79358390D02*
X131538095Y-79406009D01*
X131538095Y-79406009D02*
X131585714Y-79501247D01*
X131585714Y-79501247D02*
X131585714Y-79739342D01*
X131585714Y-79739342D02*
X131538095Y-79834580D01*
X131538095Y-79834580D02*
X131490476Y-79882200D01*
X131490476Y-79882200D02*
X131395238Y-79929819D01*
X131395238Y-79929819D02*
X131157143Y-79929819D01*
X131157143Y-79929819D02*
X131061905Y-79882200D01*
X131061905Y-79882200D02*
X131014286Y-79834580D01*
X132733333Y-66054819D02*
X132400000Y-65578628D01*
X132161905Y-66054819D02*
X132161905Y-65054819D01*
X132161905Y-65054819D02*
X132542857Y-65054819D01*
X132542857Y-65054819D02*
X132638095Y-65102438D01*
X132638095Y-65102438D02*
X132685714Y-65150057D01*
X132685714Y-65150057D02*
X132733333Y-65245295D01*
X132733333Y-65245295D02*
X132733333Y-65388152D01*
X132733333Y-65388152D02*
X132685714Y-65483390D01*
X132685714Y-65483390D02*
X132638095Y-65531009D01*
X132638095Y-65531009D02*
X132542857Y-65578628D01*
X132542857Y-65578628D02*
X132161905Y-65578628D01*
X133066667Y-65054819D02*
X133685714Y-65054819D01*
X133685714Y-65054819D02*
X133352381Y-65435771D01*
X133352381Y-65435771D02*
X133495238Y-65435771D01*
X133495238Y-65435771D02*
X133590476Y-65483390D01*
X133590476Y-65483390D02*
X133638095Y-65531009D01*
X133638095Y-65531009D02*
X133685714Y-65626247D01*
X133685714Y-65626247D02*
X133685714Y-65864342D01*
X133685714Y-65864342D02*
X133638095Y-65959580D01*
X133638095Y-65959580D02*
X133590476Y-66007200D01*
X133590476Y-66007200D02*
X133495238Y-66054819D01*
X133495238Y-66054819D02*
X133209524Y-66054819D01*
X133209524Y-66054819D02*
X133114286Y-66007200D01*
X133114286Y-66007200D02*
X133066667Y-65959580D01*
X130108333Y-61954819D02*
X129775000Y-61478628D01*
X129536905Y-61954819D02*
X129536905Y-60954819D01*
X129536905Y-60954819D02*
X129917857Y-60954819D01*
X129917857Y-60954819D02*
X130013095Y-61002438D01*
X130013095Y-61002438D02*
X130060714Y-61050057D01*
X130060714Y-61050057D02*
X130108333Y-61145295D01*
X130108333Y-61145295D02*
X130108333Y-61288152D01*
X130108333Y-61288152D02*
X130060714Y-61383390D01*
X130060714Y-61383390D02*
X130013095Y-61431009D01*
X130013095Y-61431009D02*
X129917857Y-61478628D01*
X129917857Y-61478628D02*
X129536905Y-61478628D01*
X131060714Y-61954819D02*
X130489286Y-61954819D01*
X130775000Y-61954819D02*
X130775000Y-60954819D01*
X130775000Y-60954819D02*
X130679762Y-61097676D01*
X130679762Y-61097676D02*
X130584524Y-61192914D01*
X130584524Y-61192914D02*
X130489286Y-61240533D01*
X134813095Y-93504819D02*
X134813095Y-94314342D01*
X134813095Y-94314342D02*
X134860714Y-94409580D01*
X134860714Y-94409580D02*
X134908333Y-94457200D01*
X134908333Y-94457200D02*
X135003571Y-94504819D01*
X135003571Y-94504819D02*
X135194047Y-94504819D01*
X135194047Y-94504819D02*
X135289285Y-94457200D01*
X135289285Y-94457200D02*
X135336904Y-94409580D01*
X135336904Y-94409580D02*
X135384523Y-94314342D01*
X135384523Y-94314342D02*
X135384523Y-93504819D01*
X135813095Y-93600057D02*
X135860714Y-93552438D01*
X135860714Y-93552438D02*
X135955952Y-93504819D01*
X135955952Y-93504819D02*
X136194047Y-93504819D01*
X136194047Y-93504819D02*
X136289285Y-93552438D01*
X136289285Y-93552438D02*
X136336904Y-93600057D01*
X136336904Y-93600057D02*
X136384523Y-93695295D01*
X136384523Y-93695295D02*
X136384523Y-93790533D01*
X136384523Y-93790533D02*
X136336904Y-93933390D01*
X136336904Y-93933390D02*
X135765476Y-94504819D01*
X135765476Y-94504819D02*
X136384523Y-94504819D01*
X154119048Y-51624819D02*
X154452381Y-52624819D01*
X154452381Y-52624819D02*
X154785714Y-51624819D01*
X154880953Y-52720057D02*
X155642857Y-52720057D01*
X155880953Y-52624819D02*
X155880953Y-51624819D01*
X156357143Y-51958152D02*
X156357143Y-52624819D01*
X156357143Y-52053390D02*
X156404762Y-52005771D01*
X156404762Y-52005771D02*
X156500000Y-51958152D01*
X156500000Y-51958152D02*
X156642857Y-51958152D01*
X156642857Y-51958152D02*
X156738095Y-52005771D01*
X156738095Y-52005771D02*
X156785714Y-52101009D01*
X156785714Y-52101009D02*
X156785714Y-52624819D01*
X157785714Y-52624819D02*
X157214286Y-52624819D01*
X157500000Y-52624819D02*
X157500000Y-51624819D01*
X157500000Y-51624819D02*
X157404762Y-51767676D01*
X157404762Y-51767676D02*
X157309524Y-51862914D01*
X157309524Y-51862914D02*
X157214286Y-51910533D01*
X101838095Y-71402438D02*
X101742857Y-71354819D01*
X101742857Y-71354819D02*
X101600000Y-71354819D01*
X101600000Y-71354819D02*
X101457143Y-71402438D01*
X101457143Y-71402438D02*
X101361905Y-71497676D01*
X101361905Y-71497676D02*
X101314286Y-71592914D01*
X101314286Y-71592914D02*
X101266667Y-71783390D01*
X101266667Y-71783390D02*
X101266667Y-71926247D01*
X101266667Y-71926247D02*
X101314286Y-72116723D01*
X101314286Y-72116723D02*
X101361905Y-72211961D01*
X101361905Y-72211961D02*
X101457143Y-72307200D01*
X101457143Y-72307200D02*
X101600000Y-72354819D01*
X101600000Y-72354819D02*
X101695238Y-72354819D01*
X101695238Y-72354819D02*
X101838095Y-72307200D01*
X101838095Y-72307200D02*
X101885714Y-72259580D01*
X101885714Y-72259580D02*
X101885714Y-71926247D01*
X101885714Y-71926247D02*
X101695238Y-71926247D01*
X102314286Y-72354819D02*
X102314286Y-71354819D01*
X102314286Y-71354819D02*
X102885714Y-72354819D01*
X102885714Y-72354819D02*
X102885714Y-71354819D01*
X103361905Y-72354819D02*
X103361905Y-71354819D01*
X103361905Y-71354819D02*
X103600000Y-71354819D01*
X103600000Y-71354819D02*
X103742857Y-71402438D01*
X103742857Y-71402438D02*
X103838095Y-71497676D01*
X103838095Y-71497676D02*
X103885714Y-71592914D01*
X103885714Y-71592914D02*
X103933333Y-71783390D01*
X103933333Y-71783390D02*
X103933333Y-71926247D01*
X103933333Y-71926247D02*
X103885714Y-72116723D01*
X103885714Y-72116723D02*
X103838095Y-72211961D01*
X103838095Y-72211961D02*
X103742857Y-72307200D01*
X103742857Y-72307200D02*
X103600000Y-72354819D01*
X103600000Y-72354819D02*
X103361905Y-72354819D01*
X161738095Y-51672438D02*
X161642857Y-51624819D01*
X161642857Y-51624819D02*
X161500000Y-51624819D01*
X161500000Y-51624819D02*
X161357143Y-51672438D01*
X161357143Y-51672438D02*
X161261905Y-51767676D01*
X161261905Y-51767676D02*
X161214286Y-51862914D01*
X161214286Y-51862914D02*
X161166667Y-52053390D01*
X161166667Y-52053390D02*
X161166667Y-52196247D01*
X161166667Y-52196247D02*
X161214286Y-52386723D01*
X161214286Y-52386723D02*
X161261905Y-52481961D01*
X161261905Y-52481961D02*
X161357143Y-52577200D01*
X161357143Y-52577200D02*
X161500000Y-52624819D01*
X161500000Y-52624819D02*
X161595238Y-52624819D01*
X161595238Y-52624819D02*
X161738095Y-52577200D01*
X161738095Y-52577200D02*
X161785714Y-52529580D01*
X161785714Y-52529580D02*
X161785714Y-52196247D01*
X161785714Y-52196247D02*
X161595238Y-52196247D01*
X162214286Y-52624819D02*
X162214286Y-51624819D01*
X162214286Y-51624819D02*
X162785714Y-52624819D01*
X162785714Y-52624819D02*
X162785714Y-51624819D01*
X163261905Y-52624819D02*
X163261905Y-51624819D01*
X163261905Y-51624819D02*
X163500000Y-51624819D01*
X163500000Y-51624819D02*
X163642857Y-51672438D01*
X163642857Y-51672438D02*
X163738095Y-51767676D01*
X163738095Y-51767676D02*
X163785714Y-51862914D01*
X163785714Y-51862914D02*
X163833333Y-52053390D01*
X163833333Y-52053390D02*
X163833333Y-52196247D01*
X163833333Y-52196247D02*
X163785714Y-52386723D01*
X163785714Y-52386723D02*
X163738095Y-52481961D01*
X163738095Y-52481961D02*
X163642857Y-52577200D01*
X163642857Y-52577200D02*
X163500000Y-52624819D01*
X163500000Y-52624819D02*
X163261905Y-52624819D01*
X118897619Y-93729819D02*
X119230952Y-94729819D01*
X119230952Y-94729819D02*
X119564285Y-93729819D01*
X119659524Y-94825057D02*
X120421428Y-94825057D01*
X120850000Y-93729819D02*
X121040476Y-93729819D01*
X121040476Y-93729819D02*
X121135714Y-93777438D01*
X121135714Y-93777438D02*
X121230952Y-93872676D01*
X121230952Y-93872676D02*
X121278571Y-94063152D01*
X121278571Y-94063152D02*
X121278571Y-94396485D01*
X121278571Y-94396485D02*
X121230952Y-94586961D01*
X121230952Y-94586961D02*
X121135714Y-94682200D01*
X121135714Y-94682200D02*
X121040476Y-94729819D01*
X121040476Y-94729819D02*
X120850000Y-94729819D01*
X120850000Y-94729819D02*
X120754762Y-94682200D01*
X120754762Y-94682200D02*
X120659524Y-94586961D01*
X120659524Y-94586961D02*
X120611905Y-94396485D01*
X120611905Y-94396485D02*
X120611905Y-94063152D01*
X120611905Y-94063152D02*
X120659524Y-93872676D01*
X120659524Y-93872676D02*
X120754762Y-93777438D01*
X120754762Y-93777438D02*
X120850000Y-93729819D01*
X122135714Y-94063152D02*
X122135714Y-94729819D01*
X121707143Y-94063152D02*
X121707143Y-94586961D01*
X121707143Y-94586961D02*
X121754762Y-94682200D01*
X121754762Y-94682200D02*
X121850000Y-94729819D01*
X121850000Y-94729819D02*
X121992857Y-94729819D01*
X121992857Y-94729819D02*
X122088095Y-94682200D01*
X122088095Y-94682200D02*
X122135714Y-94634580D01*
X122469048Y-94063152D02*
X122850000Y-94063152D01*
X122611905Y-93729819D02*
X122611905Y-94586961D01*
X122611905Y-94586961D02*
X122659524Y-94682200D01*
X122659524Y-94682200D02*
X122754762Y-94729819D01*
X122754762Y-94729819D02*
X122850000Y-94729819D01*
X123707143Y-94729819D02*
X123135715Y-94729819D01*
X123421429Y-94729819D02*
X123421429Y-93729819D01*
X123421429Y-93729819D02*
X123326191Y-93872676D01*
X123326191Y-93872676D02*
X123230953Y-93967914D01*
X123230953Y-93967914D02*
X123135715Y-94015533D01*
X117758333Y-89479819D02*
X117425000Y-89003628D01*
X117186905Y-89479819D02*
X117186905Y-88479819D01*
X117186905Y-88479819D02*
X117567857Y-88479819D01*
X117567857Y-88479819D02*
X117663095Y-88527438D01*
X117663095Y-88527438D02*
X117710714Y-88575057D01*
X117710714Y-88575057D02*
X117758333Y-88670295D01*
X117758333Y-88670295D02*
X117758333Y-88813152D01*
X117758333Y-88813152D02*
X117710714Y-88908390D01*
X117710714Y-88908390D02*
X117663095Y-88956009D01*
X117663095Y-88956009D02*
X117567857Y-89003628D01*
X117567857Y-89003628D02*
X117186905Y-89003628D01*
X118663095Y-88479819D02*
X118186905Y-88479819D01*
X118186905Y-88479819D02*
X118139286Y-88956009D01*
X118139286Y-88956009D02*
X118186905Y-88908390D01*
X118186905Y-88908390D02*
X118282143Y-88860771D01*
X118282143Y-88860771D02*
X118520238Y-88860771D01*
X118520238Y-88860771D02*
X118615476Y-88908390D01*
X118615476Y-88908390D02*
X118663095Y-88956009D01*
X118663095Y-88956009D02*
X118710714Y-89051247D01*
X118710714Y-89051247D02*
X118710714Y-89289342D01*
X118710714Y-89289342D02*
X118663095Y-89384580D01*
X118663095Y-89384580D02*
X118615476Y-89432200D01*
X118615476Y-89432200D02*
X118520238Y-89479819D01*
X118520238Y-89479819D02*
X118282143Y-89479819D01*
X118282143Y-89479819D02*
X118186905Y-89432200D01*
X118186905Y-89432200D02*
X118139286Y-89384580D01*
X108661905Y-50629819D02*
X108661905Y-49629819D01*
X108661905Y-49629819D02*
X108900000Y-49629819D01*
X108900000Y-49629819D02*
X109042857Y-49677438D01*
X109042857Y-49677438D02*
X109138095Y-49772676D01*
X109138095Y-49772676D02*
X109185714Y-49867914D01*
X109185714Y-49867914D02*
X109233333Y-50058390D01*
X109233333Y-50058390D02*
X109233333Y-50201247D01*
X109233333Y-50201247D02*
X109185714Y-50391723D01*
X109185714Y-50391723D02*
X109138095Y-50486961D01*
X109138095Y-50486961D02*
X109042857Y-50582200D01*
X109042857Y-50582200D02*
X108900000Y-50629819D01*
X108900000Y-50629819D02*
X108661905Y-50629819D01*
X110185714Y-50629819D02*
X109614286Y-50629819D01*
X109900000Y-50629819D02*
X109900000Y-49629819D01*
X109900000Y-49629819D02*
X109804762Y-49772676D01*
X109804762Y-49772676D02*
X109709524Y-49867914D01*
X109709524Y-49867914D02*
X109614286Y-49915533D01*
X157691667Y-86082200D02*
X157834524Y-86129819D01*
X157834524Y-86129819D02*
X158072619Y-86129819D01*
X158072619Y-86129819D02*
X158167857Y-86082200D01*
X158167857Y-86082200D02*
X158215476Y-86034580D01*
X158215476Y-86034580D02*
X158263095Y-85939342D01*
X158263095Y-85939342D02*
X158263095Y-85844104D01*
X158263095Y-85844104D02*
X158215476Y-85748866D01*
X158215476Y-85748866D02*
X158167857Y-85701247D01*
X158167857Y-85701247D02*
X158072619Y-85653628D01*
X158072619Y-85653628D02*
X157882143Y-85606009D01*
X157882143Y-85606009D02*
X157786905Y-85558390D01*
X157786905Y-85558390D02*
X157739286Y-85510771D01*
X157739286Y-85510771D02*
X157691667Y-85415533D01*
X157691667Y-85415533D02*
X157691667Y-85320295D01*
X157691667Y-85320295D02*
X157739286Y-85225057D01*
X157739286Y-85225057D02*
X157786905Y-85177438D01*
X157786905Y-85177438D02*
X157882143Y-85129819D01*
X157882143Y-85129819D02*
X158120238Y-85129819D01*
X158120238Y-85129819D02*
X158263095Y-85177438D01*
X158596429Y-85129819D02*
X158834524Y-86129819D01*
X158834524Y-86129819D02*
X159025000Y-85415533D01*
X159025000Y-85415533D02*
X159215476Y-86129819D01*
X159215476Y-86129819D02*
X159453572Y-85129819D01*
X160358333Y-86129819D02*
X159786905Y-86129819D01*
X160072619Y-86129819D02*
X160072619Y-85129819D01*
X160072619Y-85129819D02*
X159977381Y-85272676D01*
X159977381Y-85272676D02*
X159882143Y-85367914D01*
X159882143Y-85367914D02*
X159786905Y-85415533D01*
X124208333Y-67209580D02*
X124160714Y-67257200D01*
X124160714Y-67257200D02*
X124017857Y-67304819D01*
X124017857Y-67304819D02*
X123922619Y-67304819D01*
X123922619Y-67304819D02*
X123779762Y-67257200D01*
X123779762Y-67257200D02*
X123684524Y-67161961D01*
X123684524Y-67161961D02*
X123636905Y-67066723D01*
X123636905Y-67066723D02*
X123589286Y-66876247D01*
X123589286Y-66876247D02*
X123589286Y-66733390D01*
X123589286Y-66733390D02*
X123636905Y-66542914D01*
X123636905Y-66542914D02*
X123684524Y-66447676D01*
X123684524Y-66447676D02*
X123779762Y-66352438D01*
X123779762Y-66352438D02*
X123922619Y-66304819D01*
X123922619Y-66304819D02*
X124017857Y-66304819D01*
X124017857Y-66304819D02*
X124160714Y-66352438D01*
X124160714Y-66352438D02*
X124208333Y-66400057D01*
X125160714Y-67304819D02*
X124589286Y-67304819D01*
X124875000Y-67304819D02*
X124875000Y-66304819D01*
X124875000Y-66304819D02*
X124779762Y-66447676D01*
X124779762Y-66447676D02*
X124684524Y-66542914D01*
X124684524Y-66542914D02*
X124589286Y-66590533D01*
X100691666Y-79094104D02*
X101167856Y-79094104D01*
X100596428Y-79379819D02*
X100929761Y-78379819D01*
X100929761Y-78379819D02*
X101263094Y-79379819D01*
X102120237Y-79379819D02*
X101548809Y-79379819D01*
X101834523Y-79379819D02*
X101834523Y-78379819D01*
X101834523Y-78379819D02*
X101739285Y-78522676D01*
X101739285Y-78522676D02*
X101644047Y-78617914D01*
X101644047Y-78617914D02*
X101548809Y-78665533D01*
X102310714Y-79475057D02*
X103072618Y-79475057D01*
X103501190Y-78379819D02*
X103691666Y-78379819D01*
X103691666Y-78379819D02*
X103786904Y-78427438D01*
X103786904Y-78427438D02*
X103882142Y-78522676D01*
X103882142Y-78522676D02*
X103929761Y-78713152D01*
X103929761Y-78713152D02*
X103929761Y-79046485D01*
X103929761Y-79046485D02*
X103882142Y-79236961D01*
X103882142Y-79236961D02*
X103786904Y-79332200D01*
X103786904Y-79332200D02*
X103691666Y-79379819D01*
X103691666Y-79379819D02*
X103501190Y-79379819D01*
X103501190Y-79379819D02*
X103405952Y-79332200D01*
X103405952Y-79332200D02*
X103310714Y-79236961D01*
X103310714Y-79236961D02*
X103263095Y-79046485D01*
X103263095Y-79046485D02*
X103263095Y-78713152D01*
X103263095Y-78713152D02*
X103310714Y-78522676D01*
X103310714Y-78522676D02*
X103405952Y-78427438D01*
X103405952Y-78427438D02*
X103501190Y-78379819D01*
X104786904Y-78713152D02*
X104786904Y-79379819D01*
X104358333Y-78713152D02*
X104358333Y-79236961D01*
X104358333Y-79236961D02*
X104405952Y-79332200D01*
X104405952Y-79332200D02*
X104501190Y-79379819D01*
X104501190Y-79379819D02*
X104644047Y-79379819D01*
X104644047Y-79379819D02*
X104739285Y-79332200D01*
X104739285Y-79332200D02*
X104786904Y-79284580D01*
X105120238Y-78713152D02*
X105501190Y-78713152D01*
X105263095Y-78379819D02*
X105263095Y-79236961D01*
X105263095Y-79236961D02*
X105310714Y-79332200D01*
X105310714Y-79332200D02*
X105405952Y-79379819D01*
X105405952Y-79379819D02*
X105501190Y-79379819D01*
X106358333Y-79379819D02*
X105786905Y-79379819D01*
X106072619Y-79379819D02*
X106072619Y-78379819D01*
X106072619Y-78379819D02*
X105977381Y-78522676D01*
X105977381Y-78522676D02*
X105882143Y-78617914D01*
X105882143Y-78617914D02*
X105786905Y-78665533D01*
X146758333Y-84004819D02*
X146425000Y-83528628D01*
X146186905Y-84004819D02*
X146186905Y-83004819D01*
X146186905Y-83004819D02*
X146567857Y-83004819D01*
X146567857Y-83004819D02*
X146663095Y-83052438D01*
X146663095Y-83052438D02*
X146710714Y-83100057D01*
X146710714Y-83100057D02*
X146758333Y-83195295D01*
X146758333Y-83195295D02*
X146758333Y-83338152D01*
X146758333Y-83338152D02*
X146710714Y-83433390D01*
X146710714Y-83433390D02*
X146663095Y-83481009D01*
X146663095Y-83481009D02*
X146567857Y-83528628D01*
X146567857Y-83528628D02*
X146186905Y-83528628D01*
X147091667Y-83004819D02*
X147758333Y-83004819D01*
X147758333Y-83004819D02*
X147329762Y-84004819D01*
X165182142Y-67929819D02*
X164848809Y-67453628D01*
X164610714Y-67929819D02*
X164610714Y-66929819D01*
X164610714Y-66929819D02*
X164991666Y-66929819D01*
X164991666Y-66929819D02*
X165086904Y-66977438D01*
X165086904Y-66977438D02*
X165134523Y-67025057D01*
X165134523Y-67025057D02*
X165182142Y-67120295D01*
X165182142Y-67120295D02*
X165182142Y-67263152D01*
X165182142Y-67263152D02*
X165134523Y-67358390D01*
X165134523Y-67358390D02*
X165086904Y-67406009D01*
X165086904Y-67406009D02*
X164991666Y-67453628D01*
X164991666Y-67453628D02*
X164610714Y-67453628D01*
X166134523Y-67929819D02*
X165563095Y-67929819D01*
X165848809Y-67929819D02*
X165848809Y-66929819D01*
X165848809Y-66929819D02*
X165753571Y-67072676D01*
X165753571Y-67072676D02*
X165658333Y-67167914D01*
X165658333Y-67167914D02*
X165563095Y-67215533D01*
X167086904Y-67929819D02*
X166515476Y-67929819D01*
X166801190Y-67929819D02*
X166801190Y-66929819D01*
X166801190Y-66929819D02*
X166705952Y-67072676D01*
X166705952Y-67072676D02*
X166610714Y-67167914D01*
X166610714Y-67167914D02*
X166515476Y-67215533D01*
X137858333Y-66054819D02*
X137525000Y-65578628D01*
X137286905Y-66054819D02*
X137286905Y-65054819D01*
X137286905Y-65054819D02*
X137667857Y-65054819D01*
X137667857Y-65054819D02*
X137763095Y-65102438D01*
X137763095Y-65102438D02*
X137810714Y-65150057D01*
X137810714Y-65150057D02*
X137858333Y-65245295D01*
X137858333Y-65245295D02*
X137858333Y-65388152D01*
X137858333Y-65388152D02*
X137810714Y-65483390D01*
X137810714Y-65483390D02*
X137763095Y-65531009D01*
X137763095Y-65531009D02*
X137667857Y-65578628D01*
X137667857Y-65578628D02*
X137286905Y-65578628D01*
X138715476Y-65388152D02*
X138715476Y-66054819D01*
X138477381Y-65007200D02*
X138239286Y-65721485D01*
X138239286Y-65721485D02*
X138858333Y-65721485D01*
X148683333Y-89054819D02*
X148350000Y-88578628D01*
X148111905Y-89054819D02*
X148111905Y-88054819D01*
X148111905Y-88054819D02*
X148492857Y-88054819D01*
X148492857Y-88054819D02*
X148588095Y-88102438D01*
X148588095Y-88102438D02*
X148635714Y-88150057D01*
X148635714Y-88150057D02*
X148683333Y-88245295D01*
X148683333Y-88245295D02*
X148683333Y-88388152D01*
X148683333Y-88388152D02*
X148635714Y-88483390D01*
X148635714Y-88483390D02*
X148588095Y-88531009D01*
X148588095Y-88531009D02*
X148492857Y-88578628D01*
X148492857Y-88578628D02*
X148111905Y-88578628D01*
X149540476Y-88054819D02*
X149350000Y-88054819D01*
X149350000Y-88054819D02*
X149254762Y-88102438D01*
X149254762Y-88102438D02*
X149207143Y-88150057D01*
X149207143Y-88150057D02*
X149111905Y-88292914D01*
X149111905Y-88292914D02*
X149064286Y-88483390D01*
X149064286Y-88483390D02*
X149064286Y-88864342D01*
X149064286Y-88864342D02*
X149111905Y-88959580D01*
X149111905Y-88959580D02*
X149159524Y-89007200D01*
X149159524Y-89007200D02*
X149254762Y-89054819D01*
X149254762Y-89054819D02*
X149445238Y-89054819D01*
X149445238Y-89054819D02*
X149540476Y-89007200D01*
X149540476Y-89007200D02*
X149588095Y-88959580D01*
X149588095Y-88959580D02*
X149635714Y-88864342D01*
X149635714Y-88864342D02*
X149635714Y-88626247D01*
X149635714Y-88626247D02*
X149588095Y-88531009D01*
X149588095Y-88531009D02*
X149540476Y-88483390D01*
X149540476Y-88483390D02*
X149445238Y-88435771D01*
X149445238Y-88435771D02*
X149254762Y-88435771D01*
X149254762Y-88435771D02*
X149159524Y-88483390D01*
X149159524Y-88483390D02*
X149111905Y-88531009D01*
X149111905Y-88531009D02*
X149064286Y-88626247D01*
X140808333Y-60604819D02*
X140475000Y-60128628D01*
X140236905Y-60604819D02*
X140236905Y-59604819D01*
X140236905Y-59604819D02*
X140617857Y-59604819D01*
X140617857Y-59604819D02*
X140713095Y-59652438D01*
X140713095Y-59652438D02*
X140760714Y-59700057D01*
X140760714Y-59700057D02*
X140808333Y-59795295D01*
X140808333Y-59795295D02*
X140808333Y-59938152D01*
X140808333Y-59938152D02*
X140760714Y-60033390D01*
X140760714Y-60033390D02*
X140713095Y-60081009D01*
X140713095Y-60081009D02*
X140617857Y-60128628D01*
X140617857Y-60128628D02*
X140236905Y-60128628D01*
X141189286Y-59700057D02*
X141236905Y-59652438D01*
X141236905Y-59652438D02*
X141332143Y-59604819D01*
X141332143Y-59604819D02*
X141570238Y-59604819D01*
X141570238Y-59604819D02*
X141665476Y-59652438D01*
X141665476Y-59652438D02*
X141713095Y-59700057D01*
X141713095Y-59700057D02*
X141760714Y-59795295D01*
X141760714Y-59795295D02*
X141760714Y-59890533D01*
X141760714Y-59890533D02*
X141713095Y-60033390D01*
X141713095Y-60033390D02*
X141141667Y-60604819D01*
X141141667Y-60604819D02*
X141760714Y-60604819D01*
X102138095Y-55602438D02*
X102042857Y-55554819D01*
X102042857Y-55554819D02*
X101900000Y-55554819D01*
X101900000Y-55554819D02*
X101757143Y-55602438D01*
X101757143Y-55602438D02*
X101661905Y-55697676D01*
X101661905Y-55697676D02*
X101614286Y-55792914D01*
X101614286Y-55792914D02*
X101566667Y-55983390D01*
X101566667Y-55983390D02*
X101566667Y-56126247D01*
X101566667Y-56126247D02*
X101614286Y-56316723D01*
X101614286Y-56316723D02*
X101661905Y-56411961D01*
X101661905Y-56411961D02*
X101757143Y-56507200D01*
X101757143Y-56507200D02*
X101900000Y-56554819D01*
X101900000Y-56554819D02*
X101995238Y-56554819D01*
X101995238Y-56554819D02*
X102138095Y-56507200D01*
X102138095Y-56507200D02*
X102185714Y-56459580D01*
X102185714Y-56459580D02*
X102185714Y-56126247D01*
X102185714Y-56126247D02*
X101995238Y-56126247D01*
X102614286Y-56554819D02*
X102614286Y-55554819D01*
X102614286Y-55554819D02*
X103185714Y-56554819D01*
X103185714Y-56554819D02*
X103185714Y-55554819D01*
X103661905Y-56554819D02*
X103661905Y-55554819D01*
X103661905Y-55554819D02*
X103900000Y-55554819D01*
X103900000Y-55554819D02*
X104042857Y-55602438D01*
X104042857Y-55602438D02*
X104138095Y-55697676D01*
X104138095Y-55697676D02*
X104185714Y-55792914D01*
X104185714Y-55792914D02*
X104233333Y-55983390D01*
X104233333Y-55983390D02*
X104233333Y-56126247D01*
X104233333Y-56126247D02*
X104185714Y-56316723D01*
X104185714Y-56316723D02*
X104138095Y-56411961D01*
X104138095Y-56411961D02*
X104042857Y-56507200D01*
X104042857Y-56507200D02*
X103900000Y-56554819D01*
X103900000Y-56554819D02*
X103661905Y-56554819D01*
X146083333Y-64309580D02*
X146035714Y-64357200D01*
X146035714Y-64357200D02*
X145892857Y-64404819D01*
X145892857Y-64404819D02*
X145797619Y-64404819D01*
X145797619Y-64404819D02*
X145654762Y-64357200D01*
X145654762Y-64357200D02*
X145559524Y-64261961D01*
X145559524Y-64261961D02*
X145511905Y-64166723D01*
X145511905Y-64166723D02*
X145464286Y-63976247D01*
X145464286Y-63976247D02*
X145464286Y-63833390D01*
X145464286Y-63833390D02*
X145511905Y-63642914D01*
X145511905Y-63642914D02*
X145559524Y-63547676D01*
X145559524Y-63547676D02*
X145654762Y-63452438D01*
X145654762Y-63452438D02*
X145797619Y-63404819D01*
X145797619Y-63404819D02*
X145892857Y-63404819D01*
X145892857Y-63404819D02*
X146035714Y-63452438D01*
X146035714Y-63452438D02*
X146083333Y-63500057D01*
X146416667Y-63404819D02*
X147035714Y-63404819D01*
X147035714Y-63404819D02*
X146702381Y-63785771D01*
X146702381Y-63785771D02*
X146845238Y-63785771D01*
X146845238Y-63785771D02*
X146940476Y-63833390D01*
X146940476Y-63833390D02*
X146988095Y-63881009D01*
X146988095Y-63881009D02*
X147035714Y-63976247D01*
X147035714Y-63976247D02*
X147035714Y-64214342D01*
X147035714Y-64214342D02*
X146988095Y-64309580D01*
X146988095Y-64309580D02*
X146940476Y-64357200D01*
X146940476Y-64357200D02*
X146845238Y-64404819D01*
X146845238Y-64404819D02*
X146559524Y-64404819D01*
X146559524Y-64404819D02*
X146464286Y-64357200D01*
X146464286Y-64357200D02*
X146416667Y-64309580D01*
X158256905Y-57994819D02*
X158256905Y-56994819D01*
X158256905Y-56994819D02*
X158495000Y-56994819D01*
X158495000Y-56994819D02*
X158637857Y-57042438D01*
X158637857Y-57042438D02*
X158733095Y-57137676D01*
X158733095Y-57137676D02*
X158780714Y-57232914D01*
X158780714Y-57232914D02*
X158828333Y-57423390D01*
X158828333Y-57423390D02*
X158828333Y-57566247D01*
X158828333Y-57566247D02*
X158780714Y-57756723D01*
X158780714Y-57756723D02*
X158733095Y-57851961D01*
X158733095Y-57851961D02*
X158637857Y-57947200D01*
X158637857Y-57947200D02*
X158495000Y-57994819D01*
X158495000Y-57994819D02*
X158256905Y-57994819D01*
X159685476Y-57328152D02*
X159685476Y-57994819D01*
X159447381Y-56947200D02*
X159209286Y-57661485D01*
X159209286Y-57661485D02*
X159828333Y-57661485D01*
X158532142Y-80934819D02*
X158198809Y-80458628D01*
X157960714Y-80934819D02*
X157960714Y-79934819D01*
X157960714Y-79934819D02*
X158341666Y-79934819D01*
X158341666Y-79934819D02*
X158436904Y-79982438D01*
X158436904Y-79982438D02*
X158484523Y-80030057D01*
X158484523Y-80030057D02*
X158532142Y-80125295D01*
X158532142Y-80125295D02*
X158532142Y-80268152D01*
X158532142Y-80268152D02*
X158484523Y-80363390D01*
X158484523Y-80363390D02*
X158436904Y-80411009D01*
X158436904Y-80411009D02*
X158341666Y-80458628D01*
X158341666Y-80458628D02*
X157960714Y-80458628D01*
X159484523Y-80934819D02*
X158913095Y-80934819D01*
X159198809Y-80934819D02*
X159198809Y-79934819D01*
X159198809Y-79934819D02*
X159103571Y-80077676D01*
X159103571Y-80077676D02*
X159008333Y-80172914D01*
X159008333Y-80172914D02*
X158913095Y-80220533D01*
X159865476Y-80030057D02*
X159913095Y-79982438D01*
X159913095Y-79982438D02*
X160008333Y-79934819D01*
X160008333Y-79934819D02*
X160246428Y-79934819D01*
X160246428Y-79934819D02*
X160341666Y-79982438D01*
X160341666Y-79982438D02*
X160389285Y-80030057D01*
X160389285Y-80030057D02*
X160436904Y-80125295D01*
X160436904Y-80125295D02*
X160436904Y-80220533D01*
X160436904Y-80220533D02*
X160389285Y-80363390D01*
X160389285Y-80363390D02*
X159817857Y-80934819D01*
X159817857Y-80934819D02*
X160436904Y-80934819D01*
X113783333Y-57579819D02*
X113450000Y-57103628D01*
X113211905Y-57579819D02*
X113211905Y-56579819D01*
X113211905Y-56579819D02*
X113592857Y-56579819D01*
X113592857Y-56579819D02*
X113688095Y-56627438D01*
X113688095Y-56627438D02*
X113735714Y-56675057D01*
X113735714Y-56675057D02*
X113783333Y-56770295D01*
X113783333Y-56770295D02*
X113783333Y-56913152D01*
X113783333Y-56913152D02*
X113735714Y-57008390D01*
X113735714Y-57008390D02*
X113688095Y-57056009D01*
X113688095Y-57056009D02*
X113592857Y-57103628D01*
X113592857Y-57103628D02*
X113211905Y-57103628D01*
X114354762Y-57008390D02*
X114259524Y-56960771D01*
X114259524Y-56960771D02*
X114211905Y-56913152D01*
X114211905Y-56913152D02*
X114164286Y-56817914D01*
X114164286Y-56817914D02*
X114164286Y-56770295D01*
X114164286Y-56770295D02*
X114211905Y-56675057D01*
X114211905Y-56675057D02*
X114259524Y-56627438D01*
X114259524Y-56627438D02*
X114354762Y-56579819D01*
X114354762Y-56579819D02*
X114545238Y-56579819D01*
X114545238Y-56579819D02*
X114640476Y-56627438D01*
X114640476Y-56627438D02*
X114688095Y-56675057D01*
X114688095Y-56675057D02*
X114735714Y-56770295D01*
X114735714Y-56770295D02*
X114735714Y-56817914D01*
X114735714Y-56817914D02*
X114688095Y-56913152D01*
X114688095Y-56913152D02*
X114640476Y-56960771D01*
X114640476Y-56960771D02*
X114545238Y-57008390D01*
X114545238Y-57008390D02*
X114354762Y-57008390D01*
X114354762Y-57008390D02*
X114259524Y-57056009D01*
X114259524Y-57056009D02*
X114211905Y-57103628D01*
X114211905Y-57103628D02*
X114164286Y-57198866D01*
X114164286Y-57198866D02*
X114164286Y-57389342D01*
X114164286Y-57389342D02*
X114211905Y-57484580D01*
X114211905Y-57484580D02*
X114259524Y-57532200D01*
X114259524Y-57532200D02*
X114354762Y-57579819D01*
X114354762Y-57579819D02*
X114545238Y-57579819D01*
X114545238Y-57579819D02*
X114640476Y-57532200D01*
X114640476Y-57532200D02*
X114688095Y-57484580D01*
X114688095Y-57484580D02*
X114735714Y-57389342D01*
X114735714Y-57389342D02*
X114735714Y-57198866D01*
X114735714Y-57198866D02*
X114688095Y-57103628D01*
X114688095Y-57103628D02*
X114640476Y-57056009D01*
X114640476Y-57056009D02*
X114545238Y-57008390D01*
X151683333Y-79759580D02*
X151635714Y-79807200D01*
X151635714Y-79807200D02*
X151492857Y-79854819D01*
X151492857Y-79854819D02*
X151397619Y-79854819D01*
X151397619Y-79854819D02*
X151254762Y-79807200D01*
X151254762Y-79807200D02*
X151159524Y-79711961D01*
X151159524Y-79711961D02*
X151111905Y-79616723D01*
X151111905Y-79616723D02*
X151064286Y-79426247D01*
X151064286Y-79426247D02*
X151064286Y-79283390D01*
X151064286Y-79283390D02*
X151111905Y-79092914D01*
X151111905Y-79092914D02*
X151159524Y-78997676D01*
X151159524Y-78997676D02*
X151254762Y-78902438D01*
X151254762Y-78902438D02*
X151397619Y-78854819D01*
X151397619Y-78854819D02*
X151492857Y-78854819D01*
X151492857Y-78854819D02*
X151635714Y-78902438D01*
X151635714Y-78902438D02*
X151683333Y-78950057D01*
X152540476Y-78854819D02*
X152350000Y-78854819D01*
X152350000Y-78854819D02*
X152254762Y-78902438D01*
X152254762Y-78902438D02*
X152207143Y-78950057D01*
X152207143Y-78950057D02*
X152111905Y-79092914D01*
X152111905Y-79092914D02*
X152064286Y-79283390D01*
X152064286Y-79283390D02*
X152064286Y-79664342D01*
X152064286Y-79664342D02*
X152111905Y-79759580D01*
X152111905Y-79759580D02*
X152159524Y-79807200D01*
X152159524Y-79807200D02*
X152254762Y-79854819D01*
X152254762Y-79854819D02*
X152445238Y-79854819D01*
X152445238Y-79854819D02*
X152540476Y-79807200D01*
X152540476Y-79807200D02*
X152588095Y-79759580D01*
X152588095Y-79759580D02*
X152635714Y-79664342D01*
X152635714Y-79664342D02*
X152635714Y-79426247D01*
X152635714Y-79426247D02*
X152588095Y-79331009D01*
X152588095Y-79331009D02*
X152540476Y-79283390D01*
X152540476Y-79283390D02*
X152445238Y-79235771D01*
X152445238Y-79235771D02*
X152254762Y-79235771D01*
X152254762Y-79235771D02*
X152159524Y-79283390D01*
X152159524Y-79283390D02*
X152111905Y-79331009D01*
X152111905Y-79331009D02*
X152064286Y-79426247D01*
X126933333Y-78334580D02*
X126885714Y-78382200D01*
X126885714Y-78382200D02*
X126742857Y-78429819D01*
X126742857Y-78429819D02*
X126647619Y-78429819D01*
X126647619Y-78429819D02*
X126504762Y-78382200D01*
X126504762Y-78382200D02*
X126409524Y-78286961D01*
X126409524Y-78286961D02*
X126361905Y-78191723D01*
X126361905Y-78191723D02*
X126314286Y-78001247D01*
X126314286Y-78001247D02*
X126314286Y-77858390D01*
X126314286Y-77858390D02*
X126361905Y-77667914D01*
X126361905Y-77667914D02*
X126409524Y-77572676D01*
X126409524Y-77572676D02*
X126504762Y-77477438D01*
X126504762Y-77477438D02*
X126647619Y-77429819D01*
X126647619Y-77429819D02*
X126742857Y-77429819D01*
X126742857Y-77429819D02*
X126885714Y-77477438D01*
X126885714Y-77477438D02*
X126933333Y-77525057D01*
X127790476Y-77763152D02*
X127790476Y-78429819D01*
X127552381Y-77382200D02*
X127314286Y-78096485D01*
X127314286Y-78096485D02*
X127933333Y-78096485D01*
X163166666Y-78529819D02*
X163166666Y-79244104D01*
X163166666Y-79244104D02*
X163119047Y-79386961D01*
X163119047Y-79386961D02*
X163023809Y-79482200D01*
X163023809Y-79482200D02*
X162880952Y-79529819D01*
X162880952Y-79529819D02*
X162785714Y-79529819D01*
X164119047Y-78529819D02*
X163642857Y-78529819D01*
X163642857Y-78529819D02*
X163595238Y-79006009D01*
X163595238Y-79006009D02*
X163642857Y-78958390D01*
X163642857Y-78958390D02*
X163738095Y-78910771D01*
X163738095Y-78910771D02*
X163976190Y-78910771D01*
X163976190Y-78910771D02*
X164071428Y-78958390D01*
X164071428Y-78958390D02*
X164119047Y-79006009D01*
X164119047Y-79006009D02*
X164166666Y-79101247D01*
X164166666Y-79101247D02*
X164166666Y-79339342D01*
X164166666Y-79339342D02*
X164119047Y-79434580D01*
X164119047Y-79434580D02*
X164071428Y-79482200D01*
X164071428Y-79482200D02*
X163976190Y-79529819D01*
X163976190Y-79529819D02*
X163738095Y-79529819D01*
X163738095Y-79529819D02*
X163642857Y-79482200D01*
X163642857Y-79482200D02*
X163595238Y-79434580D01*
D11*
%TO.C,A_In2_N1*%
X101745000Y-95445000D02*
X103075000Y-95445000D01*
X101745000Y-96775000D02*
X101745000Y-95445000D01*
X101745000Y-98045000D02*
X101745000Y-98105000D01*
X101745000Y-98045000D02*
X104405000Y-98045000D01*
X101745000Y-98105000D02*
X104405000Y-98105000D01*
X104405000Y-98045000D02*
X104405000Y-98105000D01*
%TO.C,A_In1_N1*%
X104130000Y-66895000D02*
X104130000Y-66955000D01*
X101470000Y-66955000D02*
X104130000Y-66955000D01*
X101470000Y-66895000D02*
X104130000Y-66895000D01*
X101470000Y-66895000D02*
X101470000Y-66955000D01*
X101470000Y-65625000D02*
X101470000Y-64295000D01*
X101470000Y-64295000D02*
X102800000Y-64295000D01*
%TO.C,A_In_P1*%
X104155000Y-89595000D02*
X104155000Y-89655000D01*
X101495000Y-89655000D02*
X104155000Y-89655000D01*
X101495000Y-89595000D02*
X104155000Y-89595000D01*
X101495000Y-89595000D02*
X101495000Y-89655000D01*
X101495000Y-88325000D02*
X101495000Y-86995000D01*
X101495000Y-86995000D02*
X102825000Y-86995000D01*
%TO.C,A2_Out1*%
X111295000Y-95745000D02*
X112625000Y-95745000D01*
X111295000Y-97075000D02*
X111295000Y-95745000D01*
X111295000Y-98345000D02*
X111295000Y-98405000D01*
X111295000Y-98345000D02*
X113955000Y-98345000D01*
X111295000Y-98405000D02*
X113955000Y-98405000D01*
X113955000Y-98345000D02*
X113955000Y-98405000D01*
%TO.C,U1*%
X143735000Y-66495000D02*
X143735000Y-76775000D01*
X143735000Y-76775000D02*
X149035000Y-76775000D01*
X145385000Y-66495000D02*
X143735000Y-66495000D01*
X149035000Y-66495000D02*
X147385000Y-66495000D01*
X149035000Y-76775000D02*
X149035000Y-66495000D01*
X147385000Y-66495000D02*
G75*
G02*
X145385000Y-66495000I-1000000J0D01*
G01*
%TO.C,C2*%
X119270354Y-55625000D02*
X120270354Y-55625000D01*
X119770354Y-55125000D02*
X119770354Y-56125000D01*
X124750000Y-53420000D02*
X124750000Y-63580000D01*
X124790000Y-53420000D02*
X124790000Y-63580000D01*
X124830000Y-53420000D02*
X124830000Y-63580000D01*
X124870000Y-53421000D02*
X124870000Y-63579000D01*
X124910000Y-53422000D02*
X124910000Y-63578000D01*
X124950000Y-53423000D02*
X124950000Y-63577000D01*
X124990000Y-53425000D02*
X124990000Y-57460000D01*
X124990000Y-59540000D02*
X124990000Y-63575000D01*
X125030000Y-53427000D02*
X125030000Y-57460000D01*
X125030000Y-59540000D02*
X125030000Y-63573000D01*
X125070000Y-53430000D02*
X125070000Y-57460000D01*
X125070000Y-59540000D02*
X125070000Y-63570000D01*
X125110000Y-53432000D02*
X125110000Y-57460000D01*
X125110000Y-59540000D02*
X125110000Y-63568000D01*
X125150000Y-53435000D02*
X125150000Y-57460000D01*
X125150000Y-59540000D02*
X125150000Y-63565000D01*
X125190000Y-53438000D02*
X125190000Y-57460000D01*
X125190000Y-59540000D02*
X125190000Y-63562000D01*
X125230000Y-53442000D02*
X125230000Y-57460000D01*
X125230000Y-59540000D02*
X125230000Y-63558000D01*
X125270000Y-53446000D02*
X125270000Y-57460000D01*
X125270000Y-59540000D02*
X125270000Y-63554000D01*
X125310000Y-53450000D02*
X125310000Y-57460000D01*
X125310000Y-59540000D02*
X125310000Y-63550000D01*
X125350000Y-53455000D02*
X125350000Y-57460000D01*
X125350000Y-59540000D02*
X125350000Y-63545000D01*
X125390000Y-53460000D02*
X125390000Y-57460000D01*
X125390000Y-59540000D02*
X125390000Y-63540000D01*
X125430000Y-53465000D02*
X125430000Y-57460000D01*
X125430000Y-59540000D02*
X125430000Y-63535000D01*
X125471000Y-53470000D02*
X125471000Y-57460000D01*
X125471000Y-59540000D02*
X125471000Y-63530000D01*
X125511000Y-53476000D02*
X125511000Y-57460000D01*
X125511000Y-59540000D02*
X125511000Y-63524000D01*
X125551000Y-53482000D02*
X125551000Y-57460000D01*
X125551000Y-59540000D02*
X125551000Y-63518000D01*
X125591000Y-53489000D02*
X125591000Y-57460000D01*
X125591000Y-59540000D02*
X125591000Y-63511000D01*
X125631000Y-53496000D02*
X125631000Y-57460000D01*
X125631000Y-59540000D02*
X125631000Y-63504000D01*
X125671000Y-53503000D02*
X125671000Y-57460000D01*
X125671000Y-59540000D02*
X125671000Y-63497000D01*
X125711000Y-53510000D02*
X125711000Y-57460000D01*
X125711000Y-59540000D02*
X125711000Y-63490000D01*
X125751000Y-53518000D02*
X125751000Y-57460000D01*
X125751000Y-59540000D02*
X125751000Y-63482000D01*
X125791000Y-53526000D02*
X125791000Y-57460000D01*
X125791000Y-59540000D02*
X125791000Y-63474000D01*
X125831000Y-53535000D02*
X125831000Y-57460000D01*
X125831000Y-59540000D02*
X125831000Y-63465000D01*
X125871000Y-53544000D02*
X125871000Y-57460000D01*
X125871000Y-59540000D02*
X125871000Y-63456000D01*
X125911000Y-53553000D02*
X125911000Y-57460000D01*
X125911000Y-59540000D02*
X125911000Y-63447000D01*
X125951000Y-53562000D02*
X125951000Y-57460000D01*
X125951000Y-59540000D02*
X125951000Y-63438000D01*
X125991000Y-53572000D02*
X125991000Y-57460000D01*
X125991000Y-59540000D02*
X125991000Y-63428000D01*
X126031000Y-53582000D02*
X126031000Y-57460000D01*
X126031000Y-59540000D02*
X126031000Y-63418000D01*
X126071000Y-53593000D02*
X126071000Y-57460000D01*
X126071000Y-59540000D02*
X126071000Y-63407000D01*
X126111000Y-53603000D02*
X126111000Y-57460000D01*
X126111000Y-59540000D02*
X126111000Y-63397000D01*
X126151000Y-53615000D02*
X126151000Y-57460000D01*
X126151000Y-59540000D02*
X126151000Y-63385000D01*
X126191000Y-53626000D02*
X126191000Y-57460000D01*
X126191000Y-59540000D02*
X126191000Y-63374000D01*
X126231000Y-53638000D02*
X126231000Y-57460000D01*
X126231000Y-59540000D02*
X126231000Y-63362000D01*
X126271000Y-53650000D02*
X126271000Y-57460000D01*
X126271000Y-59540000D02*
X126271000Y-63350000D01*
X126311000Y-53663000D02*
X126311000Y-57460000D01*
X126311000Y-59540000D02*
X126311000Y-63337000D01*
X126351000Y-53676000D02*
X126351000Y-57460000D01*
X126351000Y-59540000D02*
X126351000Y-63324000D01*
X126391000Y-53689000D02*
X126391000Y-57460000D01*
X126391000Y-59540000D02*
X126391000Y-63311000D01*
X126431000Y-53703000D02*
X126431000Y-57460000D01*
X126431000Y-59540000D02*
X126431000Y-63297000D01*
X126471000Y-53717000D02*
X126471000Y-57460000D01*
X126471000Y-59540000D02*
X126471000Y-63283000D01*
X126511000Y-53732000D02*
X126511000Y-57460000D01*
X126511000Y-59540000D02*
X126511000Y-63268000D01*
X126551000Y-53746000D02*
X126551000Y-57460000D01*
X126551000Y-59540000D02*
X126551000Y-63254000D01*
X126591000Y-53762000D02*
X126591000Y-57460000D01*
X126591000Y-59540000D02*
X126591000Y-63238000D01*
X126631000Y-53777000D02*
X126631000Y-57460000D01*
X126631000Y-59540000D02*
X126631000Y-63223000D01*
X126671000Y-53793000D02*
X126671000Y-57460000D01*
X126671000Y-59540000D02*
X126671000Y-63207000D01*
X126711000Y-53810000D02*
X126711000Y-57460000D01*
X126711000Y-59540000D02*
X126711000Y-63190000D01*
X126751000Y-53826000D02*
X126751000Y-57460000D01*
X126751000Y-59540000D02*
X126751000Y-63174000D01*
X126791000Y-53843000D02*
X126791000Y-57460000D01*
X126791000Y-59540000D02*
X126791000Y-63157000D01*
X126831000Y-53861000D02*
X126831000Y-57460000D01*
X126831000Y-59540000D02*
X126831000Y-63139000D01*
X126871000Y-53879000D02*
X126871000Y-57460000D01*
X126871000Y-59540000D02*
X126871000Y-63121000D01*
X126911000Y-53897000D02*
X126911000Y-57460000D01*
X126911000Y-59540000D02*
X126911000Y-63103000D01*
X126951000Y-53916000D02*
X126951000Y-57460000D01*
X126951000Y-59540000D02*
X126951000Y-63084000D01*
X126991000Y-53936000D02*
X126991000Y-57460000D01*
X126991000Y-59540000D02*
X126991000Y-63064000D01*
X127031000Y-53955000D02*
X127031000Y-57460000D01*
X127031000Y-59540000D02*
X127031000Y-63045000D01*
X127071000Y-53975000D02*
X127071000Y-63025000D01*
X127111000Y-53996000D02*
X127111000Y-63004000D01*
X127151000Y-54017000D02*
X127151000Y-62983000D01*
X127191000Y-54038000D02*
X127191000Y-62962000D01*
X127231000Y-54060000D02*
X127231000Y-62940000D01*
X127271000Y-54083000D02*
X127271000Y-62917000D01*
X127311000Y-54105000D02*
X127311000Y-62895000D01*
X127351000Y-54129000D02*
X127351000Y-62871000D01*
X127391000Y-54153000D02*
X127391000Y-62847000D01*
X127431000Y-54177000D02*
X127431000Y-62823000D01*
X127471000Y-54202000D02*
X127471000Y-62798000D01*
X127511000Y-54227000D02*
X127511000Y-62773000D01*
X127551000Y-54253000D02*
X127551000Y-62747000D01*
X127591000Y-54279000D02*
X127591000Y-62721000D01*
X127631000Y-54306000D02*
X127631000Y-62694000D01*
X127671000Y-54334000D02*
X127671000Y-62666000D01*
X127711000Y-54362000D02*
X127711000Y-62638000D01*
X127751000Y-54390000D02*
X127751000Y-62610000D01*
X127791000Y-54420000D02*
X127791000Y-62580000D01*
X127831000Y-54450000D02*
X127831000Y-62550000D01*
X127871000Y-54480000D02*
X127871000Y-62520000D01*
X127911000Y-54511000D02*
X127911000Y-62489000D01*
X127951000Y-54543000D02*
X127951000Y-62457000D01*
X127991000Y-54575000D02*
X127991000Y-62425000D01*
X128031000Y-54608000D02*
X128031000Y-62392000D01*
X128071000Y-54642000D02*
X128071000Y-62358000D01*
X128111000Y-54676000D02*
X128111000Y-62324000D01*
X128151000Y-54711000D02*
X128151000Y-62289000D01*
X128191000Y-54747000D02*
X128191000Y-62253000D01*
X128231000Y-54784000D02*
X128231000Y-62216000D01*
X128271000Y-54821000D02*
X128271000Y-62179000D01*
X128311000Y-54860000D02*
X128311000Y-62140000D01*
X128351000Y-54899000D02*
X128351000Y-62101000D01*
X128391000Y-54939000D02*
X128391000Y-62061000D01*
X128431000Y-54980000D02*
X128431000Y-62020000D01*
X128471000Y-55022000D02*
X128471000Y-61978000D01*
X128511000Y-55064000D02*
X128511000Y-61936000D01*
X128551000Y-55108000D02*
X128551000Y-61892000D01*
X128591000Y-55153000D02*
X128591000Y-61847000D01*
X128631000Y-55199000D02*
X128631000Y-61801000D01*
X128671000Y-55246000D02*
X128671000Y-61754000D01*
X128711000Y-55294000D02*
X128711000Y-61706000D01*
X128751000Y-55344000D02*
X128751000Y-61656000D01*
X128791000Y-55394000D02*
X128791000Y-61606000D01*
X128831000Y-55446000D02*
X128831000Y-61554000D01*
X128871000Y-55500000D02*
X128871000Y-61500000D01*
X128911000Y-55555000D02*
X128911000Y-61445000D01*
X128951000Y-55611000D02*
X128951000Y-61389000D01*
X128991000Y-55670000D02*
X128991000Y-61330000D01*
X129031000Y-55730000D02*
X129031000Y-61270000D01*
X129071000Y-55791000D02*
X129071000Y-61209000D01*
X129111000Y-55855000D02*
X129111000Y-61145000D01*
X129151000Y-55921000D02*
X129151000Y-61079000D01*
X129191000Y-55990000D02*
X129191000Y-61010000D01*
X129231000Y-56061000D02*
X129231000Y-60939000D01*
X129271000Y-56135000D02*
X129271000Y-60865000D01*
X129311000Y-56211000D02*
X129311000Y-60789000D01*
X129351000Y-56291000D02*
X129351000Y-60709000D01*
X129391000Y-56375000D02*
X129391000Y-60625000D01*
X129431000Y-56463000D02*
X129431000Y-60537000D01*
X129471000Y-56556000D02*
X129471000Y-60444000D01*
X129511000Y-56654000D02*
X129511000Y-60346000D01*
X129551000Y-56758000D02*
X129551000Y-60242000D01*
X129591000Y-56870000D02*
X129591000Y-60130000D01*
X129631000Y-56990000D02*
X129631000Y-60010000D01*
X129671000Y-57122000D02*
X129671000Y-59878000D01*
X129711000Y-57270000D02*
X129711000Y-59730000D01*
X129751000Y-57438000D02*
X129751000Y-59562000D01*
X129791000Y-57638000D02*
X129791000Y-59362000D01*
X129831000Y-57901000D02*
X129831000Y-59099000D01*
X129870000Y-58500000D02*
G75*
G02*
X119630000Y-58500000I-5120000J0D01*
G01*
X119630000Y-58500000D02*
G75*
G02*
X129870000Y-58500000I5120000J0D01*
G01*
%TO.C,VCC1*%
X104155000Y-53670000D02*
X104155000Y-53730000D01*
X101495000Y-53730000D02*
X104155000Y-53730000D01*
X101495000Y-53670000D02*
X104155000Y-53670000D01*
X101495000Y-53670000D02*
X101495000Y-53730000D01*
X101495000Y-52400000D02*
X101495000Y-51070000D01*
X101495000Y-51070000D02*
X102825000Y-51070000D01*
%TO.C,R10*%
X115130000Y-67230000D02*
X115130000Y-73770000D01*
X115130000Y-73770000D02*
X115460000Y-73770000D01*
X115460000Y-67230000D02*
X115130000Y-67230000D01*
X117540000Y-67230000D02*
X117870000Y-67230000D01*
X117870000Y-67230000D02*
X117870000Y-73770000D01*
X117870000Y-73770000D02*
X117540000Y-73770000D01*
%TO.C,D2*%
X106670000Y-61455000D02*
X106670000Y-64545000D01*
X106670001Y-61455170D02*
G75*
G02*
X112219999Y-63000462I2559999J-1544830D01*
G01*
X112220000Y-62999538D02*
G75*
G02*
X106670000Y-64544830I-2990000J-462D01*
G01*
X111730000Y-63000000D02*
G75*
G02*
X106730000Y-63000000I-2500000J0D01*
G01*
X106730000Y-63000000D02*
G75*
G02*
X111730000Y-63000000I2500000J0D01*
G01*
%TO.C,R9*%
X120230000Y-72630000D02*
X120230000Y-72960000D01*
X120230000Y-75370000D02*
X120230000Y-75040000D01*
X126770000Y-72630000D02*
X120230000Y-72630000D01*
X126770000Y-72960000D02*
X126770000Y-72630000D01*
X126770000Y-75040000D02*
X126770000Y-75370000D01*
X126770000Y-75370000D02*
X120230000Y-75370000D01*
%TO.C,D3*%
X106935000Y-69955000D02*
X106935000Y-73045000D01*
X106935001Y-69955170D02*
G75*
G02*
X112484999Y-71500462I2559999J-1544830D01*
G01*
X112485000Y-71499538D02*
G75*
G02*
X106935000Y-73044830I-2990000J-462D01*
G01*
X111995000Y-71500000D02*
G75*
G02*
X106995000Y-71500000I-2500000J0D01*
G01*
X106995000Y-71500000D02*
G75*
G02*
X111995000Y-71500000I2500000J0D01*
G01*
%TO.C,C5*%
X132005000Y-77930000D02*
X132005000Y-81170000D01*
X132005000Y-77930000D02*
X139445000Y-77930000D01*
X132005000Y-81170000D02*
X139445000Y-81170000D01*
X139445000Y-77930000D02*
X139445000Y-81170000D01*
%TO.C,R3*%
X131810000Y-68220000D02*
X131810000Y-74760000D01*
X131810000Y-74760000D02*
X132140000Y-74760000D01*
X132140000Y-68220000D02*
X131810000Y-68220000D01*
X134220000Y-68220000D02*
X134550000Y-68220000D01*
X134550000Y-68220000D02*
X134550000Y-74760000D01*
X134550000Y-74760000D02*
X134220000Y-74760000D01*
%TO.C,R1*%
X131630000Y-55730000D02*
X131960000Y-55730000D01*
X131630000Y-62270000D02*
X131630000Y-55730000D01*
X131960000Y-62270000D02*
X131630000Y-62270000D01*
X134040000Y-62270000D02*
X134370000Y-62270000D01*
X134370000Y-55730000D02*
X134040000Y-55730000D01*
X134370000Y-62270000D02*
X134370000Y-55730000D01*
%TO.C,U2*%
X133040000Y-82550000D02*
X133040000Y-92830000D01*
X133040000Y-92830000D02*
X138340000Y-92830000D01*
X134690000Y-82550000D02*
X133040000Y-82550000D01*
X138340000Y-82550000D02*
X136690000Y-82550000D01*
X138340000Y-92830000D02*
X138340000Y-82550000D01*
X136690000Y-82550000D02*
G75*
G02*
X134690000Y-82550000I-1000000J0D01*
G01*
%TO.C,V_In1*%
X154670000Y-53170000D02*
X156000000Y-53170000D01*
X154670000Y-54500000D02*
X154670000Y-53170000D01*
X154670000Y-55770000D02*
X154670000Y-55830000D01*
X154670000Y-55770000D02*
X157330000Y-55770000D01*
X154670000Y-55830000D02*
X157330000Y-55830000D01*
X157330000Y-55770000D02*
X157330000Y-55830000D01*
%TO.C,GND*%
X103930000Y-76170000D02*
X103930000Y-76230000D01*
X101270000Y-76230000D02*
X103930000Y-76230000D01*
X101270000Y-76170000D02*
X103930000Y-76170000D01*
X101270000Y-76170000D02*
X101270000Y-76230000D01*
X101270000Y-74900000D02*
X101270000Y-73570000D01*
X101270000Y-73570000D02*
X102600000Y-73570000D01*
X161170000Y-53170000D02*
X162500000Y-53170000D01*
X161170000Y-54500000D02*
X161170000Y-53170000D01*
X161170000Y-55770000D02*
X161170000Y-55830000D01*
X161170000Y-55770000D02*
X163830000Y-55770000D01*
X161170000Y-55830000D02*
X163830000Y-55830000D01*
X163830000Y-55770000D02*
X163830000Y-55830000D01*
%TO.C,V_Out1*%
X123230000Y-98770000D02*
X123230000Y-98830000D01*
X120570000Y-98830000D02*
X123230000Y-98830000D01*
X120570000Y-98770000D02*
X123230000Y-98770000D01*
X120570000Y-98770000D02*
X120570000Y-98830000D01*
X120570000Y-97500000D02*
X120570000Y-96170000D01*
X120570000Y-96170000D02*
X121900000Y-96170000D01*
%TO.C,R5*%
X120380000Y-90005000D02*
X126920000Y-90005000D01*
X120380000Y-90335000D02*
X120380000Y-90005000D01*
X120380000Y-92415000D02*
X120380000Y-92745000D01*
X120380000Y-92745000D02*
X126920000Y-92745000D01*
X126920000Y-90005000D02*
X126920000Y-90335000D01*
X126920000Y-92745000D02*
X126920000Y-92415000D01*
%TO.C,D1*%
X106735000Y-52880000D02*
X106735000Y-55970000D01*
X106735001Y-52880170D02*
G75*
G02*
X112284999Y-54425462I2559999J-1544830D01*
G01*
X112285000Y-54424538D02*
G75*
G02*
X106735000Y-55969830I-2990000J-462D01*
G01*
X111795000Y-54425000D02*
G75*
G02*
X106795000Y-54425000I-2500000J0D01*
G01*
X106795000Y-54425000D02*
G75*
G02*
X111795000Y-54425000I2500000J0D01*
G01*
%TO.C,SW1*%
X155525000Y-89175000D02*
X155525000Y-90675000D01*
X156775000Y-93175000D02*
X161275000Y-93175000D01*
X161275000Y-86675000D02*
X156775000Y-86675000D01*
X162525000Y-90675000D02*
X162525000Y-89175000D01*
%TO.C,C1*%
X120280000Y-67880000D02*
X120280000Y-71120000D01*
X120280000Y-67880000D02*
X127720000Y-67880000D01*
X120280000Y-71120000D02*
X127720000Y-71120000D01*
X127720000Y-67880000D02*
X127720000Y-71120000D01*
%TO.C,A1_Out1*%
X101420000Y-81145000D02*
X102750000Y-81145000D01*
X101420000Y-82475000D02*
X101420000Y-81145000D01*
X101420000Y-83745000D02*
X101420000Y-83805000D01*
X101420000Y-83745000D02*
X104080000Y-83745000D01*
X101420000Y-83805000D02*
X104080000Y-83805000D01*
X104080000Y-83745000D02*
X104080000Y-83805000D01*
%TO.C,R7*%
X143355000Y-84505000D02*
X143355000Y-84835000D01*
X143355000Y-87245000D02*
X143355000Y-86915000D01*
X149895000Y-84505000D02*
X143355000Y-84505000D01*
X149895000Y-84835000D02*
X149895000Y-84505000D01*
X149895000Y-86915000D02*
X149895000Y-87245000D01*
X149895000Y-87245000D02*
X143355000Y-87245000D01*
%TO.C,R11*%
X156005000Y-66055000D02*
X156005000Y-66385000D01*
X156005000Y-68795000D02*
X156005000Y-68465000D01*
X162545000Y-66055000D02*
X156005000Y-66055000D01*
X162545000Y-66385000D02*
X162545000Y-66055000D01*
X162545000Y-68465000D02*
X162545000Y-68795000D01*
X162545000Y-68795000D02*
X156005000Y-68795000D01*
%TO.C,R4*%
X136810000Y-68410000D02*
X136810000Y-74950000D01*
X136810000Y-74950000D02*
X137140000Y-74950000D01*
X137140000Y-68410000D02*
X136810000Y-68410000D01*
X139220000Y-68410000D02*
X139550000Y-68410000D01*
X139550000Y-68410000D02*
X139550000Y-74950000D01*
X139550000Y-74950000D02*
X139220000Y-74950000D01*
%TO.C,R6*%
X143405000Y-89605000D02*
X143405000Y-89935000D01*
X143405000Y-92345000D02*
X143405000Y-92015000D01*
X149945000Y-89605000D02*
X143405000Y-89605000D01*
X149945000Y-89935000D02*
X149945000Y-89605000D01*
X149945000Y-92015000D02*
X149945000Y-92345000D01*
X149945000Y-92345000D02*
X143405000Y-92345000D01*
%TO.C,R2*%
X136630000Y-55730000D02*
X136960000Y-55730000D01*
X136630000Y-62270000D02*
X136630000Y-55730000D01*
X136960000Y-62270000D02*
X136630000Y-62270000D01*
X139040000Y-62270000D02*
X139370000Y-62270000D01*
X139370000Y-55730000D02*
X139040000Y-55730000D01*
X139370000Y-62270000D02*
X139370000Y-55730000D01*
%TO.C,GND*%
X104230000Y-60370000D02*
X104230000Y-60430000D01*
X101570000Y-60430000D02*
X104230000Y-60430000D01*
X101570000Y-60370000D02*
X104230000Y-60370000D01*
X101570000Y-60370000D02*
X101570000Y-60430000D01*
X101570000Y-59100000D02*
X101570000Y-57770000D01*
X101570000Y-57770000D02*
X102900000Y-57770000D01*
%TO.C,C3*%
X142270354Y-55125000D02*
X143270354Y-55125000D01*
X142770354Y-54625000D02*
X142770354Y-55625000D01*
X147750000Y-52920000D02*
X147750000Y-63080000D01*
X147790000Y-52920000D02*
X147790000Y-63080000D01*
X147830000Y-52920000D02*
X147830000Y-63080000D01*
X147870000Y-52921000D02*
X147870000Y-63079000D01*
X147910000Y-52922000D02*
X147910000Y-63078000D01*
X147950000Y-52923000D02*
X147950000Y-63077000D01*
X147990000Y-52925000D02*
X147990000Y-56960000D01*
X147990000Y-59040000D02*
X147990000Y-63075000D01*
X148030000Y-52927000D02*
X148030000Y-56960000D01*
X148030000Y-59040000D02*
X148030000Y-63073000D01*
X148070000Y-52930000D02*
X148070000Y-56960000D01*
X148070000Y-59040000D02*
X148070000Y-63070000D01*
X148110000Y-52932000D02*
X148110000Y-56960000D01*
X148110000Y-59040000D02*
X148110000Y-63068000D01*
X148150000Y-52935000D02*
X148150000Y-56960000D01*
X148150000Y-59040000D02*
X148150000Y-63065000D01*
X148190000Y-52938000D02*
X148190000Y-56960000D01*
X148190000Y-59040000D02*
X148190000Y-63062000D01*
X148230000Y-52942000D02*
X148230000Y-56960000D01*
X148230000Y-59040000D02*
X148230000Y-63058000D01*
X148270000Y-52946000D02*
X148270000Y-56960000D01*
X148270000Y-59040000D02*
X148270000Y-63054000D01*
X148310000Y-52950000D02*
X148310000Y-56960000D01*
X148310000Y-59040000D02*
X148310000Y-63050000D01*
X148350000Y-52955000D02*
X148350000Y-56960000D01*
X148350000Y-59040000D02*
X148350000Y-63045000D01*
X148390000Y-52960000D02*
X148390000Y-56960000D01*
X148390000Y-59040000D02*
X148390000Y-63040000D01*
X148430000Y-52965000D02*
X148430000Y-56960000D01*
X148430000Y-59040000D02*
X148430000Y-63035000D01*
X148471000Y-52970000D02*
X148471000Y-56960000D01*
X148471000Y-59040000D02*
X148471000Y-63030000D01*
X148511000Y-52976000D02*
X148511000Y-56960000D01*
X148511000Y-59040000D02*
X148511000Y-63024000D01*
X148551000Y-52982000D02*
X148551000Y-56960000D01*
X148551000Y-59040000D02*
X148551000Y-63018000D01*
X148591000Y-52989000D02*
X148591000Y-56960000D01*
X148591000Y-59040000D02*
X148591000Y-63011000D01*
X148631000Y-52996000D02*
X148631000Y-56960000D01*
X148631000Y-59040000D02*
X148631000Y-63004000D01*
X148671000Y-53003000D02*
X148671000Y-56960000D01*
X148671000Y-59040000D02*
X148671000Y-62997000D01*
X148711000Y-53010000D02*
X148711000Y-56960000D01*
X148711000Y-59040000D02*
X148711000Y-62990000D01*
X148751000Y-53018000D02*
X148751000Y-56960000D01*
X148751000Y-59040000D02*
X148751000Y-62982000D01*
X148791000Y-53026000D02*
X148791000Y-56960000D01*
X148791000Y-59040000D02*
X148791000Y-62974000D01*
X148831000Y-53035000D02*
X148831000Y-56960000D01*
X148831000Y-59040000D02*
X148831000Y-62965000D01*
X148871000Y-53044000D02*
X148871000Y-56960000D01*
X148871000Y-59040000D02*
X148871000Y-62956000D01*
X148911000Y-53053000D02*
X148911000Y-56960000D01*
X148911000Y-59040000D02*
X148911000Y-62947000D01*
X148951000Y-53062000D02*
X148951000Y-56960000D01*
X148951000Y-59040000D02*
X148951000Y-62938000D01*
X148991000Y-53072000D02*
X148991000Y-56960000D01*
X148991000Y-59040000D02*
X148991000Y-62928000D01*
X149031000Y-53082000D02*
X149031000Y-56960000D01*
X149031000Y-59040000D02*
X149031000Y-62918000D01*
X149071000Y-53093000D02*
X149071000Y-56960000D01*
X149071000Y-59040000D02*
X149071000Y-62907000D01*
X149111000Y-53103000D02*
X149111000Y-56960000D01*
X149111000Y-59040000D02*
X149111000Y-62897000D01*
X149151000Y-53115000D02*
X149151000Y-56960000D01*
X149151000Y-59040000D02*
X149151000Y-62885000D01*
X149191000Y-53126000D02*
X149191000Y-56960000D01*
X149191000Y-59040000D02*
X149191000Y-62874000D01*
X149231000Y-53138000D02*
X149231000Y-56960000D01*
X149231000Y-59040000D02*
X149231000Y-62862000D01*
X149271000Y-53150000D02*
X149271000Y-56960000D01*
X149271000Y-59040000D02*
X149271000Y-62850000D01*
X149311000Y-53163000D02*
X149311000Y-56960000D01*
X149311000Y-59040000D02*
X149311000Y-62837000D01*
X149351000Y-53176000D02*
X149351000Y-56960000D01*
X149351000Y-59040000D02*
X149351000Y-62824000D01*
X149391000Y-53189000D02*
X149391000Y-56960000D01*
X149391000Y-59040000D02*
X149391000Y-62811000D01*
X149431000Y-53203000D02*
X149431000Y-56960000D01*
X149431000Y-59040000D02*
X149431000Y-62797000D01*
X149471000Y-53217000D02*
X149471000Y-56960000D01*
X149471000Y-59040000D02*
X149471000Y-62783000D01*
X149511000Y-53232000D02*
X149511000Y-56960000D01*
X149511000Y-59040000D02*
X149511000Y-62768000D01*
X149551000Y-53246000D02*
X149551000Y-56960000D01*
X149551000Y-59040000D02*
X149551000Y-62754000D01*
X149591000Y-53262000D02*
X149591000Y-56960000D01*
X149591000Y-59040000D02*
X149591000Y-62738000D01*
X149631000Y-53277000D02*
X149631000Y-56960000D01*
X149631000Y-59040000D02*
X149631000Y-62723000D01*
X149671000Y-53293000D02*
X149671000Y-56960000D01*
X149671000Y-59040000D02*
X149671000Y-62707000D01*
X149711000Y-53310000D02*
X149711000Y-56960000D01*
X149711000Y-59040000D02*
X149711000Y-62690000D01*
X149751000Y-53326000D02*
X149751000Y-56960000D01*
X149751000Y-59040000D02*
X149751000Y-62674000D01*
X149791000Y-53343000D02*
X149791000Y-56960000D01*
X149791000Y-59040000D02*
X149791000Y-62657000D01*
X149831000Y-53361000D02*
X149831000Y-56960000D01*
X149831000Y-59040000D02*
X149831000Y-62639000D01*
X149871000Y-53379000D02*
X149871000Y-56960000D01*
X149871000Y-59040000D02*
X149871000Y-62621000D01*
X149911000Y-53397000D02*
X149911000Y-56960000D01*
X149911000Y-59040000D02*
X149911000Y-62603000D01*
X149951000Y-53416000D02*
X149951000Y-56960000D01*
X149951000Y-59040000D02*
X149951000Y-62584000D01*
X149991000Y-53436000D02*
X149991000Y-56960000D01*
X149991000Y-59040000D02*
X149991000Y-62564000D01*
X150031000Y-53455000D02*
X150031000Y-56960000D01*
X150031000Y-59040000D02*
X150031000Y-62545000D01*
X150071000Y-53475000D02*
X150071000Y-62525000D01*
X150111000Y-53496000D02*
X150111000Y-62504000D01*
X150151000Y-53517000D02*
X150151000Y-62483000D01*
X150191000Y-53538000D02*
X150191000Y-62462000D01*
X150231000Y-53560000D02*
X150231000Y-62440000D01*
X150271000Y-53583000D02*
X150271000Y-62417000D01*
X150311000Y-53605000D02*
X150311000Y-62395000D01*
X150351000Y-53629000D02*
X150351000Y-62371000D01*
X150391000Y-53653000D02*
X150391000Y-62347000D01*
X150431000Y-53677000D02*
X150431000Y-62323000D01*
X150471000Y-53702000D02*
X150471000Y-62298000D01*
X150511000Y-53727000D02*
X150511000Y-62273000D01*
X150551000Y-53753000D02*
X150551000Y-62247000D01*
X150591000Y-53779000D02*
X150591000Y-62221000D01*
X150631000Y-53806000D02*
X150631000Y-62194000D01*
X150671000Y-53834000D02*
X150671000Y-62166000D01*
X150711000Y-53862000D02*
X150711000Y-62138000D01*
X150751000Y-53890000D02*
X150751000Y-62110000D01*
X150791000Y-53920000D02*
X150791000Y-62080000D01*
X150831000Y-53950000D02*
X150831000Y-62050000D01*
X150871000Y-53980000D02*
X150871000Y-62020000D01*
X150911000Y-54011000D02*
X150911000Y-61989000D01*
X150951000Y-54043000D02*
X150951000Y-61957000D01*
X150991000Y-54075000D02*
X150991000Y-61925000D01*
X151031000Y-54108000D02*
X151031000Y-61892000D01*
X151071000Y-54142000D02*
X151071000Y-61858000D01*
X151111000Y-54176000D02*
X151111000Y-61824000D01*
X151151000Y-54211000D02*
X151151000Y-61789000D01*
X151191000Y-54247000D02*
X151191000Y-61753000D01*
X151231000Y-54284000D02*
X151231000Y-61716000D01*
X151271000Y-54321000D02*
X151271000Y-61679000D01*
X151311000Y-54360000D02*
X151311000Y-61640000D01*
X151351000Y-54399000D02*
X151351000Y-61601000D01*
X151391000Y-54439000D02*
X151391000Y-61561000D01*
X151431000Y-54480000D02*
X151431000Y-61520000D01*
X151471000Y-54522000D02*
X151471000Y-61478000D01*
X151511000Y-54564000D02*
X151511000Y-61436000D01*
X151551000Y-54608000D02*
X151551000Y-61392000D01*
X151591000Y-54653000D02*
X151591000Y-61347000D01*
X151631000Y-54699000D02*
X151631000Y-61301000D01*
X151671000Y-54746000D02*
X151671000Y-61254000D01*
X151711000Y-54794000D02*
X151711000Y-61206000D01*
X151751000Y-54844000D02*
X151751000Y-61156000D01*
X151791000Y-54894000D02*
X151791000Y-61106000D01*
X151831000Y-54946000D02*
X151831000Y-61054000D01*
X151871000Y-55000000D02*
X151871000Y-61000000D01*
X151911000Y-55055000D02*
X151911000Y-60945000D01*
X151951000Y-55111000D02*
X151951000Y-60889000D01*
X151991000Y-55170000D02*
X151991000Y-60830000D01*
X152031000Y-55230000D02*
X152031000Y-60770000D01*
X152071000Y-55291000D02*
X152071000Y-60709000D01*
X152111000Y-55355000D02*
X152111000Y-60645000D01*
X152151000Y-55421000D02*
X152151000Y-60579000D01*
X152191000Y-55490000D02*
X152191000Y-60510000D01*
X152231000Y-55561000D02*
X152231000Y-60439000D01*
X152271000Y-55635000D02*
X152271000Y-60365000D01*
X152311000Y-55711000D02*
X152311000Y-60289000D01*
X152351000Y-55791000D02*
X152351000Y-60209000D01*
X152391000Y-55875000D02*
X152391000Y-60125000D01*
X152431000Y-55963000D02*
X152431000Y-60037000D01*
X152471000Y-56056000D02*
X152471000Y-59944000D01*
X152511000Y-56154000D02*
X152511000Y-59846000D01*
X152551000Y-56258000D02*
X152551000Y-59742000D01*
X152591000Y-56370000D02*
X152591000Y-59630000D01*
X152631000Y-56490000D02*
X152631000Y-59510000D01*
X152671000Y-56622000D02*
X152671000Y-59378000D01*
X152711000Y-56770000D02*
X152711000Y-59230000D01*
X152751000Y-56938000D02*
X152751000Y-59062000D01*
X152791000Y-57138000D02*
X152791000Y-58862000D01*
X152831000Y-57401000D02*
X152831000Y-58599000D01*
X152870000Y-58000000D02*
G75*
G02*
X142630000Y-58000000I-5120000J0D01*
G01*
X142630000Y-58000000D02*
G75*
G02*
X152870000Y-58000000I5120000J0D01*
G01*
%TO.C,D4*%
X156435000Y-59955000D02*
X156435000Y-63045000D01*
X156435001Y-59955170D02*
G75*
G02*
X161984999Y-61500462I2559999J-1544830D01*
G01*
X161985000Y-61499538D02*
G75*
G02*
X156435000Y-63044830I-2990000J-462D01*
G01*
X161495000Y-61500000D02*
G75*
G02*
X156495000Y-61500000I-2500000J0D01*
G01*
X156495000Y-61500000D02*
G75*
G02*
X161495000Y-61500000I2500000J0D01*
G01*
%TO.C,R12*%
X155905000Y-81480000D02*
X162445000Y-81480000D01*
X155905000Y-81810000D02*
X155905000Y-81480000D01*
X155905000Y-83890000D02*
X155905000Y-84220000D01*
X155905000Y-84220000D02*
X162445000Y-84220000D01*
X162445000Y-81480000D02*
X162445000Y-81810000D01*
X162445000Y-84220000D02*
X162445000Y-83890000D01*
%TO.C,R8*%
X115130000Y-55040000D02*
X115130000Y-61580000D01*
X115130000Y-61580000D02*
X115460000Y-61580000D01*
X115460000Y-55040000D02*
X115130000Y-55040000D01*
X117540000Y-55040000D02*
X117870000Y-55040000D01*
X117870000Y-55040000D02*
X117870000Y-61580000D01*
X117870000Y-61580000D02*
X117540000Y-61580000D01*
%TO.C,C6*%
X142655000Y-81220000D02*
X142655000Y-77980000D01*
X150095000Y-77980000D02*
X142655000Y-77980000D01*
X150095000Y-81220000D02*
X142655000Y-81220000D01*
X150095000Y-81220000D02*
X150095000Y-77980000D01*
%TO.C,C4*%
X118070354Y-80325000D02*
X119070354Y-80325000D01*
X118570354Y-79825000D02*
X118570354Y-80825000D01*
X123550000Y-78120000D02*
X123550000Y-88280000D01*
X123590000Y-78120000D02*
X123590000Y-88280000D01*
X123630000Y-78120000D02*
X123630000Y-88280000D01*
X123670000Y-78121000D02*
X123670000Y-88279000D01*
X123710000Y-78122000D02*
X123710000Y-88278000D01*
X123750000Y-78123000D02*
X123750000Y-88277000D01*
X123790000Y-78125000D02*
X123790000Y-82160000D01*
X123790000Y-84240000D02*
X123790000Y-88275000D01*
X123830000Y-78127000D02*
X123830000Y-82160000D01*
X123830000Y-84240000D02*
X123830000Y-88273000D01*
X123870000Y-78130000D02*
X123870000Y-82160000D01*
X123870000Y-84240000D02*
X123870000Y-88270000D01*
X123910000Y-78132000D02*
X123910000Y-82160000D01*
X123910000Y-84240000D02*
X123910000Y-88268000D01*
X123950000Y-78135000D02*
X123950000Y-82160000D01*
X123950000Y-84240000D02*
X123950000Y-88265000D01*
X123990000Y-78138000D02*
X123990000Y-82160000D01*
X123990000Y-84240000D02*
X123990000Y-88262000D01*
X124030000Y-78142000D02*
X124030000Y-82160000D01*
X124030000Y-84240000D02*
X124030000Y-88258000D01*
X124070000Y-78146000D02*
X124070000Y-82160000D01*
X124070000Y-84240000D02*
X124070000Y-88254000D01*
X124110000Y-78150000D02*
X124110000Y-82160000D01*
X124110000Y-84240000D02*
X124110000Y-88250000D01*
X124150000Y-78155000D02*
X124150000Y-82160000D01*
X124150000Y-84240000D02*
X124150000Y-88245000D01*
X124190000Y-78160000D02*
X124190000Y-82160000D01*
X124190000Y-84240000D02*
X124190000Y-88240000D01*
X124230000Y-78165000D02*
X124230000Y-82160000D01*
X124230000Y-84240000D02*
X124230000Y-88235000D01*
X124271000Y-78170000D02*
X124271000Y-82160000D01*
X124271000Y-84240000D02*
X124271000Y-88230000D01*
X124311000Y-78176000D02*
X124311000Y-82160000D01*
X124311000Y-84240000D02*
X124311000Y-88224000D01*
X124351000Y-78182000D02*
X124351000Y-82160000D01*
X124351000Y-84240000D02*
X124351000Y-88218000D01*
X124391000Y-78189000D02*
X124391000Y-82160000D01*
X124391000Y-84240000D02*
X124391000Y-88211000D01*
X124431000Y-78196000D02*
X124431000Y-82160000D01*
X124431000Y-84240000D02*
X124431000Y-88204000D01*
X124471000Y-78203000D02*
X124471000Y-82160000D01*
X124471000Y-84240000D02*
X124471000Y-88197000D01*
X124511000Y-78210000D02*
X124511000Y-82160000D01*
X124511000Y-84240000D02*
X124511000Y-88190000D01*
X124551000Y-78218000D02*
X124551000Y-82160000D01*
X124551000Y-84240000D02*
X124551000Y-88182000D01*
X124591000Y-78226000D02*
X124591000Y-82160000D01*
X124591000Y-84240000D02*
X124591000Y-88174000D01*
X124631000Y-78235000D02*
X124631000Y-82160000D01*
X124631000Y-84240000D02*
X124631000Y-88165000D01*
X124671000Y-78244000D02*
X124671000Y-82160000D01*
X124671000Y-84240000D02*
X124671000Y-88156000D01*
X124711000Y-78253000D02*
X124711000Y-82160000D01*
X124711000Y-84240000D02*
X124711000Y-88147000D01*
X124751000Y-78262000D02*
X124751000Y-82160000D01*
X124751000Y-84240000D02*
X124751000Y-88138000D01*
X124791000Y-78272000D02*
X124791000Y-82160000D01*
X124791000Y-84240000D02*
X124791000Y-88128000D01*
X124831000Y-78282000D02*
X124831000Y-82160000D01*
X124831000Y-84240000D02*
X124831000Y-88118000D01*
X124871000Y-78293000D02*
X124871000Y-82160000D01*
X124871000Y-84240000D02*
X124871000Y-88107000D01*
X124911000Y-78303000D02*
X124911000Y-82160000D01*
X124911000Y-84240000D02*
X124911000Y-88097000D01*
X124951000Y-78315000D02*
X124951000Y-82160000D01*
X124951000Y-84240000D02*
X124951000Y-88085000D01*
X124991000Y-78326000D02*
X124991000Y-82160000D01*
X124991000Y-84240000D02*
X124991000Y-88074000D01*
X125031000Y-78338000D02*
X125031000Y-82160000D01*
X125031000Y-84240000D02*
X125031000Y-88062000D01*
X125071000Y-78350000D02*
X125071000Y-82160000D01*
X125071000Y-84240000D02*
X125071000Y-88050000D01*
X125111000Y-78363000D02*
X125111000Y-82160000D01*
X125111000Y-84240000D02*
X125111000Y-88037000D01*
X125151000Y-78376000D02*
X125151000Y-82160000D01*
X125151000Y-84240000D02*
X125151000Y-88024000D01*
X125191000Y-78389000D02*
X125191000Y-82160000D01*
X125191000Y-84240000D02*
X125191000Y-88011000D01*
X125231000Y-78403000D02*
X125231000Y-82160000D01*
X125231000Y-84240000D02*
X125231000Y-87997000D01*
X125271000Y-78417000D02*
X125271000Y-82160000D01*
X125271000Y-84240000D02*
X125271000Y-87983000D01*
X125311000Y-78432000D02*
X125311000Y-82160000D01*
X125311000Y-84240000D02*
X125311000Y-87968000D01*
X125351000Y-78446000D02*
X125351000Y-82160000D01*
X125351000Y-84240000D02*
X125351000Y-87954000D01*
X125391000Y-78462000D02*
X125391000Y-82160000D01*
X125391000Y-84240000D02*
X125391000Y-87938000D01*
X125431000Y-78477000D02*
X125431000Y-82160000D01*
X125431000Y-84240000D02*
X125431000Y-87923000D01*
X125471000Y-78493000D02*
X125471000Y-82160000D01*
X125471000Y-84240000D02*
X125471000Y-87907000D01*
X125511000Y-78510000D02*
X125511000Y-82160000D01*
X125511000Y-84240000D02*
X125511000Y-87890000D01*
X125551000Y-78526000D02*
X125551000Y-82160000D01*
X125551000Y-84240000D02*
X125551000Y-87874000D01*
X125591000Y-78543000D02*
X125591000Y-82160000D01*
X125591000Y-84240000D02*
X125591000Y-87857000D01*
X125631000Y-78561000D02*
X125631000Y-82160000D01*
X125631000Y-84240000D02*
X125631000Y-87839000D01*
X125671000Y-78579000D02*
X125671000Y-82160000D01*
X125671000Y-84240000D02*
X125671000Y-87821000D01*
X125711000Y-78597000D02*
X125711000Y-82160000D01*
X125711000Y-84240000D02*
X125711000Y-87803000D01*
X125751000Y-78616000D02*
X125751000Y-82160000D01*
X125751000Y-84240000D02*
X125751000Y-87784000D01*
X125791000Y-78636000D02*
X125791000Y-82160000D01*
X125791000Y-84240000D02*
X125791000Y-87764000D01*
X125831000Y-78655000D02*
X125831000Y-82160000D01*
X125831000Y-84240000D02*
X125831000Y-87745000D01*
X125871000Y-78675000D02*
X125871000Y-87725000D01*
X125911000Y-78696000D02*
X125911000Y-87704000D01*
X125951000Y-78717000D02*
X125951000Y-87683000D01*
X125991000Y-78738000D02*
X125991000Y-87662000D01*
X126031000Y-78760000D02*
X126031000Y-87640000D01*
X126071000Y-78783000D02*
X126071000Y-87617000D01*
X126111000Y-78805000D02*
X126111000Y-87595000D01*
X126151000Y-78829000D02*
X126151000Y-87571000D01*
X126191000Y-78853000D02*
X126191000Y-87547000D01*
X126231000Y-78877000D02*
X126231000Y-87523000D01*
X126271000Y-78902000D02*
X126271000Y-87498000D01*
X126311000Y-78927000D02*
X126311000Y-87473000D01*
X126351000Y-78953000D02*
X126351000Y-87447000D01*
X126391000Y-78979000D02*
X126391000Y-87421000D01*
X126431000Y-79006000D02*
X126431000Y-87394000D01*
X126471000Y-79034000D02*
X126471000Y-87366000D01*
X126511000Y-79062000D02*
X126511000Y-87338000D01*
X126551000Y-79090000D02*
X126551000Y-87310000D01*
X126591000Y-79120000D02*
X126591000Y-87280000D01*
X126631000Y-79150000D02*
X126631000Y-87250000D01*
X126671000Y-79180000D02*
X126671000Y-87220000D01*
X126711000Y-79211000D02*
X126711000Y-87189000D01*
X126751000Y-79243000D02*
X126751000Y-87157000D01*
X126791000Y-79275000D02*
X126791000Y-87125000D01*
X126831000Y-79308000D02*
X126831000Y-87092000D01*
X126871000Y-79342000D02*
X126871000Y-87058000D01*
X126911000Y-79376000D02*
X126911000Y-87024000D01*
X126951000Y-79411000D02*
X126951000Y-86989000D01*
X126991000Y-79447000D02*
X126991000Y-86953000D01*
X127031000Y-79484000D02*
X127031000Y-86916000D01*
X127071000Y-79521000D02*
X127071000Y-86879000D01*
X127111000Y-79560000D02*
X127111000Y-86840000D01*
X127151000Y-79599000D02*
X127151000Y-86801000D01*
X127191000Y-79639000D02*
X127191000Y-86761000D01*
X127231000Y-79680000D02*
X127231000Y-86720000D01*
X127271000Y-79722000D02*
X127271000Y-86678000D01*
X127311000Y-79764000D02*
X127311000Y-86636000D01*
X127351000Y-79808000D02*
X127351000Y-86592000D01*
X127391000Y-79853000D02*
X127391000Y-86547000D01*
X127431000Y-79899000D02*
X127431000Y-86501000D01*
X127471000Y-79946000D02*
X127471000Y-86454000D01*
X127511000Y-79994000D02*
X127511000Y-86406000D01*
X127551000Y-80044000D02*
X127551000Y-86356000D01*
X127591000Y-80094000D02*
X127591000Y-86306000D01*
X127631000Y-80146000D02*
X127631000Y-86254000D01*
X127671000Y-80200000D02*
X127671000Y-86200000D01*
X127711000Y-80255000D02*
X127711000Y-86145000D01*
X127751000Y-80311000D02*
X127751000Y-86089000D01*
X127791000Y-80370000D02*
X127791000Y-86030000D01*
X127831000Y-80430000D02*
X127831000Y-85970000D01*
X127871000Y-80491000D02*
X127871000Y-85909000D01*
X127911000Y-80555000D02*
X127911000Y-85845000D01*
X127951000Y-80621000D02*
X127951000Y-85779000D01*
X127991000Y-80690000D02*
X127991000Y-85710000D01*
X128031000Y-80761000D02*
X128031000Y-85639000D01*
X128071000Y-80835000D02*
X128071000Y-85565000D01*
X128111000Y-80911000D02*
X128111000Y-85489000D01*
X128151000Y-80991000D02*
X128151000Y-85409000D01*
X128191000Y-81075000D02*
X128191000Y-85325000D01*
X128231000Y-81163000D02*
X128231000Y-85237000D01*
X128271000Y-81256000D02*
X128271000Y-85144000D01*
X128311000Y-81354000D02*
X128311000Y-85046000D01*
X128351000Y-81458000D02*
X128351000Y-84942000D01*
X128391000Y-81570000D02*
X128391000Y-84830000D01*
X128431000Y-81690000D02*
X128431000Y-84710000D01*
X128471000Y-81822000D02*
X128471000Y-84578000D01*
X128511000Y-81970000D02*
X128511000Y-84430000D01*
X128551000Y-82138000D02*
X128551000Y-84262000D01*
X128591000Y-82338000D02*
X128591000Y-84062000D01*
X128631000Y-82601000D02*
X128631000Y-83799000D01*
X128670000Y-83200000D02*
G75*
G02*
X118430000Y-83200000I-5120000J0D01*
G01*
X118430000Y-83200000D02*
G75*
G02*
X128670000Y-83200000I5120000J0D01*
G01*
%TO.C,J5*%
X156490000Y-77855000D02*
X156490000Y-76525000D01*
X157600000Y-77855000D02*
X156490000Y-77855000D01*
X159060000Y-71085000D02*
X158650000Y-71085000D01*
X159060000Y-71805000D02*
X158650000Y-71805000D01*
X159060000Y-73625000D02*
X158650000Y-73625000D01*
X159060000Y-74345000D02*
X158650000Y-74345000D01*
X159060000Y-76165000D02*
X158710000Y-76165000D01*
X159060000Y-76885000D02*
X158710000Y-76885000D01*
X159060000Y-77855000D02*
X159060000Y-70115000D01*
X167690000Y-70115000D02*
X159060000Y-70115000D01*
X167690000Y-72715000D02*
X159060000Y-72715000D01*
X167690000Y-75255000D02*
X159060000Y-75255000D01*
X167690000Y-75373100D02*
X159060000Y-75373100D01*
X167690000Y-75491195D02*
X159060000Y-75491195D01*
X167690000Y-75609290D02*
X159060000Y-75609290D01*
X167690000Y-75727385D02*
X159060000Y-75727385D01*
X167690000Y-75845480D02*
X159060000Y-75845480D01*
X167690000Y-75963575D02*
X159060000Y-75963575D01*
X167690000Y-76081670D02*
X159060000Y-76081670D01*
X167690000Y-76199765D02*
X159060000Y-76199765D01*
X167690000Y-76317860D02*
X159060000Y-76317860D01*
X167690000Y-76435955D02*
X159060000Y-76435955D01*
X167690000Y-76554050D02*
X159060000Y-76554050D01*
X167690000Y-76672145D02*
X159060000Y-76672145D01*
X167690000Y-76790240D02*
X159060000Y-76790240D01*
X167690000Y-76908335D02*
X159060000Y-76908335D01*
X167690000Y-77026430D02*
X159060000Y-77026430D01*
X167690000Y-77144525D02*
X159060000Y-77144525D01*
X167690000Y-77262620D02*
X159060000Y-77262620D01*
X167690000Y-77380715D02*
X159060000Y-77380715D01*
X167690000Y-77498810D02*
X159060000Y-77498810D01*
X167690000Y-77616905D02*
X159060000Y-77616905D01*
X167690000Y-77735000D02*
X159060000Y-77735000D01*
X167690000Y-77855000D02*
X159060000Y-77855000D01*
X167690000Y-77855000D02*
X167690000Y-70115000D01*
%TD*%
M02*
