%TF.GenerationSoftware,KiCad,Pcbnew,8.0.1*%
%TF.CreationDate,2024-05-26T11:57:39+02:00*%
%TF.ProjectId,80_KiCad,38305f4b-6943-4616-942e-6b696361645f,v1.0*%
%TF.SameCoordinates,Original*%
%TF.FileFunction,Copper,L3,Inr*%
%TF.FilePolarity,Positive*%
%FSLAX46Y46*%
G04 Gerber Fmt 4.6, Leading zero omitted, Abs format (unit mm)*
G04 Created by KiCad (PCBNEW 8.0.1) date 2024-05-26 11:57:39*
%MOMM*%
%LPD*%
G01*
G04 APERTURE LIST*
%TA.AperFunction,ComponentPad*%
%ADD10R,1.600000X1.600000*%
%TD*%
%TA.AperFunction,ComponentPad*%
%ADD11O,1.600000X1.600000*%
%TD*%
%TA.AperFunction,ComponentPad*%
%ADD12C,1.600000*%
%TD*%
%TA.AperFunction,ComponentPad*%
%ADD13R,1.700000X1.700000*%
%TD*%
%TA.AperFunction,ComponentPad*%
%ADD14R,1.800000X1.800000*%
%TD*%
%TA.AperFunction,ComponentPad*%
%ADD15C,1.800000*%
%TD*%
%TA.AperFunction,ComponentPad*%
%ADD16C,2.000000*%
%TD*%
%TA.AperFunction,ComponentPad*%
%ADD17O,1.700000X1.700000*%
%TD*%
G04 APERTURE END LIST*
D10*
%TO.N,unconnected-(U1-NC-Pad1)*%
%TO.C,U1*%
X130225000Y-63400000D03*
D11*
%TO.N,Net-(U1--)*%
X130225000Y-65940000D03*
%TO.N,Net-(U1-+)*%
X130225000Y-68480000D03*
%TO.N,GND*%
X130225000Y-71020000D03*
%TO.N,unconnected-(U1-NC-Pad5)*%
X137845000Y-71020000D03*
%TO.N,Net-(A1_Out1-Pad1)*%
X137845000Y-68480000D03*
%TO.N,VCC*%
X137845000Y-65940000D03*
%TO.N,unconnected-(U1-NC-Pad8)*%
X137845000Y-63400000D03*
%TD*%
D10*
%TO.N,Net-(U1-+)*%
%TO.C,C2*%
X124175000Y-77725000D03*
D12*
%TO.N,GND*%
X126175000Y-77725000D03*
%TD*%
D13*
%TO.N,VCC*%
%TO.C,VCC*%
X102825000Y-52400000D03*
%TD*%
%TO.N,GND*%
%TO.C,GND*%
X109875000Y-97125000D03*
%TD*%
D12*
%TO.N,GND*%
%TO.C,R10*%
X109745000Y-66325000D03*
D11*
%TO.N,Net-(D3-K)*%
X119905000Y-66325000D03*
%TD*%
D14*
%TO.N,Net-(D2-K)*%
%TO.C,D2*%
X134975000Y-55600000D03*
D15*
%TO.N,Orange*%
X137515000Y-55600000D03*
%TD*%
D12*
%TO.N,GND*%
%TO.C,R9*%
X109745000Y-61300000D03*
D11*
%TO.N,Net-(D2-K)*%
X119905000Y-61300000D03*
%TD*%
D14*
%TO.N,Net-(D3-K)*%
%TO.C,D3*%
X145125000Y-55500000D03*
D15*
%TO.N,Green*%
X147665000Y-55500000D03*
%TD*%
D13*
%TO.N,Net-(U1-+)*%
%TO.C,A_In_P*%
X102775000Y-89475000D03*
%TD*%
%TO.N,Net-(U1--)*%
%TO.C,A1_In_N*%
X102650000Y-66625000D03*
%TD*%
D12*
%TO.N,Net-(U1--)*%
%TO.C,C5*%
X131200000Y-77975000D03*
%TO.N,Net-(A1_Out1-Pad1)*%
X136200000Y-77975000D03*
%TD*%
%TO.N,Net-(C3-Pad1)*%
%TO.C,R3*%
X147175000Y-72555000D03*
D11*
%TO.N,Net-(U1--)*%
X147175000Y-62395000D03*
%TD*%
D12*
%TO.N,VCC*%
%TO.C,R1*%
X109795000Y-71575000D03*
D11*
%TO.N,Net-(U1-+)*%
X119955000Y-71575000D03*
%TD*%
D10*
%TO.N,unconnected-(U2-NC-Pad1)*%
%TO.C,U2*%
X130050000Y-84125000D03*
D11*
%TO.N,Net-(U2--)*%
X130050000Y-86665000D03*
%TO.N,Net-(U1-+)*%
X130050000Y-89205000D03*
%TO.N,GND*%
X130050000Y-91745000D03*
%TO.N,unconnected-(U2-NC-Pad5)*%
X137670000Y-91745000D03*
%TO.N,Net-(A2_Out1-Pad1)*%
X137670000Y-89205000D03*
%TO.N,VCC*%
X137670000Y-86665000D03*
%TO.N,unconnected-(U2-NC-Pad8)*%
X137670000Y-84125000D03*
%TD*%
D13*
%TO.N,Vin*%
%TO.C,V_In1*%
X156700000Y-92750000D03*
%TD*%
%TO.N,GND*%
%TO.C,GND*%
X102600000Y-74900000D03*
%TD*%
%TO.N,GND*%
%TO.C,GND2*%
X164475000Y-92800000D03*
%TD*%
%TO.N,Vout*%
%TO.C,V_Out*%
X122225000Y-97325000D03*
%TD*%
D12*
%TO.N,Net-(C4-Pad2)*%
%TO.C,R5*%
X124675000Y-82520000D03*
D11*
%TO.N,Net-(U2--)*%
X124675000Y-92680000D03*
%TD*%
D13*
%TO.N,Net-(A2_Out1-Pad1)*%
%TO.C,A2_Out*%
X115750000Y-97200000D03*
%TD*%
D14*
%TO.N,Net-(D1-K)*%
%TO.C,D1*%
X125500000Y-55625000D03*
D15*
%TO.N,Red*%
X128040000Y-55625000D03*
%TD*%
D16*
%TO.N,Push Button*%
%TO.C,SW1*%
X162175000Y-58850000D03*
X155675000Y-58850000D03*
%TO.N,GND*%
X162175000Y-54350000D03*
X155675000Y-54350000D03*
%TD*%
D12*
%TO.N,Net-(U1-+)*%
%TO.C,C1*%
X120075000Y-90525000D03*
%TO.N,GND*%
X120075000Y-85525000D03*
%TD*%
D13*
%TO.N,Net-(A1_Out1-Pad1)*%
%TO.C,A1_Out*%
X102750000Y-82475000D03*
%TD*%
D12*
%TO.N,Net-(U2--)*%
%TO.C,R7*%
X152030000Y-85775000D03*
D11*
%TO.N,Net-(A2_Out1-Pad1)*%
X141870000Y-85775000D03*
%TD*%
D12*
%TO.N,Net-(D4-K)*%
%TO.C,R11*%
X156495000Y-80200000D03*
D11*
%TO.N,GND*%
X166655000Y-80200000D03*
%TD*%
D12*
%TO.N,Net-(U1--)*%
%TO.C,R4*%
X143400000Y-62345000D03*
D11*
%TO.N,Net-(A1_Out1-Pad1)*%
X143400000Y-72505000D03*
%TD*%
D12*
%TO.N,Net-(A2_Out1-Pad1)*%
%TO.C,R6*%
X141845000Y-91875000D03*
D11*
%TO.N,Vout*%
X152005000Y-91875000D03*
%TD*%
D12*
%TO.N,Net-(U1-+)*%
%TO.C,R2*%
X126200000Y-70980000D03*
D11*
%TO.N,GND*%
X126200000Y-60820000D03*
%TD*%
D13*
%TO.N,GND*%
%TO.C,GND*%
X102900000Y-59100000D03*
%TD*%
D10*
%TO.N,Net-(C3-Pad1)*%
%TO.C,C3*%
X151369888Y-70650000D03*
D12*
%TO.N,Vin*%
X153869888Y-70650000D03*
%TD*%
D14*
%TO.N,Net-(D4-K)*%
%TO.C,D4*%
X160750000Y-86050000D03*
D15*
%TO.N,VCC*%
X163290000Y-86050000D03*
%TD*%
D12*
%TO.N,Push Button*%
%TO.C,R12*%
X154545000Y-63875000D03*
D11*
%TO.N,VCC*%
X164705000Y-63875000D03*
%TD*%
D13*
%TO.N,Net-(U2--)*%
%TO.C,A2_In_N*%
X103200000Y-97025000D03*
%TD*%
D12*
%TO.N,Net-(D1-K)*%
%TO.C,R8*%
X120125000Y-55725000D03*
D11*
%TO.N,GND*%
X109965000Y-55725000D03*
%TD*%
D12*
%TO.N,Net-(U2--)*%
%TO.C,C6*%
X149175000Y-78400000D03*
%TO.N,Net-(A2_Out1-Pad1)*%
X144175000Y-78400000D03*
%TD*%
D10*
%TO.N,Net-(A1_Out1-Pad1)*%
%TO.C,C4*%
X116069888Y-77700000D03*
D12*
%TO.N,Net-(C4-Pad2)*%
X118569888Y-77700000D03*
%TD*%
D13*
%TO.N,GND*%
%TO.C,J5*%
X158025000Y-73875000D03*
D17*
%TO.N,Vin*%
X158025000Y-71335000D03*
%TO.N,VCC*%
X158025000Y-68795000D03*
%TD*%
D13*
%TO.N,unconnected-(J1-Pin_1-Pad1)*%
%TO.C,J1*%
X127940000Y-97460000D03*
D17*
%TO.N,/IOREF*%
X130480000Y-97460000D03*
%TO.N,/~{RESET}*%
X133020000Y-97460000D03*
%TO.N,unconnected-(J1-Pin_4-Pad4)*%
X135560000Y-97460000D03*
%TO.N,VCC*%
X138100000Y-97460000D03*
%TO.N,GND*%
X140640000Y-97460000D03*
X143180000Y-97460000D03*
%TO.N,unconnected-(J1-Pin_8-Pad8)*%
X145720000Y-97460000D03*
%TD*%
D13*
%TO.N,Vout*%
%TO.C,J3*%
X150800000Y-97460000D03*
D17*
%TO.N,/A1*%
X153340000Y-97460000D03*
%TO.N,/A2*%
X155880000Y-97460000D03*
%TO.N,/A3*%
X158420000Y-97460000D03*
%TO.N,/SDA{slash}A4*%
X160960000Y-97460000D03*
%TO.N,/SCL{slash}A5*%
X163500000Y-97460000D03*
%TD*%
D13*
%TO.N,unconnected-(J2-Pin_1-Pad1)*%
%TO.C,J2*%
X118796000Y-49200000D03*
D17*
%TO.N,unconnected-(J2-Pin_2-Pad2)*%
X121336000Y-49200000D03*
%TO.N,/AREF*%
X123876000Y-49200000D03*
%TO.N,GND*%
X126416000Y-49200000D03*
%TO.N,/13*%
X128956000Y-49200000D03*
%TO.N,/12*%
X131496000Y-49200000D03*
%TO.N,/\u002A11*%
X134036000Y-49200000D03*
%TO.N,/\u002A10*%
X136576000Y-49200000D03*
%TO.N,/\u002A9*%
X139116000Y-49200000D03*
%TO.N,/8*%
X141656000Y-49200000D03*
%TD*%
D13*
%TO.N,Push Button*%
%TO.C,J4*%
X145720000Y-49200000D03*
D17*
%TO.N,Red*%
X148260000Y-49200000D03*
%TO.N,Orange*%
X150800000Y-49200000D03*
%TO.N,Green*%
X153340000Y-49200000D03*
%TO.N,unconnected-(J4-Pin_5-Pad5)*%
X155880000Y-49200000D03*
%TO.N,/2*%
X158420000Y-49200000D03*
%TO.N,/TX{slash}1*%
X160960000Y-49200000D03*
%TO.N,/RX{slash}0*%
X163500000Y-49200000D03*
%TD*%
%TA.AperFunction,Conductor*%
%TO.N,VCC*%
G36*
X163484404Y-46755185D02*
G01*
X163505046Y-46771819D01*
X165928181Y-49194954D01*
X165961666Y-49256277D01*
X165964500Y-49282635D01*
X165964500Y-59344982D01*
X165964500Y-59375018D01*
X165975994Y-59402767D01*
X165975995Y-59402768D01*
X168468181Y-61894954D01*
X168501666Y-61956277D01*
X168504500Y-61982635D01*
X168504500Y-96107364D01*
X168484815Y-96174403D01*
X168468181Y-96195045D01*
X165997233Y-98665994D01*
X165975995Y-98687231D01*
X165964500Y-98714982D01*
X165964500Y-99231907D01*
X165963903Y-99244062D01*
X165952505Y-99359778D01*
X165947763Y-99383618D01*
X165917832Y-99482290D01*
X165915789Y-99489024D01*
X165906486Y-99511482D01*
X165854561Y-99608627D01*
X165841056Y-99628839D01*
X165771176Y-99713988D01*
X165753988Y-99731176D01*
X165668839Y-99801056D01*
X165648627Y-99814561D01*
X165551482Y-99866486D01*
X165529028Y-99875787D01*
X165487028Y-99888528D01*
X165423618Y-99907763D01*
X165399778Y-99912505D01*
X165291162Y-99923203D01*
X165284060Y-99923903D01*
X165271907Y-99924500D01*
X100768093Y-99924500D01*
X100755939Y-99923903D01*
X100747995Y-99923120D01*
X100640221Y-99912505D01*
X100616381Y-99907763D01*
X100599445Y-99902625D01*
X100510968Y-99875786D01*
X100488517Y-99866486D01*
X100391372Y-99814561D01*
X100371160Y-99801056D01*
X100286011Y-99731176D01*
X100268823Y-99713988D01*
X100198943Y-99628839D01*
X100185438Y-99608627D01*
X100133510Y-99511476D01*
X100124215Y-99489037D01*
X100092234Y-99383612D01*
X100087494Y-99359777D01*
X100076097Y-99244061D01*
X100075500Y-99231907D01*
X100075500Y-97923654D01*
X101841500Y-97923654D01*
X101848011Y-97984202D01*
X101848011Y-97984204D01*
X101896214Y-98113437D01*
X101899111Y-98121204D01*
X101986739Y-98238261D01*
X102103796Y-98325889D01*
X102240799Y-98376989D01*
X102268050Y-98379918D01*
X102301345Y-98383499D01*
X102301362Y-98383500D01*
X104098638Y-98383500D01*
X104098654Y-98383499D01*
X104125692Y-98380591D01*
X104159201Y-98376989D01*
X104296204Y-98325889D01*
X104413261Y-98238261D01*
X104500889Y-98121204D01*
X104537274Y-98023654D01*
X108516500Y-98023654D01*
X108523011Y-98084202D01*
X108523011Y-98084204D01*
X108574111Y-98221204D01*
X108661739Y-98338261D01*
X108778796Y-98425889D01*
X108915799Y-98476989D01*
X108943050Y-98479918D01*
X108976345Y-98483499D01*
X108976362Y-98483500D01*
X110773638Y-98483500D01*
X110773654Y-98483499D01*
X110800692Y-98480591D01*
X110834201Y-98476989D01*
X110971204Y-98425889D01*
X111088261Y-98338261D01*
X111175889Y-98221204D01*
X111221598Y-98098654D01*
X114391500Y-98098654D01*
X114398011Y-98159202D01*
X114398011Y-98159204D01*
X114427499Y-98238261D01*
X114449111Y-98296204D01*
X114536739Y-98413261D01*
X114653796Y-98500889D01*
X114790799Y-98551989D01*
X114818050Y-98554918D01*
X114851345Y-98558499D01*
X114851362Y-98558500D01*
X116648638Y-98558500D01*
X116648654Y-98558499D01*
X116675692Y-98555591D01*
X116709201Y-98551989D01*
X116846204Y-98500889D01*
X116963261Y-98413261D01*
X117050889Y-98296204D01*
X117077949Y-98223654D01*
X120866500Y-98223654D01*
X120873011Y-98284202D01*
X120873011Y-98284204D01*
X120910048Y-98383500D01*
X120924111Y-98421204D01*
X121011739Y-98538261D01*
X121128796Y-98625889D01*
X121265799Y-98676989D01*
X121293050Y-98679918D01*
X121326345Y-98683499D01*
X121326362Y-98683500D01*
X123123638Y-98683500D01*
X123123654Y-98683499D01*
X123150692Y-98680591D01*
X123184201Y-98676989D01*
X123321204Y-98625889D01*
X123438261Y-98538261D01*
X123525889Y-98421204D01*
X123549219Y-98358654D01*
X126581500Y-98358654D01*
X126588011Y-98419202D01*
X126588011Y-98419204D01*
X126637538Y-98551988D01*
X126639111Y-98556204D01*
X126726739Y-98673261D01*
X126843796Y-98760889D01*
X126980799Y-98811989D01*
X127008050Y-98814918D01*
X127041345Y-98818499D01*
X127041362Y-98818500D01*
X128838638Y-98818500D01*
X128838654Y-98818499D01*
X128865692Y-98815591D01*
X128899201Y-98811989D01*
X129036204Y-98760889D01*
X129153261Y-98673261D01*
X129240889Y-98556204D01*
X129286138Y-98434887D01*
X129328009Y-98378956D01*
X129393474Y-98354539D01*
X129461746Y-98369391D01*
X129493545Y-98394236D01*
X129556760Y-98462906D01*
X129734424Y-98601189D01*
X129734425Y-98601189D01*
X129734427Y-98601191D01*
X129861135Y-98669761D01*
X129932426Y-98708342D01*
X130145365Y-98781444D01*
X130367431Y-98818500D01*
X130592569Y-98818500D01*
X130814635Y-98781444D01*
X131027574Y-98708342D01*
X131225576Y-98601189D01*
X131403240Y-98462906D01*
X131524594Y-98331082D01*
X131555715Y-98297276D01*
X131555715Y-98297275D01*
X131555722Y-98297268D01*
X131646193Y-98158790D01*
X131699338Y-98113437D01*
X131768569Y-98104013D01*
X131831905Y-98133515D01*
X131853804Y-98158787D01*
X131944278Y-98297268D01*
X131944283Y-98297273D01*
X131944284Y-98297276D01*
X132096756Y-98462902D01*
X132096761Y-98462907D01*
X132123219Y-98483500D01*
X132274424Y-98601189D01*
X132274425Y-98601189D01*
X132274427Y-98601191D01*
X132401135Y-98669761D01*
X132472426Y-98708342D01*
X132685365Y-98781444D01*
X132907431Y-98818500D01*
X133132569Y-98818500D01*
X133354635Y-98781444D01*
X133567574Y-98708342D01*
X133765576Y-98601189D01*
X133943240Y-98462906D01*
X134064594Y-98331082D01*
X134095715Y-98297276D01*
X134095715Y-98297275D01*
X134095722Y-98297268D01*
X134186193Y-98158790D01*
X134239338Y-98113437D01*
X134308569Y-98104013D01*
X134371905Y-98133515D01*
X134393804Y-98158787D01*
X134484278Y-98297268D01*
X134484283Y-98297273D01*
X134484284Y-98297276D01*
X134636756Y-98462902D01*
X134636761Y-98462907D01*
X134663219Y-98483500D01*
X134814424Y-98601189D01*
X134814425Y-98601189D01*
X134814427Y-98601191D01*
X134941135Y-98669761D01*
X135012426Y-98708342D01*
X135225365Y-98781444D01*
X135447431Y-98818500D01*
X135672569Y-98818500D01*
X135894635Y-98781444D01*
X136107574Y-98708342D01*
X136305576Y-98601189D01*
X136483240Y-98462906D01*
X136604594Y-98331082D01*
X136635715Y-98297276D01*
X136635715Y-98297275D01*
X136635722Y-98297268D01*
X136729749Y-98153347D01*
X136782894Y-98107994D01*
X136852125Y-98098570D01*
X136915461Y-98128072D01*
X136935130Y-98150048D01*
X137061890Y-98331078D01*
X137228917Y-98498105D01*
X137422421Y-98633600D01*
X137636507Y-98733429D01*
X137636516Y-98733433D01*
X137850000Y-98790634D01*
X137850000Y-97893012D01*
X137907007Y-97925925D01*
X138034174Y-97960000D01*
X138165826Y-97960000D01*
X138292993Y-97925925D01*
X138350000Y-97893012D01*
X138350000Y-98790633D01*
X138563483Y-98733433D01*
X138563492Y-98733429D01*
X138777578Y-98633600D01*
X138971082Y-98498105D01*
X139138105Y-98331082D01*
X139264868Y-98150048D01*
X139319445Y-98106423D01*
X139388944Y-98099231D01*
X139451298Y-98130753D01*
X139470251Y-98153350D01*
X139564276Y-98297265D01*
X139564284Y-98297276D01*
X139716756Y-98462902D01*
X139716761Y-98462907D01*
X139743219Y-98483500D01*
X139894424Y-98601189D01*
X139894425Y-98601189D01*
X139894427Y-98601191D01*
X140021135Y-98669761D01*
X140092426Y-98708342D01*
X140305365Y-98781444D01*
X140527431Y-98818500D01*
X140752569Y-98818500D01*
X140974635Y-98781444D01*
X141187574Y-98708342D01*
X141385576Y-98601189D01*
X141563240Y-98462906D01*
X141684594Y-98331082D01*
X141715715Y-98297276D01*
X141715715Y-98297275D01*
X141715722Y-98297268D01*
X141806193Y-98158790D01*
X141859338Y-98113437D01*
X141928569Y-98104013D01*
X141991905Y-98133515D01*
X142013804Y-98158787D01*
X142104278Y-98297268D01*
X142104283Y-98297273D01*
X142104284Y-98297276D01*
X142256756Y-98462902D01*
X142256761Y-98462907D01*
X142283219Y-98483500D01*
X142434424Y-98601189D01*
X142434425Y-98601189D01*
X142434427Y-98601191D01*
X142561135Y-98669761D01*
X142632426Y-98708342D01*
X142845365Y-98781444D01*
X143067431Y-98818500D01*
X143292569Y-98818500D01*
X143514635Y-98781444D01*
X143727574Y-98708342D01*
X143925576Y-98601189D01*
X144103240Y-98462906D01*
X144224594Y-98331082D01*
X144255715Y-98297276D01*
X144255715Y-98297275D01*
X144255722Y-98297268D01*
X144346193Y-98158790D01*
X144399338Y-98113437D01*
X144468569Y-98104013D01*
X144531905Y-98133515D01*
X144553804Y-98158787D01*
X144644278Y-98297268D01*
X144644283Y-98297273D01*
X144644284Y-98297276D01*
X144796756Y-98462902D01*
X144796761Y-98462907D01*
X144823219Y-98483500D01*
X144974424Y-98601189D01*
X144974425Y-98601189D01*
X144974427Y-98601191D01*
X145101135Y-98669761D01*
X145172426Y-98708342D01*
X145385365Y-98781444D01*
X145607431Y-98818500D01*
X145832569Y-98818500D01*
X146054635Y-98781444D01*
X146267574Y-98708342D01*
X146465576Y-98601189D01*
X146643240Y-98462906D01*
X146739212Y-98358654D01*
X149441500Y-98358654D01*
X149448011Y-98419202D01*
X149448011Y-98419204D01*
X149497538Y-98551988D01*
X149499111Y-98556204D01*
X149586739Y-98673261D01*
X149703796Y-98760889D01*
X149840799Y-98811989D01*
X149868050Y-98814918D01*
X149901345Y-98818499D01*
X149901362Y-98818500D01*
X151698638Y-98818500D01*
X151698654Y-98818499D01*
X151725692Y-98815591D01*
X151759201Y-98811989D01*
X151896204Y-98760889D01*
X152013261Y-98673261D01*
X152100889Y-98556204D01*
X152146138Y-98434887D01*
X152188009Y-98378956D01*
X152253474Y-98354539D01*
X152321746Y-98369391D01*
X152353545Y-98394236D01*
X152416760Y-98462906D01*
X152594424Y-98601189D01*
X152594425Y-98601189D01*
X152594427Y-98601191D01*
X152721135Y-98669761D01*
X152792426Y-98708342D01*
X153005365Y-98781444D01*
X153227431Y-98818500D01*
X153452569Y-98818500D01*
X153674635Y-98781444D01*
X153887574Y-98708342D01*
X154085576Y-98601189D01*
X154263240Y-98462906D01*
X154384594Y-98331082D01*
X154415715Y-98297276D01*
X154415715Y-98297275D01*
X154415722Y-98297268D01*
X154506193Y-98158790D01*
X154559338Y-98113437D01*
X154628569Y-98104013D01*
X154691905Y-98133515D01*
X154713804Y-98158787D01*
X154804278Y-98297268D01*
X154804283Y-98297273D01*
X154804284Y-98297276D01*
X154956756Y-98462902D01*
X154956761Y-98462907D01*
X154983219Y-98483500D01*
X155134424Y-98601189D01*
X155134425Y-98601189D01*
X155134427Y-98601191D01*
X155261135Y-98669761D01*
X155332426Y-98708342D01*
X155545365Y-98781444D01*
X155767431Y-98818500D01*
X155992569Y-98818500D01*
X156214635Y-98781444D01*
X156427574Y-98708342D01*
X156625576Y-98601189D01*
X156803240Y-98462906D01*
X156924594Y-98331082D01*
X156955715Y-98297276D01*
X156955715Y-98297275D01*
X156955722Y-98297268D01*
X157046193Y-98158790D01*
X157099338Y-98113437D01*
X157168569Y-98104013D01*
X157231905Y-98133515D01*
X157253804Y-98158787D01*
X157344278Y-98297268D01*
X157344283Y-98297273D01*
X157344284Y-98297276D01*
X157496756Y-98462902D01*
X157496761Y-98462907D01*
X157523219Y-98483500D01*
X157674424Y-98601189D01*
X157674425Y-98601189D01*
X157674427Y-98601191D01*
X157801135Y-98669761D01*
X157872426Y-98708342D01*
X158085365Y-98781444D01*
X158307431Y-98818500D01*
X158532569Y-98818500D01*
X158754635Y-98781444D01*
X158967574Y-98708342D01*
X159165576Y-98601189D01*
X159343240Y-98462906D01*
X159464594Y-98331082D01*
X159495715Y-98297276D01*
X159495715Y-98297275D01*
X159495722Y-98297268D01*
X159586193Y-98158790D01*
X159639338Y-98113437D01*
X159708569Y-98104013D01*
X159771905Y-98133515D01*
X159793804Y-98158787D01*
X159884278Y-98297268D01*
X159884283Y-98297273D01*
X159884284Y-98297276D01*
X160036756Y-98462902D01*
X160036761Y-98462907D01*
X160063219Y-98483500D01*
X160214424Y-98601189D01*
X160214425Y-98601189D01*
X160214427Y-98601191D01*
X160341135Y-98669761D01*
X160412426Y-98708342D01*
X160625365Y-98781444D01*
X160847431Y-98818500D01*
X161072569Y-98818500D01*
X161294635Y-98781444D01*
X161507574Y-98708342D01*
X161705576Y-98601189D01*
X161883240Y-98462906D01*
X162004594Y-98331082D01*
X162035715Y-98297276D01*
X162035715Y-98297275D01*
X162035722Y-98297268D01*
X162126193Y-98158790D01*
X162179338Y-98113437D01*
X162248569Y-98104013D01*
X162311905Y-98133515D01*
X162333804Y-98158787D01*
X162424278Y-98297268D01*
X162424283Y-98297273D01*
X162424284Y-98297276D01*
X162576756Y-98462902D01*
X162576761Y-98462907D01*
X162603219Y-98483500D01*
X162754424Y-98601189D01*
X162754425Y-98601189D01*
X162754427Y-98601191D01*
X162881135Y-98669761D01*
X162952426Y-98708342D01*
X163165365Y-98781444D01*
X163387431Y-98818500D01*
X163612569Y-98818500D01*
X163834635Y-98781444D01*
X164047574Y-98708342D01*
X164245576Y-98601189D01*
X164423240Y-98462906D01*
X164544594Y-98331082D01*
X164575715Y-98297276D01*
X164575717Y-98297273D01*
X164575722Y-98297268D01*
X164698860Y-98108791D01*
X164789296Y-97902616D01*
X164844564Y-97684368D01*
X164847164Y-97652993D01*
X164863156Y-97460005D01*
X164863156Y-97459994D01*
X164844565Y-97235640D01*
X164844563Y-97235628D01*
X164789296Y-97017385D01*
X164779071Y-96994075D01*
X164698860Y-96811209D01*
X164682706Y-96786484D01*
X164575723Y-96622734D01*
X164575715Y-96622723D01*
X164423243Y-96457097D01*
X164423238Y-96457092D01*
X164245577Y-96318812D01*
X164245572Y-96318808D01*
X164047580Y-96211661D01*
X164047577Y-96211659D01*
X164047574Y-96211658D01*
X164047571Y-96211657D01*
X164047569Y-96211656D01*
X163834637Y-96138556D01*
X163612569Y-96101500D01*
X163387431Y-96101500D01*
X163165362Y-96138556D01*
X162952430Y-96211656D01*
X162952419Y-96211661D01*
X162754427Y-96318808D01*
X162754422Y-96318812D01*
X162576761Y-96457092D01*
X162576756Y-96457097D01*
X162424284Y-96622723D01*
X162424276Y-96622734D01*
X162333808Y-96761206D01*
X162280662Y-96806562D01*
X162211431Y-96815986D01*
X162148095Y-96786484D01*
X162126192Y-96761206D01*
X162035723Y-96622734D01*
X162035715Y-96622723D01*
X161883243Y-96457097D01*
X161883238Y-96457092D01*
X161705577Y-96318812D01*
X161705572Y-96318808D01*
X161507580Y-96211661D01*
X161507577Y-96211659D01*
X161507574Y-96211658D01*
X161507571Y-96211657D01*
X161507569Y-96211656D01*
X161294637Y-96138556D01*
X161072569Y-96101500D01*
X160847431Y-96101500D01*
X160625362Y-96138556D01*
X160412430Y-96211656D01*
X160412419Y-96211661D01*
X160214427Y-96318808D01*
X160214422Y-96318812D01*
X160036761Y-96457092D01*
X160036756Y-96457097D01*
X159884284Y-96622723D01*
X159884276Y-96622734D01*
X159793808Y-96761206D01*
X159740662Y-96806562D01*
X159671431Y-96815986D01*
X159608095Y-96786484D01*
X159586192Y-96761206D01*
X159495723Y-96622734D01*
X159495715Y-96622723D01*
X159343243Y-96457097D01*
X159343238Y-96457092D01*
X159165577Y-96318812D01*
X159165572Y-96318808D01*
X158967580Y-96211661D01*
X158967577Y-96211659D01*
X158967574Y-96211658D01*
X158967571Y-96211657D01*
X158967569Y-96211656D01*
X158754637Y-96138556D01*
X158532569Y-96101500D01*
X158307431Y-96101500D01*
X158085362Y-96138556D01*
X157872430Y-96211656D01*
X157872419Y-96211661D01*
X157674427Y-96318808D01*
X157674422Y-96318812D01*
X157496761Y-96457092D01*
X157496756Y-96457097D01*
X157344284Y-96622723D01*
X157344276Y-96622734D01*
X157253808Y-96761206D01*
X157200662Y-96806562D01*
X157131431Y-96815986D01*
X157068095Y-96786484D01*
X157046192Y-96761206D01*
X156955723Y-96622734D01*
X156955715Y-96622723D01*
X156803243Y-96457097D01*
X156803238Y-96457092D01*
X156625577Y-96318812D01*
X156625572Y-96318808D01*
X156427580Y-96211661D01*
X156427577Y-96211659D01*
X156427574Y-96211658D01*
X156427571Y-96211657D01*
X156427569Y-96211656D01*
X156214637Y-96138556D01*
X155992569Y-96101500D01*
X155767431Y-96101500D01*
X155545362Y-96138556D01*
X155332430Y-96211656D01*
X155332419Y-96211661D01*
X155134427Y-96318808D01*
X155134422Y-96318812D01*
X154956761Y-96457092D01*
X154956756Y-96457097D01*
X154804284Y-96622723D01*
X154804276Y-96622734D01*
X154713808Y-96761206D01*
X154660662Y-96806562D01*
X154591431Y-96815986D01*
X154528095Y-96786484D01*
X154506192Y-96761206D01*
X154415723Y-96622734D01*
X154415715Y-96622723D01*
X154263243Y-96457097D01*
X154263238Y-96457092D01*
X154085577Y-96318812D01*
X154085572Y-96318808D01*
X153887580Y-96211661D01*
X153887577Y-96211659D01*
X153887574Y-96211658D01*
X153887571Y-96211657D01*
X153887569Y-96211656D01*
X153674637Y-96138556D01*
X153452569Y-96101500D01*
X153227431Y-96101500D01*
X153005362Y-96138556D01*
X152792430Y-96211656D01*
X152792419Y-96211661D01*
X152594427Y-96318808D01*
X152594422Y-96318812D01*
X152416761Y-96457092D01*
X152353548Y-96525760D01*
X152293661Y-96561750D01*
X152223823Y-96559649D01*
X152166207Y-96520124D01*
X152146138Y-96485110D01*
X152100889Y-96363796D01*
X152067214Y-96318812D01*
X152013261Y-96246739D01*
X151896204Y-96159111D01*
X151895172Y-96158726D01*
X151759203Y-96108011D01*
X151698654Y-96101500D01*
X151698638Y-96101500D01*
X149901362Y-96101500D01*
X149901345Y-96101500D01*
X149840797Y-96108011D01*
X149840795Y-96108011D01*
X149703795Y-96159111D01*
X149586739Y-96246739D01*
X149499111Y-96363795D01*
X149448011Y-96500795D01*
X149448011Y-96500797D01*
X149441500Y-96561345D01*
X149441500Y-98358654D01*
X146739212Y-98358654D01*
X146764594Y-98331082D01*
X146795715Y-98297276D01*
X146795717Y-98297273D01*
X146795722Y-98297268D01*
X146918860Y-98108791D01*
X147009296Y-97902616D01*
X147064564Y-97684368D01*
X147067164Y-97652993D01*
X147083156Y-97460005D01*
X147083156Y-97459994D01*
X147064565Y-97235640D01*
X147064563Y-97235628D01*
X147009296Y-97017385D01*
X146999071Y-96994075D01*
X146918860Y-96811209D01*
X146902706Y-96786484D01*
X146795723Y-96622734D01*
X146795715Y-96622723D01*
X146643243Y-96457097D01*
X146643238Y-96457092D01*
X146465577Y-96318812D01*
X146465572Y-96318808D01*
X146267580Y-96211661D01*
X146267577Y-96211659D01*
X146267574Y-96211658D01*
X146267571Y-96211657D01*
X146267569Y-96211656D01*
X146054637Y-96138556D01*
X145832569Y-96101500D01*
X145607431Y-96101500D01*
X145385362Y-96138556D01*
X145172430Y-96211656D01*
X145172419Y-96211661D01*
X144974427Y-96318808D01*
X144974422Y-96318812D01*
X144796761Y-96457092D01*
X144796756Y-96457097D01*
X144644284Y-96622723D01*
X144644276Y-96622734D01*
X144553808Y-96761206D01*
X144500662Y-96806562D01*
X144431431Y-96815986D01*
X144368095Y-96786484D01*
X144346192Y-96761206D01*
X144255723Y-96622734D01*
X144255715Y-96622723D01*
X144103243Y-96457097D01*
X144103238Y-96457092D01*
X143925577Y-96318812D01*
X143925572Y-96318808D01*
X143727580Y-96211661D01*
X143727577Y-96211659D01*
X143727574Y-96211658D01*
X143727571Y-96211657D01*
X143727569Y-96211656D01*
X143514637Y-96138556D01*
X143292569Y-96101500D01*
X143067431Y-96101500D01*
X142845362Y-96138556D01*
X142632430Y-96211656D01*
X142632419Y-96211661D01*
X142434427Y-96318808D01*
X142434422Y-96318812D01*
X142256761Y-96457092D01*
X142256756Y-96457097D01*
X142104284Y-96622723D01*
X142104276Y-96622734D01*
X142013808Y-96761206D01*
X141960662Y-96806562D01*
X141891431Y-96815986D01*
X141828095Y-96786484D01*
X141806192Y-96761206D01*
X141715723Y-96622734D01*
X141715715Y-96622723D01*
X141563243Y-96457097D01*
X141563238Y-96457092D01*
X141385577Y-96318812D01*
X141385572Y-96318808D01*
X141187580Y-96211661D01*
X141187577Y-96211659D01*
X141187574Y-96211658D01*
X141187571Y-96211657D01*
X141187569Y-96211656D01*
X140974637Y-96138556D01*
X140752569Y-96101500D01*
X140527431Y-96101500D01*
X140305362Y-96138556D01*
X140092430Y-96211656D01*
X140092419Y-96211661D01*
X139894427Y-96318808D01*
X139894422Y-96318812D01*
X139716761Y-96457092D01*
X139716756Y-96457097D01*
X139564284Y-96622723D01*
X139564276Y-96622734D01*
X139470251Y-96766650D01*
X139417105Y-96812007D01*
X139347873Y-96821430D01*
X139284538Y-96791928D01*
X139264868Y-96769951D01*
X139138113Y-96588926D01*
X139138108Y-96588920D01*
X138971082Y-96421894D01*
X138777578Y-96286399D01*
X138563492Y-96186570D01*
X138563486Y-96186567D01*
X138350000Y-96129364D01*
X138350000Y-97026988D01*
X138292993Y-96994075D01*
X138165826Y-96960000D01*
X138034174Y-96960000D01*
X137907007Y-96994075D01*
X137850000Y-97026988D01*
X137850000Y-96129364D01*
X137849999Y-96129364D01*
X137636513Y-96186567D01*
X137636507Y-96186570D01*
X137422422Y-96286399D01*
X137422420Y-96286400D01*
X137228926Y-96421886D01*
X137228920Y-96421891D01*
X137061891Y-96588920D01*
X137061890Y-96588922D01*
X136935131Y-96769952D01*
X136880554Y-96813577D01*
X136811055Y-96820769D01*
X136748701Y-96789247D01*
X136729752Y-96766656D01*
X136635722Y-96622732D01*
X136635715Y-96622725D01*
X136635715Y-96622723D01*
X136483243Y-96457097D01*
X136483238Y-96457092D01*
X136305577Y-96318812D01*
X136305572Y-96318808D01*
X136107580Y-96211661D01*
X136107577Y-96211659D01*
X136107574Y-96211658D01*
X136107571Y-96211657D01*
X136107569Y-96211656D01*
X135894637Y-96138556D01*
X135672569Y-96101500D01*
X135447431Y-96101500D01*
X135225362Y-96138556D01*
X135012430Y-96211656D01*
X135012419Y-96211661D01*
X134814427Y-96318808D01*
X134814422Y-96318812D01*
X134636761Y-96457092D01*
X134636756Y-96457097D01*
X134484284Y-96622723D01*
X134484276Y-96622734D01*
X134393808Y-96761206D01*
X134340662Y-96806562D01*
X134271431Y-96815986D01*
X134208095Y-96786484D01*
X134186192Y-96761206D01*
X134095723Y-96622734D01*
X134095715Y-96622723D01*
X133943243Y-96457097D01*
X133943238Y-96457092D01*
X133765577Y-96318812D01*
X133765572Y-96318808D01*
X133567580Y-96211661D01*
X133567577Y-96211659D01*
X133567574Y-96211658D01*
X133567571Y-96211657D01*
X133567569Y-96211656D01*
X133354637Y-96138556D01*
X133132569Y-96101500D01*
X132907431Y-96101500D01*
X132685362Y-96138556D01*
X132472430Y-96211656D01*
X132472419Y-96211661D01*
X132274427Y-96318808D01*
X132274422Y-96318812D01*
X132096761Y-96457092D01*
X132096756Y-96457097D01*
X131944284Y-96622723D01*
X131944276Y-96622734D01*
X131853808Y-96761206D01*
X131800662Y-96806562D01*
X131731431Y-96815986D01*
X131668095Y-96786484D01*
X131646192Y-96761206D01*
X131555723Y-96622734D01*
X131555715Y-96622723D01*
X131403243Y-96457097D01*
X131403238Y-96457092D01*
X131225577Y-96318812D01*
X131225572Y-96318808D01*
X131027580Y-96211661D01*
X131027577Y-96211659D01*
X131027574Y-96211658D01*
X131027571Y-96211657D01*
X131027569Y-96211656D01*
X130814637Y-96138556D01*
X130592569Y-96101500D01*
X130367431Y-96101500D01*
X130145362Y-96138556D01*
X129932430Y-96211656D01*
X129932419Y-96211661D01*
X129734427Y-96318808D01*
X129734422Y-96318812D01*
X129556761Y-96457092D01*
X129493548Y-96525760D01*
X129433661Y-96561750D01*
X129363823Y-96559649D01*
X129306207Y-96520124D01*
X129286138Y-96485110D01*
X129240889Y-96363796D01*
X129207214Y-96318812D01*
X129153261Y-96246739D01*
X129036204Y-96159111D01*
X129035172Y-96158726D01*
X128899203Y-96108011D01*
X128838654Y-96101500D01*
X128838638Y-96101500D01*
X127041362Y-96101500D01*
X127041345Y-96101500D01*
X126980797Y-96108011D01*
X126980795Y-96108011D01*
X126843795Y-96159111D01*
X126726739Y-96246739D01*
X126639111Y-96363795D01*
X126588011Y-96500795D01*
X126588011Y-96500797D01*
X126581500Y-96561345D01*
X126581500Y-98358654D01*
X123549219Y-98358654D01*
X123576989Y-98284201D01*
X123581928Y-98238260D01*
X123583499Y-98223654D01*
X123583500Y-98223637D01*
X123583500Y-96426362D01*
X123583499Y-96426345D01*
X123580157Y-96395270D01*
X123576989Y-96365799D01*
X123525889Y-96228796D01*
X123438261Y-96111739D01*
X123321204Y-96024111D01*
X123184203Y-95973011D01*
X123123654Y-95966500D01*
X123123638Y-95966500D01*
X121326362Y-95966500D01*
X121326345Y-95966500D01*
X121265797Y-95973011D01*
X121265795Y-95973011D01*
X121128795Y-96024111D01*
X121011739Y-96111739D01*
X120924111Y-96228795D01*
X120873011Y-96365795D01*
X120873011Y-96365797D01*
X120866500Y-96426345D01*
X120866500Y-98223654D01*
X117077949Y-98223654D01*
X117101989Y-98159201D01*
X117106909Y-98113437D01*
X117108499Y-98098654D01*
X117108500Y-98098637D01*
X117108500Y-96301362D01*
X117108499Y-96301345D01*
X117105157Y-96270270D01*
X117101989Y-96240799D01*
X117096604Y-96226362D01*
X117074014Y-96165795D01*
X117050889Y-96103796D01*
X116963261Y-95986739D01*
X116846204Y-95899111D01*
X116709203Y-95848011D01*
X116648654Y-95841500D01*
X116648638Y-95841500D01*
X114851362Y-95841500D01*
X114851345Y-95841500D01*
X114790797Y-95848011D01*
X114790795Y-95848011D01*
X114653795Y-95899111D01*
X114536739Y-95986739D01*
X114449111Y-96103795D01*
X114398011Y-96240795D01*
X114398011Y-96240797D01*
X114391500Y-96301345D01*
X114391500Y-98098654D01*
X111221598Y-98098654D01*
X111226989Y-98084201D01*
X111230591Y-98050692D01*
X111233499Y-98023654D01*
X111233500Y-98023637D01*
X111233500Y-96226362D01*
X111233499Y-96226345D01*
X111229222Y-96186570D01*
X111226989Y-96165799D01*
X111224494Y-96159111D01*
X111203006Y-96101500D01*
X111175889Y-96028796D01*
X111088261Y-95911739D01*
X110971204Y-95824111D01*
X110938034Y-95811739D01*
X110834203Y-95773011D01*
X110773654Y-95766500D01*
X110773638Y-95766500D01*
X108976362Y-95766500D01*
X108976345Y-95766500D01*
X108915797Y-95773011D01*
X108915795Y-95773011D01*
X108778795Y-95824111D01*
X108661739Y-95911739D01*
X108574111Y-96028795D01*
X108523011Y-96165795D01*
X108523011Y-96165797D01*
X108516500Y-96226345D01*
X108516500Y-98023654D01*
X104537274Y-98023654D01*
X104551989Y-97984201D01*
X104556031Y-97946606D01*
X104558499Y-97923654D01*
X104558500Y-97923637D01*
X104558500Y-96126362D01*
X104558499Y-96126345D01*
X104555157Y-96095270D01*
X104551989Y-96065799D01*
X104538187Y-96028796D01*
X104522501Y-95986739D01*
X104500889Y-95928796D01*
X104413261Y-95811739D01*
X104296204Y-95724111D01*
X104159203Y-95673011D01*
X104098654Y-95666500D01*
X104098638Y-95666500D01*
X102301362Y-95666500D01*
X102301345Y-95666500D01*
X102240797Y-95673011D01*
X102240795Y-95673011D01*
X102103795Y-95724111D01*
X101986739Y-95811739D01*
X101899111Y-95928795D01*
X101848011Y-96065795D01*
X101848011Y-96065797D01*
X101841500Y-96126345D01*
X101841500Y-97923654D01*
X100075500Y-97923654D01*
X100075500Y-92680001D01*
X123361502Y-92680001D01*
X123381456Y-92908081D01*
X123381457Y-92908089D01*
X123440714Y-93129238D01*
X123440718Y-93129249D01*
X123537475Y-93336745D01*
X123537477Y-93336749D01*
X123668802Y-93524300D01*
X123830700Y-93686198D01*
X124018251Y-93817523D01*
X124079758Y-93846204D01*
X124225750Y-93914281D01*
X124225752Y-93914281D01*
X124225757Y-93914284D01*
X124446913Y-93973543D01*
X124609832Y-93987796D01*
X124674998Y-93993498D01*
X124675000Y-93993498D01*
X124675002Y-93993498D01*
X124732021Y-93988509D01*
X124903087Y-93973543D01*
X125124243Y-93914284D01*
X125331749Y-93817523D01*
X125519300Y-93686198D01*
X125556844Y-93648654D01*
X155341500Y-93648654D01*
X155348011Y-93709202D01*
X155348011Y-93709204D01*
X155366661Y-93759204D01*
X155399111Y-93846204D01*
X155486739Y-93963261D01*
X155603796Y-94050889D01*
X155740799Y-94101989D01*
X155768050Y-94104918D01*
X155801345Y-94108499D01*
X155801362Y-94108500D01*
X157598638Y-94108500D01*
X157598654Y-94108499D01*
X157625692Y-94105591D01*
X157659201Y-94101989D01*
X157796204Y-94050889D01*
X157913261Y-93963261D01*
X158000889Y-93846204D01*
X158051989Y-93709201D01*
X158053123Y-93698654D01*
X163116500Y-93698654D01*
X163123011Y-93759202D01*
X163123011Y-93759204D01*
X163174111Y-93896204D01*
X163261739Y-94013261D01*
X163378796Y-94100889D01*
X163515799Y-94151989D01*
X163543050Y-94154918D01*
X163576345Y-94158499D01*
X163576362Y-94158500D01*
X165373638Y-94158500D01*
X165373654Y-94158499D01*
X165400692Y-94155591D01*
X165434201Y-94151989D01*
X165571204Y-94100889D01*
X165688261Y-94013261D01*
X165775889Y-93896204D01*
X165826989Y-93759201D01*
X165830591Y-93725692D01*
X165833499Y-93698654D01*
X165833500Y-93698637D01*
X165833500Y-91901362D01*
X165833499Y-91901345D01*
X165830157Y-91870270D01*
X165826989Y-91840799D01*
X165825087Y-91835700D01*
X165804522Y-91780564D01*
X165775889Y-91703796D01*
X165688261Y-91586739D01*
X165571204Y-91499111D01*
X165434203Y-91448011D01*
X165373654Y-91441500D01*
X165373638Y-91441500D01*
X163576362Y-91441500D01*
X163576345Y-91441500D01*
X163515797Y-91448011D01*
X163515795Y-91448011D01*
X163378795Y-91499111D01*
X163261739Y-91586739D01*
X163174111Y-91703795D01*
X163123011Y-91840795D01*
X163123011Y-91840797D01*
X163116500Y-91901345D01*
X163116500Y-93698654D01*
X158053123Y-93698654D01*
X158055591Y-93675692D01*
X158058499Y-93648654D01*
X158058500Y-93648637D01*
X158058500Y-91851362D01*
X158058499Y-91851345D01*
X158054972Y-91818542D01*
X158051989Y-91790799D01*
X158040234Y-91759284D01*
X158008352Y-91673806D01*
X158000889Y-91653796D01*
X157913261Y-91536739D01*
X157796204Y-91449111D01*
X157787102Y-91445716D01*
X157659203Y-91398011D01*
X157598654Y-91391500D01*
X157598638Y-91391500D01*
X155801362Y-91391500D01*
X155801345Y-91391500D01*
X155740797Y-91398011D01*
X155740795Y-91398011D01*
X155603795Y-91449111D01*
X155486739Y-91536739D01*
X155399111Y-91653795D01*
X155348011Y-91790795D01*
X155348011Y-91790797D01*
X155341500Y-91851345D01*
X155341500Y-93648654D01*
X125556844Y-93648654D01*
X125681198Y-93524300D01*
X125812523Y-93336749D01*
X125909284Y-93129243D01*
X125968543Y-92908087D01*
X125988498Y-92680000D01*
X125968543Y-92451913D01*
X125909284Y-92230757D01*
X125892257Y-92194243D01*
X125812524Y-92023254D01*
X125812523Y-92023252D01*
X125812523Y-92023251D01*
X125681198Y-91835700D01*
X125590499Y-91745001D01*
X128736502Y-91745001D01*
X128756456Y-91973081D01*
X128756457Y-91973089D01*
X128815714Y-92194238D01*
X128815718Y-92194249D01*
X128876338Y-92324249D01*
X128912477Y-92401749D01*
X129043802Y-92589300D01*
X129205700Y-92751198D01*
X129393251Y-92882523D01*
X129448061Y-92908081D01*
X129600750Y-92979281D01*
X129600752Y-92979281D01*
X129600757Y-92979284D01*
X129821913Y-93038543D01*
X129984832Y-93052796D01*
X130049998Y-93058498D01*
X130050000Y-93058498D01*
X130050002Y-93058498D01*
X130107021Y-93053509D01*
X130278087Y-93038543D01*
X130499243Y-92979284D01*
X130706749Y-92882523D01*
X130894300Y-92751198D01*
X131056198Y-92589300D01*
X131187523Y-92401749D01*
X131284284Y-92194243D01*
X131343543Y-91973087D01*
X131363498Y-91745001D01*
X136356502Y-91745001D01*
X136376456Y-91973081D01*
X136376457Y-91973089D01*
X136435714Y-92194238D01*
X136435718Y-92194249D01*
X136496338Y-92324249D01*
X136532477Y-92401749D01*
X136663802Y-92589300D01*
X136825700Y-92751198D01*
X137013251Y-92882523D01*
X137068061Y-92908081D01*
X137220750Y-92979281D01*
X137220752Y-92979281D01*
X137220757Y-92979284D01*
X137441913Y-93038543D01*
X137604832Y-93052796D01*
X137669998Y-93058498D01*
X137670000Y-93058498D01*
X137670002Y-93058498D01*
X137727021Y-93053509D01*
X137898087Y-93038543D01*
X138119243Y-92979284D01*
X138326749Y-92882523D01*
X138514300Y-92751198D01*
X138676198Y-92589300D01*
X138807523Y-92401749D01*
X138904284Y-92194243D01*
X138963543Y-91973087D01*
X138972124Y-91875001D01*
X140531502Y-91875001D01*
X140551456Y-92103081D01*
X140551457Y-92103089D01*
X140610714Y-92324238D01*
X140610718Y-92324249D01*
X140670249Y-92451913D01*
X140707477Y-92531749D01*
X140838802Y-92719300D01*
X141000700Y-92881198D01*
X141188251Y-93012523D01*
X141313091Y-93070736D01*
X141395750Y-93109281D01*
X141395752Y-93109281D01*
X141395757Y-93109284D01*
X141616913Y-93168543D01*
X141779832Y-93182796D01*
X141844998Y-93188498D01*
X141845000Y-93188498D01*
X141845002Y-93188498D01*
X141902021Y-93183509D01*
X142073087Y-93168543D01*
X142294243Y-93109284D01*
X142501749Y-93012523D01*
X142689300Y-92881198D01*
X142851198Y-92719300D01*
X142982523Y-92531749D01*
X143079284Y-92324243D01*
X143138543Y-92103087D01*
X143158498Y-91875001D01*
X150691502Y-91875001D01*
X150711456Y-92103081D01*
X150711457Y-92103089D01*
X150770714Y-92324238D01*
X150770718Y-92324249D01*
X150830249Y-92451913D01*
X150867477Y-92531749D01*
X150998802Y-92719300D01*
X151160700Y-92881198D01*
X151348251Y-93012523D01*
X151473091Y-93070736D01*
X151555750Y-93109281D01*
X151555752Y-93109281D01*
X151555757Y-93109284D01*
X151776913Y-93168543D01*
X151939832Y-93182796D01*
X152004998Y-93188498D01*
X152005000Y-93188498D01*
X152005002Y-93188498D01*
X152062021Y-93183509D01*
X152233087Y-93168543D01*
X152454243Y-93109284D01*
X152661749Y-93012523D01*
X152849300Y-92881198D01*
X153011198Y-92719300D01*
X153142523Y-92531749D01*
X153239284Y-92324243D01*
X153298543Y-92103087D01*
X153318498Y-91875000D01*
X153316428Y-91851345D01*
X153308374Y-91759281D01*
X153298543Y-91646913D01*
X153239284Y-91425757D01*
X153142523Y-91218251D01*
X153011198Y-91030700D01*
X152849300Y-90868802D01*
X152661749Y-90737477D01*
X152661745Y-90737475D01*
X152454249Y-90640718D01*
X152454238Y-90640714D01*
X152233089Y-90581457D01*
X152233081Y-90581456D01*
X152005002Y-90561502D01*
X152004998Y-90561502D01*
X151776918Y-90581456D01*
X151776910Y-90581457D01*
X151555761Y-90640714D01*
X151555750Y-90640718D01*
X151348254Y-90737475D01*
X151348252Y-90737476D01*
X151293393Y-90775889D01*
X151160700Y-90868802D01*
X151160698Y-90868803D01*
X151160695Y-90868806D01*
X150998806Y-91030695D01*
X150867476Y-91218252D01*
X150867475Y-91218254D01*
X150770718Y-91425750D01*
X150770714Y-91425761D01*
X150711457Y-91646910D01*
X150711456Y-91646918D01*
X150691502Y-91874998D01*
X150691502Y-91875001D01*
X143158498Y-91875001D01*
X143158498Y-91875000D01*
X143156428Y-91851345D01*
X143148374Y-91759281D01*
X143138543Y-91646913D01*
X143079284Y-91425757D01*
X142982523Y-91218251D01*
X142851198Y-91030700D01*
X142689300Y-90868802D01*
X142501749Y-90737477D01*
X142501745Y-90737475D01*
X142294249Y-90640718D01*
X142294238Y-90640714D01*
X142073089Y-90581457D01*
X142073081Y-90581456D01*
X141845002Y-90561502D01*
X141844998Y-90561502D01*
X141616918Y-90581456D01*
X141616910Y-90581457D01*
X141395761Y-90640714D01*
X141395750Y-90640718D01*
X141188254Y-90737475D01*
X141188252Y-90737476D01*
X141133393Y-90775889D01*
X141000700Y-90868802D01*
X141000698Y-90868803D01*
X141000695Y-90868806D01*
X140838806Y-91030695D01*
X140707476Y-91218252D01*
X140707475Y-91218254D01*
X140610718Y-91425750D01*
X140610714Y-91425761D01*
X140551457Y-91646910D01*
X140551456Y-91646918D01*
X140531502Y-91874998D01*
X140531502Y-91875001D01*
X138972124Y-91875001D01*
X138983498Y-91745000D01*
X138963543Y-91516913D01*
X138904284Y-91295757D01*
X138807523Y-91088251D01*
X138676198Y-90900700D01*
X138514300Y-90738802D01*
X138326749Y-90607477D01*
X138283655Y-90587382D01*
X138231215Y-90541210D01*
X138212063Y-90474017D01*
X138232278Y-90407136D01*
X138283655Y-90362618D01*
X138286882Y-90361112D01*
X138326749Y-90342523D01*
X138514300Y-90211198D01*
X138676198Y-90049300D01*
X138807523Y-89861749D01*
X138904284Y-89654243D01*
X138963543Y-89433087D01*
X138983498Y-89205000D01*
X138963543Y-88976913D01*
X138904284Y-88755757D01*
X138807523Y-88548251D01*
X138676198Y-88360700D01*
X138514300Y-88198802D01*
X138326749Y-88067477D01*
X138273596Y-88042691D01*
X138221158Y-87996519D01*
X138202007Y-87929325D01*
X138222223Y-87862444D01*
X138273600Y-87817927D01*
X138322483Y-87795133D01*
X138508820Y-87664657D01*
X138669657Y-87503820D01*
X138800134Y-87317482D01*
X138896265Y-87111326D01*
X138896269Y-87111317D01*
X138948872Y-86915000D01*
X137985686Y-86915000D01*
X137990080Y-86910606D01*
X138042741Y-86819394D01*
X138070000Y-86717661D01*
X138070000Y-86612339D01*
X138042741Y-86510606D01*
X137990080Y-86419394D01*
X137985686Y-86415000D01*
X138948872Y-86415000D01*
X138948872Y-86414999D01*
X138896269Y-86218682D01*
X138896265Y-86218673D01*
X138800134Y-86012517D01*
X138669657Y-85826179D01*
X138618479Y-85775001D01*
X140556502Y-85775001D01*
X140576456Y-86003081D01*
X140576457Y-86003089D01*
X140635714Y-86224238D01*
X140635718Y-86224249D01*
X140719329Y-86403553D01*
X140732477Y-86431749D01*
X140863802Y-86619300D01*
X141025700Y-86781198D01*
X141213251Y-86912523D01*
X141338091Y-86970736D01*
X141420750Y-87009281D01*
X141420752Y-87009281D01*
X141420757Y-87009284D01*
X141641913Y-87068543D01*
X141804832Y-87082796D01*
X141869998Y-87088498D01*
X141870000Y-87088498D01*
X141870002Y-87088498D01*
X141927021Y-87083509D01*
X142098087Y-87068543D01*
X142319243Y-87009284D01*
X142526749Y-86912523D01*
X142714300Y-86781198D01*
X142876198Y-86619300D01*
X143007523Y-86431749D01*
X143104284Y-86224243D01*
X143163543Y-86003087D01*
X143183498Y-85775001D01*
X150716502Y-85775001D01*
X150736456Y-86003081D01*
X150736457Y-86003089D01*
X150795714Y-86224238D01*
X150795718Y-86224249D01*
X150879329Y-86403553D01*
X150892477Y-86431749D01*
X151023802Y-86619300D01*
X151185700Y-86781198D01*
X151373251Y-86912523D01*
X151498091Y-86970736D01*
X151580750Y-87009281D01*
X151580752Y-87009281D01*
X151580757Y-87009284D01*
X151801913Y-87068543D01*
X151964832Y-87082796D01*
X152029998Y-87088498D01*
X152030000Y-87088498D01*
X152030002Y-87088498D01*
X152087021Y-87083509D01*
X152258087Y-87068543D01*
X152479243Y-87009284D01*
X152502039Y-86998654D01*
X159341500Y-86998654D01*
X159348011Y-87059202D01*
X159348011Y-87059204D01*
X159399111Y-87196204D01*
X159486739Y-87313261D01*
X159603796Y-87400889D01*
X159740799Y-87451989D01*
X159768050Y-87454918D01*
X159801345Y-87458499D01*
X159801362Y-87458500D01*
X161698638Y-87458500D01*
X161698654Y-87458499D01*
X161725692Y-87455591D01*
X161759201Y-87451989D01*
X161896204Y-87400889D01*
X162013261Y-87313261D01*
X162100889Y-87196204D01*
X162151989Y-87059201D01*
X162155591Y-87025692D01*
X162158499Y-86998654D01*
X162158500Y-86998637D01*
X162158500Y-86879308D01*
X162178185Y-86812269D01*
X162194819Y-86791627D01*
X162847861Y-86138584D01*
X162870667Y-86223694D01*
X162929910Y-86326306D01*
X163013694Y-86410090D01*
X163116306Y-86469333D01*
X163201414Y-86492138D01*
X162491201Y-87202351D01*
X162521649Y-87226050D01*
X162725697Y-87336476D01*
X162725706Y-87336479D01*
X162945139Y-87411811D01*
X163173993Y-87450000D01*
X163406007Y-87450000D01*
X163634860Y-87411811D01*
X163854293Y-87336479D01*
X163854301Y-87336476D01*
X164058355Y-87226047D01*
X164088797Y-87202351D01*
X164088798Y-87202350D01*
X163378585Y-86492137D01*
X163463694Y-86469333D01*
X163566306Y-86410090D01*
X163650090Y-86326306D01*
X163709333Y-86223694D01*
X163732138Y-86138585D01*
X164441186Y-86847633D01*
X164525482Y-86718611D01*
X164618682Y-86506135D01*
X164675638Y-86281218D01*
X164694798Y-86050005D01*
X164694798Y-86049994D01*
X164675638Y-85818781D01*
X164618682Y-85593864D01*
X164525484Y-85381393D01*
X164441186Y-85252365D01*
X163732137Y-85961414D01*
X163709333Y-85876306D01*
X163650090Y-85773694D01*
X163566306Y-85689910D01*
X163463694Y-85630667D01*
X163378584Y-85607861D01*
X164088797Y-84897647D01*
X164088797Y-84897645D01*
X164058360Y-84873955D01*
X164058354Y-84873951D01*
X163854302Y-84763523D01*
X163854293Y-84763520D01*
X163634860Y-84688188D01*
X163406007Y-84650000D01*
X163173993Y-84650000D01*
X162945139Y-84688188D01*
X162725706Y-84763520D01*
X162725697Y-84763523D01*
X162521650Y-84873949D01*
X162491200Y-84897647D01*
X163201415Y-85607861D01*
X163116306Y-85630667D01*
X163013694Y-85689910D01*
X162929910Y-85773694D01*
X162870667Y-85876306D01*
X162847861Y-85961414D01*
X162194819Y-85308372D01*
X162161334Y-85247049D01*
X162158500Y-85220691D01*
X162158500Y-85101362D01*
X162158499Y-85101345D01*
X162155157Y-85070270D01*
X162151989Y-85040799D01*
X162149529Y-85034204D01*
X162125321Y-84969300D01*
X162100889Y-84903796D01*
X162013261Y-84786739D01*
X161896204Y-84699111D01*
X161846843Y-84680700D01*
X161759203Y-84648011D01*
X161698654Y-84641500D01*
X161698638Y-84641500D01*
X159801362Y-84641500D01*
X159801345Y-84641500D01*
X159740797Y-84648011D01*
X159740795Y-84648011D01*
X159603795Y-84699111D01*
X159486739Y-84786739D01*
X159399111Y-84903795D01*
X159348011Y-85040795D01*
X159348011Y-85040797D01*
X159341500Y-85101345D01*
X159341500Y-86998654D01*
X152502039Y-86998654D01*
X152686749Y-86912523D01*
X152874300Y-86781198D01*
X153036198Y-86619300D01*
X153167523Y-86431749D01*
X153264284Y-86224243D01*
X153323543Y-86003087D01*
X153343498Y-85775000D01*
X153323543Y-85546913D01*
X153264284Y-85325757D01*
X153256177Y-85308372D01*
X153167524Y-85118254D01*
X153167523Y-85118252D01*
X153167523Y-85118251D01*
X153036198Y-84930700D01*
X152874300Y-84768802D01*
X152686749Y-84637477D01*
X152686745Y-84637475D01*
X152479249Y-84540718D01*
X152479238Y-84540714D01*
X152258089Y-84481457D01*
X152258081Y-84481456D01*
X152030002Y-84461502D01*
X152029998Y-84461502D01*
X151801918Y-84481456D01*
X151801910Y-84481457D01*
X151580761Y-84540714D01*
X151580750Y-84540718D01*
X151373254Y-84637475D01*
X151373252Y-84637476D01*
X151358207Y-84648011D01*
X151185700Y-84768802D01*
X151185698Y-84768803D01*
X151185695Y-84768806D01*
X151023806Y-84930695D01*
X151023803Y-84930698D01*
X151023802Y-84930700D01*
X150951330Y-85034201D01*
X150892476Y-85118252D01*
X150892475Y-85118254D01*
X150795718Y-85325750D01*
X150795714Y-85325761D01*
X150736457Y-85546910D01*
X150736456Y-85546918D01*
X150716502Y-85774998D01*
X150716502Y-85775001D01*
X143183498Y-85775001D01*
X143183498Y-85775000D01*
X143163543Y-85546913D01*
X143104284Y-85325757D01*
X143096177Y-85308372D01*
X143007524Y-85118254D01*
X143007523Y-85118252D01*
X143007523Y-85118251D01*
X142876198Y-84930700D01*
X142714300Y-84768802D01*
X142526749Y-84637477D01*
X142526745Y-84637475D01*
X142319249Y-84540718D01*
X142319238Y-84540714D01*
X142098089Y-84481457D01*
X142098081Y-84481456D01*
X141870002Y-84461502D01*
X141869998Y-84461502D01*
X141641918Y-84481456D01*
X141641910Y-84481457D01*
X141420761Y-84540714D01*
X141420750Y-84540718D01*
X141213254Y-84637475D01*
X141213252Y-84637476D01*
X141198207Y-84648011D01*
X141025700Y-84768802D01*
X141025698Y-84768803D01*
X141025695Y-84768806D01*
X140863806Y-84930695D01*
X140863803Y-84930698D01*
X140863802Y-84930700D01*
X140791330Y-85034201D01*
X140732476Y-85118252D01*
X140732475Y-85118254D01*
X140635718Y-85325750D01*
X140635714Y-85325761D01*
X140576457Y-85546910D01*
X140576456Y-85546918D01*
X140556502Y-85774998D01*
X140556502Y-85775001D01*
X138618479Y-85775001D01*
X138508820Y-85665342D01*
X138322481Y-85534865D01*
X138322479Y-85534864D01*
X138273599Y-85512071D01*
X138221159Y-85465899D01*
X138202007Y-85398706D01*
X138222223Y-85331824D01*
X138273599Y-85287307D01*
X138326749Y-85262523D01*
X138514300Y-85131198D01*
X138676198Y-84969300D01*
X138807523Y-84781749D01*
X138904284Y-84574243D01*
X138963543Y-84353087D01*
X138983498Y-84125000D01*
X138963543Y-83896913D01*
X138904284Y-83675757D01*
X138895781Y-83657523D01*
X138834544Y-83526198D01*
X138807523Y-83468251D01*
X138676198Y-83280700D01*
X138514300Y-83118802D01*
X138326749Y-82987477D01*
X138287646Y-82969243D01*
X138119249Y-82890718D01*
X138119238Y-82890714D01*
X137898089Y-82831457D01*
X137898081Y-82831456D01*
X137670002Y-82811502D01*
X137669998Y-82811502D01*
X137441918Y-82831456D01*
X137441910Y-82831457D01*
X137220761Y-82890714D01*
X137220750Y-82890718D01*
X137013254Y-82987475D01*
X137013252Y-82987476D01*
X137013251Y-82987477D01*
X136825700Y-83118802D01*
X136825698Y-83118803D01*
X136825695Y-83118806D01*
X136663806Y-83280695D01*
X136663803Y-83280698D01*
X136663802Y-83280700D01*
X136605262Y-83364304D01*
X136532476Y-83468252D01*
X136532475Y-83468254D01*
X136435718Y-83675750D01*
X136435714Y-83675761D01*
X136376457Y-83896910D01*
X136376456Y-83896918D01*
X136356502Y-84124998D01*
X136356502Y-84125001D01*
X136376456Y-84353081D01*
X136376457Y-84353089D01*
X136435714Y-84574238D01*
X136435718Y-84574249D01*
X136532475Y-84781745D01*
X136532477Y-84781749D01*
X136663802Y-84969300D01*
X136825700Y-85131198D01*
X136991152Y-85247049D01*
X137013251Y-85262523D01*
X137066401Y-85287307D01*
X137118840Y-85333479D01*
X137137992Y-85400673D01*
X137117776Y-85467554D01*
X137066401Y-85512071D01*
X137017517Y-85534865D01*
X136831179Y-85665342D01*
X136670342Y-85826179D01*
X136539865Y-86012517D01*
X136443734Y-86218673D01*
X136443730Y-86218682D01*
X136391127Y-86414999D01*
X136391128Y-86415000D01*
X137354314Y-86415000D01*
X137349920Y-86419394D01*
X137297259Y-86510606D01*
X137270000Y-86612339D01*
X137270000Y-86717661D01*
X137297259Y-86819394D01*
X137349920Y-86910606D01*
X137354314Y-86915000D01*
X136391128Y-86915000D01*
X136443730Y-87111317D01*
X136443734Y-87111326D01*
X136539865Y-87317482D01*
X136670342Y-87503820D01*
X136831179Y-87664657D01*
X137017517Y-87795133D01*
X137066399Y-87817927D01*
X137118839Y-87864099D01*
X137137992Y-87931292D01*
X137117777Y-87998174D01*
X137066402Y-88042691D01*
X137013256Y-88067474D01*
X137013252Y-88067476D01*
X136943239Y-88116500D01*
X136825700Y-88198802D01*
X136825698Y-88198803D01*
X136825695Y-88198806D01*
X136663806Y-88360695D01*
X136532476Y-88548252D01*
X136532475Y-88548254D01*
X136435718Y-88755750D01*
X136435714Y-88755761D01*
X136376457Y-88976910D01*
X136376456Y-88976918D01*
X136356502Y-89204998D01*
X136356502Y-89205001D01*
X136376456Y-89433081D01*
X136376457Y-89433089D01*
X136435714Y-89654238D01*
X136435718Y-89654249D01*
X136532475Y-89861745D01*
X136532477Y-89861749D01*
X136663802Y-90049300D01*
X136825700Y-90211198D01*
X137013251Y-90342523D01*
X137056345Y-90362618D01*
X137108784Y-90408791D01*
X137127936Y-90475984D01*
X137107720Y-90542865D01*
X137056345Y-90587382D01*
X137013251Y-90607476D01*
X136897881Y-90688260D01*
X136825700Y-90738802D01*
X136825698Y-90738803D01*
X136825695Y-90738806D01*
X136663806Y-90900695D01*
X136663803Y-90900698D01*
X136663802Y-90900700D01*
X136612302Y-90974249D01*
X136532476Y-91088252D01*
X136532475Y-91088254D01*
X136435718Y-91295750D01*
X136435714Y-91295761D01*
X136376457Y-91516910D01*
X136376456Y-91516918D01*
X136356502Y-91744998D01*
X136356502Y-91745001D01*
X131363498Y-91745001D01*
X131363498Y-91745000D01*
X131343543Y-91516913D01*
X131284284Y-91295757D01*
X131187523Y-91088251D01*
X131056198Y-90900700D01*
X130894300Y-90738802D01*
X130706749Y-90607477D01*
X130663655Y-90587382D01*
X130611215Y-90541210D01*
X130592063Y-90474017D01*
X130612278Y-90407136D01*
X130663655Y-90362618D01*
X130666882Y-90361112D01*
X130706749Y-90342523D01*
X130894300Y-90211198D01*
X131056198Y-90049300D01*
X131187523Y-89861749D01*
X131284284Y-89654243D01*
X131343543Y-89433087D01*
X131363498Y-89205000D01*
X131343543Y-88976913D01*
X131284284Y-88755757D01*
X131187523Y-88548251D01*
X131056198Y-88360700D01*
X130894300Y-88198802D01*
X130706749Y-88067477D01*
X130663655Y-88047382D01*
X130611215Y-88001210D01*
X130592063Y-87934017D01*
X130612278Y-87867136D01*
X130663655Y-87822618D01*
X130666882Y-87821112D01*
X130706749Y-87802523D01*
X130894300Y-87671198D01*
X131056198Y-87509300D01*
X131187523Y-87321749D01*
X131284284Y-87114243D01*
X131343543Y-86893087D01*
X131363498Y-86665000D01*
X131363281Y-86662524D01*
X131343543Y-86436918D01*
X131343543Y-86436913D01*
X131284284Y-86215757D01*
X131187523Y-86008251D01*
X131056198Y-85820700D01*
X130894300Y-85658802D01*
X130886627Y-85653429D01*
X130843006Y-85598853D01*
X130835814Y-85529355D01*
X130867338Y-85467001D01*
X130927568Y-85431588D01*
X130944489Y-85428570D01*
X130959201Y-85426989D01*
X131096204Y-85375889D01*
X131213261Y-85288261D01*
X131300889Y-85171204D01*
X131351989Y-85034201D01*
X131355591Y-85000692D01*
X131358499Y-84973654D01*
X131358500Y-84973637D01*
X131358500Y-83276362D01*
X131358499Y-83276345D01*
X131355157Y-83245270D01*
X131351989Y-83215799D01*
X131337422Y-83176745D01*
X131315812Y-83118806D01*
X131300889Y-83078796D01*
X131213261Y-82961739D01*
X131096204Y-82874111D01*
X130959203Y-82823011D01*
X130898654Y-82816500D01*
X130898638Y-82816500D01*
X129201362Y-82816500D01*
X129201345Y-82816500D01*
X129140797Y-82823011D01*
X129140795Y-82823011D01*
X129003795Y-82874111D01*
X128886739Y-82961739D01*
X128799111Y-83078795D01*
X128748011Y-83215795D01*
X128748011Y-83215797D01*
X128741500Y-83276345D01*
X128741500Y-84973654D01*
X128748011Y-85034202D01*
X128748011Y-85034204D01*
X128784189Y-85131198D01*
X128799111Y-85171204D01*
X128886739Y-85288261D01*
X129003796Y-85375889D01*
X129070244Y-85400673D01*
X129140793Y-85426987D01*
X129140799Y-85426989D01*
X129155499Y-85428569D01*
X129220048Y-85455305D01*
X129259897Y-85512696D01*
X129262393Y-85582521D01*
X129226742Y-85642611D01*
X129213377Y-85653425D01*
X129213371Y-85653431D01*
X129205696Y-85658805D01*
X129043806Y-85820695D01*
X128912476Y-86008252D01*
X128912475Y-86008254D01*
X128815718Y-86215750D01*
X128815714Y-86215761D01*
X128756457Y-86436910D01*
X128756456Y-86436918D01*
X128736502Y-86664998D01*
X128736502Y-86665001D01*
X128756456Y-86893081D01*
X128756457Y-86893089D01*
X128815714Y-87114238D01*
X128815718Y-87114249D01*
X128908519Y-87313261D01*
X128912477Y-87321749D01*
X129043802Y-87509300D01*
X129205700Y-87671198D01*
X129382697Y-87795133D01*
X129393251Y-87802523D01*
X129436345Y-87822618D01*
X129488784Y-87868791D01*
X129507936Y-87935984D01*
X129487720Y-88002865D01*
X129436345Y-88047382D01*
X129393251Y-88067476D01*
X129313940Y-88123011D01*
X129205700Y-88198802D01*
X129205698Y-88198803D01*
X129205695Y-88198806D01*
X129043806Y-88360695D01*
X128912476Y-88548252D01*
X128912475Y-88548254D01*
X128815718Y-88755750D01*
X128815714Y-88755761D01*
X128756457Y-88976910D01*
X128756456Y-88976918D01*
X128736502Y-89204998D01*
X128736502Y-89205001D01*
X128756456Y-89433081D01*
X128756457Y-89433089D01*
X128815714Y-89654238D01*
X128815718Y-89654249D01*
X128912475Y-89861745D01*
X128912477Y-89861749D01*
X129043802Y-90049300D01*
X129205700Y-90211198D01*
X129393251Y-90342523D01*
X129436345Y-90362618D01*
X129488784Y-90408791D01*
X129507936Y-90475984D01*
X129487720Y-90542865D01*
X129436345Y-90587382D01*
X129393251Y-90607476D01*
X129277881Y-90688260D01*
X129205700Y-90738802D01*
X129205698Y-90738803D01*
X129205695Y-90738806D01*
X129043806Y-90900695D01*
X129043803Y-90900698D01*
X129043802Y-90900700D01*
X128992302Y-90974249D01*
X128912476Y-91088252D01*
X128912475Y-91088254D01*
X128815718Y-91295750D01*
X128815714Y-91295761D01*
X128756457Y-91516910D01*
X128756456Y-91516918D01*
X128736502Y-91744998D01*
X128736502Y-91745001D01*
X125590499Y-91745001D01*
X125519300Y-91673802D01*
X125331749Y-91542477D01*
X125307561Y-91531198D01*
X125124249Y-91445718D01*
X125124238Y-91445714D01*
X124903089Y-91386457D01*
X124903081Y-91386456D01*
X124675002Y-91366502D01*
X124674998Y-91366502D01*
X124446918Y-91386456D01*
X124446910Y-91386457D01*
X124225761Y-91445714D01*
X124225750Y-91445718D01*
X124018254Y-91542475D01*
X124018252Y-91542476D01*
X124018251Y-91542477D01*
X123830700Y-91673802D01*
X123830698Y-91673803D01*
X123830695Y-91673806D01*
X123668806Y-91835695D01*
X123668803Y-91835698D01*
X123668802Y-91835700D01*
X123641285Y-91874998D01*
X123537476Y-92023252D01*
X123537475Y-92023254D01*
X123440718Y-92230750D01*
X123440714Y-92230761D01*
X123381457Y-92451910D01*
X123381456Y-92451918D01*
X123361502Y-92679998D01*
X123361502Y-92680001D01*
X100075500Y-92680001D01*
X100075500Y-90373654D01*
X101416500Y-90373654D01*
X101423011Y-90434202D01*
X101423011Y-90434204D01*
X101463541Y-90542865D01*
X101474111Y-90571204D01*
X101561739Y-90688261D01*
X101678796Y-90775889D01*
X101815799Y-90826989D01*
X101843050Y-90829918D01*
X101876345Y-90833499D01*
X101876362Y-90833500D01*
X103673638Y-90833500D01*
X103673654Y-90833499D01*
X103700692Y-90830591D01*
X103734201Y-90826989D01*
X103871204Y-90775889D01*
X103988261Y-90688261D01*
X104075889Y-90571204D01*
X104093122Y-90525001D01*
X118761502Y-90525001D01*
X118781456Y-90753081D01*
X118781457Y-90753089D01*
X118840714Y-90974238D01*
X118840718Y-90974249D01*
X118937475Y-91181745D01*
X118937477Y-91181749D01*
X119068802Y-91369300D01*
X119230700Y-91531198D01*
X119418251Y-91662523D01*
X119442448Y-91673806D01*
X119625750Y-91759281D01*
X119625752Y-91759281D01*
X119625757Y-91759284D01*
X119846913Y-91818543D01*
X120009832Y-91832796D01*
X120074998Y-91838498D01*
X120075000Y-91838498D01*
X120075002Y-91838498D01*
X120132021Y-91833509D01*
X120303087Y-91818543D01*
X120524243Y-91759284D01*
X120731749Y-91662523D01*
X120919300Y-91531198D01*
X121081198Y-91369300D01*
X121212523Y-91181749D01*
X121309284Y-90974243D01*
X121368543Y-90753087D01*
X121388498Y-90525000D01*
X121368543Y-90296913D01*
X121309284Y-90075757D01*
X121212523Y-89868251D01*
X121081198Y-89680700D01*
X120919300Y-89518802D01*
X120731749Y-89387477D01*
X120731745Y-89387475D01*
X120524249Y-89290718D01*
X120524238Y-89290714D01*
X120303089Y-89231457D01*
X120303081Y-89231456D01*
X120075002Y-89211502D01*
X120074998Y-89211502D01*
X119846918Y-89231456D01*
X119846910Y-89231457D01*
X119625761Y-89290714D01*
X119625750Y-89290718D01*
X119418254Y-89387475D01*
X119418252Y-89387476D01*
X119418251Y-89387477D01*
X119230700Y-89518802D01*
X119230698Y-89518803D01*
X119230695Y-89518806D01*
X119068806Y-89680695D01*
X118937476Y-89868252D01*
X118937475Y-89868254D01*
X118840718Y-90075750D01*
X118840714Y-90075761D01*
X118781457Y-90296910D01*
X118781456Y-90296918D01*
X118761502Y-90524998D01*
X118761502Y-90525001D01*
X104093122Y-90525001D01*
X104126989Y-90434201D01*
X104130591Y-90400692D01*
X104133499Y-90373654D01*
X104133500Y-90373637D01*
X104133500Y-88576362D01*
X104133499Y-88576345D01*
X104130157Y-88545270D01*
X104126989Y-88515799D01*
X104075889Y-88378796D01*
X103988261Y-88261739D01*
X103871204Y-88174111D01*
X103734203Y-88123011D01*
X103673654Y-88116500D01*
X103673638Y-88116500D01*
X101876362Y-88116500D01*
X101876345Y-88116500D01*
X101815797Y-88123011D01*
X101815795Y-88123011D01*
X101678795Y-88174111D01*
X101561739Y-88261739D01*
X101474111Y-88378795D01*
X101423011Y-88515795D01*
X101423011Y-88515797D01*
X101416500Y-88576345D01*
X101416500Y-90373654D01*
X100075500Y-90373654D01*
X100075500Y-85525001D01*
X118761502Y-85525001D01*
X118781456Y-85753081D01*
X118781457Y-85753089D01*
X118840714Y-85974238D01*
X118840718Y-85974249D01*
X118937475Y-86181745D01*
X118937477Y-86181749D01*
X119068802Y-86369300D01*
X119230700Y-86531198D01*
X119418251Y-86662523D01*
X119536496Y-86717661D01*
X119625750Y-86759281D01*
X119625752Y-86759281D01*
X119625757Y-86759284D01*
X119846913Y-86818543D01*
X120009832Y-86832796D01*
X120074998Y-86838498D01*
X120075000Y-86838498D01*
X120075002Y-86838498D01*
X120132021Y-86833509D01*
X120303087Y-86818543D01*
X120524243Y-86759284D01*
X120731749Y-86662523D01*
X120919300Y-86531198D01*
X121081198Y-86369300D01*
X121212523Y-86181749D01*
X121309284Y-85974243D01*
X121368543Y-85753087D01*
X121388498Y-85525000D01*
X121368543Y-85296913D01*
X121309284Y-85075757D01*
X121212523Y-84868251D01*
X121081198Y-84680700D01*
X120919300Y-84518802D01*
X120731749Y-84387477D01*
X120731745Y-84387475D01*
X120524249Y-84290718D01*
X120524238Y-84290714D01*
X120303089Y-84231457D01*
X120303081Y-84231456D01*
X120075002Y-84211502D01*
X120074998Y-84211502D01*
X119846918Y-84231456D01*
X119846910Y-84231457D01*
X119625761Y-84290714D01*
X119625750Y-84290718D01*
X119418254Y-84387475D01*
X119418252Y-84387476D01*
X119418251Y-84387477D01*
X119230700Y-84518802D01*
X119230698Y-84518803D01*
X119230695Y-84518806D01*
X119068806Y-84680695D01*
X119068803Y-84680698D01*
X119068802Y-84680700D01*
X118986767Y-84797856D01*
X118937476Y-84868252D01*
X118937475Y-84868254D01*
X118840718Y-85075750D01*
X118840714Y-85075761D01*
X118781457Y-85296910D01*
X118781456Y-85296918D01*
X118761502Y-85524998D01*
X118761502Y-85525001D01*
X100075500Y-85525001D01*
X100075500Y-83373654D01*
X101391500Y-83373654D01*
X101398011Y-83434202D01*
X101398011Y-83434204D01*
X101432324Y-83526198D01*
X101449111Y-83571204D01*
X101536739Y-83688261D01*
X101653796Y-83775889D01*
X101790799Y-83826989D01*
X101818050Y-83829918D01*
X101851345Y-83833499D01*
X101851362Y-83833500D01*
X103648638Y-83833500D01*
X103648654Y-83833499D01*
X103675692Y-83830591D01*
X103709201Y-83826989D01*
X103846204Y-83775889D01*
X103963261Y-83688261D01*
X104050889Y-83571204D01*
X104101989Y-83434201D01*
X104105591Y-83400692D01*
X104108499Y-83373654D01*
X104108500Y-83373637D01*
X104108500Y-82520001D01*
X123361502Y-82520001D01*
X123381456Y-82748081D01*
X123381457Y-82748089D01*
X123440714Y-82969238D01*
X123440718Y-82969249D01*
X123491801Y-83078796D01*
X123537477Y-83176749D01*
X123668802Y-83364300D01*
X123830700Y-83526198D01*
X124018251Y-83657523D01*
X124143091Y-83715736D01*
X124225750Y-83754281D01*
X124225752Y-83754281D01*
X124225757Y-83754284D01*
X124446913Y-83813543D01*
X124600602Y-83826989D01*
X124674998Y-83833498D01*
X124675000Y-83833498D01*
X124675002Y-83833498D01*
X124749398Y-83826989D01*
X124903087Y-83813543D01*
X125124243Y-83754284D01*
X125331749Y-83657523D01*
X125519300Y-83526198D01*
X125681198Y-83364300D01*
X125812523Y-83176749D01*
X125909284Y-82969243D01*
X125968543Y-82748087D01*
X125988498Y-82520000D01*
X125968543Y-82291913D01*
X125909284Y-82070757D01*
X125812523Y-81863251D01*
X125681198Y-81675700D01*
X125519300Y-81513802D01*
X125331749Y-81382477D01*
X125323853Y-81378795D01*
X125124249Y-81285718D01*
X125124238Y-81285714D01*
X124903089Y-81226457D01*
X124903081Y-81226456D01*
X124675002Y-81206502D01*
X124674998Y-81206502D01*
X124446918Y-81226456D01*
X124446910Y-81226457D01*
X124225761Y-81285714D01*
X124225750Y-81285718D01*
X124018254Y-81382475D01*
X124018252Y-81382476D01*
X124018251Y-81382477D01*
X123830700Y-81513802D01*
X123830698Y-81513803D01*
X123830695Y-81513806D01*
X123668806Y-81675695D01*
X123537476Y-81863252D01*
X123537475Y-81863254D01*
X123440718Y-82070750D01*
X123440714Y-82070761D01*
X123381457Y-82291910D01*
X123381456Y-82291918D01*
X123361502Y-82519998D01*
X123361502Y-82520001D01*
X104108500Y-82520001D01*
X104108500Y-81576362D01*
X104108499Y-81576345D01*
X104105157Y-81545270D01*
X104101989Y-81515799D01*
X104101244Y-81513802D01*
X104079522Y-81455564D01*
X104050889Y-81378796D01*
X103963261Y-81261739D01*
X103846204Y-81174111D01*
X103709203Y-81123011D01*
X103648654Y-81116500D01*
X103648638Y-81116500D01*
X101851362Y-81116500D01*
X101851345Y-81116500D01*
X101790797Y-81123011D01*
X101790795Y-81123011D01*
X101653795Y-81174111D01*
X101536739Y-81261739D01*
X101449111Y-81378795D01*
X101398011Y-81515795D01*
X101398011Y-81515797D01*
X101391500Y-81576345D01*
X101391500Y-83373654D01*
X100075500Y-83373654D01*
X100075500Y-80200001D01*
X155181502Y-80200001D01*
X155201456Y-80428081D01*
X155201457Y-80428089D01*
X155260714Y-80649238D01*
X155260718Y-80649249D01*
X155357475Y-80856745D01*
X155357477Y-80856749D01*
X155488802Y-81044300D01*
X155650700Y-81206198D01*
X155838251Y-81337523D01*
X155926760Y-81378795D01*
X156045750Y-81434281D01*
X156045752Y-81434281D01*
X156045757Y-81434284D01*
X156266913Y-81493543D01*
X156429832Y-81507796D01*
X156494998Y-81513498D01*
X156495000Y-81513498D01*
X156495002Y-81513498D01*
X156552021Y-81508509D01*
X156723087Y-81493543D01*
X156944243Y-81434284D01*
X157151749Y-81337523D01*
X157339300Y-81206198D01*
X157501198Y-81044300D01*
X157632523Y-80856749D01*
X157729284Y-80649243D01*
X157788543Y-80428087D01*
X157808498Y-80200001D01*
X165341502Y-80200001D01*
X165361456Y-80428081D01*
X165361457Y-80428089D01*
X165420714Y-80649238D01*
X165420718Y-80649249D01*
X165517475Y-80856745D01*
X165517477Y-80856749D01*
X165648802Y-81044300D01*
X165810700Y-81206198D01*
X165998251Y-81337523D01*
X166086760Y-81378795D01*
X166205750Y-81434281D01*
X166205752Y-81434281D01*
X166205757Y-81434284D01*
X166426913Y-81493543D01*
X166589832Y-81507796D01*
X166654998Y-81513498D01*
X166655000Y-81513498D01*
X166655002Y-81513498D01*
X166712021Y-81508509D01*
X166883087Y-81493543D01*
X167104243Y-81434284D01*
X167311749Y-81337523D01*
X167499300Y-81206198D01*
X167661198Y-81044300D01*
X167792523Y-80856749D01*
X167889284Y-80649243D01*
X167948543Y-80428087D01*
X167968498Y-80200000D01*
X167948543Y-79971913D01*
X167889284Y-79750757D01*
X167792523Y-79543251D01*
X167661198Y-79355700D01*
X167499300Y-79193802D01*
X167311749Y-79062477D01*
X167311745Y-79062475D01*
X167104249Y-78965718D01*
X167104238Y-78965714D01*
X166883089Y-78906457D01*
X166883081Y-78906456D01*
X166655002Y-78886502D01*
X166654998Y-78886502D01*
X166426918Y-78906456D01*
X166426910Y-78906457D01*
X166205761Y-78965714D01*
X166205750Y-78965718D01*
X165998254Y-79062475D01*
X165998252Y-79062476D01*
X165998251Y-79062477D01*
X165810700Y-79193802D01*
X165810698Y-79193803D01*
X165810695Y-79193806D01*
X165648806Y-79355695D01*
X165648803Y-79355698D01*
X165648802Y-79355700D01*
X165613443Y-79406198D01*
X165517476Y-79543252D01*
X165517475Y-79543254D01*
X165420718Y-79750750D01*
X165420714Y-79750761D01*
X165361457Y-79971910D01*
X165361456Y-79971918D01*
X165341502Y-80199998D01*
X165341502Y-80200001D01*
X157808498Y-80200001D01*
X157808498Y-80200000D01*
X157788543Y-79971913D01*
X157729284Y-79750757D01*
X157632523Y-79543251D01*
X157501198Y-79355700D01*
X157339300Y-79193802D01*
X157151749Y-79062477D01*
X157151745Y-79062475D01*
X156944249Y-78965718D01*
X156944238Y-78965714D01*
X156723089Y-78906457D01*
X156723081Y-78906456D01*
X156495002Y-78886502D01*
X156494998Y-78886502D01*
X156266918Y-78906456D01*
X156266910Y-78906457D01*
X156045761Y-78965714D01*
X156045750Y-78965718D01*
X155838254Y-79062475D01*
X155838252Y-79062476D01*
X155838251Y-79062477D01*
X155650700Y-79193802D01*
X155650698Y-79193803D01*
X155650695Y-79193806D01*
X155488806Y-79355695D01*
X155488803Y-79355698D01*
X155488802Y-79355700D01*
X155453443Y-79406198D01*
X155357476Y-79543252D01*
X155357475Y-79543254D01*
X155260718Y-79750750D01*
X155260714Y-79750761D01*
X155201457Y-79971910D01*
X155201456Y-79971918D01*
X155181502Y-80199998D01*
X155181502Y-80200001D01*
X100075500Y-80200001D01*
X100075500Y-78548654D01*
X114761388Y-78548654D01*
X114767899Y-78609202D01*
X114767899Y-78609204D01*
X114804077Y-78706198D01*
X114818999Y-78746204D01*
X114906627Y-78863261D01*
X115023684Y-78950889D01*
X115160687Y-79001989D01*
X115187938Y-79004918D01*
X115221233Y-79008499D01*
X115221250Y-79008500D01*
X116918526Y-79008500D01*
X116918542Y-79008499D01*
X116945580Y-79005591D01*
X116979089Y-79001989D01*
X117116092Y-78950889D01*
X117233149Y-78863261D01*
X117320777Y-78746204D01*
X117338776Y-78697946D01*
X117374188Y-78603007D01*
X117416059Y-78547073D01*
X117481524Y-78522657D01*
X117549797Y-78537509D01*
X117578050Y-78558660D01*
X117725588Y-78706198D01*
X117913139Y-78837523D01*
X118021946Y-78888260D01*
X118120638Y-78934281D01*
X118120640Y-78934281D01*
X118120645Y-78934284D01*
X118341801Y-78993543D01*
X118504720Y-79007796D01*
X118569886Y-79013498D01*
X118569888Y-79013498D01*
X118569890Y-79013498D01*
X118627027Y-79008499D01*
X118797975Y-78993543D01*
X119019131Y-78934284D01*
X119226637Y-78837523D01*
X119414188Y-78706198D01*
X119546732Y-78573654D01*
X122866500Y-78573654D01*
X122873011Y-78634202D01*
X122873011Y-78634204D01*
X122909189Y-78731198D01*
X122924111Y-78771204D01*
X123011739Y-78888261D01*
X123128796Y-78975889D01*
X123265799Y-79026989D01*
X123293050Y-79029918D01*
X123326345Y-79033499D01*
X123326362Y-79033500D01*
X125023638Y-79033500D01*
X125023654Y-79033499D01*
X125050692Y-79030591D01*
X125084201Y-79026989D01*
X125221204Y-78975889D01*
X125338261Y-78888261D01*
X125340808Y-78884858D01*
X125344212Y-78882309D01*
X125344536Y-78881986D01*
X125344582Y-78882032D01*
X125396737Y-78842984D01*
X125466428Y-78837995D01*
X125511200Y-78857586D01*
X125518249Y-78862522D01*
X125518250Y-78862522D01*
X125518251Y-78862523D01*
X125643091Y-78920736D01*
X125725750Y-78959281D01*
X125725752Y-78959281D01*
X125725757Y-78959284D01*
X125946913Y-79018543D01*
X126109832Y-79032796D01*
X126174998Y-79038498D01*
X126175000Y-79038498D01*
X126175002Y-79038498D01*
X126232139Y-79033499D01*
X126403087Y-79018543D01*
X126624243Y-78959284D01*
X126831749Y-78862523D01*
X127019300Y-78731198D01*
X127181198Y-78569300D01*
X127312523Y-78381749D01*
X127409284Y-78174243D01*
X127462671Y-77975001D01*
X129886502Y-77975001D01*
X129906456Y-78203081D01*
X129906457Y-78203089D01*
X129965714Y-78424238D01*
X129965718Y-78424249D01*
X130060769Y-78628087D01*
X130062477Y-78631749D01*
X130193802Y-78819300D01*
X130355700Y-78981198D01*
X130543251Y-79112523D01*
X130668091Y-79170736D01*
X130750750Y-79209281D01*
X130750752Y-79209281D01*
X130750757Y-79209284D01*
X130971913Y-79268543D01*
X131134832Y-79282796D01*
X131199998Y-79288498D01*
X131200000Y-79288498D01*
X131200002Y-79288498D01*
X131257021Y-79283509D01*
X131428087Y-79268543D01*
X131649243Y-79209284D01*
X131856749Y-79112523D01*
X132044300Y-78981198D01*
X132206198Y-78819300D01*
X132337523Y-78631749D01*
X132434284Y-78424243D01*
X132493543Y-78203087D01*
X132513498Y-77975001D01*
X134886502Y-77975001D01*
X134906456Y-78203081D01*
X134906457Y-78203089D01*
X134965714Y-78424238D01*
X134965718Y-78424249D01*
X135060769Y-78628087D01*
X135062477Y-78631749D01*
X135193802Y-78819300D01*
X135355700Y-78981198D01*
X135543251Y-79112523D01*
X135668091Y-79170736D01*
X135750750Y-79209281D01*
X135750752Y-79209281D01*
X135750757Y-79209284D01*
X135971913Y-79268543D01*
X136134832Y-79282796D01*
X136199998Y-79288498D01*
X136200000Y-79288498D01*
X136200002Y-79288498D01*
X136257021Y-79283509D01*
X136428087Y-79268543D01*
X136649243Y-79209284D01*
X136856749Y-79112523D01*
X137044300Y-78981198D01*
X137206198Y-78819300D01*
X137337523Y-78631749D01*
X137434284Y-78424243D01*
X137440780Y-78400001D01*
X142861502Y-78400001D01*
X142881456Y-78628081D01*
X142881457Y-78628089D01*
X142940714Y-78849238D01*
X142940718Y-78849249D01*
X143011942Y-79001989D01*
X143037477Y-79056749D01*
X143168802Y-79244300D01*
X143330700Y-79406198D01*
X143518251Y-79537523D01*
X143643091Y-79595736D01*
X143725750Y-79634281D01*
X143725752Y-79634281D01*
X143725757Y-79634284D01*
X143946913Y-79693543D01*
X144109832Y-79707796D01*
X144174998Y-79713498D01*
X144175000Y-79713498D01*
X144175002Y-79713498D01*
X144232021Y-79708509D01*
X144403087Y-79693543D01*
X144624243Y-79634284D01*
X144831749Y-79537523D01*
X145019300Y-79406198D01*
X145181198Y-79244300D01*
X145312523Y-79056749D01*
X145409284Y-78849243D01*
X145468543Y-78628087D01*
X145485647Y-78432583D01*
X145488498Y-78400001D01*
X147861502Y-78400001D01*
X147881456Y-78628081D01*
X147881457Y-78628089D01*
X147940714Y-78849238D01*
X147940718Y-78849249D01*
X148011942Y-79001989D01*
X148037477Y-79056749D01*
X148168802Y-79244300D01*
X148330700Y-79406198D01*
X148518251Y-79537523D01*
X148643091Y-79595736D01*
X148725750Y-79634281D01*
X148725752Y-79634281D01*
X148725757Y-79634284D01*
X148946913Y-79693543D01*
X149109832Y-79707796D01*
X149174998Y-79713498D01*
X149175000Y-79713498D01*
X149175002Y-79713498D01*
X149232021Y-79708509D01*
X149403087Y-79693543D01*
X149624243Y-79634284D01*
X149831749Y-79537523D01*
X150019300Y-79406198D01*
X150181198Y-79244300D01*
X150312523Y-79056749D01*
X150409284Y-78849243D01*
X150468543Y-78628087D01*
X150485647Y-78432583D01*
X150488498Y-78400001D01*
X150488498Y-78399998D01*
X150474587Y-78240994D01*
X150468543Y-78171913D01*
X150409284Y-77950757D01*
X150312523Y-77743251D01*
X150181198Y-77555700D01*
X150019300Y-77393802D01*
X149831749Y-77262477D01*
X149806624Y-77250761D01*
X149624249Y-77165718D01*
X149624238Y-77165714D01*
X149403089Y-77106457D01*
X149403081Y-77106456D01*
X149175002Y-77086502D01*
X149174998Y-77086502D01*
X148946918Y-77106456D01*
X148946910Y-77106457D01*
X148725761Y-77165714D01*
X148725750Y-77165718D01*
X148518254Y-77262475D01*
X148518252Y-77262476D01*
X148447856Y-77311767D01*
X148330700Y-77393802D01*
X148330698Y-77393803D01*
X148330695Y-77393806D01*
X148168806Y-77555695D01*
X148037476Y-77743252D01*
X148037475Y-77743254D01*
X147940718Y-77950750D01*
X147940714Y-77950761D01*
X147881457Y-78171910D01*
X147881456Y-78171918D01*
X147861502Y-78399998D01*
X147861502Y-78400001D01*
X145488498Y-78400001D01*
X145488498Y-78399998D01*
X145474587Y-78240994D01*
X145468543Y-78171913D01*
X145409284Y-77950757D01*
X145312523Y-77743251D01*
X145181198Y-77555700D01*
X145019300Y-77393802D01*
X144831749Y-77262477D01*
X144806624Y-77250761D01*
X144624249Y-77165718D01*
X144624238Y-77165714D01*
X144403089Y-77106457D01*
X144403081Y-77106456D01*
X144175002Y-77086502D01*
X144174998Y-77086502D01*
X143946918Y-77106456D01*
X143946910Y-77106457D01*
X143725761Y-77165714D01*
X143725750Y-77165718D01*
X143518254Y-77262475D01*
X143518252Y-77262476D01*
X143447856Y-77311767D01*
X143330700Y-77393802D01*
X143330698Y-77393803D01*
X143330695Y-77393806D01*
X143168806Y-77555695D01*
X143037476Y-77743252D01*
X143037475Y-77743254D01*
X142940718Y-77950750D01*
X142940714Y-77950761D01*
X142881457Y-78171910D01*
X142881456Y-78171918D01*
X142861502Y-78399998D01*
X142861502Y-78400001D01*
X137440780Y-78400001D01*
X137493543Y-78203087D01*
X137513498Y-77975000D01*
X137511376Y-77950750D01*
X137493543Y-77746918D01*
X137493543Y-77746913D01*
X137434284Y-77525757D01*
X137337523Y-77318251D01*
X137206198Y-77130700D01*
X137044300Y-76968802D01*
X136856749Y-76837477D01*
X136836357Y-76827968D01*
X136649249Y-76740718D01*
X136649238Y-76740714D01*
X136428089Y-76681457D01*
X136428081Y-76681456D01*
X136200002Y-76661502D01*
X136199998Y-76661502D01*
X135971918Y-76681456D01*
X135971910Y-76681457D01*
X135750761Y-76740714D01*
X135750750Y-76740718D01*
X135543254Y-76837475D01*
X135543252Y-76837476D01*
X135523421Y-76851362D01*
X135355700Y-76968802D01*
X135355698Y-76968803D01*
X135355695Y-76968806D01*
X135193806Y-77130695D01*
X135193803Y-77130698D01*
X135193802Y-77130700D01*
X135169282Y-77165718D01*
X135062476Y-77318252D01*
X135062475Y-77318254D01*
X134965718Y-77525750D01*
X134965714Y-77525761D01*
X134906457Y-77746910D01*
X134906456Y-77746918D01*
X134886502Y-77974998D01*
X134886502Y-77975001D01*
X132513498Y-77975001D01*
X132513498Y-77975000D01*
X132511376Y-77950750D01*
X132493543Y-77746918D01*
X132493543Y-77746913D01*
X132434284Y-77525757D01*
X132337523Y-77318251D01*
X132206198Y-77130700D01*
X132044300Y-76968802D01*
X131856749Y-76837477D01*
X131836357Y-76827968D01*
X131649249Y-76740718D01*
X131649238Y-76740714D01*
X131428089Y-76681457D01*
X131428081Y-76681456D01*
X131200002Y-76661502D01*
X131199998Y-76661502D01*
X130971918Y-76681456D01*
X130971910Y-76681457D01*
X130750761Y-76740714D01*
X130750750Y-76740718D01*
X130543254Y-76837475D01*
X130543252Y-76837476D01*
X130523421Y-76851362D01*
X130355700Y-76968802D01*
X130355698Y-76968803D01*
X130355695Y-76968806D01*
X130193806Y-77130695D01*
X130193803Y-77130698D01*
X130193802Y-77130700D01*
X130169282Y-77165718D01*
X130062476Y-77318252D01*
X130062475Y-77318254D01*
X129965718Y-77525750D01*
X129965714Y-77525761D01*
X129906457Y-77746910D01*
X129906456Y-77746918D01*
X129886502Y-77974998D01*
X129886502Y-77975001D01*
X127462671Y-77975001D01*
X127468543Y-77953087D01*
X127488498Y-77725000D01*
X127468543Y-77496913D01*
X127409284Y-77275757D01*
X127403091Y-77262477D01*
X127341641Y-77130695D01*
X127312523Y-77068251D01*
X127181198Y-76880700D01*
X127019300Y-76718802D01*
X126831749Y-76587477D01*
X126783860Y-76565146D01*
X126624249Y-76490718D01*
X126624238Y-76490714D01*
X126403089Y-76431457D01*
X126403081Y-76431456D01*
X126175002Y-76411502D01*
X126174998Y-76411502D01*
X125946918Y-76431456D01*
X125946910Y-76431457D01*
X125725761Y-76490714D01*
X125725750Y-76490718D01*
X125518256Y-76587474D01*
X125518247Y-76587479D01*
X125511195Y-76592417D01*
X125444988Y-76614740D01*
X125377222Y-76597725D01*
X125340811Y-76565146D01*
X125338261Y-76561739D01*
X125221204Y-76474111D01*
X125084203Y-76423011D01*
X125023654Y-76416500D01*
X125023638Y-76416500D01*
X123326362Y-76416500D01*
X123326345Y-76416500D01*
X123265797Y-76423011D01*
X123265795Y-76423011D01*
X123128795Y-76474111D01*
X123011739Y-76561739D01*
X122924111Y-76678795D01*
X122873011Y-76815795D01*
X122873011Y-76815797D01*
X122866500Y-76876345D01*
X122866500Y-78573654D01*
X119546732Y-78573654D01*
X119576086Y-78544300D01*
X119707411Y-78356749D01*
X119804172Y-78149243D01*
X119863431Y-77928087D01*
X119883386Y-77700000D01*
X119863431Y-77471913D01*
X119804172Y-77250757D01*
X119707411Y-77043251D01*
X119576086Y-76855700D01*
X119414188Y-76693802D01*
X119226637Y-76562477D01*
X119226633Y-76562475D01*
X119019137Y-76465718D01*
X119019126Y-76465714D01*
X118797977Y-76406457D01*
X118797969Y-76406456D01*
X118569890Y-76386502D01*
X118569886Y-76386502D01*
X118341806Y-76406456D01*
X118341798Y-76406457D01*
X118120649Y-76465714D01*
X118120638Y-76465718D01*
X117913142Y-76562475D01*
X117913140Y-76562476D01*
X117870380Y-76592417D01*
X117743219Y-76681457D01*
X117725587Y-76693803D01*
X117578050Y-76841340D01*
X117516727Y-76874824D01*
X117447035Y-76869840D01*
X117391102Y-76827968D01*
X117374188Y-76796993D01*
X117335699Y-76693803D01*
X117320777Y-76653796D01*
X117233149Y-76536739D01*
X117116092Y-76449111D01*
X116979091Y-76398011D01*
X116918542Y-76391500D01*
X116918526Y-76391500D01*
X115221250Y-76391500D01*
X115221233Y-76391500D01*
X115160685Y-76398011D01*
X115160683Y-76398011D01*
X115023683Y-76449111D01*
X114906627Y-76536739D01*
X114818999Y-76653795D01*
X114767899Y-76790795D01*
X114767899Y-76790797D01*
X114761388Y-76851345D01*
X114761388Y-78548654D01*
X100075500Y-78548654D01*
X100075500Y-75798654D01*
X101241500Y-75798654D01*
X101248011Y-75859202D01*
X101248011Y-75859204D01*
X101299111Y-75996204D01*
X101386739Y-76113261D01*
X101503796Y-76200889D01*
X101640799Y-76251989D01*
X101668050Y-76254918D01*
X101701345Y-76258499D01*
X101701362Y-76258500D01*
X103498638Y-76258500D01*
X103498654Y-76258499D01*
X103525692Y-76255591D01*
X103559201Y-76251989D01*
X103696204Y-76200889D01*
X103813261Y-76113261D01*
X103900889Y-75996204D01*
X103951989Y-75859201D01*
X103955591Y-75825692D01*
X103958499Y-75798654D01*
X103958500Y-75798637D01*
X103958500Y-74001362D01*
X103958499Y-74001345D01*
X103955157Y-73970270D01*
X103951989Y-73940799D01*
X103900889Y-73803796D01*
X103813261Y-73686739D01*
X103696204Y-73599111D01*
X103559203Y-73548011D01*
X103498654Y-73541500D01*
X103498638Y-73541500D01*
X101701362Y-73541500D01*
X101701345Y-73541500D01*
X101640797Y-73548011D01*
X101640795Y-73548011D01*
X101503795Y-73599111D01*
X101386739Y-73686739D01*
X101299111Y-73803795D01*
X101248011Y-73940795D01*
X101248011Y-73940797D01*
X101241500Y-74001345D01*
X101241500Y-75798654D01*
X100075500Y-75798654D01*
X100075500Y-71575002D01*
X108490034Y-71575002D01*
X108509858Y-71801599D01*
X108509860Y-71801610D01*
X108568730Y-72021317D01*
X108568735Y-72021331D01*
X108664863Y-72227478D01*
X108715974Y-72300472D01*
X109395000Y-71621446D01*
X109395000Y-71627661D01*
X109422259Y-71729394D01*
X109474920Y-71820606D01*
X109549394Y-71895080D01*
X109640606Y-71947741D01*
X109742339Y-71975000D01*
X109748553Y-71975000D01*
X109069526Y-72654025D01*
X109142513Y-72705132D01*
X109142521Y-72705136D01*
X109348668Y-72801264D01*
X109348682Y-72801269D01*
X109568389Y-72860139D01*
X109568400Y-72860141D01*
X109794998Y-72879966D01*
X109795002Y-72879966D01*
X110021599Y-72860141D01*
X110021610Y-72860139D01*
X110241317Y-72801269D01*
X110241331Y-72801264D01*
X110447478Y-72705136D01*
X110520471Y-72654024D01*
X109841447Y-71975000D01*
X109847661Y-71975000D01*
X109949394Y-71947741D01*
X110040606Y-71895080D01*
X110115080Y-71820606D01*
X110167741Y-71729394D01*
X110195000Y-71627661D01*
X110195000Y-71621447D01*
X110874024Y-72300471D01*
X110925136Y-72227478D01*
X111021264Y-72021331D01*
X111021269Y-72021317D01*
X111080139Y-71801610D01*
X111080141Y-71801599D01*
X111099966Y-71575002D01*
X111099966Y-71575001D01*
X118641502Y-71575001D01*
X118661456Y-71803081D01*
X118661457Y-71803089D01*
X118720714Y-72024238D01*
X118720718Y-72024249D01*
X118809333Y-72214284D01*
X118817477Y-72231749D01*
X118948802Y-72419300D01*
X119110700Y-72581198D01*
X119298251Y-72712523D01*
X119423091Y-72770736D01*
X119505750Y-72809281D01*
X119505752Y-72809281D01*
X119505757Y-72809284D01*
X119726913Y-72868543D01*
X119889832Y-72882796D01*
X119954998Y-72888498D01*
X119955000Y-72888498D01*
X119955002Y-72888498D01*
X120012021Y-72883509D01*
X120183087Y-72868543D01*
X120404243Y-72809284D01*
X120611749Y-72712523D01*
X120799300Y-72581198D01*
X120875497Y-72505001D01*
X142086502Y-72505001D01*
X142106456Y-72733081D01*
X142106457Y-72733089D01*
X142165714Y-72954238D01*
X142165718Y-72954249D01*
X142262475Y-73161745D01*
X142262477Y-73161749D01*
X142393802Y-73349300D01*
X142555700Y-73511198D01*
X142743251Y-73642523D01*
X142838073Y-73686739D01*
X142950750Y-73739281D01*
X142950752Y-73739281D01*
X142950757Y-73739284D01*
X143171913Y-73798543D01*
X143334832Y-73812796D01*
X143399998Y-73818498D01*
X143400000Y-73818498D01*
X143400002Y-73818498D01*
X143457021Y-73813509D01*
X143628087Y-73798543D01*
X143849243Y-73739284D01*
X144056749Y-73642523D01*
X144244300Y-73511198D01*
X144406198Y-73349300D01*
X144537523Y-73161749D01*
X144634284Y-72954243D01*
X144693543Y-72733087D01*
X144709123Y-72555001D01*
X145861502Y-72555001D01*
X145881456Y-72783081D01*
X145881457Y-72783089D01*
X145940714Y-73004238D01*
X145940718Y-73004249D01*
X146037475Y-73211745D01*
X146037477Y-73211749D01*
X146168802Y-73399300D01*
X146330700Y-73561198D01*
X146518251Y-73692523D01*
X146618525Y-73739281D01*
X146725750Y-73789281D01*
X146725752Y-73789281D01*
X146725757Y-73789284D01*
X146946913Y-73848543D01*
X147109832Y-73862796D01*
X147174998Y-73868498D01*
X147175000Y-73868498D01*
X147175002Y-73868498D01*
X147232021Y-73863509D01*
X147403087Y-73848543D01*
X147624243Y-73789284D01*
X147831749Y-73692523D01*
X148019300Y-73561198D01*
X148181198Y-73399300D01*
X148312523Y-73211749D01*
X148409284Y-73004243D01*
X148468543Y-72783087D01*
X148488498Y-72555000D01*
X148468543Y-72326913D01*
X148409284Y-72105757D01*
X148312523Y-71898251D01*
X148181198Y-71710700D01*
X148019300Y-71548802D01*
X147947681Y-71498654D01*
X150061388Y-71498654D01*
X150067899Y-71559202D01*
X150067899Y-71559204D01*
X150118999Y-71696203D01*
X150118999Y-71696204D01*
X150206627Y-71813261D01*
X150323684Y-71900889D01*
X150460687Y-71951989D01*
X150487938Y-71954918D01*
X150521233Y-71958499D01*
X150521250Y-71958500D01*
X152218526Y-71958500D01*
X152218542Y-71958499D01*
X152245580Y-71955591D01*
X152279089Y-71951989D01*
X152416092Y-71900889D01*
X152533149Y-71813261D01*
X152620777Y-71696204D01*
X152642954Y-71636745D01*
X152674188Y-71553007D01*
X152716059Y-71497073D01*
X152781524Y-71472657D01*
X152849797Y-71487509D01*
X152878050Y-71508660D01*
X153025588Y-71656198D01*
X153213139Y-71787523D01*
X153292008Y-71824300D01*
X153420638Y-71884281D01*
X153420640Y-71884281D01*
X153420645Y-71884284D01*
X153641801Y-71943543D01*
X153804720Y-71957796D01*
X153869886Y-71963498D01*
X153869888Y-71963498D01*
X153869890Y-71963498D01*
X153927027Y-71958499D01*
X154097975Y-71943543D01*
X154319131Y-71884284D01*
X154526637Y-71787523D01*
X154714188Y-71656198D01*
X154876086Y-71494300D01*
X154987626Y-71335005D01*
X156661844Y-71335005D01*
X156680434Y-71559359D01*
X156680436Y-71559371D01*
X156735703Y-71777614D01*
X156826140Y-71983792D01*
X156949276Y-72172265D01*
X156949284Y-72172276D01*
X157094489Y-72330008D01*
X157125412Y-72392662D01*
X157117552Y-72462088D01*
X157073405Y-72516244D01*
X157046596Y-72530172D01*
X156928794Y-72574111D01*
X156811739Y-72661739D01*
X156724111Y-72778795D01*
X156673011Y-72915795D01*
X156673011Y-72915797D01*
X156666500Y-72976345D01*
X156666500Y-74773654D01*
X156673011Y-74834202D01*
X156673011Y-74834204D01*
X156724111Y-74971204D01*
X156811739Y-75088261D01*
X156928796Y-75175889D01*
X157065799Y-75226989D01*
X157093050Y-75229918D01*
X157126345Y-75233499D01*
X157126362Y-75233500D01*
X158923638Y-75233500D01*
X158923654Y-75233499D01*
X158950692Y-75230591D01*
X158984201Y-75226989D01*
X159121204Y-75175889D01*
X159238261Y-75088261D01*
X159325889Y-74971204D01*
X159376989Y-74834201D01*
X159380591Y-74800692D01*
X159383499Y-74773654D01*
X159383500Y-74773637D01*
X159383500Y-72976362D01*
X159383499Y-72976345D01*
X159380157Y-72945270D01*
X159376989Y-72915799D01*
X159325889Y-72778796D01*
X159238261Y-72661739D01*
X159121204Y-72574111D01*
X159003404Y-72530172D01*
X158947471Y-72488300D01*
X158923055Y-72422835D01*
X158937908Y-72354562D01*
X158955504Y-72330014D01*
X159100722Y-72172268D01*
X159223860Y-71983791D01*
X159314296Y-71777616D01*
X159369564Y-71559368D01*
X159370440Y-71548802D01*
X159388156Y-71335005D01*
X159388156Y-71334994D01*
X159369565Y-71110640D01*
X159369563Y-71110628D01*
X159321926Y-70922516D01*
X159314296Y-70892384D01*
X159223860Y-70686209D01*
X159100722Y-70497732D01*
X159100719Y-70497729D01*
X159100715Y-70497723D01*
X158948243Y-70332097D01*
X158948238Y-70332092D01*
X158770577Y-70193812D01*
X158770577Y-70193811D01*
X158727303Y-70170393D01*
X158677713Y-70121173D01*
X158662605Y-70052957D01*
X158686775Y-69987401D01*
X158715198Y-69959763D01*
X158896079Y-69833108D01*
X159063105Y-69666082D01*
X159198600Y-69472578D01*
X159298429Y-69258492D01*
X159298432Y-69258486D01*
X159355636Y-69045000D01*
X158458012Y-69045000D01*
X158490925Y-68987993D01*
X158525000Y-68860826D01*
X158525000Y-68729174D01*
X158490925Y-68602007D01*
X158458012Y-68545000D01*
X159355636Y-68545000D01*
X159355635Y-68544999D01*
X159298432Y-68331513D01*
X159298429Y-68331507D01*
X159198600Y-68117422D01*
X159198599Y-68117420D01*
X159063113Y-67923926D01*
X159063108Y-67923920D01*
X158896082Y-67756894D01*
X158702578Y-67621399D01*
X158488492Y-67521570D01*
X158488486Y-67521567D01*
X158275000Y-67464364D01*
X158275000Y-68361988D01*
X158217993Y-68329075D01*
X158090826Y-68295000D01*
X157959174Y-68295000D01*
X157832007Y-68329075D01*
X157775000Y-68361988D01*
X157775000Y-67464364D01*
X157774999Y-67464364D01*
X157561513Y-67521567D01*
X157561507Y-67521570D01*
X157347422Y-67621399D01*
X157347420Y-67621400D01*
X157153926Y-67756886D01*
X157153920Y-67756891D01*
X156986891Y-67923920D01*
X156986886Y-67923926D01*
X156851400Y-68117420D01*
X156851399Y-68117422D01*
X156751570Y-68331507D01*
X156751567Y-68331513D01*
X156694364Y-68544999D01*
X156694364Y-68545000D01*
X157591988Y-68545000D01*
X157559075Y-68602007D01*
X157525000Y-68729174D01*
X157525000Y-68860826D01*
X157559075Y-68987993D01*
X157591988Y-69045000D01*
X156694364Y-69045000D01*
X156751567Y-69258486D01*
X156751570Y-69258492D01*
X156851399Y-69472578D01*
X156986894Y-69666082D01*
X157153917Y-69833105D01*
X157334802Y-69959763D01*
X157378427Y-70014340D01*
X157385619Y-70083839D01*
X157354097Y-70146193D01*
X157322697Y-70170392D01*
X157279427Y-70193809D01*
X157279422Y-70193812D01*
X157101761Y-70332092D01*
X157101756Y-70332097D01*
X156949284Y-70497723D01*
X156949276Y-70497734D01*
X156826140Y-70686207D01*
X156735703Y-70892385D01*
X156680436Y-71110628D01*
X156680434Y-71110640D01*
X156661844Y-71334994D01*
X156661844Y-71335005D01*
X154987626Y-71335005D01*
X155007411Y-71306749D01*
X155104172Y-71099243D01*
X155163431Y-70878087D01*
X155183386Y-70650000D01*
X155163431Y-70421913D01*
X155104172Y-70200757D01*
X155092485Y-70175695D01*
X155050967Y-70086658D01*
X155007411Y-69993251D01*
X154876086Y-69805700D01*
X154714188Y-69643802D01*
X154526637Y-69512477D01*
X154526633Y-69512475D01*
X154319137Y-69415718D01*
X154319126Y-69415714D01*
X154097977Y-69356457D01*
X154097969Y-69356456D01*
X153869890Y-69336502D01*
X153869886Y-69336502D01*
X153641806Y-69356456D01*
X153641798Y-69356457D01*
X153420649Y-69415714D01*
X153420638Y-69415718D01*
X153213142Y-69512475D01*
X153213140Y-69512476D01*
X153025587Y-69643803D01*
X152878050Y-69791340D01*
X152816727Y-69824824D01*
X152747035Y-69819840D01*
X152691102Y-69777968D01*
X152674188Y-69746993D01*
X152635699Y-69643803D01*
X152620777Y-69603796D01*
X152533149Y-69486739D01*
X152416092Y-69399111D01*
X152279091Y-69348011D01*
X152218542Y-69341500D01*
X152218526Y-69341500D01*
X150521250Y-69341500D01*
X150521233Y-69341500D01*
X150460685Y-69348011D01*
X150460683Y-69348011D01*
X150323683Y-69399111D01*
X150206627Y-69486739D01*
X150118999Y-69603795D01*
X150067899Y-69740795D01*
X150067899Y-69740797D01*
X150061388Y-69801345D01*
X150061388Y-71498654D01*
X147947681Y-71498654D01*
X147831749Y-71417477D01*
X147831745Y-71417475D01*
X147624249Y-71320718D01*
X147624238Y-71320714D01*
X147403089Y-71261457D01*
X147403081Y-71261456D01*
X147175002Y-71241502D01*
X147174998Y-71241502D01*
X146946918Y-71261456D01*
X146946910Y-71261457D01*
X146725761Y-71320714D01*
X146725750Y-71320718D01*
X146518254Y-71417475D01*
X146518252Y-71417476D01*
X146501447Y-71429243D01*
X146330700Y-71548802D01*
X146330698Y-71548803D01*
X146330695Y-71548806D01*
X146168806Y-71710695D01*
X146168803Y-71710698D01*
X146168802Y-71710700D01*
X146121948Y-71777614D01*
X146037476Y-71898252D01*
X146037475Y-71898254D01*
X145940718Y-72105750D01*
X145940714Y-72105761D01*
X145881457Y-72326910D01*
X145881456Y-72326918D01*
X145861502Y-72554998D01*
X145861502Y-72555001D01*
X144709123Y-72555001D01*
X144713498Y-72505000D01*
X144693543Y-72276913D01*
X144634284Y-72055757D01*
X144618224Y-72021317D01*
X144588932Y-71958499D01*
X144537523Y-71848251D01*
X144406198Y-71660700D01*
X144244300Y-71498802D01*
X144056749Y-71367477D01*
X144056745Y-71367475D01*
X143849249Y-71270718D01*
X143849238Y-71270714D01*
X143628089Y-71211457D01*
X143628081Y-71211456D01*
X143400002Y-71191502D01*
X143399998Y-71191502D01*
X143171918Y-71211456D01*
X143171910Y-71211457D01*
X142950761Y-71270714D01*
X142950750Y-71270718D01*
X142743254Y-71367475D01*
X142743252Y-71367476D01*
X142743251Y-71367477D01*
X142555700Y-71498802D01*
X142555698Y-71498803D01*
X142555695Y-71498806D01*
X142393806Y-71660695D01*
X142393803Y-71660698D01*
X142393802Y-71660700D01*
X142368942Y-71696204D01*
X142262476Y-71848252D01*
X142262475Y-71848254D01*
X142165718Y-72055750D01*
X142165714Y-72055761D01*
X142106457Y-72276910D01*
X142106456Y-72276918D01*
X142086502Y-72504998D01*
X142086502Y-72505001D01*
X120875497Y-72505001D01*
X120961198Y-72419300D01*
X121092523Y-72231749D01*
X121189284Y-72024243D01*
X121248543Y-71803087D01*
X121268498Y-71575000D01*
X121267130Y-71559368D01*
X121261438Y-71494300D01*
X121248543Y-71346913D01*
X121189284Y-71125757D01*
X121176920Y-71099243D01*
X121121317Y-70980001D01*
X124886502Y-70980001D01*
X124906456Y-71208081D01*
X124906457Y-71208089D01*
X124965714Y-71429238D01*
X124965718Y-71429249D01*
X125033684Y-71575002D01*
X125062477Y-71636749D01*
X125193802Y-71824300D01*
X125355700Y-71986198D01*
X125543251Y-72117523D01*
X125629032Y-72157523D01*
X125750750Y-72214281D01*
X125750752Y-72214281D01*
X125750757Y-72214284D01*
X125971913Y-72273543D01*
X126134832Y-72287796D01*
X126199998Y-72293498D01*
X126200000Y-72293498D01*
X126200002Y-72293498D01*
X126257021Y-72288509D01*
X126428087Y-72273543D01*
X126649243Y-72214284D01*
X126856749Y-72117523D01*
X127044300Y-71986198D01*
X127206198Y-71824300D01*
X127337523Y-71636749D01*
X127434284Y-71429243D01*
X127493543Y-71208087D01*
X127509998Y-71020001D01*
X128911502Y-71020001D01*
X128931456Y-71248081D01*
X128931457Y-71248089D01*
X128990714Y-71469238D01*
X128990718Y-71469249D01*
X129077894Y-71656198D01*
X129087477Y-71676749D01*
X129218802Y-71864300D01*
X129380700Y-72026198D01*
X129568251Y-72157523D01*
X129689970Y-72214281D01*
X129775750Y-72254281D01*
X129775752Y-72254281D01*
X129775757Y-72254284D01*
X129996913Y-72313543D01*
X130149699Y-72326910D01*
X130224998Y-72333498D01*
X130225000Y-72333498D01*
X130225002Y-72333498D01*
X130282021Y-72328509D01*
X130453087Y-72313543D01*
X130674243Y-72254284D01*
X130881749Y-72157523D01*
X131069300Y-72026198D01*
X131231198Y-71864300D01*
X131362523Y-71676749D01*
X131459284Y-71469243D01*
X131518543Y-71248087D01*
X131538498Y-71020001D01*
X136531502Y-71020001D01*
X136551456Y-71248081D01*
X136551457Y-71248089D01*
X136610714Y-71469238D01*
X136610718Y-71469249D01*
X136697894Y-71656198D01*
X136707477Y-71676749D01*
X136838802Y-71864300D01*
X137000700Y-72026198D01*
X137188251Y-72157523D01*
X137309970Y-72214281D01*
X137395750Y-72254281D01*
X137395752Y-72254281D01*
X137395757Y-72254284D01*
X137616913Y-72313543D01*
X137769699Y-72326910D01*
X137844998Y-72333498D01*
X137845000Y-72333498D01*
X137845002Y-72333498D01*
X137902021Y-72328509D01*
X138073087Y-72313543D01*
X138294243Y-72254284D01*
X138501749Y-72157523D01*
X138689300Y-72026198D01*
X138851198Y-71864300D01*
X138982523Y-71676749D01*
X139079284Y-71469243D01*
X139138543Y-71248087D01*
X139158498Y-71020000D01*
X139154998Y-70980000D01*
X139138543Y-70791918D01*
X139138543Y-70791913D01*
X139079284Y-70570757D01*
X139078372Y-70568802D01*
X139017134Y-70437475D01*
X138982523Y-70363251D01*
X138851198Y-70175700D01*
X138689300Y-70013802D01*
X138501749Y-69882477D01*
X138458655Y-69862382D01*
X138406215Y-69816210D01*
X138387063Y-69749017D01*
X138407278Y-69682136D01*
X138458655Y-69637618D01*
X138461882Y-69636112D01*
X138501749Y-69617523D01*
X138689300Y-69486198D01*
X138851198Y-69324300D01*
X138982523Y-69136749D01*
X139079284Y-68929243D01*
X139138543Y-68708087D01*
X139158498Y-68480000D01*
X139138543Y-68251913D01*
X139079284Y-68030757D01*
X138982523Y-67823251D01*
X138851198Y-67635700D01*
X138689300Y-67473802D01*
X138501749Y-67342477D01*
X138448596Y-67317691D01*
X138396158Y-67271519D01*
X138377007Y-67204325D01*
X138397223Y-67137444D01*
X138448600Y-67092927D01*
X138497483Y-67070133D01*
X138683820Y-66939657D01*
X138844657Y-66778820D01*
X138975134Y-66592482D01*
X139071265Y-66386326D01*
X139071269Y-66386317D01*
X139123872Y-66190000D01*
X138160686Y-66190000D01*
X138165080Y-66185606D01*
X138217741Y-66094394D01*
X138245000Y-65992661D01*
X138245000Y-65887339D01*
X138217741Y-65785606D01*
X138165080Y-65694394D01*
X138160686Y-65690000D01*
X139123872Y-65690000D01*
X139123872Y-65689999D01*
X139071269Y-65493682D01*
X139071265Y-65493673D01*
X138975134Y-65287517D01*
X138844657Y-65101179D01*
X138683820Y-64940342D01*
X138497481Y-64809865D01*
X138497479Y-64809864D01*
X138448599Y-64787071D01*
X138396159Y-64740899D01*
X138377007Y-64673706D01*
X138397223Y-64606824D01*
X138448599Y-64562307D01*
X138501749Y-64537523D01*
X138689300Y-64406198D01*
X138851198Y-64244300D01*
X138982523Y-64056749D01*
X139067273Y-63875001D01*
X153231502Y-63875001D01*
X153251456Y-64103081D01*
X153251457Y-64103089D01*
X153310714Y-64324238D01*
X153310718Y-64324249D01*
X153367587Y-64446204D01*
X153407477Y-64531749D01*
X153538802Y-64719300D01*
X153700700Y-64881198D01*
X153888251Y-65012523D01*
X154013091Y-65070736D01*
X154095750Y-65109281D01*
X154095752Y-65109281D01*
X154095757Y-65109284D01*
X154316913Y-65168543D01*
X154479832Y-65182796D01*
X154544998Y-65188498D01*
X154545000Y-65188498D01*
X154545002Y-65188498D01*
X154602021Y-65183509D01*
X154773087Y-65168543D01*
X154994243Y-65109284D01*
X155201749Y-65012523D01*
X155389300Y-64881198D01*
X155551198Y-64719300D01*
X155682523Y-64531749D01*
X155779284Y-64324243D01*
X155838543Y-64103087D01*
X155858498Y-63875000D01*
X155838543Y-63646913D01*
X155832671Y-63624999D01*
X163426127Y-63624999D01*
X163426128Y-63625000D01*
X164389314Y-63625000D01*
X164384920Y-63629394D01*
X164332259Y-63720606D01*
X164305000Y-63822339D01*
X164305000Y-63927661D01*
X164332259Y-64029394D01*
X164384920Y-64120606D01*
X164389314Y-64125000D01*
X163426128Y-64125000D01*
X163478730Y-64321317D01*
X163478734Y-64321326D01*
X163574865Y-64527482D01*
X163705342Y-64713820D01*
X163866179Y-64874657D01*
X164052517Y-65005134D01*
X164258673Y-65101265D01*
X164258682Y-65101269D01*
X164454999Y-65153872D01*
X164455000Y-65153871D01*
X164455000Y-64190686D01*
X164459394Y-64195080D01*
X164550606Y-64247741D01*
X164652339Y-64275000D01*
X164757661Y-64275000D01*
X164859394Y-64247741D01*
X164950606Y-64195080D01*
X164955000Y-64190686D01*
X164955000Y-65153872D01*
X165151317Y-65101269D01*
X165151326Y-65101265D01*
X165357482Y-65005134D01*
X165543820Y-64874657D01*
X165704657Y-64713820D01*
X165835134Y-64527482D01*
X165931265Y-64321326D01*
X165931269Y-64321317D01*
X165983872Y-64125000D01*
X165020686Y-64125000D01*
X165025080Y-64120606D01*
X165077741Y-64029394D01*
X165105000Y-63927661D01*
X165105000Y-63822339D01*
X165077741Y-63720606D01*
X165025080Y-63629394D01*
X165020686Y-63625000D01*
X165983872Y-63625000D01*
X165983872Y-63624999D01*
X165931269Y-63428682D01*
X165931265Y-63428673D01*
X165835134Y-63222517D01*
X165704657Y-63036179D01*
X165543820Y-62875342D01*
X165357482Y-62744865D01*
X165151328Y-62648734D01*
X164955000Y-62596127D01*
X164955000Y-63559314D01*
X164950606Y-63554920D01*
X164859394Y-63502259D01*
X164757661Y-63475000D01*
X164652339Y-63475000D01*
X164550606Y-63502259D01*
X164459394Y-63554920D01*
X164455000Y-63559314D01*
X164455000Y-62596127D01*
X164258671Y-62648734D01*
X164052517Y-62744865D01*
X163866179Y-62875342D01*
X163705342Y-63036179D01*
X163574865Y-63222517D01*
X163478734Y-63428673D01*
X163478730Y-63428682D01*
X163426127Y-63624999D01*
X155832671Y-63624999D01*
X155779284Y-63425757D01*
X155767273Y-63400000D01*
X155682524Y-63218254D01*
X155682523Y-63218252D01*
X155682523Y-63218251D01*
X155551198Y-63030700D01*
X155389300Y-62868802D01*
X155201749Y-62737477D01*
X155201745Y-62737475D01*
X154994249Y-62640718D01*
X154994238Y-62640714D01*
X154773089Y-62581457D01*
X154773081Y-62581456D01*
X154545002Y-62561502D01*
X154544998Y-62561502D01*
X154316918Y-62581456D01*
X154316910Y-62581457D01*
X154095761Y-62640714D01*
X154095750Y-62640718D01*
X153888254Y-62737475D01*
X153888252Y-62737476D01*
X153877700Y-62744865D01*
X153700700Y-62868802D01*
X153700698Y-62868803D01*
X153700695Y-62868806D01*
X153538806Y-63030695D01*
X153538803Y-63030698D01*
X153538802Y-63030700D01*
X153456767Y-63147856D01*
X153407476Y-63218252D01*
X153407475Y-63218254D01*
X153310718Y-63425750D01*
X153310714Y-63425761D01*
X153251457Y-63646910D01*
X153251456Y-63646918D01*
X153231502Y-63874998D01*
X153231502Y-63875001D01*
X139067273Y-63875001D01*
X139079284Y-63849243D01*
X139138543Y-63628087D01*
X139158498Y-63400000D01*
X139138543Y-63171913D01*
X139079284Y-62950757D01*
X138982523Y-62743251D01*
X138851198Y-62555700D01*
X138689300Y-62393802D01*
X138619605Y-62345001D01*
X142086502Y-62345001D01*
X142106456Y-62573081D01*
X142106457Y-62573089D01*
X142165714Y-62794238D01*
X142165718Y-62794249D01*
X142238696Y-62950750D01*
X142262477Y-63001749D01*
X142393802Y-63189300D01*
X142555700Y-63351198D01*
X142743251Y-63482523D01*
X142850477Y-63532523D01*
X142950750Y-63579281D01*
X142950752Y-63579281D01*
X142950757Y-63579284D01*
X143171913Y-63638543D01*
X143334832Y-63652796D01*
X143399998Y-63658498D01*
X143400000Y-63658498D01*
X143400002Y-63658498D01*
X143457021Y-63653509D01*
X143628087Y-63638543D01*
X143849243Y-63579284D01*
X144056749Y-63482523D01*
X144244300Y-63351198D01*
X144406198Y-63189300D01*
X144537523Y-63001749D01*
X144634284Y-62794243D01*
X144693543Y-62573087D01*
X144709123Y-62395001D01*
X145861502Y-62395001D01*
X145881456Y-62623081D01*
X145881457Y-62623089D01*
X145940714Y-62844238D01*
X145940718Y-62844249D01*
X146037475Y-63051745D01*
X146037477Y-63051749D01*
X146168802Y-63239300D01*
X146330700Y-63401198D01*
X146518251Y-63532523D01*
X146566282Y-63554920D01*
X146725750Y-63629281D01*
X146725752Y-63629281D01*
X146725757Y-63629284D01*
X146946913Y-63688543D01*
X147109832Y-63702796D01*
X147174998Y-63708498D01*
X147175000Y-63708498D01*
X147175002Y-63708498D01*
X147232021Y-63703509D01*
X147403087Y-63688543D01*
X147624243Y-63629284D01*
X147831749Y-63532523D01*
X148019300Y-63401198D01*
X148181198Y-63239300D01*
X148312523Y-63051749D01*
X148409284Y-62844243D01*
X148468543Y-62623087D01*
X148488498Y-62395000D01*
X148468543Y-62166913D01*
X148409284Y-61945757D01*
X148312523Y-61738251D01*
X148181198Y-61550700D01*
X148019300Y-61388802D01*
X147831749Y-61257477D01*
X147831745Y-61257475D01*
X147624249Y-61160718D01*
X147624238Y-61160714D01*
X147403089Y-61101457D01*
X147403081Y-61101456D01*
X147175002Y-61081502D01*
X147174998Y-61081502D01*
X146946918Y-61101456D01*
X146946910Y-61101457D01*
X146725761Y-61160714D01*
X146725750Y-61160718D01*
X146518254Y-61257475D01*
X146518252Y-61257476D01*
X146501447Y-61269243D01*
X146330700Y-61388802D01*
X146330698Y-61388803D01*
X146330695Y-61388806D01*
X146168806Y-61550695D01*
X146037476Y-61738252D01*
X146037475Y-61738254D01*
X145940718Y-61945750D01*
X145940714Y-61945761D01*
X145881457Y-62166910D01*
X145881456Y-62166918D01*
X145861502Y-62394998D01*
X145861502Y-62395001D01*
X144709123Y-62395001D01*
X144710647Y-62377583D01*
X144713498Y-62345001D01*
X144713498Y-62344998D01*
X144697813Y-62165718D01*
X144693543Y-62116913D01*
X144634284Y-61895757D01*
X144537523Y-61688251D01*
X144406198Y-61500700D01*
X144244300Y-61338802D01*
X144056749Y-61207477D01*
X144056745Y-61207475D01*
X143849249Y-61110718D01*
X143849238Y-61110714D01*
X143628089Y-61051457D01*
X143628081Y-61051456D01*
X143400002Y-61031502D01*
X143399998Y-61031502D01*
X143171918Y-61051456D01*
X143171910Y-61051457D01*
X142950761Y-61110714D01*
X142950750Y-61110718D01*
X142743254Y-61207475D01*
X142743252Y-61207476D01*
X142743251Y-61207477D01*
X142555700Y-61338802D01*
X142555698Y-61338803D01*
X142555695Y-61338806D01*
X142393806Y-61500695D01*
X142393803Y-61500698D01*
X142393802Y-61500700D01*
X142374624Y-61528089D01*
X142262476Y-61688252D01*
X142262475Y-61688254D01*
X142165718Y-61895750D01*
X142165714Y-61895761D01*
X142106457Y-62116910D01*
X142106456Y-62116918D01*
X142086502Y-62344998D01*
X142086502Y-62345001D01*
X138619605Y-62345001D01*
X138501749Y-62262477D01*
X138501745Y-62262475D01*
X138294249Y-62165718D01*
X138294238Y-62165714D01*
X138073089Y-62106457D01*
X138073081Y-62106456D01*
X137845002Y-62086502D01*
X137844998Y-62086502D01*
X137616918Y-62106456D01*
X137616910Y-62106457D01*
X137395761Y-62165714D01*
X137395750Y-62165718D01*
X137188254Y-62262475D01*
X137188252Y-62262476D01*
X137188251Y-62262477D01*
X137000700Y-62393802D01*
X137000698Y-62393803D01*
X137000695Y-62393806D01*
X136838806Y-62555695D01*
X136838803Y-62555698D01*
X136838802Y-62555700D01*
X136779273Y-62640716D01*
X136707476Y-62743252D01*
X136707475Y-62743254D01*
X136610718Y-62950750D01*
X136610714Y-62950761D01*
X136551457Y-63171910D01*
X136551456Y-63171918D01*
X136531502Y-63399998D01*
X136531502Y-63400001D01*
X136551456Y-63628081D01*
X136551457Y-63628089D01*
X136610714Y-63849238D01*
X136610718Y-63849249D01*
X136694721Y-64029394D01*
X136707477Y-64056749D01*
X136838802Y-64244300D01*
X137000700Y-64406198D01*
X137173911Y-64527482D01*
X137188251Y-64537523D01*
X137241401Y-64562307D01*
X137293840Y-64608479D01*
X137312992Y-64675673D01*
X137292776Y-64742554D01*
X137241401Y-64787071D01*
X137192517Y-64809865D01*
X137006179Y-64940342D01*
X136845342Y-65101179D01*
X136714865Y-65287517D01*
X136618734Y-65493673D01*
X136618730Y-65493682D01*
X136566127Y-65689999D01*
X136566128Y-65690000D01*
X137529314Y-65690000D01*
X137524920Y-65694394D01*
X137472259Y-65785606D01*
X137445000Y-65887339D01*
X137445000Y-65992661D01*
X137472259Y-66094394D01*
X137524920Y-66185606D01*
X137529314Y-66190000D01*
X136566128Y-66190000D01*
X136618730Y-66386317D01*
X136618734Y-66386326D01*
X136714865Y-66592482D01*
X136845342Y-66778820D01*
X137006179Y-66939657D01*
X137192517Y-67070133D01*
X137241399Y-67092927D01*
X137293839Y-67139099D01*
X137312992Y-67206292D01*
X137292777Y-67273174D01*
X137241402Y-67317691D01*
X137188256Y-67342474D01*
X137188252Y-67342476D01*
X137117856Y-67391767D01*
X137000700Y-67473802D01*
X137000698Y-67473803D01*
X137000695Y-67473806D01*
X136838806Y-67635695D01*
X136707476Y-67823252D01*
X136707475Y-67823254D01*
X136610718Y-68030750D01*
X136610714Y-68030761D01*
X136551457Y-68251910D01*
X136551456Y-68251918D01*
X136531502Y-68479998D01*
X136531502Y-68480001D01*
X136551456Y-68708081D01*
X136551457Y-68708089D01*
X136610714Y-68929238D01*
X136610718Y-68929249D01*
X136707475Y-69136745D01*
X136707477Y-69136749D01*
X136838802Y-69324300D01*
X137000700Y-69486198D01*
X137168647Y-69603796D01*
X137188251Y-69617523D01*
X137231345Y-69637618D01*
X137283784Y-69683791D01*
X137302936Y-69750984D01*
X137282720Y-69817865D01*
X137231345Y-69862382D01*
X137188251Y-69882476D01*
X137077875Y-69959763D01*
X137000700Y-70013802D01*
X137000698Y-70013803D01*
X137000695Y-70013806D01*
X136838806Y-70175695D01*
X136838803Y-70175698D01*
X136838802Y-70175700D01*
X136764751Y-70281456D01*
X136707476Y-70363252D01*
X136707475Y-70363254D01*
X136610718Y-70570750D01*
X136610714Y-70570761D01*
X136551457Y-70791910D01*
X136551456Y-70791918D01*
X136531502Y-71019998D01*
X136531502Y-71020001D01*
X131538498Y-71020001D01*
X131538498Y-71020000D01*
X131534998Y-70980000D01*
X131518543Y-70791918D01*
X131518543Y-70791913D01*
X131459284Y-70570757D01*
X131458372Y-70568802D01*
X131397134Y-70437475D01*
X131362523Y-70363251D01*
X131231198Y-70175700D01*
X131069300Y-70013802D01*
X130881749Y-69882477D01*
X130838655Y-69862382D01*
X130786215Y-69816210D01*
X130767063Y-69749017D01*
X130787278Y-69682136D01*
X130838655Y-69637618D01*
X130841882Y-69636112D01*
X130881749Y-69617523D01*
X131069300Y-69486198D01*
X131231198Y-69324300D01*
X131362523Y-69136749D01*
X131459284Y-68929243D01*
X131518543Y-68708087D01*
X131538498Y-68480000D01*
X131518543Y-68251913D01*
X131459284Y-68030757D01*
X131362523Y-67823251D01*
X131231198Y-67635700D01*
X131069300Y-67473802D01*
X130881749Y-67342477D01*
X130838655Y-67322382D01*
X130786215Y-67276210D01*
X130767063Y-67209017D01*
X130787278Y-67142136D01*
X130838655Y-67097618D01*
X130841882Y-67096112D01*
X130881749Y-67077523D01*
X131069300Y-66946198D01*
X131231198Y-66784300D01*
X131362523Y-66596749D01*
X131459284Y-66389243D01*
X131518543Y-66168087D01*
X131538498Y-65940000D01*
X131518543Y-65711913D01*
X131459284Y-65490757D01*
X131454594Y-65480700D01*
X131379102Y-65318806D01*
X131362523Y-65283251D01*
X131231198Y-65095700D01*
X131069300Y-64933802D01*
X131061627Y-64928429D01*
X131018006Y-64873853D01*
X131010814Y-64804355D01*
X131042338Y-64742001D01*
X131102568Y-64706588D01*
X131119489Y-64703570D01*
X131134201Y-64701989D01*
X131271204Y-64650889D01*
X131388261Y-64563261D01*
X131475889Y-64446204D01*
X131526989Y-64309201D01*
X131530666Y-64275000D01*
X131533499Y-64248654D01*
X131533500Y-64248637D01*
X131533500Y-62551362D01*
X131533499Y-62551345D01*
X131530157Y-62520270D01*
X131526989Y-62490799D01*
X131475889Y-62353796D01*
X131388261Y-62236739D01*
X131271204Y-62149111D01*
X131258316Y-62144304D01*
X131134203Y-62098011D01*
X131073654Y-62091500D01*
X131073638Y-62091500D01*
X129376362Y-62091500D01*
X129376345Y-62091500D01*
X129315797Y-62098011D01*
X129315795Y-62098011D01*
X129178795Y-62149111D01*
X129061739Y-62236739D01*
X128974111Y-62353795D01*
X128923011Y-62490795D01*
X128923011Y-62490797D01*
X128916500Y-62551345D01*
X128916500Y-64248654D01*
X128923011Y-64309202D01*
X128923011Y-64309204D01*
X128959189Y-64406198D01*
X128974111Y-64446204D01*
X129061739Y-64563261D01*
X129178796Y-64650889D01*
X129245244Y-64675673D01*
X129315793Y-64701987D01*
X129315799Y-64701989D01*
X129330499Y-64703569D01*
X129395048Y-64730305D01*
X129434897Y-64787696D01*
X129437393Y-64857521D01*
X129401742Y-64917611D01*
X129388377Y-64928425D01*
X129388371Y-64928431D01*
X129380696Y-64933805D01*
X129218806Y-65095695D01*
X129218803Y-65095698D01*
X129218802Y-65095700D01*
X129167797Y-65168543D01*
X129087476Y-65283252D01*
X129087475Y-65283254D01*
X128990718Y-65490750D01*
X128990714Y-65490761D01*
X128931457Y-65711910D01*
X128931456Y-65711918D01*
X128911502Y-65939998D01*
X128911502Y-65940001D01*
X128931456Y-66168081D01*
X128931457Y-66168089D01*
X128990714Y-66389238D01*
X128990718Y-66389249D01*
X129067114Y-66553081D01*
X129087477Y-66596749D01*
X129218802Y-66784300D01*
X129380700Y-66946198D01*
X129557697Y-67070133D01*
X129568251Y-67077523D01*
X129611345Y-67097618D01*
X129663784Y-67143791D01*
X129682936Y-67210984D01*
X129662720Y-67277865D01*
X129611345Y-67322382D01*
X129568251Y-67342476D01*
X129443126Y-67430090D01*
X129380700Y-67473802D01*
X129380698Y-67473803D01*
X129380695Y-67473806D01*
X129218806Y-67635695D01*
X129087476Y-67823252D01*
X129087475Y-67823254D01*
X128990718Y-68030750D01*
X128990714Y-68030761D01*
X128931457Y-68251910D01*
X128931456Y-68251918D01*
X128911502Y-68479998D01*
X128911502Y-68480001D01*
X128931456Y-68708081D01*
X128931457Y-68708089D01*
X128990714Y-68929238D01*
X128990718Y-68929249D01*
X129087475Y-69136745D01*
X129087477Y-69136749D01*
X129218802Y-69324300D01*
X129380700Y-69486198D01*
X129548647Y-69603796D01*
X129568251Y-69617523D01*
X129611345Y-69637618D01*
X129663784Y-69683791D01*
X129682936Y-69750984D01*
X129662720Y-69817865D01*
X129611345Y-69862382D01*
X129568251Y-69882476D01*
X129457875Y-69959763D01*
X129380700Y-70013802D01*
X129380698Y-70013803D01*
X129380695Y-70013806D01*
X129218806Y-70175695D01*
X129218803Y-70175698D01*
X129218802Y-70175700D01*
X129144751Y-70281456D01*
X129087476Y-70363252D01*
X129087475Y-70363254D01*
X128990718Y-70570750D01*
X128990714Y-70570761D01*
X128931457Y-70791910D01*
X128931456Y-70791918D01*
X128911502Y-71019998D01*
X128911502Y-71020001D01*
X127509998Y-71020001D01*
X127513498Y-70980000D01*
X127493543Y-70751913D01*
X127434284Y-70530757D01*
X127337523Y-70323251D01*
X127206198Y-70135700D01*
X127044300Y-69973802D01*
X126856749Y-69842477D01*
X126818892Y-69824824D01*
X126649249Y-69745718D01*
X126649238Y-69745714D01*
X126428089Y-69686457D01*
X126428081Y-69686456D01*
X126200002Y-69666502D01*
X126199998Y-69666502D01*
X125971918Y-69686456D01*
X125971910Y-69686457D01*
X125750761Y-69745714D01*
X125750750Y-69745718D01*
X125543254Y-69842475D01*
X125543252Y-69842476D01*
X125543251Y-69842477D01*
X125355700Y-69973802D01*
X125355698Y-69973803D01*
X125355695Y-69973806D01*
X125193806Y-70135695D01*
X125193803Y-70135698D01*
X125193802Y-70135700D01*
X125148246Y-70200761D01*
X125062476Y-70323252D01*
X125062475Y-70323254D01*
X124965718Y-70530750D01*
X124965714Y-70530761D01*
X124906457Y-70751910D01*
X124906456Y-70751918D01*
X124886502Y-70979998D01*
X124886502Y-70980001D01*
X121121317Y-70980001D01*
X121094514Y-70922521D01*
X121092523Y-70918251D01*
X120961198Y-70730700D01*
X120799300Y-70568802D01*
X120611749Y-70437477D01*
X120611745Y-70437475D01*
X120404249Y-70340718D01*
X120404238Y-70340714D01*
X120183089Y-70281457D01*
X120183081Y-70281456D01*
X119955002Y-70261502D01*
X119954998Y-70261502D01*
X119726918Y-70281456D01*
X119726910Y-70281457D01*
X119505761Y-70340714D01*
X119505750Y-70340718D01*
X119298254Y-70437475D01*
X119298252Y-70437476D01*
X119227856Y-70486767D01*
X119110700Y-70568802D01*
X119110698Y-70568803D01*
X119110695Y-70568806D01*
X118948806Y-70730695D01*
X118948803Y-70730698D01*
X118948802Y-70730700D01*
X118933945Y-70751918D01*
X118817476Y-70918252D01*
X118817475Y-70918254D01*
X118720718Y-71125750D01*
X118720714Y-71125761D01*
X118661457Y-71346910D01*
X118661456Y-71346918D01*
X118641502Y-71574998D01*
X118641502Y-71575001D01*
X111099966Y-71575001D01*
X111099966Y-71574997D01*
X111080141Y-71348400D01*
X111080139Y-71348389D01*
X111021269Y-71128682D01*
X111021264Y-71128668D01*
X110925136Y-70922521D01*
X110925132Y-70922513D01*
X110874025Y-70849526D01*
X110195000Y-71528551D01*
X110195000Y-71522339D01*
X110167741Y-71420606D01*
X110115080Y-71329394D01*
X110040606Y-71254920D01*
X109949394Y-71202259D01*
X109847661Y-71175000D01*
X109841448Y-71175000D01*
X110520472Y-70495974D01*
X110447478Y-70444863D01*
X110241331Y-70348735D01*
X110241317Y-70348730D01*
X110021610Y-70289860D01*
X110021599Y-70289858D01*
X109795002Y-70270034D01*
X109794998Y-70270034D01*
X109568400Y-70289858D01*
X109568389Y-70289860D01*
X109348682Y-70348730D01*
X109348673Y-70348734D01*
X109142516Y-70444866D01*
X109142512Y-70444868D01*
X109069526Y-70495973D01*
X109069526Y-70495974D01*
X109748553Y-71175000D01*
X109742339Y-71175000D01*
X109640606Y-71202259D01*
X109549394Y-71254920D01*
X109474920Y-71329394D01*
X109422259Y-71420606D01*
X109395000Y-71522339D01*
X109395000Y-71528552D01*
X108715974Y-70849526D01*
X108715973Y-70849526D01*
X108664868Y-70922512D01*
X108664866Y-70922516D01*
X108568734Y-71128673D01*
X108568730Y-71128682D01*
X108509860Y-71348389D01*
X108509858Y-71348400D01*
X108490034Y-71574997D01*
X108490034Y-71575002D01*
X100075500Y-71575002D01*
X100075500Y-67523654D01*
X101291500Y-67523654D01*
X101298011Y-67584202D01*
X101298011Y-67584204D01*
X101349111Y-67721204D01*
X101436739Y-67838261D01*
X101553796Y-67925889D01*
X101690799Y-67976989D01*
X101718050Y-67979918D01*
X101751345Y-67983499D01*
X101751362Y-67983500D01*
X103548638Y-67983500D01*
X103548654Y-67983499D01*
X103575692Y-67980591D01*
X103609201Y-67976989D01*
X103746204Y-67925889D01*
X103863261Y-67838261D01*
X103950889Y-67721204D01*
X104001989Y-67584201D01*
X104005591Y-67550692D01*
X104008499Y-67523654D01*
X104008500Y-67523637D01*
X104008500Y-66325001D01*
X108431502Y-66325001D01*
X108451456Y-66553081D01*
X108451457Y-66553089D01*
X108510714Y-66774238D01*
X108510718Y-66774249D01*
X108515407Y-66784304D01*
X108607477Y-66981749D01*
X108738802Y-67169300D01*
X108900700Y-67331198D01*
X109088251Y-67462523D01*
X109112448Y-67473806D01*
X109295750Y-67559281D01*
X109295752Y-67559281D01*
X109295757Y-67559284D01*
X109516913Y-67618543D01*
X109679832Y-67632796D01*
X109744998Y-67638498D01*
X109745000Y-67638498D01*
X109745002Y-67638498D01*
X109802021Y-67633509D01*
X109973087Y-67618543D01*
X110194243Y-67559284D01*
X110401749Y-67462523D01*
X110589300Y-67331198D01*
X110751198Y-67169300D01*
X110882523Y-66981749D01*
X110979284Y-66774243D01*
X111038543Y-66553087D01*
X111058498Y-66325001D01*
X118591502Y-66325001D01*
X118611456Y-66553081D01*
X118611457Y-66553089D01*
X118670714Y-66774238D01*
X118670718Y-66774249D01*
X118675407Y-66784304D01*
X118767477Y-66981749D01*
X118898802Y-67169300D01*
X119060700Y-67331198D01*
X119248251Y-67462523D01*
X119272448Y-67473806D01*
X119455750Y-67559281D01*
X119455752Y-67559281D01*
X119455757Y-67559284D01*
X119676913Y-67618543D01*
X119839832Y-67632796D01*
X119904998Y-67638498D01*
X119905000Y-67638498D01*
X119905002Y-67638498D01*
X119962021Y-67633509D01*
X120133087Y-67618543D01*
X120354243Y-67559284D01*
X120561749Y-67462523D01*
X120749300Y-67331198D01*
X120911198Y-67169300D01*
X121042523Y-66981749D01*
X121139284Y-66774243D01*
X121198543Y-66553087D01*
X121218498Y-66325000D01*
X121217425Y-66312741D01*
X121206687Y-66190000D01*
X121198543Y-66096913D01*
X121139284Y-65875757D01*
X121042523Y-65668251D01*
X120911198Y-65480700D01*
X120749300Y-65318802D01*
X120561749Y-65187477D01*
X120521145Y-65168543D01*
X120354249Y-65090718D01*
X120354238Y-65090714D01*
X120133089Y-65031457D01*
X120133081Y-65031456D01*
X119905002Y-65011502D01*
X119904998Y-65011502D01*
X119676918Y-65031456D01*
X119676910Y-65031457D01*
X119455761Y-65090714D01*
X119455750Y-65090718D01*
X119248254Y-65187475D01*
X119248252Y-65187476D01*
X119177856Y-65236767D01*
X119060700Y-65318802D01*
X119060698Y-65318803D01*
X119060695Y-65318806D01*
X118898806Y-65480695D01*
X118898803Y-65480698D01*
X118898802Y-65480700D01*
X118865125Y-65528796D01*
X118767476Y-65668252D01*
X118767475Y-65668254D01*
X118670718Y-65875750D01*
X118670714Y-65875761D01*
X118611457Y-66096910D01*
X118611456Y-66096918D01*
X118591502Y-66324998D01*
X118591502Y-66325001D01*
X111058498Y-66325001D01*
X111058498Y-66325000D01*
X111057425Y-66312741D01*
X111046687Y-66190000D01*
X111038543Y-66096913D01*
X110979284Y-65875757D01*
X110882523Y-65668251D01*
X110751198Y-65480700D01*
X110589300Y-65318802D01*
X110401749Y-65187477D01*
X110361145Y-65168543D01*
X110194249Y-65090718D01*
X110194238Y-65090714D01*
X109973089Y-65031457D01*
X109973081Y-65031456D01*
X109745002Y-65011502D01*
X109744998Y-65011502D01*
X109516918Y-65031456D01*
X109516910Y-65031457D01*
X109295761Y-65090714D01*
X109295750Y-65090718D01*
X109088254Y-65187475D01*
X109088252Y-65187476D01*
X109017856Y-65236767D01*
X108900700Y-65318802D01*
X108900698Y-65318803D01*
X108900695Y-65318806D01*
X108738806Y-65480695D01*
X108738803Y-65480698D01*
X108738802Y-65480700D01*
X108705125Y-65528796D01*
X108607476Y-65668252D01*
X108607475Y-65668254D01*
X108510718Y-65875750D01*
X108510714Y-65875761D01*
X108451457Y-66096910D01*
X108451456Y-66096918D01*
X108431502Y-66324998D01*
X108431502Y-66325001D01*
X104008500Y-66325001D01*
X104008500Y-65726362D01*
X104008499Y-65726345D01*
X104004591Y-65689999D01*
X104001989Y-65665799D01*
X103950889Y-65528796D01*
X103863261Y-65411739D01*
X103746204Y-65324111D01*
X103731970Y-65318802D01*
X103609203Y-65273011D01*
X103548654Y-65266500D01*
X103548638Y-65266500D01*
X101751362Y-65266500D01*
X101751345Y-65266500D01*
X101690797Y-65273011D01*
X101690795Y-65273011D01*
X101553795Y-65324111D01*
X101436739Y-65411739D01*
X101349111Y-65528795D01*
X101298011Y-65665795D01*
X101298011Y-65665797D01*
X101291500Y-65726345D01*
X101291500Y-67523654D01*
X100075500Y-67523654D01*
X100075500Y-61300001D01*
X108431502Y-61300001D01*
X108451456Y-61528081D01*
X108451457Y-61528089D01*
X108510714Y-61749238D01*
X108510718Y-61749249D01*
X108579033Y-61895750D01*
X108607477Y-61956749D01*
X108738802Y-62144300D01*
X108900700Y-62306198D01*
X109088251Y-62437523D01*
X109202494Y-62490795D01*
X109295750Y-62534281D01*
X109295752Y-62534281D01*
X109295757Y-62534284D01*
X109516913Y-62593543D01*
X109679832Y-62607796D01*
X109744998Y-62613498D01*
X109745000Y-62613498D01*
X109745002Y-62613498D01*
X109802021Y-62608509D01*
X109973087Y-62593543D01*
X110194243Y-62534284D01*
X110401749Y-62437523D01*
X110589300Y-62306198D01*
X110751198Y-62144300D01*
X110882523Y-61956749D01*
X110979284Y-61749243D01*
X111038543Y-61528087D01*
X111058498Y-61300001D01*
X118591502Y-61300001D01*
X118611456Y-61528081D01*
X118611457Y-61528089D01*
X118670714Y-61749238D01*
X118670718Y-61749249D01*
X118739033Y-61895750D01*
X118767477Y-61956749D01*
X118898802Y-62144300D01*
X119060700Y-62306198D01*
X119248251Y-62437523D01*
X119362494Y-62490795D01*
X119455750Y-62534281D01*
X119455752Y-62534281D01*
X119455757Y-62534284D01*
X119676913Y-62593543D01*
X119839832Y-62607796D01*
X119904998Y-62613498D01*
X119905000Y-62613498D01*
X119905002Y-62613498D01*
X119962021Y-62608509D01*
X120133087Y-62593543D01*
X120354243Y-62534284D01*
X120561749Y-62437523D01*
X120749300Y-62306198D01*
X120911198Y-62144300D01*
X121042523Y-61956749D01*
X121139284Y-61749243D01*
X121198543Y-61528087D01*
X121218498Y-61300000D01*
X121198543Y-61071913D01*
X121139284Y-60850757D01*
X121124942Y-60820001D01*
X124886502Y-60820001D01*
X124906456Y-61048081D01*
X124906457Y-61048089D01*
X124965714Y-61269238D01*
X124965718Y-61269249D01*
X125062475Y-61476745D01*
X125062477Y-61476749D01*
X125193802Y-61664300D01*
X125355700Y-61826198D01*
X125543251Y-61957523D01*
X125668091Y-62015736D01*
X125750750Y-62054281D01*
X125750752Y-62054281D01*
X125750757Y-62054284D01*
X125971913Y-62113543D01*
X126134832Y-62127796D01*
X126199998Y-62133498D01*
X126200000Y-62133498D01*
X126200002Y-62133498D01*
X126257021Y-62128509D01*
X126428087Y-62113543D01*
X126649243Y-62054284D01*
X126856749Y-61957523D01*
X127044300Y-61826198D01*
X127206198Y-61664300D01*
X127337523Y-61476749D01*
X127434284Y-61269243D01*
X127493543Y-61048087D01*
X127513498Y-60820000D01*
X127493543Y-60591913D01*
X127434284Y-60370757D01*
X127430743Y-60363164D01*
X127353839Y-60198242D01*
X127337523Y-60163251D01*
X127206198Y-59975700D01*
X127044300Y-59813802D01*
X126856749Y-59682477D01*
X126856745Y-59682475D01*
X126649249Y-59585718D01*
X126649238Y-59585714D01*
X126428089Y-59526457D01*
X126428081Y-59526456D01*
X126200002Y-59506502D01*
X126199998Y-59506502D01*
X125971918Y-59526456D01*
X125971910Y-59526457D01*
X125750761Y-59585714D01*
X125750750Y-59585718D01*
X125543254Y-59682475D01*
X125543252Y-59682476D01*
X125543251Y-59682477D01*
X125355700Y-59813802D01*
X125355698Y-59813803D01*
X125355695Y-59813806D01*
X125193806Y-59975695D01*
X125193803Y-59975698D01*
X125193802Y-59975700D01*
X125172266Y-60006457D01*
X125062476Y-60163252D01*
X125062475Y-60163254D01*
X124965718Y-60370750D01*
X124965714Y-60370761D01*
X124906457Y-60591910D01*
X124906456Y-60591918D01*
X124886502Y-60819998D01*
X124886502Y-60820001D01*
X121124942Y-60820001D01*
X121042524Y-60643254D01*
X121042523Y-60643252D01*
X121042523Y-60643251D01*
X120911198Y-60455700D01*
X120749300Y-60293802D01*
X120561749Y-60162477D01*
X120561745Y-60162475D01*
X120354249Y-60065718D01*
X120354238Y-60065714D01*
X120133089Y-60006457D01*
X120133081Y-60006456D01*
X119905002Y-59986502D01*
X119904998Y-59986502D01*
X119676918Y-60006456D01*
X119676910Y-60006457D01*
X119455761Y-60065714D01*
X119455750Y-60065718D01*
X119248254Y-60162475D01*
X119248252Y-60162476D01*
X119247144Y-60163252D01*
X119060700Y-60293802D01*
X119060698Y-60293803D01*
X119060695Y-60293806D01*
X118898806Y-60455695D01*
X118898803Y-60455698D01*
X118898802Y-60455700D01*
X118816767Y-60572856D01*
X118767476Y-60643252D01*
X118767475Y-60643254D01*
X118670718Y-60850750D01*
X118670714Y-60850761D01*
X118611457Y-61071910D01*
X118611456Y-61071918D01*
X118591502Y-61299998D01*
X118591502Y-61300001D01*
X111058498Y-61300001D01*
X111058498Y-61300000D01*
X111038543Y-61071913D01*
X110979284Y-60850757D01*
X110964942Y-60820001D01*
X110882524Y-60643254D01*
X110882523Y-60643252D01*
X110882523Y-60643251D01*
X110751198Y-60455700D01*
X110589300Y-60293802D01*
X110401749Y-60162477D01*
X110401745Y-60162475D01*
X110194249Y-60065718D01*
X110194238Y-60065714D01*
X109973089Y-60006457D01*
X109973081Y-60006456D01*
X109745002Y-59986502D01*
X109744998Y-59986502D01*
X109516918Y-60006456D01*
X109516910Y-60006457D01*
X109295761Y-60065714D01*
X109295750Y-60065718D01*
X109088254Y-60162475D01*
X109088252Y-60162476D01*
X109087144Y-60163252D01*
X108900700Y-60293802D01*
X108900698Y-60293803D01*
X108900695Y-60293806D01*
X108738806Y-60455695D01*
X108738803Y-60455698D01*
X108738802Y-60455700D01*
X108656767Y-60572856D01*
X108607476Y-60643252D01*
X108607475Y-60643254D01*
X108510718Y-60850750D01*
X108510714Y-60850761D01*
X108451457Y-61071910D01*
X108451456Y-61071918D01*
X108431502Y-61299998D01*
X108431502Y-61300001D01*
X100075500Y-61300001D01*
X100075500Y-59998654D01*
X101541500Y-59998654D01*
X101548011Y-60059202D01*
X101548011Y-60059204D01*
X101586531Y-60162476D01*
X101599111Y-60196204D01*
X101686739Y-60313261D01*
X101803796Y-60400889D01*
X101940799Y-60451989D01*
X101968050Y-60454918D01*
X102001345Y-60458499D01*
X102001362Y-60458500D01*
X103798638Y-60458500D01*
X103798654Y-60458499D01*
X103825692Y-60455591D01*
X103859201Y-60451989D01*
X103996204Y-60400889D01*
X104113261Y-60313261D01*
X104200889Y-60196204D01*
X104251989Y-60059201D01*
X104255591Y-60025692D01*
X104258499Y-59998654D01*
X104258500Y-59998637D01*
X104258500Y-58850000D01*
X154161835Y-58850000D01*
X154180465Y-59086714D01*
X154235895Y-59317595D01*
X154235895Y-59317597D01*
X154326757Y-59536959D01*
X154326759Y-59536962D01*
X154450820Y-59739410D01*
X154450821Y-59739413D01*
X154450824Y-59739416D01*
X154605031Y-59919969D01*
X154744797Y-60039340D01*
X154785586Y-60074178D01*
X154785589Y-60074179D01*
X154988037Y-60198240D01*
X154988040Y-60198242D01*
X155207403Y-60289104D01*
X155207404Y-60289104D01*
X155207406Y-60289105D01*
X155438289Y-60344535D01*
X155675000Y-60363165D01*
X155911711Y-60344535D01*
X156142594Y-60289105D01*
X156142596Y-60289104D01*
X156142597Y-60289104D01*
X156361959Y-60198242D01*
X156361960Y-60198241D01*
X156361963Y-60198240D01*
X156564416Y-60074176D01*
X156744969Y-59919969D01*
X156899176Y-59739416D01*
X157023240Y-59536963D01*
X157035858Y-59506502D01*
X157114104Y-59317597D01*
X157114104Y-59317596D01*
X157114105Y-59317594D01*
X157169535Y-59086711D01*
X157188165Y-58850000D01*
X160661835Y-58850000D01*
X160680465Y-59086714D01*
X160735895Y-59317595D01*
X160735895Y-59317597D01*
X160826757Y-59536959D01*
X160826759Y-59536962D01*
X160950820Y-59739410D01*
X160950821Y-59739413D01*
X160950824Y-59739416D01*
X161105031Y-59919969D01*
X161244797Y-60039340D01*
X161285586Y-60074178D01*
X161285589Y-60074179D01*
X161488037Y-60198240D01*
X161488040Y-60198242D01*
X161707403Y-60289104D01*
X161707404Y-60289104D01*
X161707406Y-60289105D01*
X161938289Y-60344535D01*
X162175000Y-60363165D01*
X162411711Y-60344535D01*
X162642594Y-60289105D01*
X162642596Y-60289104D01*
X162642597Y-60289104D01*
X162861959Y-60198242D01*
X162861960Y-60198241D01*
X162861963Y-60198240D01*
X163064416Y-60074176D01*
X163244969Y-59919969D01*
X163399176Y-59739416D01*
X163523240Y-59536963D01*
X163535858Y-59506502D01*
X163614104Y-59317597D01*
X163614104Y-59317596D01*
X163614105Y-59317594D01*
X163669535Y-59086711D01*
X163688165Y-58850000D01*
X163669535Y-58613289D01*
X163614105Y-58382406D01*
X163614104Y-58382403D01*
X163614104Y-58382402D01*
X163523242Y-58163040D01*
X163523240Y-58163037D01*
X163399179Y-57960589D01*
X163399178Y-57960586D01*
X163336106Y-57886739D01*
X163244969Y-57780031D01*
X163125596Y-57678076D01*
X163064413Y-57625821D01*
X163064410Y-57625820D01*
X162861962Y-57501759D01*
X162861959Y-57501757D01*
X162642596Y-57410895D01*
X162411714Y-57355465D01*
X162175000Y-57336835D01*
X161938285Y-57355465D01*
X161707404Y-57410895D01*
X161707402Y-57410895D01*
X161488040Y-57501757D01*
X161488037Y-57501759D01*
X161285589Y-57625820D01*
X161285586Y-57625821D01*
X161105031Y-57780031D01*
X160950821Y-57960586D01*
X160950820Y-57960589D01*
X160826759Y-58163037D01*
X160826757Y-58163040D01*
X160735895Y-58382402D01*
X160735895Y-58382404D01*
X160680465Y-58613285D01*
X160661835Y-58850000D01*
X157188165Y-58850000D01*
X157169535Y-58613289D01*
X157114105Y-58382406D01*
X157114104Y-58382403D01*
X157114104Y-58382402D01*
X157023242Y-58163040D01*
X157023240Y-58163037D01*
X156899179Y-57960589D01*
X156899178Y-57960586D01*
X156836106Y-57886739D01*
X156744969Y-57780031D01*
X156625596Y-57678076D01*
X156564413Y-57625821D01*
X156564410Y-57625820D01*
X156361962Y-57501759D01*
X156361959Y-57501757D01*
X156142596Y-57410895D01*
X155911714Y-57355465D01*
X155675000Y-57336835D01*
X155438285Y-57355465D01*
X155207404Y-57410895D01*
X155207402Y-57410895D01*
X154988040Y-57501757D01*
X154988037Y-57501759D01*
X154785589Y-57625820D01*
X154785586Y-57625821D01*
X154605031Y-57780031D01*
X154450821Y-57960586D01*
X154450820Y-57960589D01*
X154326759Y-58163037D01*
X154326757Y-58163040D01*
X154235895Y-58382402D01*
X154235895Y-58382404D01*
X154180465Y-58613285D01*
X154161835Y-58850000D01*
X104258500Y-58850000D01*
X104258500Y-58201362D01*
X104258499Y-58201345D01*
X104254380Y-58163037D01*
X104251989Y-58140799D01*
X104200889Y-58003796D01*
X104113261Y-57886739D01*
X103996204Y-57799111D01*
X103859203Y-57748011D01*
X103798654Y-57741500D01*
X103798638Y-57741500D01*
X102001362Y-57741500D01*
X102001345Y-57741500D01*
X101940797Y-57748011D01*
X101940795Y-57748011D01*
X101803795Y-57799111D01*
X101686739Y-57886739D01*
X101599111Y-58003795D01*
X101548011Y-58140795D01*
X101548011Y-58140797D01*
X101541500Y-58201345D01*
X101541500Y-59998654D01*
X100075500Y-59998654D01*
X100075500Y-55725001D01*
X108651502Y-55725001D01*
X108671456Y-55953081D01*
X108671457Y-55953089D01*
X108730714Y-56174238D01*
X108730718Y-56174249D01*
X108788270Y-56297669D01*
X108827477Y-56381749D01*
X108958802Y-56569300D01*
X109120700Y-56731198D01*
X109308251Y-56862523D01*
X109406850Y-56908500D01*
X109515750Y-56959281D01*
X109515752Y-56959281D01*
X109515757Y-56959284D01*
X109736913Y-57018543D01*
X109899832Y-57032796D01*
X109964998Y-57038498D01*
X109965000Y-57038498D01*
X109965002Y-57038498D01*
X110022139Y-57033499D01*
X110193087Y-57018543D01*
X110414243Y-56959284D01*
X110621749Y-56862523D01*
X110809300Y-56731198D01*
X110971198Y-56569300D01*
X111102523Y-56381749D01*
X111199284Y-56174243D01*
X111258543Y-55953087D01*
X111278498Y-55725001D01*
X118811502Y-55725001D01*
X118831456Y-55953081D01*
X118831457Y-55953089D01*
X118890714Y-56174238D01*
X118890718Y-56174249D01*
X118948270Y-56297669D01*
X118987477Y-56381749D01*
X119118802Y-56569300D01*
X119280700Y-56731198D01*
X119468251Y-56862523D01*
X119566850Y-56908500D01*
X119675750Y-56959281D01*
X119675752Y-56959281D01*
X119675757Y-56959284D01*
X119896913Y-57018543D01*
X120059832Y-57032796D01*
X120124998Y-57038498D01*
X120125000Y-57038498D01*
X120125002Y-57038498D01*
X120182139Y-57033499D01*
X120353087Y-57018543D01*
X120574243Y-56959284D01*
X120781749Y-56862523D01*
X120969300Y-56731198D01*
X121126844Y-56573654D01*
X124091500Y-56573654D01*
X124098011Y-56634202D01*
X124098011Y-56634204D01*
X124134189Y-56731198D01*
X124149111Y-56771204D01*
X124236739Y-56888261D01*
X124353796Y-56975889D01*
X124490799Y-57026989D01*
X124518050Y-57029918D01*
X124551345Y-57033499D01*
X124551362Y-57033500D01*
X126448638Y-57033500D01*
X126448654Y-57033499D01*
X126475692Y-57030591D01*
X126509201Y-57026989D01*
X126646204Y-56975889D01*
X126763261Y-56888261D01*
X126850889Y-56771204D01*
X126875397Y-56705495D01*
X126917268Y-56649563D01*
X126982733Y-56625147D01*
X127051005Y-56639999D01*
X127078724Y-56661656D01*
X127079010Y-56661347D01*
X127082774Y-56664811D01*
X127082780Y-56664818D01*
X127266983Y-56808190D01*
X127266985Y-56808191D01*
X127266988Y-56808193D01*
X127345882Y-56850888D01*
X127472273Y-56919287D01*
X127564323Y-56950888D01*
X127693045Y-56995079D01*
X127693047Y-56995079D01*
X127693049Y-56995080D01*
X127923288Y-57033500D01*
X127923289Y-57033500D01*
X128156711Y-57033500D01*
X128156712Y-57033500D01*
X128386951Y-56995080D01*
X128607727Y-56919287D01*
X128813017Y-56808190D01*
X128997220Y-56664818D01*
X129104157Y-56548654D01*
X133566500Y-56548654D01*
X133573011Y-56609202D01*
X133573011Y-56609204D01*
X133608928Y-56705497D01*
X133624111Y-56746204D01*
X133711739Y-56863261D01*
X133828796Y-56950889D01*
X133965799Y-57001989D01*
X133993050Y-57004918D01*
X134026345Y-57008499D01*
X134026362Y-57008500D01*
X135923638Y-57008500D01*
X135923654Y-57008499D01*
X135950692Y-57005591D01*
X135984201Y-57001989D01*
X136121204Y-56950889D01*
X136238261Y-56863261D01*
X136325889Y-56746204D01*
X136350397Y-56680495D01*
X136392268Y-56624563D01*
X136457733Y-56600147D01*
X136526005Y-56614999D01*
X136553724Y-56636656D01*
X136554010Y-56636347D01*
X136557774Y-56639811D01*
X136557780Y-56639818D01*
X136741983Y-56783190D01*
X136741985Y-56783191D01*
X136741988Y-56783193D01*
X136861331Y-56847777D01*
X136947273Y-56894287D01*
X137020095Y-56919287D01*
X137168045Y-56970079D01*
X137168047Y-56970079D01*
X137168049Y-56970080D01*
X137398288Y-57008500D01*
X137398289Y-57008500D01*
X137631711Y-57008500D01*
X137631712Y-57008500D01*
X137861951Y-56970080D01*
X138082727Y-56894287D01*
X138288017Y-56783190D01*
X138472220Y-56639818D01*
X138630314Y-56468083D01*
X138643008Y-56448654D01*
X143716500Y-56448654D01*
X143723011Y-56509202D01*
X143723011Y-56509204D01*
X143762472Y-56614999D01*
X143774111Y-56646204D01*
X143861739Y-56763261D01*
X143978796Y-56850889D01*
X144115799Y-56901989D01*
X144143050Y-56904918D01*
X144176345Y-56908499D01*
X144176362Y-56908500D01*
X146073638Y-56908500D01*
X146073654Y-56908499D01*
X146100692Y-56905591D01*
X146134201Y-56901989D01*
X146271204Y-56850889D01*
X146388261Y-56763261D01*
X146475889Y-56646204D01*
X146500397Y-56580495D01*
X146542268Y-56524563D01*
X146607733Y-56500147D01*
X146676005Y-56514999D01*
X146703724Y-56536656D01*
X146704010Y-56536347D01*
X146707774Y-56539811D01*
X146707780Y-56539818D01*
X146891983Y-56683190D01*
X146891985Y-56683191D01*
X146891988Y-56683193D01*
X146933203Y-56705497D01*
X147097273Y-56794287D01*
X147137774Y-56808191D01*
X147318045Y-56870079D01*
X147318047Y-56870079D01*
X147318049Y-56870080D01*
X147548288Y-56908500D01*
X147548289Y-56908500D01*
X147781711Y-56908500D01*
X147781712Y-56908500D01*
X148011951Y-56870080D01*
X148232727Y-56794287D01*
X148438017Y-56683190D01*
X148622220Y-56539818D01*
X148780314Y-56368083D01*
X148907984Y-56172669D01*
X149001749Y-55958907D01*
X149059051Y-55732626D01*
X149070041Y-55599994D01*
X149078327Y-55500005D01*
X149078327Y-55499994D01*
X149059746Y-55275761D01*
X149059051Y-55267374D01*
X149001749Y-55041093D01*
X148907984Y-54827331D01*
X148837079Y-54718802D01*
X148780313Y-54631915D01*
X148622223Y-54460185D01*
X148622222Y-54460184D01*
X148622220Y-54460182D01*
X148480659Y-54350000D01*
X154161835Y-54350000D01*
X154180465Y-54586714D01*
X154235895Y-54817595D01*
X154235895Y-54817597D01*
X154326757Y-55036959D01*
X154326759Y-55036962D01*
X154450820Y-55239410D01*
X154450821Y-55239413D01*
X154503076Y-55300596D01*
X154605031Y-55419969D01*
X154698741Y-55500005D01*
X154785586Y-55574178D01*
X154785589Y-55574179D01*
X154988037Y-55698240D01*
X154988040Y-55698242D01*
X155207403Y-55789104D01*
X155207404Y-55789104D01*
X155207406Y-55789105D01*
X155438289Y-55844535D01*
X155675000Y-55863165D01*
X155911711Y-55844535D01*
X156142594Y-55789105D01*
X156142596Y-55789104D01*
X156142597Y-55789104D01*
X156361959Y-55698242D01*
X156361960Y-55698241D01*
X156361963Y-55698240D01*
X156564416Y-55574176D01*
X156744969Y-55419969D01*
X156899176Y-55239416D01*
X157023240Y-55036963D01*
X157058296Y-54952331D01*
X157114104Y-54817597D01*
X157114104Y-54817596D01*
X157114105Y-54817594D01*
X157169535Y-54586711D01*
X157188165Y-54350000D01*
X160661835Y-54350000D01*
X160680465Y-54586714D01*
X160735895Y-54817595D01*
X160735895Y-54817597D01*
X160826757Y-55036959D01*
X160826759Y-55036962D01*
X160950820Y-55239410D01*
X160950821Y-55239413D01*
X161003076Y-55300596D01*
X161105031Y-55419969D01*
X161198741Y-55500005D01*
X161285586Y-55574178D01*
X161285589Y-55574179D01*
X161488037Y-55698240D01*
X161488040Y-55698242D01*
X161707403Y-55789104D01*
X161707404Y-55789104D01*
X161707406Y-55789105D01*
X161938289Y-55844535D01*
X162175000Y-55863165D01*
X162411711Y-55844535D01*
X162642594Y-55789105D01*
X162642596Y-55789104D01*
X162642597Y-55789104D01*
X162861959Y-55698242D01*
X162861960Y-55698241D01*
X162861963Y-55698240D01*
X163064416Y-55574176D01*
X163244969Y-55419969D01*
X163399176Y-55239416D01*
X163523240Y-55036963D01*
X163558296Y-54952331D01*
X163614104Y-54817597D01*
X163614104Y-54817596D01*
X163614105Y-54817594D01*
X163669535Y-54586711D01*
X163688165Y-54350000D01*
X163669535Y-54113289D01*
X163614105Y-53882406D01*
X163614104Y-53882403D01*
X163614104Y-53882402D01*
X163523242Y-53663040D01*
X163523240Y-53663037D01*
X163418485Y-53492093D01*
X163399178Y-53460588D01*
X163399178Y-53460586D01*
X163364340Y-53419797D01*
X163244969Y-53280031D01*
X163125596Y-53178076D01*
X163064413Y-53125821D01*
X163064410Y-53125820D01*
X162861962Y-53001759D01*
X162861959Y-53001757D01*
X162642596Y-52910895D01*
X162411714Y-52855465D01*
X162175000Y-52836835D01*
X161938285Y-52855465D01*
X161707404Y-52910895D01*
X161707402Y-52910895D01*
X161488040Y-53001757D01*
X161488037Y-53001759D01*
X161285589Y-53125820D01*
X161285586Y-53125821D01*
X161105031Y-53280031D01*
X160950821Y-53460586D01*
X160950820Y-53460589D01*
X160826759Y-53663037D01*
X160826757Y-53663040D01*
X160735895Y-53882402D01*
X160735895Y-53882404D01*
X160680465Y-54113285D01*
X160661835Y-54350000D01*
X157188165Y-54350000D01*
X157169535Y-54113289D01*
X157114105Y-53882406D01*
X157114104Y-53882403D01*
X157114104Y-53882402D01*
X157023242Y-53663040D01*
X157023240Y-53663037D01*
X156918485Y-53492093D01*
X156899178Y-53460588D01*
X156899178Y-53460586D01*
X156864340Y-53419797D01*
X156744969Y-53280031D01*
X156625596Y-53178076D01*
X156564413Y-53125821D01*
X156564410Y-53125820D01*
X156361962Y-53001759D01*
X156361959Y-53001757D01*
X156142596Y-52910895D01*
X155911714Y-52855465D01*
X155675000Y-52836835D01*
X155438285Y-52855465D01*
X155207404Y-52910895D01*
X155207402Y-52910895D01*
X154988040Y-53001757D01*
X154988037Y-53001759D01*
X154785589Y-53125820D01*
X154785586Y-53125821D01*
X154605031Y-53280031D01*
X154450821Y-53460586D01*
X154450820Y-53460589D01*
X154326759Y-53663037D01*
X154326757Y-53663040D01*
X154235895Y-53882402D01*
X154235895Y-53882404D01*
X154180465Y-54113285D01*
X154161835Y-54350000D01*
X148480659Y-54350000D01*
X148438017Y-54316810D01*
X148438015Y-54316809D01*
X148438014Y-54316808D01*
X148438011Y-54316806D01*
X148232733Y-54205716D01*
X148232730Y-54205715D01*
X148232727Y-54205713D01*
X148232721Y-54205711D01*
X148232719Y-54205710D01*
X148011954Y-54129920D01*
X147820730Y-54098011D01*
X147781712Y-54091500D01*
X147548288Y-54091500D01*
X147509270Y-54098011D01*
X147318045Y-54129920D01*
X147097280Y-54205710D01*
X147097266Y-54205716D01*
X146891988Y-54316806D01*
X146891985Y-54316808D01*
X146707781Y-54460181D01*
X146704010Y-54463653D01*
X146703290Y-54462871D01*
X146647899Y-54496147D01*
X146578061Y-54494034D01*
X146520452Y-54454500D01*
X146500397Y-54419503D01*
X146492371Y-54397987D01*
X146475889Y-54353796D01*
X146388261Y-54236739D01*
X146271204Y-54149111D01*
X146134203Y-54098011D01*
X146073654Y-54091500D01*
X146073638Y-54091500D01*
X144176362Y-54091500D01*
X144176345Y-54091500D01*
X144115797Y-54098011D01*
X144115795Y-54098011D01*
X143978795Y-54149111D01*
X143861739Y-54236739D01*
X143774111Y-54353795D01*
X143723011Y-54490795D01*
X143723011Y-54490797D01*
X143716500Y-54551345D01*
X143716500Y-56448654D01*
X138643008Y-56448654D01*
X138757984Y-56272669D01*
X138851749Y-56058907D01*
X138909051Y-55832626D01*
X138917969Y-55724998D01*
X138928327Y-55600005D01*
X138928327Y-55599994D01*
X138911123Y-55392377D01*
X138909051Y-55367374D01*
X138851749Y-55141093D01*
X138757984Y-54927331D01*
X138692651Y-54827331D01*
X138630313Y-54731915D01*
X138472223Y-54560185D01*
X138472222Y-54560184D01*
X138472220Y-54560182D01*
X138288017Y-54416810D01*
X138288015Y-54416809D01*
X138288014Y-54416808D01*
X138288011Y-54416806D01*
X138082733Y-54305716D01*
X138082730Y-54305715D01*
X138082727Y-54305713D01*
X138082721Y-54305711D01*
X138082719Y-54305710D01*
X137861954Y-54229920D01*
X137670730Y-54198011D01*
X137631712Y-54191500D01*
X137398288Y-54191500D01*
X137359270Y-54198011D01*
X137168045Y-54229920D01*
X136947280Y-54305710D01*
X136947266Y-54305716D01*
X136741988Y-54416806D01*
X136741985Y-54416808D01*
X136557781Y-54560181D01*
X136554010Y-54563653D01*
X136553290Y-54562871D01*
X136497899Y-54596147D01*
X136428061Y-54594034D01*
X136370452Y-54554500D01*
X136350397Y-54519503D01*
X136340897Y-54494034D01*
X136325889Y-54453796D01*
X136238261Y-54336739D01*
X136121204Y-54249111D01*
X136088034Y-54236739D01*
X135984203Y-54198011D01*
X135923654Y-54191500D01*
X135923638Y-54191500D01*
X134026362Y-54191500D01*
X134026345Y-54191500D01*
X133965797Y-54198011D01*
X133965795Y-54198011D01*
X133828795Y-54249111D01*
X133711739Y-54336739D01*
X133624111Y-54453795D01*
X133573011Y-54590795D01*
X133573011Y-54590797D01*
X133566500Y-54651345D01*
X133566500Y-56548654D01*
X129104157Y-56548654D01*
X129155314Y-56493083D01*
X129282984Y-56297669D01*
X129376749Y-56083907D01*
X129434051Y-55857626D01*
X129453327Y-55625000D01*
X129451255Y-55600000D01*
X129440476Y-55469916D01*
X129434051Y-55392374D01*
X129376749Y-55166093D01*
X129282984Y-54952331D01*
X129155314Y-54756917D01*
X129155313Y-54756915D01*
X128997223Y-54585185D01*
X128997222Y-54585184D01*
X128997220Y-54585182D01*
X128813017Y-54441810D01*
X128813015Y-54441809D01*
X128813014Y-54441808D01*
X128813011Y-54441806D01*
X128607733Y-54330716D01*
X128607730Y-54330715D01*
X128607727Y-54330713D01*
X128607721Y-54330711D01*
X128607719Y-54330710D01*
X128386954Y-54254920D01*
X128195730Y-54223011D01*
X128156712Y-54216500D01*
X127923288Y-54216500D01*
X127884270Y-54223011D01*
X127693045Y-54254920D01*
X127472280Y-54330710D01*
X127472266Y-54330716D01*
X127266988Y-54441806D01*
X127266985Y-54441808D01*
X127082781Y-54585181D01*
X127079010Y-54588653D01*
X127078290Y-54587871D01*
X127022899Y-54621147D01*
X126953061Y-54619034D01*
X126895452Y-54579500D01*
X126875397Y-54544503D01*
X126866072Y-54519503D01*
X126850889Y-54478796D01*
X126763261Y-54361739D01*
X126646204Y-54274111D01*
X126509203Y-54223011D01*
X126448654Y-54216500D01*
X126448638Y-54216500D01*
X124551362Y-54216500D01*
X124551345Y-54216500D01*
X124490797Y-54223011D01*
X124490795Y-54223011D01*
X124353795Y-54274111D01*
X124236739Y-54361739D01*
X124149111Y-54478795D01*
X124098011Y-54615795D01*
X124098011Y-54615797D01*
X124091500Y-54676345D01*
X124091500Y-56573654D01*
X121126844Y-56573654D01*
X121131198Y-56569300D01*
X121262523Y-56381749D01*
X121359284Y-56174243D01*
X121418543Y-55953087D01*
X121438498Y-55725000D01*
X121418543Y-55496913D01*
X121359284Y-55275757D01*
X121355376Y-55267377D01*
X121308147Y-55166092D01*
X121262523Y-55068251D01*
X121131198Y-54880700D01*
X120969300Y-54718802D01*
X120781749Y-54587477D01*
X120780113Y-54586714D01*
X120574249Y-54490718D01*
X120574238Y-54490714D01*
X120353089Y-54431457D01*
X120353081Y-54431456D01*
X120125002Y-54411502D01*
X120124998Y-54411502D01*
X119896918Y-54431456D01*
X119896910Y-54431457D01*
X119675761Y-54490714D01*
X119675750Y-54490718D01*
X119468254Y-54587475D01*
X119468252Y-54587476D01*
X119455869Y-54596147D01*
X119280700Y-54718802D01*
X119280698Y-54718803D01*
X119280695Y-54718806D01*
X119118806Y-54880695D01*
X118987476Y-55068252D01*
X118987475Y-55068254D01*
X118890718Y-55275750D01*
X118890714Y-55275761D01*
X118831457Y-55496910D01*
X118831456Y-55496918D01*
X118811502Y-55724998D01*
X118811502Y-55725001D01*
X111278498Y-55725001D01*
X111278498Y-55725000D01*
X111258543Y-55496913D01*
X111199284Y-55275757D01*
X111195376Y-55267377D01*
X111148147Y-55166092D01*
X111102523Y-55068251D01*
X110971198Y-54880700D01*
X110809300Y-54718802D01*
X110621749Y-54587477D01*
X110620113Y-54586714D01*
X110414249Y-54490718D01*
X110414238Y-54490714D01*
X110193089Y-54431457D01*
X110193081Y-54431456D01*
X109965002Y-54411502D01*
X109964998Y-54411502D01*
X109736918Y-54431456D01*
X109736910Y-54431457D01*
X109515761Y-54490714D01*
X109515750Y-54490718D01*
X109308254Y-54587475D01*
X109308252Y-54587476D01*
X109295869Y-54596147D01*
X109120700Y-54718802D01*
X109120698Y-54718803D01*
X109120695Y-54718806D01*
X108958806Y-54880695D01*
X108827476Y-55068252D01*
X108827475Y-55068254D01*
X108730718Y-55275750D01*
X108730714Y-55275761D01*
X108671457Y-55496910D01*
X108671456Y-55496918D01*
X108651502Y-55724998D01*
X108651502Y-55725001D01*
X100075500Y-55725001D01*
X100075500Y-53297844D01*
X101475000Y-53297844D01*
X101481401Y-53357372D01*
X101481403Y-53357379D01*
X101531645Y-53492086D01*
X101531649Y-53492093D01*
X101617809Y-53607187D01*
X101617812Y-53607190D01*
X101732906Y-53693350D01*
X101732913Y-53693354D01*
X101867620Y-53743596D01*
X101867627Y-53743598D01*
X101927155Y-53749999D01*
X101927172Y-53750000D01*
X102575000Y-53750000D01*
X102575000Y-52833012D01*
X102632007Y-52865925D01*
X102759174Y-52900000D01*
X102890826Y-52900000D01*
X103017993Y-52865925D01*
X103075000Y-52833012D01*
X103075000Y-53750000D01*
X103722828Y-53750000D01*
X103722844Y-53749999D01*
X103782372Y-53743598D01*
X103782379Y-53743596D01*
X103917086Y-53693354D01*
X103917093Y-53693350D01*
X104032187Y-53607190D01*
X104032190Y-53607187D01*
X104118350Y-53492093D01*
X104118354Y-53492086D01*
X104168596Y-53357379D01*
X104168598Y-53357372D01*
X104174999Y-53297844D01*
X104175000Y-53297827D01*
X104175000Y-52650000D01*
X103258012Y-52650000D01*
X103290925Y-52592993D01*
X103325000Y-52465826D01*
X103325000Y-52334174D01*
X103290925Y-52207007D01*
X103258012Y-52150000D01*
X104175000Y-52150000D01*
X104175000Y-51502172D01*
X104174999Y-51502155D01*
X104168598Y-51442627D01*
X104168596Y-51442620D01*
X104118354Y-51307913D01*
X104118350Y-51307906D01*
X104032190Y-51192812D01*
X104032187Y-51192809D01*
X103917093Y-51106649D01*
X103917086Y-51106645D01*
X103782379Y-51056403D01*
X103782372Y-51056401D01*
X103722844Y-51050000D01*
X103075000Y-51050000D01*
X103075000Y-51966988D01*
X103017993Y-51934075D01*
X102890826Y-51900000D01*
X102759174Y-51900000D01*
X102632007Y-51934075D01*
X102575000Y-51966988D01*
X102575000Y-51050000D01*
X101927155Y-51050000D01*
X101867627Y-51056401D01*
X101867620Y-51056403D01*
X101732913Y-51106645D01*
X101732906Y-51106649D01*
X101617812Y-51192809D01*
X101617809Y-51192812D01*
X101531649Y-51307906D01*
X101531645Y-51307913D01*
X101481403Y-51442620D01*
X101481401Y-51442627D01*
X101475000Y-51502155D01*
X101475000Y-52150000D01*
X102391988Y-52150000D01*
X102359075Y-52207007D01*
X102325000Y-52334174D01*
X102325000Y-52465826D01*
X102359075Y-52592993D01*
X102391988Y-52650000D01*
X101475000Y-52650000D01*
X101475000Y-53297844D01*
X100075500Y-53297844D01*
X100075500Y-50098654D01*
X117437500Y-50098654D01*
X117444011Y-50159202D01*
X117444011Y-50159204D01*
X117495111Y-50296204D01*
X117582739Y-50413261D01*
X117699796Y-50500889D01*
X117836799Y-50551989D01*
X117864050Y-50554918D01*
X117897345Y-50558499D01*
X117897362Y-50558500D01*
X119694638Y-50558500D01*
X119694654Y-50558499D01*
X119721692Y-50555591D01*
X119755201Y-50551989D01*
X119892204Y-50500889D01*
X120009261Y-50413261D01*
X120096889Y-50296204D01*
X120142138Y-50174887D01*
X120184009Y-50118956D01*
X120249474Y-50094539D01*
X120317746Y-50109391D01*
X120349545Y-50134236D01*
X120412760Y-50202906D01*
X120590424Y-50341189D01*
X120590425Y-50341189D01*
X120590427Y-50341191D01*
X120717135Y-50409761D01*
X120788426Y-50448342D01*
X121001365Y-50521444D01*
X121223431Y-50558500D01*
X121448569Y-50558500D01*
X121670635Y-50521444D01*
X121883574Y-50448342D01*
X122081576Y-50341189D01*
X122259240Y-50202906D01*
X122411722Y-50037268D01*
X122502193Y-49898790D01*
X122555338Y-49853437D01*
X122624569Y-49844013D01*
X122687905Y-49873515D01*
X122709804Y-49898787D01*
X122800278Y-50037268D01*
X122800283Y-50037273D01*
X122800284Y-50037276D01*
X122926968Y-50174889D01*
X122952760Y-50202906D01*
X123130424Y-50341189D01*
X123130425Y-50341189D01*
X123130427Y-50341191D01*
X123257135Y-50409761D01*
X123328426Y-50448342D01*
X123541365Y-50521444D01*
X123763431Y-50558500D01*
X123988569Y-50558500D01*
X124210635Y-50521444D01*
X124423574Y-50448342D01*
X124621576Y-50341189D01*
X124799240Y-50202906D01*
X124951722Y-50037268D01*
X125042193Y-49898790D01*
X125095338Y-49853437D01*
X125164569Y-49844013D01*
X125227905Y-49873515D01*
X125249804Y-49898787D01*
X125340278Y-50037268D01*
X125340283Y-50037273D01*
X125340284Y-50037276D01*
X125466968Y-50174889D01*
X125492760Y-50202906D01*
X125670424Y-50341189D01*
X125670425Y-50341189D01*
X125670427Y-50341191D01*
X125797135Y-50409761D01*
X125868426Y-50448342D01*
X126081365Y-50521444D01*
X126303431Y-50558500D01*
X126528569Y-50558500D01*
X126750635Y-50521444D01*
X126963574Y-50448342D01*
X127161576Y-50341189D01*
X127339240Y-50202906D01*
X127491722Y-50037268D01*
X127582193Y-49898790D01*
X127635338Y-49853437D01*
X127704569Y-49844013D01*
X127767905Y-49873515D01*
X127789804Y-49898787D01*
X127880278Y-50037268D01*
X127880283Y-50037273D01*
X127880284Y-50037276D01*
X128006968Y-50174889D01*
X128032760Y-50202906D01*
X128210424Y-50341189D01*
X128210425Y-50341189D01*
X128210427Y-50341191D01*
X128337135Y-50409761D01*
X128408426Y-50448342D01*
X128621365Y-50521444D01*
X128843431Y-50558500D01*
X129068569Y-50558500D01*
X129290635Y-50521444D01*
X129503574Y-50448342D01*
X129701576Y-50341189D01*
X129879240Y-50202906D01*
X130031722Y-50037268D01*
X130122193Y-49898790D01*
X130175338Y-49853437D01*
X130244569Y-49844013D01*
X130307905Y-49873515D01*
X130329804Y-49898787D01*
X130420278Y-50037268D01*
X130420283Y-50037273D01*
X130420284Y-50037276D01*
X130546968Y-50174889D01*
X130572760Y-50202906D01*
X130750424Y-50341189D01*
X130750425Y-50341189D01*
X130750427Y-50341191D01*
X130877135Y-50409761D01*
X130948426Y-50448342D01*
X131161365Y-50521444D01*
X131383431Y-50558500D01*
X131608569Y-50558500D01*
X131830635Y-50521444D01*
X132043574Y-50448342D01*
X132241576Y-50341189D01*
X132419240Y-50202906D01*
X132571722Y-50037268D01*
X132662193Y-49898790D01*
X132715338Y-49853437D01*
X132784569Y-49844013D01*
X132847905Y-49873515D01*
X132869804Y-49898787D01*
X132960278Y-50037268D01*
X132960283Y-50037273D01*
X132960284Y-50037276D01*
X133086968Y-50174889D01*
X133112760Y-50202906D01*
X133290424Y-50341189D01*
X133290425Y-50341189D01*
X133290427Y-50341191D01*
X133417135Y-50409761D01*
X133488426Y-50448342D01*
X133701365Y-50521444D01*
X133923431Y-50558500D01*
X134148569Y-50558500D01*
X134370635Y-50521444D01*
X134583574Y-50448342D01*
X134781576Y-50341189D01*
X134959240Y-50202906D01*
X135111722Y-50037268D01*
X135202193Y-49898790D01*
X135255338Y-49853437D01*
X135324569Y-49844013D01*
X135387905Y-49873515D01*
X135409804Y-49898787D01*
X135500278Y-50037268D01*
X135500283Y-50037273D01*
X135500284Y-50037276D01*
X135626968Y-50174889D01*
X135652760Y-50202906D01*
X135830424Y-50341189D01*
X135830425Y-50341189D01*
X135830427Y-50341191D01*
X135957135Y-50409761D01*
X136028426Y-50448342D01*
X136241365Y-50521444D01*
X136463431Y-50558500D01*
X136688569Y-50558500D01*
X136910635Y-50521444D01*
X137123574Y-50448342D01*
X137321576Y-50341189D01*
X137499240Y-50202906D01*
X137651722Y-50037268D01*
X137742193Y-49898790D01*
X137795338Y-49853437D01*
X137864569Y-49844013D01*
X137927905Y-49873515D01*
X137949804Y-49898787D01*
X138040278Y-50037268D01*
X138040283Y-50037273D01*
X138040284Y-50037276D01*
X138166968Y-50174889D01*
X138192760Y-50202906D01*
X138370424Y-50341189D01*
X138370425Y-50341189D01*
X138370427Y-50341191D01*
X138497135Y-50409761D01*
X138568426Y-50448342D01*
X138781365Y-50521444D01*
X139003431Y-50558500D01*
X139228569Y-50558500D01*
X139450635Y-50521444D01*
X139663574Y-50448342D01*
X139861576Y-50341189D01*
X140039240Y-50202906D01*
X140191722Y-50037268D01*
X140282193Y-49898790D01*
X140335338Y-49853437D01*
X140404569Y-49844013D01*
X140467905Y-49873515D01*
X140489804Y-49898787D01*
X140580278Y-50037268D01*
X140580283Y-50037273D01*
X140580284Y-50037276D01*
X140706968Y-50174889D01*
X140732760Y-50202906D01*
X140910424Y-50341189D01*
X140910425Y-50341189D01*
X140910427Y-50341191D01*
X141037135Y-50409761D01*
X141108426Y-50448342D01*
X141321365Y-50521444D01*
X141543431Y-50558500D01*
X141768569Y-50558500D01*
X141990635Y-50521444D01*
X142203574Y-50448342D01*
X142401576Y-50341189D01*
X142579240Y-50202906D01*
X142675212Y-50098654D01*
X144361500Y-50098654D01*
X144368011Y-50159202D01*
X144368011Y-50159204D01*
X144419111Y-50296204D01*
X144506739Y-50413261D01*
X144623796Y-50500889D01*
X144760799Y-50551989D01*
X144788050Y-50554918D01*
X144821345Y-50558499D01*
X144821362Y-50558500D01*
X146618638Y-50558500D01*
X146618654Y-50558499D01*
X146645692Y-50555591D01*
X146679201Y-50551989D01*
X146816204Y-50500889D01*
X146933261Y-50413261D01*
X147020889Y-50296204D01*
X147066138Y-50174887D01*
X147108009Y-50118956D01*
X147173474Y-50094539D01*
X147241746Y-50109391D01*
X147273545Y-50134236D01*
X147336760Y-50202906D01*
X147514424Y-50341189D01*
X147514425Y-50341189D01*
X147514427Y-50341191D01*
X147641135Y-50409761D01*
X147712426Y-50448342D01*
X147925365Y-50521444D01*
X148147431Y-50558500D01*
X148372569Y-50558500D01*
X148594635Y-50521444D01*
X148807574Y-50448342D01*
X149005576Y-50341189D01*
X149183240Y-50202906D01*
X149335722Y-50037268D01*
X149426193Y-49898790D01*
X149479338Y-49853437D01*
X149548569Y-49844013D01*
X149611905Y-49873515D01*
X149633804Y-49898787D01*
X149724278Y-50037268D01*
X149724283Y-50037273D01*
X149724284Y-50037276D01*
X149850968Y-50174889D01*
X149876760Y-50202906D01*
X150054424Y-50341189D01*
X150054425Y-50341189D01*
X150054427Y-50341191D01*
X150181135Y-50409761D01*
X150252426Y-50448342D01*
X150465365Y-50521444D01*
X150687431Y-50558500D01*
X150912569Y-50558500D01*
X151134635Y-50521444D01*
X151347574Y-50448342D01*
X151545576Y-50341189D01*
X151723240Y-50202906D01*
X151875722Y-50037268D01*
X151966193Y-49898790D01*
X152019338Y-49853437D01*
X152088569Y-49844013D01*
X152151905Y-49873515D01*
X152173804Y-49898787D01*
X152264278Y-50037268D01*
X152264283Y-50037273D01*
X152264284Y-50037276D01*
X152390968Y-50174889D01*
X152416760Y-50202906D01*
X152594424Y-50341189D01*
X152594425Y-50341189D01*
X152594427Y-50341191D01*
X152721135Y-50409761D01*
X152792426Y-50448342D01*
X153005365Y-50521444D01*
X153227431Y-50558500D01*
X153452569Y-50558500D01*
X153674635Y-50521444D01*
X153887574Y-50448342D01*
X154085576Y-50341189D01*
X154263240Y-50202906D01*
X154415722Y-50037268D01*
X154506193Y-49898790D01*
X154559338Y-49853437D01*
X154628569Y-49844013D01*
X154691905Y-49873515D01*
X154713804Y-49898787D01*
X154804278Y-50037268D01*
X154804283Y-50037273D01*
X154804284Y-50037276D01*
X154930968Y-50174889D01*
X154956760Y-50202906D01*
X155134424Y-50341189D01*
X155134425Y-50341189D01*
X155134427Y-50341191D01*
X155261135Y-50409761D01*
X155332426Y-50448342D01*
X155545365Y-50521444D01*
X155767431Y-50558500D01*
X155992569Y-50558500D01*
X156214635Y-50521444D01*
X156427574Y-50448342D01*
X156625576Y-50341189D01*
X156803240Y-50202906D01*
X156955722Y-50037268D01*
X157046193Y-49898790D01*
X157099338Y-49853437D01*
X157168569Y-49844013D01*
X157231905Y-49873515D01*
X157253804Y-49898787D01*
X157344278Y-50037268D01*
X157344283Y-50037273D01*
X157344284Y-50037276D01*
X157470968Y-50174889D01*
X157496760Y-50202906D01*
X157674424Y-50341189D01*
X157674425Y-50341189D01*
X157674427Y-50341191D01*
X157801135Y-50409761D01*
X157872426Y-50448342D01*
X158085365Y-50521444D01*
X158307431Y-50558500D01*
X158532569Y-50558500D01*
X158754635Y-50521444D01*
X158967574Y-50448342D01*
X159165576Y-50341189D01*
X159343240Y-50202906D01*
X159495722Y-50037268D01*
X159586193Y-49898790D01*
X159639338Y-49853437D01*
X159708569Y-49844013D01*
X159771905Y-49873515D01*
X159793804Y-49898787D01*
X159884278Y-50037268D01*
X159884283Y-50037273D01*
X159884284Y-50037276D01*
X160010968Y-50174889D01*
X160036760Y-50202906D01*
X160214424Y-50341189D01*
X160214425Y-50341189D01*
X160214427Y-50341191D01*
X160341135Y-50409761D01*
X160412426Y-50448342D01*
X160625365Y-50521444D01*
X160847431Y-50558500D01*
X161072569Y-50558500D01*
X161294635Y-50521444D01*
X161507574Y-50448342D01*
X161705576Y-50341189D01*
X161883240Y-50202906D01*
X162035722Y-50037268D01*
X162126193Y-49898790D01*
X162179338Y-49853437D01*
X162248569Y-49844013D01*
X162311905Y-49873515D01*
X162333804Y-49898787D01*
X162424278Y-50037268D01*
X162424283Y-50037273D01*
X162424284Y-50037276D01*
X162550968Y-50174889D01*
X162576760Y-50202906D01*
X162754424Y-50341189D01*
X162754425Y-50341189D01*
X162754427Y-50341191D01*
X162881135Y-50409761D01*
X162952426Y-50448342D01*
X163165365Y-50521444D01*
X163387431Y-50558500D01*
X163612569Y-50558500D01*
X163834635Y-50521444D01*
X164047574Y-50448342D01*
X164245576Y-50341189D01*
X164423240Y-50202906D01*
X164575722Y-50037268D01*
X164698860Y-49848791D01*
X164789296Y-49642616D01*
X164844564Y-49424368D01*
X164863156Y-49200000D01*
X164859612Y-49157233D01*
X164844565Y-48975640D01*
X164844563Y-48975628D01*
X164789296Y-48757385D01*
X164698859Y-48551207D01*
X164575723Y-48362734D01*
X164575715Y-48362723D01*
X164423243Y-48197097D01*
X164423238Y-48197092D01*
X164245577Y-48058812D01*
X164245572Y-48058808D01*
X164047580Y-47951661D01*
X164047577Y-47951659D01*
X164047574Y-47951658D01*
X164047571Y-47951657D01*
X164047569Y-47951656D01*
X163834637Y-47878556D01*
X163612569Y-47841500D01*
X163387431Y-47841500D01*
X163165362Y-47878556D01*
X162952430Y-47951656D01*
X162952419Y-47951661D01*
X162754427Y-48058808D01*
X162754422Y-48058812D01*
X162576761Y-48197092D01*
X162576756Y-48197097D01*
X162424284Y-48362723D01*
X162424276Y-48362734D01*
X162333808Y-48501206D01*
X162280662Y-48546562D01*
X162211431Y-48555986D01*
X162148095Y-48526484D01*
X162126192Y-48501206D01*
X162035723Y-48362734D01*
X162035715Y-48362723D01*
X161883243Y-48197097D01*
X161883238Y-48197092D01*
X161705577Y-48058812D01*
X161705572Y-48058808D01*
X161507580Y-47951661D01*
X161507577Y-47951659D01*
X161507574Y-47951658D01*
X161507571Y-47951657D01*
X161507569Y-47951656D01*
X161294637Y-47878556D01*
X161072569Y-47841500D01*
X160847431Y-47841500D01*
X160625362Y-47878556D01*
X160412430Y-47951656D01*
X160412419Y-47951661D01*
X160214427Y-48058808D01*
X160214422Y-48058812D01*
X160036761Y-48197092D01*
X160036756Y-48197097D01*
X159884284Y-48362723D01*
X159884276Y-48362734D01*
X159793808Y-48501206D01*
X159740662Y-48546562D01*
X159671431Y-48555986D01*
X159608095Y-48526484D01*
X159586192Y-48501206D01*
X159495723Y-48362734D01*
X159495715Y-48362723D01*
X159343243Y-48197097D01*
X159343238Y-48197092D01*
X159165577Y-48058812D01*
X159165572Y-48058808D01*
X158967580Y-47951661D01*
X158967577Y-47951659D01*
X158967574Y-47951658D01*
X158967571Y-47951657D01*
X158967569Y-47951656D01*
X158754637Y-47878556D01*
X158532569Y-47841500D01*
X158307431Y-47841500D01*
X158085362Y-47878556D01*
X157872430Y-47951656D01*
X157872419Y-47951661D01*
X157674427Y-48058808D01*
X157674422Y-48058812D01*
X157496761Y-48197092D01*
X157496756Y-48197097D01*
X157344284Y-48362723D01*
X157344276Y-48362734D01*
X157253808Y-48501206D01*
X157200662Y-48546562D01*
X157131431Y-48555986D01*
X157068095Y-48526484D01*
X157046192Y-48501206D01*
X156955723Y-48362734D01*
X156955715Y-48362723D01*
X156803243Y-48197097D01*
X156803238Y-48197092D01*
X156625577Y-48058812D01*
X156625572Y-48058808D01*
X156427580Y-47951661D01*
X156427577Y-47951659D01*
X156427574Y-47951658D01*
X156427571Y-47951657D01*
X156427569Y-47951656D01*
X156214637Y-47878556D01*
X155992569Y-47841500D01*
X155767431Y-47841500D01*
X155545362Y-47878556D01*
X155332430Y-47951656D01*
X155332419Y-47951661D01*
X155134427Y-48058808D01*
X155134422Y-48058812D01*
X154956761Y-48197092D01*
X154956756Y-48197097D01*
X154804284Y-48362723D01*
X154804276Y-48362734D01*
X154713808Y-48501206D01*
X154660662Y-48546562D01*
X154591431Y-48555986D01*
X154528095Y-48526484D01*
X154506192Y-48501206D01*
X154415723Y-48362734D01*
X154415715Y-48362723D01*
X154263243Y-48197097D01*
X154263238Y-48197092D01*
X154085577Y-48058812D01*
X154085572Y-48058808D01*
X153887580Y-47951661D01*
X153887577Y-47951659D01*
X153887574Y-47951658D01*
X153887571Y-47951657D01*
X153887569Y-47951656D01*
X153674637Y-47878556D01*
X153452569Y-47841500D01*
X153227431Y-47841500D01*
X153005362Y-47878556D01*
X152792430Y-47951656D01*
X152792419Y-47951661D01*
X152594427Y-48058808D01*
X152594422Y-48058812D01*
X152416761Y-48197092D01*
X152416756Y-48197097D01*
X152264284Y-48362723D01*
X152264276Y-48362734D01*
X152173808Y-48501206D01*
X152120662Y-48546562D01*
X152051431Y-48555986D01*
X151988095Y-48526484D01*
X151966192Y-48501206D01*
X151875723Y-48362734D01*
X151875715Y-48362723D01*
X151723243Y-48197097D01*
X151723238Y-48197092D01*
X151545577Y-48058812D01*
X151545572Y-48058808D01*
X151347580Y-47951661D01*
X151347577Y-47951659D01*
X151347574Y-47951658D01*
X151347571Y-47951657D01*
X151347569Y-47951656D01*
X151134637Y-47878556D01*
X150912569Y-47841500D01*
X150687431Y-47841500D01*
X150465362Y-47878556D01*
X150252430Y-47951656D01*
X150252419Y-47951661D01*
X150054427Y-48058808D01*
X150054422Y-48058812D01*
X149876761Y-48197092D01*
X149876756Y-48197097D01*
X149724284Y-48362723D01*
X149724276Y-48362734D01*
X149633808Y-48501206D01*
X149580662Y-48546562D01*
X149511431Y-48555986D01*
X149448095Y-48526484D01*
X149426192Y-48501206D01*
X149335723Y-48362734D01*
X149335715Y-48362723D01*
X149183243Y-48197097D01*
X149183238Y-48197092D01*
X149005577Y-48058812D01*
X149005572Y-48058808D01*
X148807580Y-47951661D01*
X148807577Y-47951659D01*
X148807574Y-47951658D01*
X148807571Y-47951657D01*
X148807569Y-47951656D01*
X148594637Y-47878556D01*
X148372569Y-47841500D01*
X148147431Y-47841500D01*
X147925362Y-47878556D01*
X147712430Y-47951656D01*
X147712419Y-47951661D01*
X147514427Y-48058808D01*
X147514422Y-48058812D01*
X147336761Y-48197092D01*
X147273548Y-48265760D01*
X147213661Y-48301750D01*
X147143823Y-48299649D01*
X147086207Y-48260124D01*
X147066138Y-48225110D01*
X147020889Y-48103796D01*
X146987214Y-48058812D01*
X146933261Y-47986739D01*
X146816204Y-47899111D01*
X146679203Y-47848011D01*
X146618654Y-47841500D01*
X146618638Y-47841500D01*
X144821362Y-47841500D01*
X144821345Y-47841500D01*
X144760797Y-47848011D01*
X144760795Y-47848011D01*
X144623795Y-47899111D01*
X144506739Y-47986739D01*
X144419111Y-48103795D01*
X144368011Y-48240795D01*
X144368011Y-48240797D01*
X144361500Y-48301345D01*
X144361500Y-50098654D01*
X142675212Y-50098654D01*
X142731722Y-50037268D01*
X142854860Y-49848791D01*
X142945296Y-49642616D01*
X143000564Y-49424368D01*
X143019156Y-49200000D01*
X143015612Y-49157233D01*
X143000565Y-48975640D01*
X143000563Y-48975628D01*
X142945296Y-48757385D01*
X142854859Y-48551207D01*
X142731723Y-48362734D01*
X142731715Y-48362723D01*
X142579243Y-48197097D01*
X142579238Y-48197092D01*
X142401577Y-48058812D01*
X142401572Y-48058808D01*
X142203580Y-47951661D01*
X142203577Y-47951659D01*
X142203574Y-47951658D01*
X142203571Y-47951657D01*
X142203569Y-47951656D01*
X141990637Y-47878556D01*
X141768569Y-47841500D01*
X141543431Y-47841500D01*
X141321362Y-47878556D01*
X141108430Y-47951656D01*
X141108419Y-47951661D01*
X140910427Y-48058808D01*
X140910422Y-48058812D01*
X140732761Y-48197092D01*
X140732756Y-48197097D01*
X140580284Y-48362723D01*
X140580276Y-48362734D01*
X140489808Y-48501206D01*
X140436662Y-48546562D01*
X140367431Y-48555986D01*
X140304095Y-48526484D01*
X140282192Y-48501206D01*
X140191723Y-48362734D01*
X140191715Y-48362723D01*
X140039243Y-48197097D01*
X140039238Y-48197092D01*
X139861577Y-48058812D01*
X139861572Y-48058808D01*
X139663580Y-47951661D01*
X139663577Y-47951659D01*
X139663574Y-47951658D01*
X139663571Y-47951657D01*
X139663569Y-47951656D01*
X139450637Y-47878556D01*
X139228569Y-47841500D01*
X139003431Y-47841500D01*
X138781362Y-47878556D01*
X138568430Y-47951656D01*
X138568419Y-47951661D01*
X138370427Y-48058808D01*
X138370422Y-48058812D01*
X138192761Y-48197092D01*
X138192756Y-48197097D01*
X138040284Y-48362723D01*
X138040276Y-48362734D01*
X137949808Y-48501206D01*
X137896662Y-48546562D01*
X137827431Y-48555986D01*
X137764095Y-48526484D01*
X137742192Y-48501206D01*
X137651723Y-48362734D01*
X137651715Y-48362723D01*
X137499243Y-48197097D01*
X137499238Y-48197092D01*
X137321577Y-48058812D01*
X137321572Y-48058808D01*
X137123580Y-47951661D01*
X137123577Y-47951659D01*
X137123574Y-47951658D01*
X137123571Y-47951657D01*
X137123569Y-47951656D01*
X136910637Y-47878556D01*
X136688569Y-47841500D01*
X136463431Y-47841500D01*
X136241362Y-47878556D01*
X136028430Y-47951656D01*
X136028419Y-47951661D01*
X135830427Y-48058808D01*
X135830422Y-48058812D01*
X135652761Y-48197092D01*
X135652756Y-48197097D01*
X135500284Y-48362723D01*
X135500276Y-48362734D01*
X135409808Y-48501206D01*
X135356662Y-48546562D01*
X135287431Y-48555986D01*
X135224095Y-48526484D01*
X135202192Y-48501206D01*
X135111723Y-48362734D01*
X135111715Y-48362723D01*
X134959243Y-48197097D01*
X134959238Y-48197092D01*
X134781577Y-48058812D01*
X134781572Y-48058808D01*
X134583580Y-47951661D01*
X134583577Y-47951659D01*
X134583574Y-47951658D01*
X134583571Y-47951657D01*
X134583569Y-47951656D01*
X134370637Y-47878556D01*
X134148569Y-47841500D01*
X133923431Y-47841500D01*
X133701362Y-47878556D01*
X133488430Y-47951656D01*
X133488419Y-47951661D01*
X133290427Y-48058808D01*
X133290422Y-48058812D01*
X133112761Y-48197092D01*
X133112756Y-48197097D01*
X132960284Y-48362723D01*
X132960276Y-48362734D01*
X132869808Y-48501206D01*
X132816662Y-48546562D01*
X132747431Y-48555986D01*
X132684095Y-48526484D01*
X132662192Y-48501206D01*
X132571723Y-48362734D01*
X132571715Y-48362723D01*
X132419243Y-48197097D01*
X132419238Y-48197092D01*
X132241577Y-48058812D01*
X132241572Y-48058808D01*
X132043580Y-47951661D01*
X132043577Y-47951659D01*
X132043574Y-47951658D01*
X132043571Y-47951657D01*
X132043569Y-47951656D01*
X131830637Y-47878556D01*
X131608569Y-47841500D01*
X131383431Y-47841500D01*
X131161362Y-47878556D01*
X130948430Y-47951656D01*
X130948419Y-47951661D01*
X130750427Y-48058808D01*
X130750422Y-48058812D01*
X130572761Y-48197092D01*
X130572756Y-48197097D01*
X130420284Y-48362723D01*
X130420276Y-48362734D01*
X130329808Y-48501206D01*
X130276662Y-48546562D01*
X130207431Y-48555986D01*
X130144095Y-48526484D01*
X130122192Y-48501206D01*
X130031723Y-48362734D01*
X130031715Y-48362723D01*
X129879243Y-48197097D01*
X129879238Y-48197092D01*
X129701577Y-48058812D01*
X129701572Y-48058808D01*
X129503580Y-47951661D01*
X129503577Y-47951659D01*
X129503574Y-47951658D01*
X129503571Y-47951657D01*
X129503569Y-47951656D01*
X129290637Y-47878556D01*
X129068569Y-47841500D01*
X128843431Y-47841500D01*
X128621362Y-47878556D01*
X128408430Y-47951656D01*
X128408419Y-47951661D01*
X128210427Y-48058808D01*
X128210422Y-48058812D01*
X128032761Y-48197092D01*
X128032756Y-48197097D01*
X127880284Y-48362723D01*
X127880276Y-48362734D01*
X127789808Y-48501206D01*
X127736662Y-48546562D01*
X127667431Y-48555986D01*
X127604095Y-48526484D01*
X127582192Y-48501206D01*
X127491723Y-48362734D01*
X127491715Y-48362723D01*
X127339243Y-48197097D01*
X127339238Y-48197092D01*
X127161577Y-48058812D01*
X127161572Y-48058808D01*
X126963580Y-47951661D01*
X126963577Y-47951659D01*
X126963574Y-47951658D01*
X126963571Y-47951657D01*
X126963569Y-47951656D01*
X126750637Y-47878556D01*
X126528569Y-47841500D01*
X126303431Y-47841500D01*
X126081362Y-47878556D01*
X125868430Y-47951656D01*
X125868419Y-47951661D01*
X125670427Y-48058808D01*
X125670422Y-48058812D01*
X125492761Y-48197092D01*
X125492756Y-48197097D01*
X125340284Y-48362723D01*
X125340276Y-48362734D01*
X125249808Y-48501206D01*
X125196662Y-48546562D01*
X125127431Y-48555986D01*
X125064095Y-48526484D01*
X125042192Y-48501206D01*
X124951723Y-48362734D01*
X124951715Y-48362723D01*
X124799243Y-48197097D01*
X124799238Y-48197092D01*
X124621577Y-48058812D01*
X124621572Y-48058808D01*
X124423580Y-47951661D01*
X124423577Y-47951659D01*
X124423574Y-47951658D01*
X124423571Y-47951657D01*
X124423569Y-47951656D01*
X124210637Y-47878556D01*
X123988569Y-47841500D01*
X123763431Y-47841500D01*
X123541362Y-47878556D01*
X123328430Y-47951656D01*
X123328419Y-47951661D01*
X123130427Y-48058808D01*
X123130422Y-48058812D01*
X122952761Y-48197092D01*
X122952756Y-48197097D01*
X122800284Y-48362723D01*
X122800276Y-48362734D01*
X122709808Y-48501206D01*
X122656662Y-48546562D01*
X122587431Y-48555986D01*
X122524095Y-48526484D01*
X122502192Y-48501206D01*
X122411723Y-48362734D01*
X122411715Y-48362723D01*
X122259243Y-48197097D01*
X122259238Y-48197092D01*
X122081577Y-48058812D01*
X122081572Y-48058808D01*
X121883580Y-47951661D01*
X121883577Y-47951659D01*
X121883574Y-47951658D01*
X121883571Y-47951657D01*
X121883569Y-47951656D01*
X121670637Y-47878556D01*
X121448569Y-47841500D01*
X121223431Y-47841500D01*
X121001362Y-47878556D01*
X120788430Y-47951656D01*
X120788419Y-47951661D01*
X120590427Y-48058808D01*
X120590422Y-48058812D01*
X120412761Y-48197092D01*
X120349548Y-48265760D01*
X120289661Y-48301750D01*
X120219823Y-48299649D01*
X120162207Y-48260124D01*
X120142138Y-48225110D01*
X120096889Y-48103796D01*
X120063214Y-48058812D01*
X120009261Y-47986739D01*
X119892204Y-47899111D01*
X119755203Y-47848011D01*
X119694654Y-47841500D01*
X119694638Y-47841500D01*
X117897362Y-47841500D01*
X117897345Y-47841500D01*
X117836797Y-47848011D01*
X117836795Y-47848011D01*
X117699795Y-47899111D01*
X117582739Y-47986739D01*
X117495111Y-48103795D01*
X117444011Y-48240795D01*
X117444011Y-48240797D01*
X117437500Y-48301345D01*
X117437500Y-50098654D01*
X100075500Y-50098654D01*
X100075500Y-47428092D01*
X100076097Y-47415938D01*
X100087494Y-47300222D01*
X100092234Y-47276389D01*
X100124216Y-47170959D01*
X100133508Y-47148526D01*
X100185442Y-47051365D01*
X100198938Y-47031166D01*
X100268827Y-46946006D01*
X100286006Y-46928827D01*
X100371166Y-46858938D01*
X100391365Y-46845442D01*
X100488526Y-46793508D01*
X100510959Y-46784216D01*
X100616389Y-46752234D01*
X100640220Y-46747494D01*
X100755939Y-46736097D01*
X100768093Y-46735500D01*
X100786531Y-46735500D01*
X163417365Y-46735500D01*
X163484404Y-46755185D01*
G37*
%TD.AperFunction*%
%TD*%
M02*
