%TF.GenerationSoftware,KiCad,Pcbnew,8.0.1*%
%TF.CreationDate,2024-05-19T12:18:13+02:00*%
%TF.ProjectId,80_KiCad,38305f4b-6943-4616-942e-6b696361645f,v1.1*%
%TF.SameCoordinates,Original*%
%TF.FileFunction,Legend,Bot*%
%TF.FilePolarity,Positive*%
%FSLAX46Y46*%
G04 Gerber Fmt 4.6, Leading zero omitted, Abs format (unit mm)*
G04 Created by KiCad (PCBNEW 8.0.1) date 2024-05-19 12:18:13*
%MOMM*%
%LPD*%
G01*
G04 APERTURE LIST*
%ADD10C,0.150000*%
%ADD11C,0.120000*%
G04 APERTURE END LIST*
D10*
X125064819Y-97126666D02*
X125779104Y-97126666D01*
X125779104Y-97126666D02*
X125921961Y-97079047D01*
X125921961Y-97079047D02*
X126017200Y-96983809D01*
X126017200Y-96983809D02*
X126064819Y-96840952D01*
X126064819Y-96840952D02*
X126064819Y-96745714D01*
X126064819Y-98126666D02*
X126064819Y-97555238D01*
X126064819Y-97840952D02*
X125064819Y-97840952D01*
X125064819Y-97840952D02*
X125207676Y-97745714D01*
X125207676Y-97745714D02*
X125302914Y-97650476D01*
X125302914Y-97650476D02*
X125350533Y-97555238D01*
X147924819Y-97126666D02*
X148639104Y-97126666D01*
X148639104Y-97126666D02*
X148781961Y-97079047D01*
X148781961Y-97079047D02*
X148877200Y-96983809D01*
X148877200Y-96983809D02*
X148924819Y-96840952D01*
X148924819Y-96840952D02*
X148924819Y-96745714D01*
X147924819Y-97507619D02*
X147924819Y-98126666D01*
X147924819Y-98126666D02*
X148305771Y-97793333D01*
X148305771Y-97793333D02*
X148305771Y-97936190D01*
X148305771Y-97936190D02*
X148353390Y-98031428D01*
X148353390Y-98031428D02*
X148401009Y-98079047D01*
X148401009Y-98079047D02*
X148496247Y-98126666D01*
X148496247Y-98126666D02*
X148734342Y-98126666D01*
X148734342Y-98126666D02*
X148829580Y-98079047D01*
X148829580Y-98079047D02*
X148877200Y-98031428D01*
X148877200Y-98031428D02*
X148924819Y-97936190D01*
X148924819Y-97936190D02*
X148924819Y-97650476D01*
X148924819Y-97650476D02*
X148877200Y-97555238D01*
X148877200Y-97555238D02*
X148829580Y-97507619D01*
X115920819Y-48866666D02*
X116635104Y-48866666D01*
X116635104Y-48866666D02*
X116777961Y-48819047D01*
X116777961Y-48819047D02*
X116873200Y-48723809D01*
X116873200Y-48723809D02*
X116920819Y-48580952D01*
X116920819Y-48580952D02*
X116920819Y-48485714D01*
X116016057Y-49295238D02*
X115968438Y-49342857D01*
X115968438Y-49342857D02*
X115920819Y-49438095D01*
X115920819Y-49438095D02*
X115920819Y-49676190D01*
X115920819Y-49676190D02*
X115968438Y-49771428D01*
X115968438Y-49771428D02*
X116016057Y-49819047D01*
X116016057Y-49819047D02*
X116111295Y-49866666D01*
X116111295Y-49866666D02*
X116206533Y-49866666D01*
X116206533Y-49866666D02*
X116349390Y-49819047D01*
X116349390Y-49819047D02*
X116920819Y-49247619D01*
X116920819Y-49247619D02*
X116920819Y-49866666D01*
X145658333Y-51529819D02*
X145658333Y-52244104D01*
X145658333Y-52244104D02*
X145705952Y-52386961D01*
X145705952Y-52386961D02*
X145801190Y-52482200D01*
X145801190Y-52482200D02*
X145944047Y-52529819D01*
X145944047Y-52529819D02*
X146039285Y-52529819D01*
X144753571Y-51863152D02*
X144753571Y-52529819D01*
X144991666Y-51482200D02*
X145229761Y-52196485D01*
X145229761Y-52196485D02*
X144610714Y-52196485D01*
D11*
%TO.C,J1*%
X126610000Y-96130000D02*
X127940000Y-96130000D01*
X126610000Y-97460000D02*
X126610000Y-96130000D01*
X129210000Y-98790000D02*
X129210000Y-96130000D01*
X147050000Y-96130000D02*
X129210000Y-96130000D01*
X147050000Y-98790000D02*
X129210000Y-98790000D01*
X147050000Y-98790000D02*
X147050000Y-96130000D01*
%TO.C,J3*%
X149470000Y-96130000D02*
X150800000Y-96130000D01*
X149470000Y-97460000D02*
X149470000Y-96130000D01*
X152070000Y-98790000D02*
X152070000Y-96130000D01*
X164830000Y-96130000D02*
X152070000Y-96130000D01*
X164830000Y-98790000D02*
X152070000Y-98790000D01*
X164830000Y-98790000D02*
X164830000Y-96130000D01*
%TO.C,J2*%
X117466000Y-47870000D02*
X118796000Y-47870000D01*
X117466000Y-49200000D02*
X117466000Y-47870000D01*
X120066000Y-50530000D02*
X120066000Y-47870000D01*
X142986000Y-47870000D02*
X120066000Y-47870000D01*
X142986000Y-50530000D02*
X120066000Y-50530000D01*
X142986000Y-50530000D02*
X142986000Y-47870000D01*
%TO.C,J4*%
X144390000Y-47870000D02*
X145720000Y-47870000D01*
X144390000Y-49200000D02*
X144390000Y-47870000D01*
X146990000Y-50530000D02*
X146990000Y-47870000D01*
X164830000Y-47870000D02*
X146990000Y-47870000D01*
X164830000Y-50530000D02*
X146990000Y-50530000D01*
X164830000Y-50530000D02*
X164830000Y-47870000D01*
%TD*%
M02*
