%TF.GenerationSoftware,KiCad,Pcbnew,8.0.1*%
%TF.CreationDate,2024-05-23T07:44:25+02:00*%
%TF.ProjectId,80_KiCad,38305f4b-6943-4616-942e-6b696361645f,v1.1*%
%TF.SameCoordinates,Original*%
%TF.FileFunction,Legend,Top*%
%TF.FilePolarity,Positive*%
%FSLAX46Y46*%
G04 Gerber Fmt 4.6, Leading zero omitted, Abs format (unit mm)*
G04 Created by KiCad (PCBNEW 8.0.1) date 2024-05-23 07:44:25*
%MOMM*%
%LPD*%
G01*
G04 APERTURE LIST*
%ADD10C,0.150000*%
%ADD11C,0.120000*%
G04 APERTURE END LIST*
D10*
X110889987Y-91638220D02*
X109889987Y-91638220D01*
X109889987Y-91638220D02*
X110604272Y-91304887D01*
X110604272Y-91304887D02*
X109889987Y-90971554D01*
X109889987Y-90971554D02*
X110889987Y-90971554D01*
X110889987Y-90352506D02*
X110842368Y-90447744D01*
X110842368Y-90447744D02*
X110794748Y-90495363D01*
X110794748Y-90495363D02*
X110699510Y-90542982D01*
X110699510Y-90542982D02*
X110413796Y-90542982D01*
X110413796Y-90542982D02*
X110318558Y-90495363D01*
X110318558Y-90495363D02*
X110270939Y-90447744D01*
X110270939Y-90447744D02*
X110223320Y-90352506D01*
X110223320Y-90352506D02*
X110223320Y-90209649D01*
X110223320Y-90209649D02*
X110270939Y-90114411D01*
X110270939Y-90114411D02*
X110318558Y-90066792D01*
X110318558Y-90066792D02*
X110413796Y-90019173D01*
X110413796Y-90019173D02*
X110699510Y-90019173D01*
X110699510Y-90019173D02*
X110794748Y-90066792D01*
X110794748Y-90066792D02*
X110842368Y-90114411D01*
X110842368Y-90114411D02*
X110889987Y-90209649D01*
X110889987Y-90209649D02*
X110889987Y-90352506D01*
X110223320Y-89685839D02*
X110889987Y-89447744D01*
X110889987Y-89447744D02*
X110223320Y-89209649D01*
X110842368Y-88447744D02*
X110889987Y-88542982D01*
X110889987Y-88542982D02*
X110889987Y-88733458D01*
X110889987Y-88733458D02*
X110842368Y-88828696D01*
X110842368Y-88828696D02*
X110747129Y-88876315D01*
X110747129Y-88876315D02*
X110366177Y-88876315D01*
X110366177Y-88876315D02*
X110270939Y-88828696D01*
X110270939Y-88828696D02*
X110223320Y-88733458D01*
X110223320Y-88733458D02*
X110223320Y-88542982D01*
X110223320Y-88542982D02*
X110270939Y-88447744D01*
X110270939Y-88447744D02*
X110366177Y-88400125D01*
X110366177Y-88400125D02*
X110461415Y-88400125D01*
X110461415Y-88400125D02*
X110556653Y-88876315D01*
X110889987Y-87971553D02*
X110223320Y-87971553D01*
X110318558Y-87971553D02*
X110270939Y-87923934D01*
X110270939Y-87923934D02*
X110223320Y-87828696D01*
X110223320Y-87828696D02*
X110223320Y-87685839D01*
X110223320Y-87685839D02*
X110270939Y-87590601D01*
X110270939Y-87590601D02*
X110366177Y-87542982D01*
X110366177Y-87542982D02*
X110889987Y-87542982D01*
X110366177Y-87542982D02*
X110270939Y-87495363D01*
X110270939Y-87495363D02*
X110223320Y-87400125D01*
X110223320Y-87400125D02*
X110223320Y-87257268D01*
X110223320Y-87257268D02*
X110270939Y-87162029D01*
X110270939Y-87162029D02*
X110366177Y-87114410D01*
X110366177Y-87114410D02*
X110889987Y-87114410D01*
X110842368Y-86257268D02*
X110889987Y-86352506D01*
X110889987Y-86352506D02*
X110889987Y-86542982D01*
X110889987Y-86542982D02*
X110842368Y-86638220D01*
X110842368Y-86638220D02*
X110747129Y-86685839D01*
X110747129Y-86685839D02*
X110366177Y-86685839D01*
X110366177Y-86685839D02*
X110270939Y-86638220D01*
X110270939Y-86638220D02*
X110223320Y-86542982D01*
X110223320Y-86542982D02*
X110223320Y-86352506D01*
X110223320Y-86352506D02*
X110270939Y-86257268D01*
X110270939Y-86257268D02*
X110366177Y-86209649D01*
X110366177Y-86209649D02*
X110461415Y-86209649D01*
X110461415Y-86209649D02*
X110556653Y-86685839D01*
X110223320Y-85781077D02*
X110889987Y-85781077D01*
X110318558Y-85781077D02*
X110270939Y-85733458D01*
X110270939Y-85733458D02*
X110223320Y-85638220D01*
X110223320Y-85638220D02*
X110223320Y-85495363D01*
X110223320Y-85495363D02*
X110270939Y-85400125D01*
X110270939Y-85400125D02*
X110366177Y-85352506D01*
X110366177Y-85352506D02*
X110889987Y-85352506D01*
X110223320Y-85019172D02*
X110223320Y-84638220D01*
X109889987Y-84876315D02*
X110747129Y-84876315D01*
X110747129Y-84876315D02*
X110842368Y-84828696D01*
X110842368Y-84828696D02*
X110889987Y-84733458D01*
X110889987Y-84733458D02*
X110889987Y-84638220D01*
X110889987Y-83542981D02*
X109889987Y-83542981D01*
X109889987Y-83542981D02*
X109889987Y-83304886D01*
X109889987Y-83304886D02*
X109937606Y-83162029D01*
X109937606Y-83162029D02*
X110032844Y-83066791D01*
X110032844Y-83066791D02*
X110128082Y-83019172D01*
X110128082Y-83019172D02*
X110318558Y-82971553D01*
X110318558Y-82971553D02*
X110461415Y-82971553D01*
X110461415Y-82971553D02*
X110651891Y-83019172D01*
X110651891Y-83019172D02*
X110747129Y-83066791D01*
X110747129Y-83066791D02*
X110842368Y-83162029D01*
X110842368Y-83162029D02*
X110889987Y-83304886D01*
X110889987Y-83304886D02*
X110889987Y-83542981D01*
X110842368Y-82162029D02*
X110889987Y-82257267D01*
X110889987Y-82257267D02*
X110889987Y-82447743D01*
X110889987Y-82447743D02*
X110842368Y-82542981D01*
X110842368Y-82542981D02*
X110747129Y-82590600D01*
X110747129Y-82590600D02*
X110366177Y-82590600D01*
X110366177Y-82590600D02*
X110270939Y-82542981D01*
X110270939Y-82542981D02*
X110223320Y-82447743D01*
X110223320Y-82447743D02*
X110223320Y-82257267D01*
X110223320Y-82257267D02*
X110270939Y-82162029D01*
X110270939Y-82162029D02*
X110366177Y-82114410D01*
X110366177Y-82114410D02*
X110461415Y-82114410D01*
X110461415Y-82114410D02*
X110556653Y-82590600D01*
X110223320Y-81828695D02*
X110223320Y-81447743D01*
X109889987Y-81685838D02*
X110747129Y-81685838D01*
X110747129Y-81685838D02*
X110842368Y-81638219D01*
X110842368Y-81638219D02*
X110889987Y-81542981D01*
X110889987Y-81542981D02*
X110889987Y-81447743D01*
X110842368Y-80733457D02*
X110889987Y-80828695D01*
X110889987Y-80828695D02*
X110889987Y-81019171D01*
X110889987Y-81019171D02*
X110842368Y-81114409D01*
X110842368Y-81114409D02*
X110747129Y-81162028D01*
X110747129Y-81162028D02*
X110366177Y-81162028D01*
X110366177Y-81162028D02*
X110270939Y-81114409D01*
X110270939Y-81114409D02*
X110223320Y-81019171D01*
X110223320Y-81019171D02*
X110223320Y-80828695D01*
X110223320Y-80828695D02*
X110270939Y-80733457D01*
X110270939Y-80733457D02*
X110366177Y-80685838D01*
X110366177Y-80685838D02*
X110461415Y-80685838D01*
X110461415Y-80685838D02*
X110556653Y-81162028D01*
X110842368Y-79828695D02*
X110889987Y-79923933D01*
X110889987Y-79923933D02*
X110889987Y-80114409D01*
X110889987Y-80114409D02*
X110842368Y-80209647D01*
X110842368Y-80209647D02*
X110794748Y-80257266D01*
X110794748Y-80257266D02*
X110699510Y-80304885D01*
X110699510Y-80304885D02*
X110413796Y-80304885D01*
X110413796Y-80304885D02*
X110318558Y-80257266D01*
X110318558Y-80257266D02*
X110270939Y-80209647D01*
X110270939Y-80209647D02*
X110223320Y-80114409D01*
X110223320Y-80114409D02*
X110223320Y-79923933D01*
X110223320Y-79923933D02*
X110270939Y-79828695D01*
X110223320Y-79542980D02*
X110223320Y-79162028D01*
X109889987Y-79400123D02*
X110747129Y-79400123D01*
X110747129Y-79400123D02*
X110842368Y-79352504D01*
X110842368Y-79352504D02*
X110889987Y-79257266D01*
X110889987Y-79257266D02*
X110889987Y-79162028D01*
X110889987Y-78685837D02*
X110842368Y-78781075D01*
X110842368Y-78781075D02*
X110794748Y-78828694D01*
X110794748Y-78828694D02*
X110699510Y-78876313D01*
X110699510Y-78876313D02*
X110413796Y-78876313D01*
X110413796Y-78876313D02*
X110318558Y-78828694D01*
X110318558Y-78828694D02*
X110270939Y-78781075D01*
X110270939Y-78781075D02*
X110223320Y-78685837D01*
X110223320Y-78685837D02*
X110223320Y-78542980D01*
X110223320Y-78542980D02*
X110270939Y-78447742D01*
X110270939Y-78447742D02*
X110318558Y-78400123D01*
X110318558Y-78400123D02*
X110413796Y-78352504D01*
X110413796Y-78352504D02*
X110699510Y-78352504D01*
X110699510Y-78352504D02*
X110794748Y-78400123D01*
X110794748Y-78400123D02*
X110842368Y-78447742D01*
X110842368Y-78447742D02*
X110889987Y-78542980D01*
X110889987Y-78542980D02*
X110889987Y-78685837D01*
X110889987Y-77923932D02*
X110223320Y-77923932D01*
X110413796Y-77923932D02*
X110318558Y-77876313D01*
X110318558Y-77876313D02*
X110270939Y-77828694D01*
X110270939Y-77828694D02*
X110223320Y-77733456D01*
X110223320Y-77733456D02*
X110223320Y-77638218D01*
X112499931Y-91066792D02*
X112023740Y-91400125D01*
X112499931Y-91638220D02*
X111499931Y-91638220D01*
X111499931Y-91638220D02*
X111499931Y-91257268D01*
X111499931Y-91257268D02*
X111547550Y-91162030D01*
X111547550Y-91162030D02*
X111595169Y-91114411D01*
X111595169Y-91114411D02*
X111690407Y-91066792D01*
X111690407Y-91066792D02*
X111833264Y-91066792D01*
X111833264Y-91066792D02*
X111928502Y-91114411D01*
X111928502Y-91114411D02*
X111976121Y-91162030D01*
X111976121Y-91162030D02*
X112023740Y-91257268D01*
X112023740Y-91257268D02*
X112023740Y-91638220D01*
X112499931Y-90209649D02*
X111976121Y-90209649D01*
X111976121Y-90209649D02*
X111880883Y-90257268D01*
X111880883Y-90257268D02*
X111833264Y-90352506D01*
X111833264Y-90352506D02*
X111833264Y-90542982D01*
X111833264Y-90542982D02*
X111880883Y-90638220D01*
X112452312Y-90209649D02*
X112499931Y-90304887D01*
X112499931Y-90304887D02*
X112499931Y-90542982D01*
X112499931Y-90542982D02*
X112452312Y-90638220D01*
X112452312Y-90638220D02*
X112357073Y-90685839D01*
X112357073Y-90685839D02*
X112261835Y-90685839D01*
X112261835Y-90685839D02*
X112166597Y-90638220D01*
X112166597Y-90638220D02*
X112118978Y-90542982D01*
X112118978Y-90542982D02*
X112118978Y-90304887D01*
X112118978Y-90304887D02*
X112071359Y-90209649D01*
X112499931Y-89733458D02*
X111499931Y-89733458D01*
X112118978Y-89638220D02*
X112499931Y-89352506D01*
X111833264Y-89352506D02*
X112214216Y-89733458D01*
X112452312Y-88971553D02*
X112499931Y-88876315D01*
X112499931Y-88876315D02*
X112499931Y-88685839D01*
X112499931Y-88685839D02*
X112452312Y-88590601D01*
X112452312Y-88590601D02*
X112357073Y-88542982D01*
X112357073Y-88542982D02*
X112309454Y-88542982D01*
X112309454Y-88542982D02*
X112214216Y-88590601D01*
X112214216Y-88590601D02*
X112166597Y-88685839D01*
X112166597Y-88685839D02*
X112166597Y-88828696D01*
X112166597Y-88828696D02*
X112118978Y-88923934D01*
X112118978Y-88923934D02*
X112023740Y-88971553D01*
X112023740Y-88971553D02*
X111976121Y-88971553D01*
X111976121Y-88971553D02*
X111880883Y-88923934D01*
X111880883Y-88923934D02*
X111833264Y-88828696D01*
X111833264Y-88828696D02*
X111833264Y-88685839D01*
X111833264Y-88685839D02*
X111880883Y-88590601D01*
X112499931Y-88114410D02*
X111499931Y-88114410D01*
X112499931Y-87685839D02*
X111976121Y-87685839D01*
X111976121Y-87685839D02*
X111880883Y-87733458D01*
X111880883Y-87733458D02*
X111833264Y-87828696D01*
X111833264Y-87828696D02*
X111833264Y-87971553D01*
X111833264Y-87971553D02*
X111880883Y-88066791D01*
X111880883Y-88066791D02*
X111928502Y-88114410D01*
X112499931Y-87209648D02*
X111833264Y-87209648D01*
X111499931Y-87209648D02*
X111547550Y-87257267D01*
X111547550Y-87257267D02*
X111595169Y-87209648D01*
X111595169Y-87209648D02*
X111547550Y-87162029D01*
X111547550Y-87162029D02*
X111499931Y-87209648D01*
X111499931Y-87209648D02*
X111595169Y-87209648D01*
X111833264Y-86876315D02*
X111833264Y-86495363D01*
X111499931Y-86733458D02*
X112357073Y-86733458D01*
X112357073Y-86733458D02*
X112452312Y-86685839D01*
X112452312Y-86685839D02*
X112499931Y-86590601D01*
X112499931Y-86590601D02*
X112499931Y-86495363D01*
X112499931Y-85733458D02*
X111976121Y-85733458D01*
X111976121Y-85733458D02*
X111880883Y-85781077D01*
X111880883Y-85781077D02*
X111833264Y-85876315D01*
X111833264Y-85876315D02*
X111833264Y-86066791D01*
X111833264Y-86066791D02*
X111880883Y-86162029D01*
X112452312Y-85733458D02*
X112499931Y-85828696D01*
X112499931Y-85828696D02*
X112499931Y-86066791D01*
X112499931Y-86066791D02*
X112452312Y-86162029D01*
X112452312Y-86162029D02*
X112357073Y-86209648D01*
X112357073Y-86209648D02*
X112261835Y-86209648D01*
X112261835Y-86209648D02*
X112166597Y-86162029D01*
X112166597Y-86162029D02*
X112118978Y-86066791D01*
X112118978Y-86066791D02*
X112118978Y-85828696D01*
X112118978Y-85828696D02*
X112071359Y-85733458D01*
X112880883Y-84209648D02*
X112833264Y-84257267D01*
X112833264Y-84257267D02*
X112690407Y-84352505D01*
X112690407Y-84352505D02*
X112595169Y-84400124D01*
X112595169Y-84400124D02*
X112452312Y-84447743D01*
X112452312Y-84447743D02*
X112214216Y-84495362D01*
X112214216Y-84495362D02*
X112023740Y-84495362D01*
X112023740Y-84495362D02*
X111785645Y-84447743D01*
X111785645Y-84447743D02*
X111642788Y-84400124D01*
X111642788Y-84400124D02*
X111547550Y-84352505D01*
X111547550Y-84352505D02*
X111404692Y-84257267D01*
X111404692Y-84257267D02*
X111357073Y-84209648D01*
X112499931Y-83304886D02*
X112499931Y-83876314D01*
X112499931Y-83590600D02*
X111499931Y-83590600D01*
X111499931Y-83590600D02*
X111642788Y-83685838D01*
X111642788Y-83685838D02*
X111738026Y-83781076D01*
X111738026Y-83781076D02*
X111785645Y-83876314D01*
X112499931Y-82352505D02*
X112499931Y-82923933D01*
X112499931Y-82638219D02*
X111499931Y-82638219D01*
X111499931Y-82638219D02*
X111642788Y-82733457D01*
X111642788Y-82733457D02*
X111738026Y-82828695D01*
X111738026Y-82828695D02*
X111785645Y-82923933D01*
X111595169Y-81971552D02*
X111547550Y-81923933D01*
X111547550Y-81923933D02*
X111499931Y-81828695D01*
X111499931Y-81828695D02*
X111499931Y-81590600D01*
X111499931Y-81590600D02*
X111547550Y-81495362D01*
X111547550Y-81495362D02*
X111595169Y-81447743D01*
X111595169Y-81447743D02*
X111690407Y-81400124D01*
X111690407Y-81400124D02*
X111785645Y-81400124D01*
X111785645Y-81400124D02*
X111928502Y-81447743D01*
X111928502Y-81447743D02*
X112499931Y-82019171D01*
X112499931Y-82019171D02*
X112499931Y-81400124D01*
X111499931Y-81066790D02*
X111499931Y-80400124D01*
X111499931Y-80400124D02*
X112499931Y-80828695D01*
X112499931Y-79971552D02*
X112499931Y-79781076D01*
X112499931Y-79781076D02*
X112452312Y-79685838D01*
X112452312Y-79685838D02*
X112404692Y-79638219D01*
X112404692Y-79638219D02*
X112261835Y-79542981D01*
X112261835Y-79542981D02*
X112071359Y-79495362D01*
X112071359Y-79495362D02*
X111690407Y-79495362D01*
X111690407Y-79495362D02*
X111595169Y-79542981D01*
X111595169Y-79542981D02*
X111547550Y-79590600D01*
X111547550Y-79590600D02*
X111499931Y-79685838D01*
X111499931Y-79685838D02*
X111499931Y-79876314D01*
X111499931Y-79876314D02*
X111547550Y-79971552D01*
X111547550Y-79971552D02*
X111595169Y-80019171D01*
X111595169Y-80019171D02*
X111690407Y-80066790D01*
X111690407Y-80066790D02*
X111928502Y-80066790D01*
X111928502Y-80066790D02*
X112023740Y-80019171D01*
X112023740Y-80019171D02*
X112071359Y-79971552D01*
X112071359Y-79971552D02*
X112118978Y-79876314D01*
X112118978Y-79876314D02*
X112118978Y-79685838D01*
X112118978Y-79685838D02*
X112071359Y-79590600D01*
X112071359Y-79590600D02*
X112023740Y-79542981D01*
X112023740Y-79542981D02*
X111928502Y-79495362D01*
X112499931Y-79019171D02*
X112499931Y-78828695D01*
X112499931Y-78828695D02*
X112452312Y-78733457D01*
X112452312Y-78733457D02*
X112404692Y-78685838D01*
X112404692Y-78685838D02*
X112261835Y-78590600D01*
X112261835Y-78590600D02*
X112071359Y-78542981D01*
X112071359Y-78542981D02*
X111690407Y-78542981D01*
X111690407Y-78542981D02*
X111595169Y-78590600D01*
X111595169Y-78590600D02*
X111547550Y-78638219D01*
X111547550Y-78638219D02*
X111499931Y-78733457D01*
X111499931Y-78733457D02*
X111499931Y-78923933D01*
X111499931Y-78923933D02*
X111547550Y-79019171D01*
X111547550Y-79019171D02*
X111595169Y-79066790D01*
X111595169Y-79066790D02*
X111690407Y-79114409D01*
X111690407Y-79114409D02*
X111928502Y-79114409D01*
X111928502Y-79114409D02*
X112023740Y-79066790D01*
X112023740Y-79066790D02*
X112071359Y-79019171D01*
X112071359Y-79019171D02*
X112118978Y-78923933D01*
X112118978Y-78923933D02*
X112118978Y-78733457D01*
X112118978Y-78733457D02*
X112071359Y-78638219D01*
X112071359Y-78638219D02*
X112023740Y-78590600D01*
X112023740Y-78590600D02*
X111928502Y-78542981D01*
X111499931Y-77923933D02*
X111499931Y-77828695D01*
X111499931Y-77828695D02*
X111547550Y-77733457D01*
X111547550Y-77733457D02*
X111595169Y-77685838D01*
X111595169Y-77685838D02*
X111690407Y-77638219D01*
X111690407Y-77638219D02*
X111880883Y-77590600D01*
X111880883Y-77590600D02*
X112118978Y-77590600D01*
X112118978Y-77590600D02*
X112309454Y-77638219D01*
X112309454Y-77638219D02*
X112404692Y-77685838D01*
X112404692Y-77685838D02*
X112452312Y-77733457D01*
X112452312Y-77733457D02*
X112499931Y-77828695D01*
X112499931Y-77828695D02*
X112499931Y-77923933D01*
X112499931Y-77923933D02*
X112452312Y-78019171D01*
X112452312Y-78019171D02*
X112404692Y-78066790D01*
X112404692Y-78066790D02*
X112309454Y-78114409D01*
X112309454Y-78114409D02*
X112118978Y-78162028D01*
X112118978Y-78162028D02*
X111880883Y-78162028D01*
X111880883Y-78162028D02*
X111690407Y-78114409D01*
X111690407Y-78114409D02*
X111595169Y-78066790D01*
X111595169Y-78066790D02*
X111547550Y-78019171D01*
X111547550Y-78019171D02*
X111499931Y-77923933D01*
X112880883Y-77257266D02*
X112833264Y-77209647D01*
X112833264Y-77209647D02*
X112690407Y-77114409D01*
X112690407Y-77114409D02*
X112595169Y-77066790D01*
X112595169Y-77066790D02*
X112452312Y-77019171D01*
X112452312Y-77019171D02*
X112214216Y-76971552D01*
X112214216Y-76971552D02*
X112023740Y-76971552D01*
X112023740Y-76971552D02*
X111785645Y-77019171D01*
X111785645Y-77019171D02*
X111642788Y-77066790D01*
X111642788Y-77066790D02*
X111547550Y-77114409D01*
X111547550Y-77114409D02*
X111404692Y-77209647D01*
X111404692Y-77209647D02*
X111357073Y-77257266D01*
X113109875Y-91733458D02*
X113109875Y-91066792D01*
X113109875Y-91066792D02*
X114109875Y-91733458D01*
X114109875Y-91733458D02*
X114109875Y-91066792D01*
X114109875Y-90257268D02*
X113586065Y-90257268D01*
X113586065Y-90257268D02*
X113490827Y-90304887D01*
X113490827Y-90304887D02*
X113443208Y-90400125D01*
X113443208Y-90400125D02*
X113443208Y-90590601D01*
X113443208Y-90590601D02*
X113490827Y-90685839D01*
X114062256Y-90257268D02*
X114109875Y-90352506D01*
X114109875Y-90352506D02*
X114109875Y-90590601D01*
X114109875Y-90590601D02*
X114062256Y-90685839D01*
X114062256Y-90685839D02*
X113967017Y-90733458D01*
X113967017Y-90733458D02*
X113871779Y-90733458D01*
X113871779Y-90733458D02*
X113776541Y-90685839D01*
X113776541Y-90685839D02*
X113728922Y-90590601D01*
X113728922Y-90590601D02*
X113728922Y-90352506D01*
X113728922Y-90352506D02*
X113681303Y-90257268D01*
X114109875Y-89781077D02*
X113109875Y-89781077D01*
X113728922Y-89685839D02*
X114109875Y-89400125D01*
X113443208Y-89400125D02*
X113824160Y-89781077D01*
X114109875Y-88971553D02*
X113443208Y-88971553D01*
X113109875Y-88971553D02*
X113157494Y-89019172D01*
X113157494Y-89019172D02*
X113205113Y-88971553D01*
X113205113Y-88971553D02*
X113157494Y-88923934D01*
X113157494Y-88923934D02*
X113109875Y-88971553D01*
X113109875Y-88971553D02*
X113205113Y-88971553D01*
X114490827Y-87447744D02*
X114443208Y-87495363D01*
X114443208Y-87495363D02*
X114300351Y-87590601D01*
X114300351Y-87590601D02*
X114205113Y-87638220D01*
X114205113Y-87638220D02*
X114062256Y-87685839D01*
X114062256Y-87685839D02*
X113824160Y-87733458D01*
X113824160Y-87733458D02*
X113633684Y-87733458D01*
X113633684Y-87733458D02*
X113395589Y-87685839D01*
X113395589Y-87685839D02*
X113252732Y-87638220D01*
X113252732Y-87638220D02*
X113157494Y-87590601D01*
X113157494Y-87590601D02*
X113014636Y-87495363D01*
X113014636Y-87495363D02*
X112967017Y-87447744D01*
X114109875Y-86542982D02*
X114109875Y-87114410D01*
X114109875Y-86828696D02*
X113109875Y-86828696D01*
X113109875Y-86828696D02*
X113252732Y-86923934D01*
X113252732Y-86923934D02*
X113347970Y-87019172D01*
X113347970Y-87019172D02*
X113395589Y-87114410D01*
X114109875Y-85590601D02*
X114109875Y-86162029D01*
X114109875Y-85876315D02*
X113109875Y-85876315D01*
X113109875Y-85876315D02*
X113252732Y-85971553D01*
X113252732Y-85971553D02*
X113347970Y-86066791D01*
X113347970Y-86066791D02*
X113395589Y-86162029D01*
X113205113Y-85209648D02*
X113157494Y-85162029D01*
X113157494Y-85162029D02*
X113109875Y-85066791D01*
X113109875Y-85066791D02*
X113109875Y-84828696D01*
X113109875Y-84828696D02*
X113157494Y-84733458D01*
X113157494Y-84733458D02*
X113205113Y-84685839D01*
X113205113Y-84685839D02*
X113300351Y-84638220D01*
X113300351Y-84638220D02*
X113395589Y-84638220D01*
X113395589Y-84638220D02*
X113538446Y-84685839D01*
X113538446Y-84685839D02*
X114109875Y-85257267D01*
X114109875Y-85257267D02*
X114109875Y-84638220D01*
X113109875Y-84304886D02*
X113109875Y-83638220D01*
X113109875Y-83638220D02*
X114109875Y-84066791D01*
X114109875Y-83209648D02*
X114109875Y-83019172D01*
X114109875Y-83019172D02*
X114062256Y-82923934D01*
X114062256Y-82923934D02*
X114014636Y-82876315D01*
X114014636Y-82876315D02*
X113871779Y-82781077D01*
X113871779Y-82781077D02*
X113681303Y-82733458D01*
X113681303Y-82733458D02*
X113300351Y-82733458D01*
X113300351Y-82733458D02*
X113205113Y-82781077D01*
X113205113Y-82781077D02*
X113157494Y-82828696D01*
X113157494Y-82828696D02*
X113109875Y-82923934D01*
X113109875Y-82923934D02*
X113109875Y-83114410D01*
X113109875Y-83114410D02*
X113157494Y-83209648D01*
X113157494Y-83209648D02*
X113205113Y-83257267D01*
X113205113Y-83257267D02*
X113300351Y-83304886D01*
X113300351Y-83304886D02*
X113538446Y-83304886D01*
X113538446Y-83304886D02*
X113633684Y-83257267D01*
X113633684Y-83257267D02*
X113681303Y-83209648D01*
X113681303Y-83209648D02*
X113728922Y-83114410D01*
X113728922Y-83114410D02*
X113728922Y-82923934D01*
X113728922Y-82923934D02*
X113681303Y-82828696D01*
X113681303Y-82828696D02*
X113633684Y-82781077D01*
X113633684Y-82781077D02*
X113538446Y-82733458D01*
X114109875Y-82257267D02*
X114109875Y-82066791D01*
X114109875Y-82066791D02*
X114062256Y-81971553D01*
X114062256Y-81971553D02*
X114014636Y-81923934D01*
X114014636Y-81923934D02*
X113871779Y-81828696D01*
X113871779Y-81828696D02*
X113681303Y-81781077D01*
X113681303Y-81781077D02*
X113300351Y-81781077D01*
X113300351Y-81781077D02*
X113205113Y-81828696D01*
X113205113Y-81828696D02*
X113157494Y-81876315D01*
X113157494Y-81876315D02*
X113109875Y-81971553D01*
X113109875Y-81971553D02*
X113109875Y-82162029D01*
X113109875Y-82162029D02*
X113157494Y-82257267D01*
X113157494Y-82257267D02*
X113205113Y-82304886D01*
X113205113Y-82304886D02*
X113300351Y-82352505D01*
X113300351Y-82352505D02*
X113538446Y-82352505D01*
X113538446Y-82352505D02*
X113633684Y-82304886D01*
X113633684Y-82304886D02*
X113681303Y-82257267D01*
X113681303Y-82257267D02*
X113728922Y-82162029D01*
X113728922Y-82162029D02*
X113728922Y-81971553D01*
X113728922Y-81971553D02*
X113681303Y-81876315D01*
X113681303Y-81876315D02*
X113633684Y-81828696D01*
X113633684Y-81828696D02*
X113538446Y-81781077D01*
X113109875Y-80876315D02*
X113109875Y-81352505D01*
X113109875Y-81352505D02*
X113586065Y-81400124D01*
X113586065Y-81400124D02*
X113538446Y-81352505D01*
X113538446Y-81352505D02*
X113490827Y-81257267D01*
X113490827Y-81257267D02*
X113490827Y-81019172D01*
X113490827Y-81019172D02*
X113538446Y-80923934D01*
X113538446Y-80923934D02*
X113586065Y-80876315D01*
X113586065Y-80876315D02*
X113681303Y-80828696D01*
X113681303Y-80828696D02*
X113919398Y-80828696D01*
X113919398Y-80828696D02*
X114014636Y-80876315D01*
X114014636Y-80876315D02*
X114062256Y-80923934D01*
X114062256Y-80923934D02*
X114109875Y-81019172D01*
X114109875Y-81019172D02*
X114109875Y-81257267D01*
X114109875Y-81257267D02*
X114062256Y-81352505D01*
X114062256Y-81352505D02*
X114014636Y-81400124D01*
X114490827Y-80495362D02*
X114443208Y-80447743D01*
X114443208Y-80447743D02*
X114300351Y-80352505D01*
X114300351Y-80352505D02*
X114205113Y-80304886D01*
X114205113Y-80304886D02*
X114062256Y-80257267D01*
X114062256Y-80257267D02*
X113824160Y-80209648D01*
X113824160Y-80209648D02*
X113633684Y-80209648D01*
X113633684Y-80209648D02*
X113395589Y-80257267D01*
X113395589Y-80257267D02*
X113252732Y-80304886D01*
X113252732Y-80304886D02*
X113157494Y-80352505D01*
X113157494Y-80352505D02*
X113014636Y-80447743D01*
X113014636Y-80447743D02*
X112967017Y-80495362D01*
X115053152Y-91733458D02*
X115719819Y-91495363D01*
X115719819Y-91495363D02*
X115053152Y-91257268D01*
X115719819Y-90352506D02*
X115719819Y-90923934D01*
X115719819Y-90638220D02*
X114719819Y-90638220D01*
X114719819Y-90638220D02*
X114862676Y-90733458D01*
X114862676Y-90733458D02*
X114957914Y-90828696D01*
X114957914Y-90828696D02*
X115005533Y-90923934D01*
X115624580Y-89923934D02*
X115672200Y-89876315D01*
X115672200Y-89876315D02*
X115719819Y-89923934D01*
X115719819Y-89923934D02*
X115672200Y-89971553D01*
X115672200Y-89971553D02*
X115624580Y-89923934D01*
X115624580Y-89923934D02*
X115719819Y-89923934D01*
X115719819Y-88923935D02*
X115719819Y-89495363D01*
X115719819Y-89209649D02*
X114719819Y-89209649D01*
X114719819Y-89209649D02*
X114862676Y-89304887D01*
X114862676Y-89304887D02*
X114957914Y-89400125D01*
X114957914Y-89400125D02*
X115005533Y-89495363D01*
X135506905Y-52094819D02*
X135506905Y-51094819D01*
X135506905Y-51094819D02*
X135745000Y-51094819D01*
X135745000Y-51094819D02*
X135887857Y-51142438D01*
X135887857Y-51142438D02*
X135983095Y-51237676D01*
X135983095Y-51237676D02*
X136030714Y-51332914D01*
X136030714Y-51332914D02*
X136078333Y-51523390D01*
X136078333Y-51523390D02*
X136078333Y-51666247D01*
X136078333Y-51666247D02*
X136030714Y-51856723D01*
X136030714Y-51856723D02*
X135983095Y-51951961D01*
X135983095Y-51951961D02*
X135887857Y-52047200D01*
X135887857Y-52047200D02*
X135745000Y-52094819D01*
X135745000Y-52094819D02*
X135506905Y-52094819D01*
X136459286Y-51190057D02*
X136506905Y-51142438D01*
X136506905Y-51142438D02*
X136602143Y-51094819D01*
X136602143Y-51094819D02*
X136840238Y-51094819D01*
X136840238Y-51094819D02*
X136935476Y-51142438D01*
X136935476Y-51142438D02*
X136983095Y-51190057D01*
X136983095Y-51190057D02*
X137030714Y-51285295D01*
X137030714Y-51285295D02*
X137030714Y-51380533D01*
X137030714Y-51380533D02*
X136983095Y-51523390D01*
X136983095Y-51523390D02*
X136411667Y-52094819D01*
X136411667Y-52094819D02*
X137030714Y-52094819D01*
X157616667Y-52707200D02*
X157759524Y-52754819D01*
X157759524Y-52754819D02*
X157997619Y-52754819D01*
X157997619Y-52754819D02*
X158092857Y-52707200D01*
X158092857Y-52707200D02*
X158140476Y-52659580D01*
X158140476Y-52659580D02*
X158188095Y-52564342D01*
X158188095Y-52564342D02*
X158188095Y-52469104D01*
X158188095Y-52469104D02*
X158140476Y-52373866D01*
X158140476Y-52373866D02*
X158092857Y-52326247D01*
X158092857Y-52326247D02*
X157997619Y-52278628D01*
X157997619Y-52278628D02*
X157807143Y-52231009D01*
X157807143Y-52231009D02*
X157711905Y-52183390D01*
X157711905Y-52183390D02*
X157664286Y-52135771D01*
X157664286Y-52135771D02*
X157616667Y-52040533D01*
X157616667Y-52040533D02*
X157616667Y-51945295D01*
X157616667Y-51945295D02*
X157664286Y-51850057D01*
X157664286Y-51850057D02*
X157711905Y-51802438D01*
X157711905Y-51802438D02*
X157807143Y-51754819D01*
X157807143Y-51754819D02*
X158045238Y-51754819D01*
X158045238Y-51754819D02*
X158188095Y-51802438D01*
X158521429Y-51754819D02*
X158759524Y-52754819D01*
X158759524Y-52754819D02*
X158950000Y-52040533D01*
X158950000Y-52040533D02*
X159140476Y-52754819D01*
X159140476Y-52754819D02*
X159378572Y-51754819D01*
X160283333Y-52754819D02*
X159711905Y-52754819D01*
X159997619Y-52754819D02*
X159997619Y-51754819D01*
X159997619Y-51754819D02*
X159902381Y-51897676D01*
X159902381Y-51897676D02*
X159807143Y-51992914D01*
X159807143Y-51992914D02*
X159711905Y-52040533D01*
X133313095Y-60404819D02*
X133313095Y-61214342D01*
X133313095Y-61214342D02*
X133360714Y-61309580D01*
X133360714Y-61309580D02*
X133408333Y-61357200D01*
X133408333Y-61357200D02*
X133503571Y-61404819D01*
X133503571Y-61404819D02*
X133694047Y-61404819D01*
X133694047Y-61404819D02*
X133789285Y-61357200D01*
X133789285Y-61357200D02*
X133836904Y-61309580D01*
X133836904Y-61309580D02*
X133884523Y-61214342D01*
X133884523Y-61214342D02*
X133884523Y-60404819D01*
X134884523Y-61404819D02*
X134313095Y-61404819D01*
X134598809Y-61404819D02*
X134598809Y-60404819D01*
X134598809Y-60404819D02*
X134503571Y-60547676D01*
X134503571Y-60547676D02*
X134408333Y-60642914D01*
X134408333Y-60642914D02*
X134313095Y-60690533D01*
X125008333Y-74334580D02*
X124960714Y-74382200D01*
X124960714Y-74382200D02*
X124817857Y-74429819D01*
X124817857Y-74429819D02*
X124722619Y-74429819D01*
X124722619Y-74429819D02*
X124579762Y-74382200D01*
X124579762Y-74382200D02*
X124484524Y-74286961D01*
X124484524Y-74286961D02*
X124436905Y-74191723D01*
X124436905Y-74191723D02*
X124389286Y-74001247D01*
X124389286Y-74001247D02*
X124389286Y-73858390D01*
X124389286Y-73858390D02*
X124436905Y-73667914D01*
X124436905Y-73667914D02*
X124484524Y-73572676D01*
X124484524Y-73572676D02*
X124579762Y-73477438D01*
X124579762Y-73477438D02*
X124722619Y-73429819D01*
X124722619Y-73429819D02*
X124817857Y-73429819D01*
X124817857Y-73429819D02*
X124960714Y-73477438D01*
X124960714Y-73477438D02*
X125008333Y-73525057D01*
X125389286Y-73525057D02*
X125436905Y-73477438D01*
X125436905Y-73477438D02*
X125532143Y-73429819D01*
X125532143Y-73429819D02*
X125770238Y-73429819D01*
X125770238Y-73429819D02*
X125865476Y-73477438D01*
X125865476Y-73477438D02*
X125913095Y-73525057D01*
X125913095Y-73525057D02*
X125960714Y-73620295D01*
X125960714Y-73620295D02*
X125960714Y-73715533D01*
X125960714Y-73715533D02*
X125913095Y-73858390D01*
X125913095Y-73858390D02*
X125341667Y-74429819D01*
X125341667Y-74429819D02*
X125960714Y-74429819D01*
X101491667Y-48854819D02*
X101825000Y-49854819D01*
X101825000Y-49854819D02*
X102158333Y-48854819D01*
X103063095Y-49759580D02*
X103015476Y-49807200D01*
X103015476Y-49807200D02*
X102872619Y-49854819D01*
X102872619Y-49854819D02*
X102777381Y-49854819D01*
X102777381Y-49854819D02*
X102634524Y-49807200D01*
X102634524Y-49807200D02*
X102539286Y-49711961D01*
X102539286Y-49711961D02*
X102491667Y-49616723D01*
X102491667Y-49616723D02*
X102444048Y-49426247D01*
X102444048Y-49426247D02*
X102444048Y-49283390D01*
X102444048Y-49283390D02*
X102491667Y-49092914D01*
X102491667Y-49092914D02*
X102539286Y-48997676D01*
X102539286Y-48997676D02*
X102634524Y-48902438D01*
X102634524Y-48902438D02*
X102777381Y-48854819D01*
X102777381Y-48854819D02*
X102872619Y-48854819D01*
X102872619Y-48854819D02*
X103015476Y-48902438D01*
X103015476Y-48902438D02*
X103063095Y-48950057D01*
X104063095Y-49759580D02*
X104015476Y-49807200D01*
X104015476Y-49807200D02*
X103872619Y-49854819D01*
X103872619Y-49854819D02*
X103777381Y-49854819D01*
X103777381Y-49854819D02*
X103634524Y-49807200D01*
X103634524Y-49807200D02*
X103539286Y-49711961D01*
X103539286Y-49711961D02*
X103491667Y-49616723D01*
X103491667Y-49616723D02*
X103444048Y-49426247D01*
X103444048Y-49426247D02*
X103444048Y-49283390D01*
X103444048Y-49283390D02*
X103491667Y-49092914D01*
X103491667Y-49092914D02*
X103539286Y-48997676D01*
X103539286Y-48997676D02*
X103634524Y-48902438D01*
X103634524Y-48902438D02*
X103777381Y-48854819D01*
X103777381Y-48854819D02*
X103872619Y-48854819D01*
X103872619Y-48854819D02*
X104015476Y-48902438D01*
X104015476Y-48902438D02*
X104063095Y-48950057D01*
X109113095Y-93352438D02*
X109017857Y-93304819D01*
X109017857Y-93304819D02*
X108875000Y-93304819D01*
X108875000Y-93304819D02*
X108732143Y-93352438D01*
X108732143Y-93352438D02*
X108636905Y-93447676D01*
X108636905Y-93447676D02*
X108589286Y-93542914D01*
X108589286Y-93542914D02*
X108541667Y-93733390D01*
X108541667Y-93733390D02*
X108541667Y-93876247D01*
X108541667Y-93876247D02*
X108589286Y-94066723D01*
X108589286Y-94066723D02*
X108636905Y-94161961D01*
X108636905Y-94161961D02*
X108732143Y-94257200D01*
X108732143Y-94257200D02*
X108875000Y-94304819D01*
X108875000Y-94304819D02*
X108970238Y-94304819D01*
X108970238Y-94304819D02*
X109113095Y-94257200D01*
X109113095Y-94257200D02*
X109160714Y-94209580D01*
X109160714Y-94209580D02*
X109160714Y-93876247D01*
X109160714Y-93876247D02*
X108970238Y-93876247D01*
X109589286Y-94304819D02*
X109589286Y-93304819D01*
X109589286Y-93304819D02*
X110160714Y-94304819D01*
X110160714Y-94304819D02*
X110160714Y-93304819D01*
X110636905Y-94304819D02*
X110636905Y-93304819D01*
X110636905Y-93304819D02*
X110875000Y-93304819D01*
X110875000Y-93304819D02*
X111017857Y-93352438D01*
X111017857Y-93352438D02*
X111113095Y-93447676D01*
X111113095Y-93447676D02*
X111160714Y-93542914D01*
X111160714Y-93542914D02*
X111208333Y-93733390D01*
X111208333Y-93733390D02*
X111208333Y-93876247D01*
X111208333Y-93876247D02*
X111160714Y-94066723D01*
X111160714Y-94066723D02*
X111113095Y-94161961D01*
X111113095Y-94161961D02*
X111017857Y-94257200D01*
X111017857Y-94257200D02*
X110875000Y-94304819D01*
X110875000Y-94304819D02*
X110636905Y-94304819D01*
X114332142Y-64629819D02*
X113998809Y-64153628D01*
X113760714Y-64629819D02*
X113760714Y-63629819D01*
X113760714Y-63629819D02*
X114141666Y-63629819D01*
X114141666Y-63629819D02*
X114236904Y-63677438D01*
X114236904Y-63677438D02*
X114284523Y-63725057D01*
X114284523Y-63725057D02*
X114332142Y-63820295D01*
X114332142Y-63820295D02*
X114332142Y-63963152D01*
X114332142Y-63963152D02*
X114284523Y-64058390D01*
X114284523Y-64058390D02*
X114236904Y-64106009D01*
X114236904Y-64106009D02*
X114141666Y-64153628D01*
X114141666Y-64153628D02*
X113760714Y-64153628D01*
X115284523Y-64629819D02*
X114713095Y-64629819D01*
X114998809Y-64629819D02*
X114998809Y-63629819D01*
X114998809Y-63629819D02*
X114903571Y-63772676D01*
X114903571Y-63772676D02*
X114808333Y-63867914D01*
X114808333Y-63867914D02*
X114713095Y-63915533D01*
X115903571Y-63629819D02*
X115998809Y-63629819D01*
X115998809Y-63629819D02*
X116094047Y-63677438D01*
X116094047Y-63677438D02*
X116141666Y-63725057D01*
X116141666Y-63725057D02*
X116189285Y-63820295D01*
X116189285Y-63820295D02*
X116236904Y-64010771D01*
X116236904Y-64010771D02*
X116236904Y-64248866D01*
X116236904Y-64248866D02*
X116189285Y-64439342D01*
X116189285Y-64439342D02*
X116141666Y-64534580D01*
X116141666Y-64534580D02*
X116094047Y-64582200D01*
X116094047Y-64582200D02*
X115998809Y-64629819D01*
X115998809Y-64629819D02*
X115903571Y-64629819D01*
X115903571Y-64629819D02*
X115808333Y-64582200D01*
X115808333Y-64582200D02*
X115760714Y-64534580D01*
X115760714Y-64534580D02*
X115713095Y-64439342D01*
X115713095Y-64439342D02*
X115665476Y-64248866D01*
X115665476Y-64248866D02*
X115665476Y-64010771D01*
X115665476Y-64010771D02*
X115713095Y-63820295D01*
X115713095Y-63820295D02*
X115760714Y-63725057D01*
X115760714Y-63725057D02*
X115808333Y-63677438D01*
X115808333Y-63677438D02*
X115903571Y-63629819D01*
X114583333Y-59204819D02*
X114250000Y-58728628D01*
X114011905Y-59204819D02*
X114011905Y-58204819D01*
X114011905Y-58204819D02*
X114392857Y-58204819D01*
X114392857Y-58204819D02*
X114488095Y-58252438D01*
X114488095Y-58252438D02*
X114535714Y-58300057D01*
X114535714Y-58300057D02*
X114583333Y-58395295D01*
X114583333Y-58395295D02*
X114583333Y-58538152D01*
X114583333Y-58538152D02*
X114535714Y-58633390D01*
X114535714Y-58633390D02*
X114488095Y-58681009D01*
X114488095Y-58681009D02*
X114392857Y-58728628D01*
X114392857Y-58728628D02*
X114011905Y-58728628D01*
X115059524Y-59204819D02*
X115250000Y-59204819D01*
X115250000Y-59204819D02*
X115345238Y-59157200D01*
X115345238Y-59157200D02*
X115392857Y-59109580D01*
X115392857Y-59109580D02*
X115488095Y-58966723D01*
X115488095Y-58966723D02*
X115535714Y-58776247D01*
X115535714Y-58776247D02*
X115535714Y-58395295D01*
X115535714Y-58395295D02*
X115488095Y-58300057D01*
X115488095Y-58300057D02*
X115440476Y-58252438D01*
X115440476Y-58252438D02*
X115345238Y-58204819D01*
X115345238Y-58204819D02*
X115154762Y-58204819D01*
X115154762Y-58204819D02*
X115059524Y-58252438D01*
X115059524Y-58252438D02*
X115011905Y-58300057D01*
X115011905Y-58300057D02*
X114964286Y-58395295D01*
X114964286Y-58395295D02*
X114964286Y-58633390D01*
X114964286Y-58633390D02*
X115011905Y-58728628D01*
X115011905Y-58728628D02*
X115059524Y-58776247D01*
X115059524Y-58776247D02*
X115154762Y-58823866D01*
X115154762Y-58823866D02*
X115345238Y-58823866D01*
X115345238Y-58823866D02*
X115440476Y-58776247D01*
X115440476Y-58776247D02*
X115488095Y-58728628D01*
X115488095Y-58728628D02*
X115535714Y-58633390D01*
X145656905Y-51994819D02*
X145656905Y-50994819D01*
X145656905Y-50994819D02*
X145895000Y-50994819D01*
X145895000Y-50994819D02*
X146037857Y-51042438D01*
X146037857Y-51042438D02*
X146133095Y-51137676D01*
X146133095Y-51137676D02*
X146180714Y-51232914D01*
X146180714Y-51232914D02*
X146228333Y-51423390D01*
X146228333Y-51423390D02*
X146228333Y-51566247D01*
X146228333Y-51566247D02*
X146180714Y-51756723D01*
X146180714Y-51756723D02*
X146133095Y-51851961D01*
X146133095Y-51851961D02*
X146037857Y-51947200D01*
X146037857Y-51947200D02*
X145895000Y-51994819D01*
X145895000Y-51994819D02*
X145656905Y-51994819D01*
X146561667Y-50994819D02*
X147180714Y-50994819D01*
X147180714Y-50994819D02*
X146847381Y-51375771D01*
X146847381Y-51375771D02*
X146990238Y-51375771D01*
X146990238Y-51375771D02*
X147085476Y-51423390D01*
X147085476Y-51423390D02*
X147133095Y-51471009D01*
X147133095Y-51471009D02*
X147180714Y-51566247D01*
X147180714Y-51566247D02*
X147180714Y-51804342D01*
X147180714Y-51804342D02*
X147133095Y-51899580D01*
X147133095Y-51899580D02*
X147085476Y-51947200D01*
X147085476Y-51947200D02*
X146990238Y-51994819D01*
X146990238Y-51994819D02*
X146704524Y-51994819D01*
X146704524Y-51994819D02*
X146609286Y-51947200D01*
X146609286Y-51947200D02*
X146561667Y-51899580D01*
X105744104Y-89790475D02*
X105744104Y-89314285D01*
X106029819Y-89885713D02*
X105029819Y-89552380D01*
X105029819Y-89552380D02*
X106029819Y-89219047D01*
X106125057Y-89123809D02*
X106125057Y-88361904D01*
X106029819Y-88123808D02*
X105029819Y-88123808D01*
X105363152Y-87647618D02*
X106029819Y-87647618D01*
X105458390Y-87647618D02*
X105410771Y-87599999D01*
X105410771Y-87599999D02*
X105363152Y-87504761D01*
X105363152Y-87504761D02*
X105363152Y-87361904D01*
X105363152Y-87361904D02*
X105410771Y-87266666D01*
X105410771Y-87266666D02*
X105506009Y-87219047D01*
X105506009Y-87219047D02*
X106029819Y-87219047D01*
X106125057Y-86980952D02*
X106125057Y-86219047D01*
X106029819Y-85980951D02*
X105029819Y-85980951D01*
X105029819Y-85980951D02*
X105029819Y-85599999D01*
X105029819Y-85599999D02*
X105077438Y-85504761D01*
X105077438Y-85504761D02*
X105125057Y-85457142D01*
X105125057Y-85457142D02*
X105220295Y-85409523D01*
X105220295Y-85409523D02*
X105363152Y-85409523D01*
X105363152Y-85409523D02*
X105458390Y-85457142D01*
X105458390Y-85457142D02*
X105506009Y-85504761D01*
X105506009Y-85504761D02*
X105553628Y-85599999D01*
X105553628Y-85599999D02*
X105553628Y-85980951D01*
X105144104Y-68215475D02*
X105144104Y-67739285D01*
X105429819Y-68310713D02*
X104429819Y-67977380D01*
X104429819Y-67977380D02*
X105429819Y-67644047D01*
X105429819Y-66786904D02*
X105429819Y-67358332D01*
X105429819Y-67072618D02*
X104429819Y-67072618D01*
X104429819Y-67072618D02*
X104572676Y-67167856D01*
X104572676Y-67167856D02*
X104667914Y-67263094D01*
X104667914Y-67263094D02*
X104715533Y-67358332D01*
X105525057Y-66596428D02*
X105525057Y-65834523D01*
X105429819Y-65596427D02*
X104429819Y-65596427D01*
X104763152Y-65120237D02*
X105429819Y-65120237D01*
X104858390Y-65120237D02*
X104810771Y-65072618D01*
X104810771Y-65072618D02*
X104763152Y-64977380D01*
X104763152Y-64977380D02*
X104763152Y-64834523D01*
X104763152Y-64834523D02*
X104810771Y-64739285D01*
X104810771Y-64739285D02*
X104906009Y-64691666D01*
X104906009Y-64691666D02*
X105429819Y-64691666D01*
X105525057Y-64453571D02*
X105525057Y-63691666D01*
X105429819Y-63453570D02*
X104429819Y-63453570D01*
X104429819Y-63453570D02*
X105429819Y-62882142D01*
X105429819Y-62882142D02*
X104429819Y-62882142D01*
X133708333Y-73834580D02*
X133660714Y-73882200D01*
X133660714Y-73882200D02*
X133517857Y-73929819D01*
X133517857Y-73929819D02*
X133422619Y-73929819D01*
X133422619Y-73929819D02*
X133279762Y-73882200D01*
X133279762Y-73882200D02*
X133184524Y-73786961D01*
X133184524Y-73786961D02*
X133136905Y-73691723D01*
X133136905Y-73691723D02*
X133089286Y-73501247D01*
X133089286Y-73501247D02*
X133089286Y-73358390D01*
X133089286Y-73358390D02*
X133136905Y-73167914D01*
X133136905Y-73167914D02*
X133184524Y-73072676D01*
X133184524Y-73072676D02*
X133279762Y-72977438D01*
X133279762Y-72977438D02*
X133422619Y-72929819D01*
X133422619Y-72929819D02*
X133517857Y-72929819D01*
X133517857Y-72929819D02*
X133660714Y-72977438D01*
X133660714Y-72977438D02*
X133708333Y-73025057D01*
X134613095Y-72929819D02*
X134136905Y-72929819D01*
X134136905Y-72929819D02*
X134089286Y-73406009D01*
X134089286Y-73406009D02*
X134136905Y-73358390D01*
X134136905Y-73358390D02*
X134232143Y-73310771D01*
X134232143Y-73310771D02*
X134470238Y-73310771D01*
X134470238Y-73310771D02*
X134565476Y-73358390D01*
X134565476Y-73358390D02*
X134613095Y-73406009D01*
X134613095Y-73406009D02*
X134660714Y-73501247D01*
X134660714Y-73501247D02*
X134660714Y-73739342D01*
X134660714Y-73739342D02*
X134613095Y-73834580D01*
X134613095Y-73834580D02*
X134565476Y-73882200D01*
X134565476Y-73882200D02*
X134470238Y-73929819D01*
X134470238Y-73929819D02*
X134232143Y-73929819D01*
X134232143Y-73929819D02*
X134136905Y-73882200D01*
X134136905Y-73882200D02*
X134089286Y-73834580D01*
X147058333Y-60504819D02*
X146725000Y-60028628D01*
X146486905Y-60504819D02*
X146486905Y-59504819D01*
X146486905Y-59504819D02*
X146867857Y-59504819D01*
X146867857Y-59504819D02*
X146963095Y-59552438D01*
X146963095Y-59552438D02*
X147010714Y-59600057D01*
X147010714Y-59600057D02*
X147058333Y-59695295D01*
X147058333Y-59695295D02*
X147058333Y-59838152D01*
X147058333Y-59838152D02*
X147010714Y-59933390D01*
X147010714Y-59933390D02*
X146963095Y-59981009D01*
X146963095Y-59981009D02*
X146867857Y-60028628D01*
X146867857Y-60028628D02*
X146486905Y-60028628D01*
X147391667Y-59504819D02*
X148010714Y-59504819D01*
X148010714Y-59504819D02*
X147677381Y-59885771D01*
X147677381Y-59885771D02*
X147820238Y-59885771D01*
X147820238Y-59885771D02*
X147915476Y-59933390D01*
X147915476Y-59933390D02*
X147963095Y-59981009D01*
X147963095Y-59981009D02*
X148010714Y-60076247D01*
X148010714Y-60076247D02*
X148010714Y-60314342D01*
X148010714Y-60314342D02*
X147963095Y-60409580D01*
X147963095Y-60409580D02*
X147915476Y-60457200D01*
X147915476Y-60457200D02*
X147820238Y-60504819D01*
X147820238Y-60504819D02*
X147534524Y-60504819D01*
X147534524Y-60504819D02*
X147439286Y-60457200D01*
X147439286Y-60457200D02*
X147391667Y-60409580D01*
X114808333Y-69529819D02*
X114475000Y-69053628D01*
X114236905Y-69529819D02*
X114236905Y-68529819D01*
X114236905Y-68529819D02*
X114617857Y-68529819D01*
X114617857Y-68529819D02*
X114713095Y-68577438D01*
X114713095Y-68577438D02*
X114760714Y-68625057D01*
X114760714Y-68625057D02*
X114808333Y-68720295D01*
X114808333Y-68720295D02*
X114808333Y-68863152D01*
X114808333Y-68863152D02*
X114760714Y-68958390D01*
X114760714Y-68958390D02*
X114713095Y-69006009D01*
X114713095Y-69006009D02*
X114617857Y-69053628D01*
X114617857Y-69053628D02*
X114236905Y-69053628D01*
X115760714Y-69529819D02*
X115189286Y-69529819D01*
X115475000Y-69529819D02*
X115475000Y-68529819D01*
X115475000Y-68529819D02*
X115379762Y-68672676D01*
X115379762Y-68672676D02*
X115284524Y-68767914D01*
X115284524Y-68767914D02*
X115189286Y-68815533D01*
X132983095Y-93749819D02*
X132983095Y-94559342D01*
X132983095Y-94559342D02*
X133030714Y-94654580D01*
X133030714Y-94654580D02*
X133078333Y-94702200D01*
X133078333Y-94702200D02*
X133173571Y-94749819D01*
X133173571Y-94749819D02*
X133364047Y-94749819D01*
X133364047Y-94749819D02*
X133459285Y-94702200D01*
X133459285Y-94702200D02*
X133506904Y-94654580D01*
X133506904Y-94654580D02*
X133554523Y-94559342D01*
X133554523Y-94559342D02*
X133554523Y-93749819D01*
X133983095Y-93845057D02*
X134030714Y-93797438D01*
X134030714Y-93797438D02*
X134125952Y-93749819D01*
X134125952Y-93749819D02*
X134364047Y-93749819D01*
X134364047Y-93749819D02*
X134459285Y-93797438D01*
X134459285Y-93797438D02*
X134506904Y-93845057D01*
X134506904Y-93845057D02*
X134554523Y-93940295D01*
X134554523Y-93940295D02*
X134554523Y-94035533D01*
X134554523Y-94035533D02*
X134506904Y-94178390D01*
X134506904Y-94178390D02*
X133935476Y-94749819D01*
X133935476Y-94749819D02*
X134554523Y-94749819D01*
X154819048Y-89874819D02*
X155152381Y-90874819D01*
X155152381Y-90874819D02*
X155485714Y-89874819D01*
X155580953Y-90970057D02*
X156342857Y-90970057D01*
X156580953Y-90874819D02*
X156580953Y-89874819D01*
X157057143Y-90208152D02*
X157057143Y-90874819D01*
X157057143Y-90303390D02*
X157104762Y-90255771D01*
X157104762Y-90255771D02*
X157200000Y-90208152D01*
X157200000Y-90208152D02*
X157342857Y-90208152D01*
X157342857Y-90208152D02*
X157438095Y-90255771D01*
X157438095Y-90255771D02*
X157485714Y-90351009D01*
X157485714Y-90351009D02*
X157485714Y-90874819D01*
X158485714Y-90874819D02*
X157914286Y-90874819D01*
X158200000Y-90874819D02*
X158200000Y-89874819D01*
X158200000Y-89874819D02*
X158104762Y-90017676D01*
X158104762Y-90017676D02*
X158009524Y-90112914D01*
X158009524Y-90112914D02*
X157914286Y-90160533D01*
X101838095Y-71402438D02*
X101742857Y-71354819D01*
X101742857Y-71354819D02*
X101600000Y-71354819D01*
X101600000Y-71354819D02*
X101457143Y-71402438D01*
X101457143Y-71402438D02*
X101361905Y-71497676D01*
X101361905Y-71497676D02*
X101314286Y-71592914D01*
X101314286Y-71592914D02*
X101266667Y-71783390D01*
X101266667Y-71783390D02*
X101266667Y-71926247D01*
X101266667Y-71926247D02*
X101314286Y-72116723D01*
X101314286Y-72116723D02*
X101361905Y-72211961D01*
X101361905Y-72211961D02*
X101457143Y-72307200D01*
X101457143Y-72307200D02*
X101600000Y-72354819D01*
X101600000Y-72354819D02*
X101695238Y-72354819D01*
X101695238Y-72354819D02*
X101838095Y-72307200D01*
X101838095Y-72307200D02*
X101885714Y-72259580D01*
X101885714Y-72259580D02*
X101885714Y-71926247D01*
X101885714Y-71926247D02*
X101695238Y-71926247D01*
X102314286Y-72354819D02*
X102314286Y-71354819D01*
X102314286Y-71354819D02*
X102885714Y-72354819D01*
X102885714Y-72354819D02*
X102885714Y-71354819D01*
X103361905Y-72354819D02*
X103361905Y-71354819D01*
X103361905Y-71354819D02*
X103600000Y-71354819D01*
X103600000Y-71354819D02*
X103742857Y-71402438D01*
X103742857Y-71402438D02*
X103838095Y-71497676D01*
X103838095Y-71497676D02*
X103885714Y-71592914D01*
X103885714Y-71592914D02*
X103933333Y-71783390D01*
X103933333Y-71783390D02*
X103933333Y-71926247D01*
X103933333Y-71926247D02*
X103885714Y-72116723D01*
X103885714Y-72116723D02*
X103838095Y-72211961D01*
X103838095Y-72211961D02*
X103742857Y-72307200D01*
X103742857Y-72307200D02*
X103600000Y-72354819D01*
X103600000Y-72354819D02*
X103361905Y-72354819D01*
X162486904Y-90027438D02*
X162391666Y-89979819D01*
X162391666Y-89979819D02*
X162248809Y-89979819D01*
X162248809Y-89979819D02*
X162105952Y-90027438D01*
X162105952Y-90027438D02*
X162010714Y-90122676D01*
X162010714Y-90122676D02*
X161963095Y-90217914D01*
X161963095Y-90217914D02*
X161915476Y-90408390D01*
X161915476Y-90408390D02*
X161915476Y-90551247D01*
X161915476Y-90551247D02*
X161963095Y-90741723D01*
X161963095Y-90741723D02*
X162010714Y-90836961D01*
X162010714Y-90836961D02*
X162105952Y-90932200D01*
X162105952Y-90932200D02*
X162248809Y-90979819D01*
X162248809Y-90979819D02*
X162344047Y-90979819D01*
X162344047Y-90979819D02*
X162486904Y-90932200D01*
X162486904Y-90932200D02*
X162534523Y-90884580D01*
X162534523Y-90884580D02*
X162534523Y-90551247D01*
X162534523Y-90551247D02*
X162344047Y-90551247D01*
X162963095Y-90979819D02*
X162963095Y-89979819D01*
X162963095Y-89979819D02*
X163534523Y-90979819D01*
X163534523Y-90979819D02*
X163534523Y-89979819D01*
X164010714Y-90979819D02*
X164010714Y-89979819D01*
X164010714Y-89979819D02*
X164248809Y-89979819D01*
X164248809Y-89979819D02*
X164391666Y-90027438D01*
X164391666Y-90027438D02*
X164486904Y-90122676D01*
X164486904Y-90122676D02*
X164534523Y-90217914D01*
X164534523Y-90217914D02*
X164582142Y-90408390D01*
X164582142Y-90408390D02*
X164582142Y-90551247D01*
X164582142Y-90551247D02*
X164534523Y-90741723D01*
X164534523Y-90741723D02*
X164486904Y-90836961D01*
X164486904Y-90836961D02*
X164391666Y-90932200D01*
X164391666Y-90932200D02*
X164248809Y-90979819D01*
X164248809Y-90979819D02*
X164010714Y-90979819D01*
X164963095Y-90075057D02*
X165010714Y-90027438D01*
X165010714Y-90027438D02*
X165105952Y-89979819D01*
X165105952Y-89979819D02*
X165344047Y-89979819D01*
X165344047Y-89979819D02*
X165439285Y-90027438D01*
X165439285Y-90027438D02*
X165486904Y-90075057D01*
X165486904Y-90075057D02*
X165534523Y-90170295D01*
X165534523Y-90170295D02*
X165534523Y-90265533D01*
X165534523Y-90265533D02*
X165486904Y-90408390D01*
X165486904Y-90408390D02*
X164915476Y-90979819D01*
X164915476Y-90979819D02*
X165534523Y-90979819D01*
X119698809Y-93554819D02*
X120032142Y-94554819D01*
X120032142Y-94554819D02*
X120365475Y-93554819D01*
X120460714Y-94650057D02*
X121222618Y-94650057D01*
X121651190Y-93554819D02*
X121841666Y-93554819D01*
X121841666Y-93554819D02*
X121936904Y-93602438D01*
X121936904Y-93602438D02*
X122032142Y-93697676D01*
X122032142Y-93697676D02*
X122079761Y-93888152D01*
X122079761Y-93888152D02*
X122079761Y-94221485D01*
X122079761Y-94221485D02*
X122032142Y-94411961D01*
X122032142Y-94411961D02*
X121936904Y-94507200D01*
X121936904Y-94507200D02*
X121841666Y-94554819D01*
X121841666Y-94554819D02*
X121651190Y-94554819D01*
X121651190Y-94554819D02*
X121555952Y-94507200D01*
X121555952Y-94507200D02*
X121460714Y-94411961D01*
X121460714Y-94411961D02*
X121413095Y-94221485D01*
X121413095Y-94221485D02*
X121413095Y-93888152D01*
X121413095Y-93888152D02*
X121460714Y-93697676D01*
X121460714Y-93697676D02*
X121555952Y-93602438D01*
X121555952Y-93602438D02*
X121651190Y-93554819D01*
X122936904Y-93888152D02*
X122936904Y-94554819D01*
X122508333Y-93888152D02*
X122508333Y-94411961D01*
X122508333Y-94411961D02*
X122555952Y-94507200D01*
X122555952Y-94507200D02*
X122651190Y-94554819D01*
X122651190Y-94554819D02*
X122794047Y-94554819D01*
X122794047Y-94554819D02*
X122889285Y-94507200D01*
X122889285Y-94507200D02*
X122936904Y-94459580D01*
X123270238Y-93888152D02*
X123651190Y-93888152D01*
X123413095Y-93554819D02*
X123413095Y-94411961D01*
X123413095Y-94411961D02*
X123460714Y-94507200D01*
X123460714Y-94507200D02*
X123555952Y-94554819D01*
X123555952Y-94554819D02*
X123651190Y-94554819D01*
X127499819Y-87766666D02*
X127023628Y-88099999D01*
X127499819Y-88338094D02*
X126499819Y-88338094D01*
X126499819Y-88338094D02*
X126499819Y-87957142D01*
X126499819Y-87957142D02*
X126547438Y-87861904D01*
X126547438Y-87861904D02*
X126595057Y-87814285D01*
X126595057Y-87814285D02*
X126690295Y-87766666D01*
X126690295Y-87766666D02*
X126833152Y-87766666D01*
X126833152Y-87766666D02*
X126928390Y-87814285D01*
X126928390Y-87814285D02*
X126976009Y-87861904D01*
X126976009Y-87861904D02*
X127023628Y-87957142D01*
X127023628Y-87957142D02*
X127023628Y-88338094D01*
X126499819Y-86861904D02*
X126499819Y-87338094D01*
X126499819Y-87338094D02*
X126976009Y-87385713D01*
X126976009Y-87385713D02*
X126928390Y-87338094D01*
X126928390Y-87338094D02*
X126880771Y-87242856D01*
X126880771Y-87242856D02*
X126880771Y-87004761D01*
X126880771Y-87004761D02*
X126928390Y-86909523D01*
X126928390Y-86909523D02*
X126976009Y-86861904D01*
X126976009Y-86861904D02*
X127071247Y-86814285D01*
X127071247Y-86814285D02*
X127309342Y-86814285D01*
X127309342Y-86814285D02*
X127404580Y-86861904D01*
X127404580Y-86861904D02*
X127452200Y-86909523D01*
X127452200Y-86909523D02*
X127499819Y-87004761D01*
X127499819Y-87004761D02*
X127499819Y-87242856D01*
X127499819Y-87242856D02*
X127452200Y-87338094D01*
X127452200Y-87338094D02*
X127404580Y-87385713D01*
X113317857Y-94094104D02*
X113794047Y-94094104D01*
X113222619Y-94379819D02*
X113555952Y-93379819D01*
X113555952Y-93379819D02*
X113889285Y-94379819D01*
X114175000Y-93475057D02*
X114222619Y-93427438D01*
X114222619Y-93427438D02*
X114317857Y-93379819D01*
X114317857Y-93379819D02*
X114555952Y-93379819D01*
X114555952Y-93379819D02*
X114651190Y-93427438D01*
X114651190Y-93427438D02*
X114698809Y-93475057D01*
X114698809Y-93475057D02*
X114746428Y-93570295D01*
X114746428Y-93570295D02*
X114746428Y-93665533D01*
X114746428Y-93665533D02*
X114698809Y-93808390D01*
X114698809Y-93808390D02*
X114127381Y-94379819D01*
X114127381Y-94379819D02*
X114746428Y-94379819D01*
X114936905Y-94475057D02*
X115698809Y-94475057D01*
X116127381Y-93379819D02*
X116317857Y-93379819D01*
X116317857Y-93379819D02*
X116413095Y-93427438D01*
X116413095Y-93427438D02*
X116508333Y-93522676D01*
X116508333Y-93522676D02*
X116555952Y-93713152D01*
X116555952Y-93713152D02*
X116555952Y-94046485D01*
X116555952Y-94046485D02*
X116508333Y-94236961D01*
X116508333Y-94236961D02*
X116413095Y-94332200D01*
X116413095Y-94332200D02*
X116317857Y-94379819D01*
X116317857Y-94379819D02*
X116127381Y-94379819D01*
X116127381Y-94379819D02*
X116032143Y-94332200D01*
X116032143Y-94332200D02*
X115936905Y-94236961D01*
X115936905Y-94236961D02*
X115889286Y-94046485D01*
X115889286Y-94046485D02*
X115889286Y-93713152D01*
X115889286Y-93713152D02*
X115936905Y-93522676D01*
X115936905Y-93522676D02*
X116032143Y-93427438D01*
X116032143Y-93427438D02*
X116127381Y-93379819D01*
X117413095Y-93713152D02*
X117413095Y-94379819D01*
X116984524Y-93713152D02*
X116984524Y-94236961D01*
X116984524Y-94236961D02*
X117032143Y-94332200D01*
X117032143Y-94332200D02*
X117127381Y-94379819D01*
X117127381Y-94379819D02*
X117270238Y-94379819D01*
X117270238Y-94379819D02*
X117365476Y-94332200D01*
X117365476Y-94332200D02*
X117413095Y-94284580D01*
X117746429Y-93713152D02*
X118127381Y-93713152D01*
X117889286Y-93379819D02*
X117889286Y-94236961D01*
X117889286Y-94236961D02*
X117936905Y-94332200D01*
X117936905Y-94332200D02*
X118032143Y-94379819D01*
X118032143Y-94379819D02*
X118127381Y-94379819D01*
X126136905Y-51829819D02*
X126136905Y-50829819D01*
X126136905Y-50829819D02*
X126375000Y-50829819D01*
X126375000Y-50829819D02*
X126517857Y-50877438D01*
X126517857Y-50877438D02*
X126613095Y-50972676D01*
X126613095Y-50972676D02*
X126660714Y-51067914D01*
X126660714Y-51067914D02*
X126708333Y-51258390D01*
X126708333Y-51258390D02*
X126708333Y-51401247D01*
X126708333Y-51401247D02*
X126660714Y-51591723D01*
X126660714Y-51591723D02*
X126613095Y-51686961D01*
X126613095Y-51686961D02*
X126517857Y-51782200D01*
X126517857Y-51782200D02*
X126375000Y-51829819D01*
X126375000Y-51829819D02*
X126136905Y-51829819D01*
X127660714Y-51829819D02*
X127089286Y-51829819D01*
X127375000Y-51829819D02*
X127375000Y-50829819D01*
X127375000Y-50829819D02*
X127279762Y-50972676D01*
X127279762Y-50972676D02*
X127184524Y-51067914D01*
X127184524Y-51067914D02*
X127089286Y-51115533D01*
X117934580Y-88191666D02*
X117982200Y-88239285D01*
X117982200Y-88239285D02*
X118029819Y-88382142D01*
X118029819Y-88382142D02*
X118029819Y-88477380D01*
X118029819Y-88477380D02*
X117982200Y-88620237D01*
X117982200Y-88620237D02*
X117886961Y-88715475D01*
X117886961Y-88715475D02*
X117791723Y-88763094D01*
X117791723Y-88763094D02*
X117601247Y-88810713D01*
X117601247Y-88810713D02*
X117458390Y-88810713D01*
X117458390Y-88810713D02*
X117267914Y-88763094D01*
X117267914Y-88763094D02*
X117172676Y-88715475D01*
X117172676Y-88715475D02*
X117077438Y-88620237D01*
X117077438Y-88620237D02*
X117029819Y-88477380D01*
X117029819Y-88477380D02*
X117029819Y-88382142D01*
X117029819Y-88382142D02*
X117077438Y-88239285D01*
X117077438Y-88239285D02*
X117125057Y-88191666D01*
X118029819Y-87239285D02*
X118029819Y-87810713D01*
X118029819Y-87524999D02*
X117029819Y-87524999D01*
X117029819Y-87524999D02*
X117172676Y-87620237D01*
X117172676Y-87620237D02*
X117267914Y-87715475D01*
X117267914Y-87715475D02*
X117315533Y-87810713D01*
X101167857Y-79094104D02*
X101644047Y-79094104D01*
X101072619Y-79379819D02*
X101405952Y-78379819D01*
X101405952Y-78379819D02*
X101739285Y-79379819D01*
X102596428Y-79379819D02*
X102025000Y-79379819D01*
X102310714Y-79379819D02*
X102310714Y-78379819D01*
X102310714Y-78379819D02*
X102215476Y-78522676D01*
X102215476Y-78522676D02*
X102120238Y-78617914D01*
X102120238Y-78617914D02*
X102025000Y-78665533D01*
X102786905Y-79475057D02*
X103548809Y-79475057D01*
X103977381Y-78379819D02*
X104167857Y-78379819D01*
X104167857Y-78379819D02*
X104263095Y-78427438D01*
X104263095Y-78427438D02*
X104358333Y-78522676D01*
X104358333Y-78522676D02*
X104405952Y-78713152D01*
X104405952Y-78713152D02*
X104405952Y-79046485D01*
X104405952Y-79046485D02*
X104358333Y-79236961D01*
X104358333Y-79236961D02*
X104263095Y-79332200D01*
X104263095Y-79332200D02*
X104167857Y-79379819D01*
X104167857Y-79379819D02*
X103977381Y-79379819D01*
X103977381Y-79379819D02*
X103882143Y-79332200D01*
X103882143Y-79332200D02*
X103786905Y-79236961D01*
X103786905Y-79236961D02*
X103739286Y-79046485D01*
X103739286Y-79046485D02*
X103739286Y-78713152D01*
X103739286Y-78713152D02*
X103786905Y-78522676D01*
X103786905Y-78522676D02*
X103882143Y-78427438D01*
X103882143Y-78427438D02*
X103977381Y-78379819D01*
X105263095Y-78713152D02*
X105263095Y-79379819D01*
X104834524Y-78713152D02*
X104834524Y-79236961D01*
X104834524Y-79236961D02*
X104882143Y-79332200D01*
X104882143Y-79332200D02*
X104977381Y-79379819D01*
X104977381Y-79379819D02*
X105120238Y-79379819D01*
X105120238Y-79379819D02*
X105215476Y-79332200D01*
X105215476Y-79332200D02*
X105263095Y-79284580D01*
X105596429Y-78713152D02*
X105977381Y-78713152D01*
X105739286Y-78379819D02*
X105739286Y-79236961D01*
X105739286Y-79236961D02*
X105786905Y-79332200D01*
X105786905Y-79332200D02*
X105882143Y-79379819D01*
X105882143Y-79379819D02*
X105977381Y-79379819D01*
X146433333Y-88729819D02*
X146100000Y-88253628D01*
X145861905Y-88729819D02*
X145861905Y-87729819D01*
X145861905Y-87729819D02*
X146242857Y-87729819D01*
X146242857Y-87729819D02*
X146338095Y-87777438D01*
X146338095Y-87777438D02*
X146385714Y-87825057D01*
X146385714Y-87825057D02*
X146433333Y-87920295D01*
X146433333Y-87920295D02*
X146433333Y-88063152D01*
X146433333Y-88063152D02*
X146385714Y-88158390D01*
X146385714Y-88158390D02*
X146338095Y-88206009D01*
X146338095Y-88206009D02*
X146242857Y-88253628D01*
X146242857Y-88253628D02*
X145861905Y-88253628D01*
X146766667Y-87729819D02*
X147433333Y-87729819D01*
X147433333Y-87729819D02*
X147004762Y-88729819D01*
X159132142Y-78179819D02*
X158798809Y-77703628D01*
X158560714Y-78179819D02*
X158560714Y-77179819D01*
X158560714Y-77179819D02*
X158941666Y-77179819D01*
X158941666Y-77179819D02*
X159036904Y-77227438D01*
X159036904Y-77227438D02*
X159084523Y-77275057D01*
X159084523Y-77275057D02*
X159132142Y-77370295D01*
X159132142Y-77370295D02*
X159132142Y-77513152D01*
X159132142Y-77513152D02*
X159084523Y-77608390D01*
X159084523Y-77608390D02*
X159036904Y-77656009D01*
X159036904Y-77656009D02*
X158941666Y-77703628D01*
X158941666Y-77703628D02*
X158560714Y-77703628D01*
X160084523Y-78179819D02*
X159513095Y-78179819D01*
X159798809Y-78179819D02*
X159798809Y-77179819D01*
X159798809Y-77179819D02*
X159703571Y-77322676D01*
X159703571Y-77322676D02*
X159608333Y-77417914D01*
X159608333Y-77417914D02*
X159513095Y-77465533D01*
X161036904Y-78179819D02*
X160465476Y-78179819D01*
X160751190Y-78179819D02*
X160751190Y-77179819D01*
X160751190Y-77179819D02*
X160655952Y-77322676D01*
X160655952Y-77322676D02*
X160560714Y-77417914D01*
X160560714Y-77417914D02*
X160465476Y-77465533D01*
X143283333Y-60604819D02*
X142950000Y-60128628D01*
X142711905Y-60604819D02*
X142711905Y-59604819D01*
X142711905Y-59604819D02*
X143092857Y-59604819D01*
X143092857Y-59604819D02*
X143188095Y-59652438D01*
X143188095Y-59652438D02*
X143235714Y-59700057D01*
X143235714Y-59700057D02*
X143283333Y-59795295D01*
X143283333Y-59795295D02*
X143283333Y-59938152D01*
X143283333Y-59938152D02*
X143235714Y-60033390D01*
X143235714Y-60033390D02*
X143188095Y-60081009D01*
X143188095Y-60081009D02*
X143092857Y-60128628D01*
X143092857Y-60128628D02*
X142711905Y-60128628D01*
X144140476Y-59938152D02*
X144140476Y-60604819D01*
X143902381Y-59557200D02*
X143664286Y-60271485D01*
X143664286Y-60271485D02*
X144283333Y-60271485D01*
X146858333Y-94729819D02*
X146525000Y-94253628D01*
X146286905Y-94729819D02*
X146286905Y-93729819D01*
X146286905Y-93729819D02*
X146667857Y-93729819D01*
X146667857Y-93729819D02*
X146763095Y-93777438D01*
X146763095Y-93777438D02*
X146810714Y-93825057D01*
X146810714Y-93825057D02*
X146858333Y-93920295D01*
X146858333Y-93920295D02*
X146858333Y-94063152D01*
X146858333Y-94063152D02*
X146810714Y-94158390D01*
X146810714Y-94158390D02*
X146763095Y-94206009D01*
X146763095Y-94206009D02*
X146667857Y-94253628D01*
X146667857Y-94253628D02*
X146286905Y-94253628D01*
X147715476Y-93729819D02*
X147525000Y-93729819D01*
X147525000Y-93729819D02*
X147429762Y-93777438D01*
X147429762Y-93777438D02*
X147382143Y-93825057D01*
X147382143Y-93825057D02*
X147286905Y-93967914D01*
X147286905Y-93967914D02*
X147239286Y-94158390D01*
X147239286Y-94158390D02*
X147239286Y-94539342D01*
X147239286Y-94539342D02*
X147286905Y-94634580D01*
X147286905Y-94634580D02*
X147334524Y-94682200D01*
X147334524Y-94682200D02*
X147429762Y-94729819D01*
X147429762Y-94729819D02*
X147620238Y-94729819D01*
X147620238Y-94729819D02*
X147715476Y-94682200D01*
X147715476Y-94682200D02*
X147763095Y-94634580D01*
X147763095Y-94634580D02*
X147810714Y-94539342D01*
X147810714Y-94539342D02*
X147810714Y-94301247D01*
X147810714Y-94301247D02*
X147763095Y-94206009D01*
X147763095Y-94206009D02*
X147715476Y-94158390D01*
X147715476Y-94158390D02*
X147620238Y-94110771D01*
X147620238Y-94110771D02*
X147429762Y-94110771D01*
X147429762Y-94110771D02*
X147334524Y-94158390D01*
X147334524Y-94158390D02*
X147286905Y-94206009D01*
X147286905Y-94206009D02*
X147239286Y-94301247D01*
X124284819Y-66066666D02*
X123808628Y-66399999D01*
X124284819Y-66638094D02*
X123284819Y-66638094D01*
X123284819Y-66638094D02*
X123284819Y-66257142D01*
X123284819Y-66257142D02*
X123332438Y-66161904D01*
X123332438Y-66161904D02*
X123380057Y-66114285D01*
X123380057Y-66114285D02*
X123475295Y-66066666D01*
X123475295Y-66066666D02*
X123618152Y-66066666D01*
X123618152Y-66066666D02*
X123713390Y-66114285D01*
X123713390Y-66114285D02*
X123761009Y-66161904D01*
X123761009Y-66161904D02*
X123808628Y-66257142D01*
X123808628Y-66257142D02*
X123808628Y-66638094D01*
X123380057Y-65685713D02*
X123332438Y-65638094D01*
X123332438Y-65638094D02*
X123284819Y-65542856D01*
X123284819Y-65542856D02*
X123284819Y-65304761D01*
X123284819Y-65304761D02*
X123332438Y-65209523D01*
X123332438Y-65209523D02*
X123380057Y-65161904D01*
X123380057Y-65161904D02*
X123475295Y-65114285D01*
X123475295Y-65114285D02*
X123570533Y-65114285D01*
X123570533Y-65114285D02*
X123713390Y-65161904D01*
X123713390Y-65161904D02*
X124284819Y-65733332D01*
X124284819Y-65733332D02*
X124284819Y-65114285D01*
X102138095Y-55602438D02*
X102042857Y-55554819D01*
X102042857Y-55554819D02*
X101900000Y-55554819D01*
X101900000Y-55554819D02*
X101757143Y-55602438D01*
X101757143Y-55602438D02*
X101661905Y-55697676D01*
X101661905Y-55697676D02*
X101614286Y-55792914D01*
X101614286Y-55792914D02*
X101566667Y-55983390D01*
X101566667Y-55983390D02*
X101566667Y-56126247D01*
X101566667Y-56126247D02*
X101614286Y-56316723D01*
X101614286Y-56316723D02*
X101661905Y-56411961D01*
X101661905Y-56411961D02*
X101757143Y-56507200D01*
X101757143Y-56507200D02*
X101900000Y-56554819D01*
X101900000Y-56554819D02*
X101995238Y-56554819D01*
X101995238Y-56554819D02*
X102138095Y-56507200D01*
X102138095Y-56507200D02*
X102185714Y-56459580D01*
X102185714Y-56459580D02*
X102185714Y-56126247D01*
X102185714Y-56126247D02*
X101995238Y-56126247D01*
X102614286Y-56554819D02*
X102614286Y-55554819D01*
X102614286Y-55554819D02*
X103185714Y-56554819D01*
X103185714Y-56554819D02*
X103185714Y-55554819D01*
X103661905Y-56554819D02*
X103661905Y-55554819D01*
X103661905Y-55554819D02*
X103900000Y-55554819D01*
X103900000Y-55554819D02*
X104042857Y-55602438D01*
X104042857Y-55602438D02*
X104138095Y-55697676D01*
X104138095Y-55697676D02*
X104185714Y-55792914D01*
X104185714Y-55792914D02*
X104233333Y-55983390D01*
X104233333Y-55983390D02*
X104233333Y-56126247D01*
X104233333Y-56126247D02*
X104185714Y-56316723D01*
X104185714Y-56316723D02*
X104138095Y-56411961D01*
X104138095Y-56411961D02*
X104042857Y-56507200D01*
X104042857Y-56507200D02*
X103900000Y-56554819D01*
X103900000Y-56554819D02*
X103661905Y-56554819D01*
X152458333Y-67384580D02*
X152410714Y-67432200D01*
X152410714Y-67432200D02*
X152267857Y-67479819D01*
X152267857Y-67479819D02*
X152172619Y-67479819D01*
X152172619Y-67479819D02*
X152029762Y-67432200D01*
X152029762Y-67432200D02*
X151934524Y-67336961D01*
X151934524Y-67336961D02*
X151886905Y-67241723D01*
X151886905Y-67241723D02*
X151839286Y-67051247D01*
X151839286Y-67051247D02*
X151839286Y-66908390D01*
X151839286Y-66908390D02*
X151886905Y-66717914D01*
X151886905Y-66717914D02*
X151934524Y-66622676D01*
X151934524Y-66622676D02*
X152029762Y-66527438D01*
X152029762Y-66527438D02*
X152172619Y-66479819D01*
X152172619Y-66479819D02*
X152267857Y-66479819D01*
X152267857Y-66479819D02*
X152410714Y-66527438D01*
X152410714Y-66527438D02*
X152458333Y-66575057D01*
X152791667Y-66479819D02*
X153410714Y-66479819D01*
X153410714Y-66479819D02*
X153077381Y-66860771D01*
X153077381Y-66860771D02*
X153220238Y-66860771D01*
X153220238Y-66860771D02*
X153315476Y-66908390D01*
X153315476Y-66908390D02*
X153363095Y-66956009D01*
X153363095Y-66956009D02*
X153410714Y-67051247D01*
X153410714Y-67051247D02*
X153410714Y-67289342D01*
X153410714Y-67289342D02*
X153363095Y-67384580D01*
X153363095Y-67384580D02*
X153315476Y-67432200D01*
X153315476Y-67432200D02*
X153220238Y-67479819D01*
X153220238Y-67479819D02*
X152934524Y-67479819D01*
X152934524Y-67479819D02*
X152839286Y-67432200D01*
X152839286Y-67432200D02*
X152791667Y-67384580D01*
X157411905Y-86379819D02*
X157411905Y-85379819D01*
X157411905Y-85379819D02*
X157650000Y-85379819D01*
X157650000Y-85379819D02*
X157792857Y-85427438D01*
X157792857Y-85427438D02*
X157888095Y-85522676D01*
X157888095Y-85522676D02*
X157935714Y-85617914D01*
X157935714Y-85617914D02*
X157983333Y-85808390D01*
X157983333Y-85808390D02*
X157983333Y-85951247D01*
X157983333Y-85951247D02*
X157935714Y-86141723D01*
X157935714Y-86141723D02*
X157888095Y-86236961D01*
X157888095Y-86236961D02*
X157792857Y-86332200D01*
X157792857Y-86332200D02*
X157650000Y-86379819D01*
X157650000Y-86379819D02*
X157411905Y-86379819D01*
X158840476Y-85713152D02*
X158840476Y-86379819D01*
X158602381Y-85332200D02*
X158364286Y-86046485D01*
X158364286Y-86046485D02*
X158983333Y-86046485D01*
X158357142Y-61904819D02*
X158023809Y-61428628D01*
X157785714Y-61904819D02*
X157785714Y-60904819D01*
X157785714Y-60904819D02*
X158166666Y-60904819D01*
X158166666Y-60904819D02*
X158261904Y-60952438D01*
X158261904Y-60952438D02*
X158309523Y-61000057D01*
X158309523Y-61000057D02*
X158357142Y-61095295D01*
X158357142Y-61095295D02*
X158357142Y-61238152D01*
X158357142Y-61238152D02*
X158309523Y-61333390D01*
X158309523Y-61333390D02*
X158261904Y-61381009D01*
X158261904Y-61381009D02*
X158166666Y-61428628D01*
X158166666Y-61428628D02*
X157785714Y-61428628D01*
X159309523Y-61904819D02*
X158738095Y-61904819D01*
X159023809Y-61904819D02*
X159023809Y-60904819D01*
X159023809Y-60904819D02*
X158928571Y-61047676D01*
X158928571Y-61047676D02*
X158833333Y-61142914D01*
X158833333Y-61142914D02*
X158738095Y-61190533D01*
X159690476Y-61000057D02*
X159738095Y-60952438D01*
X159738095Y-60952438D02*
X159833333Y-60904819D01*
X159833333Y-60904819D02*
X160071428Y-60904819D01*
X160071428Y-60904819D02*
X160166666Y-60952438D01*
X160166666Y-60952438D02*
X160214285Y-61000057D01*
X160214285Y-61000057D02*
X160261904Y-61095295D01*
X160261904Y-61095295D02*
X160261904Y-61190533D01*
X160261904Y-61190533D02*
X160214285Y-61333390D01*
X160214285Y-61333390D02*
X159642857Y-61904819D01*
X159642857Y-61904819D02*
X160261904Y-61904819D01*
X101234524Y-93894104D02*
X101710714Y-93894104D01*
X101139286Y-94179819D02*
X101472619Y-93179819D01*
X101472619Y-93179819D02*
X101805952Y-94179819D01*
X102091667Y-93275057D02*
X102139286Y-93227438D01*
X102139286Y-93227438D02*
X102234524Y-93179819D01*
X102234524Y-93179819D02*
X102472619Y-93179819D01*
X102472619Y-93179819D02*
X102567857Y-93227438D01*
X102567857Y-93227438D02*
X102615476Y-93275057D01*
X102615476Y-93275057D02*
X102663095Y-93370295D01*
X102663095Y-93370295D02*
X102663095Y-93465533D01*
X102663095Y-93465533D02*
X102615476Y-93608390D01*
X102615476Y-93608390D02*
X102044048Y-94179819D01*
X102044048Y-94179819D02*
X102663095Y-94179819D01*
X102853572Y-94275057D02*
X103615476Y-94275057D01*
X103853572Y-94179819D02*
X103853572Y-93179819D01*
X104329762Y-93513152D02*
X104329762Y-94179819D01*
X104329762Y-93608390D02*
X104377381Y-93560771D01*
X104377381Y-93560771D02*
X104472619Y-93513152D01*
X104472619Y-93513152D02*
X104615476Y-93513152D01*
X104615476Y-93513152D02*
X104710714Y-93560771D01*
X104710714Y-93560771D02*
X104758333Y-93656009D01*
X104758333Y-93656009D02*
X104758333Y-94179819D01*
X104996429Y-94275057D02*
X105758333Y-94275057D01*
X105996429Y-94179819D02*
X105996429Y-93179819D01*
X105996429Y-93179819D02*
X106567857Y-94179819D01*
X106567857Y-94179819D02*
X106567857Y-93179819D01*
X114533333Y-53704819D02*
X114200000Y-53228628D01*
X113961905Y-53704819D02*
X113961905Y-52704819D01*
X113961905Y-52704819D02*
X114342857Y-52704819D01*
X114342857Y-52704819D02*
X114438095Y-52752438D01*
X114438095Y-52752438D02*
X114485714Y-52800057D01*
X114485714Y-52800057D02*
X114533333Y-52895295D01*
X114533333Y-52895295D02*
X114533333Y-53038152D01*
X114533333Y-53038152D02*
X114485714Y-53133390D01*
X114485714Y-53133390D02*
X114438095Y-53181009D01*
X114438095Y-53181009D02*
X114342857Y-53228628D01*
X114342857Y-53228628D02*
X113961905Y-53228628D01*
X115104762Y-53133390D02*
X115009524Y-53085771D01*
X115009524Y-53085771D02*
X114961905Y-53038152D01*
X114961905Y-53038152D02*
X114914286Y-52942914D01*
X114914286Y-52942914D02*
X114914286Y-52895295D01*
X114914286Y-52895295D02*
X114961905Y-52800057D01*
X114961905Y-52800057D02*
X115009524Y-52752438D01*
X115009524Y-52752438D02*
X115104762Y-52704819D01*
X115104762Y-52704819D02*
X115295238Y-52704819D01*
X115295238Y-52704819D02*
X115390476Y-52752438D01*
X115390476Y-52752438D02*
X115438095Y-52800057D01*
X115438095Y-52800057D02*
X115485714Y-52895295D01*
X115485714Y-52895295D02*
X115485714Y-52942914D01*
X115485714Y-52942914D02*
X115438095Y-53038152D01*
X115438095Y-53038152D02*
X115390476Y-53085771D01*
X115390476Y-53085771D02*
X115295238Y-53133390D01*
X115295238Y-53133390D02*
X115104762Y-53133390D01*
X115104762Y-53133390D02*
X115009524Y-53181009D01*
X115009524Y-53181009D02*
X114961905Y-53228628D01*
X114961905Y-53228628D02*
X114914286Y-53323866D01*
X114914286Y-53323866D02*
X114914286Y-53514342D01*
X114914286Y-53514342D02*
X114961905Y-53609580D01*
X114961905Y-53609580D02*
X115009524Y-53657200D01*
X115009524Y-53657200D02*
X115104762Y-53704819D01*
X115104762Y-53704819D02*
X115295238Y-53704819D01*
X115295238Y-53704819D02*
X115390476Y-53657200D01*
X115390476Y-53657200D02*
X115438095Y-53609580D01*
X115438095Y-53609580D02*
X115485714Y-53514342D01*
X115485714Y-53514342D02*
X115485714Y-53323866D01*
X115485714Y-53323866D02*
X115438095Y-53228628D01*
X115438095Y-53228628D02*
X115390476Y-53181009D01*
X115390476Y-53181009D02*
X115295238Y-53133390D01*
X146508333Y-83609580D02*
X146460714Y-83657200D01*
X146460714Y-83657200D02*
X146317857Y-83704819D01*
X146317857Y-83704819D02*
X146222619Y-83704819D01*
X146222619Y-83704819D02*
X146079762Y-83657200D01*
X146079762Y-83657200D02*
X145984524Y-83561961D01*
X145984524Y-83561961D02*
X145936905Y-83466723D01*
X145936905Y-83466723D02*
X145889286Y-83276247D01*
X145889286Y-83276247D02*
X145889286Y-83133390D01*
X145889286Y-83133390D02*
X145936905Y-82942914D01*
X145936905Y-82942914D02*
X145984524Y-82847676D01*
X145984524Y-82847676D02*
X146079762Y-82752438D01*
X146079762Y-82752438D02*
X146222619Y-82704819D01*
X146222619Y-82704819D02*
X146317857Y-82704819D01*
X146317857Y-82704819D02*
X146460714Y-82752438D01*
X146460714Y-82752438D02*
X146508333Y-82800057D01*
X147365476Y-82704819D02*
X147175000Y-82704819D01*
X147175000Y-82704819D02*
X147079762Y-82752438D01*
X147079762Y-82752438D02*
X147032143Y-82800057D01*
X147032143Y-82800057D02*
X146936905Y-82942914D01*
X146936905Y-82942914D02*
X146889286Y-83133390D01*
X146889286Y-83133390D02*
X146889286Y-83514342D01*
X146889286Y-83514342D02*
X146936905Y-83609580D01*
X146936905Y-83609580D02*
X146984524Y-83657200D01*
X146984524Y-83657200D02*
X147079762Y-83704819D01*
X147079762Y-83704819D02*
X147270238Y-83704819D01*
X147270238Y-83704819D02*
X147365476Y-83657200D01*
X147365476Y-83657200D02*
X147413095Y-83609580D01*
X147413095Y-83609580D02*
X147460714Y-83514342D01*
X147460714Y-83514342D02*
X147460714Y-83276247D01*
X147460714Y-83276247D02*
X147413095Y-83181009D01*
X147413095Y-83181009D02*
X147365476Y-83133390D01*
X147365476Y-83133390D02*
X147270238Y-83085771D01*
X147270238Y-83085771D02*
X147079762Y-83085771D01*
X147079762Y-83085771D02*
X146984524Y-83133390D01*
X146984524Y-83133390D02*
X146936905Y-83181009D01*
X146936905Y-83181009D02*
X146889286Y-83276247D01*
X117133333Y-74459580D02*
X117085714Y-74507200D01*
X117085714Y-74507200D02*
X116942857Y-74554819D01*
X116942857Y-74554819D02*
X116847619Y-74554819D01*
X116847619Y-74554819D02*
X116704762Y-74507200D01*
X116704762Y-74507200D02*
X116609524Y-74411961D01*
X116609524Y-74411961D02*
X116561905Y-74316723D01*
X116561905Y-74316723D02*
X116514286Y-74126247D01*
X116514286Y-74126247D02*
X116514286Y-73983390D01*
X116514286Y-73983390D02*
X116561905Y-73792914D01*
X116561905Y-73792914D02*
X116609524Y-73697676D01*
X116609524Y-73697676D02*
X116704762Y-73602438D01*
X116704762Y-73602438D02*
X116847619Y-73554819D01*
X116847619Y-73554819D02*
X116942857Y-73554819D01*
X116942857Y-73554819D02*
X117085714Y-73602438D01*
X117085714Y-73602438D02*
X117133333Y-73650057D01*
X117990476Y-73888152D02*
X117990476Y-74554819D01*
X117752381Y-73507200D02*
X117514286Y-74221485D01*
X117514286Y-74221485D02*
X118133333Y-74221485D01*
X162966666Y-75754819D02*
X162966666Y-76469104D01*
X162966666Y-76469104D02*
X162919047Y-76611961D01*
X162919047Y-76611961D02*
X162823809Y-76707200D01*
X162823809Y-76707200D02*
X162680952Y-76754819D01*
X162680952Y-76754819D02*
X162585714Y-76754819D01*
X163919047Y-75754819D02*
X163442857Y-75754819D01*
X163442857Y-75754819D02*
X163395238Y-76231009D01*
X163395238Y-76231009D02*
X163442857Y-76183390D01*
X163442857Y-76183390D02*
X163538095Y-76135771D01*
X163538095Y-76135771D02*
X163776190Y-76135771D01*
X163776190Y-76135771D02*
X163871428Y-76183390D01*
X163871428Y-76183390D02*
X163919047Y-76231009D01*
X163919047Y-76231009D02*
X163966666Y-76326247D01*
X163966666Y-76326247D02*
X163966666Y-76564342D01*
X163966666Y-76564342D02*
X163919047Y-76659580D01*
X163919047Y-76659580D02*
X163871428Y-76707200D01*
X163871428Y-76707200D02*
X163776190Y-76754819D01*
X163776190Y-76754819D02*
X163538095Y-76754819D01*
X163538095Y-76754819D02*
X163442857Y-76707200D01*
X163442857Y-76707200D02*
X163395238Y-76659580D01*
D11*
%TO.C,D2*%
X138745000Y-55600000D02*
G75*
G02*
X133745000Y-55600000I-2500000J0D01*
G01*
X133745000Y-55600000D02*
G75*
G02*
X138745000Y-55600000I2500000J0D01*
G01*
X139235000Y-55599538D02*
G75*
G02*
X133685000Y-57144830I-2990000J-462D01*
G01*
X133685001Y-54055170D02*
G75*
G02*
X139234999Y-55600462I2559999J-1544830D01*
G01*
X133685000Y-54055000D02*
X133685000Y-57145000D01*
%TO.C,SW1*%
X162425000Y-57350000D02*
X162425000Y-55850000D01*
X161175000Y-53350000D02*
X156675000Y-53350000D01*
X156675000Y-59850000D02*
X161175000Y-59850000D01*
X155425000Y-55850000D02*
X155425000Y-57350000D01*
%TO.C,U1*%
X131385000Y-62070000D02*
X131385000Y-72350000D01*
X131385000Y-72350000D02*
X136685000Y-72350000D01*
X133035000Y-62070000D02*
X131385000Y-62070000D01*
X136685000Y-62070000D02*
X135035000Y-62070000D01*
X136685000Y-72350000D02*
X136685000Y-62070000D01*
X135035000Y-62070000D02*
G75*
G02*
X133035000Y-62070000I-1000000J0D01*
G01*
%TO.C,C2*%
X122370225Y-76250000D02*
X122870225Y-76250000D01*
X122620225Y-76000000D02*
X122620225Y-76500000D01*
X125175000Y-75145000D02*
X125175000Y-76685000D01*
X125175000Y-78765000D02*
X125175000Y-80305000D01*
X125215000Y-75145000D02*
X125215000Y-76685000D01*
X125215000Y-78765000D02*
X125215000Y-80305000D01*
X125255000Y-75146000D02*
X125255000Y-76685000D01*
X125255000Y-78765000D02*
X125255000Y-80304000D01*
X125295000Y-75147000D02*
X125295000Y-76685000D01*
X125295000Y-78765000D02*
X125295000Y-80303000D01*
X125335000Y-75149000D02*
X125335000Y-76685000D01*
X125335000Y-78765000D02*
X125335000Y-80301000D01*
X125375000Y-75152000D02*
X125375000Y-76685000D01*
X125375000Y-78765000D02*
X125375000Y-80298000D01*
X125415000Y-75156000D02*
X125415000Y-76685000D01*
X125415000Y-78765000D02*
X125415000Y-80294000D01*
X125455000Y-75160000D02*
X125455000Y-76685000D01*
X125455000Y-78765000D02*
X125455000Y-80290000D01*
X125495000Y-75164000D02*
X125495000Y-76685000D01*
X125495000Y-78765000D02*
X125495000Y-80286000D01*
X125535000Y-75169000D02*
X125535000Y-76685000D01*
X125535000Y-78765000D02*
X125535000Y-80281000D01*
X125575000Y-75175000D02*
X125575000Y-76685000D01*
X125575000Y-78765000D02*
X125575000Y-80275000D01*
X125615000Y-75182000D02*
X125615000Y-76685000D01*
X125615000Y-78765000D02*
X125615000Y-80268000D01*
X125655000Y-75189000D02*
X125655000Y-76685000D01*
X125655000Y-78765000D02*
X125655000Y-80261000D01*
X125695000Y-75197000D02*
X125695000Y-76685000D01*
X125695000Y-78765000D02*
X125695000Y-80253000D01*
X125735000Y-75205000D02*
X125735000Y-76685000D01*
X125735000Y-78765000D02*
X125735000Y-80245000D01*
X125775000Y-75214000D02*
X125775000Y-76685000D01*
X125775000Y-78765000D02*
X125775000Y-80236000D01*
X125815000Y-75224000D02*
X125815000Y-76685000D01*
X125815000Y-78765000D02*
X125815000Y-80226000D01*
X125855000Y-75234000D02*
X125855000Y-76685000D01*
X125855000Y-78765000D02*
X125855000Y-80216000D01*
X125896000Y-75245000D02*
X125896000Y-76685000D01*
X125896000Y-78765000D02*
X125896000Y-80205000D01*
X125936000Y-75257000D02*
X125936000Y-76685000D01*
X125936000Y-78765000D02*
X125936000Y-80193000D01*
X125976000Y-75270000D02*
X125976000Y-76685000D01*
X125976000Y-78765000D02*
X125976000Y-80180000D01*
X126016000Y-75283000D02*
X126016000Y-76685000D01*
X126016000Y-78765000D02*
X126016000Y-80167000D01*
X126056000Y-75297000D02*
X126056000Y-76685000D01*
X126056000Y-78765000D02*
X126056000Y-80153000D01*
X126096000Y-75311000D02*
X126096000Y-76685000D01*
X126096000Y-78765000D02*
X126096000Y-80139000D01*
X126136000Y-75327000D02*
X126136000Y-76685000D01*
X126136000Y-78765000D02*
X126136000Y-80123000D01*
X126176000Y-75343000D02*
X126176000Y-76685000D01*
X126176000Y-78765000D02*
X126176000Y-80107000D01*
X126216000Y-75360000D02*
X126216000Y-76685000D01*
X126216000Y-78765000D02*
X126216000Y-80090000D01*
X126256000Y-75377000D02*
X126256000Y-76685000D01*
X126256000Y-78765000D02*
X126256000Y-80073000D01*
X126296000Y-75396000D02*
X126296000Y-76685000D01*
X126296000Y-78765000D02*
X126296000Y-80054000D01*
X126336000Y-75415000D02*
X126336000Y-76685000D01*
X126336000Y-78765000D02*
X126336000Y-80035000D01*
X126376000Y-75435000D02*
X126376000Y-76685000D01*
X126376000Y-78765000D02*
X126376000Y-80015000D01*
X126416000Y-75457000D02*
X126416000Y-76685000D01*
X126416000Y-78765000D02*
X126416000Y-79993000D01*
X126456000Y-75478000D02*
X126456000Y-76685000D01*
X126456000Y-78765000D02*
X126456000Y-79972000D01*
X126496000Y-75501000D02*
X126496000Y-76685000D01*
X126496000Y-78765000D02*
X126496000Y-79949000D01*
X126536000Y-75525000D02*
X126536000Y-76685000D01*
X126536000Y-78765000D02*
X126536000Y-79925000D01*
X126576000Y-75550000D02*
X126576000Y-76685000D01*
X126576000Y-78765000D02*
X126576000Y-79900000D01*
X126616000Y-75576000D02*
X126616000Y-76685000D01*
X126616000Y-78765000D02*
X126616000Y-79874000D01*
X126656000Y-75603000D02*
X126656000Y-76685000D01*
X126656000Y-78765000D02*
X126656000Y-79847000D01*
X126696000Y-75630000D02*
X126696000Y-76685000D01*
X126696000Y-78765000D02*
X126696000Y-79820000D01*
X126736000Y-75660000D02*
X126736000Y-76685000D01*
X126736000Y-78765000D02*
X126736000Y-79790000D01*
X126776000Y-75690000D02*
X126776000Y-76685000D01*
X126776000Y-78765000D02*
X126776000Y-79760000D01*
X126816000Y-75721000D02*
X126816000Y-76685000D01*
X126816000Y-78765000D02*
X126816000Y-79729000D01*
X126856000Y-75754000D02*
X126856000Y-76685000D01*
X126856000Y-78765000D02*
X126856000Y-79696000D01*
X126896000Y-75788000D02*
X126896000Y-76685000D01*
X126896000Y-78765000D02*
X126896000Y-79662000D01*
X126936000Y-75824000D02*
X126936000Y-76685000D01*
X126936000Y-78765000D02*
X126936000Y-79626000D01*
X126976000Y-75861000D02*
X126976000Y-76685000D01*
X126976000Y-78765000D02*
X126976000Y-79589000D01*
X127016000Y-75899000D02*
X127016000Y-76685000D01*
X127016000Y-78765000D02*
X127016000Y-79551000D01*
X127056000Y-75940000D02*
X127056000Y-76685000D01*
X127056000Y-78765000D02*
X127056000Y-79510000D01*
X127096000Y-75982000D02*
X127096000Y-76685000D01*
X127096000Y-78765000D02*
X127096000Y-79468000D01*
X127136000Y-76026000D02*
X127136000Y-76685000D01*
X127136000Y-78765000D02*
X127136000Y-79424000D01*
X127176000Y-76072000D02*
X127176000Y-76685000D01*
X127176000Y-78765000D02*
X127176000Y-79378000D01*
X127216000Y-76120000D02*
X127216000Y-79330000D01*
X127256000Y-76171000D02*
X127256000Y-79279000D01*
X127296000Y-76225000D02*
X127296000Y-79225000D01*
X127336000Y-76282000D02*
X127336000Y-79168000D01*
X127376000Y-76342000D02*
X127376000Y-79108000D01*
X127416000Y-76406000D02*
X127416000Y-79044000D01*
X127456000Y-76474000D02*
X127456000Y-78976000D01*
X127496000Y-76547000D02*
X127496000Y-78903000D01*
X127536000Y-76627000D02*
X127536000Y-78823000D01*
X127576000Y-76714000D02*
X127576000Y-78736000D01*
X127616000Y-76810000D02*
X127616000Y-78640000D01*
X127656000Y-76920000D02*
X127656000Y-78530000D01*
X127696000Y-77048000D02*
X127696000Y-78402000D01*
X127736000Y-77207000D02*
X127736000Y-78243000D01*
X127776000Y-77441000D02*
X127776000Y-78009000D01*
X127795000Y-77725000D02*
G75*
G02*
X122555000Y-77725000I-2620000J0D01*
G01*
X122555000Y-77725000D02*
G75*
G02*
X127795000Y-77725000I2620000J0D01*
G01*
%TO.C,VCC*%
X101495000Y-51070000D02*
X102825000Y-51070000D01*
X101495000Y-52400000D02*
X101495000Y-51070000D01*
X101495000Y-53670000D02*
X101495000Y-53730000D01*
X101495000Y-53670000D02*
X104155000Y-53670000D01*
X101495000Y-53730000D02*
X104155000Y-53730000D01*
X104155000Y-53670000D02*
X104155000Y-53730000D01*
%TO.C,GND*%
X108545000Y-95795000D02*
X109875000Y-95795000D01*
X108545000Y-97125000D02*
X108545000Y-95795000D01*
X108545000Y-98395000D02*
X108545000Y-98455000D01*
X108545000Y-98395000D02*
X111205000Y-98395000D01*
X108545000Y-98455000D02*
X111205000Y-98455000D01*
X111205000Y-98395000D02*
X111205000Y-98455000D01*
%TO.C,R10*%
X118865000Y-66325000D02*
X118095000Y-66325000D01*
X118095000Y-67695000D02*
X118095000Y-64955000D01*
X118095000Y-64955000D02*
X111555000Y-64955000D01*
X111555000Y-67695000D02*
X118095000Y-67695000D01*
X111555000Y-64955000D02*
X111555000Y-67695000D01*
X110785000Y-66325000D02*
X111555000Y-66325000D01*
%TO.C,R9*%
X118865000Y-61300000D02*
X118095000Y-61300000D01*
X118095000Y-62670000D02*
X118095000Y-59930000D01*
X118095000Y-59930000D02*
X111555000Y-59930000D01*
X111555000Y-62670000D02*
X118095000Y-62670000D01*
X111555000Y-59930000D02*
X111555000Y-62670000D01*
X110785000Y-61300000D02*
X111555000Y-61300000D01*
%TO.C,D3*%
X143835000Y-53955000D02*
X143835000Y-57045000D01*
X143835001Y-53955170D02*
G75*
G02*
X149384999Y-55500462I2559999J-1544830D01*
G01*
X149385000Y-55499538D02*
G75*
G02*
X143835000Y-57044830I-2990000J-462D01*
G01*
X148895000Y-55500000D02*
G75*
G02*
X143895000Y-55500000I-2500000J0D01*
G01*
X143895000Y-55500000D02*
G75*
G02*
X148895000Y-55500000I2500000J0D01*
G01*
%TO.C,A_In_P*%
X101495000Y-86995000D02*
X102825000Y-86995000D01*
X101495000Y-88325000D02*
X101495000Y-86995000D01*
X101495000Y-89595000D02*
X101495000Y-89655000D01*
X101495000Y-89595000D02*
X104155000Y-89595000D01*
X101495000Y-89655000D02*
X104155000Y-89655000D01*
X104155000Y-89595000D02*
X104155000Y-89655000D01*
%TO.C,A1_In_N*%
X101395000Y-64020000D02*
X102725000Y-64020000D01*
X101395000Y-65350000D02*
X101395000Y-64020000D01*
X101395000Y-66620000D02*
X101395000Y-66680000D01*
X101395000Y-66620000D02*
X104055000Y-66620000D01*
X101395000Y-66680000D02*
X104055000Y-66680000D01*
X104055000Y-66620000D02*
X104055000Y-66680000D01*
%TO.C,C5*%
X129980000Y-74255000D02*
X129980000Y-81695000D01*
X129980000Y-74255000D02*
X137420000Y-74255000D01*
X129980000Y-81695000D02*
X137420000Y-81695000D01*
X137420000Y-74255000D02*
X137420000Y-81695000D01*
%TO.C,R3*%
X145805000Y-64205000D02*
X145805000Y-70745000D01*
X145805000Y-70745000D02*
X148545000Y-70745000D01*
X147175000Y-63435000D02*
X147175000Y-64205000D01*
X147175000Y-71515000D02*
X147175000Y-70745000D01*
X148545000Y-64205000D02*
X145805000Y-64205000D01*
X148545000Y-70745000D02*
X148545000Y-64205000D01*
%TO.C,R1*%
X118915000Y-71575000D02*
X118145000Y-71575000D01*
X118145000Y-72945000D02*
X118145000Y-70205000D01*
X118145000Y-70205000D02*
X111605000Y-70205000D01*
X111605000Y-72945000D02*
X118145000Y-72945000D01*
X111605000Y-70205000D02*
X111605000Y-72945000D01*
X110835000Y-71575000D02*
X111605000Y-71575000D01*
%TO.C,U2*%
X131210000Y-82795000D02*
X131210000Y-93075000D01*
X131210000Y-93075000D02*
X136510000Y-93075000D01*
X132860000Y-82795000D02*
X131210000Y-82795000D01*
X136510000Y-82795000D02*
X134860000Y-82795000D01*
X136510000Y-93075000D02*
X136510000Y-82795000D01*
X134860000Y-82795000D02*
G75*
G02*
X132860000Y-82795000I-1000000J0D01*
G01*
%TO.C,V_In1*%
X155370000Y-91420000D02*
X156700000Y-91420000D01*
X155370000Y-92750000D02*
X155370000Y-91420000D01*
X155370000Y-94020000D02*
X155370000Y-94080000D01*
X155370000Y-94020000D02*
X158030000Y-94020000D01*
X155370000Y-94080000D02*
X158030000Y-94080000D01*
X158030000Y-94020000D02*
X158030000Y-94080000D01*
%TO.C,GND*%
X101270000Y-73570000D02*
X102600000Y-73570000D01*
X101270000Y-74900000D02*
X101270000Y-73570000D01*
X101270000Y-76170000D02*
X101270000Y-76230000D01*
X101270000Y-76170000D02*
X103930000Y-76170000D01*
X101270000Y-76230000D02*
X103930000Y-76230000D01*
X103930000Y-76170000D02*
X103930000Y-76230000D01*
%TO.C,GND2*%
X163145000Y-91470000D02*
X164475000Y-91470000D01*
X163145000Y-92800000D02*
X163145000Y-91470000D01*
X163145000Y-94070000D02*
X163145000Y-94130000D01*
X163145000Y-94070000D02*
X165805000Y-94070000D01*
X163145000Y-94130000D02*
X165805000Y-94130000D01*
X165805000Y-94070000D02*
X165805000Y-94130000D01*
%TO.C,V_Out*%
X120895000Y-95995000D02*
X122225000Y-95995000D01*
X120895000Y-97325000D02*
X120895000Y-95995000D01*
X120895000Y-98595000D02*
X120895000Y-98655000D01*
X120895000Y-98595000D02*
X123555000Y-98595000D01*
X120895000Y-98655000D02*
X123555000Y-98655000D01*
X123555000Y-98595000D02*
X123555000Y-98655000D01*
%TO.C,R5*%
X123305000Y-84330000D02*
X123305000Y-90870000D01*
X123305000Y-90870000D02*
X126045000Y-90870000D01*
X124675000Y-83560000D02*
X124675000Y-84330000D01*
X124675000Y-91640000D02*
X124675000Y-90870000D01*
X126045000Y-84330000D02*
X123305000Y-84330000D01*
X126045000Y-90870000D02*
X126045000Y-84330000D01*
%TO.C,A2_Out*%
X114420000Y-95870000D02*
X115750000Y-95870000D01*
X114420000Y-97200000D02*
X114420000Y-95870000D01*
X114420000Y-98470000D02*
X114420000Y-98530000D01*
X114420000Y-98470000D02*
X117080000Y-98470000D01*
X114420000Y-98530000D02*
X117080000Y-98530000D01*
X117080000Y-98470000D02*
X117080000Y-98530000D01*
%TO.C,D1*%
X129270000Y-55625000D02*
G75*
G02*
X124270000Y-55625000I-2500000J0D01*
G01*
X124270000Y-55625000D02*
G75*
G02*
X129270000Y-55625000I2500000J0D01*
G01*
X129760000Y-55624538D02*
G75*
G02*
X124210000Y-57169830I-2990000J-462D01*
G01*
X124210001Y-54080170D02*
G75*
G02*
X129759999Y-55625462I2559999J-1544830D01*
G01*
X124210000Y-54080000D02*
X124210000Y-57170000D01*
%TO.C,C1*%
X118705000Y-84305000D02*
X121445000Y-84305000D01*
X118705000Y-91745000D02*
X118705000Y-84305000D01*
X118705000Y-91745000D02*
X121445000Y-91745000D01*
X121445000Y-91745000D02*
X121445000Y-84305000D01*
%TO.C,A1_Out*%
X101420000Y-81145000D02*
X102750000Y-81145000D01*
X101420000Y-82475000D02*
X101420000Y-81145000D01*
X101420000Y-83745000D02*
X101420000Y-83805000D01*
X101420000Y-83745000D02*
X104080000Y-83745000D01*
X101420000Y-83805000D02*
X104080000Y-83805000D01*
X104080000Y-83745000D02*
X104080000Y-83805000D01*
%TO.C,R7*%
X142910000Y-85775000D02*
X143680000Y-85775000D01*
X143680000Y-84405000D02*
X143680000Y-87145000D01*
X143680000Y-87145000D02*
X150220000Y-87145000D01*
X150220000Y-84405000D02*
X143680000Y-84405000D01*
X150220000Y-87145000D02*
X150220000Y-84405000D01*
X150990000Y-85775000D02*
X150220000Y-85775000D01*
%TO.C,R11*%
X157535000Y-80200000D02*
X158305000Y-80200000D01*
X158305000Y-78830000D02*
X158305000Y-81570000D01*
X158305000Y-81570000D02*
X164845000Y-81570000D01*
X164845000Y-78830000D02*
X158305000Y-78830000D01*
X164845000Y-81570000D02*
X164845000Y-78830000D01*
X165615000Y-80200000D02*
X164845000Y-80200000D01*
%TO.C,R4*%
X142030000Y-64155000D02*
X142030000Y-70695000D01*
X142030000Y-70695000D02*
X144770000Y-70695000D01*
X143400000Y-63385000D02*
X143400000Y-64155000D01*
X143400000Y-71465000D02*
X143400000Y-70695000D01*
X144770000Y-64155000D02*
X142030000Y-64155000D01*
X144770000Y-70695000D02*
X144770000Y-64155000D01*
%TO.C,R6*%
X142885000Y-91875000D02*
X143655000Y-91875000D01*
X143655000Y-90505000D02*
X143655000Y-93245000D01*
X143655000Y-93245000D02*
X150195000Y-93245000D01*
X150195000Y-90505000D02*
X143655000Y-90505000D01*
X150195000Y-93245000D02*
X150195000Y-90505000D01*
X150965000Y-91875000D02*
X150195000Y-91875000D01*
%TO.C,R2*%
X124830000Y-62630000D02*
X124830000Y-69170000D01*
X124830000Y-69170000D02*
X127570000Y-69170000D01*
X126200000Y-61860000D02*
X126200000Y-62630000D01*
X126200000Y-69940000D02*
X126200000Y-69170000D01*
X127570000Y-62630000D02*
X124830000Y-62630000D01*
X127570000Y-69170000D02*
X127570000Y-62630000D01*
%TO.C,GND*%
X101570000Y-57770000D02*
X102900000Y-57770000D01*
X101570000Y-59100000D02*
X101570000Y-57770000D01*
X101570000Y-60370000D02*
X101570000Y-60430000D01*
X101570000Y-60370000D02*
X104230000Y-60370000D01*
X101570000Y-60430000D02*
X104230000Y-60430000D01*
X104230000Y-60370000D02*
X104230000Y-60430000D01*
%TO.C,C3*%
X149815113Y-69175000D02*
X150315113Y-69175000D01*
X150065113Y-68925000D02*
X150065113Y-69425000D01*
X152619888Y-68070000D02*
X152619888Y-73230000D01*
X152659888Y-68070000D02*
X152659888Y-73230000D01*
X152699888Y-68071000D02*
X152699888Y-73229000D01*
X152739888Y-68072000D02*
X152739888Y-73228000D01*
X152779888Y-68074000D02*
X152779888Y-73226000D01*
X152819888Y-68077000D02*
X152819888Y-73223000D01*
X152859888Y-68081000D02*
X152859888Y-69610000D01*
X152859888Y-71690000D02*
X152859888Y-73219000D01*
X152899888Y-68085000D02*
X152899888Y-69610000D01*
X152899888Y-71690000D02*
X152899888Y-73215000D01*
X152939888Y-68089000D02*
X152939888Y-69610000D01*
X152939888Y-71690000D02*
X152939888Y-73211000D01*
X152979888Y-68094000D02*
X152979888Y-69610000D01*
X152979888Y-71690000D02*
X152979888Y-73206000D01*
X153019888Y-68100000D02*
X153019888Y-69610000D01*
X153019888Y-71690000D02*
X153019888Y-73200000D01*
X153059888Y-68107000D02*
X153059888Y-69610000D01*
X153059888Y-71690000D02*
X153059888Y-73193000D01*
X153099888Y-68114000D02*
X153099888Y-69610000D01*
X153099888Y-71690000D02*
X153099888Y-73186000D01*
X153139888Y-68122000D02*
X153139888Y-69610000D01*
X153139888Y-71690000D02*
X153139888Y-73178000D01*
X153179888Y-68130000D02*
X153179888Y-69610000D01*
X153179888Y-71690000D02*
X153179888Y-73170000D01*
X153219888Y-68139000D02*
X153219888Y-69610000D01*
X153219888Y-71690000D02*
X153219888Y-73161000D01*
X153259888Y-68149000D02*
X153259888Y-69610000D01*
X153259888Y-71690000D02*
X153259888Y-73151000D01*
X153299888Y-68159000D02*
X153299888Y-69610000D01*
X153299888Y-71690000D02*
X153299888Y-73141000D01*
X153340888Y-68170000D02*
X153340888Y-69610000D01*
X153340888Y-71690000D02*
X153340888Y-73130000D01*
X153380888Y-68182000D02*
X153380888Y-69610000D01*
X153380888Y-71690000D02*
X153380888Y-73118000D01*
X153420888Y-68195000D02*
X153420888Y-69610000D01*
X153420888Y-71690000D02*
X153420888Y-73105000D01*
X153460888Y-68208000D02*
X153460888Y-69610000D01*
X153460888Y-71690000D02*
X153460888Y-73092000D01*
X153500888Y-68222000D02*
X153500888Y-69610000D01*
X153500888Y-71690000D02*
X153500888Y-73078000D01*
X153540888Y-68236000D02*
X153540888Y-69610000D01*
X153540888Y-71690000D02*
X153540888Y-73064000D01*
X153580888Y-68252000D02*
X153580888Y-69610000D01*
X153580888Y-71690000D02*
X153580888Y-73048000D01*
X153620888Y-68268000D02*
X153620888Y-69610000D01*
X153620888Y-71690000D02*
X153620888Y-73032000D01*
X153660888Y-68285000D02*
X153660888Y-69610000D01*
X153660888Y-71690000D02*
X153660888Y-73015000D01*
X153700888Y-68302000D02*
X153700888Y-69610000D01*
X153700888Y-71690000D02*
X153700888Y-72998000D01*
X153740888Y-68321000D02*
X153740888Y-69610000D01*
X153740888Y-71690000D02*
X153740888Y-72979000D01*
X153780888Y-68340000D02*
X153780888Y-69610000D01*
X153780888Y-71690000D02*
X153780888Y-72960000D01*
X153820888Y-68360000D02*
X153820888Y-69610000D01*
X153820888Y-71690000D02*
X153820888Y-72940000D01*
X153860888Y-68382000D02*
X153860888Y-69610000D01*
X153860888Y-71690000D02*
X153860888Y-72918000D01*
X153900888Y-68403000D02*
X153900888Y-69610000D01*
X153900888Y-71690000D02*
X153900888Y-72897000D01*
X153940888Y-68426000D02*
X153940888Y-69610000D01*
X153940888Y-71690000D02*
X153940888Y-72874000D01*
X153980888Y-68450000D02*
X153980888Y-69610000D01*
X153980888Y-71690000D02*
X153980888Y-72850000D01*
X154020888Y-68475000D02*
X154020888Y-69610000D01*
X154020888Y-71690000D02*
X154020888Y-72825000D01*
X154060888Y-68501000D02*
X154060888Y-69610000D01*
X154060888Y-71690000D02*
X154060888Y-72799000D01*
X154100888Y-68528000D02*
X154100888Y-69610000D01*
X154100888Y-71690000D02*
X154100888Y-72772000D01*
X154140888Y-68555000D02*
X154140888Y-69610000D01*
X154140888Y-71690000D02*
X154140888Y-72745000D01*
X154180888Y-68585000D02*
X154180888Y-69610000D01*
X154180888Y-71690000D02*
X154180888Y-72715000D01*
X154220888Y-68615000D02*
X154220888Y-69610000D01*
X154220888Y-71690000D02*
X154220888Y-72685000D01*
X154260888Y-68646000D02*
X154260888Y-69610000D01*
X154260888Y-71690000D02*
X154260888Y-72654000D01*
X154300888Y-68679000D02*
X154300888Y-69610000D01*
X154300888Y-71690000D02*
X154300888Y-72621000D01*
X154340888Y-68713000D02*
X154340888Y-69610000D01*
X154340888Y-71690000D02*
X154340888Y-72587000D01*
X154380888Y-68749000D02*
X154380888Y-69610000D01*
X154380888Y-71690000D02*
X154380888Y-72551000D01*
X154420888Y-68786000D02*
X154420888Y-69610000D01*
X154420888Y-71690000D02*
X154420888Y-72514000D01*
X154460888Y-68824000D02*
X154460888Y-69610000D01*
X154460888Y-71690000D02*
X154460888Y-72476000D01*
X154500888Y-68865000D02*
X154500888Y-69610000D01*
X154500888Y-71690000D02*
X154500888Y-72435000D01*
X154540888Y-68907000D02*
X154540888Y-69610000D01*
X154540888Y-71690000D02*
X154540888Y-72393000D01*
X154580888Y-68951000D02*
X154580888Y-69610000D01*
X154580888Y-71690000D02*
X154580888Y-72349000D01*
X154620888Y-68997000D02*
X154620888Y-69610000D01*
X154620888Y-71690000D02*
X154620888Y-72303000D01*
X154660888Y-69045000D02*
X154660888Y-69610000D01*
X154660888Y-71690000D02*
X154660888Y-72255000D01*
X154700888Y-69096000D02*
X154700888Y-69610000D01*
X154700888Y-71690000D02*
X154700888Y-72204000D01*
X154740888Y-69150000D02*
X154740888Y-69610000D01*
X154740888Y-71690000D02*
X154740888Y-72150000D01*
X154780888Y-69207000D02*
X154780888Y-69610000D01*
X154780888Y-71690000D02*
X154780888Y-72093000D01*
X154820888Y-69267000D02*
X154820888Y-69610000D01*
X154820888Y-71690000D02*
X154820888Y-72033000D01*
X154860888Y-69331000D02*
X154860888Y-69610000D01*
X154860888Y-71690000D02*
X154860888Y-71969000D01*
X154900888Y-69399000D02*
X154900888Y-69610000D01*
X154900888Y-71690000D02*
X154900888Y-71901000D01*
X154940888Y-69472000D02*
X154940888Y-71828000D01*
X154980888Y-69552000D02*
X154980888Y-71748000D01*
X155020888Y-69639000D02*
X155020888Y-71661000D01*
X155060888Y-69735000D02*
X155060888Y-71565000D01*
X155100888Y-69845000D02*
X155100888Y-71455000D01*
X155140888Y-69973000D02*
X155140888Y-71327000D01*
X155180888Y-70132000D02*
X155180888Y-71168000D01*
X155220888Y-70366000D02*
X155220888Y-70934000D01*
X155239888Y-70650000D02*
G75*
G02*
X149999888Y-70650000I-2620000J0D01*
G01*
X149999888Y-70650000D02*
G75*
G02*
X155239888Y-70650000I2620000J0D01*
G01*
%TO.C,D4*%
X159460000Y-84505000D02*
X159460000Y-87595000D01*
X159460001Y-84505170D02*
G75*
G02*
X165009999Y-86050462I2559999J-1544830D01*
G01*
X165010000Y-86049538D02*
G75*
G02*
X159460000Y-87594830I-2990000J-462D01*
G01*
X164520000Y-86050000D02*
G75*
G02*
X159520000Y-86050000I-2500000J0D01*
G01*
X159520000Y-86050000D02*
G75*
G02*
X164520000Y-86050000I2500000J0D01*
G01*
%TO.C,R12*%
X155585000Y-63875000D02*
X156355000Y-63875000D01*
X156355000Y-62505000D02*
X156355000Y-65245000D01*
X156355000Y-65245000D02*
X162895000Y-65245000D01*
X162895000Y-62505000D02*
X156355000Y-62505000D01*
X162895000Y-65245000D02*
X162895000Y-62505000D01*
X163665000Y-63875000D02*
X162895000Y-63875000D01*
%TO.C,A2_In_N*%
X101870000Y-95695000D02*
X103200000Y-95695000D01*
X101870000Y-97025000D02*
X101870000Y-95695000D01*
X101870000Y-98295000D02*
X101870000Y-98355000D01*
X101870000Y-98295000D02*
X104530000Y-98295000D01*
X101870000Y-98355000D02*
X104530000Y-98355000D01*
X104530000Y-98295000D02*
X104530000Y-98355000D01*
%TO.C,R8*%
X119085000Y-55725000D02*
X118315000Y-55725000D01*
X118315000Y-57095000D02*
X118315000Y-54355000D01*
X118315000Y-54355000D02*
X111775000Y-54355000D01*
X111775000Y-57095000D02*
X118315000Y-57095000D01*
X111775000Y-54355000D02*
X111775000Y-57095000D01*
X111005000Y-55725000D02*
X111775000Y-55725000D01*
%TO.C,C6*%
X142955000Y-82120000D02*
X142955000Y-74680000D01*
X150395000Y-74680000D02*
X142955000Y-74680000D01*
X150395000Y-82120000D02*
X142955000Y-82120000D01*
X150395000Y-82120000D02*
X150395000Y-74680000D01*
%TO.C,C4*%
X119939888Y-77700000D02*
G75*
G02*
X114699888Y-77700000I-2620000J0D01*
G01*
X114699888Y-77700000D02*
G75*
G02*
X119939888Y-77700000I2620000J0D01*
G01*
X119920888Y-77416000D02*
X119920888Y-77984000D01*
X119880888Y-77182000D02*
X119880888Y-78218000D01*
X119840888Y-77023000D02*
X119840888Y-78377000D01*
X119800888Y-76895000D02*
X119800888Y-78505000D01*
X119760888Y-76785000D02*
X119760888Y-78615000D01*
X119720888Y-76689000D02*
X119720888Y-78711000D01*
X119680888Y-76602000D02*
X119680888Y-78798000D01*
X119640888Y-76522000D02*
X119640888Y-78878000D01*
X119600888Y-78740000D02*
X119600888Y-78951000D01*
X119600888Y-76449000D02*
X119600888Y-76660000D01*
X119560888Y-78740000D02*
X119560888Y-79019000D01*
X119560888Y-76381000D02*
X119560888Y-76660000D01*
X119520888Y-78740000D02*
X119520888Y-79083000D01*
X119520888Y-76317000D02*
X119520888Y-76660000D01*
X119480888Y-78740000D02*
X119480888Y-79143000D01*
X119480888Y-76257000D02*
X119480888Y-76660000D01*
X119440888Y-78740000D02*
X119440888Y-79200000D01*
X119440888Y-76200000D02*
X119440888Y-76660000D01*
X119400888Y-78740000D02*
X119400888Y-79254000D01*
X119400888Y-76146000D02*
X119400888Y-76660000D01*
X119360888Y-78740000D02*
X119360888Y-79305000D01*
X119360888Y-76095000D02*
X119360888Y-76660000D01*
X119320888Y-78740000D02*
X119320888Y-79353000D01*
X119320888Y-76047000D02*
X119320888Y-76660000D01*
X119280888Y-78740000D02*
X119280888Y-79399000D01*
X119280888Y-76001000D02*
X119280888Y-76660000D01*
X119240888Y-78740000D02*
X119240888Y-79443000D01*
X119240888Y-75957000D02*
X119240888Y-76660000D01*
X119200888Y-78740000D02*
X119200888Y-79485000D01*
X119200888Y-75915000D02*
X119200888Y-76660000D01*
X119160888Y-78740000D02*
X119160888Y-79526000D01*
X119160888Y-75874000D02*
X119160888Y-76660000D01*
X119120888Y-78740000D02*
X119120888Y-79564000D01*
X119120888Y-75836000D02*
X119120888Y-76660000D01*
X119080888Y-78740000D02*
X119080888Y-79601000D01*
X119080888Y-75799000D02*
X119080888Y-76660000D01*
X119040888Y-78740000D02*
X119040888Y-79637000D01*
X119040888Y-75763000D02*
X119040888Y-76660000D01*
X119000888Y-78740000D02*
X119000888Y-79671000D01*
X119000888Y-75729000D02*
X119000888Y-76660000D01*
X118960888Y-78740000D02*
X118960888Y-79704000D01*
X118960888Y-75696000D02*
X118960888Y-76660000D01*
X118920888Y-78740000D02*
X118920888Y-79735000D01*
X118920888Y-75665000D02*
X118920888Y-76660000D01*
X118880888Y-78740000D02*
X118880888Y-79765000D01*
X118880888Y-75635000D02*
X118880888Y-76660000D01*
X118840888Y-78740000D02*
X118840888Y-79795000D01*
X118840888Y-75605000D02*
X118840888Y-76660000D01*
X118800888Y-78740000D02*
X118800888Y-79822000D01*
X118800888Y-75578000D02*
X118800888Y-76660000D01*
X118760888Y-78740000D02*
X118760888Y-79849000D01*
X118760888Y-75551000D02*
X118760888Y-76660000D01*
X118720888Y-78740000D02*
X118720888Y-79875000D01*
X118720888Y-75525000D02*
X118720888Y-76660000D01*
X118680888Y-78740000D02*
X118680888Y-79900000D01*
X118680888Y-75500000D02*
X118680888Y-76660000D01*
X118640888Y-78740000D02*
X118640888Y-79924000D01*
X118640888Y-75476000D02*
X118640888Y-76660000D01*
X118600888Y-78740000D02*
X118600888Y-79947000D01*
X118600888Y-75453000D02*
X118600888Y-76660000D01*
X118560888Y-78740000D02*
X118560888Y-79968000D01*
X118560888Y-75432000D02*
X118560888Y-76660000D01*
X118520888Y-78740000D02*
X118520888Y-79990000D01*
X118520888Y-75410000D02*
X118520888Y-76660000D01*
X118480888Y-78740000D02*
X118480888Y-80010000D01*
X118480888Y-75390000D02*
X118480888Y-76660000D01*
X118440888Y-78740000D02*
X118440888Y-80029000D01*
X118440888Y-75371000D02*
X118440888Y-76660000D01*
X118400888Y-78740000D02*
X118400888Y-80048000D01*
X118400888Y-75352000D02*
X118400888Y-76660000D01*
X118360888Y-78740000D02*
X118360888Y-80065000D01*
X118360888Y-75335000D02*
X118360888Y-76660000D01*
X118320888Y-78740000D02*
X118320888Y-80082000D01*
X118320888Y-75318000D02*
X118320888Y-76660000D01*
X118280888Y-78740000D02*
X118280888Y-80098000D01*
X118280888Y-75302000D02*
X118280888Y-76660000D01*
X118240888Y-78740000D02*
X118240888Y-80114000D01*
X118240888Y-75286000D02*
X118240888Y-76660000D01*
X118200888Y-78740000D02*
X118200888Y-80128000D01*
X118200888Y-75272000D02*
X118200888Y-76660000D01*
X118160888Y-78740000D02*
X118160888Y-80142000D01*
X118160888Y-75258000D02*
X118160888Y-76660000D01*
X118120888Y-78740000D02*
X118120888Y-80155000D01*
X118120888Y-75245000D02*
X118120888Y-76660000D01*
X118080888Y-78740000D02*
X118080888Y-80168000D01*
X118080888Y-75232000D02*
X118080888Y-76660000D01*
X118040888Y-78740000D02*
X118040888Y-80180000D01*
X118040888Y-75220000D02*
X118040888Y-76660000D01*
X117999888Y-78740000D02*
X117999888Y-80191000D01*
X117999888Y-75209000D02*
X117999888Y-76660000D01*
X117959888Y-78740000D02*
X117959888Y-80201000D01*
X117959888Y-75199000D02*
X117959888Y-76660000D01*
X117919888Y-78740000D02*
X117919888Y-80211000D01*
X117919888Y-75189000D02*
X117919888Y-76660000D01*
X117879888Y-78740000D02*
X117879888Y-80220000D01*
X117879888Y-75180000D02*
X117879888Y-76660000D01*
X117839888Y-78740000D02*
X117839888Y-80228000D01*
X117839888Y-75172000D02*
X117839888Y-76660000D01*
X117799888Y-78740000D02*
X117799888Y-80236000D01*
X117799888Y-75164000D02*
X117799888Y-76660000D01*
X117759888Y-78740000D02*
X117759888Y-80243000D01*
X117759888Y-75157000D02*
X117759888Y-76660000D01*
X117719888Y-78740000D02*
X117719888Y-80250000D01*
X117719888Y-75150000D02*
X117719888Y-76660000D01*
X117679888Y-78740000D02*
X117679888Y-80256000D01*
X117679888Y-75144000D02*
X117679888Y-76660000D01*
X117639888Y-78740000D02*
X117639888Y-80261000D01*
X117639888Y-75139000D02*
X117639888Y-76660000D01*
X117599888Y-78740000D02*
X117599888Y-80265000D01*
X117599888Y-75135000D02*
X117599888Y-76660000D01*
X117559888Y-78740000D02*
X117559888Y-80269000D01*
X117559888Y-75131000D02*
X117559888Y-76660000D01*
X117519888Y-75127000D02*
X117519888Y-80273000D01*
X117479888Y-75124000D02*
X117479888Y-80276000D01*
X117439888Y-75122000D02*
X117439888Y-80278000D01*
X117399888Y-75121000D02*
X117399888Y-80279000D01*
X117359888Y-75120000D02*
X117359888Y-80280000D01*
X117319888Y-75120000D02*
X117319888Y-80280000D01*
X114765113Y-75975000D02*
X114765113Y-76475000D01*
X114515113Y-76225000D02*
X115015113Y-76225000D01*
%TO.C,J5*%
X167715000Y-75180000D02*
X167715000Y-67440000D01*
X167715000Y-75180000D02*
X159085000Y-75180000D01*
X167715000Y-75060000D02*
X159085000Y-75060000D01*
X167715000Y-74941905D02*
X159085000Y-74941905D01*
X167715000Y-74823810D02*
X159085000Y-74823810D01*
X167715000Y-74705715D02*
X159085000Y-74705715D01*
X167715000Y-74587620D02*
X159085000Y-74587620D01*
X167715000Y-74469525D02*
X159085000Y-74469525D01*
X167715000Y-74351430D02*
X159085000Y-74351430D01*
X167715000Y-74233335D02*
X159085000Y-74233335D01*
X167715000Y-74115240D02*
X159085000Y-74115240D01*
X167715000Y-73997145D02*
X159085000Y-73997145D01*
X167715000Y-73879050D02*
X159085000Y-73879050D01*
X167715000Y-73760955D02*
X159085000Y-73760955D01*
X167715000Y-73642860D02*
X159085000Y-73642860D01*
X167715000Y-73524765D02*
X159085000Y-73524765D01*
X167715000Y-73406670D02*
X159085000Y-73406670D01*
X167715000Y-73288575D02*
X159085000Y-73288575D01*
X167715000Y-73170480D02*
X159085000Y-73170480D01*
X167715000Y-73052385D02*
X159085000Y-73052385D01*
X167715000Y-72934290D02*
X159085000Y-72934290D01*
X167715000Y-72816195D02*
X159085000Y-72816195D01*
X167715000Y-72698100D02*
X159085000Y-72698100D01*
X167715000Y-72580000D02*
X159085000Y-72580000D01*
X167715000Y-70040000D02*
X159085000Y-70040000D01*
X167715000Y-67440000D02*
X159085000Y-67440000D01*
X159085000Y-75180000D02*
X159085000Y-67440000D01*
X159085000Y-74210000D02*
X158735000Y-74210000D01*
X159085000Y-73490000D02*
X158735000Y-73490000D01*
X159085000Y-71670000D02*
X158675000Y-71670000D01*
X159085000Y-70950000D02*
X158675000Y-70950000D01*
X159085000Y-69130000D02*
X158675000Y-69130000D01*
X159085000Y-68410000D02*
X158675000Y-68410000D01*
X157625000Y-75180000D02*
X156515000Y-75180000D01*
X156515000Y-75180000D02*
X156515000Y-73850000D01*
%TD*%
M02*
