%TF.GenerationSoftware,KiCad,Pcbnew,8.0.1*%
%TF.CreationDate,2024-05-19T12:18:12+02:00*%
%TF.ProjectId,80_KiCad,38305f4b-6943-4616-942e-6b696361645f,v1.1*%
%TF.SameCoordinates,Original*%
%TF.FileFunction,Copper,L3,Inr*%
%TF.FilePolarity,Positive*%
%FSLAX46Y46*%
G04 Gerber Fmt 4.6, Leading zero omitted, Abs format (unit mm)*
G04 Created by KiCad (PCBNEW 8.0.1) date 2024-05-19 12:18:12*
%MOMM*%
%LPD*%
G01*
G04 APERTURE LIST*
%TA.AperFunction,ComponentPad*%
%ADD10R,1.700000X1.700000*%
%TD*%
%TA.AperFunction,ComponentPad*%
%ADD11R,1.600000X1.600000*%
%TD*%
%TA.AperFunction,ComponentPad*%
%ADD12O,1.600000X1.600000*%
%TD*%
%TA.AperFunction,ComponentPad*%
%ADD13C,1.600000*%
%TD*%
%TA.AperFunction,ComponentPad*%
%ADD14R,1.800000X1.800000*%
%TD*%
%TA.AperFunction,ComponentPad*%
%ADD15C,1.800000*%
%TD*%
%TA.AperFunction,ComponentPad*%
%ADD16C,2.000000*%
%TD*%
%TA.AperFunction,ComponentPad*%
%ADD17O,1.700000X1.700000*%
%TD*%
%TA.AperFunction,ViaPad*%
%ADD18C,0.600000*%
%TD*%
G04 APERTURE END LIST*
D10*
%TO.N,Net-(U2--)*%
%TO.C,A_In2_N1*%
X103075000Y-96775000D03*
%TD*%
%TO.N,Net-(U1--)*%
%TO.C,A_In1_N1*%
X102800000Y-65625000D03*
%TD*%
%TO.N,Net-(U1-+)*%
%TO.C,A_In_P1*%
X102825000Y-88325000D03*
%TD*%
%TO.N,Net-(A2_Out1-Pad1)*%
%TO.C,A2_Out1*%
X112625000Y-97075000D03*
%TD*%
D11*
%TO.N,unconnected-(U1-NC-Pad1)*%
%TO.C,U1*%
X142575000Y-67825000D03*
D12*
%TO.N,Net-(U1--)*%
X142575000Y-70365000D03*
%TO.N,Net-(U1-+)*%
X142575000Y-72905000D03*
%TO.N,GND*%
X142575000Y-75445000D03*
%TO.N,unconnected-(U1-NC-Pad5)*%
X150195000Y-75445000D03*
%TO.N,Net-(A1_Out1-Pad1)*%
X150195000Y-72905000D03*
%TO.N,VCC*%
X150195000Y-70365000D03*
%TO.N,unconnected-(U1-NC-Pad8)*%
X150195000Y-67825000D03*
%TD*%
D11*
%TO.N,Net-(U1-+)*%
%TO.C,C2*%
X123500000Y-58500000D03*
D13*
%TO.N,GND*%
X126000000Y-58500000D03*
%TD*%
D10*
%TO.N,VCC*%
%TO.C,VCC1*%
X102825000Y-52400000D03*
%TD*%
D13*
%TO.N,GND*%
%TO.C,R10*%
X116500000Y-66690000D03*
D12*
%TO.N,Net-(D3-K)*%
X116500000Y-74310000D03*
%TD*%
D14*
%TO.N,Net-(D2-K)*%
%TO.C,D2*%
X107960000Y-63000000D03*
D15*
%TO.N,Orange*%
X110500000Y-63000000D03*
%TD*%
D13*
%TO.N,GND*%
%TO.C,R9*%
X127310000Y-74000000D03*
D12*
%TO.N,Net-(D2-K)*%
X119690000Y-74000000D03*
%TD*%
D14*
%TO.N,Net-(D3-K)*%
%TO.C,D3*%
X108225000Y-71500000D03*
D15*
%TO.N,Green*%
X110765000Y-71500000D03*
%TD*%
D13*
%TO.N,Net-(U1--)*%
%TO.C,C5*%
X133225000Y-79550000D03*
%TO.N,Net-(A1_Out1-Pad1)*%
X138225000Y-79550000D03*
%TD*%
%TO.N,Net-(C3-Pad1)*%
%TO.C,R3*%
X133180000Y-67680000D03*
D12*
%TO.N,Net-(U1--)*%
X133180000Y-75300000D03*
%TD*%
D13*
%TO.N,VCC*%
%TO.C,R1*%
X133000000Y-62810000D03*
D12*
%TO.N,Net-(U1-+)*%
X133000000Y-55190000D03*
%TD*%
D11*
%TO.N,unconnected-(U2-NC-Pad1)*%
%TO.C,U2*%
X131880000Y-83880000D03*
D12*
%TO.N,Net-(U2--)*%
X131880000Y-86420000D03*
%TO.N,Net-(U1-+)*%
X131880000Y-88960000D03*
%TO.N,GND*%
X131880000Y-91500000D03*
%TO.N,unconnected-(U2-NC-Pad5)*%
X139500000Y-91500000D03*
%TO.N,Net-(A2_Out1-Pad1)*%
X139500000Y-88960000D03*
%TO.N,VCC*%
X139500000Y-86420000D03*
%TO.N,unconnected-(U2-NC-Pad8)*%
X139500000Y-83880000D03*
%TD*%
D10*
%TO.N,Vin*%
%TO.C,V_In1*%
X156000000Y-54500000D03*
%TD*%
%TO.N,GND*%
%TO.C,GND*%
X102600000Y-74900000D03*
%TD*%
%TO.N,GND*%
%TO.C,GND*%
X162500000Y-54500000D03*
%TD*%
%TO.N,Vout*%
%TO.C,V_Out1*%
X121900000Y-97500000D03*
%TD*%
D13*
%TO.N,Net-(C4-Pad2)*%
%TO.C,R5*%
X119840000Y-91375000D03*
D12*
%TO.N,Net-(U2--)*%
X127460000Y-91375000D03*
%TD*%
D14*
%TO.N,Net-(D1-K)*%
%TO.C,D1*%
X108025000Y-54425000D03*
D15*
%TO.N,Red*%
X110565000Y-54425000D03*
%TD*%
D16*
%TO.N,Push Button*%
%TO.C,SW1*%
X155775000Y-87675000D03*
X162275000Y-87675000D03*
%TO.N,GND*%
X155775000Y-92175000D03*
X162275000Y-92175000D03*
%TD*%
D13*
%TO.N,Net-(U1-+)*%
%TO.C,C1*%
X121500000Y-69500000D03*
%TO.N,GND*%
X126500000Y-69500000D03*
%TD*%
D10*
%TO.N,Net-(A1_Out1-Pad1)*%
%TO.C,A1_Out1*%
X102750000Y-82475000D03*
%TD*%
D13*
%TO.N,Net-(U2--)*%
%TO.C,R7*%
X150435000Y-85875000D03*
D12*
%TO.N,Net-(A2_Out1-Pad1)*%
X142815000Y-85875000D03*
%TD*%
D13*
%TO.N,Net-(D4-K)*%
%TO.C,R11*%
X163085000Y-67425000D03*
D12*
%TO.N,GND*%
X155465000Y-67425000D03*
%TD*%
D13*
%TO.N,Net-(U1--)*%
%TO.C,R4*%
X138180000Y-67870000D03*
D12*
%TO.N,Net-(A1_Out1-Pad1)*%
X138180000Y-75490000D03*
%TD*%
D13*
%TO.N,Net-(A2_Out1-Pad1)*%
%TO.C,R6*%
X150485000Y-90975000D03*
D12*
%TO.N,Vout*%
X142865000Y-90975000D03*
%TD*%
D13*
%TO.N,Net-(U1-+)*%
%TO.C,R2*%
X138000000Y-62810000D03*
D12*
%TO.N,GND*%
X138000000Y-55190000D03*
%TD*%
D10*
%TO.N,GND*%
%TO.C,GND*%
X102900000Y-59100000D03*
%TD*%
D11*
%TO.N,Net-(C3-Pad1)*%
%TO.C,C3*%
X146500000Y-58000000D03*
D13*
%TO.N,Vin*%
X149000000Y-58000000D03*
%TD*%
D14*
%TO.N,Net-(D4-K)*%
%TO.C,D4*%
X157725000Y-61500000D03*
D15*
%TO.N,VCC*%
X160265000Y-61500000D03*
%TD*%
D13*
%TO.N,Push Button*%
%TO.C,R12*%
X155365000Y-82850000D03*
D12*
%TO.N,VCC*%
X162985000Y-82850000D03*
%TD*%
D13*
%TO.N,Net-(D1-K)*%
%TO.C,R8*%
X116500000Y-54500000D03*
D12*
%TO.N,GND*%
X116500000Y-62120000D03*
%TD*%
D13*
%TO.N,Net-(U2--)*%
%TO.C,C6*%
X148875000Y-79600000D03*
%TO.N,Net-(A2_Out1-Pad1)*%
X143875000Y-79600000D03*
%TD*%
D11*
%TO.N,Net-(A1_Out1-Pad1)*%
%TO.C,C4*%
X122300000Y-83200000D03*
D13*
%TO.N,Net-(C4-Pad2)*%
X124800000Y-83200000D03*
%TD*%
D10*
%TO.N,GND*%
%TO.C,J5*%
X157600000Y-76525000D03*
D17*
%TO.N,Vin*%
X157600000Y-73985000D03*
%TO.N,VCC*%
X157600000Y-71445000D03*
%TD*%
D10*
%TO.N,unconnected-(J1-Pin_1-Pad1)*%
%TO.C,J1*%
X127940000Y-97460000D03*
D17*
%TO.N,/IOREF*%
X130480000Y-97460000D03*
%TO.N,/~{RESET}*%
X133020000Y-97460000D03*
%TO.N,unconnected-(J1-Pin_4-Pad4)*%
X135560000Y-97460000D03*
%TO.N,VCC*%
X138100000Y-97460000D03*
%TO.N,GND*%
X140640000Y-97460000D03*
X143180000Y-97460000D03*
%TO.N,unconnected-(J1-Pin_8-Pad8)*%
X145720000Y-97460000D03*
%TD*%
D10*
%TO.N,Vout*%
%TO.C,J3*%
X150800000Y-97460000D03*
D17*
%TO.N,/A1*%
X153340000Y-97460000D03*
%TO.N,/A2*%
X155880000Y-97460000D03*
%TO.N,/A3*%
X158420000Y-97460000D03*
%TO.N,/SDA{slash}A4*%
X160960000Y-97460000D03*
%TO.N,/SCL{slash}A5*%
X163500000Y-97460000D03*
%TD*%
D10*
%TO.N,unconnected-(J2-Pin_1-Pad1)*%
%TO.C,J2*%
X118796000Y-49200000D03*
D17*
%TO.N,unconnected-(J2-Pin_2-Pad2)*%
X121336000Y-49200000D03*
%TO.N,/AREF*%
X123876000Y-49200000D03*
%TO.N,GND*%
X126416000Y-49200000D03*
%TO.N,/13*%
X128956000Y-49200000D03*
%TO.N,/12*%
X131496000Y-49200000D03*
%TO.N,/\u002A11*%
X134036000Y-49200000D03*
%TO.N,/\u002A10*%
X136576000Y-49200000D03*
%TO.N,/\u002A9*%
X139116000Y-49200000D03*
%TO.N,/8*%
X141656000Y-49200000D03*
%TD*%
D10*
%TO.N,Push Button*%
%TO.C,J4*%
X145720000Y-49200000D03*
D17*
%TO.N,Red*%
X148260000Y-49200000D03*
%TO.N,Orange*%
X150800000Y-49200000D03*
%TO.N,Green*%
X153340000Y-49200000D03*
%TO.N,unconnected-(J4-Pin_5-Pad5)*%
X155880000Y-49200000D03*
%TO.N,/2*%
X158420000Y-49200000D03*
%TO.N,/TX{slash}1*%
X160960000Y-49200000D03*
%TO.N,/RX{slash}0*%
X163500000Y-49200000D03*
%TD*%
D18*
%TO.N,GND*%
X146775000Y-52025000D03*
X142050000Y-88525000D03*
X129350000Y-79175000D03*
X118450000Y-78125000D03*
X129675000Y-91950000D03*
%TD*%
%TA.AperFunction,Conductor*%
%TO.N,VCC*%
G36*
X163485910Y-46754407D02*
G01*
X163497723Y-46764496D01*
X165935504Y-49202277D01*
X165963281Y-49256794D01*
X165964500Y-49272281D01*
X165964500Y-59344982D01*
X165964500Y-59375018D01*
X165975994Y-59402767D01*
X168475505Y-61902278D01*
X168503281Y-61956793D01*
X168504500Y-61972280D01*
X168504500Y-96117718D01*
X168485593Y-96175909D01*
X168475504Y-96187722D01*
X165997233Y-98665994D01*
X165997232Y-98665993D01*
X165975994Y-98687232D01*
X165975994Y-98687233D01*
X165967251Y-98708342D01*
X165964500Y-98714983D01*
X165964500Y-99233139D01*
X165964023Y-99242843D01*
X165952264Y-99362225D01*
X165948478Y-99381259D01*
X165915073Y-99491381D01*
X165907647Y-99509309D01*
X165853398Y-99610803D01*
X165842619Y-99626935D01*
X165769614Y-99715891D01*
X165755891Y-99729614D01*
X165666935Y-99802619D01*
X165650803Y-99813398D01*
X165549311Y-99867647D01*
X165531381Y-99875073D01*
X165421259Y-99908478D01*
X165402225Y-99912264D01*
X165282843Y-99924023D01*
X165273139Y-99924500D01*
X100766861Y-99924500D01*
X100757157Y-99924023D01*
X100637774Y-99912264D01*
X100618740Y-99908478D01*
X100508618Y-99875073D01*
X100490694Y-99867649D01*
X100389191Y-99813395D01*
X100373066Y-99802620D01*
X100328586Y-99766116D01*
X100284108Y-99729614D01*
X100270385Y-99715891D01*
X100203757Y-99634705D01*
X100197377Y-99626930D01*
X100186605Y-99610810D01*
X100132347Y-99509300D01*
X100124926Y-99491381D01*
X100122168Y-99482290D01*
X100091521Y-99381259D01*
X100087735Y-99362225D01*
X100075977Y-99242843D01*
X100075500Y-99233139D01*
X100075500Y-97673638D01*
X101716500Y-97673638D01*
X101717654Y-97684368D01*
X101723010Y-97734199D01*
X101723011Y-97734201D01*
X101774111Y-97871204D01*
X101774112Y-97871206D01*
X101774113Y-97871207D01*
X101815074Y-97925925D01*
X101861739Y-97988261D01*
X101978796Y-98075889D01*
X102115799Y-98126989D01*
X102176362Y-98133500D01*
X102176365Y-98133500D01*
X103973635Y-98133500D01*
X103973638Y-98133500D01*
X104034201Y-98126989D01*
X104171204Y-98075889D01*
X104288261Y-97988261D01*
X104299208Y-97973638D01*
X111266500Y-97973638D01*
X111268804Y-97995069D01*
X111273010Y-98034199D01*
X111273011Y-98034201D01*
X111324111Y-98171204D01*
X111411739Y-98288261D01*
X111528796Y-98375889D01*
X111665799Y-98426989D01*
X111726362Y-98433500D01*
X111726365Y-98433500D01*
X113523635Y-98433500D01*
X113523638Y-98433500D01*
X113584201Y-98426989D01*
X113660212Y-98398638D01*
X120541500Y-98398638D01*
X120543577Y-98417956D01*
X120548010Y-98459199D01*
X120559446Y-98489861D01*
X120599111Y-98596204D01*
X120599112Y-98596206D01*
X120599113Y-98596207D01*
X120683056Y-98708342D01*
X120686739Y-98713261D01*
X120803796Y-98800889D01*
X120940799Y-98851989D01*
X121001362Y-98858500D01*
X121001365Y-98858500D01*
X122798635Y-98858500D01*
X122798638Y-98858500D01*
X122859201Y-98851989D01*
X122996204Y-98800889D01*
X123113261Y-98713261D01*
X123200889Y-98596204D01*
X123251989Y-98459201D01*
X123258500Y-98398638D01*
X123258500Y-98358634D01*
X126581500Y-98358634D01*
X126588010Y-98419199D01*
X126588011Y-98419201D01*
X126639111Y-98556204D01*
X126639112Y-98556206D01*
X126639113Y-98556207D01*
X126672785Y-98601188D01*
X126726739Y-98673261D01*
X126843796Y-98760889D01*
X126980799Y-98811989D01*
X127041362Y-98818500D01*
X127041365Y-98818500D01*
X128838635Y-98818500D01*
X128838638Y-98818500D01*
X128899201Y-98811989D01*
X129036204Y-98760889D01*
X129153261Y-98673261D01*
X129240889Y-98556204D01*
X129291989Y-98419201D01*
X129292123Y-98417956D01*
X129292461Y-98417199D01*
X129293414Y-98413171D01*
X129294185Y-98413353D01*
X129317140Y-98362118D01*
X129370199Y-98331650D01*
X129431034Y-98338187D01*
X129463392Y-98361483D01*
X129556756Y-98462903D01*
X129556762Y-98462908D01*
X129728019Y-98596204D01*
X129734424Y-98601189D01*
X129932426Y-98708342D01*
X130145365Y-98781444D01*
X130367431Y-98818500D01*
X130592569Y-98818500D01*
X130814635Y-98781444D01*
X131027574Y-98708342D01*
X131225576Y-98601189D01*
X131403240Y-98462906D01*
X131406653Y-98459199D01*
X131555717Y-98297274D01*
X131555719Y-98297271D01*
X131555722Y-98297268D01*
X131667121Y-98126757D01*
X131714776Y-98088385D01*
X131775886Y-98085351D01*
X131827109Y-98118816D01*
X131832870Y-98126746D01*
X131944278Y-98297268D01*
X131944282Y-98297274D01*
X132096756Y-98462903D01*
X132096762Y-98462908D01*
X132268019Y-98596204D01*
X132274424Y-98601189D01*
X132472426Y-98708342D01*
X132685365Y-98781444D01*
X132907431Y-98818500D01*
X133132569Y-98818500D01*
X133354635Y-98781444D01*
X133567574Y-98708342D01*
X133765576Y-98601189D01*
X133943240Y-98462906D01*
X133946653Y-98459199D01*
X134095717Y-98297274D01*
X134095719Y-98297271D01*
X134095722Y-98297268D01*
X134207121Y-98126757D01*
X134254776Y-98088385D01*
X134315886Y-98085351D01*
X134367109Y-98118816D01*
X134372870Y-98126746D01*
X134484278Y-98297268D01*
X134484282Y-98297274D01*
X134636756Y-98462903D01*
X134636762Y-98462908D01*
X134808019Y-98596204D01*
X134814424Y-98601189D01*
X135012426Y-98708342D01*
X135225365Y-98781444D01*
X135447431Y-98818500D01*
X135672569Y-98818500D01*
X135894635Y-98781444D01*
X136107574Y-98708342D01*
X136305576Y-98601189D01*
X136483240Y-98462906D01*
X136486653Y-98459199D01*
X136635717Y-98297274D01*
X136635719Y-98297271D01*
X136635722Y-98297268D01*
X136751422Y-98120175D01*
X136799076Y-98081803D01*
X136860186Y-98078769D01*
X136911409Y-98112234D01*
X136924024Y-98132485D01*
X136926396Y-98137572D01*
X136926398Y-98137576D01*
X137061886Y-98331073D01*
X137228926Y-98498113D01*
X137422422Y-98633600D01*
X137636509Y-98733430D01*
X137850000Y-98790634D01*
X137850000Y-97893012D01*
X137907007Y-97925925D01*
X138034174Y-97960000D01*
X138165826Y-97960000D01*
X138292993Y-97925925D01*
X138350000Y-97893012D01*
X138350000Y-98790633D01*
X138563490Y-98733430D01*
X138777577Y-98633600D01*
X138971073Y-98498113D01*
X139138113Y-98331073D01*
X139273600Y-98137577D01*
X139275971Y-98132493D01*
X139317696Y-98087742D01*
X139377756Y-98076062D01*
X139433211Y-98101915D01*
X139448578Y-98120177D01*
X139564277Y-98297268D01*
X139564280Y-98297271D01*
X139716756Y-98462903D01*
X139716762Y-98462908D01*
X139888019Y-98596204D01*
X139894424Y-98601189D01*
X140092426Y-98708342D01*
X140305365Y-98781444D01*
X140527431Y-98818500D01*
X140752569Y-98818500D01*
X140974635Y-98781444D01*
X141187574Y-98708342D01*
X141385576Y-98601189D01*
X141563240Y-98462906D01*
X141566653Y-98459199D01*
X141715717Y-98297274D01*
X141715719Y-98297271D01*
X141715722Y-98297268D01*
X141827121Y-98126757D01*
X141874776Y-98088385D01*
X141935886Y-98085351D01*
X141987109Y-98118816D01*
X141992870Y-98126746D01*
X142104278Y-98297268D01*
X142104282Y-98297274D01*
X142256756Y-98462903D01*
X142256762Y-98462908D01*
X142428019Y-98596204D01*
X142434424Y-98601189D01*
X142632426Y-98708342D01*
X142845365Y-98781444D01*
X143067431Y-98818500D01*
X143292569Y-98818500D01*
X143514635Y-98781444D01*
X143727574Y-98708342D01*
X143925576Y-98601189D01*
X144103240Y-98462906D01*
X144106653Y-98459199D01*
X144255717Y-98297274D01*
X144255719Y-98297271D01*
X144255722Y-98297268D01*
X144367121Y-98126757D01*
X144414776Y-98088385D01*
X144475886Y-98085351D01*
X144527109Y-98118816D01*
X144532870Y-98126746D01*
X144644278Y-98297268D01*
X144644282Y-98297274D01*
X144796756Y-98462903D01*
X144796762Y-98462908D01*
X144968019Y-98596204D01*
X144974424Y-98601189D01*
X145172426Y-98708342D01*
X145385365Y-98781444D01*
X145607431Y-98818500D01*
X145832569Y-98818500D01*
X146054635Y-98781444D01*
X146267574Y-98708342D01*
X146465576Y-98601189D01*
X146643240Y-98462906D01*
X146646653Y-98459199D01*
X146739231Y-98358634D01*
X149441500Y-98358634D01*
X149448010Y-98419199D01*
X149448011Y-98419201D01*
X149499111Y-98556204D01*
X149499112Y-98556206D01*
X149499113Y-98556207D01*
X149532785Y-98601188D01*
X149586739Y-98673261D01*
X149703796Y-98760889D01*
X149840799Y-98811989D01*
X149901362Y-98818500D01*
X149901365Y-98818500D01*
X151698635Y-98818500D01*
X151698638Y-98818500D01*
X151759201Y-98811989D01*
X151896204Y-98760889D01*
X152013261Y-98673261D01*
X152100889Y-98556204D01*
X152151989Y-98419201D01*
X152152123Y-98417956D01*
X152152461Y-98417199D01*
X152153414Y-98413171D01*
X152154185Y-98413353D01*
X152177140Y-98362118D01*
X152230199Y-98331650D01*
X152291034Y-98338187D01*
X152323392Y-98361483D01*
X152416756Y-98462903D01*
X152416762Y-98462908D01*
X152588019Y-98596204D01*
X152594424Y-98601189D01*
X152792426Y-98708342D01*
X153005365Y-98781444D01*
X153227431Y-98818500D01*
X153452569Y-98818500D01*
X153674635Y-98781444D01*
X153887574Y-98708342D01*
X154085576Y-98601189D01*
X154263240Y-98462906D01*
X154266653Y-98459199D01*
X154415717Y-98297274D01*
X154415719Y-98297271D01*
X154415722Y-98297268D01*
X154527121Y-98126757D01*
X154574776Y-98088385D01*
X154635886Y-98085351D01*
X154687109Y-98118816D01*
X154692870Y-98126746D01*
X154804278Y-98297268D01*
X154804282Y-98297274D01*
X154956756Y-98462903D01*
X154956762Y-98462908D01*
X155128019Y-98596204D01*
X155134424Y-98601189D01*
X155332426Y-98708342D01*
X155545365Y-98781444D01*
X155767431Y-98818500D01*
X155992569Y-98818500D01*
X156214635Y-98781444D01*
X156427574Y-98708342D01*
X156625576Y-98601189D01*
X156803240Y-98462906D01*
X156806653Y-98459199D01*
X156955717Y-98297274D01*
X156955719Y-98297271D01*
X156955722Y-98297268D01*
X157067121Y-98126757D01*
X157114776Y-98088385D01*
X157175886Y-98085351D01*
X157227109Y-98118816D01*
X157232870Y-98126746D01*
X157344278Y-98297268D01*
X157344282Y-98297274D01*
X157496756Y-98462903D01*
X157496762Y-98462908D01*
X157668019Y-98596204D01*
X157674424Y-98601189D01*
X157872426Y-98708342D01*
X158085365Y-98781444D01*
X158307431Y-98818500D01*
X158532569Y-98818500D01*
X158754635Y-98781444D01*
X158967574Y-98708342D01*
X159165576Y-98601189D01*
X159343240Y-98462906D01*
X159346653Y-98459199D01*
X159495717Y-98297274D01*
X159495719Y-98297271D01*
X159495722Y-98297268D01*
X159607121Y-98126757D01*
X159654776Y-98088385D01*
X159715886Y-98085351D01*
X159767109Y-98118816D01*
X159772870Y-98126746D01*
X159884278Y-98297268D01*
X159884282Y-98297274D01*
X160036756Y-98462903D01*
X160036762Y-98462908D01*
X160208019Y-98596204D01*
X160214424Y-98601189D01*
X160412426Y-98708342D01*
X160625365Y-98781444D01*
X160847431Y-98818500D01*
X161072569Y-98818500D01*
X161294635Y-98781444D01*
X161507574Y-98708342D01*
X161705576Y-98601189D01*
X161883240Y-98462906D01*
X161886653Y-98459199D01*
X162035717Y-98297274D01*
X162035719Y-98297271D01*
X162035722Y-98297268D01*
X162147121Y-98126757D01*
X162194776Y-98088385D01*
X162255886Y-98085351D01*
X162307109Y-98118816D01*
X162312870Y-98126746D01*
X162424278Y-98297268D01*
X162424282Y-98297274D01*
X162576756Y-98462903D01*
X162576762Y-98462908D01*
X162748019Y-98596204D01*
X162754424Y-98601189D01*
X162952426Y-98708342D01*
X163165365Y-98781444D01*
X163387431Y-98818500D01*
X163612569Y-98818500D01*
X163834635Y-98781444D01*
X164047574Y-98708342D01*
X164245576Y-98601189D01*
X164423240Y-98462906D01*
X164426653Y-98459199D01*
X164575717Y-98297274D01*
X164575719Y-98297271D01*
X164575722Y-98297268D01*
X164698860Y-98108791D01*
X164789296Y-97902616D01*
X164844564Y-97684368D01*
X164863156Y-97460000D01*
X164844564Y-97235632D01*
X164789296Y-97017384D01*
X164698860Y-96811209D01*
X164575722Y-96622732D01*
X164575720Y-96622730D01*
X164575717Y-96622725D01*
X164423243Y-96457096D01*
X164423237Y-96457091D01*
X164245579Y-96318813D01*
X164245576Y-96318811D01*
X164047577Y-96211659D01*
X164011026Y-96199111D01*
X163834635Y-96138556D01*
X163834632Y-96138555D01*
X163834631Y-96138555D01*
X163612569Y-96101500D01*
X163387431Y-96101500D01*
X163165368Y-96138555D01*
X162952422Y-96211659D01*
X162754423Y-96318811D01*
X162754420Y-96318813D01*
X162576762Y-96457091D01*
X162576756Y-96457096D01*
X162424280Y-96622728D01*
X162424277Y-96622731D01*
X162312879Y-96793240D01*
X162265224Y-96831614D01*
X162204114Y-96834648D01*
X162152891Y-96801182D01*
X162147121Y-96793240D01*
X162035722Y-96622731D01*
X162035719Y-96622728D01*
X161883243Y-96457096D01*
X161883237Y-96457091D01*
X161705579Y-96318813D01*
X161705576Y-96318811D01*
X161507577Y-96211659D01*
X161471026Y-96199111D01*
X161294635Y-96138556D01*
X161294632Y-96138555D01*
X161294631Y-96138555D01*
X161072569Y-96101500D01*
X160847431Y-96101500D01*
X160625368Y-96138555D01*
X160412422Y-96211659D01*
X160214423Y-96318811D01*
X160214420Y-96318813D01*
X160036762Y-96457091D01*
X160036756Y-96457096D01*
X159884280Y-96622728D01*
X159884277Y-96622731D01*
X159772879Y-96793240D01*
X159725224Y-96831614D01*
X159664114Y-96834648D01*
X159612891Y-96801182D01*
X159607121Y-96793240D01*
X159495722Y-96622731D01*
X159495719Y-96622728D01*
X159343243Y-96457096D01*
X159343237Y-96457091D01*
X159165579Y-96318813D01*
X159165576Y-96318811D01*
X158967577Y-96211659D01*
X158931026Y-96199111D01*
X158754635Y-96138556D01*
X158754632Y-96138555D01*
X158754631Y-96138555D01*
X158532569Y-96101500D01*
X158307431Y-96101500D01*
X158085368Y-96138555D01*
X157872422Y-96211659D01*
X157674423Y-96318811D01*
X157674420Y-96318813D01*
X157496762Y-96457091D01*
X157496756Y-96457096D01*
X157344280Y-96622728D01*
X157344277Y-96622731D01*
X157232879Y-96793240D01*
X157185224Y-96831614D01*
X157124114Y-96834648D01*
X157072891Y-96801182D01*
X157067121Y-96793240D01*
X156955722Y-96622731D01*
X156955719Y-96622728D01*
X156803243Y-96457096D01*
X156803237Y-96457091D01*
X156625579Y-96318813D01*
X156625576Y-96318811D01*
X156427577Y-96211659D01*
X156391026Y-96199111D01*
X156214635Y-96138556D01*
X156214632Y-96138555D01*
X156214631Y-96138555D01*
X155992569Y-96101500D01*
X155767431Y-96101500D01*
X155545368Y-96138555D01*
X155332422Y-96211659D01*
X155134423Y-96318811D01*
X155134420Y-96318813D01*
X154956762Y-96457091D01*
X154956756Y-96457096D01*
X154804280Y-96622728D01*
X154804277Y-96622731D01*
X154692879Y-96793240D01*
X154645224Y-96831614D01*
X154584114Y-96834648D01*
X154532891Y-96801182D01*
X154527121Y-96793240D01*
X154415722Y-96622731D01*
X154415719Y-96622728D01*
X154263243Y-96457096D01*
X154263237Y-96457091D01*
X154085579Y-96318813D01*
X154085576Y-96318811D01*
X153887577Y-96211659D01*
X153851026Y-96199111D01*
X153674635Y-96138556D01*
X153674632Y-96138555D01*
X153674631Y-96138555D01*
X153452569Y-96101500D01*
X153227431Y-96101500D01*
X153005368Y-96138555D01*
X152792422Y-96211659D01*
X152594423Y-96318811D01*
X152594420Y-96318813D01*
X152416762Y-96457091D01*
X152323392Y-96558517D01*
X152270070Y-96588523D01*
X152209294Y-96581456D01*
X152164279Y-96540016D01*
X152153637Y-96506776D01*
X152153414Y-96506829D01*
X152152735Y-96503958D01*
X152152123Y-96502045D01*
X152151989Y-96500800D01*
X152135688Y-96457096D01*
X152100889Y-96363796D01*
X152013261Y-96246739D01*
X151966398Y-96211658D01*
X151896207Y-96159113D01*
X151896206Y-96159112D01*
X151896204Y-96159111D01*
X151759201Y-96108011D01*
X151759200Y-96108010D01*
X151718327Y-96103616D01*
X151698638Y-96101500D01*
X149901362Y-96101500D01*
X149885288Y-96103228D01*
X149840800Y-96108010D01*
X149783550Y-96129364D01*
X149703796Y-96159111D01*
X149703794Y-96159112D01*
X149703792Y-96159113D01*
X149586743Y-96246735D01*
X149586735Y-96246743D01*
X149499113Y-96363792D01*
X149499112Y-96363794D01*
X149499111Y-96363796D01*
X149484193Y-96403792D01*
X149448010Y-96500800D01*
X149441500Y-96561365D01*
X149441500Y-98358634D01*
X146739231Y-98358634D01*
X146795717Y-98297274D01*
X146795719Y-98297271D01*
X146795722Y-98297268D01*
X146918860Y-98108791D01*
X147009296Y-97902616D01*
X147064564Y-97684368D01*
X147083156Y-97460000D01*
X147064564Y-97235632D01*
X147009296Y-97017384D01*
X146918860Y-96811209D01*
X146795722Y-96622732D01*
X146795720Y-96622730D01*
X146795717Y-96622725D01*
X146643243Y-96457096D01*
X146643237Y-96457091D01*
X146465579Y-96318813D01*
X146465576Y-96318811D01*
X146267577Y-96211659D01*
X146231026Y-96199111D01*
X146054635Y-96138556D01*
X146054632Y-96138555D01*
X146054631Y-96138555D01*
X145832569Y-96101500D01*
X145607431Y-96101500D01*
X145385368Y-96138555D01*
X145172422Y-96211659D01*
X144974423Y-96318811D01*
X144974420Y-96318813D01*
X144796762Y-96457091D01*
X144796756Y-96457096D01*
X144644280Y-96622728D01*
X144644277Y-96622731D01*
X144532879Y-96793240D01*
X144485224Y-96831614D01*
X144424114Y-96834648D01*
X144372891Y-96801182D01*
X144367121Y-96793240D01*
X144255722Y-96622731D01*
X144255719Y-96622728D01*
X144103243Y-96457096D01*
X144103237Y-96457091D01*
X143925579Y-96318813D01*
X143925576Y-96318811D01*
X143727577Y-96211659D01*
X143691026Y-96199111D01*
X143514635Y-96138556D01*
X143514632Y-96138555D01*
X143514631Y-96138555D01*
X143292569Y-96101500D01*
X143067431Y-96101500D01*
X142845368Y-96138555D01*
X142632422Y-96211659D01*
X142434423Y-96318811D01*
X142434420Y-96318813D01*
X142256762Y-96457091D01*
X142256756Y-96457096D01*
X142104280Y-96622728D01*
X142104277Y-96622731D01*
X141992879Y-96793240D01*
X141945224Y-96831614D01*
X141884114Y-96834648D01*
X141832891Y-96801182D01*
X141827121Y-96793240D01*
X141715722Y-96622731D01*
X141715719Y-96622728D01*
X141563243Y-96457096D01*
X141563237Y-96457091D01*
X141385579Y-96318813D01*
X141385576Y-96318811D01*
X141187577Y-96211659D01*
X141151026Y-96199111D01*
X140974635Y-96138556D01*
X140974632Y-96138555D01*
X140974631Y-96138555D01*
X140752569Y-96101500D01*
X140527431Y-96101500D01*
X140305368Y-96138555D01*
X140092422Y-96211659D01*
X139894423Y-96318811D01*
X139894420Y-96318813D01*
X139716762Y-96457091D01*
X139716756Y-96457096D01*
X139564280Y-96622728D01*
X139564277Y-96622731D01*
X139448578Y-96799823D01*
X139400923Y-96838197D01*
X139339812Y-96841231D01*
X139288590Y-96807765D01*
X139275973Y-96787511D01*
X139273601Y-96782424D01*
X139138113Y-96588926D01*
X138971073Y-96421886D01*
X138777577Y-96286399D01*
X138563489Y-96186569D01*
X138350000Y-96129364D01*
X138350000Y-97026988D01*
X138292993Y-96994075D01*
X138165826Y-96960000D01*
X138034174Y-96960000D01*
X137907007Y-96994075D01*
X137850000Y-97026988D01*
X137850000Y-96129364D01*
X137636505Y-96186570D01*
X137422432Y-96286394D01*
X137422424Y-96286398D01*
X137228926Y-96421886D01*
X137061886Y-96588926D01*
X136926398Y-96782424D01*
X136926398Y-96782425D01*
X136924021Y-96787522D01*
X136882288Y-96832266D01*
X136822226Y-96843935D01*
X136766775Y-96818072D01*
X136751421Y-96799823D01*
X136635722Y-96622732D01*
X136635720Y-96622730D01*
X136635717Y-96622725D01*
X136483243Y-96457096D01*
X136483237Y-96457091D01*
X136305579Y-96318813D01*
X136305576Y-96318811D01*
X136107577Y-96211659D01*
X136071026Y-96199111D01*
X135894635Y-96138556D01*
X135894632Y-96138555D01*
X135894631Y-96138555D01*
X135672569Y-96101500D01*
X135447431Y-96101500D01*
X135225368Y-96138555D01*
X135012422Y-96211659D01*
X134814423Y-96318811D01*
X134814420Y-96318813D01*
X134636762Y-96457091D01*
X134636756Y-96457096D01*
X134484280Y-96622728D01*
X134484277Y-96622731D01*
X134372879Y-96793240D01*
X134325224Y-96831614D01*
X134264114Y-96834648D01*
X134212891Y-96801182D01*
X134207121Y-96793240D01*
X134095722Y-96622731D01*
X134095719Y-96622728D01*
X133943243Y-96457096D01*
X133943237Y-96457091D01*
X133765579Y-96318813D01*
X133765576Y-96318811D01*
X133567577Y-96211659D01*
X133531026Y-96199111D01*
X133354635Y-96138556D01*
X133354632Y-96138555D01*
X133354631Y-96138555D01*
X133132569Y-96101500D01*
X132907431Y-96101500D01*
X132685368Y-96138555D01*
X132472422Y-96211659D01*
X132274423Y-96318811D01*
X132274420Y-96318813D01*
X132096762Y-96457091D01*
X132096756Y-96457096D01*
X131944280Y-96622728D01*
X131944277Y-96622731D01*
X131832879Y-96793240D01*
X131785224Y-96831614D01*
X131724114Y-96834648D01*
X131672891Y-96801182D01*
X131667121Y-96793240D01*
X131555722Y-96622731D01*
X131555719Y-96622728D01*
X131403243Y-96457096D01*
X131403237Y-96457091D01*
X131225579Y-96318813D01*
X131225576Y-96318811D01*
X131027577Y-96211659D01*
X130991026Y-96199111D01*
X130814635Y-96138556D01*
X130814632Y-96138555D01*
X130814631Y-96138555D01*
X130592569Y-96101500D01*
X130367431Y-96101500D01*
X130145368Y-96138555D01*
X129932422Y-96211659D01*
X129734423Y-96318811D01*
X129734420Y-96318813D01*
X129556762Y-96457091D01*
X129463392Y-96558517D01*
X129410070Y-96588523D01*
X129349294Y-96581456D01*
X129304279Y-96540016D01*
X129293637Y-96506776D01*
X129293414Y-96506829D01*
X129292735Y-96503958D01*
X129292123Y-96502045D01*
X129291989Y-96500800D01*
X129275688Y-96457096D01*
X129240889Y-96363796D01*
X129153261Y-96246739D01*
X129106398Y-96211658D01*
X129036207Y-96159113D01*
X129036206Y-96159112D01*
X129036204Y-96159111D01*
X128899201Y-96108011D01*
X128899200Y-96108010D01*
X128858327Y-96103616D01*
X128838638Y-96101500D01*
X127041362Y-96101500D01*
X127025288Y-96103228D01*
X126980800Y-96108010D01*
X126923550Y-96129364D01*
X126843796Y-96159111D01*
X126843794Y-96159112D01*
X126843792Y-96159113D01*
X126726743Y-96246735D01*
X126726735Y-96246743D01*
X126639113Y-96363792D01*
X126639112Y-96363794D01*
X126639111Y-96363796D01*
X126624193Y-96403792D01*
X126588010Y-96500800D01*
X126581500Y-96561365D01*
X126581500Y-98358634D01*
X123258500Y-98358634D01*
X123258500Y-96601362D01*
X123251989Y-96540799D01*
X123200889Y-96403796D01*
X123113261Y-96286739D01*
X123112805Y-96286398D01*
X122996207Y-96199113D01*
X122996206Y-96199112D01*
X122996204Y-96199111D01*
X122859201Y-96148011D01*
X122859200Y-96148010D01*
X122818327Y-96143616D01*
X122798638Y-96141500D01*
X121001362Y-96141500D01*
X120985288Y-96143228D01*
X120940800Y-96148010D01*
X120868488Y-96174982D01*
X120803796Y-96199111D01*
X120803794Y-96199112D01*
X120803792Y-96199113D01*
X120686743Y-96286735D01*
X120686735Y-96286743D01*
X120599113Y-96403792D01*
X120599112Y-96403794D01*
X120599111Y-96403796D01*
X120592364Y-96421886D01*
X120548010Y-96540800D01*
X120546106Y-96558517D01*
X120541500Y-96601362D01*
X120541500Y-98398638D01*
X113660212Y-98398638D01*
X113721204Y-98375889D01*
X113838261Y-98288261D01*
X113925889Y-98171204D01*
X113976989Y-98034201D01*
X113983500Y-97973638D01*
X113983500Y-96176362D01*
X113976989Y-96115799D01*
X113925889Y-95978796D01*
X113838261Y-95861739D01*
X113721204Y-95774111D01*
X113584201Y-95723011D01*
X113584200Y-95723010D01*
X113543327Y-95718616D01*
X113523638Y-95716500D01*
X111726362Y-95716500D01*
X111710288Y-95718228D01*
X111665800Y-95723010D01*
X111590116Y-95751239D01*
X111528796Y-95774111D01*
X111528794Y-95774112D01*
X111528792Y-95774113D01*
X111411743Y-95861735D01*
X111411735Y-95861743D01*
X111324113Y-95978792D01*
X111324112Y-95978794D01*
X111324111Y-95978796D01*
X111301239Y-96040116D01*
X111273010Y-96115800D01*
X111270564Y-96138556D01*
X111266500Y-96176362D01*
X111266500Y-97973638D01*
X104299208Y-97973638D01*
X104375889Y-97871204D01*
X104426989Y-97734201D01*
X104433500Y-97673638D01*
X104433500Y-95876362D01*
X104426989Y-95815799D01*
X104375889Y-95678796D01*
X104288261Y-95561739D01*
X104171204Y-95474111D01*
X104034201Y-95423011D01*
X104034200Y-95423010D01*
X103993327Y-95418616D01*
X103973638Y-95416500D01*
X102176362Y-95416500D01*
X102160288Y-95418228D01*
X102115800Y-95423010D01*
X102040116Y-95451239D01*
X101978796Y-95474111D01*
X101978794Y-95474112D01*
X101978792Y-95474113D01*
X101861743Y-95561735D01*
X101861735Y-95561743D01*
X101774113Y-95678792D01*
X101774112Y-95678794D01*
X101774111Y-95678796D01*
X101751239Y-95740116D01*
X101723010Y-95815800D01*
X101718228Y-95860288D01*
X101716500Y-95876362D01*
X101716500Y-97673638D01*
X100075500Y-97673638D01*
X100075500Y-91375003D01*
X118526502Y-91375003D01*
X118546455Y-91603079D01*
X118546456Y-91603086D01*
X118546457Y-91603087D01*
X118605716Y-91824243D01*
X118622589Y-91860427D01*
X118702476Y-92031747D01*
X118826788Y-92209284D01*
X118833802Y-92219300D01*
X118995700Y-92381198D01*
X119183251Y-92512523D01*
X119390757Y-92609284D01*
X119611913Y-92668543D01*
X119611917Y-92668543D01*
X119611920Y-92668544D01*
X119839997Y-92688498D01*
X119840000Y-92688498D01*
X119840003Y-92688498D01*
X120068079Y-92668544D01*
X120068080Y-92668543D01*
X120068087Y-92668543D01*
X120289243Y-92609284D01*
X120496749Y-92512523D01*
X120684300Y-92381198D01*
X120846198Y-92219300D01*
X120977523Y-92031749D01*
X121074284Y-91824243D01*
X121133543Y-91603087D01*
X121133622Y-91602190D01*
X121153498Y-91375003D01*
X126146502Y-91375003D01*
X126166455Y-91603079D01*
X126166456Y-91603086D01*
X126166457Y-91603087D01*
X126225716Y-91824243D01*
X126242589Y-91860427D01*
X126322476Y-92031747D01*
X126446788Y-92209284D01*
X126453802Y-92219300D01*
X126615700Y-92381198D01*
X126803251Y-92512523D01*
X127010757Y-92609284D01*
X127231913Y-92668543D01*
X127231917Y-92668543D01*
X127231920Y-92668544D01*
X127459997Y-92688498D01*
X127460000Y-92688498D01*
X127460003Y-92688498D01*
X127688079Y-92668544D01*
X127688080Y-92668543D01*
X127688087Y-92668543D01*
X127909243Y-92609284D01*
X128116749Y-92512523D01*
X128304300Y-92381198D01*
X128466198Y-92219300D01*
X128597523Y-92031749D01*
X128677412Y-91860424D01*
X128719138Y-91815678D01*
X128779199Y-91804003D01*
X128834652Y-91829860D01*
X128864316Y-91883374D01*
X128865513Y-91913347D01*
X128861536Y-91948653D01*
X128861384Y-91950000D01*
X128865883Y-91989932D01*
X128881783Y-92131049D01*
X128881784Y-92131053D01*
X128941957Y-92303015D01*
X128941957Y-92303016D01*
X129010254Y-92411709D01*
X129038889Y-92457281D01*
X129167719Y-92586111D01*
X129167721Y-92586112D01*
X129167722Y-92586113D01*
X129249540Y-92637523D01*
X129321985Y-92683043D01*
X129337575Y-92688498D01*
X129493946Y-92743215D01*
X129493950Y-92743216D01*
X129493953Y-92743217D01*
X129675000Y-92763616D01*
X129856047Y-92743217D01*
X130028015Y-92683043D01*
X130182281Y-92586111D01*
X130311111Y-92457281D01*
X130408043Y-92303015D01*
X130468217Y-92131047D01*
X130479860Y-92027704D01*
X130505164Y-91971998D01*
X130558379Y-91941802D01*
X130619180Y-91948653D01*
X130664342Y-91989932D01*
X130667957Y-91996940D01*
X130682304Y-92027706D01*
X130742476Y-92156747D01*
X130844894Y-92303016D01*
X130873802Y-92344300D01*
X131035700Y-92506198D01*
X131223251Y-92637523D01*
X131430757Y-92734284D01*
X131651913Y-92793543D01*
X131651917Y-92793543D01*
X131651920Y-92793544D01*
X131879997Y-92813498D01*
X131880000Y-92813498D01*
X131880003Y-92813498D01*
X132108079Y-92793544D01*
X132108080Y-92793543D01*
X132108087Y-92793543D01*
X132329243Y-92734284D01*
X132536749Y-92637523D01*
X132724300Y-92506198D01*
X132886198Y-92344300D01*
X133017523Y-92156749D01*
X133114284Y-91949243D01*
X133173543Y-91728087D01*
X133175353Y-91707406D01*
X133193498Y-91500003D01*
X138186502Y-91500003D01*
X138206455Y-91728079D01*
X138206456Y-91728086D01*
X138206457Y-91728087D01*
X138265716Y-91949243D01*
X138302304Y-92027706D01*
X138362476Y-92156747D01*
X138464894Y-92303016D01*
X138493802Y-92344300D01*
X138655700Y-92506198D01*
X138843251Y-92637523D01*
X139050757Y-92734284D01*
X139271913Y-92793543D01*
X139271917Y-92793543D01*
X139271920Y-92793544D01*
X139499997Y-92813498D01*
X139500000Y-92813498D01*
X139500003Y-92813498D01*
X139728079Y-92793544D01*
X139728080Y-92793543D01*
X139728087Y-92793543D01*
X139949243Y-92734284D01*
X140156749Y-92637523D01*
X140344300Y-92506198D01*
X140506198Y-92344300D01*
X140637523Y-92156749D01*
X140734284Y-91949243D01*
X140793543Y-91728087D01*
X140795353Y-91707406D01*
X140813498Y-91500003D01*
X140813498Y-91499996D01*
X140793544Y-91271920D01*
X140793543Y-91271917D01*
X140793543Y-91271913D01*
X140734284Y-91050757D01*
X140698960Y-90975003D01*
X141551502Y-90975003D01*
X141571455Y-91203079D01*
X141571456Y-91203086D01*
X141571457Y-91203087D01*
X141630716Y-91424243D01*
X141727477Y-91631749D01*
X141780448Y-91707399D01*
X141856265Y-91815678D01*
X141858802Y-91819300D01*
X142020700Y-91981198D01*
X142020703Y-91981200D01*
X142020704Y-91981201D01*
X142062235Y-92010281D01*
X142208251Y-92112523D01*
X142415757Y-92209284D01*
X142636913Y-92268543D01*
X142636917Y-92268543D01*
X142636920Y-92268544D01*
X142864997Y-92288498D01*
X142865000Y-92288498D01*
X142865003Y-92288498D01*
X143093079Y-92268544D01*
X143093080Y-92268543D01*
X143093087Y-92268543D01*
X143314243Y-92209284D01*
X143521749Y-92112523D01*
X143709300Y-91981198D01*
X143871198Y-91819300D01*
X144002523Y-91631749D01*
X144099284Y-91424243D01*
X144158543Y-91203087D01*
X144178498Y-90975003D01*
X149171502Y-90975003D01*
X149191455Y-91203079D01*
X149191456Y-91203086D01*
X149191457Y-91203087D01*
X149250716Y-91424243D01*
X149347477Y-91631749D01*
X149400448Y-91707399D01*
X149476265Y-91815678D01*
X149478802Y-91819300D01*
X149640700Y-91981198D01*
X149640703Y-91981200D01*
X149640704Y-91981201D01*
X149682235Y-92010281D01*
X149828251Y-92112523D01*
X150035757Y-92209284D01*
X150256913Y-92268543D01*
X150256917Y-92268543D01*
X150256920Y-92268544D01*
X150484997Y-92288498D01*
X150485000Y-92288498D01*
X150485003Y-92288498D01*
X150713079Y-92268544D01*
X150713080Y-92268543D01*
X150713087Y-92268543D01*
X150934243Y-92209284D01*
X151007766Y-92175000D01*
X154261835Y-92175000D01*
X154280464Y-92411709D01*
X154335895Y-92642596D01*
X154335896Y-92642600D01*
X154426756Y-92861955D01*
X154426761Y-92861966D01*
X154550822Y-93064413D01*
X154550824Y-93064416D01*
X154705031Y-93244969D01*
X154885584Y-93399176D01*
X154885586Y-93399177D01*
X155088033Y-93523238D01*
X155088044Y-93523243D01*
X155307399Y-93614103D01*
X155307403Y-93614104D01*
X155307404Y-93614104D01*
X155307406Y-93614105D01*
X155538289Y-93669535D01*
X155775000Y-93688165D01*
X156011711Y-93669535D01*
X156242594Y-93614105D01*
X156242597Y-93614103D01*
X156242600Y-93614103D01*
X156375831Y-93558916D01*
X156461963Y-93523240D01*
X156664416Y-93399176D01*
X156844969Y-93244969D01*
X156999176Y-93064416D01*
X157123240Y-92861963D01*
X157176126Y-92734284D01*
X157214103Y-92642600D01*
X157214104Y-92642596D01*
X157214103Y-92642596D01*
X157214105Y-92642594D01*
X157269535Y-92411711D01*
X157288165Y-92175000D01*
X160761835Y-92175000D01*
X160780464Y-92411709D01*
X160835895Y-92642596D01*
X160835896Y-92642600D01*
X160926756Y-92861955D01*
X160926761Y-92861966D01*
X161050822Y-93064413D01*
X161050824Y-93064416D01*
X161205031Y-93244969D01*
X161385584Y-93399176D01*
X161385586Y-93399177D01*
X161588033Y-93523238D01*
X161588044Y-93523243D01*
X161807399Y-93614103D01*
X161807403Y-93614104D01*
X161807404Y-93614104D01*
X161807406Y-93614105D01*
X162038289Y-93669535D01*
X162275000Y-93688165D01*
X162511711Y-93669535D01*
X162742594Y-93614105D01*
X162742597Y-93614103D01*
X162742600Y-93614103D01*
X162875831Y-93558916D01*
X162961963Y-93523240D01*
X163164416Y-93399176D01*
X163344969Y-93244969D01*
X163499176Y-93064416D01*
X163623240Y-92861963D01*
X163676126Y-92734284D01*
X163714103Y-92642600D01*
X163714104Y-92642596D01*
X163714103Y-92642596D01*
X163714105Y-92642594D01*
X163769535Y-92411711D01*
X163788165Y-92175000D01*
X163769535Y-91938289D01*
X163714105Y-91707406D01*
X163714104Y-91707403D01*
X163714103Y-91707399D01*
X163623243Y-91488044D01*
X163623238Y-91488033D01*
X163516521Y-91313889D01*
X163499176Y-91285584D01*
X163428710Y-91203079D01*
X163344977Y-91105040D01*
X163344974Y-91105037D01*
X163344969Y-91105031D01*
X163344962Y-91105025D01*
X163344959Y-91105022D01*
X163164421Y-90950828D01*
X163164413Y-90950822D01*
X162961966Y-90826761D01*
X162961955Y-90826756D01*
X162742600Y-90735896D01*
X162742596Y-90735895D01*
X162511709Y-90680464D01*
X162275000Y-90661835D01*
X162038290Y-90680464D01*
X161807403Y-90735895D01*
X161807399Y-90735896D01*
X161588044Y-90826756D01*
X161588033Y-90826761D01*
X161385586Y-90950822D01*
X161385578Y-90950828D01*
X161205040Y-91105022D01*
X161205022Y-91105040D01*
X161050828Y-91285578D01*
X161050822Y-91285586D01*
X160926761Y-91488033D01*
X160926756Y-91488044D01*
X160835896Y-91707399D01*
X160835895Y-91707403D01*
X160780464Y-91938290D01*
X160761835Y-92175000D01*
X157288165Y-92175000D01*
X157269535Y-91938289D01*
X157214105Y-91707406D01*
X157214104Y-91707403D01*
X157214103Y-91707399D01*
X157123243Y-91488044D01*
X157123238Y-91488033D01*
X157016521Y-91313889D01*
X156999176Y-91285584D01*
X156928710Y-91203079D01*
X156844977Y-91105040D01*
X156844974Y-91105037D01*
X156844969Y-91105031D01*
X156844962Y-91105025D01*
X156844959Y-91105022D01*
X156664421Y-90950828D01*
X156664413Y-90950822D01*
X156461966Y-90826761D01*
X156461955Y-90826756D01*
X156242600Y-90735896D01*
X156242596Y-90735895D01*
X156011709Y-90680464D01*
X155775000Y-90661835D01*
X155538290Y-90680464D01*
X155307403Y-90735895D01*
X155307399Y-90735896D01*
X155088044Y-90826756D01*
X155088033Y-90826761D01*
X154885586Y-90950822D01*
X154885578Y-90950828D01*
X154705040Y-91105022D01*
X154705022Y-91105040D01*
X154550828Y-91285578D01*
X154550822Y-91285586D01*
X154426761Y-91488033D01*
X154426756Y-91488044D01*
X154335896Y-91707399D01*
X154335895Y-91707403D01*
X154280464Y-91938290D01*
X154261835Y-92175000D01*
X151007766Y-92175000D01*
X151141749Y-92112523D01*
X151329300Y-91981198D01*
X151491198Y-91819300D01*
X151622523Y-91631749D01*
X151719284Y-91424243D01*
X151778543Y-91203087D01*
X151798498Y-90975000D01*
X151798498Y-90974996D01*
X151778544Y-90746920D01*
X151778543Y-90746917D01*
X151778543Y-90746913D01*
X151719284Y-90525757D01*
X151622523Y-90318251D01*
X151491198Y-90130700D01*
X151329300Y-89968802D01*
X151329296Y-89968799D01*
X151329295Y-89968798D01*
X151225247Y-89895943D01*
X151141749Y-89837477D01*
X150934243Y-89740716D01*
X150713087Y-89681457D01*
X150713086Y-89681456D01*
X150713079Y-89681455D01*
X150485003Y-89661502D01*
X150484997Y-89661502D01*
X150256920Y-89681455D01*
X150035757Y-89740716D01*
X149828252Y-89837476D01*
X149640704Y-89968798D01*
X149478798Y-90130704D01*
X149347476Y-90318252D01*
X149250716Y-90525757D01*
X149191455Y-90746920D01*
X149171502Y-90974996D01*
X149171502Y-90975003D01*
X144178498Y-90975003D01*
X144178498Y-90975000D01*
X144178498Y-90974996D01*
X144158544Y-90746920D01*
X144158543Y-90746917D01*
X144158543Y-90746913D01*
X144099284Y-90525757D01*
X144002523Y-90318251D01*
X143871198Y-90130700D01*
X143709300Y-89968802D01*
X143709296Y-89968799D01*
X143709295Y-89968798D01*
X143605247Y-89895943D01*
X143521749Y-89837477D01*
X143314243Y-89740716D01*
X143093087Y-89681457D01*
X143093086Y-89681456D01*
X143093079Y-89681455D01*
X142865003Y-89661502D01*
X142864997Y-89661502D01*
X142636920Y-89681455D01*
X142415757Y-89740716D01*
X142208252Y-89837476D01*
X142020704Y-89968798D01*
X141858798Y-90130704D01*
X141727476Y-90318252D01*
X141630716Y-90525757D01*
X141571455Y-90746920D01*
X141551502Y-90974996D01*
X141551502Y-90975003D01*
X140698960Y-90975003D01*
X140637523Y-90843251D01*
X140506198Y-90655700D01*
X140344300Y-90493802D01*
X140344296Y-90493799D01*
X140344295Y-90493798D01*
X140156746Y-90362475D01*
X140156744Y-90362474D01*
X140065066Y-90319725D01*
X140020317Y-90277997D01*
X140008642Y-90217936D01*
X140034499Y-90162483D01*
X140065066Y-90140275D01*
X140156749Y-90097523D01*
X140344300Y-89966198D01*
X140506198Y-89804300D01*
X140637523Y-89616749D01*
X140734284Y-89409243D01*
X140793543Y-89188087D01*
X140807175Y-89032281D01*
X140813498Y-88960003D01*
X140813498Y-88959996D01*
X140793544Y-88731920D01*
X140793543Y-88731917D01*
X140793543Y-88731913D01*
X140738100Y-88525000D01*
X141236384Y-88525000D01*
X141256783Y-88706049D01*
X141256784Y-88706053D01*
X141316957Y-88878015D01*
X141316957Y-88878016D01*
X141408208Y-89023240D01*
X141413889Y-89032281D01*
X141542719Y-89161111D01*
X141542721Y-89161112D01*
X141542722Y-89161113D01*
X141642223Y-89223634D01*
X141696985Y-89258043D01*
X141765847Y-89282138D01*
X141868946Y-89318215D01*
X141868950Y-89318216D01*
X141868953Y-89318217D01*
X142050000Y-89338616D01*
X142231047Y-89318217D01*
X142403015Y-89258043D01*
X142557281Y-89161111D01*
X142686111Y-89032281D01*
X142783043Y-88878015D01*
X142843217Y-88706047D01*
X142863616Y-88525000D01*
X142843217Y-88343953D01*
X142783043Y-88171985D01*
X142764575Y-88142594D01*
X142686113Y-88017722D01*
X142686112Y-88017721D01*
X142686111Y-88017719D01*
X142557281Y-87888889D01*
X142557278Y-87888887D01*
X142557277Y-87888886D01*
X142403016Y-87791957D01*
X142231053Y-87731784D01*
X142231049Y-87731783D01*
X142050000Y-87711384D01*
X141868950Y-87731783D01*
X141868946Y-87731784D01*
X141696984Y-87791957D01*
X141696983Y-87791957D01*
X141542722Y-87888886D01*
X141413886Y-88017722D01*
X141316957Y-88171983D01*
X141316957Y-88171984D01*
X141256784Y-88343946D01*
X141256783Y-88343950D01*
X141236384Y-88525000D01*
X140738100Y-88525000D01*
X140734284Y-88510757D01*
X140637523Y-88303251D01*
X140525031Y-88142596D01*
X140506201Y-88115704D01*
X140506200Y-88115703D01*
X140506198Y-88115700D01*
X140344300Y-87953802D01*
X140344296Y-87953799D01*
X140344295Y-87953798D01*
X140240247Y-87880943D01*
X140156749Y-87822477D01*
X140055009Y-87775035D01*
X140010262Y-87733308D01*
X139998928Y-87675000D01*
X154261835Y-87675000D01*
X154280464Y-87911709D01*
X154335895Y-88142596D01*
X154335896Y-88142600D01*
X154426756Y-88361955D01*
X154426761Y-88361966D01*
X154550822Y-88564413D01*
X154550828Y-88564421D01*
X154671793Y-88706053D01*
X154705031Y-88744969D01*
X154885584Y-88899176D01*
X154885586Y-88899177D01*
X155088033Y-89023238D01*
X155088044Y-89023243D01*
X155307399Y-89114103D01*
X155307403Y-89114104D01*
X155307404Y-89114104D01*
X155307406Y-89114105D01*
X155538289Y-89169535D01*
X155775000Y-89188165D01*
X156011711Y-89169535D01*
X156242594Y-89114105D01*
X156242597Y-89114103D01*
X156242600Y-89114103D01*
X156375831Y-89058916D01*
X156461963Y-89023240D01*
X156664416Y-88899176D01*
X156844969Y-88744969D01*
X156999176Y-88564416D01*
X157123240Y-88361963D01*
X157201931Y-88171985D01*
X157214103Y-88142600D01*
X157214104Y-88142596D01*
X157214103Y-88142596D01*
X157214105Y-88142594D01*
X157269535Y-87911711D01*
X157288165Y-87675000D01*
X160761835Y-87675000D01*
X160780464Y-87911709D01*
X160835895Y-88142596D01*
X160835896Y-88142600D01*
X160926756Y-88361955D01*
X160926761Y-88361966D01*
X161050822Y-88564413D01*
X161050828Y-88564421D01*
X161171793Y-88706053D01*
X161205031Y-88744969D01*
X161385584Y-88899176D01*
X161385586Y-88899177D01*
X161588033Y-89023238D01*
X161588044Y-89023243D01*
X161807399Y-89114103D01*
X161807403Y-89114104D01*
X161807404Y-89114104D01*
X161807406Y-89114105D01*
X162038289Y-89169535D01*
X162275000Y-89188165D01*
X162511711Y-89169535D01*
X162742594Y-89114105D01*
X162742597Y-89114103D01*
X162742600Y-89114103D01*
X162875831Y-89058916D01*
X162961963Y-89023240D01*
X163164416Y-88899176D01*
X163344969Y-88744969D01*
X163499176Y-88564416D01*
X163623240Y-88361963D01*
X163701931Y-88171985D01*
X163714103Y-88142600D01*
X163714104Y-88142596D01*
X163714103Y-88142596D01*
X163714105Y-88142594D01*
X163769535Y-87911711D01*
X163788165Y-87675000D01*
X163769535Y-87438289D01*
X163714105Y-87207406D01*
X163714104Y-87207403D01*
X163714103Y-87207399D01*
X163623243Y-86988044D01*
X163623238Y-86988033D01*
X163499177Y-86785586D01*
X163499176Y-86785584D01*
X163396705Y-86665606D01*
X163344977Y-86605040D01*
X163344974Y-86605037D01*
X163344969Y-86605031D01*
X163344962Y-86605025D01*
X163344959Y-86605022D01*
X163164421Y-86450828D01*
X163164413Y-86450822D01*
X162961966Y-86326761D01*
X162961955Y-86326756D01*
X162742600Y-86235896D01*
X162742596Y-86235895D01*
X162511709Y-86180464D01*
X162275000Y-86161835D01*
X162038290Y-86180464D01*
X161807403Y-86235895D01*
X161807399Y-86235896D01*
X161588044Y-86326756D01*
X161588033Y-86326761D01*
X161385586Y-86450822D01*
X161385578Y-86450828D01*
X161205040Y-86605022D01*
X161205022Y-86605040D01*
X161050828Y-86785578D01*
X161050822Y-86785586D01*
X160926761Y-86988033D01*
X160926756Y-86988044D01*
X160835896Y-87207399D01*
X160835895Y-87207403D01*
X160780464Y-87438290D01*
X160761835Y-87675000D01*
X157288165Y-87675000D01*
X157269535Y-87438289D01*
X157214105Y-87207406D01*
X157214104Y-87207403D01*
X157214103Y-87207399D01*
X157123243Y-86988044D01*
X157123238Y-86988033D01*
X156999177Y-86785586D01*
X156999176Y-86785584D01*
X156896705Y-86665606D01*
X156844977Y-86605040D01*
X156844974Y-86605037D01*
X156844969Y-86605031D01*
X156844962Y-86605025D01*
X156844959Y-86605022D01*
X156664421Y-86450828D01*
X156664413Y-86450822D01*
X156461966Y-86326761D01*
X156461955Y-86326756D01*
X156242600Y-86235896D01*
X156242596Y-86235895D01*
X156011709Y-86180464D01*
X155775000Y-86161835D01*
X155538290Y-86180464D01*
X155307403Y-86235895D01*
X155307399Y-86235896D01*
X155088044Y-86326756D01*
X155088033Y-86326761D01*
X154885586Y-86450822D01*
X154885578Y-86450828D01*
X154705040Y-86605022D01*
X154705022Y-86605040D01*
X154550828Y-86785578D01*
X154550822Y-86785586D01*
X154426761Y-86988033D01*
X154426756Y-86988044D01*
X154335896Y-87207399D01*
X154335895Y-87207403D01*
X154280464Y-87438290D01*
X154261835Y-87675000D01*
X139998928Y-87675000D01*
X139998587Y-87673246D01*
X140024445Y-87617794D01*
X140055010Y-87595586D01*
X140152481Y-87550134D01*
X140338811Y-87419665D01*
X140499665Y-87258811D01*
X140630134Y-87072481D01*
X140726266Y-86866323D01*
X140778872Y-86670000D01*
X139815686Y-86670000D01*
X139820080Y-86665606D01*
X139872741Y-86574394D01*
X139900000Y-86472661D01*
X139900000Y-86367339D01*
X139872741Y-86265606D01*
X139820080Y-86174394D01*
X139815686Y-86170000D01*
X140778872Y-86170000D01*
X140726266Y-85973676D01*
X140680255Y-85875003D01*
X141501502Y-85875003D01*
X141521455Y-86103079D01*
X141521456Y-86103086D01*
X141521457Y-86103087D01*
X141580716Y-86324243D01*
X141677477Y-86531749D01*
X141728790Y-86605031D01*
X141774281Y-86670000D01*
X141808802Y-86719300D01*
X141970700Y-86881198D01*
X142158251Y-87012523D01*
X142365757Y-87109284D01*
X142586913Y-87168543D01*
X142586917Y-87168543D01*
X142586920Y-87168544D01*
X142814997Y-87188498D01*
X142815000Y-87188498D01*
X142815003Y-87188498D01*
X143043079Y-87168544D01*
X143043080Y-87168543D01*
X143043087Y-87168543D01*
X143264243Y-87109284D01*
X143471749Y-87012523D01*
X143659300Y-86881198D01*
X143821198Y-86719300D01*
X143952523Y-86531749D01*
X144049284Y-86324243D01*
X144108543Y-86103087D01*
X144113428Y-86047259D01*
X144128498Y-85875003D01*
X149121502Y-85875003D01*
X149141455Y-86103079D01*
X149141456Y-86103086D01*
X149141457Y-86103087D01*
X149200716Y-86324243D01*
X149297477Y-86531749D01*
X149348790Y-86605031D01*
X149394281Y-86670000D01*
X149428802Y-86719300D01*
X149590700Y-86881198D01*
X149778251Y-87012523D01*
X149985757Y-87109284D01*
X150206913Y-87168543D01*
X150206917Y-87168543D01*
X150206920Y-87168544D01*
X150434997Y-87188498D01*
X150435000Y-87188498D01*
X150435003Y-87188498D01*
X150663079Y-87168544D01*
X150663080Y-87168543D01*
X150663087Y-87168543D01*
X150884243Y-87109284D01*
X151091749Y-87012523D01*
X151279300Y-86881198D01*
X151441198Y-86719300D01*
X151572523Y-86531749D01*
X151669284Y-86324243D01*
X151728543Y-86103087D01*
X151733428Y-86047259D01*
X151748498Y-85875003D01*
X151748498Y-85874996D01*
X151728544Y-85646920D01*
X151728543Y-85646917D01*
X151728543Y-85646913D01*
X151669284Y-85425757D01*
X151572523Y-85218251D01*
X151465189Y-85064963D01*
X151441201Y-85030704D01*
X151441200Y-85030703D01*
X151441198Y-85030700D01*
X151279300Y-84868802D01*
X151279296Y-84868799D01*
X151279295Y-84868798D01*
X151165615Y-84789199D01*
X151091749Y-84737477D01*
X150884243Y-84640716D01*
X150663087Y-84581457D01*
X150663086Y-84581456D01*
X150663079Y-84581455D01*
X150435003Y-84561502D01*
X150434997Y-84561502D01*
X150206920Y-84581455D01*
X149985757Y-84640716D01*
X149778252Y-84737476D01*
X149590704Y-84868798D01*
X149428798Y-85030704D01*
X149297476Y-85218252D01*
X149200716Y-85425757D01*
X149141455Y-85646920D01*
X149121502Y-85874996D01*
X149121502Y-85875003D01*
X144128498Y-85875003D01*
X144128498Y-85874996D01*
X144108544Y-85646920D01*
X144108543Y-85646917D01*
X144108543Y-85646913D01*
X144049284Y-85425757D01*
X143952523Y-85218251D01*
X143845189Y-85064963D01*
X143821201Y-85030704D01*
X143821200Y-85030703D01*
X143821198Y-85030700D01*
X143659300Y-84868802D01*
X143659296Y-84868799D01*
X143659295Y-84868798D01*
X143545615Y-84789199D01*
X143471749Y-84737477D01*
X143264243Y-84640716D01*
X143043087Y-84581457D01*
X143043086Y-84581456D01*
X143043079Y-84581455D01*
X142815003Y-84561502D01*
X142814997Y-84561502D01*
X142586920Y-84581455D01*
X142365757Y-84640716D01*
X142158252Y-84737476D01*
X141970704Y-84868798D01*
X141808798Y-85030704D01*
X141677476Y-85218252D01*
X141580716Y-85425757D01*
X141521455Y-85646920D01*
X141501502Y-85874996D01*
X141501502Y-85875003D01*
X140680255Y-85875003D01*
X140630134Y-85767518D01*
X140499665Y-85581188D01*
X140338811Y-85420334D01*
X140152480Y-85289864D01*
X140152476Y-85289862D01*
X140055009Y-85244412D01*
X140010261Y-85202684D01*
X139998587Y-85142622D01*
X140024445Y-85087170D01*
X140055007Y-85064965D01*
X140156749Y-85017523D01*
X140344300Y-84886198D01*
X140506198Y-84724300D01*
X140637523Y-84536749D01*
X140734284Y-84329243D01*
X140793543Y-84108087D01*
X140795626Y-84084284D01*
X140813498Y-83880003D01*
X140813498Y-83879996D01*
X140793544Y-83651920D01*
X140793543Y-83651917D01*
X140793543Y-83651913D01*
X140734284Y-83430757D01*
X140637523Y-83223251D01*
X140506198Y-83035700D01*
X140344300Y-82873802D01*
X140344296Y-82873799D01*
X140344295Y-82873798D01*
X140310312Y-82850003D01*
X154051502Y-82850003D01*
X154071455Y-83078079D01*
X154071456Y-83078086D01*
X154071457Y-83078087D01*
X154117521Y-83250000D01*
X154130716Y-83299242D01*
X154227476Y-83506747D01*
X154354958Y-83688811D01*
X154358802Y-83694300D01*
X154520700Y-83856198D01*
X154708251Y-83987523D01*
X154915757Y-84084284D01*
X155136913Y-84143543D01*
X155136917Y-84143543D01*
X155136920Y-84143544D01*
X155364997Y-84163498D01*
X155365000Y-84163498D01*
X155365003Y-84163498D01*
X155593079Y-84143544D01*
X155593080Y-84143543D01*
X155593087Y-84143543D01*
X155814243Y-84084284D01*
X156021749Y-83987523D01*
X156209300Y-83856198D01*
X156371198Y-83694300D01*
X156502523Y-83506749D01*
X156599284Y-83299243D01*
X156652671Y-83100000D01*
X161706128Y-83100000D01*
X161758733Y-83296323D01*
X161854865Y-83502481D01*
X161985334Y-83688811D01*
X162146188Y-83849665D01*
X162332518Y-83980134D01*
X162538676Y-84076266D01*
X162735000Y-84128872D01*
X162735000Y-83165686D01*
X162739394Y-83170080D01*
X162830606Y-83222741D01*
X162932339Y-83250000D01*
X163037661Y-83250000D01*
X163139394Y-83222741D01*
X163230606Y-83170080D01*
X163235000Y-83165686D01*
X163235000Y-84128871D01*
X163431323Y-84076266D01*
X163637481Y-83980134D01*
X163823811Y-83849665D01*
X163984665Y-83688811D01*
X164115134Y-83502481D01*
X164211266Y-83296323D01*
X164263872Y-83100000D01*
X163300686Y-83100000D01*
X163305080Y-83095606D01*
X163357741Y-83004394D01*
X163385000Y-82902661D01*
X163385000Y-82797339D01*
X163357741Y-82695606D01*
X163305080Y-82604394D01*
X163300686Y-82600000D01*
X164263872Y-82600000D01*
X164211266Y-82403676D01*
X164115134Y-82197518D01*
X163984665Y-82011188D01*
X163823811Y-81850334D01*
X163637481Y-81719865D01*
X163431323Y-81623732D01*
X163235000Y-81571127D01*
X163235000Y-82534314D01*
X163230606Y-82529920D01*
X163139394Y-82477259D01*
X163037661Y-82450000D01*
X162932339Y-82450000D01*
X162830606Y-82477259D01*
X162739394Y-82529920D01*
X162735000Y-82534314D01*
X162735000Y-81571127D01*
X162538676Y-81623732D01*
X162332518Y-81719865D01*
X162146188Y-81850334D01*
X161985334Y-82011188D01*
X161854865Y-82197518D01*
X161758733Y-82403676D01*
X161706128Y-82600000D01*
X162669314Y-82600000D01*
X162664920Y-82604394D01*
X162612259Y-82695606D01*
X162585000Y-82797339D01*
X162585000Y-82902661D01*
X162612259Y-83004394D01*
X162664920Y-83095606D01*
X162669314Y-83100000D01*
X161706128Y-83100000D01*
X156652671Y-83100000D01*
X156658543Y-83078087D01*
X156662252Y-83035700D01*
X156678498Y-82850003D01*
X156678498Y-82849996D01*
X156658544Y-82621920D01*
X156658543Y-82621917D01*
X156658543Y-82621913D01*
X156599284Y-82400757D01*
X156502523Y-82193251D01*
X156371198Y-82005700D01*
X156209300Y-81843802D01*
X156209296Y-81843799D01*
X156209295Y-81843798D01*
X156032300Y-81719865D01*
X156021749Y-81712477D01*
X155814243Y-81615716D01*
X155593087Y-81556457D01*
X155593086Y-81556456D01*
X155593079Y-81556455D01*
X155365003Y-81536502D01*
X155364997Y-81536502D01*
X155136920Y-81556455D01*
X154915757Y-81615716D01*
X154708252Y-81712476D01*
X154520704Y-81843798D01*
X154358798Y-82005704D01*
X154227476Y-82193252D01*
X154130716Y-82400757D01*
X154071455Y-82621920D01*
X154051502Y-82849996D01*
X154051502Y-82850003D01*
X140310312Y-82850003D01*
X140168574Y-82750757D01*
X140156749Y-82742477D01*
X139949243Y-82645716D01*
X139728087Y-82586457D01*
X139728086Y-82586456D01*
X139728079Y-82586455D01*
X139500003Y-82566502D01*
X139499997Y-82566502D01*
X139271920Y-82586455D01*
X139050757Y-82645716D01*
X138843252Y-82742476D01*
X138655704Y-82873798D01*
X138493798Y-83035704D01*
X138362476Y-83223252D01*
X138265716Y-83430757D01*
X138206455Y-83651920D01*
X138186502Y-83879996D01*
X138186502Y-83880003D01*
X138206455Y-84108079D01*
X138206456Y-84108086D01*
X138206457Y-84108087D01*
X138265716Y-84329243D01*
X138362477Y-84536749D01*
X138493802Y-84724300D01*
X138655700Y-84886198D01*
X138843251Y-85017523D01*
X138944988Y-85064963D01*
X138989737Y-85106691D01*
X139001412Y-85166752D01*
X138975555Y-85222205D01*
X138944990Y-85244412D01*
X138847523Y-85289862D01*
X138847519Y-85289864D01*
X138661188Y-85420334D01*
X138500334Y-85581188D01*
X138369865Y-85767518D01*
X138273733Y-85973676D01*
X138221128Y-86170000D01*
X139184314Y-86170000D01*
X139179920Y-86174394D01*
X139127259Y-86265606D01*
X139100000Y-86367339D01*
X139100000Y-86472661D01*
X139127259Y-86574394D01*
X139179920Y-86665606D01*
X139184314Y-86670000D01*
X138221128Y-86670000D01*
X138273733Y-86866323D01*
X138369865Y-87072481D01*
X138500334Y-87258811D01*
X138661188Y-87419665D01*
X138847519Y-87550135D01*
X138847527Y-87550139D01*
X138944989Y-87595587D01*
X138989737Y-87637315D01*
X139001412Y-87697376D01*
X138975554Y-87752829D01*
X138944989Y-87775036D01*
X138843252Y-87822476D01*
X138655704Y-87953798D01*
X138493798Y-88115704D01*
X138362476Y-88303252D01*
X138265716Y-88510757D01*
X138206455Y-88731920D01*
X138186502Y-88959996D01*
X138186502Y-88960003D01*
X138206455Y-89188079D01*
X138206456Y-89188086D01*
X138206457Y-89188087D01*
X138265716Y-89409243D01*
X138362477Y-89616749D01*
X138493802Y-89804300D01*
X138655700Y-89966198D01*
X138843251Y-90097523D01*
X138934934Y-90140275D01*
X138979682Y-90182003D01*
X138991357Y-90242065D01*
X138965499Y-90297518D01*
X138934934Y-90319725D01*
X138843252Y-90362476D01*
X138655704Y-90493798D01*
X138493798Y-90655704D01*
X138362476Y-90843252D01*
X138265716Y-91050757D01*
X138206455Y-91271920D01*
X138186502Y-91499996D01*
X138186502Y-91500003D01*
X133193498Y-91500003D01*
X133193498Y-91499996D01*
X133173544Y-91271920D01*
X133173543Y-91271917D01*
X133173543Y-91271913D01*
X133114284Y-91050757D01*
X133017523Y-90843251D01*
X132886198Y-90655700D01*
X132724300Y-90493802D01*
X132724296Y-90493799D01*
X132724295Y-90493798D01*
X132536746Y-90362475D01*
X132536744Y-90362474D01*
X132445066Y-90319725D01*
X132400317Y-90277997D01*
X132388642Y-90217936D01*
X132414499Y-90162483D01*
X132445066Y-90140275D01*
X132536749Y-90097523D01*
X132724300Y-89966198D01*
X132886198Y-89804300D01*
X133017523Y-89616749D01*
X133114284Y-89409243D01*
X133173543Y-89188087D01*
X133187175Y-89032281D01*
X133193498Y-88960003D01*
X133193498Y-88959996D01*
X133173544Y-88731920D01*
X133173543Y-88731917D01*
X133173543Y-88731913D01*
X133114284Y-88510757D01*
X133017523Y-88303251D01*
X132905031Y-88142596D01*
X132886201Y-88115704D01*
X132886200Y-88115703D01*
X132886198Y-88115700D01*
X132724300Y-87953802D01*
X132724296Y-87953799D01*
X132724295Y-87953798D01*
X132536746Y-87822475D01*
X132536744Y-87822474D01*
X132445066Y-87779725D01*
X132400317Y-87737997D01*
X132388642Y-87677936D01*
X132414499Y-87622483D01*
X132445066Y-87600275D01*
X132536749Y-87557523D01*
X132724300Y-87426198D01*
X132886198Y-87264300D01*
X133017523Y-87076749D01*
X133114284Y-86869243D01*
X133173543Y-86648087D01*
X133179991Y-86574394D01*
X133193498Y-86420003D01*
X133193498Y-86419996D01*
X133173544Y-86191920D01*
X133173543Y-86191917D01*
X133173543Y-86191913D01*
X133114284Y-85970757D01*
X133017523Y-85763251D01*
X132886198Y-85575700D01*
X132724300Y-85413802D01*
X132724296Y-85413799D01*
X132724295Y-85413798D01*
X132659740Y-85368596D01*
X132622918Y-85319731D01*
X132621850Y-85258555D01*
X132656944Y-85208435D01*
X132714796Y-85188515D01*
X132716524Y-85188500D01*
X132728635Y-85188500D01*
X132728638Y-85188500D01*
X132789201Y-85181989D01*
X132926204Y-85130889D01*
X133043261Y-85043261D01*
X133130889Y-84926204D01*
X133181989Y-84789201D01*
X133188500Y-84728638D01*
X133188500Y-83031362D01*
X133181989Y-82970799D01*
X133130889Y-82833796D01*
X133043261Y-82716739D01*
X132926204Y-82629111D01*
X132789201Y-82578011D01*
X132789200Y-82578010D01*
X132748327Y-82573616D01*
X132728638Y-82571500D01*
X131031362Y-82571500D01*
X131015288Y-82573228D01*
X130970800Y-82578010D01*
X130900064Y-82604394D01*
X130833796Y-82629111D01*
X130833794Y-82629112D01*
X130833792Y-82629113D01*
X130716743Y-82716735D01*
X130716735Y-82716743D01*
X130629113Y-82833792D01*
X130629112Y-82833794D01*
X130629111Y-82833796D01*
X130606239Y-82895116D01*
X130578010Y-82970800D01*
X130577890Y-82971920D01*
X130571500Y-83031362D01*
X130571500Y-84728638D01*
X130573804Y-84750069D01*
X130578010Y-84789199D01*
X130578011Y-84789201D01*
X130629111Y-84926204D01*
X130629112Y-84926206D01*
X130629113Y-84926207D01*
X130697471Y-85017523D01*
X130716739Y-85043261D01*
X130833796Y-85130889D01*
X130970799Y-85181989D01*
X131031362Y-85188500D01*
X131043476Y-85188500D01*
X131101667Y-85207407D01*
X131137631Y-85256907D01*
X131137631Y-85318093D01*
X131101667Y-85367593D01*
X131100260Y-85368596D01*
X131035704Y-85413798D01*
X130873798Y-85575704D01*
X130742476Y-85763252D01*
X130645716Y-85970757D01*
X130586455Y-86191920D01*
X130566502Y-86419996D01*
X130566502Y-86420003D01*
X130586455Y-86648079D01*
X130586456Y-86648086D01*
X130586457Y-86648087D01*
X130645716Y-86869243D01*
X130742477Y-87076749D01*
X130766980Y-87111743D01*
X130869958Y-87258811D01*
X130873802Y-87264300D01*
X131035700Y-87426198D01*
X131035703Y-87426200D01*
X131035704Y-87426201D01*
X131052968Y-87438289D01*
X131223251Y-87557523D01*
X131314934Y-87600275D01*
X131359682Y-87642003D01*
X131371357Y-87702065D01*
X131345499Y-87757518D01*
X131314934Y-87779725D01*
X131223252Y-87822476D01*
X131035704Y-87953798D01*
X130873798Y-88115704D01*
X130742476Y-88303252D01*
X130645716Y-88510757D01*
X130586455Y-88731920D01*
X130566502Y-88959996D01*
X130566502Y-88960003D01*
X130586455Y-89188079D01*
X130586456Y-89188086D01*
X130586457Y-89188087D01*
X130645716Y-89409243D01*
X130742477Y-89616749D01*
X130873802Y-89804300D01*
X131035700Y-89966198D01*
X131223251Y-90097523D01*
X131314934Y-90140275D01*
X131359682Y-90182003D01*
X131371357Y-90242065D01*
X131345499Y-90297518D01*
X131314934Y-90319725D01*
X131223252Y-90362476D01*
X131035704Y-90493798D01*
X130873798Y-90655704D01*
X130742476Y-90843252D01*
X130645716Y-91050757D01*
X130586455Y-91271920D01*
X130566502Y-91499996D01*
X130566502Y-91504322D01*
X130564583Y-91504322D01*
X130552481Y-91556724D01*
X130506301Y-91596862D01*
X130445348Y-91602190D01*
X130392904Y-91570674D01*
X130383799Y-91558400D01*
X130311113Y-91442722D01*
X130311112Y-91442721D01*
X130311111Y-91442719D01*
X130182281Y-91313889D01*
X130182278Y-91313887D01*
X130182277Y-91313886D01*
X130028016Y-91216957D01*
X129856053Y-91156784D01*
X129856049Y-91156783D01*
X129675000Y-91136384D01*
X129493950Y-91156783D01*
X129493946Y-91156784D01*
X129321984Y-91216957D01*
X129321983Y-91216957D01*
X129167722Y-91313886D01*
X129038884Y-91442724D01*
X128941877Y-91597110D01*
X128894909Y-91636322D01*
X128833862Y-91640437D01*
X128782055Y-91607884D01*
X128759276Y-91551097D01*
X128759429Y-91535809D01*
X128773498Y-91375002D01*
X128773498Y-91374996D01*
X128753544Y-91146920D01*
X128753543Y-91146917D01*
X128753543Y-91146913D01*
X128694284Y-90925757D01*
X128597523Y-90718251D01*
X128466198Y-90530700D01*
X128304300Y-90368802D01*
X128304296Y-90368799D01*
X128304295Y-90368798D01*
X128123301Y-90242065D01*
X128116749Y-90237477D01*
X127909243Y-90140716D01*
X127688087Y-90081457D01*
X127688086Y-90081456D01*
X127688079Y-90081455D01*
X127460003Y-90061502D01*
X127459997Y-90061502D01*
X127231920Y-90081455D01*
X127010757Y-90140716D01*
X126803252Y-90237476D01*
X126615704Y-90368798D01*
X126453798Y-90530704D01*
X126322476Y-90718252D01*
X126225716Y-90925757D01*
X126166455Y-91146920D01*
X126146502Y-91374996D01*
X126146502Y-91375003D01*
X121153498Y-91375003D01*
X121153498Y-91374996D01*
X121133544Y-91146920D01*
X121133543Y-91146917D01*
X121133543Y-91146913D01*
X121074284Y-90925757D01*
X120977523Y-90718251D01*
X120846198Y-90530700D01*
X120684300Y-90368802D01*
X120684296Y-90368799D01*
X120684295Y-90368798D01*
X120503301Y-90242065D01*
X120496749Y-90237477D01*
X120289243Y-90140716D01*
X120068087Y-90081457D01*
X120068086Y-90081456D01*
X120068079Y-90081455D01*
X119840003Y-90061502D01*
X119839997Y-90061502D01*
X119611920Y-90081455D01*
X119390757Y-90140716D01*
X119183252Y-90237476D01*
X118995704Y-90368798D01*
X118833798Y-90530704D01*
X118702476Y-90718252D01*
X118605716Y-90925757D01*
X118546455Y-91146920D01*
X118526502Y-91374996D01*
X118526502Y-91375003D01*
X100075500Y-91375003D01*
X100075500Y-89223634D01*
X101466500Y-89223634D01*
X101473010Y-89284199D01*
X101473011Y-89284201D01*
X101524111Y-89421204D01*
X101611739Y-89538261D01*
X101728796Y-89625889D01*
X101865799Y-89676989D01*
X101926362Y-89683500D01*
X101926365Y-89683500D01*
X103723635Y-89683500D01*
X103723638Y-89683500D01*
X103784201Y-89676989D01*
X103921204Y-89625889D01*
X104038261Y-89538261D01*
X104125889Y-89421204D01*
X104176989Y-89284201D01*
X104183500Y-89223638D01*
X104183500Y-87426362D01*
X104176989Y-87365799D01*
X104125889Y-87228796D01*
X104038261Y-87111739D01*
X104034980Y-87109283D01*
X103921207Y-87024113D01*
X103921206Y-87024112D01*
X103921204Y-87024111D01*
X103784201Y-86973011D01*
X103784200Y-86973010D01*
X103743327Y-86968616D01*
X103723638Y-86966500D01*
X101926362Y-86966500D01*
X101910288Y-86968228D01*
X101865800Y-86973010D01*
X101825494Y-86988044D01*
X101728796Y-87024111D01*
X101728794Y-87024112D01*
X101728792Y-87024113D01*
X101611743Y-87111735D01*
X101611735Y-87111743D01*
X101524113Y-87228792D01*
X101524112Y-87228794D01*
X101524111Y-87228796D01*
X101510869Y-87264300D01*
X101473010Y-87365800D01*
X101468228Y-87410288D01*
X101466518Y-87426201D01*
X101466500Y-87426365D01*
X101466500Y-89223634D01*
X100075500Y-89223634D01*
X100075500Y-84048634D01*
X120991500Y-84048634D01*
X120998010Y-84109199D01*
X120998011Y-84109201D01*
X121049111Y-84246204D01*
X121049112Y-84246206D01*
X121049113Y-84246207D01*
X121117471Y-84337523D01*
X121136739Y-84363261D01*
X121253796Y-84450889D01*
X121390799Y-84501989D01*
X121451362Y-84508500D01*
X121451365Y-84508500D01*
X123148635Y-84508500D01*
X123148638Y-84508500D01*
X123209201Y-84501989D01*
X123346204Y-84450889D01*
X123463261Y-84363261D01*
X123550889Y-84246204D01*
X123601989Y-84109201D01*
X123605366Y-84077782D01*
X123630384Y-84021947D01*
X123683444Y-83991479D01*
X123744279Y-83998018D01*
X123784895Y-84031580D01*
X123793802Y-84044300D01*
X123955700Y-84206198D01*
X124143251Y-84337523D01*
X124350757Y-84434284D01*
X124571913Y-84493543D01*
X124571917Y-84493543D01*
X124571920Y-84493544D01*
X124799997Y-84513498D01*
X124800000Y-84513498D01*
X124800003Y-84513498D01*
X125028079Y-84493544D01*
X125028080Y-84493543D01*
X125028087Y-84493543D01*
X125249243Y-84434284D01*
X125456749Y-84337523D01*
X125644300Y-84206198D01*
X125806198Y-84044300D01*
X125937523Y-83856749D01*
X126034284Y-83649243D01*
X126093543Y-83428087D01*
X126104816Y-83299243D01*
X126113498Y-83200003D01*
X126113498Y-83199996D01*
X126093544Y-82971920D01*
X126093543Y-82971917D01*
X126093543Y-82971913D01*
X126034284Y-82750757D01*
X125937523Y-82543251D01*
X125817060Y-82371213D01*
X125806201Y-82355704D01*
X125806200Y-82355703D01*
X125806198Y-82355700D01*
X125644300Y-82193802D01*
X125644296Y-82193799D01*
X125644295Y-82193798D01*
X125540247Y-82120943D01*
X125456749Y-82062477D01*
X125249243Y-81965716D01*
X125028087Y-81906457D01*
X125028086Y-81906456D01*
X125028079Y-81906455D01*
X124800003Y-81886502D01*
X124799997Y-81886502D01*
X124571920Y-81906455D01*
X124350757Y-81965716D01*
X124143252Y-82062476D01*
X123955704Y-82193798D01*
X123793799Y-82355703D01*
X123784894Y-82368421D01*
X123736028Y-82405242D01*
X123674852Y-82406308D01*
X123624733Y-82371213D01*
X123605366Y-82322215D01*
X123601989Y-82290801D01*
X123601989Y-82290800D01*
X123601989Y-82290799D01*
X123550889Y-82153796D01*
X123463261Y-82036739D01*
X123421803Y-82005704D01*
X123346207Y-81949113D01*
X123346206Y-81949112D01*
X123346204Y-81949111D01*
X123209201Y-81898011D01*
X123209200Y-81898010D01*
X123168327Y-81893616D01*
X123148638Y-81891500D01*
X121451362Y-81891500D01*
X121435288Y-81893228D01*
X121390800Y-81898010D01*
X121315116Y-81926239D01*
X121253796Y-81949111D01*
X121253794Y-81949112D01*
X121253792Y-81949113D01*
X121136743Y-82036735D01*
X121136735Y-82036743D01*
X121049113Y-82153792D01*
X121049112Y-82153794D01*
X121049111Y-82153796D01*
X121026239Y-82215116D01*
X120998010Y-82290800D01*
X120991500Y-82351365D01*
X120991500Y-84048634D01*
X100075500Y-84048634D01*
X100075500Y-83373634D01*
X101391500Y-83373634D01*
X101398010Y-83434199D01*
X101398011Y-83434201D01*
X101449111Y-83571204D01*
X101449112Y-83571206D01*
X101449113Y-83571207D01*
X101507529Y-83649242D01*
X101536739Y-83688261D01*
X101653796Y-83775889D01*
X101790799Y-83826989D01*
X101851362Y-83833500D01*
X101851365Y-83833500D01*
X103648635Y-83833500D01*
X103648638Y-83833500D01*
X103709201Y-83826989D01*
X103846204Y-83775889D01*
X103963261Y-83688261D01*
X104050889Y-83571204D01*
X104101989Y-83434201D01*
X104108500Y-83373638D01*
X104108500Y-81576362D01*
X104101989Y-81515799D01*
X104050889Y-81378796D01*
X103963261Y-81261739D01*
X103846204Y-81174111D01*
X103709201Y-81123011D01*
X103709200Y-81123010D01*
X103668327Y-81118616D01*
X103648638Y-81116500D01*
X101851362Y-81116500D01*
X101835288Y-81118228D01*
X101790800Y-81123010D01*
X101715116Y-81151239D01*
X101653796Y-81174111D01*
X101653794Y-81174112D01*
X101653792Y-81174113D01*
X101536743Y-81261735D01*
X101536735Y-81261743D01*
X101449113Y-81378792D01*
X101449112Y-81378794D01*
X101449111Y-81378796D01*
X101426239Y-81440116D01*
X101398010Y-81515800D01*
X101391500Y-81576365D01*
X101391500Y-83373634D01*
X100075500Y-83373634D01*
X100075500Y-79175000D01*
X128536384Y-79175000D01*
X128556783Y-79356049D01*
X128556784Y-79356053D01*
X128616957Y-79528015D01*
X128616957Y-79528016D01*
X128662188Y-79600000D01*
X128713889Y-79682281D01*
X128842719Y-79811111D01*
X128996985Y-79908043D01*
X129065847Y-79932138D01*
X129168946Y-79968215D01*
X129168950Y-79968216D01*
X129168953Y-79968217D01*
X129350000Y-79988616D01*
X129531047Y-79968217D01*
X129703015Y-79908043D01*
X129857281Y-79811111D01*
X129986111Y-79682281D01*
X130069227Y-79550003D01*
X131911502Y-79550003D01*
X131931455Y-79778079D01*
X131931456Y-79778086D01*
X131931457Y-79778087D01*
X131990716Y-79999243D01*
X132087477Y-80206749D01*
X132218802Y-80394300D01*
X132380700Y-80556198D01*
X132568251Y-80687523D01*
X132775757Y-80784284D01*
X132996913Y-80843543D01*
X132996917Y-80843543D01*
X132996920Y-80843544D01*
X133224997Y-80863498D01*
X133225000Y-80863498D01*
X133225003Y-80863498D01*
X133453079Y-80843544D01*
X133453080Y-80843543D01*
X133453087Y-80843543D01*
X133674243Y-80784284D01*
X133881749Y-80687523D01*
X134069300Y-80556198D01*
X134231198Y-80394300D01*
X134362523Y-80206749D01*
X134459284Y-79999243D01*
X134518543Y-79778087D01*
X134526926Y-79682277D01*
X134538498Y-79550003D01*
X136911502Y-79550003D01*
X136931455Y-79778079D01*
X136931456Y-79778086D01*
X136931457Y-79778087D01*
X136990716Y-79999243D01*
X137087477Y-80206749D01*
X137218802Y-80394300D01*
X137380700Y-80556198D01*
X137568251Y-80687523D01*
X137775757Y-80784284D01*
X137996913Y-80843543D01*
X137996917Y-80843543D01*
X137996920Y-80843544D01*
X138224997Y-80863498D01*
X138225000Y-80863498D01*
X138225003Y-80863498D01*
X138453079Y-80843544D01*
X138453080Y-80843543D01*
X138453087Y-80843543D01*
X138674243Y-80784284D01*
X138881749Y-80687523D01*
X139069300Y-80556198D01*
X139231198Y-80394300D01*
X139362523Y-80206749D01*
X139459284Y-79999243D01*
X139518543Y-79778087D01*
X139526926Y-79682277D01*
X139534124Y-79600003D01*
X142561502Y-79600003D01*
X142581455Y-79828079D01*
X142581456Y-79828086D01*
X142581457Y-79828087D01*
X142627318Y-79999243D01*
X142640716Y-80049242D01*
X142737476Y-80256747D01*
X142833791Y-80394300D01*
X142868802Y-80444300D01*
X143030700Y-80606198D01*
X143218251Y-80737523D01*
X143425757Y-80834284D01*
X143646913Y-80893543D01*
X143646917Y-80893543D01*
X143646920Y-80893544D01*
X143874997Y-80913498D01*
X143875000Y-80913498D01*
X143875003Y-80913498D01*
X144103079Y-80893544D01*
X144103080Y-80893543D01*
X144103087Y-80893543D01*
X144324243Y-80834284D01*
X144531749Y-80737523D01*
X144719300Y-80606198D01*
X144881198Y-80444300D01*
X145012523Y-80256749D01*
X145109284Y-80049243D01*
X145168543Y-79828087D01*
X145170029Y-79811111D01*
X145188498Y-79600003D01*
X147561502Y-79600003D01*
X147581455Y-79828079D01*
X147581456Y-79828086D01*
X147581457Y-79828087D01*
X147627318Y-79999243D01*
X147640716Y-80049242D01*
X147737476Y-80256747D01*
X147833791Y-80394300D01*
X147868802Y-80444300D01*
X148030700Y-80606198D01*
X148218251Y-80737523D01*
X148425757Y-80834284D01*
X148646913Y-80893543D01*
X148646917Y-80893543D01*
X148646920Y-80893544D01*
X148874997Y-80913498D01*
X148875000Y-80913498D01*
X148875003Y-80913498D01*
X149103079Y-80893544D01*
X149103080Y-80893543D01*
X149103087Y-80893543D01*
X149324243Y-80834284D01*
X149531749Y-80737523D01*
X149719300Y-80606198D01*
X149881198Y-80444300D01*
X150012523Y-80256749D01*
X150109284Y-80049243D01*
X150168543Y-79828087D01*
X150170029Y-79811111D01*
X150188498Y-79600003D01*
X150188498Y-79599996D01*
X150168544Y-79371920D01*
X150168543Y-79371917D01*
X150168543Y-79371913D01*
X150109284Y-79150757D01*
X150012523Y-78943251D01*
X149881198Y-78755700D01*
X149719300Y-78593802D01*
X149719296Y-78593799D01*
X149719295Y-78593798D01*
X149553941Y-78478016D01*
X149531749Y-78462477D01*
X149324243Y-78365716D01*
X149103087Y-78306457D01*
X149103086Y-78306456D01*
X149103079Y-78306455D01*
X148875003Y-78286502D01*
X148874997Y-78286502D01*
X148646920Y-78306455D01*
X148425757Y-78365716D01*
X148218252Y-78462476D01*
X148030704Y-78593798D01*
X147868798Y-78755704D01*
X147737476Y-78943252D01*
X147640716Y-79150757D01*
X147581455Y-79371920D01*
X147561502Y-79599996D01*
X147561502Y-79600003D01*
X145188498Y-79600003D01*
X145188498Y-79599996D01*
X145168544Y-79371920D01*
X145168543Y-79371917D01*
X145168543Y-79371913D01*
X145109284Y-79150757D01*
X145012523Y-78943251D01*
X144881198Y-78755700D01*
X144719300Y-78593802D01*
X144719296Y-78593799D01*
X144719295Y-78593798D01*
X144553941Y-78478016D01*
X144531749Y-78462477D01*
X144324243Y-78365716D01*
X144103087Y-78306457D01*
X144103086Y-78306456D01*
X144103079Y-78306455D01*
X143875003Y-78286502D01*
X143874997Y-78286502D01*
X143646920Y-78306455D01*
X143425757Y-78365716D01*
X143218252Y-78462476D01*
X143030704Y-78593798D01*
X142868798Y-78755704D01*
X142737476Y-78943252D01*
X142640716Y-79150757D01*
X142581455Y-79371920D01*
X142561502Y-79599996D01*
X142561502Y-79600003D01*
X139534124Y-79600003D01*
X139538498Y-79550003D01*
X139538498Y-79549996D01*
X139518544Y-79321920D01*
X139518543Y-79321917D01*
X139518543Y-79321913D01*
X139459284Y-79100757D01*
X139362523Y-78893251D01*
X139231198Y-78705700D01*
X139069300Y-78543802D01*
X139069296Y-78543799D01*
X139069295Y-78543798D01*
X138953155Y-78462476D01*
X138881749Y-78412477D01*
X138674243Y-78315716D01*
X138453087Y-78256457D01*
X138453086Y-78256456D01*
X138453079Y-78256455D01*
X138225003Y-78236502D01*
X138224997Y-78236502D01*
X137996920Y-78256455D01*
X137775757Y-78315716D01*
X137568252Y-78412476D01*
X137380704Y-78543798D01*
X137218798Y-78705704D01*
X137087476Y-78893252D01*
X136990716Y-79100757D01*
X136931455Y-79321920D01*
X136911502Y-79549996D01*
X136911502Y-79550003D01*
X134538498Y-79550003D01*
X134538498Y-79549996D01*
X134518544Y-79321920D01*
X134518543Y-79321917D01*
X134518543Y-79321913D01*
X134459284Y-79100757D01*
X134362523Y-78893251D01*
X134231198Y-78705700D01*
X134069300Y-78543802D01*
X134069296Y-78543799D01*
X134069295Y-78543798D01*
X133953155Y-78462476D01*
X133881749Y-78412477D01*
X133674243Y-78315716D01*
X133453087Y-78256457D01*
X133453086Y-78256456D01*
X133453079Y-78256455D01*
X133225003Y-78236502D01*
X133224997Y-78236502D01*
X132996920Y-78256455D01*
X132775757Y-78315716D01*
X132568252Y-78412476D01*
X132380704Y-78543798D01*
X132218798Y-78705704D01*
X132087476Y-78893252D01*
X131990716Y-79100757D01*
X131931455Y-79321920D01*
X131911502Y-79549996D01*
X131911502Y-79550003D01*
X130069227Y-79550003D01*
X130083043Y-79528015D01*
X130143217Y-79356047D01*
X130163616Y-79175000D01*
X130143217Y-78993953D01*
X130123853Y-78938615D01*
X130095660Y-78858043D01*
X130083043Y-78821985D01*
X130044794Y-78761113D01*
X129986113Y-78667722D01*
X129986112Y-78667721D01*
X129986111Y-78667719D01*
X129857281Y-78538889D01*
X129857278Y-78538887D01*
X129857277Y-78538886D01*
X129703016Y-78441957D01*
X129531053Y-78381784D01*
X129531049Y-78381783D01*
X129350000Y-78361384D01*
X129168950Y-78381783D01*
X129168946Y-78381784D01*
X128996984Y-78441957D01*
X128996983Y-78441957D01*
X128842722Y-78538886D01*
X128713886Y-78667722D01*
X128616957Y-78821983D01*
X128616957Y-78821984D01*
X128556784Y-78993946D01*
X128556783Y-78993950D01*
X128536384Y-79175000D01*
X100075500Y-79175000D01*
X100075500Y-78125000D01*
X117636384Y-78125000D01*
X117656783Y-78306049D01*
X117656784Y-78306053D01*
X117716957Y-78478015D01*
X117716957Y-78478016D01*
X117813886Y-78632277D01*
X117813889Y-78632281D01*
X117942719Y-78761111D01*
X117942721Y-78761112D01*
X117942722Y-78761113D01*
X118039597Y-78821984D01*
X118096985Y-78858043D01*
X118165847Y-78882138D01*
X118268946Y-78918215D01*
X118268950Y-78918216D01*
X118268953Y-78918217D01*
X118450000Y-78938616D01*
X118631047Y-78918217D01*
X118803015Y-78858043D01*
X118957281Y-78761111D01*
X119086111Y-78632281D01*
X119183043Y-78478015D01*
X119243217Y-78306047D01*
X119263616Y-78125000D01*
X119243217Y-77943953D01*
X119183043Y-77771985D01*
X119086111Y-77617719D01*
X118957281Y-77488889D01*
X118957278Y-77488887D01*
X118957277Y-77488886D01*
X118803016Y-77391957D01*
X118631053Y-77331784D01*
X118631049Y-77331783D01*
X118450000Y-77311384D01*
X118268950Y-77331783D01*
X118268946Y-77331784D01*
X118096984Y-77391957D01*
X118096983Y-77391957D01*
X117942722Y-77488886D01*
X117813886Y-77617722D01*
X117716957Y-77771983D01*
X117716957Y-77771984D01*
X117656784Y-77943946D01*
X117656783Y-77943950D01*
X117636384Y-78125000D01*
X100075500Y-78125000D01*
X100075500Y-75798634D01*
X101241500Y-75798634D01*
X101248010Y-75859199D01*
X101248011Y-75859201D01*
X101299111Y-75996204D01*
X101299112Y-75996206D01*
X101299113Y-75996207D01*
X101378119Y-76101747D01*
X101386739Y-76113261D01*
X101503796Y-76200889D01*
X101640799Y-76251989D01*
X101701362Y-76258500D01*
X101701365Y-76258500D01*
X103498635Y-76258500D01*
X103498638Y-76258500D01*
X103559201Y-76251989D01*
X103696204Y-76200889D01*
X103813261Y-76113261D01*
X103900889Y-75996204D01*
X103951989Y-75859201D01*
X103958500Y-75798638D01*
X103958500Y-74310003D01*
X115186502Y-74310003D01*
X115206455Y-74538079D01*
X115206456Y-74538086D01*
X115206457Y-74538087D01*
X115265716Y-74759243D01*
X115362477Y-74966749D01*
X115390100Y-75006198D01*
X115482054Y-75137523D01*
X115493802Y-75154300D01*
X115655700Y-75316198D01*
X115843251Y-75447523D01*
X116050757Y-75544284D01*
X116271913Y-75603543D01*
X116271917Y-75603543D01*
X116271920Y-75603544D01*
X116499997Y-75623498D01*
X116500000Y-75623498D01*
X116500003Y-75623498D01*
X116728079Y-75603544D01*
X116728080Y-75603543D01*
X116728087Y-75603543D01*
X116949243Y-75544284D01*
X117156749Y-75447523D01*
X117344300Y-75316198D01*
X117506198Y-75154300D01*
X117637523Y-74966749D01*
X117734284Y-74759243D01*
X117793543Y-74538087D01*
X117798293Y-74483802D01*
X117813498Y-74310003D01*
X117813498Y-74309996D01*
X117793544Y-74081920D01*
X117793543Y-74081917D01*
X117793543Y-74081913D01*
X117771595Y-74000003D01*
X118376502Y-74000003D01*
X118396455Y-74228079D01*
X118396456Y-74228086D01*
X118396457Y-74228087D01*
X118455716Y-74449243D01*
X118526341Y-74600700D01*
X118552476Y-74656747D01*
X118644556Y-74788252D01*
X118683802Y-74844300D01*
X118845700Y-75006198D01*
X119033251Y-75137523D01*
X119240757Y-75234284D01*
X119461913Y-75293543D01*
X119461917Y-75293543D01*
X119461920Y-75293544D01*
X119689997Y-75313498D01*
X119690000Y-75313498D01*
X119690003Y-75313498D01*
X119918079Y-75293544D01*
X119918080Y-75293543D01*
X119918087Y-75293543D01*
X120139243Y-75234284D01*
X120346749Y-75137523D01*
X120534300Y-75006198D01*
X120696198Y-74844300D01*
X120827523Y-74656749D01*
X120924284Y-74449243D01*
X120983543Y-74228087D01*
X120983989Y-74222997D01*
X121003498Y-74000003D01*
X125996502Y-74000003D01*
X126016455Y-74228079D01*
X126016456Y-74228086D01*
X126016457Y-74228087D01*
X126075716Y-74449243D01*
X126146341Y-74600700D01*
X126172476Y-74656747D01*
X126264556Y-74788252D01*
X126303802Y-74844300D01*
X126465700Y-75006198D01*
X126653251Y-75137523D01*
X126860757Y-75234284D01*
X127081913Y-75293543D01*
X127081917Y-75293543D01*
X127081920Y-75293544D01*
X127309997Y-75313498D01*
X127310000Y-75313498D01*
X127310003Y-75313498D01*
X127464252Y-75300003D01*
X131866502Y-75300003D01*
X131886455Y-75528079D01*
X131886456Y-75528086D01*
X131886457Y-75528087D01*
X131945716Y-75749243D01*
X131968749Y-75798638D01*
X132042476Y-75956747D01*
X132152064Y-76113256D01*
X132173802Y-76144300D01*
X132335700Y-76306198D01*
X132523251Y-76437523D01*
X132730757Y-76534284D01*
X132951913Y-76593543D01*
X132951917Y-76593543D01*
X132951920Y-76593544D01*
X133179997Y-76613498D01*
X133180000Y-76613498D01*
X133180003Y-76613498D01*
X133408079Y-76593544D01*
X133408080Y-76593543D01*
X133408087Y-76593543D01*
X133629243Y-76534284D01*
X133836749Y-76437523D01*
X134024300Y-76306198D01*
X134186198Y-76144300D01*
X134317523Y-75956749D01*
X134414284Y-75749243D01*
X134473543Y-75528087D01*
X134476875Y-75490003D01*
X136866502Y-75490003D01*
X136886455Y-75718079D01*
X136886456Y-75718086D01*
X136886457Y-75718087D01*
X136945716Y-75939243D01*
X136972277Y-75996204D01*
X137042476Y-76146747D01*
X137154126Y-76306201D01*
X137173802Y-76334300D01*
X137335700Y-76496198D01*
X137523251Y-76627523D01*
X137730757Y-76724284D01*
X137951913Y-76783543D01*
X137951917Y-76783543D01*
X137951920Y-76783544D01*
X138179997Y-76803498D01*
X138180000Y-76803498D01*
X138180003Y-76803498D01*
X138408079Y-76783544D01*
X138408080Y-76783543D01*
X138408087Y-76783543D01*
X138629243Y-76724284D01*
X138836749Y-76627523D01*
X139024300Y-76496198D01*
X139186198Y-76334300D01*
X139317523Y-76146749D01*
X139414284Y-75939243D01*
X139473543Y-75718087D01*
X139481819Y-75623498D01*
X139493498Y-75490003D01*
X139493498Y-75489996D01*
X139489562Y-75445003D01*
X141261502Y-75445003D01*
X141281455Y-75673079D01*
X141281456Y-75673086D01*
X141281457Y-75673087D01*
X141340716Y-75894243D01*
X141437477Y-76101749D01*
X141495943Y-76185247D01*
X141547235Y-76258500D01*
X141568802Y-76289300D01*
X141730700Y-76451198D01*
X141918251Y-76582523D01*
X142125757Y-76679284D01*
X142346913Y-76738543D01*
X142346917Y-76738543D01*
X142346920Y-76738544D01*
X142574997Y-76758498D01*
X142575000Y-76758498D01*
X142575003Y-76758498D01*
X142803079Y-76738544D01*
X142803080Y-76738543D01*
X142803087Y-76738543D01*
X143024243Y-76679284D01*
X143231749Y-76582523D01*
X143419300Y-76451198D01*
X143581198Y-76289300D01*
X143712523Y-76101749D01*
X143809284Y-75894243D01*
X143868543Y-75673087D01*
X143872882Y-75623498D01*
X143888498Y-75445003D01*
X148881502Y-75445003D01*
X148901455Y-75673079D01*
X148901456Y-75673086D01*
X148901457Y-75673087D01*
X148960716Y-75894243D01*
X149057477Y-76101749D01*
X149115943Y-76185247D01*
X149167235Y-76258500D01*
X149188802Y-76289300D01*
X149350700Y-76451198D01*
X149538251Y-76582523D01*
X149745757Y-76679284D01*
X149966913Y-76738543D01*
X149966917Y-76738543D01*
X149966920Y-76738544D01*
X150194997Y-76758498D01*
X150195000Y-76758498D01*
X150195003Y-76758498D01*
X150423079Y-76738544D01*
X150423080Y-76738543D01*
X150423087Y-76738543D01*
X150644243Y-76679284D01*
X150851749Y-76582523D01*
X151039300Y-76451198D01*
X151201198Y-76289300D01*
X151332523Y-76101749D01*
X151429284Y-75894243D01*
X151488543Y-75673087D01*
X151492882Y-75623498D01*
X151508498Y-75445003D01*
X151508498Y-75444996D01*
X151488544Y-75216920D01*
X151488543Y-75216917D01*
X151488543Y-75216913D01*
X151429284Y-74995757D01*
X151332523Y-74788251D01*
X151201198Y-74600700D01*
X151039300Y-74438802D01*
X151039296Y-74438799D01*
X151039295Y-74438798D01*
X150851746Y-74307475D01*
X150851744Y-74307474D01*
X150760066Y-74264725D01*
X150715317Y-74222997D01*
X150703642Y-74162936D01*
X150729499Y-74107483D01*
X150760066Y-74085275D01*
X150802011Y-74065716D01*
X150851749Y-74042523D01*
X150933900Y-73985000D01*
X156236844Y-73985000D01*
X156255435Y-74209366D01*
X156267173Y-74255716D01*
X156310704Y-74427616D01*
X156401140Y-74633791D01*
X156524278Y-74822268D01*
X156524282Y-74822274D01*
X156676756Y-74987903D01*
X156676766Y-74987912D01*
X156688140Y-74996765D01*
X156722446Y-75047427D01*
X156720422Y-75108579D01*
X156682840Y-75156862D01*
X156646496Y-75170177D01*
X156646829Y-75171586D01*
X156640801Y-75173010D01*
X156595131Y-75190044D01*
X156503796Y-75224111D01*
X156503794Y-75224112D01*
X156503792Y-75224113D01*
X156386743Y-75311735D01*
X156386735Y-75311743D01*
X156299113Y-75428792D01*
X156299112Y-75428794D01*
X156299111Y-75428796D01*
X156293066Y-75445003D01*
X156248010Y-75565800D01*
X156241500Y-75626365D01*
X156241500Y-77423634D01*
X156248010Y-77484199D01*
X156259446Y-77514861D01*
X156299111Y-77621204D01*
X156386739Y-77738261D01*
X156503796Y-77825889D01*
X156640799Y-77876989D01*
X156701362Y-77883500D01*
X156701365Y-77883500D01*
X158498635Y-77883500D01*
X158498638Y-77883500D01*
X158559201Y-77876989D01*
X158696204Y-77825889D01*
X158813261Y-77738261D01*
X158900889Y-77621204D01*
X158951989Y-77484201D01*
X158958500Y-77423638D01*
X158958500Y-75626362D01*
X158951989Y-75565799D01*
X158900889Y-75428796D01*
X158813261Y-75311739D01*
X158797574Y-75299996D01*
X158696207Y-75224113D01*
X158696206Y-75224112D01*
X158696204Y-75224111D01*
X158559201Y-75173011D01*
X158559200Y-75173010D01*
X158559198Y-75173010D01*
X158553171Y-75171586D01*
X158553653Y-75169543D01*
X158506247Y-75148299D01*
X158475782Y-75095237D01*
X158482325Y-75034403D01*
X158511862Y-74996763D01*
X158523232Y-74987913D01*
X158523243Y-74987903D01*
X158675717Y-74822274D01*
X158675718Y-74822272D01*
X158675722Y-74822268D01*
X158798860Y-74633791D01*
X158889296Y-74427616D01*
X158944564Y-74209368D01*
X158963156Y-73985000D01*
X158944564Y-73760632D01*
X158889296Y-73542384D01*
X158798860Y-73336209D01*
X158675722Y-73147732D01*
X158675720Y-73147730D01*
X158675717Y-73147725D01*
X158523243Y-72982096D01*
X158523237Y-72982091D01*
X158345579Y-72843813D01*
X158345576Y-72843811D01*
X158263601Y-72799448D01*
X158221423Y-72755123D01*
X158213353Y-72694472D01*
X158242474Y-72640662D01*
X158268886Y-72622653D01*
X158277577Y-72618600D01*
X158471073Y-72483113D01*
X158638113Y-72316073D01*
X158773600Y-72122577D01*
X158873430Y-71908489D01*
X158930636Y-71695000D01*
X158033012Y-71695000D01*
X158065925Y-71637993D01*
X158100000Y-71510826D01*
X158100000Y-71379174D01*
X158065925Y-71252007D01*
X158033012Y-71195000D01*
X158930636Y-71195000D01*
X158873429Y-70981505D01*
X158773605Y-70767432D01*
X158773601Y-70767424D01*
X158638113Y-70573926D01*
X158471073Y-70406886D01*
X158277577Y-70271399D01*
X158063489Y-70171569D01*
X157850000Y-70114364D01*
X157850000Y-71011988D01*
X157792993Y-70979075D01*
X157665826Y-70945000D01*
X157534174Y-70945000D01*
X157407007Y-70979075D01*
X157350000Y-71011988D01*
X157350000Y-70114364D01*
X157136505Y-70171570D01*
X156922432Y-70271394D01*
X156922424Y-70271398D01*
X156728926Y-70406886D01*
X156561886Y-70573926D01*
X156426398Y-70767424D01*
X156426394Y-70767432D01*
X156326570Y-70981505D01*
X156269364Y-71195000D01*
X157166988Y-71195000D01*
X157134075Y-71252007D01*
X157100000Y-71379174D01*
X157100000Y-71510826D01*
X157134075Y-71637993D01*
X157166988Y-71695000D01*
X156269364Y-71695000D01*
X156326569Y-71908489D01*
X156426399Y-72122577D01*
X156561886Y-72316073D01*
X156728926Y-72483113D01*
X156922423Y-72618601D01*
X156931115Y-72622654D01*
X156975865Y-72664381D01*
X156987541Y-72724442D01*
X156961685Y-72779896D01*
X156936399Y-72799447D01*
X156854428Y-72843808D01*
X156854420Y-72843813D01*
X156676762Y-72982091D01*
X156676756Y-72982096D01*
X156524282Y-73147725D01*
X156508112Y-73172476D01*
X156401140Y-73336209D01*
X156310704Y-73542384D01*
X156283070Y-73651508D01*
X156255435Y-73760633D01*
X156236844Y-73985000D01*
X150933900Y-73985000D01*
X151039300Y-73911198D01*
X151201198Y-73749300D01*
X151332523Y-73561749D01*
X151429284Y-73354243D01*
X151488543Y-73133087D01*
X151493563Y-73075716D01*
X151508498Y-72905003D01*
X151508498Y-72904996D01*
X151488544Y-72676920D01*
X151488543Y-72676917D01*
X151488543Y-72676913D01*
X151429284Y-72455757D01*
X151332523Y-72248251D01*
X151201198Y-72060700D01*
X151039300Y-71898802D01*
X151039296Y-71898799D01*
X151039295Y-71898798D01*
X150935247Y-71825943D01*
X150851749Y-71767477D01*
X150750009Y-71720035D01*
X150705262Y-71678308D01*
X150693587Y-71618246D01*
X150719445Y-71562794D01*
X150750010Y-71540586D01*
X150847481Y-71495134D01*
X151033811Y-71364665D01*
X151194665Y-71203811D01*
X151325134Y-71017481D01*
X151421266Y-70811323D01*
X151473872Y-70615000D01*
X150510686Y-70615000D01*
X150515080Y-70610606D01*
X150567741Y-70519394D01*
X150595000Y-70417661D01*
X150595000Y-70312339D01*
X150567741Y-70210606D01*
X150515080Y-70119394D01*
X150510686Y-70115000D01*
X151473872Y-70115000D01*
X151421266Y-69918676D01*
X151325134Y-69712518D01*
X151194665Y-69526188D01*
X151033811Y-69365334D01*
X150847480Y-69234864D01*
X150847476Y-69234862D01*
X150750009Y-69189412D01*
X150705261Y-69147684D01*
X150693587Y-69087622D01*
X150719445Y-69032170D01*
X150750007Y-69009965D01*
X150851749Y-68962523D01*
X151039300Y-68831198D01*
X151201198Y-68669300D01*
X151332523Y-68481749D01*
X151429284Y-68274243D01*
X151488543Y-68053087D01*
X151492882Y-68003498D01*
X151508498Y-67825003D01*
X151508498Y-67824996D01*
X151488544Y-67596920D01*
X151488543Y-67596917D01*
X151488543Y-67596913D01*
X151442480Y-67425003D01*
X154151502Y-67425003D01*
X154171455Y-67653079D01*
X154171456Y-67653086D01*
X154171457Y-67653087D01*
X154230716Y-67874243D01*
X154327477Y-68081749D01*
X154458802Y-68269300D01*
X154620700Y-68431198D01*
X154808251Y-68562523D01*
X155015757Y-68659284D01*
X155236913Y-68718543D01*
X155236917Y-68718543D01*
X155236920Y-68718544D01*
X155464997Y-68738498D01*
X155465000Y-68738498D01*
X155465003Y-68738498D01*
X155693079Y-68718544D01*
X155693080Y-68718543D01*
X155693087Y-68718543D01*
X155914243Y-68659284D01*
X156121749Y-68562523D01*
X156309300Y-68431198D01*
X156471198Y-68269300D01*
X156602523Y-68081749D01*
X156699284Y-67874243D01*
X156758543Y-67653087D01*
X156776144Y-67451913D01*
X156778498Y-67425003D01*
X161771502Y-67425003D01*
X161791455Y-67653079D01*
X161791456Y-67653086D01*
X161791457Y-67653087D01*
X161850716Y-67874243D01*
X161947477Y-68081749D01*
X162078802Y-68269300D01*
X162240700Y-68431198D01*
X162428251Y-68562523D01*
X162635757Y-68659284D01*
X162856913Y-68718543D01*
X162856917Y-68718543D01*
X162856920Y-68718544D01*
X163084997Y-68738498D01*
X163085000Y-68738498D01*
X163085003Y-68738498D01*
X163313079Y-68718544D01*
X163313080Y-68718543D01*
X163313087Y-68718543D01*
X163534243Y-68659284D01*
X163741749Y-68562523D01*
X163929300Y-68431198D01*
X164091198Y-68269300D01*
X164222523Y-68081749D01*
X164319284Y-67874243D01*
X164378543Y-67653087D01*
X164396144Y-67451913D01*
X164398498Y-67425003D01*
X164398498Y-67424996D01*
X164378544Y-67196920D01*
X164378543Y-67196917D01*
X164378543Y-67196913D01*
X164319284Y-66975757D01*
X164222523Y-66768251D01*
X164098211Y-66590716D01*
X164091201Y-66580704D01*
X164091200Y-66580703D01*
X164091198Y-66580700D01*
X163929300Y-66418802D01*
X163929296Y-66418799D01*
X163929295Y-66418798D01*
X163825247Y-66345943D01*
X163741749Y-66287477D01*
X163534243Y-66190716D01*
X163313087Y-66131457D01*
X163313086Y-66131456D01*
X163313079Y-66131455D01*
X163085003Y-66111502D01*
X163084997Y-66111502D01*
X162856920Y-66131455D01*
X162635757Y-66190716D01*
X162428252Y-66287476D01*
X162240704Y-66418798D01*
X162078798Y-66580704D01*
X161947476Y-66768252D01*
X161850716Y-66975757D01*
X161791455Y-67196920D01*
X161771502Y-67424996D01*
X161771502Y-67425003D01*
X156778498Y-67425003D01*
X156778498Y-67424996D01*
X156758544Y-67196920D01*
X156758543Y-67196917D01*
X156758543Y-67196913D01*
X156699284Y-66975757D01*
X156602523Y-66768251D01*
X156478211Y-66590716D01*
X156471201Y-66580704D01*
X156471200Y-66580703D01*
X156471198Y-66580700D01*
X156309300Y-66418802D01*
X156309296Y-66418799D01*
X156309295Y-66418798D01*
X156205247Y-66345943D01*
X156121749Y-66287477D01*
X155914243Y-66190716D01*
X155693087Y-66131457D01*
X155693086Y-66131456D01*
X155693079Y-66131455D01*
X155465003Y-66111502D01*
X155464997Y-66111502D01*
X155236920Y-66131455D01*
X155015757Y-66190716D01*
X154808252Y-66287476D01*
X154620704Y-66418798D01*
X154458798Y-66580704D01*
X154327476Y-66768252D01*
X154230716Y-66975757D01*
X154171455Y-67196920D01*
X154151502Y-67424996D01*
X154151502Y-67425003D01*
X151442480Y-67425003D01*
X151429284Y-67375757D01*
X151332523Y-67168251D01*
X151201198Y-66980700D01*
X151039300Y-66818802D01*
X151039296Y-66818799D01*
X151039295Y-66818798D01*
X150855346Y-66689996D01*
X150851749Y-66687477D01*
X150644243Y-66590716D01*
X150423087Y-66531457D01*
X150423086Y-66531456D01*
X150423079Y-66531455D01*
X150195003Y-66511502D01*
X150194997Y-66511502D01*
X149966920Y-66531455D01*
X149745757Y-66590716D01*
X149538252Y-66687476D01*
X149350704Y-66818798D01*
X149188798Y-66980704D01*
X149057476Y-67168252D01*
X148960716Y-67375757D01*
X148901455Y-67596920D01*
X148881502Y-67824996D01*
X148881502Y-67825003D01*
X148901455Y-68053079D01*
X148901456Y-68053086D01*
X148901457Y-68053087D01*
X148960716Y-68274243D01*
X149057477Y-68481749D01*
X149114036Y-68562523D01*
X149181788Y-68659284D01*
X149188802Y-68669300D01*
X149350700Y-68831198D01*
X149538251Y-68962523D01*
X149639988Y-69009963D01*
X149684737Y-69051691D01*
X149696412Y-69111752D01*
X149670555Y-69167205D01*
X149639990Y-69189412D01*
X149542523Y-69234862D01*
X149542519Y-69234864D01*
X149356188Y-69365334D01*
X149195334Y-69526188D01*
X149064865Y-69712518D01*
X148968733Y-69918676D01*
X148916128Y-70115000D01*
X149879314Y-70115000D01*
X149874920Y-70119394D01*
X149822259Y-70210606D01*
X149795000Y-70312339D01*
X149795000Y-70417661D01*
X149822259Y-70519394D01*
X149874920Y-70610606D01*
X149879314Y-70615000D01*
X148916128Y-70615000D01*
X148968733Y-70811323D01*
X149064865Y-71017481D01*
X149195334Y-71203811D01*
X149356188Y-71364665D01*
X149542519Y-71495135D01*
X149542527Y-71495139D01*
X149639989Y-71540587D01*
X149684737Y-71582315D01*
X149696412Y-71642376D01*
X149670554Y-71697829D01*
X149639989Y-71720036D01*
X149538252Y-71767476D01*
X149350704Y-71898798D01*
X149188798Y-72060704D01*
X149057476Y-72248252D01*
X148960716Y-72455757D01*
X148901455Y-72676920D01*
X148881502Y-72904996D01*
X148881502Y-72905003D01*
X148901455Y-73133079D01*
X148901456Y-73133086D01*
X148901457Y-73133087D01*
X148960716Y-73354243D01*
X149057477Y-73561749D01*
X149188802Y-73749300D01*
X149350700Y-73911198D01*
X149538251Y-74042523D01*
X149622724Y-74081913D01*
X149629934Y-74085275D01*
X149674682Y-74127003D01*
X149686357Y-74187065D01*
X149660499Y-74242518D01*
X149629934Y-74264725D01*
X149538252Y-74307476D01*
X149350704Y-74438798D01*
X149188798Y-74600704D01*
X149057476Y-74788252D01*
X148960716Y-74995757D01*
X148901455Y-75216920D01*
X148881502Y-75444996D01*
X148881502Y-75445003D01*
X143888498Y-75445003D01*
X143888498Y-75444996D01*
X143868544Y-75216920D01*
X143868543Y-75216917D01*
X143868543Y-75216913D01*
X143809284Y-74995757D01*
X143712523Y-74788251D01*
X143581198Y-74600700D01*
X143419300Y-74438802D01*
X143419296Y-74438799D01*
X143419295Y-74438798D01*
X143231746Y-74307475D01*
X143231744Y-74307474D01*
X143140066Y-74264725D01*
X143095317Y-74222997D01*
X143083642Y-74162936D01*
X143109499Y-74107483D01*
X143140066Y-74085275D01*
X143182011Y-74065716D01*
X143231749Y-74042523D01*
X143419300Y-73911198D01*
X143581198Y-73749300D01*
X143712523Y-73561749D01*
X143809284Y-73354243D01*
X143868543Y-73133087D01*
X143873563Y-73075716D01*
X143888498Y-72905003D01*
X143888498Y-72904996D01*
X143868544Y-72676920D01*
X143868543Y-72676917D01*
X143868543Y-72676913D01*
X143809284Y-72455757D01*
X143712523Y-72248251D01*
X143581198Y-72060700D01*
X143419300Y-71898802D01*
X143419296Y-71898799D01*
X143419295Y-71898798D01*
X143231746Y-71767475D01*
X143231744Y-71767474D01*
X143140066Y-71724725D01*
X143095317Y-71682997D01*
X143083642Y-71622936D01*
X143109499Y-71567483D01*
X143140066Y-71545275D01*
X143231749Y-71502523D01*
X143419300Y-71371198D01*
X143581198Y-71209300D01*
X143712523Y-71021749D01*
X143809284Y-70814243D01*
X143868543Y-70593087D01*
X143870220Y-70573926D01*
X143888498Y-70365003D01*
X143888498Y-70364996D01*
X143868544Y-70136920D01*
X143868543Y-70136917D01*
X143868543Y-70136913D01*
X143809284Y-69915757D01*
X143712523Y-69708251D01*
X143581198Y-69520700D01*
X143419300Y-69358802D01*
X143419296Y-69358799D01*
X143419295Y-69358798D01*
X143354740Y-69313596D01*
X143317918Y-69264731D01*
X143316850Y-69203555D01*
X143351944Y-69153435D01*
X143409796Y-69133515D01*
X143411524Y-69133500D01*
X143423635Y-69133500D01*
X143423638Y-69133500D01*
X143484201Y-69126989D01*
X143621204Y-69075889D01*
X143738261Y-68988261D01*
X143825889Y-68871204D01*
X143876989Y-68734201D01*
X143883500Y-68673638D01*
X143883500Y-66976362D01*
X143876989Y-66915799D01*
X143825889Y-66778796D01*
X143738261Y-66661739D01*
X143703498Y-66635716D01*
X143621207Y-66574113D01*
X143621206Y-66574112D01*
X143621204Y-66574111D01*
X143484201Y-66523011D01*
X143484200Y-66523010D01*
X143443327Y-66518616D01*
X143423638Y-66516500D01*
X141726362Y-66516500D01*
X141710288Y-66518228D01*
X141665800Y-66523010D01*
X141613609Y-66542477D01*
X141528796Y-66574111D01*
X141528794Y-66574112D01*
X141528792Y-66574113D01*
X141411743Y-66661735D01*
X141411735Y-66661743D01*
X141324113Y-66778792D01*
X141324112Y-66778794D01*
X141324111Y-66778796D01*
X141302887Y-66835700D01*
X141273010Y-66915800D01*
X141266500Y-66976365D01*
X141266500Y-68673634D01*
X141273010Y-68734199D01*
X141284446Y-68764861D01*
X141324111Y-68871204D01*
X141324112Y-68871206D01*
X141324113Y-68871207D01*
X141392471Y-68962523D01*
X141411739Y-68988261D01*
X141528796Y-69075889D01*
X141665799Y-69126989D01*
X141726362Y-69133500D01*
X141738476Y-69133500D01*
X141796667Y-69152407D01*
X141832631Y-69201907D01*
X141832631Y-69263093D01*
X141796667Y-69312593D01*
X141795260Y-69313596D01*
X141730704Y-69358798D01*
X141568798Y-69520704D01*
X141437476Y-69708252D01*
X141340716Y-69915757D01*
X141281455Y-70136920D01*
X141261502Y-70364996D01*
X141261502Y-70365003D01*
X141281455Y-70593079D01*
X141281456Y-70593086D01*
X141281457Y-70593087D01*
X141340716Y-70814243D01*
X141437477Y-71021749D01*
X141495943Y-71105247D01*
X141564958Y-71203811D01*
X141568802Y-71209300D01*
X141730700Y-71371198D01*
X141918251Y-71502523D01*
X142009934Y-71545275D01*
X142054682Y-71587003D01*
X142066357Y-71647065D01*
X142040499Y-71702518D01*
X142009934Y-71724725D01*
X141918252Y-71767476D01*
X141730704Y-71898798D01*
X141568798Y-72060704D01*
X141437476Y-72248252D01*
X141340716Y-72455757D01*
X141281455Y-72676920D01*
X141261502Y-72904996D01*
X141261502Y-72905003D01*
X141281455Y-73133079D01*
X141281456Y-73133086D01*
X141281457Y-73133087D01*
X141340716Y-73354243D01*
X141437477Y-73561749D01*
X141568802Y-73749300D01*
X141730700Y-73911198D01*
X141918251Y-74042523D01*
X142002724Y-74081913D01*
X142009934Y-74085275D01*
X142054682Y-74127003D01*
X142066357Y-74187065D01*
X142040499Y-74242518D01*
X142009934Y-74264725D01*
X141918252Y-74307476D01*
X141730704Y-74438798D01*
X141568798Y-74600704D01*
X141437476Y-74788252D01*
X141340716Y-74995757D01*
X141281455Y-75216920D01*
X141261502Y-75444996D01*
X141261502Y-75445003D01*
X139489562Y-75445003D01*
X139473544Y-75261920D01*
X139473543Y-75261917D01*
X139473543Y-75261913D01*
X139414284Y-75040757D01*
X139317523Y-74833251D01*
X139186198Y-74645700D01*
X139024300Y-74483802D01*
X139024296Y-74483799D01*
X139024295Y-74483798D01*
X138920247Y-74410943D01*
X138836749Y-74352477D01*
X138629243Y-74255716D01*
X138408087Y-74196457D01*
X138408086Y-74196456D01*
X138408079Y-74196455D01*
X138180003Y-74176502D01*
X138179997Y-74176502D01*
X137951920Y-74196455D01*
X137730757Y-74255716D01*
X137523252Y-74352476D01*
X137335704Y-74483798D01*
X137173798Y-74645704D01*
X137042476Y-74833252D01*
X136945716Y-75040757D01*
X136886455Y-75261920D01*
X136866502Y-75489996D01*
X136866502Y-75490003D01*
X134476875Y-75490003D01*
X134480592Y-75447523D01*
X134493498Y-75300003D01*
X134493498Y-75299996D01*
X134473544Y-75071920D01*
X134473543Y-75071917D01*
X134473543Y-75071913D01*
X134414284Y-74850757D01*
X134317523Y-74643251D01*
X134205875Y-74483802D01*
X134186201Y-74455704D01*
X134186200Y-74455703D01*
X134186198Y-74455700D01*
X134024300Y-74293802D01*
X134024296Y-74293799D01*
X134024295Y-74293798D01*
X133871864Y-74187065D01*
X133836749Y-74162477D01*
X133629243Y-74065716D01*
X133408087Y-74006457D01*
X133408086Y-74006456D01*
X133408079Y-74006455D01*
X133180003Y-73986502D01*
X133179997Y-73986502D01*
X132951920Y-74006455D01*
X132730757Y-74065716D01*
X132523252Y-74162476D01*
X132335704Y-74293798D01*
X132173798Y-74455704D01*
X132042476Y-74643252D01*
X131945716Y-74850757D01*
X131886455Y-75071920D01*
X131866502Y-75299996D01*
X131866502Y-75300003D01*
X127464252Y-75300003D01*
X127538079Y-75293544D01*
X127538080Y-75293543D01*
X127538087Y-75293543D01*
X127759243Y-75234284D01*
X127966749Y-75137523D01*
X128154300Y-75006198D01*
X128316198Y-74844300D01*
X128447523Y-74656749D01*
X128544284Y-74449243D01*
X128603543Y-74228087D01*
X128603989Y-74222997D01*
X128623498Y-74000003D01*
X128623498Y-73999996D01*
X128603544Y-73771920D01*
X128603543Y-73771917D01*
X128603543Y-73771913D01*
X128544284Y-73550757D01*
X128447523Y-73343251D01*
X128345281Y-73197235D01*
X128316201Y-73155704D01*
X128316200Y-73155703D01*
X128316198Y-73155700D01*
X128154300Y-72993802D01*
X128154296Y-72993799D01*
X128154295Y-72993798D01*
X127977607Y-72870080D01*
X127966749Y-72862477D01*
X127759243Y-72765716D01*
X127538087Y-72706457D01*
X127538086Y-72706456D01*
X127538079Y-72706455D01*
X127310003Y-72686502D01*
X127309997Y-72686502D01*
X127081920Y-72706455D01*
X126860757Y-72765716D01*
X126653252Y-72862476D01*
X126465704Y-72993798D01*
X126303798Y-73155704D01*
X126172476Y-73343252D01*
X126075716Y-73550757D01*
X126016455Y-73771920D01*
X125996502Y-73999996D01*
X125996502Y-74000003D01*
X121003498Y-74000003D01*
X121003498Y-73999996D01*
X120983544Y-73771920D01*
X120983543Y-73771917D01*
X120983543Y-73771913D01*
X120924284Y-73550757D01*
X120827523Y-73343251D01*
X120725281Y-73197235D01*
X120696201Y-73155704D01*
X120696200Y-73155703D01*
X120696198Y-73155700D01*
X120534300Y-72993802D01*
X120534296Y-72993799D01*
X120534295Y-72993798D01*
X120357607Y-72870080D01*
X120346749Y-72862477D01*
X120139243Y-72765716D01*
X119918087Y-72706457D01*
X119918086Y-72706456D01*
X119918079Y-72706455D01*
X119690003Y-72686502D01*
X119689997Y-72686502D01*
X119461920Y-72706455D01*
X119240757Y-72765716D01*
X119033252Y-72862476D01*
X118845704Y-72993798D01*
X118683798Y-73155704D01*
X118552476Y-73343252D01*
X118455716Y-73550757D01*
X118396455Y-73771920D01*
X118376502Y-73999996D01*
X118376502Y-74000003D01*
X117771595Y-74000003D01*
X117734284Y-73860757D01*
X117637523Y-73653251D01*
X117506198Y-73465700D01*
X117344300Y-73303802D01*
X117344296Y-73303799D01*
X117344295Y-73303798D01*
X117240247Y-73230943D01*
X117156749Y-73172477D01*
X116949243Y-73075716D01*
X116728087Y-73016457D01*
X116728086Y-73016456D01*
X116728079Y-73016455D01*
X116500003Y-72996502D01*
X116499997Y-72996502D01*
X116271920Y-73016455D01*
X116050757Y-73075716D01*
X115843252Y-73172476D01*
X115655704Y-73303798D01*
X115493798Y-73465704D01*
X115362476Y-73653252D01*
X115265716Y-73860757D01*
X115206455Y-74081920D01*
X115186502Y-74309996D01*
X115186502Y-74310003D01*
X103958500Y-74310003D01*
X103958500Y-74001362D01*
X103951989Y-73940799D01*
X103900889Y-73803796D01*
X103813261Y-73686739D01*
X103768526Y-73653251D01*
X103696207Y-73599113D01*
X103696206Y-73599112D01*
X103696204Y-73599111D01*
X103559201Y-73548011D01*
X103559200Y-73548010D01*
X103518327Y-73543616D01*
X103498638Y-73541500D01*
X101701362Y-73541500D01*
X101685288Y-73543228D01*
X101640800Y-73548010D01*
X101603966Y-73561749D01*
X101503796Y-73599111D01*
X101503794Y-73599112D01*
X101503792Y-73599113D01*
X101386743Y-73686735D01*
X101386735Y-73686743D01*
X101299113Y-73803792D01*
X101299112Y-73803794D01*
X101299111Y-73803796D01*
X101277865Y-73860757D01*
X101248010Y-73940800D01*
X101243259Y-73985000D01*
X101241647Y-74000000D01*
X101241500Y-74001365D01*
X101241500Y-75798634D01*
X100075500Y-75798634D01*
X100075500Y-72448638D01*
X106816500Y-72448638D01*
X106818804Y-72470069D01*
X106823010Y-72509199D01*
X106823011Y-72509201D01*
X106874111Y-72646204D01*
X106874112Y-72646206D01*
X106874113Y-72646207D01*
X106901797Y-72683189D01*
X106961739Y-72763261D01*
X107078796Y-72850889D01*
X107215799Y-72901989D01*
X107276362Y-72908500D01*
X107276365Y-72908500D01*
X109173635Y-72908500D01*
X109173638Y-72908500D01*
X109234201Y-72901989D01*
X109371204Y-72850889D01*
X109488261Y-72763261D01*
X109575889Y-72646204D01*
X109614630Y-72542335D01*
X109652680Y-72494423D01*
X109711627Y-72478025D01*
X109768955Y-72499407D01*
X109780215Y-72509874D01*
X109807780Y-72539818D01*
X109991983Y-72683190D01*
X110197273Y-72794287D01*
X110418049Y-72870080D01*
X110648288Y-72908500D01*
X110881712Y-72908500D01*
X111111951Y-72870080D01*
X111332727Y-72794287D01*
X111538017Y-72683190D01*
X111722220Y-72539818D01*
X111880314Y-72368083D01*
X112007984Y-72172669D01*
X112101749Y-71958907D01*
X112159051Y-71732626D01*
X112178327Y-71500000D01*
X112159051Y-71267374D01*
X112101749Y-71041093D01*
X112007984Y-70827331D01*
X111880314Y-70631917D01*
X111722220Y-70460182D01*
X111599926Y-70364996D01*
X111538020Y-70316812D01*
X111538017Y-70316810D01*
X111332730Y-70205714D01*
X111111949Y-70129919D01*
X110881712Y-70091500D01*
X110648288Y-70091500D01*
X110418050Y-70129919D01*
X110197269Y-70205714D01*
X109991982Y-70316810D01*
X109991979Y-70316812D01*
X109807783Y-70460179D01*
X109807776Y-70460185D01*
X109780222Y-70490117D01*
X109726900Y-70520123D01*
X109666124Y-70513056D01*
X109621109Y-70471615D01*
X109614629Y-70457662D01*
X109575889Y-70353796D01*
X109568780Y-70344300D01*
X109488264Y-70236743D01*
X109488263Y-70236742D01*
X109488261Y-70236739D01*
X109453351Y-70210606D01*
X109371207Y-70149113D01*
X109371206Y-70149112D01*
X109371204Y-70149111D01*
X109234201Y-70098011D01*
X109234200Y-70098010D01*
X109193327Y-70093616D01*
X109173638Y-70091500D01*
X107276362Y-70091500D01*
X107260288Y-70093228D01*
X107215800Y-70098010D01*
X107140116Y-70126239D01*
X107078796Y-70149111D01*
X107078794Y-70149112D01*
X107078792Y-70149113D01*
X106961743Y-70236735D01*
X106961735Y-70236743D01*
X106874113Y-70353792D01*
X106874113Y-70353793D01*
X106874111Y-70353796D01*
X106869934Y-70364996D01*
X106823010Y-70490800D01*
X106819858Y-70520123D01*
X106816500Y-70551362D01*
X106816500Y-72448638D01*
X100075500Y-72448638D01*
X100075500Y-69500003D01*
X120186502Y-69500003D01*
X120206455Y-69728079D01*
X120206456Y-69728086D01*
X120206457Y-69728087D01*
X120256743Y-69915757D01*
X120265716Y-69949242D01*
X120362476Y-70156747D01*
X120474554Y-70316812D01*
X120493802Y-70344300D01*
X120655700Y-70506198D01*
X120843251Y-70637523D01*
X121050757Y-70734284D01*
X121271913Y-70793543D01*
X121271917Y-70793543D01*
X121271920Y-70793544D01*
X121499997Y-70813498D01*
X121500000Y-70813498D01*
X121500003Y-70813498D01*
X121728079Y-70793544D01*
X121728080Y-70793543D01*
X121728087Y-70793543D01*
X121949243Y-70734284D01*
X122156749Y-70637523D01*
X122344300Y-70506198D01*
X122506198Y-70344300D01*
X122637523Y-70156749D01*
X122734284Y-69949243D01*
X122793543Y-69728087D01*
X122795279Y-69708252D01*
X122813498Y-69500003D01*
X125186502Y-69500003D01*
X125206455Y-69728079D01*
X125206456Y-69728086D01*
X125206457Y-69728087D01*
X125256743Y-69915757D01*
X125265716Y-69949242D01*
X125362476Y-70156747D01*
X125474554Y-70316812D01*
X125493802Y-70344300D01*
X125655700Y-70506198D01*
X125843251Y-70637523D01*
X126050757Y-70734284D01*
X126271913Y-70793543D01*
X126271917Y-70793543D01*
X126271920Y-70793544D01*
X126499997Y-70813498D01*
X126500000Y-70813498D01*
X126500003Y-70813498D01*
X126728079Y-70793544D01*
X126728080Y-70793543D01*
X126728087Y-70793543D01*
X126949243Y-70734284D01*
X127156749Y-70637523D01*
X127344300Y-70506198D01*
X127506198Y-70344300D01*
X127637523Y-70156749D01*
X127734284Y-69949243D01*
X127793543Y-69728087D01*
X127795279Y-69708252D01*
X127813498Y-69500003D01*
X127813498Y-69499996D01*
X127793544Y-69271920D01*
X127793543Y-69271917D01*
X127793543Y-69271913D01*
X127734284Y-69050757D01*
X127637523Y-68843251D01*
X127506198Y-68655700D01*
X127344300Y-68493802D01*
X127344296Y-68493799D01*
X127344295Y-68493798D01*
X127240247Y-68420943D01*
X127156749Y-68362477D01*
X126949243Y-68265716D01*
X126728087Y-68206457D01*
X126728086Y-68206456D01*
X126728079Y-68206455D01*
X126500003Y-68186502D01*
X126499997Y-68186502D01*
X126271920Y-68206455D01*
X126050757Y-68265716D01*
X125843252Y-68362476D01*
X125655704Y-68493798D01*
X125493798Y-68655704D01*
X125362476Y-68843252D01*
X125265716Y-69050757D01*
X125206455Y-69271920D01*
X125186502Y-69499996D01*
X125186502Y-69500003D01*
X122813498Y-69500003D01*
X122813498Y-69499996D01*
X122793544Y-69271920D01*
X122793543Y-69271917D01*
X122793543Y-69271913D01*
X122734284Y-69050757D01*
X122637523Y-68843251D01*
X122506198Y-68655700D01*
X122344300Y-68493802D01*
X122344296Y-68493799D01*
X122344295Y-68493798D01*
X122240247Y-68420943D01*
X122156749Y-68362477D01*
X121949243Y-68265716D01*
X121728087Y-68206457D01*
X121728086Y-68206456D01*
X121728079Y-68206455D01*
X121500003Y-68186502D01*
X121499997Y-68186502D01*
X121271920Y-68206455D01*
X121050757Y-68265716D01*
X120843252Y-68362476D01*
X120655704Y-68493798D01*
X120493798Y-68655704D01*
X120362476Y-68843252D01*
X120265716Y-69050757D01*
X120206455Y-69271920D01*
X120186502Y-69499996D01*
X120186502Y-69500003D01*
X100075500Y-69500003D01*
X100075500Y-66523638D01*
X101441500Y-66523638D01*
X101442341Y-66531457D01*
X101448010Y-66584199D01*
X101448011Y-66584201D01*
X101499111Y-66721204D01*
X101586739Y-66838261D01*
X101703796Y-66925889D01*
X101840799Y-66976989D01*
X101901362Y-66983500D01*
X101901365Y-66983500D01*
X103698635Y-66983500D01*
X103698638Y-66983500D01*
X103759201Y-66976989D01*
X103896204Y-66925889D01*
X104013261Y-66838261D01*
X104100889Y-66721204D01*
X104112526Y-66690003D01*
X115186502Y-66690003D01*
X115206455Y-66918079D01*
X115206456Y-66918086D01*
X115206457Y-66918087D01*
X115265716Y-67139243D01*
X115362477Y-67346749D01*
X115493802Y-67534300D01*
X115655700Y-67696198D01*
X115843251Y-67827523D01*
X116050757Y-67924284D01*
X116271913Y-67983543D01*
X116271917Y-67983543D01*
X116271920Y-67983544D01*
X116499997Y-68003498D01*
X116500000Y-68003498D01*
X116500003Y-68003498D01*
X116728079Y-67983544D01*
X116728080Y-67983543D01*
X116728087Y-67983543D01*
X116949243Y-67924284D01*
X117156749Y-67827523D01*
X117344300Y-67696198D01*
X117360495Y-67680003D01*
X131866502Y-67680003D01*
X131886455Y-67908079D01*
X131886456Y-67908086D01*
X131886457Y-67908087D01*
X131945716Y-68129243D01*
X132042477Y-68336749D01*
X132173802Y-68524300D01*
X132335700Y-68686198D01*
X132523251Y-68817523D01*
X132730757Y-68914284D01*
X132951913Y-68973543D01*
X132951917Y-68973543D01*
X132951920Y-68973544D01*
X133179997Y-68993498D01*
X133180000Y-68993498D01*
X133180003Y-68993498D01*
X133408079Y-68973544D01*
X133408080Y-68973543D01*
X133408087Y-68973543D01*
X133629243Y-68914284D01*
X133836749Y-68817523D01*
X134024300Y-68686198D01*
X134186198Y-68524300D01*
X134317523Y-68336749D01*
X134414284Y-68129243D01*
X134473543Y-67908087D01*
X134476875Y-67870003D01*
X136866502Y-67870003D01*
X136886455Y-68098079D01*
X136886456Y-68098086D01*
X136886457Y-68098087D01*
X136945716Y-68319243D01*
X137042477Y-68526749D01*
X137100943Y-68610247D01*
X137154126Y-68686201D01*
X137173802Y-68714300D01*
X137335700Y-68876198D01*
X137523251Y-69007523D01*
X137730757Y-69104284D01*
X137951913Y-69163543D01*
X137951917Y-69163543D01*
X137951920Y-69163544D01*
X138179997Y-69183498D01*
X138180000Y-69183498D01*
X138180003Y-69183498D01*
X138408079Y-69163544D01*
X138408080Y-69163543D01*
X138408087Y-69163543D01*
X138629243Y-69104284D01*
X138836749Y-69007523D01*
X139024300Y-68876198D01*
X139186198Y-68714300D01*
X139317523Y-68526749D01*
X139414284Y-68319243D01*
X139473543Y-68098087D01*
X139474973Y-68081749D01*
X139493498Y-67870003D01*
X139493498Y-67869996D01*
X139473544Y-67641920D01*
X139473543Y-67641917D01*
X139473543Y-67641913D01*
X139414284Y-67420757D01*
X139317523Y-67213251D01*
X139186198Y-67025700D01*
X139024300Y-66863802D01*
X139024296Y-66863799D01*
X139024295Y-66863798D01*
X138887839Y-66768251D01*
X138836749Y-66732477D01*
X138629243Y-66635716D01*
X138408087Y-66576457D01*
X138408086Y-66576456D01*
X138408079Y-66576455D01*
X138180003Y-66556502D01*
X138179997Y-66556502D01*
X137951920Y-66576455D01*
X137730757Y-66635716D01*
X137523252Y-66732476D01*
X137335704Y-66863798D01*
X137173798Y-67025704D01*
X137042476Y-67213252D01*
X136945716Y-67420757D01*
X136886455Y-67641920D01*
X136866502Y-67869996D01*
X136866502Y-67870003D01*
X134476875Y-67870003D01*
X134480592Y-67827523D01*
X134493498Y-67680003D01*
X134493498Y-67679996D01*
X134473544Y-67451920D01*
X134473543Y-67451917D01*
X134473543Y-67451913D01*
X134414284Y-67230757D01*
X134317523Y-67023251D01*
X134205875Y-66863802D01*
X134186201Y-66835704D01*
X134186200Y-66835703D01*
X134186198Y-66835700D01*
X134024300Y-66673802D01*
X134024296Y-66673799D01*
X134024295Y-66673798D01*
X133896334Y-66584199D01*
X133836749Y-66542477D01*
X133629243Y-66445716D01*
X133408087Y-66386457D01*
X133408086Y-66386456D01*
X133408079Y-66386455D01*
X133180003Y-66366502D01*
X133179997Y-66366502D01*
X132951920Y-66386455D01*
X132730757Y-66445716D01*
X132523252Y-66542476D01*
X132335704Y-66673798D01*
X132173798Y-66835704D01*
X132042476Y-67023252D01*
X131945716Y-67230757D01*
X131886455Y-67451920D01*
X131866502Y-67679996D01*
X131866502Y-67680003D01*
X117360495Y-67680003D01*
X117506198Y-67534300D01*
X117637523Y-67346749D01*
X117734284Y-67139243D01*
X117793543Y-66918087D01*
X117798293Y-66863802D01*
X117813498Y-66690003D01*
X117813498Y-66689996D01*
X117793544Y-66461920D01*
X117793543Y-66461917D01*
X117793543Y-66461913D01*
X117734284Y-66240757D01*
X117637523Y-66033251D01*
X117506198Y-65845700D01*
X117344300Y-65683802D01*
X117344296Y-65683799D01*
X117344295Y-65683798D01*
X117240247Y-65610943D01*
X117156749Y-65552477D01*
X116949243Y-65455716D01*
X116728087Y-65396457D01*
X116728086Y-65396456D01*
X116728079Y-65396455D01*
X116500003Y-65376502D01*
X116499997Y-65376502D01*
X116271920Y-65396455D01*
X116050757Y-65455716D01*
X115843252Y-65552476D01*
X115655704Y-65683798D01*
X115493798Y-65845704D01*
X115362476Y-66033252D01*
X115265716Y-66240757D01*
X115206455Y-66461920D01*
X115186502Y-66689996D01*
X115186502Y-66690003D01*
X104112526Y-66690003D01*
X104151989Y-66584201D01*
X104158500Y-66523638D01*
X104158500Y-64726362D01*
X104151989Y-64665799D01*
X104100889Y-64528796D01*
X104013261Y-64411739D01*
X104008934Y-64408500D01*
X103896207Y-64324113D01*
X103896206Y-64324112D01*
X103896204Y-64324111D01*
X103759201Y-64273011D01*
X103759200Y-64273010D01*
X103718327Y-64268616D01*
X103698638Y-64266500D01*
X101901362Y-64266500D01*
X101885288Y-64268228D01*
X101840800Y-64273010D01*
X101783756Y-64294287D01*
X101703796Y-64324111D01*
X101703794Y-64324112D01*
X101703792Y-64324113D01*
X101586743Y-64411735D01*
X101586735Y-64411743D01*
X101499113Y-64528792D01*
X101499112Y-64528794D01*
X101499111Y-64528796D01*
X101476239Y-64590116D01*
X101448010Y-64665800D01*
X101443228Y-64710288D01*
X101441500Y-64726362D01*
X101441500Y-66523638D01*
X100075500Y-66523638D01*
X100075500Y-63948634D01*
X106551500Y-63948634D01*
X106558010Y-64009199D01*
X106558011Y-64009201D01*
X106609111Y-64146204D01*
X106609112Y-64146206D01*
X106609113Y-64146207D01*
X106636797Y-64183189D01*
X106696739Y-64263261D01*
X106813796Y-64350889D01*
X106950799Y-64401989D01*
X107011362Y-64408500D01*
X107011365Y-64408500D01*
X108908635Y-64408500D01*
X108908638Y-64408500D01*
X108969201Y-64401989D01*
X109106204Y-64350889D01*
X109223261Y-64263261D01*
X109310889Y-64146204D01*
X109349630Y-64042335D01*
X109387680Y-63994423D01*
X109446627Y-63978025D01*
X109503955Y-63999407D01*
X109515215Y-64009874D01*
X109542780Y-64039818D01*
X109726983Y-64183190D01*
X109932273Y-64294287D01*
X110153049Y-64370080D01*
X110383288Y-64408500D01*
X110616712Y-64408500D01*
X110846951Y-64370080D01*
X111067727Y-64294287D01*
X111273017Y-64183190D01*
X111457220Y-64039818D01*
X111615314Y-63868083D01*
X111742984Y-63672669D01*
X111836749Y-63458907D01*
X111894051Y-63232626D01*
X111913327Y-63000000D01*
X111894051Y-62767374D01*
X111836749Y-62541093D01*
X111742984Y-62327331D01*
X111615314Y-62131917D01*
X111604346Y-62120003D01*
X115186502Y-62120003D01*
X115206455Y-62348079D01*
X115206456Y-62348086D01*
X115206457Y-62348087D01*
X115265716Y-62569243D01*
X115362477Y-62776749D01*
X115385757Y-62809996D01*
X115454729Y-62908499D01*
X115493802Y-62964300D01*
X115655700Y-63126198D01*
X115843251Y-63257523D01*
X116050757Y-63354284D01*
X116271913Y-63413543D01*
X116271917Y-63413543D01*
X116271920Y-63413544D01*
X116499997Y-63433498D01*
X116500000Y-63433498D01*
X116500003Y-63433498D01*
X116728079Y-63413544D01*
X116728080Y-63413543D01*
X116728087Y-63413543D01*
X116949243Y-63354284D01*
X117156749Y-63257523D01*
X117344300Y-63126198D01*
X117506198Y-62964300D01*
X117614238Y-62810003D01*
X131695034Y-62810003D01*
X131714857Y-63036597D01*
X131773733Y-63256323D01*
X131869866Y-63462483D01*
X131869866Y-63462484D01*
X131920973Y-63535471D01*
X132600000Y-62856444D01*
X132600000Y-62862661D01*
X132627259Y-62964394D01*
X132679920Y-63055606D01*
X132754394Y-63130080D01*
X132845606Y-63182741D01*
X132947339Y-63210000D01*
X132953552Y-63210000D01*
X132274526Y-63889024D01*
X132347518Y-63940134D01*
X132553676Y-64036266D01*
X132773402Y-64095142D01*
X132999997Y-64114966D01*
X133000003Y-64114966D01*
X133226597Y-64095142D01*
X133446323Y-64036266D01*
X133652483Y-63940133D01*
X133652486Y-63940132D01*
X133725471Y-63889025D01*
X133046446Y-63210000D01*
X133052661Y-63210000D01*
X133154394Y-63182741D01*
X133245606Y-63130080D01*
X133320080Y-63055606D01*
X133372741Y-62964394D01*
X133400000Y-62862661D01*
X133400000Y-62856446D01*
X134079025Y-63535471D01*
X134130132Y-63462486D01*
X134130133Y-63462483D01*
X134226266Y-63256323D01*
X134285142Y-63036597D01*
X134304966Y-62810003D01*
X136686502Y-62810003D01*
X136706455Y-63038079D01*
X136706456Y-63038086D01*
X136706457Y-63038087D01*
X136765716Y-63259243D01*
X136862477Y-63466749D01*
X136993802Y-63654300D01*
X137155700Y-63816198D01*
X137343251Y-63947523D01*
X137550757Y-64044284D01*
X137771913Y-64103543D01*
X137771917Y-64103543D01*
X137771920Y-64103544D01*
X137999997Y-64123498D01*
X138000000Y-64123498D01*
X138000003Y-64123498D01*
X138228079Y-64103544D01*
X138228080Y-64103543D01*
X138228087Y-64103543D01*
X138449243Y-64044284D01*
X138656749Y-63947523D01*
X138844300Y-63816198D01*
X139006198Y-63654300D01*
X139137523Y-63466749D01*
X139234284Y-63259243D01*
X139293543Y-63038087D01*
X139293674Y-63036597D01*
X139313498Y-62810003D01*
X139313498Y-62809996D01*
X139293544Y-62581920D01*
X139293543Y-62581917D01*
X139293543Y-62581913D01*
X139257832Y-62448638D01*
X156316500Y-62448638D01*
X156318804Y-62470069D01*
X156323010Y-62509199D01*
X156323011Y-62509201D01*
X156374111Y-62646204D01*
X156374112Y-62646206D01*
X156374113Y-62646207D01*
X156396452Y-62676049D01*
X156461739Y-62763261D01*
X156578796Y-62850889D01*
X156715799Y-62901989D01*
X156776362Y-62908500D01*
X156776365Y-62908500D01*
X158673635Y-62908500D01*
X158673638Y-62908500D01*
X158734201Y-62901989D01*
X158871204Y-62850889D01*
X158988261Y-62763261D01*
X159075889Y-62646204D01*
X159126989Y-62509201D01*
X159133500Y-62448638D01*
X159133500Y-62318953D01*
X159152407Y-62260762D01*
X159162496Y-62248949D01*
X159822861Y-61588583D01*
X159845667Y-61673694D01*
X159904910Y-61776306D01*
X159988694Y-61860090D01*
X160091306Y-61919333D01*
X160176414Y-61942138D01*
X159466201Y-62652351D01*
X159466201Y-62652352D01*
X159496643Y-62676046D01*
X159496647Y-62676049D01*
X159700695Y-62786475D01*
X159920145Y-62861812D01*
X160148993Y-62900000D01*
X160381007Y-62900000D01*
X160609854Y-62861812D01*
X160829304Y-62786475D01*
X161033351Y-62676050D01*
X161033357Y-62676046D01*
X161063797Y-62652352D01*
X160353583Y-61942138D01*
X160438694Y-61919333D01*
X160541306Y-61860090D01*
X160625090Y-61776306D01*
X160684333Y-61673694D01*
X160707138Y-61588583D01*
X161416187Y-62297632D01*
X161500480Y-62168614D01*
X161500485Y-62168605D01*
X161593679Y-61956140D01*
X161593680Y-61956137D01*
X161650638Y-61731220D01*
X161669797Y-61500000D01*
X161650638Y-61268779D01*
X161593680Y-61043862D01*
X161593679Y-61043859D01*
X161500485Y-60831394D01*
X161500480Y-60831385D01*
X161416187Y-60702366D01*
X160707138Y-61411414D01*
X160684333Y-61326306D01*
X160625090Y-61223694D01*
X160541306Y-61139910D01*
X160438694Y-61080667D01*
X160353581Y-61057861D01*
X161063797Y-60347646D01*
X161033355Y-60323952D01*
X161033352Y-60323950D01*
X160829304Y-60213524D01*
X160609854Y-60138187D01*
X160381007Y-60100000D01*
X160148993Y-60100000D01*
X159920145Y-60138187D01*
X159700695Y-60213524D01*
X159496646Y-60323951D01*
X159496637Y-60323956D01*
X159466201Y-60347645D01*
X159466201Y-60347646D01*
X160176416Y-61057861D01*
X160091306Y-61080667D01*
X159988694Y-61139910D01*
X159904910Y-61223694D01*
X159845667Y-61326306D01*
X159822861Y-61411414D01*
X159162496Y-60751048D01*
X159134719Y-60696532D01*
X159133500Y-60681045D01*
X159133500Y-60551365D01*
X159126989Y-60490800D01*
X159126989Y-60490799D01*
X159075889Y-60353796D01*
X158988261Y-60236739D01*
X158957249Y-60213524D01*
X158871207Y-60149113D01*
X158871206Y-60149112D01*
X158871204Y-60149111D01*
X158734201Y-60098011D01*
X158734200Y-60098010D01*
X158693327Y-60093616D01*
X158673638Y-60091500D01*
X156776362Y-60091500D01*
X156760288Y-60093228D01*
X156715800Y-60098010D01*
X156640116Y-60126239D01*
X156578796Y-60149111D01*
X156578794Y-60149112D01*
X156578792Y-60149113D01*
X156461743Y-60236735D01*
X156461735Y-60236743D01*
X156374113Y-60353792D01*
X156374112Y-60353794D01*
X156374111Y-60353796D01*
X156356547Y-60400886D01*
X156323010Y-60490800D01*
X156318228Y-60535288D01*
X156316500Y-60551362D01*
X156316500Y-62448638D01*
X139257832Y-62448638D01*
X139234284Y-62360757D01*
X139137523Y-62153251D01*
X139023295Y-61990117D01*
X139006201Y-61965704D01*
X139006200Y-61965703D01*
X139006198Y-61965700D01*
X138844300Y-61803802D01*
X138844296Y-61803799D01*
X138844295Y-61803798D01*
X138704215Y-61705713D01*
X138656749Y-61672477D01*
X138653060Y-61670757D01*
X138606640Y-61649111D01*
X138449243Y-61575716D01*
X138228087Y-61516457D01*
X138228086Y-61516456D01*
X138228079Y-61516455D01*
X138000003Y-61496502D01*
X137999997Y-61496502D01*
X137771920Y-61516455D01*
X137550757Y-61575716D01*
X137343252Y-61672476D01*
X137155704Y-61803798D01*
X136993798Y-61965704D01*
X136862476Y-62153252D01*
X136765716Y-62360757D01*
X136706455Y-62581920D01*
X136686502Y-62809996D01*
X136686502Y-62810003D01*
X134304966Y-62810003D01*
X134304966Y-62809996D01*
X134285142Y-62583402D01*
X134226266Y-62363676D01*
X134130134Y-62157518D01*
X134079024Y-62084526D01*
X133400000Y-62763551D01*
X133400000Y-62757339D01*
X133372741Y-62655606D01*
X133320080Y-62564394D01*
X133245606Y-62489920D01*
X133154394Y-62437259D01*
X133052661Y-62410000D01*
X133046444Y-62410000D01*
X133725471Y-61730973D01*
X133652484Y-61679866D01*
X133446323Y-61583733D01*
X133226597Y-61524857D01*
X133000003Y-61505034D01*
X132999997Y-61505034D01*
X132773402Y-61524857D01*
X132553676Y-61583733D01*
X132347518Y-61679865D01*
X132274527Y-61730973D01*
X132953554Y-62410000D01*
X132947339Y-62410000D01*
X132845606Y-62437259D01*
X132754394Y-62489920D01*
X132679920Y-62564394D01*
X132627259Y-62655606D01*
X132600000Y-62757339D01*
X132600000Y-62763554D01*
X131920973Y-62084527D01*
X131869865Y-62157518D01*
X131773733Y-62363676D01*
X131714857Y-62583402D01*
X131695034Y-62809996D01*
X131695034Y-62810003D01*
X117614238Y-62810003D01*
X117637523Y-62776749D01*
X117734284Y-62569243D01*
X117793543Y-62348087D01*
X117797958Y-62297632D01*
X117813498Y-62120003D01*
X117813498Y-62119996D01*
X117793544Y-61891920D01*
X117793543Y-61891917D01*
X117793543Y-61891913D01*
X117734284Y-61670757D01*
X117637523Y-61463251D01*
X117506198Y-61275700D01*
X117344300Y-61113802D01*
X117344296Y-61113799D01*
X117344295Y-61113798D01*
X117240247Y-61040943D01*
X117156749Y-60982477D01*
X116949243Y-60885716D01*
X116728087Y-60826457D01*
X116728086Y-60826456D01*
X116728079Y-60826455D01*
X116500003Y-60806502D01*
X116499997Y-60806502D01*
X116271920Y-60826455D01*
X116050757Y-60885716D01*
X115843252Y-60982476D01*
X115655704Y-61113798D01*
X115493798Y-61275704D01*
X115362476Y-61463252D01*
X115265716Y-61670757D01*
X115206455Y-61891920D01*
X115186502Y-62119996D01*
X115186502Y-62120003D01*
X111604346Y-62120003D01*
X111467745Y-61971615D01*
X111457222Y-61960184D01*
X111457216Y-61960179D01*
X111273020Y-61816812D01*
X111273017Y-61816810D01*
X111067730Y-61705714D01*
X110846949Y-61629919D01*
X110616712Y-61591500D01*
X110383288Y-61591500D01*
X110153050Y-61629919D01*
X109932269Y-61705714D01*
X109726982Y-61816810D01*
X109726979Y-61816812D01*
X109542783Y-61960179D01*
X109542776Y-61960185D01*
X109515222Y-61990117D01*
X109461900Y-62020123D01*
X109401124Y-62013056D01*
X109356109Y-61971615D01*
X109349629Y-61957662D01*
X109349305Y-61956793D01*
X109310889Y-61853796D01*
X109223261Y-61736739D01*
X109215888Y-61731220D01*
X109106207Y-61649113D01*
X109106206Y-61649112D01*
X109106204Y-61649111D01*
X108969201Y-61598011D01*
X108969200Y-61598010D01*
X108928327Y-61593616D01*
X108908638Y-61591500D01*
X107011362Y-61591500D01*
X106995288Y-61593228D01*
X106950800Y-61598010D01*
X106875116Y-61626239D01*
X106813796Y-61649111D01*
X106813794Y-61649112D01*
X106813792Y-61649113D01*
X106696743Y-61736735D01*
X106696735Y-61736743D01*
X106609113Y-61853792D01*
X106609113Y-61853793D01*
X106609111Y-61853796D01*
X106591029Y-61902276D01*
X106558010Y-61990800D01*
X106551500Y-62051365D01*
X106551500Y-63948634D01*
X100075500Y-63948634D01*
X100075500Y-59998634D01*
X101541500Y-59998634D01*
X101548010Y-60059199D01*
X101548011Y-60059201D01*
X101599111Y-60196204D01*
X101599112Y-60196206D01*
X101599113Y-60196207D01*
X101612076Y-60213524D01*
X101686739Y-60313261D01*
X101803796Y-60400889D01*
X101940799Y-60451989D01*
X102001362Y-60458500D01*
X102001365Y-60458500D01*
X103798635Y-60458500D01*
X103798638Y-60458500D01*
X103859201Y-60451989D01*
X103996204Y-60400889D01*
X104113261Y-60313261D01*
X104200889Y-60196204D01*
X104251989Y-60059201D01*
X104258500Y-59998638D01*
X104258500Y-59348634D01*
X122191500Y-59348634D01*
X122198010Y-59409199D01*
X122198011Y-59409201D01*
X122249111Y-59546204D01*
X122249112Y-59546206D01*
X122249113Y-59546207D01*
X122317471Y-59637523D01*
X122336739Y-59663261D01*
X122453796Y-59750889D01*
X122590799Y-59801989D01*
X122651362Y-59808500D01*
X122651365Y-59808500D01*
X124348635Y-59808500D01*
X124348638Y-59808500D01*
X124409201Y-59801989D01*
X124546204Y-59750889D01*
X124663261Y-59663261D01*
X124750889Y-59546204D01*
X124801989Y-59409201D01*
X124805366Y-59377782D01*
X124830384Y-59321947D01*
X124883444Y-59291479D01*
X124944279Y-59298018D01*
X124984895Y-59331580D01*
X124993802Y-59344300D01*
X125155700Y-59506198D01*
X125343251Y-59637523D01*
X125550757Y-59734284D01*
X125771913Y-59793543D01*
X125771917Y-59793543D01*
X125771920Y-59793544D01*
X125999997Y-59813498D01*
X126000000Y-59813498D01*
X126000003Y-59813498D01*
X126228079Y-59793544D01*
X126228080Y-59793543D01*
X126228087Y-59793543D01*
X126449243Y-59734284D01*
X126656749Y-59637523D01*
X126844300Y-59506198D01*
X127006198Y-59344300D01*
X127137523Y-59156749D01*
X127234284Y-58949243D01*
X127261242Y-58848634D01*
X145191500Y-58848634D01*
X145198010Y-58909199D01*
X145198011Y-58909201D01*
X145249111Y-59046204D01*
X145249112Y-59046206D01*
X145249113Y-59046207D01*
X145331862Y-59156747D01*
X145336739Y-59163261D01*
X145453796Y-59250889D01*
X145590799Y-59301989D01*
X145651362Y-59308500D01*
X145651365Y-59308500D01*
X147348635Y-59308500D01*
X147348638Y-59308500D01*
X147409201Y-59301989D01*
X147546204Y-59250889D01*
X147663261Y-59163261D01*
X147750889Y-59046204D01*
X147801989Y-58909201D01*
X147805366Y-58877782D01*
X147830384Y-58821947D01*
X147883444Y-58791479D01*
X147944279Y-58798018D01*
X147984895Y-58831580D01*
X147993802Y-58844300D01*
X148155700Y-59006198D01*
X148343251Y-59137523D01*
X148550757Y-59234284D01*
X148771913Y-59293543D01*
X148771917Y-59293543D01*
X148771920Y-59293544D01*
X148999997Y-59313498D01*
X149000000Y-59313498D01*
X149000003Y-59313498D01*
X149228079Y-59293544D01*
X149228080Y-59293543D01*
X149228087Y-59293543D01*
X149449243Y-59234284D01*
X149656749Y-59137523D01*
X149844300Y-59006198D01*
X150006198Y-58844300D01*
X150137523Y-58656749D01*
X150234284Y-58449243D01*
X150293543Y-58228087D01*
X150309058Y-58050757D01*
X150313498Y-58000003D01*
X150313498Y-57999996D01*
X150293544Y-57771920D01*
X150293543Y-57771917D01*
X150293543Y-57771913D01*
X150234284Y-57550757D01*
X150137523Y-57343251D01*
X150017060Y-57171213D01*
X150006201Y-57155704D01*
X150006200Y-57155703D01*
X150006198Y-57155700D01*
X149844300Y-56993802D01*
X149844296Y-56993799D01*
X149844295Y-56993798D01*
X149740247Y-56920943D01*
X149656749Y-56862477D01*
X149449243Y-56765716D01*
X149228087Y-56706457D01*
X149228086Y-56706456D01*
X149228079Y-56706455D01*
X149000003Y-56686502D01*
X148999997Y-56686502D01*
X148771920Y-56706455D01*
X148550757Y-56765716D01*
X148343252Y-56862476D01*
X148155704Y-56993798D01*
X147993799Y-57155703D01*
X147984894Y-57168421D01*
X147936028Y-57205242D01*
X147874852Y-57206308D01*
X147824733Y-57171213D01*
X147805366Y-57122215D01*
X147801989Y-57090801D01*
X147801989Y-57090800D01*
X147801989Y-57090799D01*
X147750889Y-56953796D01*
X147663261Y-56836739D01*
X147546204Y-56749111D01*
X147409201Y-56698011D01*
X147409200Y-56698010D01*
X147368327Y-56693616D01*
X147348638Y-56691500D01*
X145651362Y-56691500D01*
X145635288Y-56693228D01*
X145590800Y-56698010D01*
X145515116Y-56726239D01*
X145453796Y-56749111D01*
X145453794Y-56749112D01*
X145453792Y-56749113D01*
X145336743Y-56836735D01*
X145336735Y-56836743D01*
X145249113Y-56953792D01*
X145249112Y-56953794D01*
X145249111Y-56953796D01*
X145226239Y-57015116D01*
X145198010Y-57090800D01*
X145191500Y-57151365D01*
X145191500Y-58848634D01*
X127261242Y-58848634D01*
X127293543Y-58728087D01*
X127299785Y-58656749D01*
X127313498Y-58500003D01*
X127313498Y-58499996D01*
X127293544Y-58271920D01*
X127293543Y-58271917D01*
X127293543Y-58271913D01*
X127234284Y-58050757D01*
X127137523Y-57843251D01*
X127017060Y-57671213D01*
X127006201Y-57655704D01*
X127006200Y-57655703D01*
X127006198Y-57655700D01*
X126844300Y-57493802D01*
X126844296Y-57493799D01*
X126844295Y-57493798D01*
X126740247Y-57420943D01*
X126656749Y-57362477D01*
X126449243Y-57265716D01*
X126228087Y-57206457D01*
X126228086Y-57206456D01*
X126228079Y-57206455D01*
X126000003Y-57186502D01*
X125999997Y-57186502D01*
X125771920Y-57206455D01*
X125550757Y-57265716D01*
X125343252Y-57362476D01*
X125155704Y-57493798D01*
X124993799Y-57655703D01*
X124984894Y-57668421D01*
X124936028Y-57705242D01*
X124874852Y-57706308D01*
X124824733Y-57671213D01*
X124805366Y-57622215D01*
X124801989Y-57590801D01*
X124801989Y-57590800D01*
X124801989Y-57590799D01*
X124750889Y-57453796D01*
X124663261Y-57336739D01*
X124546204Y-57249111D01*
X124409201Y-57198011D01*
X124409200Y-57198010D01*
X124368327Y-57193616D01*
X124348638Y-57191500D01*
X122651362Y-57191500D01*
X122635288Y-57193228D01*
X122590800Y-57198010D01*
X122515116Y-57226239D01*
X122453796Y-57249111D01*
X122453794Y-57249112D01*
X122453792Y-57249113D01*
X122336743Y-57336735D01*
X122336735Y-57336743D01*
X122249113Y-57453792D01*
X122249112Y-57453794D01*
X122249111Y-57453796D01*
X122226239Y-57515116D01*
X122198010Y-57590800D01*
X122191500Y-57651365D01*
X122191500Y-59348634D01*
X104258500Y-59348634D01*
X104258500Y-58201362D01*
X104251989Y-58140799D01*
X104200889Y-58003796D01*
X104113261Y-57886739D01*
X104055169Y-57843252D01*
X103996207Y-57799113D01*
X103996206Y-57799112D01*
X103996204Y-57799111D01*
X103859201Y-57748011D01*
X103859200Y-57748010D01*
X103818327Y-57743616D01*
X103798638Y-57741500D01*
X102001362Y-57741500D01*
X101985288Y-57743228D01*
X101940800Y-57748010D01*
X101876716Y-57771913D01*
X101803796Y-57799111D01*
X101803794Y-57799112D01*
X101803792Y-57799113D01*
X101686743Y-57886735D01*
X101686735Y-57886743D01*
X101599113Y-58003792D01*
X101599112Y-58003794D01*
X101599111Y-58003796D01*
X101581595Y-58050757D01*
X101548010Y-58140800D01*
X101541500Y-58201365D01*
X101541500Y-59998634D01*
X100075500Y-59998634D01*
X100075500Y-55373634D01*
X106616500Y-55373634D01*
X106623010Y-55434199D01*
X106623011Y-55434201D01*
X106674111Y-55571204D01*
X106674112Y-55571206D01*
X106674113Y-55571207D01*
X106725043Y-55639242D01*
X106761739Y-55688261D01*
X106878796Y-55775889D01*
X107015799Y-55826989D01*
X107076362Y-55833500D01*
X107076365Y-55833500D01*
X108973635Y-55833500D01*
X108973638Y-55833500D01*
X109034201Y-55826989D01*
X109171204Y-55775889D01*
X109288261Y-55688261D01*
X109375889Y-55571204D01*
X109414630Y-55467335D01*
X109452680Y-55419423D01*
X109511627Y-55403025D01*
X109568955Y-55424407D01*
X109580215Y-55434874D01*
X109607780Y-55464818D01*
X109791983Y-55608190D01*
X109939933Y-55688256D01*
X109986128Y-55713256D01*
X109997273Y-55719287D01*
X110218049Y-55795080D01*
X110448288Y-55833500D01*
X110681712Y-55833500D01*
X110911951Y-55795080D01*
X111132727Y-55719287D01*
X111338017Y-55608190D01*
X111522220Y-55464818D01*
X111680314Y-55293083D01*
X111807984Y-55097669D01*
X111901749Y-54883907D01*
X111959051Y-54657626D01*
X111972112Y-54500003D01*
X115186502Y-54500003D01*
X115206455Y-54728079D01*
X115206456Y-54728086D01*
X115206457Y-54728087D01*
X115265716Y-54949243D01*
X115362477Y-55156749D01*
X115493802Y-55344300D01*
X115655700Y-55506198D01*
X115843251Y-55637523D01*
X116050757Y-55734284D01*
X116271913Y-55793543D01*
X116271917Y-55793543D01*
X116271920Y-55793544D01*
X116499997Y-55813498D01*
X116500000Y-55813498D01*
X116500003Y-55813498D01*
X116728079Y-55793544D01*
X116728080Y-55793543D01*
X116728087Y-55793543D01*
X116949243Y-55734284D01*
X117156749Y-55637523D01*
X117344300Y-55506198D01*
X117506198Y-55344300D01*
X117614238Y-55190003D01*
X131686502Y-55190003D01*
X131706455Y-55418079D01*
X131706456Y-55418086D01*
X131706457Y-55418087D01*
X131765716Y-55639243D01*
X131862477Y-55846749D01*
X131993802Y-56034300D01*
X132155700Y-56196198D01*
X132343251Y-56327523D01*
X132550757Y-56424284D01*
X132771913Y-56483543D01*
X132771917Y-56483543D01*
X132771920Y-56483544D01*
X132999997Y-56503498D01*
X133000000Y-56503498D01*
X133000003Y-56503498D01*
X133228079Y-56483544D01*
X133228080Y-56483543D01*
X133228087Y-56483543D01*
X133449243Y-56424284D01*
X133656749Y-56327523D01*
X133844300Y-56196198D01*
X134006198Y-56034300D01*
X134137523Y-55846749D01*
X134234284Y-55639243D01*
X134293543Y-55418087D01*
X134304480Y-55293085D01*
X134313498Y-55190003D01*
X136686502Y-55190003D01*
X136706455Y-55418079D01*
X136706456Y-55418086D01*
X136706457Y-55418087D01*
X136765716Y-55639243D01*
X136862477Y-55846749D01*
X136993802Y-56034300D01*
X137155700Y-56196198D01*
X137343251Y-56327523D01*
X137550757Y-56424284D01*
X137771913Y-56483543D01*
X137771917Y-56483543D01*
X137771920Y-56483544D01*
X137999997Y-56503498D01*
X138000000Y-56503498D01*
X138000003Y-56503498D01*
X138228079Y-56483544D01*
X138228080Y-56483543D01*
X138228087Y-56483543D01*
X138449243Y-56424284D01*
X138656749Y-56327523D01*
X138844300Y-56196198D01*
X139006198Y-56034300D01*
X139137523Y-55846749D01*
X139234284Y-55639243D01*
X139293543Y-55418087D01*
X139295245Y-55398634D01*
X154641500Y-55398634D01*
X154648010Y-55459199D01*
X154659446Y-55489861D01*
X154699111Y-55596204D01*
X154699112Y-55596206D01*
X154699113Y-55596207D01*
X154731329Y-55639243D01*
X154786739Y-55713261D01*
X154903796Y-55800889D01*
X155040799Y-55851989D01*
X155101362Y-55858500D01*
X155101365Y-55858500D01*
X156898635Y-55858500D01*
X156898638Y-55858500D01*
X156959201Y-55851989D01*
X157096204Y-55800889D01*
X157213261Y-55713261D01*
X157300889Y-55596204D01*
X157351989Y-55459201D01*
X157358500Y-55398638D01*
X157358500Y-55398634D01*
X161141500Y-55398634D01*
X161148010Y-55459199D01*
X161159446Y-55489861D01*
X161199111Y-55596204D01*
X161199112Y-55596206D01*
X161199113Y-55596207D01*
X161231329Y-55639243D01*
X161286739Y-55713261D01*
X161403796Y-55800889D01*
X161540799Y-55851989D01*
X161601362Y-55858500D01*
X161601365Y-55858500D01*
X163398635Y-55858500D01*
X163398638Y-55858500D01*
X163459201Y-55851989D01*
X163596204Y-55800889D01*
X163713261Y-55713261D01*
X163800889Y-55596204D01*
X163851989Y-55459201D01*
X163858500Y-55398638D01*
X163858500Y-53601362D01*
X163851989Y-53540799D01*
X163800889Y-53403796D01*
X163713261Y-53286739D01*
X163702650Y-53278796D01*
X163596207Y-53199113D01*
X163596206Y-53199112D01*
X163596204Y-53199111D01*
X163459201Y-53148011D01*
X163459200Y-53148010D01*
X163418327Y-53143616D01*
X163398638Y-53141500D01*
X161601362Y-53141500D01*
X161585288Y-53143228D01*
X161540800Y-53148010D01*
X161503982Y-53161743D01*
X161403796Y-53199111D01*
X161403794Y-53199112D01*
X161403792Y-53199113D01*
X161286743Y-53286735D01*
X161286735Y-53286743D01*
X161199113Y-53403792D01*
X161199112Y-53403794D01*
X161199111Y-53403796D01*
X161194634Y-53415799D01*
X161148010Y-53540800D01*
X161141500Y-53601365D01*
X161141500Y-55398634D01*
X157358500Y-55398634D01*
X157358500Y-53601362D01*
X157351989Y-53540799D01*
X157300889Y-53403796D01*
X157213261Y-53286739D01*
X157202650Y-53278796D01*
X157096207Y-53199113D01*
X157096206Y-53199112D01*
X157096204Y-53199111D01*
X156959201Y-53148011D01*
X156959200Y-53148010D01*
X156918327Y-53143616D01*
X156898638Y-53141500D01*
X155101362Y-53141500D01*
X155085288Y-53143228D01*
X155040800Y-53148010D01*
X155003982Y-53161743D01*
X154903796Y-53199111D01*
X154903794Y-53199112D01*
X154903792Y-53199113D01*
X154786743Y-53286735D01*
X154786735Y-53286743D01*
X154699113Y-53403792D01*
X154699112Y-53403794D01*
X154699111Y-53403796D01*
X154694634Y-53415799D01*
X154648010Y-53540800D01*
X154641500Y-53601365D01*
X154641500Y-55398634D01*
X139295245Y-55398634D01*
X139304480Y-55293085D01*
X139313498Y-55190003D01*
X139313498Y-55189996D01*
X139293544Y-54961920D01*
X139293543Y-54961917D01*
X139293543Y-54961913D01*
X139234284Y-54740757D01*
X139137523Y-54533251D01*
X139006198Y-54345700D01*
X138844300Y-54183802D01*
X138844296Y-54183799D01*
X138844295Y-54183798D01*
X138740247Y-54110943D01*
X138656749Y-54052477D01*
X138653060Y-54050757D01*
X138630544Y-54040257D01*
X138449243Y-53955716D01*
X138228087Y-53896457D01*
X138228086Y-53896456D01*
X138228079Y-53896455D01*
X138000003Y-53876502D01*
X137999997Y-53876502D01*
X137771920Y-53896455D01*
X137550757Y-53955716D01*
X137343252Y-54052476D01*
X137155704Y-54183798D01*
X136993798Y-54345704D01*
X136862476Y-54533252D01*
X136765716Y-54740757D01*
X136706455Y-54961920D01*
X136686502Y-55189996D01*
X136686502Y-55190003D01*
X134313498Y-55190003D01*
X134313498Y-55189996D01*
X134293544Y-54961920D01*
X134293543Y-54961917D01*
X134293543Y-54961913D01*
X134234284Y-54740757D01*
X134137523Y-54533251D01*
X134006198Y-54345700D01*
X133844300Y-54183802D01*
X133844296Y-54183799D01*
X133844295Y-54183798D01*
X133740247Y-54110943D01*
X133656749Y-54052477D01*
X133653060Y-54050757D01*
X133630544Y-54040257D01*
X133449243Y-53955716D01*
X133228087Y-53896457D01*
X133228086Y-53896456D01*
X133228079Y-53896455D01*
X133000003Y-53876502D01*
X132999997Y-53876502D01*
X132771920Y-53896455D01*
X132550757Y-53955716D01*
X132343252Y-54052476D01*
X132155704Y-54183798D01*
X131993798Y-54345704D01*
X131862476Y-54533252D01*
X131765716Y-54740757D01*
X131706455Y-54961920D01*
X131686502Y-55189996D01*
X131686502Y-55190003D01*
X117614238Y-55190003D01*
X117637523Y-55156749D01*
X117734284Y-54949243D01*
X117793543Y-54728087D01*
X117813498Y-54500000D01*
X117813498Y-54499996D01*
X117793544Y-54271920D01*
X117793543Y-54271917D01*
X117793543Y-54271913D01*
X117734284Y-54050757D01*
X117637523Y-53843251D01*
X117506198Y-53655700D01*
X117344300Y-53493802D01*
X117344296Y-53493799D01*
X117344295Y-53493798D01*
X117189175Y-53385182D01*
X117156749Y-53362477D01*
X116949243Y-53265716D01*
X116728087Y-53206457D01*
X116728086Y-53206456D01*
X116728079Y-53206455D01*
X116500003Y-53186502D01*
X116499997Y-53186502D01*
X116271920Y-53206455D01*
X116050757Y-53265716D01*
X115843252Y-53362476D01*
X115655704Y-53493798D01*
X115493798Y-53655704D01*
X115362476Y-53843252D01*
X115265716Y-54050757D01*
X115206455Y-54271920D01*
X115186502Y-54499996D01*
X115186502Y-54500003D01*
X111972112Y-54500003D01*
X111978327Y-54425000D01*
X111959051Y-54192374D01*
X111901749Y-53966093D01*
X111807984Y-53752331D01*
X111680314Y-53556917D01*
X111549777Y-53415117D01*
X111522222Y-53385184D01*
X111522216Y-53385179D01*
X111493047Y-53362476D01*
X111409983Y-53297824D01*
X111338020Y-53241812D01*
X111338017Y-53241810D01*
X111132730Y-53130714D01*
X110911949Y-53054919D01*
X110681712Y-53016500D01*
X110448288Y-53016500D01*
X110218050Y-53054919D01*
X109997269Y-53130714D01*
X109791982Y-53241810D01*
X109791979Y-53241812D01*
X109607783Y-53385179D01*
X109607776Y-53385185D01*
X109580222Y-53415117D01*
X109526900Y-53445123D01*
X109466124Y-53438056D01*
X109421109Y-53396615D01*
X109414629Y-53382662D01*
X109375889Y-53278796D01*
X109366097Y-53265716D01*
X109288264Y-53161743D01*
X109288263Y-53161742D01*
X109288261Y-53161739D01*
X109269921Y-53148010D01*
X109171207Y-53074113D01*
X109171206Y-53074112D01*
X109171204Y-53074111D01*
X109034201Y-53023011D01*
X109034200Y-53023010D01*
X108993327Y-53018616D01*
X108973638Y-53016500D01*
X107076362Y-53016500D01*
X107060288Y-53018228D01*
X107015800Y-53023010D01*
X106940116Y-53051239D01*
X106878796Y-53074111D01*
X106878794Y-53074112D01*
X106878792Y-53074113D01*
X106761743Y-53161735D01*
X106761735Y-53161743D01*
X106674113Y-53278792D01*
X106674113Y-53278793D01*
X106674111Y-53278796D01*
X106671147Y-53286743D01*
X106623010Y-53415800D01*
X106616500Y-53476365D01*
X106616500Y-55373634D01*
X100075500Y-55373634D01*
X100075500Y-53297824D01*
X101474999Y-53297824D01*
X101481401Y-53357370D01*
X101481403Y-53357381D01*
X101531646Y-53492088D01*
X101531647Y-53492090D01*
X101617807Y-53607184D01*
X101617815Y-53607192D01*
X101732909Y-53693352D01*
X101732911Y-53693353D01*
X101867618Y-53743596D01*
X101867629Y-53743598D01*
X101927176Y-53750000D01*
X102574999Y-53750000D01*
X102575000Y-53749999D01*
X102575000Y-52833012D01*
X102632007Y-52865925D01*
X102759174Y-52900000D01*
X102890826Y-52900000D01*
X103017993Y-52865925D01*
X103075000Y-52833012D01*
X103075000Y-53749999D01*
X103075001Y-53750000D01*
X103722824Y-53750000D01*
X103782370Y-53743598D01*
X103782381Y-53743596D01*
X103917088Y-53693353D01*
X103917090Y-53693352D01*
X104032184Y-53607192D01*
X104032192Y-53607184D01*
X104118352Y-53492090D01*
X104118353Y-53492088D01*
X104168596Y-53357381D01*
X104168598Y-53357370D01*
X104175000Y-53297824D01*
X104175000Y-52650001D01*
X104174999Y-52650000D01*
X103258012Y-52650000D01*
X103290925Y-52592993D01*
X103325000Y-52465826D01*
X103325000Y-52334174D01*
X103290925Y-52207007D01*
X103258012Y-52150000D01*
X104174999Y-52150000D01*
X104175000Y-52149999D01*
X104175000Y-52025000D01*
X145961384Y-52025000D01*
X145981783Y-52206049D01*
X145981784Y-52206053D01*
X146041957Y-52378015D01*
X146041957Y-52378016D01*
X146097132Y-52465826D01*
X146138889Y-52532281D01*
X146267719Y-52661111D01*
X146421985Y-52758043D01*
X146490847Y-52782138D01*
X146593946Y-52818215D01*
X146593950Y-52818216D01*
X146593953Y-52818217D01*
X146775000Y-52838616D01*
X146956047Y-52818217D01*
X147128015Y-52758043D01*
X147282281Y-52661111D01*
X147411111Y-52532281D01*
X147508043Y-52378015D01*
X147568217Y-52206047D01*
X147588616Y-52025000D01*
X147568217Y-51843953D01*
X147508043Y-51671985D01*
X147411111Y-51517719D01*
X147282281Y-51388889D01*
X147282278Y-51388887D01*
X147282277Y-51388886D01*
X147128016Y-51291957D01*
X146956053Y-51231784D01*
X146956049Y-51231783D01*
X146775000Y-51211384D01*
X146593950Y-51231783D01*
X146593946Y-51231784D01*
X146421984Y-51291957D01*
X146421983Y-51291957D01*
X146267722Y-51388886D01*
X146138886Y-51517722D01*
X146041957Y-51671983D01*
X146041957Y-51671984D01*
X145981784Y-51843946D01*
X145981783Y-51843950D01*
X145961384Y-52025000D01*
X104175000Y-52025000D01*
X104175000Y-51502175D01*
X104168598Y-51442629D01*
X104168596Y-51442618D01*
X104118353Y-51307911D01*
X104118352Y-51307909D01*
X104032192Y-51192815D01*
X104032184Y-51192807D01*
X103917090Y-51106647D01*
X103917088Y-51106646D01*
X103782381Y-51056403D01*
X103782370Y-51056401D01*
X103722824Y-51050000D01*
X103075001Y-51050000D01*
X103075000Y-51050001D01*
X103075000Y-51966988D01*
X103017993Y-51934075D01*
X102890826Y-51900000D01*
X102759174Y-51900000D01*
X102632007Y-51934075D01*
X102575000Y-51966988D01*
X102575000Y-51050001D01*
X102574999Y-51050000D01*
X101927176Y-51050000D01*
X101867629Y-51056401D01*
X101867618Y-51056403D01*
X101732911Y-51106646D01*
X101732909Y-51106647D01*
X101617815Y-51192807D01*
X101617807Y-51192815D01*
X101531647Y-51307909D01*
X101531646Y-51307911D01*
X101481403Y-51442618D01*
X101481401Y-51442629D01*
X101475000Y-51502175D01*
X101475000Y-52149999D01*
X101475001Y-52150000D01*
X102391988Y-52150000D01*
X102359075Y-52207007D01*
X102325000Y-52334174D01*
X102325000Y-52465826D01*
X102359075Y-52592993D01*
X102391988Y-52650000D01*
X101475001Y-52650000D01*
X101475000Y-52650001D01*
X101475000Y-53297824D01*
X101474999Y-53297824D01*
X100075500Y-53297824D01*
X100075500Y-50098634D01*
X117437500Y-50098634D01*
X117444010Y-50159199D01*
X117444011Y-50159201D01*
X117495111Y-50296204D01*
X117495112Y-50296206D01*
X117495113Y-50296207D01*
X117528785Y-50341188D01*
X117582739Y-50413261D01*
X117699796Y-50500889D01*
X117836799Y-50551989D01*
X117897362Y-50558500D01*
X117897365Y-50558500D01*
X119694635Y-50558500D01*
X119694638Y-50558500D01*
X119755201Y-50551989D01*
X119892204Y-50500889D01*
X120009261Y-50413261D01*
X120096889Y-50296204D01*
X120147989Y-50159201D01*
X120148123Y-50157956D01*
X120148461Y-50157199D01*
X120149414Y-50153171D01*
X120150185Y-50153353D01*
X120173140Y-50102118D01*
X120226199Y-50071650D01*
X120287034Y-50078187D01*
X120319392Y-50101483D01*
X120412756Y-50202903D01*
X120412762Y-50202908D01*
X120590420Y-50341186D01*
X120590424Y-50341189D01*
X120788426Y-50448342D01*
X121001365Y-50521444D01*
X121223431Y-50558500D01*
X121448569Y-50558500D01*
X121670635Y-50521444D01*
X121883574Y-50448342D01*
X122081576Y-50341189D01*
X122259240Y-50202906D01*
X122299476Y-50159199D01*
X122411717Y-50037274D01*
X122411718Y-50037272D01*
X122411722Y-50037268D01*
X122523121Y-49866757D01*
X122570776Y-49828385D01*
X122631886Y-49825351D01*
X122683109Y-49858816D01*
X122688870Y-49866746D01*
X122800278Y-50037268D01*
X122800282Y-50037274D01*
X122952756Y-50202903D01*
X122952762Y-50202908D01*
X123130420Y-50341186D01*
X123130424Y-50341189D01*
X123328426Y-50448342D01*
X123541365Y-50521444D01*
X123763431Y-50558500D01*
X123988569Y-50558500D01*
X124210635Y-50521444D01*
X124423574Y-50448342D01*
X124621576Y-50341189D01*
X124799240Y-50202906D01*
X124839476Y-50159199D01*
X124951717Y-50037274D01*
X124951718Y-50037272D01*
X124951722Y-50037268D01*
X125063121Y-49866757D01*
X125110776Y-49828385D01*
X125171886Y-49825351D01*
X125223109Y-49858816D01*
X125228870Y-49866746D01*
X125340278Y-50037268D01*
X125340282Y-50037274D01*
X125492756Y-50202903D01*
X125492762Y-50202908D01*
X125670420Y-50341186D01*
X125670424Y-50341189D01*
X125868426Y-50448342D01*
X126081365Y-50521444D01*
X126303431Y-50558500D01*
X126528569Y-50558500D01*
X126750635Y-50521444D01*
X126963574Y-50448342D01*
X127161576Y-50341189D01*
X127339240Y-50202906D01*
X127379476Y-50159199D01*
X127491717Y-50037274D01*
X127491718Y-50037272D01*
X127491722Y-50037268D01*
X127603121Y-49866757D01*
X127650776Y-49828385D01*
X127711886Y-49825351D01*
X127763109Y-49858816D01*
X127768870Y-49866746D01*
X127880278Y-50037268D01*
X127880282Y-50037274D01*
X128032756Y-50202903D01*
X128032762Y-50202908D01*
X128210420Y-50341186D01*
X128210424Y-50341189D01*
X128408426Y-50448342D01*
X128621365Y-50521444D01*
X128843431Y-50558500D01*
X129068569Y-50558500D01*
X129290635Y-50521444D01*
X129503574Y-50448342D01*
X129701576Y-50341189D01*
X129879240Y-50202906D01*
X129919476Y-50159199D01*
X130031717Y-50037274D01*
X130031718Y-50037272D01*
X130031722Y-50037268D01*
X130143121Y-49866757D01*
X130190776Y-49828385D01*
X130251886Y-49825351D01*
X130303109Y-49858816D01*
X130308870Y-49866746D01*
X130420278Y-50037268D01*
X130420282Y-50037274D01*
X130572756Y-50202903D01*
X130572762Y-50202908D01*
X130750420Y-50341186D01*
X130750424Y-50341189D01*
X130948426Y-50448342D01*
X131161365Y-50521444D01*
X131383431Y-50558500D01*
X131608569Y-50558500D01*
X131830635Y-50521444D01*
X132043574Y-50448342D01*
X132241576Y-50341189D01*
X132419240Y-50202906D01*
X132459476Y-50159199D01*
X132571717Y-50037274D01*
X132571718Y-50037272D01*
X132571722Y-50037268D01*
X132683121Y-49866757D01*
X132730776Y-49828385D01*
X132791886Y-49825351D01*
X132843109Y-49858816D01*
X132848870Y-49866746D01*
X132960278Y-50037268D01*
X132960282Y-50037274D01*
X133112756Y-50202903D01*
X133112762Y-50202908D01*
X133290420Y-50341186D01*
X133290424Y-50341189D01*
X133488426Y-50448342D01*
X133701365Y-50521444D01*
X133923431Y-50558500D01*
X134148569Y-50558500D01*
X134370635Y-50521444D01*
X134583574Y-50448342D01*
X134781576Y-50341189D01*
X134959240Y-50202906D01*
X134999476Y-50159199D01*
X135111717Y-50037274D01*
X135111718Y-50037272D01*
X135111722Y-50037268D01*
X135223121Y-49866757D01*
X135270776Y-49828385D01*
X135331886Y-49825351D01*
X135383109Y-49858816D01*
X135388870Y-49866746D01*
X135500278Y-50037268D01*
X135500282Y-50037274D01*
X135652756Y-50202903D01*
X135652762Y-50202908D01*
X135830420Y-50341186D01*
X135830424Y-50341189D01*
X136028426Y-50448342D01*
X136241365Y-50521444D01*
X136463431Y-50558500D01*
X136688569Y-50558500D01*
X136910635Y-50521444D01*
X137123574Y-50448342D01*
X137321576Y-50341189D01*
X137499240Y-50202906D01*
X137539476Y-50159199D01*
X137651717Y-50037274D01*
X137651718Y-50037272D01*
X137651722Y-50037268D01*
X137763121Y-49866757D01*
X137810776Y-49828385D01*
X137871886Y-49825351D01*
X137923109Y-49858816D01*
X137928870Y-49866746D01*
X138040278Y-50037268D01*
X138040282Y-50037274D01*
X138192756Y-50202903D01*
X138192762Y-50202908D01*
X138370420Y-50341186D01*
X138370424Y-50341189D01*
X138568426Y-50448342D01*
X138781365Y-50521444D01*
X139003431Y-50558500D01*
X139228569Y-50558500D01*
X139450635Y-50521444D01*
X139663574Y-50448342D01*
X139861576Y-50341189D01*
X140039240Y-50202906D01*
X140079476Y-50159199D01*
X140191717Y-50037274D01*
X140191718Y-50037272D01*
X140191722Y-50037268D01*
X140303121Y-49866757D01*
X140350776Y-49828385D01*
X140411886Y-49825351D01*
X140463109Y-49858816D01*
X140468870Y-49866746D01*
X140580278Y-50037268D01*
X140580282Y-50037274D01*
X140732756Y-50202903D01*
X140732762Y-50202908D01*
X140910420Y-50341186D01*
X140910424Y-50341189D01*
X141108426Y-50448342D01*
X141321365Y-50521444D01*
X141543431Y-50558500D01*
X141768569Y-50558500D01*
X141990635Y-50521444D01*
X142203574Y-50448342D01*
X142401576Y-50341189D01*
X142579240Y-50202906D01*
X142619476Y-50159199D01*
X142675231Y-50098634D01*
X144361500Y-50098634D01*
X144368010Y-50159199D01*
X144368011Y-50159201D01*
X144419111Y-50296204D01*
X144419112Y-50296206D01*
X144419113Y-50296207D01*
X144452785Y-50341188D01*
X144506739Y-50413261D01*
X144623796Y-50500889D01*
X144760799Y-50551989D01*
X144821362Y-50558500D01*
X144821365Y-50558500D01*
X146618635Y-50558500D01*
X146618638Y-50558500D01*
X146679201Y-50551989D01*
X146816204Y-50500889D01*
X146933261Y-50413261D01*
X147020889Y-50296204D01*
X147071989Y-50159201D01*
X147072123Y-50157956D01*
X147072461Y-50157199D01*
X147073414Y-50153171D01*
X147074185Y-50153353D01*
X147097140Y-50102118D01*
X147150199Y-50071650D01*
X147211034Y-50078187D01*
X147243392Y-50101483D01*
X147336756Y-50202903D01*
X147336762Y-50202908D01*
X147514420Y-50341186D01*
X147514424Y-50341189D01*
X147712426Y-50448342D01*
X147925365Y-50521444D01*
X148147431Y-50558500D01*
X148372569Y-50558500D01*
X148594635Y-50521444D01*
X148807574Y-50448342D01*
X149005576Y-50341189D01*
X149183240Y-50202906D01*
X149223476Y-50159199D01*
X149335717Y-50037274D01*
X149335718Y-50037272D01*
X149335722Y-50037268D01*
X149447121Y-49866757D01*
X149494776Y-49828385D01*
X149555886Y-49825351D01*
X149607109Y-49858816D01*
X149612870Y-49866746D01*
X149724278Y-50037268D01*
X149724282Y-50037274D01*
X149876756Y-50202903D01*
X149876762Y-50202908D01*
X150054420Y-50341186D01*
X150054424Y-50341189D01*
X150252426Y-50448342D01*
X150465365Y-50521444D01*
X150687431Y-50558500D01*
X150912569Y-50558500D01*
X151134635Y-50521444D01*
X151347574Y-50448342D01*
X151545576Y-50341189D01*
X151723240Y-50202906D01*
X151763476Y-50159199D01*
X151875717Y-50037274D01*
X151875718Y-50037272D01*
X151875722Y-50037268D01*
X151987121Y-49866757D01*
X152034776Y-49828385D01*
X152095886Y-49825351D01*
X152147109Y-49858816D01*
X152152870Y-49866746D01*
X152264278Y-50037268D01*
X152264282Y-50037274D01*
X152416756Y-50202903D01*
X152416762Y-50202908D01*
X152594420Y-50341186D01*
X152594424Y-50341189D01*
X152792426Y-50448342D01*
X153005365Y-50521444D01*
X153227431Y-50558500D01*
X153452569Y-50558500D01*
X153674635Y-50521444D01*
X153887574Y-50448342D01*
X154085576Y-50341189D01*
X154263240Y-50202906D01*
X154303476Y-50159199D01*
X154415717Y-50037274D01*
X154415718Y-50037272D01*
X154415722Y-50037268D01*
X154527121Y-49866757D01*
X154574776Y-49828385D01*
X154635886Y-49825351D01*
X154687109Y-49858816D01*
X154692870Y-49866746D01*
X154804278Y-50037268D01*
X154804282Y-50037274D01*
X154956756Y-50202903D01*
X154956762Y-50202908D01*
X155134420Y-50341186D01*
X155134424Y-50341189D01*
X155332426Y-50448342D01*
X155545365Y-50521444D01*
X155767431Y-50558500D01*
X155992569Y-50558500D01*
X156214635Y-50521444D01*
X156427574Y-50448342D01*
X156625576Y-50341189D01*
X156803240Y-50202906D01*
X156843476Y-50159199D01*
X156955717Y-50037274D01*
X156955718Y-50037272D01*
X156955722Y-50037268D01*
X157067121Y-49866757D01*
X157114776Y-49828385D01*
X157175886Y-49825351D01*
X157227109Y-49858816D01*
X157232870Y-49866746D01*
X157344278Y-50037268D01*
X157344282Y-50037274D01*
X157496756Y-50202903D01*
X157496762Y-50202908D01*
X157674420Y-50341186D01*
X157674424Y-50341189D01*
X157872426Y-50448342D01*
X158085365Y-50521444D01*
X158307431Y-50558500D01*
X158532569Y-50558500D01*
X158754635Y-50521444D01*
X158967574Y-50448342D01*
X159165576Y-50341189D01*
X159343240Y-50202906D01*
X159383476Y-50159199D01*
X159495717Y-50037274D01*
X159495718Y-50037272D01*
X159495722Y-50037268D01*
X159607121Y-49866757D01*
X159654776Y-49828385D01*
X159715886Y-49825351D01*
X159767109Y-49858816D01*
X159772870Y-49866746D01*
X159884278Y-50037268D01*
X159884282Y-50037274D01*
X160036756Y-50202903D01*
X160036762Y-50202908D01*
X160214420Y-50341186D01*
X160214424Y-50341189D01*
X160412426Y-50448342D01*
X160625365Y-50521444D01*
X160847431Y-50558500D01*
X161072569Y-50558500D01*
X161294635Y-50521444D01*
X161507574Y-50448342D01*
X161705576Y-50341189D01*
X161883240Y-50202906D01*
X161923476Y-50159199D01*
X162035717Y-50037274D01*
X162035718Y-50037272D01*
X162035722Y-50037268D01*
X162147121Y-49866757D01*
X162194776Y-49828385D01*
X162255886Y-49825351D01*
X162307109Y-49858816D01*
X162312870Y-49866746D01*
X162424278Y-50037268D01*
X162424282Y-50037274D01*
X162576756Y-50202903D01*
X162576762Y-50202908D01*
X162754420Y-50341186D01*
X162754424Y-50341189D01*
X162952426Y-50448342D01*
X163165365Y-50521444D01*
X163387431Y-50558500D01*
X163612569Y-50558500D01*
X163834635Y-50521444D01*
X164047574Y-50448342D01*
X164245576Y-50341189D01*
X164423240Y-50202906D01*
X164463476Y-50159199D01*
X164575717Y-50037274D01*
X164575718Y-50037272D01*
X164575722Y-50037268D01*
X164698860Y-49848791D01*
X164789296Y-49642616D01*
X164844564Y-49424368D01*
X164863156Y-49200000D01*
X164844564Y-48975632D01*
X164789296Y-48757384D01*
X164698860Y-48551209D01*
X164575722Y-48362732D01*
X164575720Y-48362730D01*
X164575717Y-48362725D01*
X164423243Y-48197096D01*
X164423237Y-48197091D01*
X164245579Y-48058813D01*
X164245576Y-48058811D01*
X164047577Y-47951659D01*
X164031781Y-47946236D01*
X163834635Y-47878556D01*
X163834632Y-47878555D01*
X163834631Y-47878555D01*
X163612569Y-47841500D01*
X163387431Y-47841500D01*
X163165368Y-47878555D01*
X162952422Y-47951659D01*
X162754423Y-48058811D01*
X162754420Y-48058813D01*
X162576762Y-48197091D01*
X162576756Y-48197096D01*
X162424280Y-48362728D01*
X162424277Y-48362731D01*
X162312879Y-48533240D01*
X162265224Y-48571614D01*
X162204114Y-48574648D01*
X162152891Y-48541182D01*
X162147121Y-48533240D01*
X162035722Y-48362731D01*
X162035719Y-48362728D01*
X161883243Y-48197096D01*
X161883237Y-48197091D01*
X161705579Y-48058813D01*
X161705576Y-48058811D01*
X161507577Y-47951659D01*
X161491781Y-47946236D01*
X161294635Y-47878556D01*
X161294632Y-47878555D01*
X161294631Y-47878555D01*
X161072569Y-47841500D01*
X160847431Y-47841500D01*
X160625368Y-47878555D01*
X160412422Y-47951659D01*
X160214423Y-48058811D01*
X160214420Y-48058813D01*
X160036762Y-48197091D01*
X160036756Y-48197096D01*
X159884280Y-48362728D01*
X159884277Y-48362731D01*
X159772879Y-48533240D01*
X159725224Y-48571614D01*
X159664114Y-48574648D01*
X159612891Y-48541182D01*
X159607121Y-48533240D01*
X159495722Y-48362731D01*
X159495719Y-48362728D01*
X159343243Y-48197096D01*
X159343237Y-48197091D01*
X159165579Y-48058813D01*
X159165576Y-48058811D01*
X158967577Y-47951659D01*
X158951781Y-47946236D01*
X158754635Y-47878556D01*
X158754632Y-47878555D01*
X158754631Y-47878555D01*
X158532569Y-47841500D01*
X158307431Y-47841500D01*
X158085368Y-47878555D01*
X157872422Y-47951659D01*
X157674423Y-48058811D01*
X157674420Y-48058813D01*
X157496762Y-48197091D01*
X157496756Y-48197096D01*
X157344280Y-48362728D01*
X157344277Y-48362731D01*
X157232879Y-48533240D01*
X157185224Y-48571614D01*
X157124114Y-48574648D01*
X157072891Y-48541182D01*
X157067121Y-48533240D01*
X156955722Y-48362731D01*
X156955719Y-48362728D01*
X156803243Y-48197096D01*
X156803237Y-48197091D01*
X156625579Y-48058813D01*
X156625576Y-48058811D01*
X156427577Y-47951659D01*
X156411781Y-47946236D01*
X156214635Y-47878556D01*
X156214632Y-47878555D01*
X156214631Y-47878555D01*
X155992569Y-47841500D01*
X155767431Y-47841500D01*
X155545368Y-47878555D01*
X155332422Y-47951659D01*
X155134423Y-48058811D01*
X155134420Y-48058813D01*
X154956762Y-48197091D01*
X154956756Y-48197096D01*
X154804280Y-48362728D01*
X154804277Y-48362731D01*
X154692879Y-48533240D01*
X154645224Y-48571614D01*
X154584114Y-48574648D01*
X154532891Y-48541182D01*
X154527121Y-48533240D01*
X154415722Y-48362731D01*
X154415719Y-48362728D01*
X154263243Y-48197096D01*
X154263237Y-48197091D01*
X154085579Y-48058813D01*
X154085576Y-48058811D01*
X153887577Y-47951659D01*
X153871781Y-47946236D01*
X153674635Y-47878556D01*
X153674632Y-47878555D01*
X153674631Y-47878555D01*
X153452569Y-47841500D01*
X153227431Y-47841500D01*
X153005368Y-47878555D01*
X152792422Y-47951659D01*
X152594423Y-48058811D01*
X152594420Y-48058813D01*
X152416762Y-48197091D01*
X152416756Y-48197096D01*
X152264280Y-48362728D01*
X152264277Y-48362731D01*
X152152879Y-48533240D01*
X152105224Y-48571614D01*
X152044114Y-48574648D01*
X151992891Y-48541182D01*
X151987121Y-48533240D01*
X151875722Y-48362731D01*
X151875719Y-48362728D01*
X151723243Y-48197096D01*
X151723237Y-48197091D01*
X151545579Y-48058813D01*
X151545576Y-48058811D01*
X151347577Y-47951659D01*
X151331781Y-47946236D01*
X151134635Y-47878556D01*
X151134632Y-47878555D01*
X151134631Y-47878555D01*
X150912569Y-47841500D01*
X150687431Y-47841500D01*
X150465368Y-47878555D01*
X150252422Y-47951659D01*
X150054423Y-48058811D01*
X150054420Y-48058813D01*
X149876762Y-48197091D01*
X149876756Y-48197096D01*
X149724280Y-48362728D01*
X149724277Y-48362731D01*
X149612879Y-48533240D01*
X149565224Y-48571614D01*
X149504114Y-48574648D01*
X149452891Y-48541182D01*
X149447121Y-48533240D01*
X149335722Y-48362731D01*
X149335719Y-48362728D01*
X149183243Y-48197096D01*
X149183237Y-48197091D01*
X149005579Y-48058813D01*
X149005576Y-48058811D01*
X148807577Y-47951659D01*
X148791781Y-47946236D01*
X148594635Y-47878556D01*
X148594632Y-47878555D01*
X148594631Y-47878555D01*
X148372569Y-47841500D01*
X148147431Y-47841500D01*
X147925368Y-47878555D01*
X147712422Y-47951659D01*
X147514423Y-48058811D01*
X147514420Y-48058813D01*
X147336762Y-48197091D01*
X147243392Y-48298517D01*
X147190070Y-48328523D01*
X147129294Y-48321456D01*
X147084279Y-48280016D01*
X147073637Y-48246776D01*
X147073414Y-48246829D01*
X147072735Y-48243958D01*
X147072123Y-48242045D01*
X147071989Y-48240800D01*
X147055688Y-48197096D01*
X147020889Y-48103796D01*
X146933261Y-47986739D01*
X146886398Y-47951658D01*
X146816207Y-47899113D01*
X146816206Y-47899112D01*
X146816204Y-47899111D01*
X146679201Y-47848011D01*
X146679200Y-47848010D01*
X146638327Y-47843616D01*
X146618638Y-47841500D01*
X144821362Y-47841500D01*
X144805288Y-47843228D01*
X144760800Y-47848010D01*
X144685116Y-47876239D01*
X144623796Y-47899111D01*
X144623794Y-47899112D01*
X144623792Y-47899113D01*
X144506743Y-47986735D01*
X144506735Y-47986743D01*
X144419113Y-48103792D01*
X144419112Y-48103794D01*
X144419111Y-48103796D01*
X144396239Y-48165116D01*
X144368010Y-48240800D01*
X144361500Y-48301365D01*
X144361500Y-50098634D01*
X142675231Y-50098634D01*
X142731717Y-50037274D01*
X142731718Y-50037272D01*
X142731722Y-50037268D01*
X142854860Y-49848791D01*
X142945296Y-49642616D01*
X143000564Y-49424368D01*
X143019156Y-49200000D01*
X143000564Y-48975632D01*
X142945296Y-48757384D01*
X142854860Y-48551209D01*
X142731722Y-48362732D01*
X142731720Y-48362730D01*
X142731717Y-48362725D01*
X142579243Y-48197096D01*
X142579237Y-48197091D01*
X142401579Y-48058813D01*
X142401576Y-48058811D01*
X142203577Y-47951659D01*
X142187781Y-47946236D01*
X141990635Y-47878556D01*
X141990632Y-47878555D01*
X141990631Y-47878555D01*
X141768569Y-47841500D01*
X141543431Y-47841500D01*
X141321368Y-47878555D01*
X141108422Y-47951659D01*
X140910423Y-48058811D01*
X140910420Y-48058813D01*
X140732762Y-48197091D01*
X140732756Y-48197096D01*
X140580280Y-48362728D01*
X140580277Y-48362731D01*
X140468879Y-48533240D01*
X140421224Y-48571614D01*
X140360114Y-48574648D01*
X140308891Y-48541182D01*
X140303121Y-48533240D01*
X140191722Y-48362731D01*
X140191719Y-48362728D01*
X140039243Y-48197096D01*
X140039237Y-48197091D01*
X139861579Y-48058813D01*
X139861576Y-48058811D01*
X139663577Y-47951659D01*
X139647781Y-47946236D01*
X139450635Y-47878556D01*
X139450632Y-47878555D01*
X139450631Y-47878555D01*
X139228569Y-47841500D01*
X139003431Y-47841500D01*
X138781368Y-47878555D01*
X138568422Y-47951659D01*
X138370423Y-48058811D01*
X138370420Y-48058813D01*
X138192762Y-48197091D01*
X138192756Y-48197096D01*
X138040280Y-48362728D01*
X138040277Y-48362731D01*
X137928879Y-48533240D01*
X137881224Y-48571614D01*
X137820114Y-48574648D01*
X137768891Y-48541182D01*
X137763121Y-48533240D01*
X137651722Y-48362731D01*
X137651719Y-48362728D01*
X137499243Y-48197096D01*
X137499237Y-48197091D01*
X137321579Y-48058813D01*
X137321576Y-48058811D01*
X137123577Y-47951659D01*
X137107781Y-47946236D01*
X136910635Y-47878556D01*
X136910632Y-47878555D01*
X136910631Y-47878555D01*
X136688569Y-47841500D01*
X136463431Y-47841500D01*
X136241368Y-47878555D01*
X136028422Y-47951659D01*
X135830423Y-48058811D01*
X135830420Y-48058813D01*
X135652762Y-48197091D01*
X135652756Y-48197096D01*
X135500280Y-48362728D01*
X135500277Y-48362731D01*
X135388879Y-48533240D01*
X135341224Y-48571614D01*
X135280114Y-48574648D01*
X135228891Y-48541182D01*
X135223121Y-48533240D01*
X135111722Y-48362731D01*
X135111719Y-48362728D01*
X134959243Y-48197096D01*
X134959237Y-48197091D01*
X134781579Y-48058813D01*
X134781576Y-48058811D01*
X134583577Y-47951659D01*
X134567781Y-47946236D01*
X134370635Y-47878556D01*
X134370632Y-47878555D01*
X134370631Y-47878555D01*
X134148569Y-47841500D01*
X133923431Y-47841500D01*
X133701368Y-47878555D01*
X133488422Y-47951659D01*
X133290423Y-48058811D01*
X133290420Y-48058813D01*
X133112762Y-48197091D01*
X133112756Y-48197096D01*
X132960280Y-48362728D01*
X132960277Y-48362731D01*
X132848879Y-48533240D01*
X132801224Y-48571614D01*
X132740114Y-48574648D01*
X132688891Y-48541182D01*
X132683121Y-48533240D01*
X132571722Y-48362731D01*
X132571719Y-48362728D01*
X132419243Y-48197096D01*
X132419237Y-48197091D01*
X132241579Y-48058813D01*
X132241576Y-48058811D01*
X132043577Y-47951659D01*
X132027781Y-47946236D01*
X131830635Y-47878556D01*
X131830632Y-47878555D01*
X131830631Y-47878555D01*
X131608569Y-47841500D01*
X131383431Y-47841500D01*
X131161368Y-47878555D01*
X130948422Y-47951659D01*
X130750423Y-48058811D01*
X130750420Y-48058813D01*
X130572762Y-48197091D01*
X130572756Y-48197096D01*
X130420280Y-48362728D01*
X130420277Y-48362731D01*
X130308879Y-48533240D01*
X130261224Y-48571614D01*
X130200114Y-48574648D01*
X130148891Y-48541182D01*
X130143121Y-48533240D01*
X130031722Y-48362731D01*
X130031719Y-48362728D01*
X129879243Y-48197096D01*
X129879237Y-48197091D01*
X129701579Y-48058813D01*
X129701576Y-48058811D01*
X129503577Y-47951659D01*
X129487781Y-47946236D01*
X129290635Y-47878556D01*
X129290632Y-47878555D01*
X129290631Y-47878555D01*
X129068569Y-47841500D01*
X128843431Y-47841500D01*
X128621368Y-47878555D01*
X128408422Y-47951659D01*
X128210423Y-48058811D01*
X128210420Y-48058813D01*
X128032762Y-48197091D01*
X128032756Y-48197096D01*
X127880280Y-48362728D01*
X127880277Y-48362731D01*
X127768879Y-48533240D01*
X127721224Y-48571614D01*
X127660114Y-48574648D01*
X127608891Y-48541182D01*
X127603121Y-48533240D01*
X127491722Y-48362731D01*
X127491719Y-48362728D01*
X127339243Y-48197096D01*
X127339237Y-48197091D01*
X127161579Y-48058813D01*
X127161576Y-48058811D01*
X126963577Y-47951659D01*
X126947781Y-47946236D01*
X126750635Y-47878556D01*
X126750632Y-47878555D01*
X126750631Y-47878555D01*
X126528569Y-47841500D01*
X126303431Y-47841500D01*
X126081368Y-47878555D01*
X125868422Y-47951659D01*
X125670423Y-48058811D01*
X125670420Y-48058813D01*
X125492762Y-48197091D01*
X125492756Y-48197096D01*
X125340280Y-48362728D01*
X125340277Y-48362731D01*
X125228879Y-48533240D01*
X125181224Y-48571614D01*
X125120114Y-48574648D01*
X125068891Y-48541182D01*
X125063121Y-48533240D01*
X124951722Y-48362731D01*
X124951719Y-48362728D01*
X124799243Y-48197096D01*
X124799237Y-48197091D01*
X124621579Y-48058813D01*
X124621576Y-48058811D01*
X124423577Y-47951659D01*
X124407781Y-47946236D01*
X124210635Y-47878556D01*
X124210632Y-47878555D01*
X124210631Y-47878555D01*
X123988569Y-47841500D01*
X123763431Y-47841500D01*
X123541368Y-47878555D01*
X123328422Y-47951659D01*
X123130423Y-48058811D01*
X123130420Y-48058813D01*
X122952762Y-48197091D01*
X122952756Y-48197096D01*
X122800280Y-48362728D01*
X122800277Y-48362731D01*
X122688879Y-48533240D01*
X122641224Y-48571614D01*
X122580114Y-48574648D01*
X122528891Y-48541182D01*
X122523121Y-48533240D01*
X122411722Y-48362731D01*
X122411719Y-48362728D01*
X122259243Y-48197096D01*
X122259237Y-48197091D01*
X122081579Y-48058813D01*
X122081576Y-48058811D01*
X121883577Y-47951659D01*
X121867781Y-47946236D01*
X121670635Y-47878556D01*
X121670632Y-47878555D01*
X121670631Y-47878555D01*
X121448569Y-47841500D01*
X121223431Y-47841500D01*
X121001368Y-47878555D01*
X120788422Y-47951659D01*
X120590423Y-48058811D01*
X120590420Y-48058813D01*
X120412762Y-48197091D01*
X120319392Y-48298517D01*
X120266070Y-48328523D01*
X120205294Y-48321456D01*
X120160279Y-48280016D01*
X120149637Y-48246776D01*
X120149414Y-48246829D01*
X120148735Y-48243958D01*
X120148123Y-48242045D01*
X120147989Y-48240800D01*
X120131688Y-48197096D01*
X120096889Y-48103796D01*
X120009261Y-47986739D01*
X119962398Y-47951658D01*
X119892207Y-47899113D01*
X119892206Y-47899112D01*
X119892204Y-47899111D01*
X119755201Y-47848011D01*
X119755200Y-47848010D01*
X119714327Y-47843616D01*
X119694638Y-47841500D01*
X117897362Y-47841500D01*
X117881288Y-47843228D01*
X117836800Y-47848010D01*
X117761116Y-47876239D01*
X117699796Y-47899111D01*
X117699794Y-47899112D01*
X117699792Y-47899113D01*
X117582743Y-47986735D01*
X117582735Y-47986743D01*
X117495113Y-48103792D01*
X117495112Y-48103794D01*
X117495111Y-48103796D01*
X117472239Y-48165116D01*
X117444010Y-48240800D01*
X117437500Y-48301365D01*
X117437500Y-50098634D01*
X100075500Y-50098634D01*
X100075500Y-47426860D01*
X100075977Y-47417156D01*
X100087735Y-47297774D01*
X100091521Y-47278740D01*
X100124928Y-47168611D01*
X100132345Y-47150702D01*
X100186608Y-47049184D01*
X100197373Y-47033073D01*
X100270388Y-46944104D01*
X100284104Y-46930388D01*
X100373073Y-46857373D01*
X100389184Y-46846608D01*
X100490702Y-46792345D01*
X100508611Y-46784928D01*
X100618742Y-46751520D01*
X100637771Y-46747735D01*
X100757157Y-46735977D01*
X100766861Y-46735500D01*
X100786531Y-46735500D01*
X163427719Y-46735500D01*
X163485910Y-46754407D01*
G37*
%TD.AperFunction*%
%TD*%
M02*
