M48
; DRILL file {KiCad 8.0.1} date 2024-05-26T11:57:42+0200
; FORMAT={-:-/ absolute / inch / decimal}
; #@! TF.CreationDate,2024-05-26T11:57:42+02:00
; #@! TF.GenerationSoftware,Kicad,Pcbnew,8.0.1
; #@! TF.FileFunction,Plated,1,4,PTH
FMAT,2
INCH
; #@! TA.AperFunction,Plated,PTH,ComponentDrill
T1C0.0315
; #@! TA.AperFunction,Plated,PTH,ComponentDrill
T2C0.0354
; #@! TA.AperFunction,Plated,PTH,ComponentDrill
T3C0.0394
; #@! TA.AperFunction,Plated,PTH,ComponentDrill
T4C0.0433
%
G90
G05
T1
X4.3207Y-2.4134
X4.3207Y-2.6112
X4.3226Y-2.8179
X4.3293Y-2.1939
X4.5697Y-3.0591
X4.6681Y-3.0591
X4.7207Y-2.4134
X4.7207Y-2.6112
X4.7226Y-2.8179
X4.7274Y-3.3671
X4.7274Y-3.564
X4.7293Y-2.1939
X4.8888Y-3.06
X4.9085Y-3.2488
X4.9085Y-3.6488
X4.9675Y-3.06
X4.9685Y-2.3945
X4.9685Y-2.7945
X5.1201Y-3.312
X5.1201Y-3.412
X5.1201Y-3.512
X5.1201Y-3.612
X5.127Y-2.4961
X5.127Y-2.5961
X5.127Y-2.6961
X5.127Y-2.7961
X5.1654Y-3.0699
X5.3622Y-3.0699
X5.4201Y-3.312
X5.4201Y-3.412
X5.4201Y-3.512
X5.4201Y-3.612
X5.427Y-2.4961
X5.427Y-2.5961
X5.427Y-2.6961
X5.427Y-2.7961
X5.5844Y-3.6171
X5.5854Y-3.377
X5.6457Y-2.4545
X5.6457Y-2.8545
X5.6762Y-3.0866
X5.7943Y-2.4565
X5.7943Y-2.8565
X5.873Y-3.0866
X5.9594Y-2.7815
X5.9844Y-3.6171
X5.9854Y-3.377
X6.0579Y-2.7815
X6.0844Y-2.5148
X6.1612Y-3.1575
X6.4844Y-2.5148
X6.5612Y-3.1575
T2
X4.9409Y-2.19
X5.0409Y-2.19
X5.314Y-2.189
X5.414Y-2.189
X5.7136Y-2.185
X5.8136Y-2.185
X6.3287Y-3.3878
X6.4287Y-3.3878
T3
X4.0394Y-2.9488
X4.0413Y-2.623
X4.0453Y-3.247
X4.0463Y-3.5226
X4.0482Y-2.063
X4.0512Y-2.3268
X4.063Y-3.8199
X4.3258Y-3.8238
X4.5571Y-3.8268
X4.677Y-1.937
X4.777Y-1.937
X4.812Y-3.8317
X4.877Y-1.937
X4.977Y-1.937
X5.037Y-3.837
X5.077Y-1.937
X5.137Y-3.837
X5.177Y-1.937
X5.237Y-3.837
X5.277Y-1.937
X5.337Y-3.837
X5.377Y-1.937
X5.437Y-3.837
X5.477Y-1.937
X5.537Y-3.837
X5.577Y-1.937
X5.637Y-3.837
X5.737Y-1.937
X5.737Y-3.837
X5.837Y-1.937
X5.937Y-1.937
X5.937Y-3.837
X6.037Y-1.937
X6.037Y-3.837
X6.137Y-1.937
X6.137Y-3.837
X6.1693Y-3.6516
X6.2215Y-2.7085
X6.2215Y-2.8085
X6.2215Y-2.9085
X6.237Y-1.937
X6.237Y-3.837
X6.337Y-1.937
X6.337Y-3.837
X6.437Y-1.937
X6.437Y-3.837
X6.4754Y-3.6535
T4
X6.1289Y-2.1398
X6.1289Y-2.3169
X6.3848Y-2.1398
X6.3848Y-2.3169
M30
